<svg width="32" height="32" viewBox="0 0 32 32" fill="none" xmlns="http://www.w3.org/2000/svg">
<rect width="32" height="32" rx="16" fill="#092514"/>
<g clip-path="url(#clip0_4926_49612)">
<path fill-rule="evenodd" clip-rule="evenodd" d="M26 11C26 13.7614 23.7614 16 21 16C20.2002 16 19.4442 15.8122 18.7738 15.4783C18.5956 15.3895 18.392 15.36 18.1997 15.4114L17.0867 15.7092C16.6035 15.8385 16.1615 15.3965 16.2908 14.9133L16.5886 13.8003C16.64 13.608 16.6105 13.4044 16.5217 13.2262C16.1878 12.5558 16 11.7998 16 11C16 8.23858 18.2386 6 21 6C23.7614 6 26 8.23858 26 11ZM21 8.8125C21.5178 8.8125 21.9375 9.23223 21.9375 9.75V10.0625H22.25C22.7678 10.0625 23.1875 10.4822 23.1875 11C23.1875 11.5178 22.7678 11.9375 22.25 11.9375H21.9375V12.25C21.9375 12.7678 21.5178 13.1875 21 13.1875C20.4822 13.1875 20.0625 12.7678 20.0625 12.25V11.9375H19.75C19.2322 11.9375 18.8125 11.5178 18.8125 11C18.8125 10.4822 19.2322 10.0625 19.75 10.0625H20.0625V9.75C20.0625 9.23223 20.4822 8.8125 21 8.8125Z" fill="#2FB763"/>
<path d="M12.0376 11.3162L12.6866 12.4791C13.2723 13.5286 13.0372 14.9053 12.1147 15.8278C12.1147 15.8278 12.1147 15.8278 12.1147 15.8278C12.1146 15.8279 10.9959 16.9468 13.0245 18.9755C15.0525 21.0035 16.1714 19.8861 16.1722 19.8853C16.1722 19.8853 16.1722 19.8853 16.1722 19.8853C17.0947 18.9628 18.4714 18.7277 19.5209 19.3134L20.6838 19.9624C22.2686 20.8468 22.4557 23.0692 21.0628 24.4622C20.2258 25.2992 19.2004 25.9505 18.0669 25.9934C16.1588 26.0658 12.9183 25.5829 9.6677 22.3323C6.41713 19.0817 5.93421 15.8412 6.00655 13.9331C6.04952 12.7996 6.7008 11.7742 7.53781 10.9372C8.93076 9.54428 11.1532 9.73144 12.0376 11.3162Z" fill="#2FB763"/>
</g>
<defs>
<clipPath id="clip0_4926_49612">
<rect x="4" y="4" width="24" height="24" rx="8" fill="white"/>
</clipPath>
</defs>
</svg>
