<svg width="32" height="32" viewBox="0 0 32 32" fill="none" xmlns="http://www.w3.org/2000/svg">
<rect width="32" height="32" rx="16" fill="#361705"/>
<g clip-path="url(#clip0_4926_49604)">
<path d="M9.46689 8.39207C9.75949 8.68526 9.75902 9.16013 9.46583 9.45273C7.78722 11.128 6.75 13.4422 6.75 16C6.75 18.5878 7.81163 20.9262 9.52503 22.6059C9.82082 22.8959 9.82554 23.3707 9.53557 23.6665C9.24561 23.9623 8.77076 23.967 8.47497 23.677C6.48564 21.7269 5.25 19.0071 5.25 16C5.25 13.0278 6.45721 10.3362 8.40623 8.39102C8.69941 8.09842 9.17429 8.09889 9.46689 8.39207Z" fill="#DB7E21"/>
<path d="M22.6164 8.46446C22.9122 8.17449 23.387 8.17921 23.677 8.475C25.5771 10.4133 26.75 13.0704 26.75 16C26.75 18.9645 25.5491 21.6499 23.609 23.5938C23.3164 23.887 22.8415 23.8875 22.5484 23.5949C22.2552 23.3023 22.2547 22.8274 22.5473 22.5342C24.2182 20.86 25.25 18.5512 25.25 16C25.25 13.4787 24.2422 11.1943 22.6059 9.52507C22.3159 9.22928 22.3206 8.75443 22.6164 8.46446Z" fill="#DB7E21"/>
<path d="M12.3092 11.4876C12.5923 11.79 12.5765 12.2647 12.2741 12.5477C11.3252 13.4357 10.75 14.6503 10.75 15.9823C10.75 17.3297 11.3387 18.5573 12.3076 19.4479C12.6125 19.7282 12.6325 20.2027 12.3522 20.5076C12.0718 20.8126 11.5974 20.8325 11.2924 20.5522C10.0397 19.4007 9.25 17.7824 9.25 15.9823C9.25 14.203 10.0215 12.6013 11.2492 11.4524C11.5516 11.1694 12.0262 11.1852 12.3092 11.4876Z" fill="#DB7E21"/>
<path d="M19.7429 11.5256C20.0292 11.2263 20.5039 11.2157 20.8033 11.502C22.0005 12.6472 22.75 14.2286 22.75 15.9823C22.75 17.7568 21.9825 19.3549 20.7604 20.5031C20.4586 20.7867 19.9839 20.7719 19.7003 20.47C19.4167 20.1682 19.4315 19.6935 19.7333 19.4099C20.6778 18.5225 21.25 17.3108 21.25 15.9823C21.25 14.6692 20.6911 13.4705 19.7664 12.586C19.4671 12.2997 19.4566 11.825 19.7429 11.5256Z" fill="#DB7E21"/>
<path fill-rule="evenodd" clip-rule="evenodd" d="M16 13.2501C14.4812 13.2501 13.25 14.4813 13.25 16.0001C13.25 17.5188 14.4812 18.7501 16 18.7501C17.5188 18.7501 18.75 17.5188 18.75 16.0001C18.75 14.4813 17.5188 13.2501 16 13.2501ZM14.75 16.0001C14.75 15.3097 15.3096 14.7501 16 14.7501C16.6904 14.7501 17.25 15.3097 17.25 16.0001C17.25 16.6904 16.6904 17.2501 16 17.2501C15.3096 17.2501 14.75 16.6904 14.75 16.0001Z" fill="#DB7E21"/>
</g>
<defs>
<clipPath id="clip0_4926_49604">
<rect x="4" y="4" width="24" height="24" rx="8" fill="white"/>
</clipPath>
</defs>
</svg>
