<svg width="32" height="32" viewBox="0 0 32 32" fill="none" xmlns="http://www.w3.org/2000/svg">
<rect width="32" height="32" rx="16" fill="#1A1D25"/>
<g clip-path="url(#clip0_4926_49608)">
<path d="M9.75 13.0547C9.75 9.56721 12.5537 6.75 16 6.75C19.4463 6.75 22.25 9.56721 22.25 13.0547C22.25 14.7638 21.5769 16.3119 20.4833 17.4475C20.196 17.7458 20.2049 18.2206 20.5033 18.5079C20.8016 18.7953 21.2764 18.7863 21.5637 18.488C22.9168 17.083 23.75 15.1656 23.75 13.0547C23.75 8.74981 20.2857 5.25 16 5.25C11.7143 5.25 8.25 8.74981 8.25 13.0547C8.25 15.1836 9.09743 17.1156 10.4709 18.5237C10.7601 18.8202 11.2349 18.8261 11.5315 18.5369C11.828 18.2477 11.8339 17.7728 11.5447 17.4763C10.4346 16.3382 9.75 14.7783 9.75 13.0547Z" fill="#828DA9"/>
<path d="M12.55 13.0547C12.55 11.1257 14.1001 9.57189 16 9.57189C17.8999 9.57189 19.45 11.1257 19.45 13.0547C19.45 13.9873 19.088 14.8321 18.4979 15.4571C18.2135 15.7583 18.2272 16.233 18.5284 16.5173C18.8296 16.8017 19.3043 16.788 19.5886 16.4868C20.4321 15.5933 20.95 14.3837 20.95 13.0547C20.95 10.3083 18.7393 8.07189 16 8.07189C13.2607 8.07189 11.05 10.3083 11.05 13.0547C11.05 14.4028 11.5829 15.628 12.4479 16.5251C12.7354 16.8233 13.2102 16.8319 13.5084 16.5444C13.8066 16.2569 13.8152 15.7821 13.5277 15.4839C12.9225 14.8563 12.55 14.0006 12.55 13.0547Z" fill="#828DA9"/>
<path fill-rule="evenodd" clip-rule="evenodd" d="M18 12.75C18 13.5071 17.5794 14.1659 16.9591 14.5055L19.206 21.2462C19.2099 21.2571 19.2136 21.2681 19.217 21.2792L20.7115 25.7628C20.8425 26.1558 20.6301 26.5805 20.2372 26.7115C19.8442 26.8425 19.4195 26.6301 19.2885 26.2372L17.9594 22.25H14.0406L12.7115 26.2372C12.5805 26.6301 12.1558 26.8425 11.7628 26.7115C11.3699 26.5805 11.1575 26.1558 11.2885 25.7628L12.783 21.2792C12.7864 21.2681 12.7901 21.2571 12.794 21.2462L15.0409 14.5055C14.4206 14.1659 14 13.5071 14 12.75C14 11.6454 14.8954 10.75 16 10.75C17.1046 10.75 18 11.6454 18 12.75ZM15.5 12.75C15.5 12.4739 15.7239 12.25 16 12.25C16.2761 12.25 16.5 12.4739 16.5 12.75C16.5 13.0261 16.2761 13.25 16 13.25C15.7239 13.25 15.5 13.0261 15.5 12.75ZM14.5406 20.75H17.4594L16 16.3717L14.5406 20.75Z" fill="#828DA9"/>
</g>
<defs>
<clipPath id="clip0_4926_49608">
<rect x="4" y="4" width="24" height="24" rx="8" fill="white"/>
</clipPath>
</defs>
</svg>
