<svg width="17" height="16" viewBox="0 0 17 16" fill="none" xmlns="http://www.w3.org/2000/svg">
<path fill-rule="evenodd" clip-rule="evenodd" d="M10.4987 1.33203H11.832C13.0891 1.33203 13.7176 1.33203 14.1082 1.72256C14.4987 2.11308 14.4987 2.74162 14.4987 3.9987V14.1654H15.1654C15.4415 14.1654 15.6654 14.3892 15.6654 14.6654C15.6654 14.9415 15.4415 15.1654 15.1654 15.1654H1.83203C1.55589 15.1654 1.33203 14.9415 1.33203 14.6654C1.33203 14.3892 1.55589 14.1654 1.83203 14.1654H2.4987V5.9987C2.4987 4.74162 2.4987 4.11308 2.88922 3.72256C3.27975 3.33203 3.90829 3.33203 5.16536 3.33203H7.83203C9.08911 3.33203 9.71765 3.33203 10.1082 3.72256C10.4987 4.11308 10.4987 4.74162 10.4987 5.9987V14.1654H11.4987V5.9987L11.4987 5.93904C11.4988 5.36195 11.4988 4.83284 11.441 4.40242C11.3772 3.92845 11.2273 3.42748 10.8153 3.01545C10.4033 2.60342 9.90228 2.45349 9.42831 2.38976C9.00395 2.33271 8.48366 2.33197 7.91604 2.33202C7.97223 2.07386 8.06602 1.87909 8.22256 1.72256C8.61308 1.33203 9.24162 1.33203 10.4987 1.33203ZM3.9987 5.33203C3.9987 5.05589 4.22256 4.83203 4.4987 4.83203H8.4987C8.77484 4.83203 8.9987 5.05589 8.9987 5.33203C8.9987 5.60817 8.77484 5.83203 8.4987 5.83203H4.4987C4.22256 5.83203 3.9987 5.60817 3.9987 5.33203ZM3.9987 7.33203C3.9987 7.05589 4.22256 6.83203 4.4987 6.83203H8.4987C8.77484 6.83203 8.9987 7.05589 8.9987 7.33203C8.9987 7.60817 8.77484 7.83203 8.4987 7.83203H4.4987C4.22256 7.83203 3.9987 7.60817 3.9987 7.33203ZM3.9987 9.33203C3.9987 9.05589 4.22256 8.83203 4.4987 8.83203H8.4987C8.77484 8.83203 8.9987 9.05589 8.9987 9.33203C8.9987 9.60817 8.77484 9.83203 8.4987 9.83203H4.4987C4.22256 9.83203 3.9987 9.60817 3.9987 9.33203ZM6.4987 12.1654C6.77484 12.1654 6.9987 12.3892 6.9987 12.6654V14.1654H5.9987V12.6654C5.9987 12.3892 6.22256 12.1654 6.4987 12.1654Z" fill="#FFA02E"/>
</svg>
