<svg width="375" height="53" viewBox="0 0 375 53" fill="none" xmlns="http://www.w3.org/2000/svg">
<g clip-path="url(#clip0_4708_34434)">
<rect width="375" height="53" fill="url(#paint0_linear_4708_34434)"/>
<g filter="url(#filter0_d_4708_34434)">
<g clip-path="url(#clip1_4708_34434)">
<g opacity="0.2">
<path opacity="0.0526316" d="M-64.1952 216.846C-53.428 231.171 -19.0149 255.142 32.5 236.426C96.8936 213.032 121.798 151.021 179.271 118.867C221.689 95.1353 335.671 59.5125 401.212 98.8762" stroke="url(#paint1_linear_4708_34434)" stroke-width="1.23672"/>
<path opacity="0.315789" d="M-91.189 65.3813C-89.0267 83.1706 -71.2096 121.137 -17.2387 130.686C50.2249 142.623 102.799 101.372 168.648 102.262C217.25 102.919 333.772 129.06 370.85 195.92" stroke="url(#paint2_linear_4708_34434)" stroke-width="1.23672"/>
<path opacity="0.368421" d="M-88.8321 36.0645C-88.5412 53.9824 -74.7901 93.6027 -22.1131 108.741C43.7331 127.665 100.331 92.1353 165.726 99.9038C213.993 105.637 327.144 143.814 357.031 214.184" stroke="url(#paint3_linear_4708_34434)" stroke-width="1.23672"/>
<path opacity="0.421053" d="M-84.0225 7.69145C-85.6061 25.5415 -76.0718 66.3823 -25.2659 86.9443C38.2416 112.647 98.2431 83.228 162.468 97.7896C209.871 108.537 318.412 158.332 340.779 231.441" stroke="url(#paint4_linear_4708_34434)" stroke-width="1.23672"/>
<path opacity="0.473684" d="M-76.8708 -19.4845C-80.3116 -1.89768 -75.0985 39.7159 -26.7202 65.476C33.7527 97.6761 96.5006 74.6902 158.852 95.8854C204.872 111.529 307.613 172.397 322.216 247.443" stroke="url(#paint5_linear_4708_34434)" stroke-width="1.23672"/>
<path opacity="0.526316" d="M-67.5204 -45.219C-72.7806 -28.0882 -71.9459 13.8423 -26.5253 44.5182C30.2505 82.8631 95.0574 66.562 154.852 94.1586C198.984 114.527 294.8 185.801 301.478 261.962" stroke="url(#paint6_linear_4708_34434)" stroke-width="1.23672"/>
<path opacity="0.578947" d="M-56.1312 -69.3002C-63.1533 -52.8132 -66.7061 -11.0251 -24.7408 24.2305C27.7159 68.3 93.8716 58.8624 150.454 92.558C192.215 117.428 280.056 198.327 278.737 274.769" stroke="url(#paint7_linear_4708_34434)" stroke-width="1.23672"/>
<path opacity="0.631579" d="M-42.8912 -91.5133C-51.5982 -75.8506 -59.4996 -34.6628 -21.4493 4.78626C26.1134 54.0976 92.8933 51.6268 145.643 91.0523C184.577 120.151 263.48 209.789 254.177 285.674" stroke="url(#paint8_linear_4708_34434)" stroke-width="1.23672"/>
<path opacity="0.684211" d="M-27.9959 -111.683C-38.2924 -97.0159 -50.4558 -56.8797 -16.7376 -13.6694C25.4102 40.3434 92.0825 44.8666 140.422 89.5899C176.101 122.599 245.202 219.994 228.018 294.491" stroke="url(#paint9_linear_4708_34434)" stroke-width="1.23672"/>
<path opacity="0.736842" d="M-11.6796 -129.645C-23.4528 -116.135 -39.745 -77.4897 -10.7281 -30.9916C25.5429 27.131 91.3771 38.5985 134.777 88.1298C166.81 124.688 225.352 228.772 200.476 301.064" stroke="url(#paint10_linear_4708_34434)" stroke-width="1.23672"/>
<path opacity="0.789474" d="M5.82809 -145.263C-7.29282 -133.057 -27.5352 -96.3268 -3.53774 -47.0504C26.4591 14.5451 90.734 32.8314 128.719 86.6279C156.755 126.334 204.097 235.967 171.8 305.263" stroke="url(#paint11_linear_4708_34434)" stroke-width="1.23672"/>
<path opacity="0.842105" d="M24.2714 -158.422C9.94657 -147.655 -14.0243 -113.241 4.69093 -61.7266C28.085 2.66706 90.0963 27.5717 122.25 85.044C145.982 127.463 181.605 241.444 142.241 306.985" stroke="url(#paint12_linear_4708_34434)" stroke-width="1.23672"/>
<path opacity="0.894737" d="M43.3883 -169.041C28.0164 -159.831 0.579668 -128.112 13.8076 -74.9227C30.3426 -8.43646 89.4109 22.8137 115.381 83.3321C134.549 127.999 158.062 245.08 112.063 306.147" stroke="url(#paint13_linear_4708_34434)" stroke-width="1.23672"/>
<path opacity="0.947368" d="M62.9142 -177.066C46.6637 -169.513 16.0618 -140.835 23.6575 -86.555C33.1521 -18.7046 88.6304 18.5487 108.132 81.4503C122.526 127.876 133.673 246.773 81.5423 302.698" stroke="url(#paint14_linear_4708_34434)" stroke-width="1.23672"/>
<path d="M82.567 -182.465C65.616 -176.651 32.1841 -151.33 34.0644 -96.5529C36.4147 -28.0818 87.695 14.7665 100.515 79.3619C109.977 127.038 108.635 246.449 50.9442 296.618" stroke="url(#paint15_linear_4708_34434)" stroke-width="1.23672"/>
</g>
<g opacity="0.2">
<path opacity="0.0526316" d="M338.764 -217.558C321.675 -222.952 279.739 -222.445 248.709 -177.266C209.921 -120.791 225.715 -55.859 197.652 3.71757C176.939 47.6896 104.918 142.945 28.7065 149.027" stroke="url(#paint16_linear_4708_34434)" stroke-width="1.23672"/>
<path opacity="0.105263" d="M364.865 -199.303C348.434 -206.454 306.675 -210.333 271.092 -168.645C226.613 -116.535 235.533 -50.3071 201.396 6.00975C176.201 47.5758 94.617 134.781 18.1877 132.864" stroke="url(#paint17_linear_4708_34434)" stroke-width="1.23672"/>
<path opacity="0.157895" d="M389.089 -179.204C373.495 -188.034 332.37 -196.257 292.625 -158.516C242.943 -111.341 244.892 -44.5436 205.055 7.89639C175.653 46.601 85.4004 124.801 9.59015 114.905" stroke="url(#paint18_linear_4708_34434)" stroke-width="1.23672"/>
<path opacity="0.210526" d="M411.253 -157.477C396.668 -167.888 356.628 -180.365 313.155 -146.985C258.814 -105.261 253.77 -38.6265 208.67 9.36221C175.383 44.7814 77.4508 113.119 3.09027 95.3533" stroke="url(#paint19_linear_4708_34434)" stroke-width="1.23672"/>
<path opacity="0.263158" d="M431.202 -134.335C417.784 -146.213 379.268 -162.807 332.544 -134.155C274.14 -98.3394 262.158 -32.5968 212.289 10.4147C175.481 42.1605 70.9428 99.8871 -1.15337 74.4458" stroke="url(#paint20_linear_4708_34434)" stroke-width="1.23672"/>
<path opacity="0.315789" d="M448.794 -110.027C436.691 -123.243 400.121 -143.772 350.658 -120.16C288.83 -90.6459 270.041 -26.516 215.949 11.0472C176.026 38.7717 66.0256 85.2548 -3.01627 52.4168" stroke="url(#paint21_linear_4708_34434)" stroke-width="1.23672"/>
<path opacity="0.368421" d="M463.923 -84.8001C453.268 -99.2087 419.044 -123.448 367.384 -105.136C302.81 -82.2464 277.421 -20.4317 219.699 11.2716C177.096 34.6709 62.8394 69.4013 -2.39174 29.5263" stroke="url(#paint22_linear_4708_34434)" stroke-width="1.23672"/>
<path opacity="0.421053" d="M476.506 -58.9209C467.415 -74.3644 435.912 -102.048 382.621 -89.2367C316.007 -73.2222 284.296 -14.4 223.577 11.096C178.761 29.9139 61.5004 52.511 0.794708 6.03595" stroke="url(#paint23_linear_4708_34434)" stroke-width="1.23672"/>
<path opacity="0.473684" d="M486.489 -32.6531C479.063 -48.9621 450.626 -79.7874 396.288 -72.6164C328.365 -63.6526 290.679 -8.46737 227.627 10.542C181.09 24.5724 62.1094 34.7886 6.59421 -17.7773" stroke="url(#paint24_linear_4708_34434)" stroke-width="1.23672"/>
<path opacity="0.526316" d="M493.847 -6.28213C488.166 -23.2781 463.107 -56.907 408.317 -55.4551C339.829 -53.6403 296.581 -2.69664 231.888 9.6179C184.139 18.7069 64.7423 16.4304 15.0259 -41.6505" stroke="url(#paint25_linear_4708_34434)" stroke-width="1.23672"/>
<path opacity="0.578947" d="M498.58 19.9355C494.706 2.43884 473.3 -33.6252 418.658 -37.9085C350.356 -43.2625 302.02 2.88148 236.394 8.36622C187.956 12.4144 69.4519 -2.33006 26.0789 -65.2896" stroke="url(#paint26_linear_4708_34434)" stroke-width="1.23672"/>
<path opacity="0.631579" d="M500.724 45.7062C498.701 27.9006 481.181 -10.2035 427.287 -20.1749C359.918 -32.6391 307.024 8.1996 241.183 6.79446C192.588 5.75736 76.2744 -21.2934 39.7201 -88.4417" stroke="url(#paint27_linear_4708_34434)" stroke-width="1.23672"/>
<path opacity="0.684211" d="M500.331 70.7776C500.18 52.858 486.739 13.1313 434.182 -2.4189C368.486 -21.8567 311.612 13.2293 246.279 4.94962C198.059 -1.16137 85.2096 -40.222 55.8744 -110.824" stroke="url(#paint28_linear_4708_34434)" stroke-width="1.23672"/>
<path opacity="0.736842" d="M497.5 94.8792C499.223 77.0421 490.009 36.128 439.365 15.1693C376.061 -11.0291 315.831 17.9197 251.722 2.85625C204.404 -8.26167 96.256 -58.9043 74.4614 -132.185" stroke="url(#paint29_linear_4708_34434)" stroke-width="1.23672"/>
<path opacity="0.789474" d="M492.336 117.762C495.914 100.203 491.026 58.5496 442.851 32.4119C382.632 -0.260107 319.706 22.2344 257.522 0.552253C211.626 -15.4508 109.364 -77.1206 95.3488 -152.278" stroke="url(#paint30_linear_4708_34434)" stroke-width="1.23672"/>
<path opacity="0.842105" d="M484.983 139.198C490.377 122.108 489.871 80.1727 444.691 49.1426C388.217 10.3549 323.285 26.1486 263.708 -1.91469C219.736 -22.6275 124.481 -94.6488 118.398 -170.86" stroke="url(#paint31_linear_4708_34434)" stroke-width="1.23672"/>
<path opacity="0.894737" d="M475.604 158.951C482.755 142.52 486.634 100.76 444.946 65.1778C392.835 20.6994 326.608 29.6194 270.291 -4.51769C228.725 -29.7134 141.519 -111.297 143.437 -187.726" stroke="url(#paint32_linear_4708_34434)" stroke-width="1.23672"/>
<path opacity="0.947368" d="M464.384 176.832C473.213 161.237 481.437 120.113 443.696 80.3672C396.52 30.6855 329.723 32.6339 277.283 -7.20283C238.579 -36.6053 160.379 -126.858 170.274 -202.668" stroke="url(#paint33_linear_4708_34434)" stroke-width="1.23672"/>
<path d="M451.535 192.648C461.946 178.062 474.423 138.022 441.044 94.5496C399.32 40.2088 332.685 35.1644 284.696 -9.93561C249.277 -43.2228 180.939 -141.155 198.705 -215.515" stroke="url(#paint34_linear_4708_34434)" stroke-width="1.23672"/>
</g>
</g>
</g>
</g>
<defs>
<filter id="filter0_d_4708_34434" x="-22.3324" y="-37.2928" width="420.965" height="261.289" filterUnits="userSpaceOnUse" color-interpolation-filters="sRGB">
<feFlood flood-opacity="0" result="BackgroundImageFix"/>
<feColorMatrix in="SourceAlpha" type="matrix" values="0 0 0 0 0 0 0 0 0 0 0 0 0 0 0 0 0 0 127 0" result="hardAlpha"/>
<feMorphology radius="2.23324" operator="dilate" in="SourceAlpha" result="effect1_dropShadow_4708_34434"/>
<feOffset dx="-3.34985" dy="3.34985"/>
<feGaussianBlur stdDeviation="8.37464"/>
<feComposite in2="hardAlpha" operator="out"/>
<feColorMatrix type="matrix" values="0 0 0 0 0 0 0 0 0 0 0 0 0 0 0 0 0 0 0.06 0"/>
<feBlend mode="normal" in2="BackgroundImageFix" result="effect1_dropShadow_4708_34434"/>
<feBlend mode="normal" in="SourceGraphic" in2="effect1_dropShadow_4708_34434" result="shape"/>
</filter>
<linearGradient id="paint0_linear_4708_34434" x1="188" y1="-18.5" x2="187.5" y2="53" gradientUnits="userSpaceOnUse">
<stop stop-color="#F3FFEB"/>
<stop offset="0.530413" stop-color="white"/>
</linearGradient>
<linearGradient id="paint1_linear_4708_34434" x1="-60.1436" y1="229.315" x2="395.491" y2="81.2707" gradientUnits="userSpaceOnUse">
<stop offset="0.165" stop-color="#66C95B"/>
<stop offset="0.395" stop-color="white"/>
</linearGradient>
<linearGradient id="paint2_linear_4708_34434" x1="-93.915" y1="78.2061" x2="374.699" y2="177.813" gradientUnits="userSpaceOnUse">
<stop offset="0.165" stop-color="#66C95B"/>
<stop offset="0.395" stop-color="white"/>
</linearGradient>
<linearGradient id="paint3_linear_4708_34434" x1="-92.8837" y1="48.5341" x2="362.751" y2="196.579" gradientUnits="userSpaceOnUse">
<stop offset="0.165" stop-color="#66C95B"/>
<stop offset="0.395" stop-color="white"/>
</linearGradient>
<linearGradient id="paint4_linear_4708_34434" x1="-89.3554" y1="19.6692" x2="348.308" y2="214.53" gradientUnits="userSpaceOnUse">
<stop offset="0.165" stop-color="#66C95B"/>
<stop offset="0.395" stop-color="white"/>
</linearGradient>
<linearGradient id="paint5_linear_4708_34434" x1="-83.4265" y1="-8.12973" x2="331.471" y2="231.412" gradientUnits="userSpaceOnUse">
<stop offset="0.165" stop-color="#66C95B"/>
<stop offset="0.395" stop-color="white"/>
</linearGradient>
<linearGradient id="paint6_linear_4708_34434" x1="-75.227" y1="-34.6117" x2="312.359" y2="246.986" gradientUnits="userSpaceOnUse">
<stop offset="0.165" stop-color="#66C95B"/>
<stop offset="0.395" stop-color="white"/>
</linearGradient>
<linearGradient id="paint7_linear_4708_34434" x1="-64.9044" y1="-59.5566" x2="291.123" y2="261.012" gradientUnits="userSpaceOnUse">
<stop offset="0.165" stop-color="#66C95B"/>
<stop offset="0.395" stop-color="white"/>
</linearGradient>
<linearGradient id="paint8_linear_4708_34434" x1="-52.6348" y1="-82.7401" x2="267.934" y2="273.288" gradientUnits="userSpaceOnUse">
<stop offset="0.165" stop-color="#66C95B"/>
<stop offset="0.395" stop-color="white"/>
</linearGradient>
<linearGradient id="paint9_linear_4708_34434" x1="-38.6031" y1="-103.976" x2="242.995" y2="283.61" gradientUnits="userSpaceOnUse">
<stop offset="0.165" stop-color="#66C95B"/>
<stop offset="0.395" stop-color="white"/>
</linearGradient>
<linearGradient id="paint10_linear_4708_34434" x1="-23.0343" y1="-123.089" x2="216.507" y2="291.809" gradientUnits="userSpaceOnUse">
<stop offset="0.165" stop-color="#66C95B"/>
<stop offset="0.395" stop-color="white"/>
</linearGradient>
<linearGradient id="paint11_linear_4708_34434" x1="-6.1497" y1="-139.93" x2="188.711" y2="297.734" gradientUnits="userSpaceOnUse">
<stop offset="0.165" stop-color="#66C95B"/>
<stop offset="0.395" stop-color="white"/>
</linearGradient>
<linearGradient id="paint12_linear_4708_34434" x1="11.8018" y1="-154.37" x2="159.847" y2="301.265" gradientUnits="userSpaceOnUse">
<stop offset="0.165" stop-color="#66C95B"/>
<stop offset="0.395" stop-color="white"/>
</linearGradient>
<linearGradient id="paint13_linear_4708_34434" x1="30.5634" y1="-166.315" x2="130.17" y2="302.298" gradientUnits="userSpaceOnUse">
<stop offset="0.165" stop-color="#66C95B"/>
<stop offset="0.395" stop-color="white"/>
</linearGradient>
<linearGradient id="paint14_linear_4708_34434" x1="49.8747" y1="-175.696" x2="99.9525" y2="300.763" gradientUnits="userSpaceOnUse">
<stop offset="0.165" stop-color="#66C95B"/>
<stop offset="0.395" stop-color="white"/>
</linearGradient>
<linearGradient id="paint15_linear_4708_34434" x1="69.4557" y1="-182.465" x2="69.4557" y2="296.618" gradientUnits="userSpaceOnUse">
<stop offset="0.165" stop-color="#66C95B"/>
<stop offset="0.395" stop-color="white"/>
</linearGradient>
<linearGradient id="paint16_linear_4708_34434" x1="328.217" y1="-225.347" x2="43.5971" y2="160.025" gradientUnits="userSpaceOnUse">
<stop offset="0.025" stop-color="#9747FF"/>
<stop offset="1" stop-color="white"/>
</linearGradient>
<linearGradient id="paint17_linear_4708_34434" x1="355.191" y1="-208.152" x2="31.8472" y2="145.358" gradientUnits="userSpaceOnUse">
<stop offset="0.025" stop-color="#9747FF"/>
<stop offset="1" stop-color="white"/>
</linearGradient>
<linearGradient id="paint18_linear_4708_34434" x1="380.393" y1="-189.016" x2="21.8688" y2="128.758" gradientUnits="userSpaceOnUse">
<stop offset="0.025" stop-color="#9747FF"/>
<stop offset="1" stop-color="white"/>
</linearGradient>
<linearGradient id="paint19_linear_4708_34434" x1="403.63" y1="-168.144" x2="13.8536" y2="110.414" gradientUnits="userSpaceOnUse">
<stop offset="0.025" stop-color="#9747FF"/>
<stop offset="1" stop-color="white"/>
</linearGradient>
<linearGradient id="paint20_linear_4708_34434" x1="424.735" y1="-145.74" x2="7.97674" y2="90.5491" gradientUnits="userSpaceOnUse">
<stop offset="0.025" stop-color="#9747FF"/>
<stop offset="1" stop-color="white"/>
</linearGradient>
<linearGradient id="paint21_linear_4708_34434" x1="443.555" y1="-122.046" x2="4.38057" y2="69.3863" gradientUnits="userSpaceOnUse">
<stop offset="0.025" stop-color="#9747FF"/>
<stop offset="1" stop-color="white"/>
</linearGradient>
<linearGradient id="paint22_linear_4708_34434" x1="459.969" y1="-97.301" x2="3.19078" y2="47.176" gradientUnits="userSpaceOnUse">
<stop offset="0.025" stop-color="#9747FF"/>
<stop offset="1" stop-color="white"/>
</linearGradient>
<linearGradient id="paint23_linear_4708_34434" x1="473.88" y1="-71.7667" x2="4.50175" y2="24.1725" gradientUnits="userSpaceOnUse">
<stop offset="0.025" stop-color="#9747FF"/>
<stop offset="1" stop-color="white"/>
</linearGradient>
<linearGradient id="paint24_linear_4708_34434" x1="485.22" y1="-45.7029" x2="8.38516" y2="0.647344" gradientUnits="userSpaceOnUse">
<stop offset="0.025" stop-color="#9747FF"/>
<stop offset="1" stop-color="white"/>
</linearGradient>
<linearGradient id="paint25_linear_4708_34434" x1="493.949" y1="-19.3931" x2="14.8811" y2="-23.1396" gradientUnits="userSpaceOnUse">
<stop offset="0.025" stop-color="#9747FF"/>
<stop offset="1" stop-color="white"/>
</linearGradient>
<linearGradient id="paint26_linear_4708_34434" x1="500.052" y1="6.9071" x2="24" y2="-46.8952" gradientUnits="userSpaceOnUse">
<stop offset="0.025" stop-color="#9747FF"/>
<stop offset="1" stop-color="white"/>
</linearGradient>
<linearGradient id="paint27_linear_4708_34434" x1="503.55" y1="32.9032" x2="35.7298" y2="-70.3654" gradientUnits="userSpaceOnUse">
<stop offset="0.025" stop-color="#9747FF"/>
<stop offset="1" stop-color="white"/>
</linearGradient>
<linearGradient id="paint28_linear_4708_34434" x1="504.48" y1="58.3401" x2="50.0166" y2="-93.2633" gradientUnits="userSpaceOnUse">
<stop offset="0.025" stop-color="#9747FF"/>
<stop offset="1" stop-color="white"/>
</linearGradient>
<linearGradient id="paint29_linear_4708_34434" x1="502.927" y1="82.9435" x2="66.8001" y2="-115.334" gradientUnits="userSpaceOnUse">
<stop offset="0.025" stop-color="#9747FF"/>
<stop offset="1" stop-color="white"/>
</linearGradient>
<linearGradient id="paint30_linear_4708_34434" x1="498.98" y1="106.459" x2="85.9679" y2="-136.32" gradientUnits="userSpaceOnUse">
<stop offset="0.025" stop-color="#9747FF"/>
<stop offset="1" stop-color="white"/>
</linearGradient>
<linearGradient id="paint31_linear_4708_34434" x1="492.773" y1="128.651" x2="107.401" y2="-155.969" gradientUnits="userSpaceOnUse">
<stop offset="0.025" stop-color="#9747FF"/>
<stop offset="1" stop-color="white"/>
</linearGradient>
<linearGradient id="paint32_linear_4708_34434" x1="484.453" y1="149.276" x2="130.943" y2="-174.067" gradientUnits="userSpaceOnUse">
<stop offset="0.025" stop-color="#9747FF"/>
<stop offset="1" stop-color="white"/>
</linearGradient>
<linearGradient id="paint33_linear_4708_34434" x1="474.196" y1="168.135" x2="156.421" y2="-190.389" gradientUnits="userSpaceOnUse">
<stop offset="0.025" stop-color="#9747FF"/>
<stop offset="1" stop-color="white"/>
</linearGradient>
<linearGradient id="paint34_linear_4708_34434" x1="462.203" y1="185.025" x2="183.645" y2="-204.752" gradientUnits="userSpaceOnUse">
<stop offset="0.025" stop-color="#9747FF"/>
<stop offset="1" stop-color="white"/>
</linearGradient>
<clipPath id="clip0_4708_34434">
<rect width="375" height="53" fill="white"/>
</clipPath>
<clipPath id="clip1_4708_34434">
<rect y="-21.6602" width="383" height="223.324" rx="22.3324" fill="white"/>
</clipPath>
</defs>
</svg>
