<svg width="16" height="16" viewBox="0 0 16 16" fill="none" xmlns="http://www.w3.org/2000/svg">
<g clip-path="url(#clip0_5508_13671)">
<path d="M6.68556 5.97847C6.4903 5.78321 6.17372 5.78321 5.97846 5.97847C5.7832 6.17373 5.7832 6.49031 5.97846 6.68557L7.29158 7.99869L5.97847 9.3118C5.78321 9.50706 5.78321 9.82365 5.97847 10.0189C6.17373 10.2142 6.49032 10.2142 6.68558 10.0189L7.99868 8.7058L9.31178 10.0189C9.50704 10.2142 9.82362 10.2142 10.0189 10.0189C10.2141 9.82363 10.2141 9.50705 10.0189 9.31179L8.70579 7.99869L10.0189 6.68559C10.2142 6.49033 10.2142 6.17374 10.0189 5.97848C9.82364 5.78322 9.50705 5.78322 9.31179 5.97848L7.99868 7.29159L6.68556 5.97847Z" fill="#FFA02E"/>
<path fill-rule="evenodd" clip-rule="evenodd" d="M7.9987 0.832031C4.04066 0.832031 0.832031 4.04066 0.832031 7.9987C0.832031 11.9567 4.04066 15.1654 7.9987 15.1654C11.9567 15.1654 15.1654 11.9567 15.1654 7.9987C15.1654 4.04066 11.9567 0.832031 7.9987 0.832031ZM1.83203 7.9987C1.83203 4.59294 4.59294 1.83203 7.9987 1.83203C11.4045 1.83203 14.1654 4.59294 14.1654 7.9987C14.1654 11.4045 11.4045 14.1654 7.9987 14.1654C4.59294 14.1654 1.83203 11.4045 1.83203 7.9987Z" fill="#FFA02E"/>
</g>
<defs>
<clipPath id="clip0_5508_13671">
<rect width="16" height="16" fill="white"/>
</clipPath>
</defs>
</svg>
