<svg width="15" height="12" viewBox="0 0 15 12" fill="none" xmlns="http://www.w3.org/2000/svg">
<path d="M3.33464 11V1.87667C3.33458 1.68277 3.39892 1.49435 3.51757 1.34099C3.63621 1.18763 3.80244 1.07802 3.99013 1.02938C4.17783 0.98074 4.37637 0.995821 4.55456 1.07226C4.73276 1.14869 4.88052 1.28215 4.97464 1.45167L10.028 10.5483C10.1221 10.7179 10.2698 10.8513 10.448 10.9277C10.6262 11.0042 10.8248 11.0193 11.0125 10.9706C11.2002 10.922 11.3664 10.8124 11.485 10.659C11.6037 10.5057 11.668 10.3172 11.668 10.1233V1M1.66797 4.33333H13.3346M1.66797 7.66667H13.3346" stroke="#FFA02E" stroke-width="2" stroke-linecap="round" stroke-linejoin="round"/>
</svg>
