<svg width="12" height="14" viewBox="0 0 12 14" fill="none" xmlns="http://www.w3.org/2000/svg">
<path fill-rule="evenodd" clip-rule="evenodd" d="M2.83001 0.332031H9.16999C9.94257 0.332031 10.3289 0.332031 10.6404 0.440436C11.2312 0.646001 11.695 1.12349 11.8947 1.73167C12 2.0524 12 2.45007 12 3.24541V12.5815C12 13.1537 11.3433 13.4572 10.9279 13.0771C10.6839 12.8538 10.3161 12.8538 10.0721 13.0771L9.75 13.3718C9.32228 13.7632 8.67772 13.7632 8.25 13.3718C7.82228 12.9804 7.17772 12.9804 6.75 13.3718C6.32228 13.7632 5.67772 13.7632 5.25 13.3718C4.82228 12.9804 4.17772 12.9804 3.75 13.3718C3.32228 13.7632 2.67772 13.7632 2.25 13.3718L1.92794 13.0771C1.68388 12.8538 1.31612 12.8538 1.07206 13.0771C0.656665 13.4572 0 13.1537 0 12.5815V3.2454C0 2.45007 0 2.0524 0.105303 1.73167C0.304986 1.12349 0.768813 0.646001 1.35959 0.440436C1.67114 0.332031 2.05743 0.332031 2.83001 0.332031ZM2.66667 3.4987C2.39052 3.4987 2.16667 3.72256 2.16667 3.9987C2.16667 4.27484 2.39052 4.4987 2.66667 4.4987H3C3.27614 4.4987 3.5 4.27484 3.5 3.9987C3.5 3.72256 3.27614 3.4987 3 3.4987H2.66667ZM5 3.4987C4.72386 3.4987 4.5 3.72256 4.5 3.9987C4.5 4.27484 4.72386 4.4987 5 4.4987H9.33333C9.60948 4.4987 9.83333 4.27484 9.83333 3.9987C9.83333 3.72256 9.60948 3.4987 9.33333 3.4987H5ZM2.66667 5.83203C2.39052 5.83203 2.16667 6.05589 2.16667 6.33203C2.16667 6.60817 2.39052 6.83203 2.66667 6.83203H3C3.27614 6.83203 3.5 6.60817 3.5 6.33203C3.5 6.05589 3.27614 5.83203 3 5.83203H2.66667ZM5 5.83203C4.72386 5.83203 4.5 6.05589 4.5 6.33203C4.5 6.60817 4.72386 6.83203 5 6.83203H9.33333C9.60948 6.83203 9.83333 6.60817 9.83333 6.33203C9.83333 6.05589 9.60948 5.83203 9.33333 5.83203H5ZM2.66667 8.16536C2.39052 8.16536 2.16667 8.38922 2.16667 8.66536C2.16667 8.94151 2.39052 9.16536 2.66667 9.16536H3C3.27614 9.16536 3.5 8.94151 3.5 8.66536C3.5 8.38922 3.27614 8.16536 3 8.16536H2.66667ZM5 8.16536C4.72386 8.16536 4.5 8.38922 4.5 8.66536C4.5 8.94151 4.72386 9.16536 5 9.16536H9.33333C9.60948 9.16536 9.83333 8.94151 9.83333 8.66536C9.83333 8.38922 9.60948 8.16536 9.33333 8.16536H5Z" fill="#2FB763"/>
</svg>
