<svg width="24" height="24" viewBox="0 0 24 24" fill="none" xmlns="http://www.w3.org/2000/svg">
<path fill-rule="evenodd" clip-rule="evenodd" d="M18.364 3.05859C18.7782 3.05859 19.114 3.39438 19.114 3.80859V8.05123C19.114 8.46545 18.7782 8.80123 18.364 8.80123H14.1213C13.7071 8.80123 13.3713 8.46545 13.3713 8.05123C13.3713 7.63702 13.7071 7.30123 14.1213 7.30123H16.4817C13.6363 5.05816 9.4987 5.24923 6.87348 7.87446C4.04217 10.7058 4.04217 15.2962 6.87348 18.1275C9.70478 20.9588 14.2952 20.9588 17.1265 18.1275C19.0234 16.2306 19.6504 13.5438 19.0039 11.1228C18.897 10.7227 19.1348 10.3116 19.535 10.2047C19.9352 10.0979 20.3462 10.3356 20.4531 10.7358C21.2321 13.6528 20.478 16.8974 18.1872 19.1882C14.7701 22.6053 9.2299 22.6053 5.81282 19.1882C2.39573 15.7711 2.39573 10.2309 5.81282 6.8138C9.04483 3.58178 14.1762 3.40673 17.614 6.28865V3.80859C17.614 3.39438 17.9497 3.05859 18.364 3.05859Z" fill="#828DA9"/>
</svg>
