<svg width="375" height="132" viewBox="0 0 375 132" fill="none" xmlns="http://www.w3.org/2000/svg">
<g clip-path="url(#clip0_4708_32699)">
<rect width="375" height="812" fill="#F3F4F7"/>
<g opacity="0.4">
<path d="M-25.5462 444.811C36.6685 511.395 111.05 570.484 154.809 602.202C183.431 623.67 229.896 656.267 213.155 621.922C189.728 573.862 162.039 538.723 133.982 504.067C115.437 481.16 33.9346 381.894 -1.87653 347.287C-33.7132 316.521 -72.6784 308.489 -73.828 347.229C-74.9826 386.136 -46.0566 422.86 -25.5462 444.811Z" fill="#E2E4EB"/>
<path d="M1.34507 293.367L216.251 588.469C241.018 625.561 278.711 636.003 250.14 559.782L188.862 437.366L63.7951 217.465C51.8095 198.175 20.1502 166.127 -10.6022 192.252C-41.3547 218.378 -15.4509 270.548 1.34507 293.367Z" fill="#E2E4EB"/>
<path d="M86.5042 189.864L270.646 545.797C295.597 592.04 304.962 565.032 298.052 537.49L274.158 436.831C259.3 378.321 223.94 245.344 201.37 181.517C178.8 117.691 159.406 98.134 142.539 84.2562C128.739 72.9017 101.429 56.0892 80.2342 81.8498C59.039 107.61 70.035 158.314 86.5042 189.864Z" fill="#E2E4EB"/>
<path d="M236.541 195.026L320.479 485.229C337.366 542.837 369.273 515.09 363.074 466.275C359.062 434.689 352.691 375.448 350.991 363.763C348.865 349.157 325.785 207.844 310.278 155.411C298.719 116.33 228.999 66.6803 201.942 49.5611C165.584 26.5573 155.583 51.7812 173.866 72.7461C217.529 122.813 225.341 152.383 236.541 195.026Z" fill="#E2E4EB"/>
<path d="M359.957 252.857L383.24 398.011C397.701 474.194 416.305 440.644 427.601 397.225C438.07 356.982 455.501 285.183 411.48 238.677C367.459 192.172 353.765 218.191 359.957 252.857Z" fill="#E2E4EB"/>
</g>
</g>
<defs>
<clipPath id="clip0_4708_32699">
<rect width="375" height="812" fill="white"/>
</clipPath>
</defs>
</svg>
