<svg width="23" height="24" viewBox="0 0 23 24" fill="none" xmlns="http://www.w3.org/2000/svg">
<path d="M0.462315 7.38995C-0.125041 11.8536 -0.0445425 16.5461 0.11896 19.2112C0.198371 20.977 0.413296 23.7729 1.1981 22.0561C2.2963 19.6538 2.76772 17.4944 3.20917 15.3362C3.50098 13.9096 4.72976 7.68425 4.92595 5.23172C5.10037 3.05137 4.18366 1.31271 2.66962 2.48488C1.14905 3.6621 0.655949 5.91843 0.462315 7.38995Z" fill="#828DA9"/>
<path d="M7.08417 3.6621L2.57151 21.1241C1.93387 23.2333 2.71868 24.9991 4.72975 21.5165L7.47658 15.3362L11.9402 3.6621C12.2999 2.59933 12.5288 0.385512 10.5668 0.0323471C8.60475 -0.320818 7.42753 2.30503 7.08417 3.6621Z" fill="#828DA9"/>
<path d="M13.706 3.6621L5.90696 21.8599C4.92595 24.2634 6.25032 23.7729 7.08417 22.6447L10.1744 18.5735C11.9402 16.17 15.9035 10.6469 17.6301 7.78235C19.3567 4.91779 19.494 3.56399 19.494 2.48488C19.494 1.60197 19.2782 0.0323471 17.6301 0.0323471C15.982 0.0323471 14.3927 2.04342 13.706 3.6621Z" fill="#828DA9"/>
<path d="M18.2187 9.54818L9.78196 21.8599C8.11425 24.3124 10.1744 24.6588 11.8421 22.89C12.9212 21.7454 14.9813 19.6428 15.3737 19.2112C15.8643 18.6716 20.531 13.3553 22.0446 11.1178C23.1728 9.45008 22.8785 5.23172 22.6823 3.6621C22.4186 1.55292 21.1424 1.96315 20.9165 3.31874C20.3769 6.55609 19.494 7.78235 18.2187 9.54818Z" fill="#828DA9"/>
<path d="M19.8864 16.0719L15.0794 21.5165C12.6269 24.4596 14.4908 24.1162 16.5019 23.1843C18.3658 22.3205 21.6522 20.7317 22.0446 17.5925C22.437 14.4532 21.0146 14.7476 19.8864 16.0719Z" fill="#828DA9"/>
</svg>
