<svg width="16" height="16" viewBox="0 0 16 16" fill="none" xmlns="http://www.w3.org/2000/svg">
<path d="M0.30821 4.92663C-0.0833608 7.90237 -0.029695 11.0307 0.0793066 12.8074C0.132247 13.9847 0.275531 15.8486 0.79873 14.7041C1.53087 13.1025 1.84515 11.6629 2.13945 10.2241C2.33399 9.27304 3.15317 5.12284 3.28397 3.48781C3.40025 2.03425 2.78911 0.875143 1.77974 1.65659C0.76603 2.4414 0.437299 3.94562 0.30821 4.92663Z" fill="#2FB763"/>
<path d="M4.72278 2.4414L1.71434 14.0828C1.28925 15.4889 1.81245 16.6661 3.15316 14.3444L4.98439 10.2241L7.96013 2.4414C8.19993 1.73289 8.35253 0.257008 7.04452 0.0215647C5.7365 -0.213879 4.95169 1.53669 4.72278 2.4414Z" fill="#2FB763"/>
<path d="M9.13735 2.4414L3.93798 14.5733C3.28397 16.1756 4.16688 15.8486 4.72278 15.0965L6.78291 12.3823C7.96013 10.78 10.6023 7.09794 11.7534 5.18824C12.9044 3.27853 12.996 2.376 12.996 1.65659C12.996 1.06798 12.8521 0.0215647 11.7534 0.0215647C10.6546 0.0215647 9.59516 1.36228 9.13735 2.4414Z" fill="#2FB763"/>
<path d="M12.1458 6.36545L6.52131 14.5733C5.4095 16.2083 6.78291 16.4392 7.89473 15.26C8.61414 14.497 9.98756 13.0952 10.2492 12.8074C10.5762 12.4477 13.6874 8.90352 14.6964 7.41187C15.4485 6.30005 15.2523 3.48781 15.1215 2.4414C14.9458 1.03528 14.0949 1.30876 13.9443 2.21249C13.5846 4.37072 12.996 5.18824 12.1458 6.36545Z" fill="#2FB763"/>
<path d="M13.2576 10.7146L10.053 14.3444C8.41794 16.3064 9.66056 16.0775 11.0013 15.4562C12.2439 14.8803 14.4348 13.8212 14.6964 11.7283C14.958 9.6355 14.0097 9.8317 13.2576 10.7146Z" fill="#2FB763"/>
</svg>
