<svg width="24" height="24" viewBox="0 0 24 24" fill="none" xmlns="http://www.w3.org/2000/svg">
    <path d="M1.46231 7.38995C0.874959 11.8536 0.955458 16.5461 1.11896 19.2112C1.19837 20.977 1.4133 23.7729 2.1981 22.0561C3.2963 19.6538 3.76772 17.4944 4.20917 15.3362C4.50098 13.9096 5.72976 7.68425 5.92595 5.23172C6.10037 3.05137 5.18366 1.31271 3.66962 2.48488C2.14905 3.6621 1.65595 5.91843 1.46231 7.38995Z" fill="#35CB6E"/>
    <path d="M8.08417 3.6621L3.57151 21.1241C2.93387 23.2333 3.71868 24.9991 5.72975 21.5165L8.47658 15.3362L12.9402 3.6621C13.2999 2.59933 13.5288 0.385512 11.5668 0.0323471C9.60475 -0.320818 8.42753 2.30503 8.08417 3.6621Z" fill="#35CB6E"/>
    <path d="M14.706 3.6621L6.90696 21.8599C5.92595 24.2634 7.25032 23.7729 8.08417 22.6447L11.1744 18.5735C12.9402 16.17 16.9035 10.6469 18.6301 7.78235C20.3567 4.91779 20.494 3.56399 20.494 2.48488C20.494 1.60197 20.2782 0.0323471 18.6301 0.0323471C16.982 0.0323471 15.3927 2.04342 14.706 3.6621Z" fill="#35CB6E"/>
    <path d="M19.2187 9.54818L10.782 21.8599C9.11425 24.3124 11.1744 24.6588 12.8421 22.89C13.9212 21.7454 15.9813 19.6428 16.3737 19.2112C16.8643 18.6716 21.531 13.3553 23.0446 11.1178C24.1728 9.45008 23.8785 5.23172 23.6823 3.6621C23.4186 1.55292 22.1424 1.96315 21.9165 3.31874C21.3769 6.55609 20.494 7.78235 19.2187 9.54818Z" fill="#35CB6E"/>
    <path d="M20.8864 16.0719L16.0794 21.5165C13.6269 24.4596 15.4908 24.1162 17.5019 23.1843C19.3658 22.3205 22.6522 20.7317 23.0446 17.5925C23.437 14.4532 22.0146 14.7476 20.8864 16.0719Z" fill="#35CB6E"/>
</svg>
