<svg width="343" height="56" viewBox="0 0 343 56" fill="none" xmlns="http://www.w3.org/2000/svg">
<path d="M0 24C0 12.6863 0 7.02944 3.51472 3.51472C7.02944 0 12.6863 0 24 0H319C330.314 0 335.971 0 339.485 3.51472C343 7.02944 343 12.6863 343 24V32C343 43.3137 343 48.9706 339.485 52.4853C335.971 56 330.314 56 319 56H24C12.6863 56 7.02944 56 3.51472 52.4853C0 48.9706 0 43.3137 0 32V24Z" fill="white"/>
<rect y="12" width="32" height="32" rx="16" fill="#F6F8FA"/>
<path d="M5.46231 23.3899C4.87496 27.8536 4.95546 32.5461 5.11896 35.2112C5.19837 36.977 5.4133 39.7729 6.1981 38.0561C7.2963 35.6538 7.76772 33.4944 8.20917 31.3362C8.50098 29.9096 9.72976 23.6843 9.92595 21.2317C10.1004 19.0514 9.18366 17.3127 7.66962 18.4849C6.14905 19.6621 5.65595 21.9184 5.46231 23.3899Z" fill="#2FB763"/>
<path d="M12.0842 19.6621L7.57151 37.1241C6.93387 39.2333 7.71868 40.9991 9.72975 37.5165L12.4766 31.3362L16.9402 19.6621C17.2999 18.5993 17.5288 16.3855 15.5668 16.0323C13.6047 15.6792 12.4275 18.305 12.0842 19.6621Z" fill="#2FB763"/>
<path d="M18.706 19.6621L10.907 37.8599C9.92595 40.2634 11.2503 39.7729 12.0842 38.6447L15.1744 34.5735C16.9402 32.17 20.9035 26.6469 22.6301 23.7824C24.3567 20.9178 24.494 19.564 24.494 18.4849C24.494 17.602 24.2782 16.0323 22.6301 16.0323C20.982 16.0323 19.3927 18.0434 18.706 19.6621Z" fill="#2FB763"/>
<path d="M23.2187 25.5482L14.782 37.8599C13.1142 40.3124 15.1744 40.6588 16.8421 38.89C17.9212 37.7454 19.9813 35.6428 20.3737 35.2112C20.8643 34.6716 25.531 29.3553 27.0446 27.1178C28.1728 25.4501 27.8785 21.2317 27.6823 19.6621C27.4186 17.5529 26.1424 17.9631 25.9165 19.3187C25.3769 22.5561 24.494 23.7824 23.2187 25.5482Z" fill="#2FB763"/>
<path d="M24.8864 32.0719L20.0794 37.5165C17.6269 40.4596 19.4908 40.1162 21.5019 39.1843C23.3658 38.3205 26.6522 36.7317 27.0446 33.5925C27.437 30.4532 26.0146 30.7476 24.8864 32.0719Z" fill="#2FB763"/>
<path d="M40.014 32.5L44.06 22.7H45.796L49.8 32.5H48.204L47.07 29.63H42.688L41.54 32.5H40.014ZM43.164 28.412H46.594L44.886 24.1L43.164 28.412ZM50.6424 32.5V22.7L52.0424 22.434V26.046C52.6397 25.5233 53.3631 25.262 54.2124 25.262C54.8844 25.262 55.4911 25.4253 56.0324 25.752C56.5831 26.0787 57.0171 26.5173 57.3344 27.068C57.6517 27.6187 57.8104 28.2393 57.8104 28.93C57.8104 29.6207 57.6471 30.246 57.3204 30.806C57.0031 31.3567 56.5691 31.7953 56.0184 32.122C55.4771 32.4487 54.8657 32.612 54.1844 32.612C53.7924 32.612 53.4097 32.5513 53.0364 32.43C52.6724 32.2993 52.3364 32.1173 52.0284 31.884V32.5H50.6424ZM54.0304 31.394C54.4877 31.394 54.8937 31.2867 55.2484 31.072C55.6124 30.8573 55.9017 30.568 56.1164 30.204C56.3311 29.8307 56.4384 29.4107 56.4384 28.944C56.4384 28.4773 56.3311 28.0573 56.1164 27.684C55.9017 27.3107 55.6124 27.0167 55.2484 26.802C54.8937 26.5873 54.4877 26.48 54.0304 26.48C53.6291 26.48 53.2557 26.5547 52.9104 26.704C52.5651 26.8533 52.2757 27.0633 52.0424 27.334V30.554C52.2757 30.8153 52.5651 31.0207 52.9104 31.17C53.2651 31.3193 53.6384 31.394 54.0304 31.394ZM62.5343 32.64C61.8436 32.64 61.2136 32.4767 60.6443 32.15C60.0843 31.8233 59.641 31.38 59.3143 30.82C58.9876 30.26 58.8243 29.6347 58.8243 28.944C58.8243 28.2533 58.9876 27.628 59.3143 27.068C59.641 26.508 60.0843 26.0647 60.6443 25.738C61.2136 25.402 61.8436 25.234 62.5343 25.234C63.2343 25.234 63.8643 25.402 64.4243 25.738C64.9843 26.0647 65.4276 26.508 65.7543 27.068C66.081 27.628 66.2443 28.2533 66.2443 28.944C66.2443 29.6347 66.081 30.26 65.7543 30.82C65.4276 31.38 64.9843 31.8233 64.4243 32.15C63.8643 32.4767 63.2343 32.64 62.5343 32.64ZM62.5343 31.408C62.973 31.408 63.3696 31.3007 63.7243 31.086C64.079 30.862 64.359 30.5633 64.5643 30.19C64.7696 29.8167 64.8723 29.3967 64.8723 28.93C64.8723 28.4727 64.765 28.062 64.5503 27.698C64.345 27.3247 64.065 27.026 63.7103 26.802C63.365 26.578 62.973 26.466 62.5343 26.466C62.0956 26.466 61.699 26.578 61.3443 26.802C60.999 27.026 60.719 27.3247 60.5043 27.698C60.299 28.062 60.1963 28.4727 60.1963 28.93C60.1963 29.3967 60.299 29.8167 60.5043 30.19C60.7096 30.5633 60.9896 30.862 61.3443 31.086C61.699 31.3007 62.0956 31.408 62.5343 31.408ZM70.3262 32.64C69.7755 32.64 69.2902 32.5233 68.8702 32.29C68.4502 32.0567 68.1235 31.73 67.8902 31.31C67.6569 30.8807 67.5402 30.3907 67.5402 29.84V25.374H68.9262V29.602C68.9262 30.162 69.0849 30.6053 69.4022 30.932C69.7289 31.2587 70.1629 31.422 70.7042 31.422C71.0869 31.422 71.4275 31.3427 71.7262 31.184C72.0249 31.016 72.2675 30.7827 72.4542 30.484V25.374H73.8542V32.5H72.4542V31.772C71.9035 32.3507 71.1942 32.64 70.3262 32.64ZM78.5635 32.626C77.8729 32.626 77.3455 32.4673 76.9815 32.15C76.6175 31.8233 76.4355 31.352 76.4355 30.736V26.55H74.9235V25.374H76.4355V23.554L77.8215 23.218V25.374H79.9215V26.55H77.8215V30.414C77.8215 30.778 77.9009 31.0393 78.0595 31.198C78.2275 31.3473 78.4982 31.422 78.8715 31.422C79.0675 31.422 79.2402 31.408 79.3895 31.38C79.5482 31.352 79.7162 31.31 79.8935 31.254V32.43C79.7069 32.4953 79.4875 32.542 79.2355 32.57C78.9929 32.6073 78.7689 32.626 78.5635 32.626ZM86.7347 32.5V24.002H83.2907V22.7H91.6487V24.002H88.2047V32.5H86.7347ZM94.4998 32.626C93.7998 32.626 93.1651 32.4627 92.5958 32.136C92.0358 31.8093 91.5878 31.366 91.2518 30.806C90.9251 30.246 90.7618 29.6207 90.7618 28.93C90.7618 28.2487 90.9205 27.6327 91.2378 27.082C91.5551 26.522 91.9845 26.0787 92.5258 25.752C93.0671 25.416 93.6691 25.248 94.3318 25.248C94.9945 25.248 95.5825 25.416 96.0958 25.752C96.6091 26.0787 97.0151 26.5267 97.3138 27.096C97.6218 27.656 97.7758 28.2907 97.7758 29V29.392H92.1618C92.2365 29.784 92.3811 30.134 92.5958 30.442C92.8198 30.75 93.0998 30.9927 93.4358 31.17C93.7811 31.3473 94.1545 31.436 94.5558 31.436C94.9011 31.436 95.2325 31.3847 95.5498 31.282C95.8765 31.17 96.1471 31.0113 96.3618 30.806L97.2578 31.688C96.8378 32.0053 96.4038 32.2433 95.9558 32.402C95.5171 32.5513 95.0318 32.626 94.4998 32.626ZM92.1758 28.342H96.3898C96.3338 27.9687 96.2031 27.642 95.9978 27.362C95.8018 27.0727 95.5545 26.8487 95.2558 26.69C94.9665 26.522 94.6491 26.438 94.3038 26.438C93.9491 26.438 93.6225 26.5173 93.3238 26.676C93.0251 26.8347 92.7731 27.0587 92.5678 27.348C92.3718 27.628 92.2411 27.9593 92.1758 28.342ZM99.1092 32.5V22.7L100.509 22.434V32.5H99.1092ZM102.158 32.5V22.7L103.558 22.434V32.5H102.158ZM107.461 32.626C106.948 32.626 106.495 32.5373 106.103 32.36C105.711 32.1733 105.403 31.9167 105.179 31.59C104.955 31.2633 104.843 30.8853 104.843 30.456C104.843 29.784 105.1 29.2567 105.613 28.874C106.126 28.482 106.831 28.286 107.727 28.286C108.427 28.286 109.076 28.4213 109.673 28.692V27.936C109.673 27.4227 109.524 27.04 109.225 26.788C108.936 26.536 108.506 26.41 107.937 26.41C107.61 26.41 107.27 26.4613 106.915 26.564C106.56 26.6573 106.164 26.8067 105.725 27.012L105.207 25.962C105.748 25.71 106.252 25.528 106.719 25.416C107.186 25.2947 107.657 25.234 108.133 25.234C109.057 25.234 109.771 25.4533 110.275 25.892C110.788 26.3307 111.045 26.956 111.045 27.768V32.5H109.673V31.884C109.356 32.136 109.015 32.3227 108.651 32.444C108.287 32.5653 107.89 32.626 107.461 32.626ZM106.187 30.428C106.187 30.7733 106.332 31.0533 106.621 31.268C106.92 31.4733 107.307 31.576 107.783 31.576C108.156 31.576 108.497 31.5247 108.805 31.422C109.122 31.31 109.412 31.1373 109.673 30.904V29.7C109.402 29.5413 109.118 29.4293 108.819 29.364C108.53 29.2893 108.203 29.252 107.839 29.252C107.326 29.252 106.92 29.3593 106.621 29.574C106.332 29.7793 106.187 30.064 106.187 30.428ZM118.44 32.5V24.002H114.996V22.7H123.354V24.002H119.91V32.5H118.44ZM123.76 32.5V25.374H125.16V26.284C125.384 25.948 125.659 25.6867 125.986 25.5C126.322 25.304 126.7 25.206 127.12 25.206C127.409 25.2153 127.647 25.2573 127.834 25.332V26.592C127.703 26.536 127.568 26.4987 127.428 26.48C127.288 26.452 127.148 26.438 127.008 26.438C126.597 26.438 126.233 26.55 125.916 26.774C125.598 26.9887 125.346 27.306 125.16 27.726V32.5H123.76ZM131.617 32.64C131.067 32.64 130.581 32.5233 130.161 32.29C129.741 32.0567 129.415 31.73 129.181 31.31C128.948 30.8807 128.831 30.3907 128.831 29.84V25.374H130.217V29.602C130.217 30.162 130.376 30.6053 130.693 30.932C131.02 31.2587 131.454 31.422 131.995 31.422C132.378 31.422 132.719 31.3427 133.017 31.184C133.316 31.016 133.559 30.7827 133.745 30.484V25.374H135.145V32.5H133.745V31.772C133.195 32.3507 132.485 32.64 131.617 32.64ZM139.253 32.64C138.637 32.64 138.058 32.5513 137.517 32.374C136.985 32.1873 136.523 31.926 136.131 31.59L136.901 30.666C137.265 30.9553 137.638 31.1793 138.021 31.338C138.413 31.4873 138.809 31.562 139.211 31.562C139.715 31.562 140.125 31.464 140.443 31.268C140.76 31.072 140.919 30.8153 140.919 30.498C140.919 30.2367 140.825 30.0313 140.639 29.882C140.452 29.7327 140.163 29.63 139.771 29.574L138.483 29.392C137.773 29.2893 137.241 29.07 136.887 28.734C136.532 28.398 136.355 27.95 136.355 27.39C136.355 26.9607 136.471 26.5873 136.705 26.27C136.938 25.9433 137.265 25.6913 137.685 25.514C138.105 25.3273 138.595 25.234 139.155 25.234C139.668 25.234 140.163 25.3087 140.639 25.458C141.115 25.6073 141.572 25.8407 142.011 26.158L141.297 27.082C140.905 26.8207 140.522 26.6293 140.149 26.508C139.785 26.3867 139.416 26.326 139.043 26.326C138.613 26.326 138.268 26.4193 138.007 26.606C137.745 26.7833 137.615 27.0167 137.615 27.306C137.615 27.5673 137.703 27.7727 137.881 27.922C138.067 28.062 138.371 28.16 138.791 28.216L140.079 28.398C140.788 28.5007 141.325 28.72 141.689 29.056C142.053 29.3827 142.235 29.826 142.235 30.386C142.235 30.8153 142.104 31.2027 141.843 31.548C141.581 31.884 141.227 32.15 140.779 32.346C140.331 32.542 139.822 32.64 139.253 32.64ZM146.226 32.626C145.535 32.626 145.008 32.4673 144.644 32.15C144.28 31.8233 144.098 31.352 144.098 30.736V26.55H142.586V25.374H144.098V23.554L145.484 23.218V25.374H147.584V26.55H145.484V30.414C145.484 30.778 145.563 31.0393 145.722 31.198C145.89 31.3473 146.16 31.422 146.534 31.422C146.73 31.422 146.902 31.408 147.052 31.38C147.21 31.352 147.378 31.31 147.556 31.254V32.43C147.369 32.4953 147.15 32.542 146.898 32.57C146.655 32.6073 146.431 32.626 146.226 32.626Z" fill="#050505"/>
<path fill-rule="evenodd" clip-rule="evenodd" d="M328.675 22.9544C328.884 22.7747 329.2 22.7989 329.38 23.0086L333.38 27.6753C333.54 27.8625 333.54 28.1388 333.38 28.3261L329.38 32.9927C329.2 33.2024 328.884 33.2267 328.675 33.047C328.465 32.8672 328.441 32.5516 328.62 32.3419L332.341 28.0007L328.62 23.6594C328.441 23.4497 328.465 23.1341 328.675 22.9544Z" fill="#CCD0DC"/>
</svg>
