<svg width="183" height="24" viewBox="0 0 183 24" fill="none" xmlns="http://www.w3.org/2000/svg">
<rect width="24" height="24" rx="12" fill="#C2F6AE"/>
<path fill-rule="evenodd" clip-rule="evenodd" d="M15.4881 4.43057C15.8026 4.70014 15.839 5.17361 15.5694 5.48811L9.98781 12L15.5694 18.5119C15.839 18.8264 15.8026 19.2999 15.4881 19.5695C15.1736 19.839 14.7001 19.8026 14.4306 19.4881L8.43056 12.4881C8.18981 12.2072 8.18981 11.7928 8.43056 11.5119L14.4306 4.51192C14.7001 4.19743 15.1736 4.161 15.4881 4.43057Z" fill="#828DA9"/>
<path d="M32.464 16.5L35.912 5.692H39.76L43.208 16.5H40.4L39.672 13.868H36L35.272 16.5H32.464ZM36.448 12.076H39.232L37.856 7.276H37.832L36.448 12.076ZM48.2995 16.596C46.5288 16.596 45.2915 16.1773 44.5875 15.34C43.8888 14.4973 43.5395 13.3107 43.5395 11.78C43.5395 10.212 43.8888 9.012 44.5875 8.18C45.2915 7.348 46.5288 6.932 48.2995 6.932C49.8728 6.932 50.9635 7.27333 51.5715 7.956C52.1848 8.63867 52.5422 9.356 52.6435 10.108L50.2515 10.94C50.2088 10.2147 50.0168 9.676 49.6755 9.324C49.3395 8.96667 48.8808 8.788 48.2995 8.788C47.7235 8.788 47.2435 8.988 46.8595 9.388C46.4755 9.788 46.2835 10.5853 46.2835 11.78C46.2835 12.9267 46.4755 13.708 46.8595 14.124C47.2435 14.54 47.7235 14.748 48.2995 14.748C48.8808 14.748 49.3395 14.5613 49.6755 14.188C50.0168 13.8147 50.2088 13.292 50.2515 12.62L52.6435 13.484C52.5422 14.1827 52.1848 14.876 51.5715 15.564C50.9635 16.252 49.8728 16.596 48.2995 16.596ZM58.4089 16.596C56.6382 16.596 55.4009 16.1773 54.6969 15.34C53.9982 14.4973 53.6489 13.3107 53.6489 11.78C53.6489 10.212 53.9982 9.012 54.6969 8.18C55.4009 7.348 56.6382 6.932 58.4089 6.932C59.9822 6.932 61.0729 7.27333 61.6809 7.956C62.2942 8.63867 62.6515 9.356 62.7529 10.108L60.3609 10.94C60.3182 10.2147 60.1262 9.676 59.7849 9.324C59.4489 8.96667 58.9902 8.788 58.4089 8.788C57.8329 8.788 57.3529 8.988 56.9689 9.388C56.5849 9.788 56.3929 10.5853 56.3929 11.78C56.3929 12.9267 56.5849 13.708 56.9689 14.124C57.3529 14.54 57.8329 14.748 58.4089 14.748C58.9902 14.748 59.4489 14.5613 59.7849 14.188C60.1262 13.8147 60.3182 13.292 60.3609 12.62L62.7529 13.484C62.6515 14.1827 62.2942 14.876 61.6809 15.564C61.0729 16.252 59.9822 16.596 58.4089 16.596ZM68.6703 16.58C66.9316 16.58 65.6916 16.1613 64.9503 15.324C64.2089 14.4813 63.8383 13.2787 63.8383 11.716C63.8383 10.1587 64.2089 8.96933 64.9503 8.148C65.6916 7.32133 66.9316 6.908 68.6703 6.908C70.4036 6.908 71.6383 7.32133 72.3743 8.148C73.1156 8.96933 73.4863 10.1587 73.4863 11.716C73.4863 13.2787 73.1156 14.4813 72.3743 15.324C71.6383 16.1613 70.4036 16.58 68.6703 16.58ZM68.6703 14.756C69.2889 14.756 69.7983 14.5587 70.1983 14.164C70.5983 13.7693 70.7983 12.9587 70.7983 11.732C70.7983 10.5107 70.5983 9.70533 70.1983 9.316C69.7983 8.92667 69.2889 8.732 68.6703 8.732C68.0463 8.732 67.5343 8.92667 67.1343 9.316C66.7343 9.70533 66.5343 10.5107 66.5343 11.732C66.5343 12.9587 66.7343 13.7693 67.1343 14.164C67.5343 14.5587 68.0463 14.756 68.6703 14.756ZM81.5894 16.5L80.9734 14.988V7.02H83.6534V16.5H81.5894ZM77.3974 7.012V12.036C77.3974 13.0867 77.52 13.7987 77.7654 14.172C78.016 14.5453 78.408 14.732 78.9414 14.732C79.496 14.732 79.9734 14.516 80.3734 14.084C80.7787 13.6467 80.9814 13.0627 80.9814 12.332L82.2934 12.884C82.2934 13.7213 81.912 14.548 81.1494 15.364C80.392 16.1747 79.3254 16.58 77.9494 16.58C76.712 16.58 75.864 16.18 75.4054 15.38C74.9467 14.58 74.7174 13.508 74.7174 12.164V7.012H77.3974ZM85.2505 16.5V7.02H87.3305L87.9385 8.62V16.5H85.2505ZM91.4345 16.5V11.476C91.4345 10.4253 91.3065 9.71333 91.0505 9.34C90.7945 8.96667 90.3998 8.78 89.8665 8.78C89.3065 8.78 88.8292 9.00933 88.4345 9.468C88.0452 9.92133 87.8505 10.5107 87.8505 11.236L86.5465 10.628C86.5465 9.79067 86.9465 8.96667 87.7465 8.156C88.5465 7.34 89.5918 6.932 90.8825 6.932C92.1038 6.932 92.9492 7.348 93.4185 8.18C93.8878 9.00667 94.1225 10.092 94.1225 11.436V16.5H91.4345ZM100.251 16.62C99.408 16.62 98.6933 16.444 98.1066 16.092C97.5253 15.7347 97.2346 15.092 97.2346 14.164V8.868H95.0666V7.02H97.2346V4.852H99.9306V7.02H102.843V8.868H99.9306V13.572C99.9306 14.0893 100.037 14.428 100.251 14.588C100.469 14.7427 100.776 14.82 101.171 14.82C101.565 14.82 101.952 14.7533 102.331 14.62V16.396C101.669 16.5453 100.976 16.62 100.251 16.62ZM112.82 16.564C110.911 16.564 109.62 16.22 108.948 15.532C108.276 14.844 107.94 13.868 107.94 12.604H110.668C110.668 13.5267 110.863 14.1133 111.252 14.364C111.642 14.6093 112.159 14.732 112.804 14.732C113.444 14.732 113.959 14.6333 114.348 14.436C114.743 14.2387 114.94 13.9373 114.94 13.532C114.94 13.0573 114.671 12.732 114.132 12.556C113.599 12.38 112.863 12.1987 111.924 12.012C110.436 11.692 109.402 11.3293 108.82 10.924C108.239 10.5187 107.948 9.85467 107.948 8.932C107.948 8.02 108.29 7.23867 108.972 6.588C109.66 5.93733 110.927 5.612 112.772 5.612C114.634 5.612 115.903 5.96667 116.58 6.676C117.263 7.38 117.604 8.32933 117.604 9.524H114.884C114.884 8.62267 114.682 8.052 114.276 7.812C113.871 7.56667 113.359 7.444 112.74 7.444C112.09 7.444 111.567 7.548 111.172 7.756C110.778 7.95867 110.58 8.24667 110.58 8.62C110.58 9.12133 110.852 9.46 111.396 9.636C111.946 9.80667 112.684 9.988 113.612 10.18C115.148 10.4947 116.199 10.8413 116.764 11.22C117.335 11.5933 117.62 12.2387 117.62 13.156C117.62 14.1 117.287 14.9053 116.62 15.572C115.954 16.2333 114.687 16.564 112.82 16.564ZM123.616 16.596C121.824 16.596 120.568 16.164 119.848 15.3C119.133 14.4307 118.776 13.2493 118.776 11.756C118.776 10.2253 119.136 9.03867 119.856 8.196C120.576 7.348 121.813 6.924 123.568 6.924C125.365 6.924 126.608 7.35333 127.296 8.212C127.989 9.07067 128.336 10.2493 128.336 11.748C128.336 12.0467 128.317 12.3133 128.28 12.548H121.128V10.924H125.768L125.672 11.164C125.672 10.252 125.485 9.60667 125.112 9.228C124.744 8.84933 124.229 8.66 123.568 8.66C122.917 8.66 122.389 8.86533 121.984 9.276C121.579 9.68667 121.376 10.5133 121.376 11.756C121.376 12.972 121.576 13.7933 121.976 14.22C122.381 14.6467 122.928 14.86 123.616 14.86V16.596ZM123.616 14.86C124.016 14.86 124.347 14.8067 124.608 14.7C124.869 14.5933 125.077 14.4147 125.232 14.164C125.392 13.9133 125.528 13.6173 125.64 13.276L128.048 13.956C127.931 14.58 127.675 15.084 127.28 15.468C126.891 15.852 126.419 16.1373 125.864 16.324C125.315 16.5053 124.565 16.596 123.616 16.596V14.86ZM134.282 16.62C133.439 16.62 132.725 16.444 132.138 16.092C131.557 15.7347 131.266 15.092 131.266 14.164V8.868H129.098V7.02H131.266V4.852H133.962V7.02H136.874V8.868H133.962V13.572C133.962 14.0893 134.069 14.428 134.282 14.588C134.501 14.7427 134.807 14.82 135.202 14.82C135.597 14.82 135.983 14.7533 136.362 14.62V16.396C135.701 16.5453 135.007 16.62 134.282 16.62ZM142.766 16.62C141.924 16.62 141.209 16.444 140.622 16.092C140.041 15.7347 139.75 15.092 139.75 14.164V8.868H137.582V7.02H139.75V4.852H142.446V7.02H145.358V8.868H142.446V13.572C142.446 14.0893 142.553 14.428 142.766 14.588C142.985 14.7427 143.292 14.82 143.686 14.82C144.081 14.82 144.468 14.7533 144.846 14.62V16.396C144.185 16.5453 143.492 16.62 142.766 16.62ZM146.787 16.5V7.012H149.483V16.5H146.787ZM146.787 4.164H149.483V6.044H146.787V4.164ZM151.235 16.5V7.02H153.315L153.923 8.62V16.5H151.235ZM157.419 16.5V11.476C157.419 10.4253 157.291 9.71333 157.035 9.34C156.779 8.96667 156.384 8.78 155.851 8.78C155.291 8.78 154.814 9.00933 154.419 9.468C154.03 9.92133 153.835 10.5107 153.835 11.236L152.531 10.628C152.531 9.79067 152.931 8.96667 153.731 8.156C154.531 7.34 155.576 6.932 156.867 6.932C158.088 6.932 158.934 7.348 159.403 8.18C159.872 9.00667 160.107 10.092 160.107 11.436V16.5H157.419ZM166.072 20.252C164.92 20.252 163.923 20.004 163.08 19.508C162.237 19.0173 161.763 18.1693 161.656 16.964H164.28C164.312 17.332 164.408 17.636 164.568 17.876C164.733 18.116 164.952 18.2867 165.224 18.388C165.501 18.4947 165.813 18.548 166.16 18.548C166.741 18.548 167.211 18.412 167.568 18.14C167.925 17.868 168.104 17.244 168.104 16.268V8.884L168.832 7.02H170.808V15.988C170.808 17.092 170.587 17.9533 170.144 18.572C169.701 19.196 169.157 19.6307 168.512 19.876C167.867 20.1267 167.053 20.252 166.072 20.252ZM165.136 16.564C163.851 16.564 162.912 16.1347 162.32 15.276C161.728 14.4173 161.432 13.2387 161.432 11.74C161.432 10.236 161.723 9.06 162.304 8.212C162.885 7.364 163.819 6.94 165.104 6.94C166.24 6.94 167.221 7.212 168.048 7.756C168.88 8.3 169.296 8.892 169.296 9.532L168.104 10.636C168.104 10.1187 167.899 9.68133 167.488 9.324C167.083 8.96133 166.603 8.78 166.048 8.78C165.445 8.78 164.979 8.98 164.648 9.38C164.317 9.77467 164.152 10.564 164.152 11.748C164.152 12.9427 164.317 13.7373 164.648 14.132C164.979 14.5267 165.445 14.724 166.048 14.724C166.603 14.724 167.083 14.5453 167.488 14.188C167.899 13.8307 168.104 13.388 168.104 12.86L169.296 14.036C169.296 14.6813 168.885 15.2653 168.064 15.788C167.248 16.3053 166.272 16.564 165.136 16.564ZM177.126 16.58C175.878 16.58 174.827 16.3907 173.974 16.012C173.121 15.6333 172.569 14.9827 172.318 14.06L174.67 13.196C174.793 13.74 175.07 14.148 175.502 14.42C175.934 14.692 176.489 14.828 177.166 14.828C177.726 14.828 178.161 14.7427 178.47 14.572C178.779 14.396 178.934 14.1533 178.934 13.844C178.934 13.4227 178.657 13.1533 178.102 13.036C177.547 12.9187 176.838 12.7907 175.974 12.652C174.891 12.4867 174.022 12.1907 173.366 11.764C172.715 11.332 172.39 10.636 172.39 9.676C172.39 8.73733 172.793 8.04667 173.598 7.604C174.403 7.16133 175.459 6.94 176.766 6.94C178.041 6.94 179.083 7.12667 179.894 7.5C180.705 7.868 181.225 8.50267 181.454 9.404L179.094 10.252C178.971 9.76667 178.702 9.38267 178.286 9.1C177.87 8.81733 177.353 8.676 176.734 8.676C176.153 8.676 175.723 8.764 175.446 8.94C175.174 9.116 175.038 9.35867 175.038 9.668C175.038 10.0733 175.302 10.3373 175.83 10.46C176.358 10.5773 177.035 10.7 177.862 10.828C178.923 10.9827 179.809 11.252 180.518 11.636C181.233 12.0147 181.59 12.684 181.59 13.644C181.59 14.6947 181.203 15.4467 180.43 15.9C179.657 16.3533 178.555 16.58 177.126 16.58Z" fill="#050505"/>
</svg>
