<svg width="343" height="56" viewBox="0 0 343 56" fill="none" xmlns="http://www.w3.org/2000/svg">
<path d="M0 24C0 12.6863 0 7.02944 3.51472 3.51472C7.02944 0 12.6863 0 24 0H319C330.314 0 335.971 0 339.485 3.51472C343 7.02944 343 12.6863 343 24V32C343 43.3137 343 48.9706 339.485 52.4853C335.971 56 330.314 56 319 56H24C12.6863 56 7.02944 56 3.51472 52.4853C0 48.9706 0 43.3137 0 32V24Z" fill="white"/>
<rect y="12" width="32" height="32" rx="16" fill="#F6F8FA"/>
<g clip-path="url(#clip0_1031_7850)">
<path fill-rule="evenodd" clip-rule="evenodd" d="M16.4277 18C15.3139 18 14.2995 18.6007 12.2708 19.8021L11.5847 20.2085C9.55594 21.4099 8.54158 22.0106 7.98466 23C7.42773 23.9894 7.42773 25.1908 7.42773 27.5937V28.4063C7.42773 30.8092 7.42773 32.0106 7.98466 33C8.54158 33.9894 9.55594 34.5901 11.5847 35.7915L12.2708 36.1979C14.2995 37.3993 15.3139 38 16.4277 38C17.5416 38 18.5559 37.3993 20.5847 36.1979L21.2708 35.7915C23.2995 34.5901 24.3139 33.9894 24.8708 33C25.4277 32.0106 25.4277 30.8092 25.4277 28.4063V27.5937C25.4277 25.1908 25.4277 23.9894 24.8708 23C24.3139 22.0106 23.2995 21.4099 21.2708 20.2085L20.5847 19.8021C18.5559 18.6007 17.5416 18 16.4277 18ZM12.6777 28C12.6777 25.9289 14.3567 24.25 16.4277 24.25C18.4988 24.25 20.1777 25.9289 20.1777 28C20.1777 30.0711 18.4988 31.75 16.4277 31.75C14.3567 31.75 12.6777 30.0711 12.6777 28Z" fill="#49526A"/>
</g>
<path d="M40.014 32.5L44.06 22.7H45.796L49.8 32.5H48.204L47.07 29.63H42.688L41.54 32.5H40.014ZM43.164 28.412H46.594L44.886 24.1L43.164 28.412ZM53.6193 32.626C52.9379 32.626 52.3173 32.4627 51.7573 32.136C51.1973 31.8093 50.7539 31.366 50.4273 30.806C50.1099 30.246 49.9513 29.6207 49.9513 28.93C49.9513 28.2393 50.1146 27.6187 50.4413 27.068C50.7679 26.508 51.2066 26.0647 51.7573 25.738C52.3173 25.402 52.9379 25.234 53.6193 25.234C54.1606 25.234 54.6786 25.3367 55.1733 25.542C55.6773 25.7473 56.1113 26.0367 56.4753 26.41L55.6073 27.376C55.3366 27.0773 55.0333 26.8533 54.6973 26.704C54.3613 26.5547 54.0113 26.48 53.6473 26.48C53.2179 26.48 52.8259 26.5873 52.4713 26.802C52.1259 27.0167 51.8506 27.3107 51.6453 27.684C51.4399 28.0573 51.3373 28.4727 51.3373 28.93C51.3373 29.3873 51.4399 29.8027 51.6453 30.176C51.8506 30.5493 52.1306 30.848 52.4853 31.072C52.8399 31.2867 53.2366 31.394 53.6753 31.394C54.0393 31.394 54.3799 31.324 54.6973 31.184C55.0146 31.0347 55.3133 30.82 55.5933 30.54L56.4473 31.436C56.0739 31.8187 55.6399 32.1127 55.1453 32.318C54.6599 32.5233 54.1513 32.626 53.6193 32.626ZM60.715 32.626C60.0336 32.626 59.413 32.4627 58.853 32.136C58.293 31.8093 57.8496 31.366 57.523 30.806C57.2056 30.246 57.047 29.6207 57.047 28.93C57.047 28.2393 57.2103 27.6187 57.537 27.068C57.8636 26.508 58.3023 26.0647 58.853 25.738C59.413 25.402 60.0336 25.234 60.715 25.234C61.2563 25.234 61.7743 25.3367 62.269 25.542C62.773 25.7473 63.207 26.0367 63.571 26.41L62.703 27.376C62.4323 27.0773 62.129 26.8533 61.793 26.704C61.457 26.5547 61.107 26.48 60.743 26.48C60.3136 26.48 59.9216 26.5873 59.567 26.802C59.2216 27.0167 58.9463 27.3107 58.741 27.684C58.5356 28.0573 58.433 28.4727 58.433 28.93C58.433 29.3873 58.5356 29.8027 58.741 30.176C58.9463 30.5493 59.2263 30.848 59.581 31.072C59.9356 31.2867 60.3323 31.394 60.771 31.394C61.135 31.394 61.4756 31.324 61.793 31.184C62.1103 31.0347 62.409 30.82 62.689 30.54L63.543 31.436C63.1696 31.8187 62.7356 32.1127 62.241 32.318C61.7556 32.5233 61.247 32.626 60.715 32.626ZM67.8527 32.64C67.162 32.64 66.532 32.4767 65.9627 32.15C65.4027 31.8233 64.9593 31.38 64.6327 30.82C64.306 30.26 64.1427 29.6347 64.1427 28.944C64.1427 28.2533 64.306 27.628 64.6327 27.068C64.9593 26.508 65.4027 26.0647 65.9627 25.738C66.532 25.402 67.162 25.234 67.8527 25.234C68.5527 25.234 69.1827 25.402 69.7427 25.738C70.3027 26.0647 70.746 26.508 71.0727 27.068C71.3993 27.628 71.5627 28.2533 71.5627 28.944C71.5627 29.6347 71.3993 30.26 71.0727 30.82C70.746 31.38 70.3027 31.8233 69.7427 32.15C69.1827 32.4767 68.5527 32.64 67.8527 32.64ZM67.8527 31.408C68.2913 31.408 68.688 31.3007 69.0427 31.086C69.3973 30.862 69.6773 30.5633 69.8827 30.19C70.088 29.8167 70.1907 29.3967 70.1907 28.93C70.1907 28.4727 70.0833 28.062 69.8687 27.698C69.6633 27.3247 69.3833 27.026 69.0287 26.802C68.6833 26.578 68.2913 26.466 67.8527 26.466C67.414 26.466 67.0173 26.578 66.6627 26.802C66.3173 27.026 66.0373 27.3247 65.8227 27.698C65.6173 28.062 65.5147 28.4727 65.5147 28.93C65.5147 29.3967 65.6173 29.8167 65.8227 30.19C66.028 30.5633 66.308 30.862 66.6627 31.086C67.0173 31.3007 67.414 31.408 67.8527 31.408ZM75.6445 32.64C75.0939 32.64 74.6085 32.5233 74.1885 32.29C73.7685 32.0567 73.4419 31.73 73.2085 31.31C72.9752 30.8807 72.8585 30.3907 72.8585 29.84V25.374H74.2445V29.602C74.2445 30.162 74.4032 30.6053 74.7205 30.932C75.0472 31.2587 75.4812 31.422 76.0225 31.422C76.4052 31.422 76.7459 31.3427 77.0445 31.184C77.3432 31.016 77.5859 30.7827 77.7725 30.484V25.374H79.1725V32.5H77.7725V31.772C77.2219 32.3507 76.5125 32.64 75.6445 32.64ZM80.8299 32.5V25.374H82.2299V26.102C82.7806 25.5233 83.4946 25.234 84.3719 25.234C84.9226 25.234 85.4032 25.3507 85.8139 25.584C86.2339 25.8173 86.5606 26.144 86.7939 26.564C87.0366 26.984 87.1579 27.4693 87.1579 28.02V32.5H85.7579V28.258C85.7579 27.698 85.5992 27.2593 85.2819 26.942C84.9739 26.6153 84.5399 26.452 83.9799 26.452C83.6066 26.452 83.2706 26.5313 82.9719 26.69C82.6732 26.8487 82.4259 27.0773 82.2299 27.376V32.5H80.8299ZM91.6202 32.626C90.9295 32.626 90.4022 32.4673 90.0382 32.15C89.6742 31.8233 89.4922 31.352 89.4922 30.736V26.55H87.9802V25.374H89.4922V23.554L90.8782 23.218V25.374H92.9782V26.55H90.8782V30.414C90.8782 30.778 90.9575 31.0393 91.1162 31.198C91.2842 31.3473 91.5549 31.422 91.9282 31.422C92.1242 31.422 92.2969 31.408 92.4462 31.38C92.6049 31.352 92.7729 31.31 92.9502 31.254V32.43C92.7635 32.4953 92.5442 32.542 92.2922 32.57C92.0495 32.6073 91.8255 32.626 91.6202 32.626ZM100.421 32.64C99.6374 32.64 98.8814 32.486 98.1534 32.178C97.4254 31.87 96.7814 31.436 96.2214 30.876L97.1174 29.84C97.6494 30.3627 98.1907 30.75 98.7414 31.002C99.3014 31.254 99.8847 31.38 100.491 31.38C100.967 31.38 101.383 31.3147 101.737 31.184C102.101 31.044 102.381 30.848 102.577 30.596C102.773 30.344 102.871 30.0593 102.871 29.742C102.871 29.3033 102.717 28.9673 102.409 28.734C102.101 28.5007 101.593 28.3233 100.883 28.202L99.2454 27.936C98.3494 27.7773 97.6774 27.488 97.2294 27.068C96.7907 26.648 96.5714 26.088 96.5714 25.388C96.5714 24.828 96.7207 24.338 97.0194 23.918C97.318 23.4887 97.738 23.1573 98.2794 22.924C98.83 22.6907 99.4647 22.574 100.183 22.574C100.893 22.574 101.588 22.6907 102.269 22.924C102.96 23.148 103.581 23.4747 104.131 23.904L103.319 25.024C102.265 24.2213 101.196 23.82 100.113 23.82C99.684 23.82 99.3107 23.8807 98.9934 24.002C98.676 24.1233 98.4287 24.296 98.2514 24.52C98.074 24.7347 97.9854 24.9867 97.9854 25.276C97.9854 25.6773 98.1207 25.9853 98.3914 26.2C98.662 26.4053 99.11 26.5547 99.7354 26.648L101.317 26.914C102.353 27.082 103.114 27.3853 103.599 27.824C104.085 28.2627 104.327 28.8647 104.327 29.63C104.327 30.2273 104.164 30.7547 103.837 31.212C103.511 31.66 103.053 32.01 102.465 32.262C101.877 32.514 101.196 32.64 100.421 32.64ZM109.074 32.626C108.374 32.626 107.739 32.4627 107.17 32.136C106.61 31.8093 106.162 31.366 105.826 30.806C105.499 30.246 105.336 29.6207 105.336 28.93C105.336 28.2487 105.495 27.6327 105.812 27.082C106.129 26.522 106.559 26.0787 107.1 25.752C107.641 25.416 108.243 25.248 108.906 25.248C109.569 25.248 110.157 25.416 110.67 25.752C111.183 26.0787 111.589 26.5267 111.888 27.096C112.196 27.656 112.35 28.2907 112.35 29V29.392H106.736C106.811 29.784 106.955 30.134 107.17 30.442C107.394 30.75 107.674 30.9927 108.01 31.17C108.355 31.3473 108.729 31.436 109.13 31.436C109.475 31.436 109.807 31.3847 110.124 31.282C110.451 31.17 110.721 31.0113 110.936 30.806L111.832 31.688C111.412 32.0053 110.978 32.2433 110.53 32.402C110.091 32.5513 109.606 32.626 109.074 32.626ZM106.75 28.342H110.964C110.908 27.9687 110.777 27.642 110.572 27.362C110.376 27.0727 110.129 26.8487 109.83 26.69C109.541 26.522 109.223 26.438 108.878 26.438C108.523 26.438 108.197 26.5173 107.898 26.676C107.599 26.8347 107.347 27.0587 107.142 27.348C106.946 27.628 106.815 27.9593 106.75 28.342ZM116.53 32.626C115.84 32.626 115.312 32.4673 114.948 32.15C114.584 31.8233 114.402 31.352 114.402 30.736V26.55H112.89V25.374H114.402V23.554L115.788 23.218V25.374H117.888V26.55H115.788V30.414C115.788 30.778 115.868 31.0393 116.026 31.198C116.194 31.3473 116.465 31.422 116.838 31.422C117.034 31.422 117.207 31.408 117.356 31.38C117.515 31.352 117.683 31.31 117.86 31.254V32.43C117.674 32.4953 117.454 32.542 117.202 32.57C116.96 32.6073 116.736 32.626 116.53 32.626ZM122.108 32.626C121.418 32.626 120.89 32.4673 120.526 32.15C120.162 31.8233 119.98 31.352 119.98 30.736V26.55H118.468V25.374H119.98V23.554L121.366 23.218V25.374H123.466V26.55H121.366V30.414C121.366 30.778 121.446 31.0393 121.604 31.198C121.772 31.3473 122.043 31.422 122.416 31.422C122.612 31.422 122.785 31.408 122.934 31.38C123.093 31.352 123.261 31.31 123.438 31.254V32.43C123.252 32.4953 123.032 32.542 122.78 32.57C122.538 32.6073 122.314 32.626 122.108 32.626ZM124.498 32.5V25.374H125.898V32.5H124.498ZM125.198 24.226C124.965 24.226 124.764 24.142 124.596 23.974C124.428 23.7967 124.344 23.5913 124.344 23.358C124.344 23.1153 124.428 22.9147 124.596 22.756C124.764 22.588 124.965 22.504 125.198 22.504C125.441 22.504 125.646 22.588 125.814 22.756C125.982 22.9147 126.066 23.1153 126.066 23.358C126.066 23.5913 125.982 23.7967 125.814 23.974C125.646 24.142 125.441 24.226 125.198 24.226ZM127.547 32.5V25.374H128.947V26.102C129.497 25.5233 130.211 25.234 131.089 25.234C131.639 25.234 132.12 25.3507 132.531 25.584C132.951 25.8173 133.277 26.144 133.511 26.564C133.753 26.984 133.875 27.4693 133.875 28.02V32.5H132.475V28.258C132.475 27.698 132.316 27.2593 131.999 26.942C131.691 26.6153 131.257 26.452 130.697 26.452C130.323 26.452 129.987 26.5313 129.689 26.69C129.39 26.8487 129.143 27.0773 128.947 27.376V32.5H127.547ZM139.018 35.496C138.495 35.496 137.987 35.4353 137.492 35.314C136.997 35.1927 136.549 35.02 136.148 34.796L136.68 33.704C137.1 33.9187 137.492 34.0727 137.856 34.166C138.229 34.2687 138.603 34.32 138.976 34.32C139.601 34.32 140.073 34.1753 140.39 33.886C140.717 33.5967 140.88 33.172 140.88 32.612V31.8C140.255 32.2947 139.541 32.542 138.738 32.542C138.085 32.542 137.483 32.3833 136.932 32.066C136.391 31.7393 135.961 31.3007 135.644 30.75C135.327 30.19 135.168 29.574 135.168 28.902C135.168 28.2207 135.327 27.6047 135.644 27.054C135.971 26.494 136.405 26.0553 136.946 25.738C137.497 25.4113 138.113 25.248 138.794 25.248C139.177 25.248 139.545 25.3133 139.9 25.444C140.264 25.5653 140.595 25.7427 140.894 25.976V25.374H142.28V32.612C142.28 33.536 141.995 34.2453 141.426 34.74C140.866 35.244 140.063 35.496 139.018 35.496ZM138.92 31.338C139.331 31.338 139.704 31.268 140.04 31.128C140.376 30.9787 140.656 30.7687 140.88 30.498V27.306C140.656 27.0447 140.371 26.8393 140.026 26.69C139.69 26.5407 139.321 26.466 138.92 26.466C138.472 26.466 138.066 26.5733 137.702 26.788C137.347 27.0027 137.063 27.2967 136.848 27.67C136.643 28.034 136.54 28.4447 136.54 28.902C136.54 29.3593 136.643 29.7747 136.848 30.148C137.063 30.512 137.347 30.8013 137.702 31.016C138.066 31.2307 138.472 31.338 138.92 31.338ZM146.376 32.64C145.76 32.64 145.181 32.5513 144.64 32.374C144.108 32.1873 143.646 31.926 143.254 31.59L144.024 30.666C144.388 30.9553 144.761 31.1793 145.144 31.338C145.536 31.4873 145.932 31.562 146.334 31.562C146.838 31.562 147.248 31.464 147.566 31.268C147.883 31.072 148.042 30.8153 148.042 30.498C148.042 30.2367 147.948 30.0313 147.762 29.882C147.575 29.7327 147.286 29.63 146.894 29.574L145.606 29.392C144.896 29.2893 144.364 29.07 144.01 28.734C143.655 28.398 143.478 27.95 143.478 27.39C143.478 26.9607 143.594 26.5873 143.828 26.27C144.061 25.9433 144.388 25.6913 144.808 25.514C145.228 25.3273 145.718 25.234 146.278 25.234C146.791 25.234 147.286 25.3087 147.762 25.458C148.238 25.6073 148.695 25.8407 149.134 26.158L148.42 27.082C148.028 26.8207 147.645 26.6293 147.272 26.508C146.908 26.3867 146.539 26.326 146.166 26.326C145.736 26.326 145.391 26.4193 145.13 26.606C144.868 26.7833 144.738 27.0167 144.738 27.306C144.738 27.5673 144.826 27.7727 145.004 27.922C145.19 28.062 145.494 28.16 145.914 28.216L147.202 28.398C147.911 28.5007 148.448 28.72 148.812 29.056C149.176 29.3827 149.358 29.826 149.358 30.386C149.358 30.8153 149.227 31.2027 148.966 31.548C148.704 31.884 148.35 32.15 147.902 32.346C147.454 32.542 146.945 32.64 146.376 32.64Z" fill="#050505"/>
<path fill-rule="evenodd" clip-rule="evenodd" d="M328.675 22.9544C328.884 22.7747 329.2 22.7989 329.38 23.0086L333.38 27.6753C333.54 27.8625 333.54 28.1388 333.38 28.3261L329.38 32.9927C329.2 33.2024 328.884 33.2267 328.675 33.047C328.465 32.8672 328.441 32.5516 328.62 32.3419L332.341 28.0007L328.62 23.6594C328.441 23.4497 328.465 23.1341 328.675 22.9544Z" fill="#CCD0DC"/>
<defs>
<clipPath id="clip0_1031_7850">
<rect x="4" y="16" width="24" height="24" rx="8" fill="white"/>
</clipPath>
</defs>
</svg>
