<svg width="87" height="87" viewBox="0 0 87 87" fill="none" xmlns="http://www.w3.org/2000/svg">
<rect x="0.820755" y="0.820755" width="85.3585" height="85.3585" rx="5.74528" fill="#0D0D0D"/>
<rect x="0.820755" y="0.820755" width="85.3585" height="85.3585" rx="5.74528" stroke="#35CB6E" stroke-width="1.64151"/>
<path d="M6 9C6 8.20435 6.31607 7.44129 6.87868 6.87868C7.44129 6.31607 8.20435 6 9 6V9H6Z" fill="white"/>
<path d="M9 6H12V9H9V6Z" fill="white"/>
<path d="M12 6H15V9H12V6Z" fill="white"/>
<path d="M15 6H18V9H15V6Z" fill="white"/>
<path d="M18 6H21V9H18V6Z" fill="white"/>
<path d="M21 6H24V9H21V6Z" fill="white"/>
<path d="M24 6C24.7957 6 25.5587 6.31607 26.1213 6.87868C26.6839 7.44129 27 8.20435 27 9H24V6Z" fill="white"/>
<path d="M40.5 6C40.1022 6 39.7206 6.15804 39.4393 6.43934C39.158 6.72064 39 7.10218 39 7.5C39 7.89782 39.158 8.27936 39.4393 8.56066C39.7206 8.84196 40.1022 9 40.5 9H42V6H40.5Z" fill="white"/>
<path d="M42 6H45V9H42V6Z" fill="white"/>
<path d="M46.5 6C46.8978 6 47.2794 6.15804 47.5607 6.43934C47.842 6.72064 48 7.10218 48 7.5C48 7.89782 47.842 8.27936 47.5607 8.56066C47.2794 8.84196 46.8978 9 46.5 9H45V6H46.5Z" fill="white"/>
<path d="M54 7.5C54 7.10218 54.158 6.72064 54.4393 6.43934C54.7206 6.15804 55.1022 6 55.5 6C55.8978 6 56.2794 6.15804 56.5607 6.43934C56.842 6.72064 57 7.10218 57 7.5V9H54V7.5Z" fill="white"/>
<path d="M60 9C60 8.20435 60.3161 7.44129 60.8787 6.87868C61.4413 6.31607 62.2044 6 63 6V9H60Z" fill="white"/>
<path d="M63 6H66V9H63V6Z" fill="white"/>
<path d="M66 6H69V9H66V6Z" fill="white"/>
<path d="M69 6H72V9H69V6Z" fill="white"/>
<path d="M72 6H75V9H72V6Z" fill="white"/>
<path d="M75 6H78V9H75V6Z" fill="white"/>
<path d="M78 6C78.7957 6 79.5587 6.31607 80.1213 6.87868C80.6839 7.44129 81 8.20435 81 9H78V6Z" fill="white"/>
<path d="M6 9H9V12H6V9Z" fill="white"/>
<path d="M24 9H27V12H24V9Z" fill="white"/>
<path d="M33 10.5C33 10.1022 33.158 9.72064 33.4393 9.43934C33.7206 9.15804 34.1022 9 34.5 9C34.8978 9 35.2794 9.15804 35.5607 9.43934C35.842 9.72064 36 10.1022 36 10.5V12H33V10.5Z" fill="white"/>
<path d="M42 9H45V12H42V9Z" fill="white"/>
<path d="M48 12C48 11.2044 48.3161 10.4413 48.8787 9.87868C49.4413 9.31607 50.2044 9 51 9V12H48Z" fill="white"/>
<path d="M51 9H54V12H51V9Z" fill="white"/>
<path d="M54 9H57V12H54V9Z" fill="white"/>
<path d="M60 9H63V12H60V9Z" fill="white"/>
<path d="M78 9H81V12H78V9Z" fill="white"/>
<path d="M6 12H9V15H6V12Z" fill="white"/>
<path d="M12 15C12 14.2044 12.3161 13.4413 12.8787 12.8787C13.4413 12.3161 14.2044 12 15 12V15H12Z" fill="white"/>
<path d="M15 12H18V15H15V12Z" fill="white"/>
<path d="M18 12C18.7956 12 19.5587 12.3161 20.1213 12.8787C20.6839 13.4413 21 14.2044 21 15H18V12Z" fill="white"/>
<path d="M24 12H27V15H24V12Z" fill="white"/>
<path d="M30 15C30 14.2044 30.3161 13.4413 30.8787 12.8787C31.4413 12.3161 32.2044 12 33 12V15H30Z" fill="white"/>
<path d="M33 12H36V15H33V12Z" fill="white"/>
<path d="M36 12H39V15H36V12Z" fill="white"/>
<path d="M39 12H42V15H39V12Z" fill="white"/>
<path d="M42 15C42.7957 15 43.5587 14.6839 44.1213 14.1213C44.6839 13.5587 45 12.7956 45 12H42V15Z" fill="white"/>
<path d="M48 13.5C48 13.8978 48.158 14.2794 48.4393 14.5607C48.7206 14.842 49.1022 15 49.5 15C49.8978 15 50.2794 14.842 50.5607 14.5607C50.842 14.2794 51 13.8978 51 13.5V12H48V13.5Z" fill="white"/>
<path d="M54 13.5C54 13.8978 54.158 14.2794 54.4393 14.5607C54.7206 14.842 55.1022 15 55.5 15C55.8978 15 56.2794 14.842 56.5607 14.5607C56.842 14.2794 57 13.8978 57 13.5V12H54V13.5Z" fill="white"/>
<path d="M60 12H63V15H60V12Z" fill="white"/>
<path d="M66 15C66 14.2044 66.3161 13.4413 66.8787 12.8787C67.4413 12.3161 68.2044 12 69 12V15H66Z" fill="white"/>
<path d="M69 12H72V15H69V12Z" fill="white"/>
<path d="M72 12C72.7957 12 73.5587 12.3161 74.1213 12.8787C74.6839 13.4413 75 14.2044 75 15H72V12Z" fill="white"/>
<path d="M78 12H81V15H78V12Z" fill="white"/>
<path d="M6 15H9V18H6V15Z" fill="white"/>
<path d="M12 15H15V18H12V15Z" fill="white"/>
<path d="M15 15H18V18H15V15Z" fill="white"/>
<path d="M18 15H21V18H18V15Z" fill="white"/>
<path d="M24 15H27V18H24V15Z" fill="white"/>
<path d="M30 15H33V18H30V15Z" fill="white"/>
<path d="M39 16.5C39 16.8978 39.158 17.2794 39.4393 17.5607C39.7206 17.842 40.1022 18 40.5 18C40.8978 18 41.2794 17.842 41.5607 17.5607C41.842 17.2794 42 16.8978 42 16.5V15H39V16.5Z" fill="white"/>
<path d="M60 15H63V18H60V15Z" fill="white"/>
<path d="M66 15H69V18H66V15Z" fill="white"/>
<path d="M69 15H72V18H69V15Z" fill="white"/>
<path d="M72 15H75V18H72V15Z" fill="white"/>
<path d="M78 15H81V18H78V15Z" fill="white"/>
<path d="M6 18H9V21H6V18Z" fill="white"/>
<path d="M12 18C12 18.7956 12.3161 19.5587 12.8787 20.1213C13.4413 20.6839 14.2044 21 15 21V18H12Z" fill="white"/>
<path d="M15 18H18V21H15V18Z" fill="white"/>
<path d="M18 21C18.7956 21 19.5587 20.6839 20.1213 20.1213C20.6839 19.5587 21 18.7956 21 18H18V21Z" fill="white"/>
<path d="M24 18H27V21H24V18Z" fill="white"/>
<path d="M30 18H33V21H30V18Z" fill="white"/>
<path d="M33 18C33.7957 18 34.5587 18.3161 35.1213 18.8787C35.6839 19.4413 36 20.2044 36 21H33V18Z" fill="white"/>
<path d="M43.5 18C43.1022 18 42.7206 18.158 42.4393 18.4393C42.158 18.7206 42 19.1022 42 19.5C42 19.8978 42.158 20.2794 42.4393 20.5607C42.7206 20.842 43.1022 21 43.5 21H45V18H43.5Z" fill="white"/>
<path d="M45 18C45.7957 18 46.5587 18.3161 47.1213 18.8787C47.6839 19.4413 48 20.2044 48 21H45V18Z" fill="white"/>
<path d="M54 19.5C54 19.1022 54.158 18.7206 54.4393 18.4393C54.7206 18.158 55.1022 18 55.5 18C55.8978 18 56.2794 18.158 56.5607 18.4393C56.842 18.7206 57 19.1022 57 19.5V21H54V19.5Z" fill="white"/>
<path d="M60 18H63V21H60V18Z" fill="white"/>
<path d="M66 18C66 18.7956 66.3161 19.5587 66.8787 20.1213C67.4413 20.6839 68.2044 21 69 21V18H66Z" fill="white"/>
<path d="M69 18H72V21H69V18Z" fill="white"/>
<path d="M72 21C72.7957 21 73.5587 20.6839 74.1213 20.1213C74.6839 19.5587 75 18.7956 75 18H72V21Z" fill="white"/>
<path d="M78 18H81V21H78V18Z" fill="white"/>
<path d="M6 21H9V24H6V21Z" fill="white"/>
<path d="M24 21H27V24H24V21Z" fill="white"/>
<path d="M30 21H33V24H30V21Z" fill="white"/>
<path d="M33 21H36V24H33V21Z" fill="white"/>
<path d="M36 21H39V24H36V21Z" fill="white"/>
<path d="M40.5 21C40.8978 21 41.2794 21.158 41.5607 21.4393C41.842 21.7206 42 22.1022 42 22.5C42 22.8978 41.842 23.2794 41.5607 23.5607C41.2794 23.842 40.8978 24 40.5 24H39V21H40.5Z" fill="white"/>
<path d="M45 21C45 21.7957 45.3161 22.5587 45.8787 23.1213C46.4413 23.6839 47.2044 24 48 24V21H45Z" fill="white"/>
<path d="M48 21H51V24H48V21Z" fill="white"/>
<path d="M51 21H54V24H51V21Z" fill="white"/>
<path d="M54 21H57V24H54V21Z" fill="white"/>
<path d="M60 21H63V24H60V21Z" fill="white"/>
<path d="M78 21H81V24H78V21Z" fill="white"/>
<path d="M6 24C6 24.7957 6.31607 25.5587 6.87868 26.1213C7.44129 26.6839 8.20435 27 9 27V24H6Z" fill="white"/>
<path d="M9 24H12V27H9V24Z" fill="white"/>
<path d="M12 24H15V27H12V24Z" fill="white"/>
<path d="M15 24H18V27H15V24Z" fill="white"/>
<path d="M18 24H21V27H18V24Z" fill="white"/>
<path d="M21 24H24V27H21V24Z" fill="white"/>
<path d="M24 27C24.7957 27 25.5587 26.6839 26.1213 26.1213C26.6839 25.5587 27 24.7957 27 24H24V27Z" fill="white"/>
<path d="M30 24H33V27H30V24Z" fill="white"/>
<path d="M36 24H39V27H36V24Z" fill="white"/>
<path d="M43.5 24C43.8978 24 44.2794 24.158 44.5607 24.4393C44.842 24.7206 45 25.1022 45 25.5C45 25.8978 44.842 26.2794 44.5607 26.5607C44.2794 26.842 43.8978 27 43.5 27C43.1022 27 42.7206 26.842 42.4393 26.5607C42.158 26.2794 42 25.8978 42 25.5C42 25.1022 42.158 24.7206 42.4393 24.4393C42.7206 24.158 43.1022 24 43.5 24Z" fill="white"/>
<path d="M48 25.5C48 25.8978 48.158 26.2794 48.4393 26.5607C48.7206 26.842 49.1022 27 49.5 27C49.8978 27 50.2794 26.842 50.5607 26.5607C50.842 26.2794 51 25.8978 51 25.5V24H48V25.5Z" fill="white"/>
<path d="M54 25.5C54 25.8978 54.158 26.2794 54.4393 26.5607C54.7206 26.842 55.1022 27 55.5 27C55.8978 27 56.2794 26.842 56.5607 26.5607C56.842 26.2794 57 25.8978 57 25.5V24H54V25.5Z" fill="white"/>
<path d="M60 24C60 24.7957 60.3161 25.5587 60.8787 26.1213C61.4413 26.6839 62.2044 27 63 27V24H60Z" fill="white"/>
<path d="M63 24H66V27H63V24Z" fill="white"/>
<path d="M66 24H69V27H66V24Z" fill="white"/>
<path d="M69 24H72V27H69V24Z" fill="white"/>
<path d="M72 24H75V27H72V24Z" fill="white"/>
<path d="M75 24H78V27H75V24Z" fill="white"/>
<path d="M78 27C78.7957 27 79.5587 26.6839 80.1213 26.1213C80.6839 25.5587 81 24.7957 81 24H78V27Z" fill="white"/>
<path d="M30 28.5C30 28.8978 30.158 29.2794 30.4393 29.5607C30.7206 29.842 31.1022 30 31.5 30C31.8978 30 32.2794 29.842 32.5607 29.5607C32.842 29.2794 33 28.8978 33 28.5V27H30V28.5Z" fill="white"/>
<path d="M36 27C36 27.7957 36.3161 28.5587 36.8787 29.1213C37.4413 29.6839 38.2044 30 39 30V27H36Z" fill="white"/>
<path d="M40.5 27C40.8978 27 41.2794 27.158 41.5607 27.4393C41.842 27.7206 42 28.1022 42 28.5C42 28.8978 41.842 29.2794 41.5607 29.5607C41.2794 29.842 40.8978 30 40.5 30H39V27H40.5Z" fill="white"/>
<path d="M46.5 27C46.8978 27 47.2794 27.158 47.5607 27.4393C47.842 27.7206 48 28.1022 48 28.5C48 28.8978 47.842 29.2794 47.5607 29.5607C47.2794 29.842 46.8978 30 46.5 30C46.1022 30 45.7206 29.842 45.4393 29.5607C45.158 29.2794 45 28.8978 45 28.5C45 28.1022 45.158 27.7206 45.4393 27.4393C45.7206 27.158 46.1022 27 46.5 27Z" fill="white"/>
<path d="M7.5 30C7.89782 30 8.27936 30.158 8.56066 30.4393C8.84196 30.7206 9 31.1022 9 31.5C9 31.8978 8.84196 32.2794 8.56066 32.5607C8.27936 32.842 7.89782 33 7.5 33C7.10218 33 6.72064 32.842 6.43934 32.5607C6.15804 32.2794 6 31.8978 6 31.5C6 31.1022 6.15804 30.7206 6.43934 30.4393C6.72064 30.158 7.10218 30 7.5 30Z" fill="white"/>
<path d="M13.5 30C13.1022 30 12.7206 30.158 12.4393 30.4393C12.158 30.7206 12 31.1022 12 31.5C12 31.8978 12.158 32.2794 12.4393 32.5607C12.7206 32.842 13.1022 33 13.5 33H15V30H13.5Z" fill="white"/>
<path d="M15 30H18V33H15V30Z" fill="white"/>
<path d="M18 30H21V33H18V30Z" fill="white"/>
<path d="M21 30H24V33H21V30Z" fill="white"/>
<path d="M25.5 30C25.8978 30 26.2794 30.158 26.5607 30.4393C26.842 30.7206 27 31.1022 27 31.5C27 31.8978 26.842 32.2794 26.5607 32.5607C26.2794 32.842 25.8978 33 25.5 33H24V30H25.5Z" fill="white"/>
<path d="M33 31.5C33 31.1022 33.158 30.7206 33.4393 30.4393C33.7206 30.158 34.1022 30 34.5 30C34.8978 30 35.2794 30.158 35.5607 30.4393C35.842 30.7206 36 31.1022 36 31.5V33H33V31.5Z" fill="white"/>
<path d="M49.5 30C49.1022 30 48.7206 30.158 48.4393 30.4393C48.158 30.7206 48 31.1022 48 31.5C48 31.8978 48.158 32.2794 48.4393 32.5607C48.7206 32.842 49.1022 33 49.5 33H51V30H49.5Z" fill="white"/>
<path d="M52.5 30C52.8978 30 53.2794 30.158 53.5607 30.4393C53.842 30.7206 54 31.1022 54 31.5C54 31.8978 53.842 32.2794 53.5607 32.5607C53.2794 32.842 52.8978 33 52.5 33H51V30H52.5Z" fill="white"/>
<path d="M61.5 30C61.1022 30 60.7206 30.158 60.4393 30.4393C60.158 30.7206 60 31.1022 60 31.5C60 31.8978 60.158 32.2794 60.4393 32.5607C60.7206 32.842 61.1022 33 61.5 33H63V30H61.5Z" fill="white"/>
<path d="M63 30H66V33H63V30Z" fill="white"/>
<path d="M66 30H69V33H66V30Z" fill="white"/>
<path d="M69 30H72V33H69V30Z" fill="white"/>
<path d="M73.5 30C73.8978 30 74.2794 30.158 74.5607 30.4393C74.842 30.7206 75 31.1022 75 31.5C75 31.8978 74.842 32.2794 74.5607 32.5607C74.2794 32.842 73.8978 33 73.5 33H72V30H73.5Z" fill="white"/>
<path d="M10.5 33C10.8978 33 11.2794 33.158 11.5607 33.4393C11.842 33.7206 12 34.1022 12 34.5C12 34.8978 11.842 35.2794 11.5607 35.5607C11.2794 35.842 10.8978 36 10.5 36C10.1022 36 9.72064 35.842 9.43934 35.5607C9.15804 35.2794 9 34.8978 9 34.5C9 34.1022 9.15804 33.7206 9.43934 33.4393C9.72064 33.158 10.1022 33 10.5 33Z" fill="white"/>
<path d="M15 33H18V36H15V33Z" fill="white"/>
<path d="M18 36C18.7956 36 19.5587 35.6839 20.1213 35.1213C20.6839 34.5587 21 33.7957 21 33H18V36Z" fill="white"/>
<path d="M30 36C30 35.2044 30.3161 34.4413 30.8787 33.8787C31.4413 33.3161 32.2044 33 33 33V36H30Z" fill="white"/>
<path d="M33 33H36V36H33V33Z" fill="white"/>
<path d="M39 36C39 35.2044 39.3161 34.4413 39.8787 33.8787C40.4413 33.3161 41.2044 33 42 33V36H39Z" fill="white"/>
<path d="M42 33C42.7957 33 43.5587 33.3161 44.1213 33.8787C44.6839 34.4413 45 35.2044 45 36H42V33Z" fill="white"/>
<path d="M55.5 33C55.1022 33 54.7206 33.158 54.4393 33.4393C54.158 33.7206 54 34.1022 54 34.5C54 34.8978 54.158 35.2794 54.4393 35.5607C54.7206 35.842 55.1022 36 55.5 36H57V33H55.5Z" fill="white"/>
<path d="M57 33C57.7957 33 58.5587 33.3161 59.1213 33.8787C59.6839 34.4413 60 35.2044 60 36H57V33Z" fill="white"/>
<path d="M63 33H66V36H63V33Z" fill="white"/>
<path d="M69 33H72V36H69V33Z" fill="white"/>
<path d="M75 34.5C75 34.1022 75.158 33.7206 75.4393 33.4393C75.7206 33.158 76.1022 33 76.5 33C76.8978 33 77.2794 33.158 77.5607 33.4393C77.842 33.7206 78 34.1022 78 34.5V36H75V34.5Z" fill="white"/>
<path d="M7.5 36C7.89782 36 8.27936 36.158 8.56066 36.4393C8.84196 36.7206 9 37.1022 9 37.5C9 37.8978 8.84196 38.2794 8.56066 38.5607C8.27936 38.842 7.89782 39 7.5 39C7.10218 39 6.72064 38.842 6.43934 38.5607C6.15804 38.2794 6 37.8978 6 37.5C6 37.1022 6.15804 36.7206 6.43934 36.4393C6.72064 36.158 7.10218 36 7.5 36Z" fill="white"/>
<path d="M15 36H18V39H15V36Z" fill="white"/>
<path d="M25.5 36C25.1022 36 24.7206 36.158 24.4393 36.4393C24.158 36.7206 24 37.1022 24 37.5C24 37.8978 24.158 38.2794 24.4393 38.5607C24.7206 38.842 25.1022 39 25.5 39H27V36H25.5Z" fill="white"/>
<path d="M27 36H30V39H27V36Z" fill="white"/>
<path d="M30 36H33V39H30V36Z" fill="white"/>
<path d="M33 36H36V39H33V36Z" fill="white"/>
<path d="M36 36H39V39H36V36Z" fill="white"/>
<path d="M39 36H42V39H39V36Z" fill="white"/>
<path d="M42 39C42.7957 39 43.5587 38.6839 44.1213 38.1213C44.6839 37.5587 45 36.7957 45 36H42V39Z" fill="white"/>
<path d="M52.5 36C52.8978 36 53.2794 36.158 53.5607 36.4393C53.842 36.7206 54 37.1022 54 37.5C54 37.8978 53.842 38.2794 53.5607 38.5607C53.2794 38.842 52.8978 39 52.5 39C52.1022 39 51.7206 38.842 51.4393 38.5607C51.158 38.2794 51 37.8978 51 37.5C51 37.1022 51.158 36.7206 51.4393 36.4393C51.7206 36.158 52.1022 36 52.5 36Z" fill="white"/>
<path d="M57 36C57 36.7957 57.3161 37.5587 57.8787 38.1213C58.4413 38.6839 59.2044 39 60 39V36H57Z" fill="white"/>
<path d="M60 36H63V39H60V36Z" fill="white"/>
<path d="M63 39C63.7957 39 64.5587 38.6839 65.1213 38.1213C65.6839 37.5587 66 36.7957 66 36H63V39Z" fill="white"/>
<path d="M69 36H72V39H69V36Z" fill="white"/>
<path d="M75 36C75 36.7957 75.3161 37.5587 75.8787 38.1213C76.4413 38.6839 77.2044 39 78 39V36H75Z" fill="white"/>
<path d="M78 36C78.7957 36 79.5587 36.3161 80.1213 36.8787C80.6839 37.4413 81 38.2044 81 39H78V36Z" fill="white"/>
<path d="M9 42C9 41.2044 9.31607 40.4413 9.87868 39.8787C10.4413 39.3161 11.2044 39 12 39V42H9Z" fill="white"/>
<path d="M12 39H15V42H12V39Z" fill="white"/>
<path d="M15 39H18V42H15V39Z" fill="white"/>
<path d="M21 40.5C21 40.1022 21.158 39.7206 21.4393 39.4393C21.7206 39.158 22.1022 39 22.5 39C22.8978 39 23.2794 39.158 23.5607 39.4393C23.842 39.7206 24 40.1022 24 40.5V42H21V40.5Z" fill="white"/>
<path d="M27 39H30V42H27V39Z" fill="white"/>
<path d="M30 39H33V42H30V39Z" fill="white"/>
<path d="M33 42C33.7957 42 34.5587 41.6839 35.1213 41.1213C35.6839 40.5587 36 39.7957 36 39H33V42Z" fill="white"/>
<path d="M39 39H42V42H39V39Z" fill="white"/>
<path d="M49.5 39C49.8978 39 50.2794 39.158 50.5607 39.4393C50.842 39.7206 51 40.1022 51 40.5C51 40.8978 50.842 41.2794 50.5607 41.5607C50.2794 41.842 49.8978 42 49.5 42C49.1022 42 48.7206 41.842 48.4393 41.5607C48.158 41.2794 48 40.8978 48 40.5C48 40.1022 48.158 39.7206 48.4393 39.4393C48.7206 39.158 49.1022 39 49.5 39Z" fill="white"/>
<path d="M55.5 39C55.8978 39 56.2794 39.158 56.5607 39.4393C56.842 39.7206 57 40.1022 57 40.5C57 40.8978 56.842 41.2794 56.5607 41.5607C56.2794 41.842 55.8978 42 55.5 42C55.1022 42 54.7206 41.842 54.4393 41.5607C54.158 41.2794 54 40.8978 54 40.5C54 40.1022 54.158 39.7206 54.4393 39.4393C54.7206 39.158 55.1022 39 55.5 39Z" fill="white"/>
<path d="M60 39H63V42H60V39Z" fill="white"/>
<path d="M69 39H72V42H69V39Z" fill="white"/>
<path d="M78 39H81V42H78V39Z" fill="white"/>
<path d="M9 42C9 42.7957 9.31607 43.5587 9.87868 44.1213C10.4413 44.6839 11.2044 45 12 45V42H9Z" fill="white"/>
<path d="M12 42H15V45H12V42Z" fill="white"/>
<path d="M15 45C15.7956 45 16.5587 44.6839 17.1213 44.1213C17.6839 43.5587 18 42.7957 18 42H15V45Z" fill="white"/>
<path d="M21 42H24V45H21V42Z" fill="white"/>
<path d="M24 42H27V45H24V42Z" fill="white"/>
<path d="M27 45C27.7957 45 28.5587 44.6839 29.1213 44.1213C29.6839 43.5587 30 42.7957 30 42H27V45Z" fill="white"/>
<path d="M37.5 42C37.1022 42 36.7206 42.158 36.4393 42.4393C36.158 42.7206 36 43.1022 36 43.5C36 43.8978 36.158 44.2794 36.4393 44.5607C36.7206 44.842 37.1022 45 37.5 45H39V42H37.5Z" fill="white"/>
<path d="M39 45C39.7957 45 40.5587 44.6839 41.1213 44.1213C41.6839 43.5587 42 42.7957 42 42H39V45Z" fill="white"/>
<path d="M57 45C57 44.2044 57.3161 43.4413 57.8787 42.8787C58.4413 42.3161 59.2044 42 60 42V45H57Z" fill="white"/>
<path d="M60 45C60.7957 45 61.5587 44.6839 62.1213 44.1213C62.6839 43.5587 63 42.7957 63 42H60V45Z" fill="white"/>
<path d="M67.5 42C67.1022 42 66.7206 42.158 66.4393 42.4393C66.158 42.7206 66 43.1022 66 43.5C66 43.8978 66.158 44.2794 66.4393 44.5607C66.7206 44.842 67.1022 45 67.5 45H69V42H67.5Z" fill="white"/>
<path d="M69 42H72V45H69V42Z" fill="white"/>
<path d="M72 42C72.7957 42 73.5587 42.3161 74.1213 42.8787C74.6839 43.4413 75 44.2044 75 45H72V42Z" fill="white"/>
<path d="M78 43.5C78 43.8978 78.158 44.2794 78.4393 44.5607C78.7206 44.842 79.1022 45 79.5 45C79.8978 45 80.2794 44.842 80.5607 44.5607C80.842 44.2794 81 43.8978 81 43.5V42H78V43.5Z" fill="white"/>
<path d="M6 46.5C6 46.1022 6.15804 45.7206 6.43934 45.4393C6.72064 45.158 7.10218 45 7.5 45C7.89782 45 8.27936 45.158 8.56066 45.4393C8.84196 45.7206 9 46.1022 9 46.5V48H6V46.5Z" fill="white"/>
<path d="M12 45H15V48H12V45Z" fill="white"/>
<path d="M21 45H24V48H21V45Z" fill="white"/>
<path d="M30 46.5C30 46.1022 30.158 45.7206 30.4393 45.4393C30.7206 45.158 31.1022 45 31.5 45C31.8978 45 32.2794 45.158 32.5607 45.4393C32.842 45.7206 33 46.1022 33 46.5V48H30V46.5Z" fill="white"/>
<path d="M43.5 45C43.1022 45 42.7206 45.158 42.4393 45.4393C42.158 45.7206 42 46.1022 42 46.5C42 46.8978 42.158 47.2794 42.4393 47.5607C42.7206 47.842 43.1022 48 43.5 48H45V45H43.5Z" fill="white"/>
<path d="M45 45H48V48H45V45Z" fill="white"/>
<path d="M48 45C48.7957 45 49.5587 45.3161 50.1213 45.8787C50.6839 46.4413 51 47.2044 51 48H48V45Z" fill="white"/>
<path d="M57 46.5C57 46.8978 57.158 47.2794 57.4393 47.5607C57.7206 47.842 58.1022 48 58.5 48C58.8978 48 59.2794 47.842 59.5607 47.5607C59.842 47.2794 60 46.8978 60 46.5V45H57V46.5Z" fill="white"/>
<path d="M64.5 45C64.8978 45 65.2794 45.158 65.5607 45.4393C65.842 45.7206 66 46.1022 66 46.5C66 46.8978 65.842 47.2794 65.5607 47.5607C65.2794 47.842 64.8978 48 64.5 48C64.1022 48 63.7206 47.842 63.4393 47.5607C63.158 47.2794 63 46.8978 63 46.5C63 46.1022 63.158 45.7206 63.4393 45.4393C63.7206 45.158 64.1022 45 64.5 45Z" fill="white"/>
<path d="M72 45H75V48H72V45Z" fill="white"/>
<path d="M75 45C75.7957 45 76.5587 45.3161 77.1213 45.8787C77.6839 46.4413 78 47.2044 78 48H75V45Z" fill="white"/>
<path d="M6 48H9V51H6V48Z" fill="white"/>
<path d="M12 48H15V51H12V48Z" fill="white"/>
<path d="M15 48H18V51H15V48Z" fill="white"/>
<path d="M18 48H21V51H18V48Z" fill="white"/>
<path d="M21 48H24V51H21V48Z" fill="white"/>
<path d="M24 48H27V51H24V48Z" fill="white"/>
<path d="M27 48H30V51H27V48Z" fill="white"/>
<path d="M30 48H33V51H30V48Z" fill="white"/>
<path d="M36 49.5C36 49.1022 36.158 48.7206 36.4393 48.4393C36.7206 48.158 37.1022 48 37.5 48C37.8978 48 38.2794 48.158 38.5607 48.4393C38.842 48.7206 39 49.1022 39 49.5V51H36V49.5Z" fill="white"/>
<path d="M45 48H48V51H45V48Z" fill="white"/>
<path d="M48 48H51V51H48V48Z" fill="white"/>
<path d="M51 48C51.7957 48 52.5587 48.3161 53.1213 48.8787C53.6839 49.4413 54 50.2044 54 51H51V48Z" fill="white"/>
<path d="M61.5 48C61.8978 48 62.2794 48.158 62.5607 48.4393C62.842 48.7206 63 49.1022 63 49.5C63 49.8978 62.842 50.2794 62.5607 50.5607C62.2794 50.842 61.8978 51 61.5 51C61.1022 51 60.7206 50.842 60.4393 50.5607C60.158 50.2794 60 49.8978 60 49.5C60 49.1022 60.158 48.7206 60.4393 48.4393C60.7206 48.158 61.1022 48 61.5 48Z" fill="white"/>
<path d="M70.5 48C70.1022 48 69.7206 48.158 69.4393 48.4393C69.158 48.7206 69 49.1022 69 49.5C69 49.8978 69.158 50.2794 69.4393 50.5607C69.7206 50.842 70.1022 51 70.5 51H72V48H70.5Z" fill="white"/>
<path d="M72 48H75V51H72V48Z" fill="white"/>
<path d="M75 48H78V51H75V48Z" fill="white"/>
<path d="M78 48C78.7957 48 79.5587 48.3161 80.1213 48.8787C80.6839 49.4413 81 50.2044 81 51H78V48Z" fill="white"/>
<path d="M6 51H9V54H6V51Z" fill="white"/>
<path d="M12 51H15V54H12V51Z" fill="white"/>
<path d="M18 51C18 51.7957 18.3161 52.5587 18.8787 53.1213C19.4413 53.6839 20.2044 54 21 54V51H18Z" fill="white"/>
<path d="M21 54C21.7957 54 22.5587 53.6839 23.1213 53.1213C23.6839 52.5587 24 51.7957 24 51H21V54Z" fill="white"/>
<path d="M27 51H30V54H27V51Z" fill="white"/>
<path d="M30 54C30.7957 54 31.5587 53.6839 32.1213 53.1213C32.6839 52.5587 33 51.7957 33 51H30V54Z" fill="white"/>
<path d="M36 51H39V54H36V51Z" fill="white"/>
<path d="M42 54C42 53.2044 42.3161 52.4413 42.8787 51.8787C43.4413 51.3161 44.2044 51 45 51V54H42Z" fill="white"/>
<path d="M45 54C45.7957 54 46.5587 53.6839 47.1213 53.1213C47.6839 52.5587 48 51.7957 48 51H45V54Z" fill="white"/>
<path d="M51 51H54V54H51V51Z" fill="white"/>
<path d="M54 51C54.7957 51 55.5587 51.3161 56.1213 51.8787C56.6839 52.4413 57 53.2044 57 54H54V51Z" fill="white"/>
<path d="M63 54C63 53.2044 63.3161 52.4413 63.8787 51.8787C64.4413 51.3161 65.2044 51 66 51V54H63Z" fill="white"/>
<path d="M66 51C66.7957 51 67.5587 51.3161 68.1213 51.8787C68.6839 52.4413 69 53.2044 69 54H66V51Z" fill="white"/>
<path d="M75 51C75 51.7957 75.3161 52.5587 75.8787 53.1213C76.4413 53.6839 77.2044 54 78 54V51H75Z" fill="white"/>
<path d="M78 51H81V54H78V51Z" fill="white"/>
<path d="M6 55.5C6 55.8978 6.15804 56.2794 6.43934 56.5607C6.72064 56.842 7.10218 57 7.5 57C7.89782 57 8.27936 56.842 8.56066 56.5607C8.84196 56.2794 9 55.8978 9 55.5V54H6V55.5Z" fill="white"/>
<path d="M12 55.5C12 55.8978 12.158 56.2794 12.4393 56.5607C12.7206 56.842 13.1022 57 13.5 57C13.8978 57 14.2794 56.842 14.5607 56.5607C14.842 56.2794 15 55.8978 15 55.5V54H12V55.5Z" fill="white"/>
<path d="M25.5 54C25.1022 54 24.7206 54.158 24.4393 54.4393C24.158 54.7206 24 55.1022 24 55.5C24 55.8978 24.158 56.2794 24.4393 56.5607C24.7206 56.842 25.1022 57 25.5 57H27V54H25.5Z" fill="white"/>
<path d="M27 57C27.7957 57 28.5587 56.6839 29.1213 56.1213C29.6839 55.5587 30 54.7957 30 54H27V57Z" fill="white"/>
<path d="M36 54H39V57H36V54Z" fill="white"/>
<path d="M42 55.5C42 55.8978 42.158 56.2794 42.4393 56.5607C42.7206 56.842 43.1022 57 43.5 57C43.8978 57 44.2794 56.842 44.5607 56.5607C44.842 56.2794 45 55.8978 45 55.5V54H42V55.5Z" fill="white"/>
<path d="M49.5 54C49.1022 54 48.7206 54.158 48.4393 54.4393C48.158 54.7206 48 55.1022 48 55.5C48 55.8978 48.158 56.2794 48.4393 56.5607C48.7206 56.842 49.1022 57 49.5 57H51V54H49.5Z" fill="white"/>
<path d="M51 54H54V57H51V54Z" fill="white"/>
<path d="M54 54H57V57H54V54Z" fill="white"/>
<path d="M57 54H60V57H57V54Z" fill="white"/>
<path d="M60 54H63V57H60V54Z" fill="white"/>
<path d="M63 54H66V57H63V54Z" fill="white"/>
<path d="M66 54H69V57H66V54Z" fill="white"/>
<path d="M73.5 54C73.8978 54 74.2794 54.158 74.5607 54.4393C74.842 54.7206 75 55.1022 75 55.5C75 55.8978 74.842 56.2794 74.5607 56.5607C74.2794 56.842 73.8978 57 73.5 57C73.1022 57 72.7206 56.842 72.4393 56.5607C72.158 56.2794 72 55.8978 72 55.5C72 55.1022 72.158 54.7206 72.4393 54.4393C72.7206 54.158 73.1022 54 73.5 54Z" fill="white"/>
<path d="M78 55.5C78 55.8978 78.158 56.2794 78.4393 56.5607C78.7206 56.842 79.1022 57 79.5 57C79.8978 57 80.2794 56.842 80.5607 56.5607C80.842 56.2794 81 55.8978 81 55.5V54H78V55.5Z" fill="white"/>
<path d="M31.5 57C31.8978 57 32.2794 57.158 32.5607 57.4393C32.842 57.7206 33 58.1022 33 58.5C33 58.8978 32.842 59.2794 32.5607 59.5607C32.2794 59.842 31.8978 60 31.5 60C31.1022 60 30.7206 59.842 30.4393 59.5607C30.158 59.2794 30 58.8978 30 58.5C30 58.1022 30.158 57.7206 30.4393 57.4393C30.7206 57.158 31.1022 57 31.5 57Z" fill="white"/>
<path d="M36 58.5C36 58.8978 36.158 59.2794 36.4393 59.5607C36.7206 59.842 37.1022 60 37.5 60C37.8978 60 38.2794 59.842 38.5607 59.5607C38.842 59.2794 39 58.8978 39 58.5V57H36V58.5Z" fill="white"/>
<path d="M54 57H57V60H54V57Z" fill="white"/>
<path d="M66 57H69V60H66V57Z" fill="white"/>
<path d="M6 63C6 62.2044 6.31607 61.4413 6.87868 60.8787C7.44129 60.3161 8.20435 60 9 60V63H6Z" fill="white"/>
<path d="M9 60H12V63H9V60Z" fill="white"/>
<path d="M12 60H15V63H12V60Z" fill="white"/>
<path d="M15 60H18V63H15V60Z" fill="white"/>
<path d="M18 60H21V63H18V60Z" fill="white"/>
<path d="M21 60H24V63H21V60Z" fill="white"/>
<path d="M24 60C24.7957 60 25.5587 60.3161 26.1213 60.8787C26.6839 61.4413 27 62.2044 27 63H24V60Z" fill="white"/>
<path d="M39 63C39 62.2044 39.3161 61.4413 39.8787 60.8787C40.4413 60.3161 41.2044 60 42 60V63H39Z" fill="white"/>
<path d="M43.5 60C43.8978 60 44.2794 60.158 44.5607 60.4393C44.842 60.7206 45 61.1022 45 61.5C45 61.8978 44.842 62.2794 44.5607 62.5607C44.2794 62.842 43.8978 63 43.5 63H42V60H43.5Z" fill="white"/>
<path d="M54 60H57V63H54V60Z" fill="white"/>
<path d="M61.5 60C61.8978 60 62.2794 60.158 62.5607 60.4393C62.842 60.7206 63 61.1022 63 61.5C63 61.8978 62.842 62.2794 62.5607 62.5607C62.2794 62.842 61.8978 63 61.5 63C61.1022 63 60.7206 62.842 60.4393 62.5607C60.158 62.2794 60 61.8978 60 61.5C60 61.1022 60.158 60.7206 60.4393 60.4393C60.7206 60.158 61.1022 60 61.5 60Z" fill="white"/>
<path d="M66 60H69V63H66V60Z" fill="white"/>
<path d="M70.5 60C70.8978 60 71.2794 60.158 71.5607 60.4393C71.842 60.7206 72 61.1022 72 61.5C72 61.8978 71.842 62.2794 71.5607 62.5607C71.2794 62.842 70.8978 63 70.5 63H69V60H70.5Z" fill="white"/>
<path d="M76.5 60C76.1022 60 75.7206 60.158 75.4393 60.4393C75.158 60.7206 75 61.1022 75 61.5C75 61.8978 75.158 62.2794 75.4393 62.5607C75.7206 62.842 76.1022 63 76.5 63H78V60H76.5Z" fill="white"/>
<path d="M79.5 60C79.8978 60 80.2794 60.158 80.5607 60.4393C80.842 60.7206 81 61.1022 81 61.5C81 61.8978 80.842 62.2794 80.5607 62.5607C80.2794 62.842 79.8978 63 79.5 63H78V60H79.5Z" fill="white"/>
<path d="M6 63H9V66H6V63Z" fill="white"/>
<path d="M24 63H27V66H24V63Z" fill="white"/>
<path d="M30 64.5C30 64.1022 30.158 63.7206 30.4393 63.4393C30.7206 63.158 31.1022 63 31.5 63C31.8978 63 32.2794 63.158 32.5607 63.4393C32.842 63.7206 33 64.1022 33 64.5V66H30V64.5Z" fill="white"/>
<path d="M37.5 63C37.1022 63 36.7206 63.158 36.4393 63.4393C36.158 63.7206 36 64.1022 36 64.5C36 64.8978 36.158 65.2794 36.4393 65.5607C36.7206 65.842 37.1022 66 37.5 66H39V63H37.5Z" fill="white"/>
<path d="M39 63H42V66H39V63Z" fill="white"/>
<path d="M49.5 63C49.8978 63 50.2794 63.158 50.5607 63.4393C50.842 63.7206 51 64.1022 51 64.5C51 64.8978 50.842 65.2794 50.5607 65.5607C50.2794 65.842 49.8978 66 49.5 66C49.1022 66 48.7206 65.842 48.4393 65.5607C48.158 65.2794 48 64.8978 48 64.5C48 64.1022 48.158 63.7206 48.4393 63.4393C48.7206 63.158 49.1022 63 49.5 63Z" fill="white"/>
<path d="M54 63H57V66H54V63Z" fill="white"/>
<path d="M66 63H69V66H66V63Z" fill="white"/>
<path d="M6 66H9V69H6V66Z" fill="white"/>
<path d="M12 69C12 68.2044 12.3161 67.4413 12.8787 66.8787C13.4413 66.3161 14.2044 66 15 66V69H12Z" fill="white"/>
<path d="M15 66H18V69H15V66Z" fill="white"/>
<path d="M18 66C18.7956 66 19.5587 66.3161 20.1213 66.8787C20.6839 67.4413 21 68.2044 21 69H18V66Z" fill="white"/>
<path d="M24 66H27V69H24V66Z" fill="white"/>
<path d="M30 66H33V69H30V66Z" fill="white"/>
<path d="M34.5 66C34.8978 66 35.2794 66.158 35.5607 66.4393C35.842 66.7206 36 67.1022 36 67.5C36 67.8978 35.842 68.2794 35.5607 68.5607C35.2794 68.842 34.8978 69 34.5 69H33V66H34.5Z" fill="white"/>
<path d="M39 67.5C39 67.8978 39.158 68.2794 39.4393 68.5607C39.7206 68.842 40.1022 69 40.5 69C40.8978 69 41.2794 68.842 41.5607 68.5607C41.842 68.2794 42 67.8978 42 67.5V66H39V67.5Z" fill="white"/>
<path d="M52.5 66C52.1022 66 51.7206 66.158 51.4393 66.4393C51.158 66.7206 51 67.1022 51 67.5C51 67.8978 51.158 68.2794 51.4393 68.5607C51.7206 68.842 52.1022 69 52.5 69H54V66H52.5Z" fill="white"/>
<path d="M54 66H57V69H54V66Z" fill="white"/>
<path d="M57 66H60V69H57V66Z" fill="white"/>
<path d="M60 66H63V69H60V66Z" fill="white"/>
<path d="M63 66H66V69H63V66Z" fill="white"/>
<path d="M66 66H69V69H66V66Z" fill="white"/>
<path d="M69 66H72V69H69V66Z" fill="white"/>
<path d="M73.5 66C73.8978 66 74.2794 66.158 74.5607 66.4393C74.842 66.7206 75 67.1022 75 67.5C75 67.8978 74.842 68.2794 74.5607 68.5607C74.2794 68.842 73.8978 69 73.5 69H72V66H73.5Z" fill="white"/>
<path d="M78 67.5C78 67.1022 78.158 66.7206 78.4393 66.4393C78.7206 66.158 79.1022 66 79.5 66C79.8978 66 80.2794 66.158 80.5607 66.4393C80.842 66.7206 81 67.1022 81 67.5V69H78V67.5Z" fill="white"/>
<path d="M6 69H9V72H6V69Z" fill="white"/>
<path d="M12 69H15V72H12V69Z" fill="white"/>
<path d="M15 69H18V72H15V69Z" fill="white"/>
<path d="M18 69H21V72H18V69Z" fill="white"/>
<path d="M24 69H27V72H24V69Z" fill="white"/>
<path d="M30 69H33V72H30V69Z" fill="white"/>
<path d="M36 70.5C36 70.1022 36.158 69.7206 36.4393 69.4393C36.7206 69.158 37.1022 69 37.5 69C37.8978 69 38.2794 69.158 38.5607 69.4393C38.842 69.7206 39 70.1022 39 70.5V72H36V70.5Z" fill="white"/>
<path d="M43.5 69C43.1022 69 42.7206 69.158 42.4393 69.4393C42.158 69.7206 42 70.1022 42 70.5C42 70.8978 42.158 71.2794 42.4393 71.5607C42.7206 71.842 43.1022 72 43.5 72H45V69H43.5Z" fill="white"/>
<path d="M45 69H48V72H45V69Z" fill="white"/>
<path d="M48 69C48.7957 69 49.5587 69.3161 50.1213 69.8787C50.6839 70.4413 51 71.2044 51 72H48V69Z" fill="white"/>
<path d="M54 69C54 69.7957 54.3161 70.5587 54.8787 71.1213C55.4413 71.6839 56.2044 72 57 72V69H54Z" fill="white"/>
<path d="M57 69H60V72H57V69Z" fill="white"/>
<path d="M60 72C60.7957 72 61.5587 71.6839 62.1213 71.1213C62.6839 70.5587 63 69.7957 63 69H60V72Z" fill="white"/>
<path d="M66 70.5C66 70.8978 66.158 71.2794 66.4393 71.5607C66.7206 71.842 67.1022 72 67.5 72C67.8978 72 68.2794 71.842 68.5607 71.5607C68.842 71.2794 69 70.8978 69 70.5V69H66V70.5Z" fill="white"/>
<path d="M76.5 69C76.1022 69 75.7206 69.158 75.4393 69.4393C75.158 69.7206 75 70.1022 75 70.5C75 70.8978 75.158 71.2794 75.4393 71.5607C75.7206 71.842 76.1022 72 76.5 72H78V69H76.5Z" fill="white"/>
<path d="M78 69H81V72H78V69Z" fill="white"/>
<path d="M6 72H9V75H6V72Z" fill="white"/>
<path d="M12 72C12 72.7957 12.3161 73.5587 12.8787 74.1213C13.4413 74.6839 14.2044 75 15 75V72H12Z" fill="white"/>
<path d="M15 72H18V75H15V72Z" fill="white"/>
<path d="M18 75C18.7956 75 19.5587 74.6839 20.1213 74.1213C20.6839 73.5587 21 72.7957 21 72H18V75Z" fill="white"/>
<path d="M24 72H27V75H24V72Z" fill="white"/>
<path d="M30 73.5C30 73.8978 30.158 74.2794 30.4393 74.5607C30.7206 74.842 31.1022 75 31.5 75C31.8978 75 32.2794 74.842 32.5607 74.5607C32.842 74.2794 33 73.8978 33 73.5V72H30V73.5Z" fill="white"/>
<path d="M36 73.5C36 73.8978 36.158 74.2794 36.4393 74.5607C36.7206 74.842 37.1022 75 37.5 75C37.8978 75 38.2794 74.842 38.5607 74.5607C38.842 74.2794 39 73.8978 39 73.5V72H36V73.5Z" fill="white"/>
<path d="M45 72H48V75H45V72Z" fill="white"/>
<path d="M48 72H51V75H48V72Z" fill="white"/>
<path d="M52.5 72C52.8978 72 53.2794 72.158 53.5607 72.4393C53.842 72.7206 54 73.1022 54 73.5C54 73.8978 53.842 74.2794 53.5607 74.5607C53.2794 74.842 52.8978 75 52.5 75H51V72H52.5Z" fill="white"/>
<path d="M57 72H60V75H57V72Z" fill="white"/>
<path d="M64.5 72C64.8978 72 65.2794 72.158 65.5607 72.4393C65.842 72.7206 66 73.1022 66 73.5C66 73.8978 65.842 74.2794 65.5607 74.5607C65.2794 74.842 64.8978 75 64.5 75C64.1022 75 63.7206 74.842 63.4393 74.5607C63.158 74.2794 63 73.8978 63 73.5C63 73.1022 63.158 72.7206 63.4393 72.4393C63.7206 72.158 64.1022 72 64.5 72Z" fill="white"/>
<path d="M78 72H81V75H78V72Z" fill="white"/>
<path d="M6 75H9V78H6V75Z" fill="white"/>
<path d="M24 75H27V78H24V75Z" fill="white"/>
<path d="M34.5 75C34.8978 75 35.2794 75.158 35.5607 75.4393C35.842 75.7206 36 76.1022 36 76.5C36 76.8978 35.842 77.2794 35.5607 77.5607C35.2794 77.842 34.8978 78 34.5 78C34.1022 78 33.7206 77.842 33.4393 77.5607C33.158 77.2794 33 76.8978 33 76.5C33 76.1022 33.158 75.7206 33.4393 75.4393C33.7206 75.158 34.1022 75 34.5 75Z" fill="white"/>
<path d="M42 78C42 77.2044 42.3161 76.4413 42.8787 75.8787C43.4413 75.3161 44.2044 75 45 75V78H42Z" fill="white"/>
<path d="M45 78C45.7957 78 46.5587 77.6839 47.1213 77.1213C47.6839 76.5587 48 75.7957 48 75H45V78Z" fill="white"/>
<path d="M55.5 75C55.1022 75 54.7206 75.158 54.4393 75.4393C54.158 75.7206 54 76.1022 54 76.5C54 76.8978 54.158 77.2794 54.4393 77.5607C54.7206 77.842 55.1022 78 55.5 78H57V75H55.5Z" fill="white"/>
<path d="M57 75H60V78H57V75Z" fill="white"/>
<path d="M60 75C60.7957 75 61.5587 75.3161 62.1213 75.8787C62.6839 76.4413 63 77.2044 63 78H60V75Z" fill="white"/>
<path d="M78 75H81V78H78V75Z" fill="white"/>
<path d="M6 78C6 78.7957 6.31607 79.5587 6.87868 80.1213C7.44129 80.6839 8.20435 81 9 81V78H6Z" fill="white"/>
<path d="M9 78H12V81H9V78Z" fill="white"/>
<path d="M12 78H15V81H12V78Z" fill="white"/>
<path d="M15 78H18V81H15V78Z" fill="white"/>
<path d="M18 78H21V81H18V78Z" fill="white"/>
<path d="M21 78H24V81H21V78Z" fill="white"/>
<path d="M24 81C24.7957 81 25.5587 80.6839 26.1213 80.1213C26.6839 79.5587 27 78.7957 27 78H24V81Z" fill="white"/>
<path d="M31.5 78C31.8978 78 32.2794 78.158 32.5607 78.4393C32.842 78.7206 33 79.1022 33 79.5C33 79.8978 32.842 80.2794 32.5607 80.5607C32.2794 80.842 31.8978 81 31.5 81C31.1022 81 30.7206 80.842 30.4393 80.5607C30.158 80.2794 30 79.8978 30 79.5C30 79.1022 30.158 78.7206 30.4393 78.4393C30.7206 78.158 31.1022 78 31.5 78Z" fill="white"/>
<path d="M37.5 78C37.8978 78 38.2794 78.158 38.5607 78.4393C38.842 78.7206 39 79.1022 39 79.5C39 79.8978 38.842 80.2794 38.5607 80.5607C38.2794 80.842 37.8978 81 37.5 81C37.1022 81 36.7206 80.842 36.4393 80.5607C36.158 80.2794 36 79.8978 36 79.5C36 79.1022 36.158 78.7206 36.4393 78.4393C36.7206 78.158 37.1022 78 37.5 78Z" fill="white"/>
<path d="M42 79.5C42 79.8978 42.158 80.2794 42.4393 80.5607C42.7206 80.842 43.1022 81 43.5 81C43.8978 81 44.2794 80.842 44.5607 80.5607C44.842 80.2794 45 79.8978 45 79.5V78H42V79.5Z" fill="white"/>
<path d="M49.5 78C49.8978 78 50.2794 78.158 50.5607 78.4393C50.842 78.7206 51 79.1022 51 79.5C51 79.8978 50.842 80.2794 50.5607 80.5607C50.2794 80.842 49.8978 81 49.5 81C49.1022 81 48.7206 80.842 48.4393 80.5607C48.158 80.2794 48 79.8978 48 79.5C48 79.1022 48.158 78.7206 48.4393 78.4393C48.7206 78.158 49.1022 78 49.5 78Z" fill="white"/>
<path d="M57 78C57 78.7957 57.3161 79.5587 57.8787 80.1213C58.4413 80.6839 59.2044 81 60 81V78H57Z" fill="white"/>
<path d="M60 78H63V81H60V78Z" fill="white"/>
<path d="M63 78H66V81H63V78Z" fill="white"/>
<path d="M66 78H69V81H66V78Z" fill="white"/>
<path d="M69 78H72V81H69V78Z" fill="white"/>
<path d="M72 78H75V81H72V78Z" fill="white"/>
<path d="M75 78H78V81H75V78Z" fill="white"/>
<path d="M78 81C78.7957 81 79.5587 80.6839 80.1213 80.1213C80.6839 79.5587 81 78.7957 81 78H78V81Z" fill="white"/>
<path d="M6 9C6 8.20435 6.31607 7.44129 6.87868 6.87868C7.44129 6.31607 8.20435 6 9 6M6 9H9M6 9V12M9 6V9M9 6H12M9 9H12M9 9V12M12 6V9M12 6H15M12 9H15M15 6V9M15 6H18M15 9H18M18 6V9M18 6H21M18 9H21M21 6V9M21 6H24M21 9H24M24 6V9M24 6C24.7957 6 25.5587 6.31607 26.1213 6.87868C26.6839 7.44129 27 8.20435 27 9M24 9H27M24 9V12M27 9V12M42 9H40.5C40.1022 9 39.7206 8.84196 39.4393 8.56066C39.158 8.27936 39 7.89782 39 7.5C39 7.10218 39.158 6.72064 39.4393 6.43934C39.7206 6.15804 40.1022 6 40.5 6H42M42 9V6M42 9H45M42 9V12M42 6H45M45 6V9M45 6H46.5C46.8978 6 47.2794 6.15804 47.5607 6.43934C47.842 6.72064 48 7.10218 48 7.5C48 7.89782 47.842 8.27936 47.5607 8.56066C47.2794 8.84196 46.8978 9 46.5 9H45M45 9V12M57 9V7.5C57 7.10218 56.842 6.72064 56.5607 6.43934C56.2794 6.15804 55.8978 6 55.5 6C55.1022 6 54.7206 6.15804 54.4393 6.43934C54.158 6.72064 54 7.10218 54 7.5V9M57 9H54M57 9V12M54 9H51M54 9V12M60 9C60 8.20435 60.3161 7.44129 60.8787 6.87868C61.4413 6.31607 62.2044 6 63 6M60 9H63M60 9V12M63 6V9M63 6H66M63 9H66M63 9V12M66 6V9M66 6H69M66 9H69M69 6V9M69 6H72M69 9H72M72 6V9M72 6H75M72 9H75M75 6V9M75 6H78M75 9H78M78 6V9M78 6C78.7957 6 79.5587 6.31607 80.1213 6.87868C80.6839 7.44129 81 8.20435 81 9M78 9H81M78 9V12M81 9V12M9 12H6M9 12V15M6 12V15M27 12H24M27 12V15M24 12V15M36 12V10.5C36 10.1022 35.842 9.72064 35.5607 9.43934C35.2794 9.15804 34.8978 9 34.5 9C34.1022 9 33.7206 9.15804 33.4393 9.43934C33.158 9.72064 33 10.1022 33 10.5V12M36 12H33M36 12V15M36 12H39M33 12C32.2044 12 31.4413 12.3161 30.8787 12.8787C30.3161 13.4413 30 14.2044 30 15M33 12V15M45 12H42M45 12C45 12.7956 44.6839 13.5587 44.1213 14.1213C43.5587 14.6839 42.7957 15 42 15M42 12H39M42 12V15M48 12C48 11.2044 48.3161 10.4413 48.8787 9.87868C49.4413 9.31607 50.2044 9 51 9M48 12H51M48 12V13.5C48 13.8978 48.158 14.2794 48.4393 14.5607C48.7206 14.842 49.1022 15 49.5 15C49.8978 15 50.2794 14.842 50.5607 14.5607C50.842 14.2794 51 13.8978 51 13.5V12M51 9V12M51 12H54M54 12H57M54 12V13.5C54 13.8978 54.158 14.2794 54.4393 14.5607C54.7206 14.842 55.1022 15 55.5 15C55.8978 15 56.2794 14.842 56.5607 14.5607C56.842 14.2794 57 13.8978 57 13.5V12M63 12H60M63 12V15M60 12V15M81 12H78M81 12V15M78 12V15M9 15H6M9 15V18M6 15V18M12 15C12 14.2044 12.3161 13.4413 12.8787 12.8787C13.4413 12.3161 14.2044 12 15 12M12 15H15M12 15V18M15 12V15M15 12H18M15 15H18M15 15V18M18 12V15M18 12C18.7956 12 19.5587 12.3161 20.1213 12.8787C20.6839 13.4413 21 14.2044 21 15M18 15H21M18 15V18M21 15V18M27 15H24M27 15V18M24 15V18M30 15H33M30 15V18M33 15H36M33 15V18M36 15H39M39 12V15M39 15H42M39 15V16.5C39 16.8978 39.158 17.2794 39.4393 17.5607C39.7206 17.842 40.1022 18 40.5 18C40.8978 18 41.2794 17.842 41.5607 17.5607C41.842 17.2794 42 16.8978 42 16.5V15M63 15H60M63 15V18M60 15V18M66 15C66 14.2044 66.3161 13.4413 66.8787 12.8787C67.4413 12.3161 68.2044 12 69 12M66 15H69M66 15V18M69 12V15M69 12H72M69 15H72M69 15V18M72 12V15M72 12C72.7957 12 73.5587 12.3161 74.1213 12.8787C74.6839 13.4413 75 14.2044 75 15M72 15H75M72 15V18M75 15V18M81 15H78M81 15V18M78 15V18M9 18H6M9 18V21M6 18V21M15 18H12M15 18H18M15 18V21M12 18C12 18.7956 12.3161 19.5587 12.8787 20.1213C13.4413 20.6839 14.2044 21 15 21M18 18H21M18 18V21M21 18C21 18.7956 20.6839 19.5587 20.1213 20.1213C19.5587 20.6839 18.7956 21 18 21M27 18H24M27 18V21M24 18V21M33 18H30M33 18V21M33 18C33.7957 18 34.5587 18.3161 35.1213 18.8787C35.6839 19.4413 36 20.2044 36 21M30 18V21M63 18H60M63 18V21M60 18V21M69 18H66M69 18H72M69 18V21M66 18C66 18.7956 66.3161 19.5587 66.8787 20.1213C67.4413 20.6839 68.2044 21 69 21M72 18H75M72 18V21M75 18C75 18.7956 74.6839 19.5587 74.1213 20.1213C73.5587 20.6839 72.7957 21 72 21M81 18H78M81 18V21M78 18V21M9 21H6M9 21V24M6 21V24M15 21H18M27 21H24M27 21V24M24 21V24M33 21H30M33 21H36M33 21V24M30 21V24M36 21V24M36 21H39M45 21H43.5C43.1022 21 42.7206 20.842 42.4393 20.5607C42.158 20.2794 42 19.8978 42 19.5C42 19.1022 42.158 18.7206 42.4393 18.4393C42.7206 18.158 43.1022 18 43.5 18H45M45 21V18M45 21H48M45 21C45 21.7957 45.3161 22.5587 45.8787 23.1213C46.4413 23.6839 47.2044 24 48 24M45 18C45.7957 18 46.5587 18.3161 47.1213 18.8787C47.6839 19.4413 48 20.2044 48 21M48 21V24M48 21H51M57 21V19.5C57 19.1022 56.842 18.7206 56.5607 18.4393C56.2794 18.158 55.8978 18 55.5 18C55.1022 18 54.7206 18.158 54.4393 18.4393C54.158 18.7206 54 19.1022 54 19.5V21M57 21H54M57 21V24M54 21H51M54 21V24M63 21H60M63 21V24M60 21V24M69 21H72M81 21H78M81 21V24M78 21V24M9 24H6M9 24V27M9 24H12M6 24C6 24.7957 6.31607 25.5587 6.87868 26.1213C7.44129 26.6839 8.20435 27 9 27M27 24H24M27 24C27 24.7957 26.6839 25.5587 26.1213 26.1213C25.5587 26.6839 24.7957 27 24 27M24 24H21M24 24V27M33 24H30M33 24H36M33 24V27M30 24V27M36 24H39M36 24V27M39 21V24M39 21H40.5C40.8978 21 41.2794 21.158 41.5607 21.4393C41.842 21.7206 42 22.1022 42 22.5C42 22.8978 41.842 23.2794 41.5607 23.5607C41.2794 23.842 40.8978 24 40.5 24H39M39 24V27M48 24H51M48 24V25.5C48 25.8978 48.158 26.2794 48.4393 26.5607C48.7206 26.842 49.1022 27 49.5 27C49.8978 27 50.2794 26.842 50.5607 26.5607C50.842 26.2794 51 25.8978 51 25.5V24M51 21V24M51 24H54M54 24H57M54 24V25.5C54 25.8978 54.158 26.2794 54.4393 26.5607C54.7206 26.842 55.1022 27 55.5 27C55.8978 27 56.2794 26.842 56.5607 26.5607C56.842 26.2794 57 25.8978 57 25.5V24M63 24H60M63 24V27M63 24H66M60 24C60 24.7957 60.3161 25.5587 60.8787 26.1213C61.4413 26.6839 62.2044 27 63 27M81 24H78M81 24C81 24.7957 80.6839 25.5587 80.1213 26.1213C79.5587 26.6839 78.7957 27 78 27M78 24H75M78 24V27M9 27H12M12 24V27M12 24H15M12 27H15M15 24V27M15 24H18M15 27H18M18 24V27M18 24H21M18 27H21M21 24V27M21 27H24M33 27H30M33 27V28.5C33 28.8978 32.842 29.2794 32.5607 29.5607C32.2794 29.842 31.8978 30 31.5 30C31.1022 30 30.7206 29.842 30.4393 29.5607C30.158 29.2794 30 28.8978 30 28.5V27M39 27H36M39 27V30M39 27H40.5C40.8978 27 41.2794 27.158 41.5607 27.4393C41.842 27.7206 42 28.1022 42 28.5C42 28.8978 41.842 29.2794 41.5607 29.5607C41.2794 29.842 40.8978 30 40.5 30H39M36 27C36 27.7957 36.3161 28.5587 36.8787 29.1213C37.4413 29.6839 38.2044 30 39 30M63 27H66M66 24V27M66 24H69M66 27H69M69 24V27M69 24H72M69 27H72M72 24V27M72 24H75M72 27H75M75 24V27M75 27H78M15 33H13.5C13.1022 33 12.7206 32.842 12.4393 32.5607C12.158 32.2794 12 31.8978 12 31.5C12 31.1022 12.158 30.7206 12.4393 30.4393C12.7206 30.158 13.1022 30 13.5 30H15M15 33V30M15 33H18M15 33V36M15 30H18M18 30V33M18 30H21M18 33H21M18 33V36M21 30V33M21 30H24M21 33H24M21 33C21 33.7957 20.6839 34.5587 20.1213 35.1213C19.5587 35.6839 18.7956 36 18 36M24 30V33M24 30H25.5C25.8978 30 26.2794 30.158 26.5607 30.4393C26.842 30.7206 27 31.1022 27 31.5C27 31.8978 26.842 32.2794 26.5607 32.5607C26.2794 32.842 25.8978 33 25.5 33H24M36 33V31.5C36 31.1022 35.842 30.7206 35.5607 30.4393C35.2794 30.158 34.8978 30 34.5 30C34.1022 30 33.7206 30.158 33.4393 30.4393C33.158 30.7206 33 31.1022 33 31.5V33M36 33H33M36 33V36M33 33C32.2044 33 31.4413 33.3161 30.8787 33.8787C30.3161 34.4413 30 35.2044 30 36M33 33V36M51 33H49.5C49.1022 33 48.7206 32.842 48.4393 32.5607C48.158 32.2794 48 31.8978 48 31.5C48 31.1022 48.158 30.7206 48.4393 30.4393C48.7206 30.158 49.1022 30 49.5 30H51M51 33V30M51 33H52.5C52.8978 33 53.2794 32.842 53.5607 32.5607C53.842 32.2794 54 31.8978 54 31.5C54 31.1022 53.842 30.7206 53.5607 30.4393C53.2794 30.158 52.8978 30 52.5 30H51M63 33H61.5C61.1022 33 60.7206 32.842 60.4393 32.5607C60.158 32.2794 60 31.8978 60 31.5C60 31.1022 60.158 30.7206 60.4393 30.4393C60.7206 30.158 61.1022 30 61.5 30H63M63 33V30M63 33H66M63 33V36M63 30H66M66 30V33M66 30H69M66 33H69M66 33V36M69 30V33M69 30H72M69 33H72M69 33V36M72 30V33M72 30H73.5C73.8978 30 74.2794 30.158 74.5607 30.4393C74.842 30.7206 75 31.1022 75 31.5C75 31.8978 74.842 32.2794 74.5607 32.5607C74.2794 32.842 73.8978 33 73.5 33H72M72 33V36M18 36H15M18 36V39M15 36V39M30 36H33M30 36H27M30 36V39M33 36H36M33 36V39M36 36V39M36 36H39M39 36C39 35.2044 39.3161 34.4413 39.8787 33.8787C40.4413 33.3161 41.2044 33 42 33M39 36H42M39 36V39M42 33V36M42 33C42.7957 33 43.5587 33.3161 44.1213 33.8787C44.6839 34.4413 45 35.2044 45 36M42 36H45M42 36V39M45 36C45 36.7957 44.6839 37.5587 44.1213 38.1213C43.5587 38.6839 42.7957 39 42 39M57 36H55.5C55.1022 36 54.7206 35.842 54.4393 35.5607C54.158 35.2794 54 34.8978 54 34.5C54 34.1022 54.158 33.7206 54.4393 33.4393C54.7206 33.158 55.1022 33 55.5 33H57M57 36V33M57 36H60M57 36C57 36.7957 57.3161 37.5587 57.8787 38.1213C58.4413 38.6839 59.2044 39 60 39M57 33C57.7957 33 58.5587 33.3161 59.1213 33.8787C59.6839 34.4413 60 35.2044 60 36M60 36V39M60 36H63M66 36H63M66 36C66 36.7957 65.6839 37.5587 65.1213 38.1213C64.5587 38.6839 63.7957 39 63 39M63 36V39M72 36H69M72 36V39M69 36V39M78 36V34.5C78 34.1022 77.842 33.7206 77.5607 33.4393C77.2794 33.158 76.8978 33 76.5 33C76.1022 33 75.7206 33.158 75.4393 33.4393C75.158 33.7206 75 34.1022 75 34.5V36M78 36H75M78 36V39M78 36C78.7957 36 79.5587 36.3161 80.1213 36.8787C80.6839 37.4413 81 38.2044 81 39M75 36C75 36.7957 75.3161 37.5587 75.8787 38.1213C76.4413 38.6839 77.2044 39 78 39M18 39H15M18 39V42M15 39H12M15 39V42M27 39H25.5C25.1022 39 24.7206 38.842 24.4393 38.5607C24.158 38.2794 24 37.8978 24 37.5C24 37.1022 24.158 36.7206 24.4393 36.4393C24.7206 36.158 25.1022 36 25.5 36H27M27 39V36M27 39H30M27 39V42M30 39H33M30 39V42M33 39H36M33 39V42M36 39H39M36 39C36 39.7957 35.6839 40.5587 35.1213 41.1213C34.5587 41.6839 33.7957 42 33 42M39 39H42M39 39V42M42 39V42M60 39H63M60 39V42M63 39V42M72 39H69M72 39V42M69 39V42M78 39H81M78 39V42M81 39V42M9 42C9 41.2044 9.31607 40.4413 9.87868 39.8787C10.4413 39.3161 11.2044 39 12 39M9 42H12M9 42C9 42.7957 9.31607 43.5587 9.87868 44.1213C10.4413 44.6839 11.2044 45 12 45M12 39V42M12 42H15M12 42V45M15 42H18M15 42V45M18 42C18 42.7957 17.6839 43.5587 17.1213 44.1213C16.5587 44.6839 15.7956 45 15 45M24 42V40.5C24 40.1022 23.842 39.7206 23.5607 39.4393C23.2794 39.158 22.8978 39 22.5 39C22.1022 39 21.7206 39.158 21.4393 39.4393C21.158 39.7206 21 40.1022 21 40.5V42M24 42H21M24 42V45M24 42H27M21 42V45M30 42H27M30 42H33M30 42C30 42.7957 29.6839 43.5587 29.1213 44.1213C28.5587 44.6839 27.7957 45 27 45M27 42V45M42 42H39M42 42C42 42.7957 41.6839 43.5587 41.1213 44.1213C40.5587 44.6839 39.7957 45 39 45M39 42V45M39 42H37.5C37.1022 42 36.7206 42.158 36.4393 42.4393C36.158 42.7206 36 43.1022 36 43.5C36 43.8978 36.158 44.2794 36.4393 44.5607C36.7206 44.842 37.1022 45 37.5 45H39M63 42H60M63 42C63 42.7957 62.6839 43.5587 62.1213 44.1213C61.5587 44.6839 60.7957 45 60 45M60 42C59.2044 42 58.4413 42.3161 57.8787 42.8787C57.3161 43.4413 57 44.2044 57 45M60 42V45M72 42H69M72 42V45M72 42C72.7957 42 73.5587 42.3161 74.1213 42.8787C74.6839 43.4413 75 44.2044 75 45M69 42V45M69 42H67.5C67.1022 42 66.7206 42.158 66.4393 42.4393C66.158 42.7206 66 43.1022 66 43.5C66 43.8978 66.158 44.2794 66.4393 44.5607C66.7206 44.842 67.1022 45 67.5 45H69M81 42H78M81 42V43.5C81 43.8978 80.842 44.2794 80.5607 44.5607C80.2794 44.842 79.8978 45 79.5 45C79.1022 45 78.7206 44.842 78.4393 44.5607C78.158 44.2794 78 43.8978 78 43.5V42M12 45H15M12 45V48M15 45V48M24 45H21M24 45H27M24 45V48M21 45V48M57 45H60M57 45V46.5C57 46.8978 57.158 47.2794 57.4393 47.5607C57.7206 47.842 58.1022 48 58.5 48C58.8978 48 59.2794 47.842 59.5607 47.5607C59.842 47.2794 60 46.8978 60 46.5V45M69 45H72M72 45H75M72 45V48M75 45V48M75 45C75.7957 45 76.5587 45.3161 77.1213 45.8787C77.6839 46.4413 78 47.2044 78 48M9 48V46.5C9 46.1022 8.84196 45.7206 8.56066 45.4393C8.27936 45.158 7.89782 45 7.5 45C7.10218 45 6.72064 45.158 6.43934 45.4393C6.15804 45.7206 6 46.1022 6 46.5V48M9 48H6M9 48V51M6 48V51M15 48H12M15 48V51M15 48H18M12 48V51M24 48H21M24 48V51M24 48H27M21 48H18M21 48V51M33 48V46.5C33 46.1022 32.842 45.7206 32.5607 45.4393C32.2794 45.158 31.8978 45 31.5 45C31.1022 45 30.7206 45.158 30.4393 45.4393C30.158 45.7206 30 46.1022 30 46.5V48M33 48H30M33 48V51M30 48H27M30 48V51M45 48H43.5C43.1022 48 42.7206 47.842 42.4393 47.5607C42.158 47.2794 42 46.8978 42 46.5C42 46.1022 42.158 45.7206 42.4393 45.4393C42.7206 45.158 43.1022 45 43.5 45H45M45 48V45M45 48H48M45 48V51M45 45H48M48 45V48M48 45C48.7957 45 49.5587 45.3161 50.1213 45.8787C50.6839 46.4413 51 47.2044 51 48M48 48H51M48 48V51M51 48V51M51 48C51.7957 48 52.5587 48.3161 53.1213 48.8787C53.6839 49.4413 54 50.2044 54 51M75 48H72M75 48H78M75 48V51M72 48V51M72 48H70.5C70.1022 48 69.7206 48.158 69.4393 48.4393C69.158 48.7206 69 49.1022 69 49.5C69 49.8978 69.158 50.2794 69.4393 50.5607C69.7206 50.842 70.1022 51 70.5 51H72M78 48V51M78 48C78.7957 48 79.5587 48.3161 80.1213 48.8787C80.6839 49.4413 81 50.2044 81 51M9 51H6M9 51V54M6 51V54M15 51H12M15 51H18M15 51V54M12 51V54M18 48V51M18 51H21M18 51C18 51.7957 18.3161 52.5587 18.8787 53.1213C19.4413 53.6839 20.2044 54 21 54M21 51H24M21 51V54M24 51H27M24 51C24 51.7957 23.6839 52.5587 23.1213 53.1213C22.5587 53.6839 21.7957 54 21 54M27 48V51M27 51H30M27 51V54M30 51H33M30 51V54M33 51C33 51.7957 32.6839 52.5587 32.1213 53.1213C31.5587 53.6839 30.7957 54 30 54M39 51V49.5C39 49.1022 38.842 48.7206 38.5607 48.4393C38.2794 48.158 37.8978 48 37.5 48C37.1022 48 36.7206 48.158 36.4393 48.4393C36.158 48.7206 36 49.1022 36 49.5V51M39 51H36M39 51V54M36 51V54M48 51H45M48 51H51M48 51C48 51.7957 47.6839 52.5587 47.1213 53.1213C46.5587 53.6839 45.7957 54 45 54M45 51C44.2044 51 43.4413 51.3161 42.8787 51.8787C42.3161 52.4413 42 53.2044 42 54M45 51V54M51 51H54M51 51V54M54 51V54M54 51C54.7957 51 55.5587 51.3161 56.1213 51.8787C56.6839 52.4413 57 53.2044 57 54M72 51H75M75 51H78M75 51C75 51.7957 75.3161 52.5587 75.8787 53.1213C76.4413 53.6839 77.2044 54 78 54M78 51H81M78 51V54M81 51V54M9 54H6M9 54V55.5C9 55.8978 8.84196 56.2794 8.56066 56.5607C8.27936 56.842 7.89782 57 7.5 57C7.10218 57 6.72064 56.842 6.43934 56.5607C6.15804 56.2794 6 55.8978 6 55.5V54M15 54H12M15 54V55.5C15 55.8978 14.842 56.2794 14.5607 56.5607C14.2794 56.842 13.8978 57 13.5 57C13.1022 57 12.7206 56.842 12.4393 56.5607C12.158 56.2794 12 55.8978 12 55.5V54M30 54H27M30 54C30 54.7957 29.6839 55.5587 29.1213 56.1213C28.5587 56.6839 27.7957 57 27 57M27 54V57M27 54H25.5C25.1022 54 24.7206 54.158 24.4393 54.4393C24.158 54.7206 24 55.1022 24 55.5C24 55.8978 24.158 56.2794 24.4393 56.5607C24.7206 56.842 25.1022 57 25.5 57H27M39 54H36M39 54V57M36 54V57M42 54H45M42 54V55.5C42 55.8978 42.158 56.2794 42.4393 56.5607C42.7206 56.842 43.1022 57 43.5 57C43.8978 57 44.2794 56.842 44.5607 56.5607C44.842 56.2794 45 55.8978 45 55.5V54M54 54H51M54 54H57M54 54V57M51 54V57M51 54H49.5C49.1022 54 48.7206 54.158 48.4393 54.4393C48.158 54.7206 48 55.1022 48 55.5C48 55.8978 48.158 56.2794 48.4393 56.5607C48.7206 56.842 49.1022 57 49.5 57H51M57 54V57M57 54H60M63 54C63 53.2044 63.3161 52.4413 63.8787 51.8787C64.4413 51.3161 65.2044 51 66 51M63 54H66M63 54H60M63 54V57M66 51V54M66 51C66.7957 51 67.5587 51.3161 68.1213 51.8787C68.6839 52.4413 69 53.2044 69 54M66 54H69M66 54V57M69 54V57M78 54H81M78 54V55.5C78 55.8978 78.158 56.2794 78.4393 56.5607C78.7206 56.842 79.1022 57 79.5 57C79.8978 57 80.2794 56.842 80.5607 56.5607C80.842 56.2794 81 55.8978 81 55.5V54M39 57H36M39 57V58.5C39 58.8978 38.842 59.2794 38.5607 59.5607C38.2794 59.842 37.8978 60 37.5 60C37.1022 60 36.7206 59.842 36.4393 59.5607C36.158 59.2794 36 58.8978 36 58.5V57M51 57H54M54 57H57M54 57V60M57 57H60M57 57V60M60 54V57M60 57H63M63 57H66M66 57H69M66 57V60M69 57V60M57 60H54M57 60V63M54 60V63M69 60H66M69 60V63M69 60H70.5C70.8978 60 71.2794 60.158 71.5607 60.4393C71.842 60.7206 72 61.1022 72 61.5C72 61.8978 71.842 62.2794 71.5607 62.5607C71.2794 62.842 70.8978 63 70.5 63H69M66 60V63M6 63C6 62.2044 6.31607 61.4413 6.87868 60.8787C7.44129 60.3161 8.20435 60 9 60M6 63H9M6 63V66M9 60V63M9 60H12M9 63H12M9 63V66M12 60V63M12 60H15M12 63H15M15 60V63M15 60H18M15 63H18M18 60V63M18 60H21M18 63H21M21 60V63M21 60H24M21 63H24M24 60V63M24 60C24.7957 60 25.5587 60.3161 26.1213 60.8787C26.6839 61.4413 27 62.2044 27 63M24 63H27M24 63V66M27 63V66M39 63C39 62.2044 39.3161 61.4413 39.8787 60.8787C40.4413 60.3161 41.2044 60 42 60M39 63H42M39 63V66M39 63H37.5C37.1022 63 36.7206 63.158 36.4393 63.4393C36.158 63.7206 36 64.1022 36 64.5C36 64.8978 36.158 65.2794 36.4393 65.5607C36.7206 65.842 37.1022 66 37.5 66H39M42 60V63M42 60H43.5C43.8978 60 44.2794 60.158 44.5607 60.4393C44.842 60.7206 45 61.1022 45 61.5C45 61.8978 44.842 62.2794 44.5607 62.5607C44.2794 62.842 43.8978 63 43.5 63H42M42 63V66M57 63H54M57 63V66M54 63V66M69 63H66M69 63V66M66 63V66M78 63H76.5C76.1022 63 75.7206 62.842 75.4393 62.5607C75.158 62.2794 75 61.8978 75 61.5C75 61.1022 75.158 60.7206 75.4393 60.4393C75.7206 60.158 76.1022 60 76.5 60H78M78 63V60M78 63H79.5C79.8978 63 80.2794 62.842 80.5607 62.5607C80.842 62.2794 81 61.8978 81 61.5C81 61.1022 80.842 60.7206 80.5607 60.4393C80.2794 60.158 79.8978 60 79.5 60H78M9 66H6M9 66V69M6 66V69M27 66H24M27 66V69M24 66V69M33 66V64.5C33 64.1022 32.842 63.7206 32.5607 63.4393C32.2794 63.158 31.8978 63 31.5 63C31.1022 63 30.7206 63.158 30.4393 63.4393C30.158 63.7206 30 64.1022 30 64.5V66M33 66H30M33 66V69M33 66H34.5C34.8978 66 35.2794 66.158 35.5607 66.4393C35.842 66.7206 36 67.1022 36 67.5C36 67.8978 35.842 68.2794 35.5607 68.5607C35.2794 68.842 34.8978 69 34.5 69H33M30 66V69M39 66H42M39 66V67.5C39 67.8978 39.158 68.2794 39.4393 68.5607C39.7206 68.842 40.1022 69 40.5 69C40.8978 69 41.2794 68.842 41.5607 68.5607C41.842 68.2794 42 67.8978 42 67.5V66M57 66H54M57 66V69M57 66H60M54 66V69M54 66H52.5C52.1022 66 51.7206 66.158 51.4393 66.4393C51.158 66.7206 51 67.1022 51 67.5C51 67.8978 51.158 68.2794 51.4393 68.5607C51.7206 68.842 52.1022 69 52.5 69H54M69 66H66M69 66V69M69 66H72M66 66H63M66 66V69M9 69H6M9 69V72M6 69V72M12 69C12 68.2044 12.3161 67.4413 12.8787 66.8787C13.4413 66.3161 14.2044 66 15 66M12 69H15M12 69V72M15 66V69M15 66H18M15 69H18M15 69V72M18 66V69M18 66C18.7956 66 19.5587 66.3161 20.1213 66.8787C20.6839 67.4413 21 68.2044 21 69M18 69H21M18 69V72M21 69V72M27 69H24M27 69V72M24 69V72M33 69H30M33 69V72M30 69V72M54 69H57M54 69C54 69.7957 54.3161 70.5587 54.8787 71.1213C55.4413 71.6839 56.2044 72 57 72M57 69H60M57 69V72M60 66V69M60 66H63M60 69H63M60 69V72M63 66V69M63 69H66M63 69C63 69.7957 62.6839 70.5587 62.1213 71.1213C61.5587 71.6839 60.7957 72 60 72M66 69H69M66 69V70.5C66 70.8978 66.158 71.2794 66.4393 71.5607C66.7206 71.842 67.1022 72 67.5 72C67.8978 72 68.2794 71.842 68.5607 71.5607C68.842 71.2794 69 70.8978 69 70.5V69M69 69H72M72 66V69M72 66H73.5C73.8978 66 74.2794 66.158 74.5607 66.4393C74.842 66.7206 75 67.1022 75 67.5C75 67.8978 74.842 68.2794 74.5607 68.5607C74.2794 68.842 73.8978 69 73.5 69H72M81 69V67.5C81 67.1022 80.842 66.7206 80.5607 66.4393C80.2794 66.158 79.8978 66 79.5 66C79.1022 66 78.7206 66.158 78.4393 66.4393C78.158 66.7206 78 67.1022 78 67.5V69M81 69H78M81 69V72M78 69V72M78 69H76.5C76.1022 69 75.7206 69.158 75.4393 69.4393C75.158 69.7206 75 70.1022 75 70.5C75 70.8978 75.158 71.2794 75.4393 71.5607C75.7206 71.842 76.1022 72 76.5 72H78M9 72H6M9 72V75M6 72V75M15 72H12M15 72H18M15 72V75M12 72C12 72.7957 12.3161 73.5587 12.8787 74.1213C13.4413 74.6839 14.2044 75 15 75M18 72H21M18 72V75M21 72C21 72.7957 20.6839 73.5587 20.1213 74.1213C19.5587 74.6839 18.7956 75 18 75M27 72H24M27 72V75M24 72V75M33 72H30M33 72V73.5C33 73.8978 32.842 74.2794 32.5607 74.5607C32.2794 74.842 31.8978 75 31.5 75C31.1022 75 30.7206 74.842 30.4393 74.5607C30.158 74.2794 30 73.8978 30 73.5V72M39 72V70.5C39 70.1022 38.842 69.7206 38.5607 69.4393C38.2794 69.158 37.8978 69 37.5 69C37.1022 69 36.7206 69.158 36.4393 69.4393C36.158 69.7206 36 70.1022 36 70.5V72M39 72H36M39 72V73.5C39 73.8978 38.842 74.2794 38.5607 74.5607C38.2794 74.842 37.8978 75 37.5 75C37.1022 75 36.7206 74.842 36.4393 74.5607C36.158 74.2794 36 73.8978 36 73.5V72M45 72H43.5C43.1022 72 42.7206 71.842 42.4393 71.5607C42.158 71.2794 42 70.8978 42 70.5C42 70.1022 42.158 69.7206 42.4393 69.4393C42.7206 69.158 43.1022 69 43.5 69H45M45 72V69M45 72H48M45 72V75M45 69H48M48 69V72M48 69C48.7957 69 49.5587 69.3161 50.1213 69.8787C50.6839 70.4413 51 71.2044 51 72M48 72H51M48 72V75M51 72V75M51 72H52.5C52.8978 72 53.2794 72.158 53.5607 72.4393C53.842 72.7206 54 73.1022 54 73.5C54 73.8978 53.842 74.2794 53.5607 74.5607C53.2794 74.842 52.8978 75 52.5 75H51M57 72H60M57 72V75M60 72V75M78 72H81M78 72V75M81 72V75M9 75H6M9 75V78M6 75V78M15 75H18M27 75H24M27 75V78M24 75V78M48 75H45M48 75H51M48 75C48 75.7957 47.6839 76.5587 47.1213 77.1213C46.5587 77.6839 45.7957 78 45 78M45 75C44.2044 75 43.4413 75.3161 42.8787 75.8787C42.3161 76.4413 42 77.2044 42 78M45 75V78M60 75H57M60 75V78M60 75C60.7957 75 61.5587 75.3161 62.1213 75.8787C62.6839 76.4413 63 77.2044 63 78M57 75V78M57 75H55.5C55.1022 75 54.7206 75.158 54.4393 75.4393C54.158 75.7206 54 76.1022 54 76.5C54 76.8978 54.158 77.2794 54.4393 77.5607C54.7206 77.842 55.1022 78 55.5 78H57M81 75H78M81 75V78M78 75V78M9 78H6M9 78V81M9 78H12M6 78C6 78.7957 6.31607 79.5587 6.87868 80.1213C7.44129 80.6839 8.20435 81 9 81M27 78H24M27 78C27 78.7957 26.6839 79.5587 26.1213 80.1213C25.5587 80.6839 24.7957 81 24 81M24 78H21M24 78V81M42 78H45M42 78V79.5C42 79.8978 42.158 80.2794 42.4393 80.5607C42.7206 80.842 43.1022 81 43.5 81C43.8978 81 44.2794 80.842 44.5607 80.5607C44.842 80.2794 45 79.8978 45 79.5V78M57 78H60M57 78C57 78.7957 57.3161 79.5587 57.8787 80.1213C58.4413 80.6839 59.2044 81 60 81M60 78H63M60 78V81M63 78V81M63 78H66M81 78H78M81 78C81 78.7957 80.6839 79.5587 80.1213 80.1213C79.5587 80.6839 78.7957 81 78 81M78 78H75M78 78V81M9 81H12M12 78V81M12 78H15M12 81H15M15 78V81M15 78H18M15 81H18M18 78V81M18 78H21M18 81H21M21 78V81M21 81H24M60 81H63M63 81H66M66 78V81M66 78H69M66 81H69M69 78V81M69 78H72M69 81H72M72 78V81M72 78H75M72 81H75M75 78V81M75 81H78M43.5 24C43.8978 24 44.2794 24.158 44.5607 24.4393C44.842 24.7206 45 25.1022 45 25.5C45 25.8978 44.842 26.2794 44.5607 26.5607C44.2794 26.842 43.8978 27 43.5 27C43.1022 27 42.7206 26.842 42.4393 26.5607C42.158 26.2794 42 25.8978 42 25.5C42 25.1022 42.158 24.7206 42.4393 24.4393C42.7206 24.158 43.1022 24 43.5 24ZM46.5 27C46.8978 27 47.2794 27.158 47.5607 27.4393C47.842 27.7206 48 28.1022 48 28.5C48 28.8978 47.842 29.2794 47.5607 29.5607C47.2794 29.842 46.8978 30 46.5 30C46.1022 30 45.7206 29.842 45.4393 29.5607C45.158 29.2794 45 28.8978 45 28.5C45 28.1022 45.158 27.7206 45.4393 27.4393C45.7206 27.158 46.1022 27 46.5 27ZM7.5 30C7.89782 30 8.27936 30.158 8.56066 30.4393C8.84196 30.7206 9 31.1022 9 31.5C9 31.8978 8.84196 32.2794 8.56066 32.5607C8.27936 32.842 7.89782 33 7.5 33C7.10218 33 6.72064 32.842 6.43934 32.5607C6.15804 32.2794 6 31.8978 6 31.5C6 31.1022 6.15804 30.7206 6.43934 30.4393C6.72064 30.158 7.10218 30 7.5 30ZM10.5 33C10.8978 33 11.2794 33.158 11.5607 33.4393C11.842 33.7206 12 34.1022 12 34.5C12 34.8978 11.842 35.2794 11.5607 35.5607C11.2794 35.842 10.8978 36 10.5 36C10.1022 36 9.72064 35.842 9.43934 35.5607C9.15804 35.2794 9 34.8978 9 34.5C9 34.1022 9.15804 33.7206 9.43934 33.4393C9.72064 33.158 10.1022 33 10.5 33ZM7.5 36C7.89782 36 8.27936 36.158 8.56066 36.4393C8.84196 36.7206 9 37.1022 9 37.5C9 37.8978 8.84196 38.2794 8.56066 38.5607C8.27936 38.842 7.89782 39 7.5 39C7.10218 39 6.72064 38.842 6.43934 38.5607C6.15804 38.2794 6 37.8978 6 37.5C6 37.1022 6.15804 36.7206 6.43934 36.4393C6.72064 36.158 7.10218 36 7.5 36ZM52.5 36C52.8978 36 53.2794 36.158 53.5607 36.4393C53.842 36.7206 54 37.1022 54 37.5C54 37.8978 53.842 38.2794 53.5607 38.5607C53.2794 38.842 52.8978 39 52.5 39C52.1022 39 51.7206 38.842 51.4393 38.5607C51.158 38.2794 51 37.8978 51 37.5C51 37.1022 51.158 36.7206 51.4393 36.4393C51.7206 36.158 52.1022 36 52.5 36ZM49.5 39C49.8978 39 50.2794 39.158 50.5607 39.4393C50.842 39.7206 51 40.1022 51 40.5C51 40.8978 50.842 41.2794 50.5607 41.5607C50.2794 41.842 49.8978 42 49.5 42C49.1022 42 48.7206 41.842 48.4393 41.5607C48.158 41.2794 48 40.8978 48 40.5C48 40.1022 48.158 39.7206 48.4393 39.4393C48.7206 39.158 49.1022 39 49.5 39ZM55.5 39C55.8978 39 56.2794 39.158 56.5607 39.4393C56.842 39.7206 57 40.1022 57 40.5C57 40.8978 56.842 41.2794 56.5607 41.5607C56.2794 41.842 55.8978 42 55.5 42C55.1022 42 54.7206 41.842 54.4393 41.5607C54.158 41.2794 54 40.8978 54 40.5C54 40.1022 54.158 39.7206 54.4393 39.4393C54.7206 39.158 55.1022 39 55.5 39ZM64.5 45C64.8978 45 65.2794 45.158 65.5607 45.4393C65.842 45.7206 66 46.1022 66 46.5C66 46.8978 65.842 47.2794 65.5607 47.5607C65.2794 47.842 64.8978 48 64.5 48C64.1022 48 63.7206 47.842 63.4393 47.5607C63.158 47.2794 63 46.8978 63 46.5C63 46.1022 63.158 45.7206 63.4393 45.4393C63.7206 45.158 64.1022 45 64.5 45ZM61.5 48C61.8978 48 62.2794 48.158 62.5607 48.4393C62.842 48.7206 63 49.1022 63 49.5C63 49.8978 62.842 50.2794 62.5607 50.5607C62.2794 50.842 61.8978 51 61.5 51C61.1022 51 60.7206 50.842 60.4393 50.5607C60.158 50.2794 60 49.8978 60 49.5C60 49.1022 60.158 48.7206 60.4393 48.4393C60.7206 48.158 61.1022 48 61.5 48ZM73.5 54C73.8978 54 74.2794 54.158 74.5607 54.4393C74.842 54.7206 75 55.1022 75 55.5C75 55.8978 74.842 56.2794 74.5607 56.5607C74.2794 56.842 73.8978 57 73.5 57C73.1022 57 72.7206 56.842 72.4393 56.5607C72.158 56.2794 72 55.8978 72 55.5C72 55.1022 72.158 54.7206 72.4393 54.4393C72.7206 54.158 73.1022 54 73.5 54ZM31.5 57C31.8978 57 32.2794 57.158 32.5607 57.4393C32.842 57.7206 33 58.1022 33 58.5C33 58.8978 32.842 59.2794 32.5607 59.5607C32.2794 59.842 31.8978 60 31.5 60C31.1022 60 30.7206 59.842 30.4393 59.5607C30.158 59.2794 30 58.8978 30 58.5C30 58.1022 30.158 57.7206 30.4393 57.4393C30.7206 57.158 31.1022 57 31.5 57ZM61.5 60C61.8978 60 62.2794 60.158 62.5607 60.4393C62.842 60.7206 63 61.1022 63 61.5C63 61.8978 62.842 62.2794 62.5607 62.5607C62.2794 62.842 61.8978 63 61.5 63C61.1022 63 60.7206 62.842 60.4393 62.5607C60.158 62.2794 60 61.8978 60 61.5C60 61.1022 60.158 60.7206 60.4393 60.4393C60.7206 60.158 61.1022 60 61.5 60ZM49.5 63C49.8978 63 50.2794 63.158 50.5607 63.4393C50.842 63.7206 51 64.1022 51 64.5C51 64.8978 50.842 65.2794 50.5607 65.5607C50.2794 65.842 49.8978 66 49.5 66C49.1022 66 48.7206 65.842 48.4393 65.5607C48.158 65.2794 48 64.8978 48 64.5C48 64.1022 48.158 63.7206 48.4393 63.4393C48.7206 63.158 49.1022 63 49.5 63ZM64.5 72C64.8978 72 65.2794 72.158 65.5607 72.4393C65.842 72.7206 66 73.1022 66 73.5C66 73.8978 65.842 74.2794 65.5607 74.5607C65.2794 74.842 64.8978 75 64.5 75C64.1022 75 63.7206 74.842 63.4393 74.5607C63.158 74.2794 63 73.8978 63 73.5C63 73.1022 63.158 72.7206 63.4393 72.4393C63.7206 72.158 64.1022 72 64.5 72ZM34.5 75C34.8978 75 35.2794 75.158 35.5607 75.4393C35.842 75.7206 36 76.1022 36 76.5C36 76.8978 35.842 77.2794 35.5607 77.5607C35.2794 77.842 34.8978 78 34.5 78C34.1022 78 33.7206 77.842 33.4393 77.5607C33.158 77.2794 33 76.8978 33 76.5C33 76.1022 33.158 75.7206 33.4393 75.4393C33.7206 75.158 34.1022 75 34.5 75ZM31.5 78C31.8978 78 32.2794 78.158 32.5607 78.4393C32.842 78.7206 33 79.1022 33 79.5C33 79.8978 32.842 80.2794 32.5607 80.5607C32.2794 80.842 31.8978 81 31.5 81C31.1022 81 30.7206 80.842 30.4393 80.5607C30.158 80.2794 30 79.8978 30 79.5C30 79.1022 30.158 78.7206 30.4393 78.4393C30.7206 78.158 31.1022 78 31.5 78ZM37.5 78C37.8978 78 38.2794 78.158 38.5607 78.4393C38.842 78.7206 39 79.1022 39 79.5C39 79.8978 38.842 80.2794 38.5607 80.5607C38.2794 80.842 37.8978 81 37.5 81C37.1022 81 36.7206 80.842 36.4393 80.5607C36.158 80.2794 36 79.8978 36 79.5C36 79.1022 36.158 78.7206 36.4393 78.4393C36.7206 78.158 37.1022 78 37.5 78ZM49.5 78C49.8978 78 50.2794 78.158 50.5607 78.4393C50.842 78.7206 51 79.1022 51 79.5C51 79.8978 50.842 80.2794 50.5607 80.5607C50.2794 80.842 49.8978 81 49.5 81C49.1022 81 48.7206 80.842 48.4393 80.5607C48.158 80.2794 48 79.8978 48 79.5C48 79.1022 48.158 78.7206 48.4393 78.4393C48.7206 78.158 49.1022 78 49.5 78Z" stroke="white" stroke-width="0.174"/>
</svg>
