<svg width="375" height="58" viewBox="0 0 375 58" fill="none" xmlns="http://www.w3.org/2000/svg">
<rect x="16" y="17" width="24" height="24" rx="12" fill="#C2F6AE"/>
<path fill-rule="evenodd" clip-rule="evenodd" d="M31.4881 21.4306C31.8026 21.7001 31.839 22.1736 31.5694 22.4881L25.9878 29L31.5694 35.5119C31.839 35.8264 31.8026 36.2999 31.4881 36.5695C31.1736 36.839 30.7001 36.8026 30.4306 36.4881L24.4306 29.4881C24.1898 29.2072 24.1898 28.7928 24.4306 28.5119L30.4306 21.5119C30.7001 21.1974 31.1736 21.161 31.4881 21.4306Z" fill="#828DA9"/>
<path d="M48.632 33.5V22.7H54.864C56.1813 22.7 57.0053 22.972 57.336 23.516C57.6667 24.0547 57.832 24.6387 57.832 25.268C57.832 25.8973 57.6907 26.4573 57.408 26.948C57.1307 27.4333 56.6747 27.6867 56.04 27.708C56.6907 27.7453 57.1947 28.0147 57.552 28.516C57.9093 29.012 58.088 29.6413 58.088 30.404C58.088 31.2787 57.9227 32.0147 57.592 32.612C57.2667 33.204 56.4373 33.5 55.104 33.5H48.632ZM51.36 31.652H54.424C54.8027 31.652 55.0533 31.5293 55.176 31.284C55.304 31.0387 55.368 30.652 55.368 30.124C55.368 29.6173 55.296 29.2333 55.152 28.972C55.008 28.7107 54.7147 28.58 54.272 28.58H51.36V31.652ZM51.36 26.932H54.096C54.4907 26.932 54.7547 26.8173 54.888 26.588C55.0213 26.3587 55.088 26.0493 55.088 25.66C55.088 25.292 55.0293 25.0147 54.912 24.828C54.7947 24.636 54.5493 24.54 54.176 24.54H51.36V26.932ZM64.1786 33.596C62.3866 33.596 61.1306 33.164 60.4106 32.3C59.696 31.4307 59.3386 30.2493 59.3386 28.756C59.3386 27.2253 59.6986 26.0387 60.4186 25.196C61.1386 24.348 62.376 23.924 64.1306 23.924C65.928 23.924 67.1706 24.3533 67.8586 25.212C68.552 26.0707 68.8986 27.2493 68.8986 28.748C68.8986 29.0467 68.88 29.3133 68.8426 29.548H61.6906V27.924H66.3306L66.2346 28.164C66.2346 27.252 66.048 26.6067 65.6746 26.228C65.3066 25.8493 64.792 25.66 64.1306 25.66C63.48 25.66 62.952 25.8653 62.5466 26.276C62.1413 26.6867 61.9386 27.5133 61.9386 28.756C61.9386 29.972 62.1386 30.7933 62.5386 31.22C62.944 31.6467 63.4906 31.86 64.1786 31.86V33.596ZM64.1786 31.86C64.5786 31.86 64.9093 31.8067 65.1706 31.7C65.432 31.5933 65.64 31.4147 65.7946 31.164C65.9546 30.9133 66.0906 30.6173 66.2026 30.276L68.6106 30.956C68.4933 31.58 68.2373 32.084 67.8426 32.468C67.4533 32.852 66.9813 33.1373 66.4266 33.324C65.8773 33.5053 65.128 33.596 64.1786 33.596V31.86ZM70.2193 33.5V24.02H72.2993L72.9073 25.62V33.5H70.2193ZM76.4033 33.5V28.476C76.4033 27.4253 76.2753 26.7133 76.0193 26.34C75.7633 25.9667 75.3686 25.78 74.8353 25.78C74.2753 25.78 73.7979 26.0093 73.4033 26.468C73.0139 26.9213 72.8193 27.5107 72.8193 28.236L71.5153 27.628C71.5153 26.7907 71.9153 25.9667 72.7153 25.156C73.5153 24.34 74.5606 23.932 75.8513 23.932C77.0726 23.932 77.9179 24.348 78.3872 25.18C78.8566 26.0067 79.0913 27.092 79.0913 28.436V33.5H76.4033ZM85.2724 33.596C83.4804 33.596 82.2244 33.164 81.5044 32.3C80.7897 31.4307 80.4324 30.2493 80.4324 28.756C80.4324 27.2253 80.7924 26.0387 81.5124 25.196C82.2324 24.348 83.4697 23.924 85.2244 23.924C87.0217 23.924 88.2644 24.3533 88.9524 25.212C89.6457 26.0707 89.9924 27.2493 89.9924 28.748C89.9924 29.0467 89.9737 29.3133 89.9364 29.548H82.7844V27.924H87.4244L87.3284 28.164C87.3284 27.252 87.1417 26.6067 86.7684 26.228C86.4004 25.8493 85.8857 25.66 85.2244 25.66C84.5737 25.66 84.0457 25.8653 83.6404 26.276C83.235 26.6867 83.0324 27.5133 83.0324 28.756C83.0324 29.972 83.2324 30.7933 83.6324 31.22C84.0377 31.6467 84.5844 31.86 85.2724 31.86V33.596ZM85.2724 31.86C85.6724 31.86 86.003 31.8067 86.2644 31.7C86.5257 31.5933 86.7337 31.4147 86.8884 31.164C87.0484 30.9133 87.1844 30.6173 87.2964 30.276L89.7044 30.956C89.587 31.58 89.331 32.084 88.9364 32.468C88.547 32.852 88.075 33.1373 87.5204 33.324C86.971 33.5053 86.2217 33.596 85.2724 33.596V31.86ZM92.7141 33.5V25.852H90.7781V24.02H92.7301L92.7141 23.7C92.7141 22.6867 93.1435 21.9613 94.0021 21.524C94.8608 21.0867 96.0875 20.868 97.6821 20.868H98.0101V22.636H97.7461C96.9088 22.636 96.3088 22.708 95.9461 22.852C95.5835 22.996 95.4021 23.2813 95.4021 23.708L95.3941 24.02H97.9541V25.852H95.4021V33.5H92.7141ZM99.4421 33.5V24.012H102.138V33.5H99.4421ZM99.4421 21.164H102.138V23.044H99.4421V21.164ZM108.315 33.596C106.544 33.596 105.307 33.1773 104.603 32.34C103.904 31.4973 103.555 30.3107 103.555 28.78C103.555 27.212 103.904 26.012 104.603 25.18C105.307 24.348 106.544 23.932 108.315 23.932C109.888 23.932 110.979 24.2733 111.587 24.956C112.2 25.6387 112.558 26.356 112.659 27.108L110.267 27.94C110.224 27.2147 110.032 26.676 109.691 26.324C109.355 25.9667 108.896 25.788 108.315 25.788C107.739 25.788 107.259 25.988 106.875 26.388C106.491 26.788 106.299 27.5853 106.299 28.78C106.299 29.9267 106.491 30.708 106.875 31.124C107.259 31.54 107.739 31.748 108.315 31.748C108.896 31.748 109.355 31.5613 109.691 31.188C110.032 30.8147 110.224 30.292 110.267 29.62L112.659 30.484C112.558 31.1827 112.2 31.876 111.587 32.564C110.979 33.252 109.888 33.596 108.315 33.596ZM114.209 33.5V24.012H116.905V33.5H114.209ZM114.209 21.164H116.905V23.044H114.209V21.164ZM122.161 33.604C121.787 33.604 121.419 33.5827 121.057 33.54C120.699 33.4973 120.363 33.4173 120.049 33.3C119.734 33.1773 119.457 33.0067 119.217 32.788C118.977 32.5693 118.787 32.2867 118.649 31.94C118.515 31.5933 118.449 31.1693 118.449 30.668C118.449 30.1827 118.515 29.7747 118.649 29.444C118.787 29.108 118.974 28.8333 119.209 28.62C119.443 28.4067 119.715 28.2413 120.025 28.124C120.334 28.0067 120.665 27.9267 121.017 27.884C121.369 27.836 121.726 27.812 122.089 27.812H125.081V27.444C125.081 27.012 124.995 26.6707 124.825 26.42C124.659 26.1693 124.43 25.9933 124.137 25.892C123.849 25.7853 123.523 25.732 123.161 25.732C122.83 25.732 122.529 25.7827 122.257 25.884C121.985 25.9853 121.755 26.1507 121.569 26.38C121.387 26.6093 121.259 26.916 121.185 27.3L118.553 26.564C118.649 26.0893 118.825 25.6867 119.081 25.356C119.342 25.02 119.673 24.748 120.073 24.54C120.478 24.3267 120.939 24.172 121.457 24.076C121.979 23.9747 122.545 23.924 123.153 23.924C124.107 23.924 124.931 24.0387 125.625 24.268C126.318 24.4973 126.851 24.8787 127.225 25.412C127.598 25.9453 127.785 26.6707 127.785 27.588V33.5H125.545L125.313 32.412C125.249 32.556 125.129 32.7 124.953 32.844C124.777 32.9827 124.55 33.1107 124.273 33.228C124.001 33.34 123.686 33.4307 123.329 33.5C122.977 33.5693 122.587 33.604 122.161 33.604ZM122.769 31.916C123.03 31.916 123.289 31.892 123.545 31.844C123.806 31.796 124.043 31.7267 124.257 31.636C124.475 31.5453 124.657 31.4387 124.801 31.316C124.945 31.188 125.038 31.0493 125.081 30.9L125.145 29.3H122.721C122.507 29.3 122.307 29.316 122.121 29.348C121.934 29.3747 121.769 29.4333 121.625 29.524C121.486 29.6147 121.377 29.7453 121.297 29.916C121.217 30.0867 121.177 30.3107 121.177 30.588C121.177 30.8707 121.219 31.1 121.305 31.276C121.395 31.4467 121.515 31.58 121.665 31.676C121.819 31.7667 121.99 31.8307 122.177 31.868C122.369 31.9 122.566 31.916 122.769 31.916ZM135.361 28.692C135.361 27.4973 135.225 26.716 134.953 26.348C134.681 25.9747 134.303 25.788 133.817 25.788C133.252 25.788 132.804 25.9853 132.473 26.38C132.143 26.7693 131.977 27.2173 131.977 27.724L130.945 27.108C130.945 26.212 131.303 25.46 132.017 24.852C132.732 24.2387 133.668 23.932 134.825 23.932C136.079 23.932 136.929 24.3187 137.377 25.092C137.825 25.86 138.049 27.06 138.049 28.692H135.361ZM129.297 33.5V24.02H131.377L131.985 25.66V33.5H129.297ZM139.834 33.5V24.012H142.53V33.5H139.834ZM139.834 21.164H142.53V23.044H139.834V21.164ZM148.882 33.596C147.09 33.596 145.834 33.164 145.114 32.3C144.399 31.4307 144.042 30.2493 144.042 28.756C144.042 27.2253 144.402 26.0387 145.122 25.196C145.842 24.348 147.079 23.924 148.834 23.924C150.631 23.924 151.874 24.3533 152.562 25.212C153.255 26.0707 153.602 27.2493 153.602 28.748C153.602 29.0467 153.583 29.3133 153.546 29.548H146.394V27.924H151.034L150.938 28.164C150.938 27.252 150.751 26.6067 150.378 26.228C150.01 25.8493 149.495 25.66 148.834 25.66C148.183 25.66 147.655 25.8653 147.25 26.276C146.844 26.6867 146.642 27.5133 146.642 28.756C146.642 29.972 146.842 30.7933 147.242 31.22C147.647 31.6467 148.194 31.86 148.882 31.86V33.596ZM148.882 31.86C149.282 31.86 149.612 31.8067 149.874 31.7C150.135 31.5933 150.343 31.4147 150.498 31.164C150.658 30.9133 150.794 30.6173 150.906 30.276L153.314 30.956C153.196 31.58 152.94 32.084 152.546 32.468C152.156 32.852 151.684 33.1373 151.13 33.324C150.58 33.5053 149.831 33.596 148.882 33.596V31.86ZM159.61 33.58C158.362 33.58 157.312 33.3907 156.458 33.012C155.605 32.6333 155.053 31.9827 154.802 31.06L157.154 30.196C157.277 30.74 157.554 31.148 157.986 31.42C158.418 31.692 158.973 31.828 159.65 31.828C160.21 31.828 160.645 31.7427 160.954 31.572C161.264 31.396 161.418 31.1533 161.418 30.844C161.418 30.4227 161.141 30.1533 160.586 30.036C160.032 29.9187 159.322 29.7907 158.458 29.652C157.376 29.4867 156.506 29.1907 155.85 28.764C155.2 28.332 154.874 27.636 154.874 26.676C154.874 25.7373 155.277 25.0467 156.082 24.604C156.888 24.1613 157.944 23.94 159.25 23.94C160.525 23.94 161.568 24.1267 162.378 24.5C163.189 24.868 163.709 25.5027 163.938 26.404L161.578 27.252C161.456 26.7667 161.186 26.3827 160.77 26.1C160.354 25.8173 159.837 25.676 159.218 25.676C158.637 25.676 158.208 25.764 157.93 25.94C157.658 26.116 157.522 26.3587 157.522 26.668C157.522 27.0733 157.786 27.3373 158.314 27.46C158.842 27.5773 159.52 27.7 160.346 27.828C161.408 27.9827 162.293 28.252 163.002 28.636C163.717 29.0147 164.074 29.684 164.074 30.644C164.074 31.6947 163.688 32.4467 162.914 32.9C162.141 33.3533 161.04 33.58 159.61 33.58Z" fill="#050505"/>
</svg>
