<svg width="500" height="53" viewBox="0 0 375 53" fill="none" xmlns="http://www.w3.org/2000/svg">
<g opacity="0.2">
<path opacity="0.0526316" d="M338.764 -217.559C321.675 -222.953 279.739 -222.447 248.709 -177.267C209.921 -120.793 225.715 -55.8607 197.652 3.71586C176.939 47.6879 104.918 142.943 28.7065 149.026" stroke="url(#paint0_linear_1799_10410)" stroke-width="1.23672"/>
<path opacity="0.105263" d="M364.865 -199.304C348.434 -206.455 306.675 -210.334 271.092 -168.646C226.613 -116.535 235.533 -50.3078 201.396 6.00902C176.201 47.575 94.617 134.781 18.1877 132.863" stroke="url(#paint1_linear_1799_10410)" stroke-width="1.23672"/>
<path opacity="0.157895" d="M389.089 -179.206C373.495 -188.035 332.37 -196.259 292.625 -158.518C242.943 -111.342 244.892 -44.5453 205.055 7.89469C175.653 46.5993 85.4004 124.799 9.59015 114.904" stroke="url(#paint2_linear_1799_10410)" stroke-width="1.23672"/>
<path opacity="0.210526" d="M411.253 -157.478C396.668 -167.889 356.628 -180.365 313.155 -146.986C258.814 -105.262 253.77 -38.6272 208.67 9.36148C175.383 44.7807 77.4508 113.118 3.09027 95.3525" stroke="url(#paint3_linear_1799_10410)" stroke-width="1.23672"/>
<path opacity="0.263158" d="M431.202 -134.336C417.784 -146.215 379.268 -162.809 332.544 -134.156C274.14 -98.3411 262.158 -32.5985 212.289 10.413C175.481 42.1588 70.9428 99.8854 -1.15337 74.4441" stroke="url(#paint4_linear_1799_10410)" stroke-width="1.23672"/>
<path opacity="0.315789" d="M448.794 -110.028C436.691 -123.244 400.121 -143.773 350.658 -120.162C288.83 -90.6476 270.041 -26.5177 215.949 11.0455C176.026 38.77 66.0256 85.2531 -3.01627 52.4151" stroke="url(#paint5_linear_1799_10410)" stroke-width="1.23672"/>
<path opacity="0.368421" d="M463.923 -84.8028C453.268 -99.2114 419.044 -123.451 367.384 -105.139C302.81 -82.2491 277.421 -20.4344 219.699 11.2689C177.096 34.6683 62.8394 69.3986 -2.39174 29.5236" stroke="url(#paint6_linear_1799_10410)" stroke-width="1.23672"/>
<path opacity="0.421053" d="M476.506 -58.9207C467.415 -74.3641 435.912 -102.048 382.621 -89.2365C316.007 -73.222 284.296 -14.3998 223.577 11.0962C178.761 29.9142 61.5004 52.5113 0.794708 6.0362" stroke="url(#paint7_linear_1799_10410)" stroke-width="1.23672"/>
<path opacity="0.473684" d="M486.489 -32.6558C479.063 -48.9648 450.626 -79.7901 396.288 -72.6191C328.365 -63.6553 290.679 -8.47006 227.627 10.5393C181.09 24.5697 62.1094 34.7859 6.59421 -17.78" stroke="url(#paint8_linear_1799_10410)" stroke-width="1.23672"/>
<path opacity="0.526316" d="M493.847 -6.28195C488.166 -23.2779 463.107 -56.9068 408.317 -55.4549C339.829 -53.6401 296.581 -2.69646 231.888 9.61808C184.139 18.7071 64.7423 16.4306 15.0259 -41.6504" stroke="url(#paint9_linear_1799_10410)" stroke-width="1.23672"/>
<path opacity="0.578947" d="M498.58 19.9318C494.706 2.43518 473.3 -33.6289 418.658 -37.9121C350.356 -43.2661 302.02 2.87781 236.394 8.36255C187.956 12.4107 69.4519 -2.33372 26.0789 -65.2933" stroke="url(#paint10_linear_1799_10410)" stroke-width="1.23672"/>
<path opacity="0.631579" d="M500.724 45.7055C498.701 27.8999 481.181 -10.2043 427.287 -20.1756C359.918 -32.6398 307.024 8.19887 241.183 6.79373C192.588 5.75662 76.2744 -21.2941 39.7201 -88.4424" stroke="url(#paint11_linear_1799_10410)" stroke-width="1.23672"/>
<path opacity="0.684211" d="M500.331 70.7759C500.18 52.8563 486.739 13.1296 434.182 -2.42061C368.486 -21.8584 311.612 13.2275 246.279 4.94791C198.059 -1.16308 85.2096 -40.2238 55.8744 -110.825" stroke="url(#paint12_linear_1799_10410)" stroke-width="1.23672"/>
<path opacity="0.736842" d="M497.5 94.8775C499.223 77.0404 490.009 36.1263 439.365 15.1676C376.061 -11.0308 315.831 17.918 251.722 2.85454C204.404 -8.26338 96.256 -58.906 74.4614 -132.187" stroke="url(#paint13_linear_1799_10410)" stroke-width="1.23672"/>
<path opacity="0.789474" d="M492.336 117.761C495.914 100.202 491.026 58.5488 442.851 32.4112C382.632 -0.260839 319.706 22.2337 257.522 0.55152C211.626 -15.4515 109.364 -77.1213 95.3488 -152.279" stroke="url(#paint14_linear_1799_10410)" stroke-width="1.23672"/>
<path opacity="0.842105" d="M484.983 139.194C490.377 122.105 489.871 80.169 444.691 49.1389C388.217 10.3512 323.285 26.145 263.708 -1.91835C219.736 -22.6312 124.481 -94.6524 118.398 -170.863" stroke="url(#paint15_linear_1799_10410)" stroke-width="1.23672"/>
<path opacity="0.894737" d="M475.604 158.949C482.755 142.518 486.634 100.759 444.946 65.1761C392.835 20.6977 326.608 29.6177 270.291 -4.51939C228.725 -29.7151 141.519 -111.299 143.437 -187.728" stroke="url(#paint16_linear_1799_10410)" stroke-width="1.23672"/>
<path opacity="0.947368" d="M464.384 176.829C473.213 161.235 481.437 120.11 443.696 80.3646C396.52 30.6828 329.723 32.6313 277.283 -7.20551C238.579 -36.608 160.379 -126.86 170.274 -202.67" stroke="url(#paint17_linear_1799_10410)" stroke-width="1.23672"/>
<path d="M451.535 192.646C461.946 178.06 474.423 138.021 441.044 94.5479C399.32 40.2071 332.685 35.1627 284.696 -9.93732C249.277 -43.2245 180.939 -141.156 198.705 -215.517" stroke="url(#paint18_linear_1799_10410)" stroke-width="1.23672"/>
</g>
<defs>
<linearGradient id="paint0_linear_1799_10410" x1="328.217" y1="-225.349" x2="43.5971" y2="160.023" gradientUnits="userSpaceOnUse">
<stop offset="0.025" stop-color="#9747FF"/>
<stop offset="1" stop-color="white"/>
</linearGradient>
<linearGradient id="paint1_linear_1799_10410" x1="355.191" y1="-208.153" x2="31.8472" y2="145.357" gradientUnits="userSpaceOnUse">
<stop offset="0.025" stop-color="#9747FF"/>
<stop offset="1" stop-color="white"/>
</linearGradient>
<linearGradient id="paint2_linear_1799_10410" x1="380.393" y1="-189.018" x2="21.8688" y2="128.757" gradientUnits="userSpaceOnUse">
<stop offset="0.025" stop-color="#9747FF"/>
<stop offset="1" stop-color="white"/>
</linearGradient>
<linearGradient id="paint3_linear_1799_10410" x1="403.63" y1="-168.145" x2="13.8536" y2="110.413" gradientUnits="userSpaceOnUse">
<stop offset="0.025" stop-color="#9747FF"/>
<stop offset="1" stop-color="white"/>
</linearGradient>
<linearGradient id="paint4_linear_1799_10410" x1="424.735" y1="-145.742" x2="7.97674" y2="90.5474" gradientUnits="userSpaceOnUse">
<stop offset="0.025" stop-color="#9747FF"/>
<stop offset="1" stop-color="white"/>
</linearGradient>
<linearGradient id="paint5_linear_1799_10410" x1="443.555" y1="-122.047" x2="4.38057" y2="69.3845" gradientUnits="userSpaceOnUse">
<stop offset="0.025" stop-color="#9747FF"/>
<stop offset="1" stop-color="white"/>
</linearGradient>
<linearGradient id="paint6_linear_1799_10410" x1="459.969" y1="-97.3037" x2="3.19078" y2="47.1733" gradientUnits="userSpaceOnUse">
<stop offset="0.025" stop-color="#9747FF"/>
<stop offset="1" stop-color="white"/>
</linearGradient>
<linearGradient id="paint7_linear_1799_10410" x1="473.88" y1="-71.7664" x2="4.50175" y2="24.1727" gradientUnits="userSpaceOnUse">
<stop offset="0.025" stop-color="#9747FF"/>
<stop offset="1" stop-color="white"/>
</linearGradient>
<linearGradient id="paint8_linear_1799_10410" x1="485.22" y1="-45.7056" x2="8.38516" y2="0.644659" gradientUnits="userSpaceOnUse">
<stop offset="0.025" stop-color="#9747FF"/>
<stop offset="1" stop-color="white"/>
</linearGradient>
<linearGradient id="paint9_linear_1799_10410" x1="493.949" y1="-19.3929" x2="14.8811" y2="-23.1394" gradientUnits="userSpaceOnUse">
<stop offset="0.025" stop-color="#9747FF"/>
<stop offset="1" stop-color="white"/>
</linearGradient>
<linearGradient id="paint10_linear_1799_10410" x1="500.052" y1="6.90344" x2="24" y2="-46.8988" gradientUnits="userSpaceOnUse">
<stop offset="0.025" stop-color="#9747FF"/>
<stop offset="1" stop-color="white"/>
</linearGradient>
<linearGradient id="paint11_linear_1799_10410" x1="503.55" y1="32.9024" x2="35.7298" y2="-70.3661" gradientUnits="userSpaceOnUse">
<stop offset="0.025" stop-color="#9747FF"/>
<stop offset="1" stop-color="white"/>
</linearGradient>
<linearGradient id="paint12_linear_1799_10410" x1="504.48" y1="58.3384" x2="50.0166" y2="-93.265" gradientUnits="userSpaceOnUse">
<stop offset="0.025" stop-color="#9747FF"/>
<stop offset="1" stop-color="white"/>
</linearGradient>
<linearGradient id="paint13_linear_1799_10410" x1="502.927" y1="82.9418" x2="66.8001" y2="-115.335" gradientUnits="userSpaceOnUse">
<stop offset="0.025" stop-color="#9747FF"/>
<stop offset="1" stop-color="white"/>
</linearGradient>
<linearGradient id="paint14_linear_1799_10410" x1="498.98" y1="106.458" x2="85.9679" y2="-136.32" gradientUnits="userSpaceOnUse">
<stop offset="0.025" stop-color="#9747FF"/>
<stop offset="1" stop-color="white"/>
</linearGradient>
<linearGradient id="paint15_linear_1799_10410" x1="492.773" y1="128.647" x2="107.401" y2="-155.973" gradientUnits="userSpaceOnUse">
<stop offset="0.025" stop-color="#9747FF"/>
<stop offset="1" stop-color="white"/>
</linearGradient>
<linearGradient id="paint16_linear_1799_10410" x1="484.453" y1="149.275" x2="130.943" y2="-174.069" gradientUnits="userSpaceOnUse">
<stop offset="0.025" stop-color="#9747FF"/>
<stop offset="1" stop-color="white"/>
</linearGradient>
<linearGradient id="paint17_linear_1799_10410" x1="474.196" y1="168.132" x2="156.421" y2="-190.392" gradientUnits="userSpaceOnUse">
<stop offset="0.025" stop-color="#9747FF"/>
<stop offset="1" stop-color="white"/>
</linearGradient>
<linearGradient id="paint18_linear_1799_10410" x1="462.203" y1="185.023" x2="183.645" y2="-204.754" gradientUnits="userSpaceOnUse">
<stop offset="0.025" stop-color="#9747FF"/>
<stop offset="1" stop-color="white"/>
</linearGradient>
</defs>
</svg>
