<svg width="25" height="24" viewBox="0 0 25 24" fill="none" xmlns="http://www.w3.org/2000/svg">
<path fill-rule="evenodd" clip-rule="evenodd" d="M7.59878 1.25004C7.64683 1.25006 7.69559 1.25008 7.74508 1.25008H17.2551C17.3045 1.25008 17.3533 1.25006 17.4014 1.25004C18.4181 1.2496 19.1178 1.24929 19.7072 1.45435C20.8201 1.84161 21.6842 2.73726 22.0547 3.86559L21.3421 4.09954L22.0547 3.86559C22.2507 4.46271 22.2505 5.17254 22.2501 6.22655C22.2501 6.27372 22.2501 6.32158 22.2501 6.37014V20.3743C22.2501 21.8395 20.5231 22.7118 19.3857 21.671C19.3062 21.5983 19.194 21.5983 19.1145 21.671L18.6314 22.1131C17.7032 22.9624 16.2969 22.9624 15.3688 22.1131C15.0138 21.7882 14.4864 21.7882 14.1314 22.1131C13.2032 22.9624 11.7969 22.9624 10.8688 22.1131C10.5138 21.7882 9.98637 21.7882 9.63138 22.1131C8.70319 22.9624 7.29694 22.9624 6.36875 22.1131L5.88566 21.671C5.80618 21.5983 5.69395 21.5983 5.61448 21.671C4.47705 22.7118 2.75007 21.8395 2.75007 20.3743V6.37014C2.75007 6.32158 2.75005 6.27372 2.75003 6.22655C2.74965 5.17255 2.74939 4.46271 2.94545 3.86559C3.31591 2.73726 4.18002 1.84161 5.29298 1.45435C5.8823 1.24929 6.58203 1.2496 7.59878 1.25004ZM7.74508 2.75008C6.524 2.75008 6.1034 2.76057 5.78593 2.87103C5.12655 3.10047 4.59919 3.63728 4.3706 4.3335C4.25951 4.67183 4.25007 5.11796 4.25007 6.37014V20.3743C4.25007 20.4933 4.30999 20.5661 4.38517 20.6009C4.42434 20.619 4.46264 20.6237 4.49456 20.6194C4.5227 20.6156 4.55911 20.6035 4.60185 20.5644C5.25453 19.9671 6.24561 19.9671 6.89828 20.5644L7.38138 21.0065C7.73637 21.3313 8.26377 21.3313 8.61875 21.0065C9.54694 20.1571 10.9532 20.1571 11.8814 21.0065C12.2364 21.3313 12.7638 21.3313 13.1188 21.0065C14.0469 20.1571 15.4532 20.1571 16.3814 21.0065C16.7364 21.3313 17.2638 21.3313 17.6188 21.0065L18.1019 20.5644C18.7545 19.9671 19.7456 19.9671 20.3983 20.5644C20.441 20.6035 20.4774 20.6156 20.5056 20.6194C20.5375 20.6237 20.5758 20.619 20.615 20.6009C20.6901 20.5661 20.7501 20.4934 20.7501 20.3743V6.37014C20.7501 5.11797 20.7406 4.67183 20.6295 4.3335C20.4009 3.63728 19.8736 3.10047 19.2142 2.87103C18.8967 2.76057 18.4761 2.75008 17.2551 2.75008H7.74508ZM6.75007 7.50008C6.75007 7.08587 7.08585 6.75008 7.50007 6.75008H8.00007C8.41428 6.75008 8.75007 7.08587 8.75007 7.50008C8.75007 7.9143 8.41428 8.25008 8.00007 8.25008H7.50007C7.08585 8.25008 6.75007 7.9143 6.75007 7.50008ZM10.2501 7.50008C10.2501 7.08587 10.5859 6.75008 11.0001 6.75008H17.5001C17.9143 6.75008 18.2501 7.08587 18.2501 7.50008C18.2501 7.9143 17.9143 8.25008 17.5001 8.25008H11.0001C10.5859 8.25008 10.2501 7.9143 10.2501 7.50008ZM6.75007 11.0001C6.75007 10.5859 7.08585 10.2501 7.50007 10.2501H8.00007C8.41428 10.2501 8.75007 10.5859 8.75007 11.0001C8.75007 11.4143 8.41428 11.7501 8.00007 11.7501H7.50007C7.08585 11.7501 6.75007 11.4143 6.75007 11.0001ZM10.2501 11.0001C10.2501 10.5859 10.5859 10.2501 11.0001 10.2501H17.5001C17.9143 10.2501 18.2501 10.5859 18.2501 11.0001C18.2501 11.4143 17.9143 11.7501 17.5001 11.7501H11.0001C10.5859 11.7501 10.2501 11.4143 10.2501 11.0001ZM6.75007 14.5001C6.75007 14.0859 7.08585 13.7501 7.50007 13.7501H8.00007C8.41428 13.7501 8.75007 14.0859 8.75007 14.5001C8.75007 14.9143 8.41428 15.2501 8.00007 15.2501H7.50007C7.08585 15.2501 6.75007 14.9143 6.75007 14.5001ZM10.2501 14.5001C10.2501 14.0859 10.5859 13.7501 11.0001 13.7501H17.5001C17.9143 13.7501 18.2501 14.0859 18.2501 14.5001C18.2501 14.9143 17.9143 15.2501 17.5001 15.2501H11.0001C10.5859 15.2501 10.2501 14.9143 10.2501 14.5001Z" fill="#828DA9"/>
</svg>
