<svg width="64" height="64" viewBox="0 0 64 64" fill="none" xmlns="http://www.w3.org/2000/svg">
<path d="M0.2 16C0.2 12.2231 0.200425 9.41056 0.49111 7.24848C0.781021 5.09214 1.35635 3.61279 2.48457 2.48457C3.61279 1.35635 5.09214 0.781021 7.24848 0.49111C9.41056 0.200425 12.2231 0.2 16 0.2H48C51.7769 0.2 54.5894 0.200425 56.7515 0.49111C58.9079 0.781021 60.3872 1.35635 61.5154 2.48457C62.6437 3.61279 63.219 5.09214 63.5089 7.24848C63.7996 9.41056 63.8 12.2231 63.8 16V48C63.8 51.7769 63.7996 54.5894 63.5089 56.7515C63.219 58.9079 62.6437 60.3872 61.5154 61.5154C60.3872 62.6437 58.9079 63.219 56.7515 63.5089C54.5894 63.7996 51.7769 63.8 48 63.8H16C12.2231 63.8 9.41056 63.7996 7.24848 63.5089C5.09214 63.219 3.61279 62.6437 2.48457 61.5154C1.35635 60.3872 0.781021 58.9079 0.49111 56.7515C0.200425 54.5894 0.2 51.7769 0.2 48V16Z" stroke="#E2E4EB" stroke-width="0.4"/>
<path d="M38.2892 22.8898C37.2615 22.7516 35.9068 22.75 34 22.75C33.5858 22.75 33.25 22.4142 33.25 22C33.25 21.5858 33.5858 21.25 34 21.25H34.0564C35.8942 21.25 37.3498 21.25 38.489 21.4031C39.6615 21.5608 40.6104 21.8929 41.3588 22.6412C42.0432 23.3257 42.417 23.9767 42.5924 24.982C42.7501 25.8857 42.7501 27.1045 42.75 28.9037L42.75 29C42.75 29.4142 42.4142 29.75 42 29.75C41.5858 29.75 41.25 29.4142 41.25 29C41.25 27.0809 41.2471 25.9986 41.1147 25.2398C40.9973 24.5667 40.7852 24.189 40.2981 23.7019C39.8749 23.2787 39.2952 23.025 38.2892 22.8898Z" fill="#828DA9"/>
<path d="M22.75 35C22.75 34.5858 22.4142 34.25 22 34.25C21.5858 34.25 21.25 34.5858 21.25 35L21.25 35.0963C21.25 36.8955 21.2499 38.1143 21.4076 39.018C21.583 40.0233 21.9568 40.6743 22.6412 41.3588C23.3896 42.1071 24.3386 42.4392 25.511 42.5969C26.6502 42.75 28.1058 42.75 29.9436 42.75H30C30.4142 42.75 30.75 42.4142 30.75 42C30.75 41.5858 30.4142 41.25 30 41.25C28.0932 41.25 26.7385 41.2484 25.7109 41.1102C24.7048 40.975 24.1251 40.7213 23.7019 40.2981C23.2148 39.811 23.0028 39.4333 22.8853 38.7602C22.7529 38.0014 22.75 36.9191 22.75 35Z" fill="#828DA9"/>
<path d="M42.75 35C42.75 34.5858 42.4142 34.25 42 34.25C41.5858 34.25 41.25 34.5858 41.25 35C41.25 36.9191 41.2471 38.0014 41.1147 38.7602C40.9973 39.4333 40.7852 39.811 40.2981 40.2981C39.8749 40.7213 39.2952 40.975 38.2892 41.1102C37.2615 41.2484 35.9068 41.25 34 41.25C33.5858 41.25 33.25 41.5858 33.25 42C33.25 42.4142 33.5858 42.75 34 42.75H34.0564C35.8942 42.75 37.3498 42.75 38.489 42.5969C39.6615 42.4392 40.6104 42.1071 41.3588 41.3588C42.0432 40.6743 42.417 40.0233 42.5924 39.018C42.7501 38.1143 42.7501 36.8955 42.75 35.0963L42.75 35Z" fill="#828DA9"/>
<path d="M30 21.25H29.9436C28.1058 21.25 26.6502 21.25 25.511 21.4031C24.3386 21.5608 23.3896 21.8929 22.6412 22.6412C21.9568 23.3257 21.583 23.9767 21.4076 24.982C21.2499 25.8857 21.25 27.1045 21.25 28.9036L21.25 29C21.25 29.4142 21.5858 29.75 22 29.75C22.4142 29.75 22.75 29.4142 22.75 29C22.75 27.0809 22.7529 25.9986 22.8853 25.2398C23.0028 24.5667 23.2148 24.189 23.7019 23.7019C24.1251 23.2787 24.7048 23.025 25.7109 22.8898C26.7385 22.7516 28.0932 22.75 30 22.75C30.4142 22.75 30.75 22.4142 30.75 22C30.75 21.5858 30.4142 21.25 30 21.25Z" fill="#828DA9"/>
<path fill-rule="evenodd" clip-rule="evenodd" d="M32 29.25C30.4812 29.25 29.25 30.4812 29.25 32C29.25 33.5188 30.4812 34.75 32 34.75C33.5188 34.75 34.75 33.5188 34.75 32C34.75 30.4812 33.5188 29.25 32 29.25ZM30.75 32C30.75 31.3096 31.3096 30.75 32 30.75C32.6904 30.75 33.25 31.3096 33.25 32C33.25 32.6904 32.6904 33.25 32 33.25C31.3096 33.25 30.75 32.6904 30.75 32Z" fill="#828DA9"/>
<path fill-rule="evenodd" clip-rule="evenodd" d="M25.3244 29.4505C26.5943 27.9774 28.7764 26.25 32 26.25C35.2236 26.25 37.4057 27.9774 38.6756 29.4505L38.7079 29.4879C38.9789 29.802 39.2576 30.125 39.4491 30.5121C39.6632 30.9448 39.75 31.4094 39.75 32C39.75 32.5906 39.6632 33.0552 39.4491 33.4879C39.2576 33.875 38.9789 34.198 38.7079 34.5121L38.6756 34.5495C37.4057 36.0226 35.2236 37.75 32 37.75C28.7764 37.75 26.5943 36.0226 25.3244 34.5495L25.2921 34.5121C25.0211 34.198 24.7424 33.875 24.5509 33.4879C24.3368 33.0552 24.25 32.5906 24.25 32C24.25 31.4094 24.3368 30.9448 24.5509 30.5121C24.7424 30.125 25.0211 29.802 25.2921 29.4879L25.3244 29.4505ZM32 27.75C29.369 27.75 27.5664 29.1471 26.4605 30.4299C26.1465 30.7941 25.9937 30.9785 25.8953 31.1773C25.812 31.3457 25.75 31.566 25.75 32C25.75 32.434 25.812 32.6543 25.8953 32.8227C25.9937 33.0215 26.1465 33.2059 26.4605 33.5701C27.5664 34.8529 29.369 36.25 32 36.25C34.631 36.25 36.4336 34.8529 37.5395 33.5701C37.8535 33.2059 38.0063 33.0215 38.1047 32.8227C38.188 32.6543 38.25 32.434 38.25 32C38.25 31.566 38.188 31.3457 38.1047 31.1773C38.0063 30.9785 37.8535 30.7941 37.5395 30.4299C36.4336 29.1471 34.631 27.75 32 27.75Z" fill="#828DA9"/>
</svg>
