<svg width="25" height="24" viewBox="0 0 25 24" fill="none" xmlns="http://www.w3.org/2000/svg">
<path fill-rule="evenodd" clip-rule="evenodd" d="M10.6936 3.25H14.8064C16.6442 3.24998 18.0998 3.24997 19.239 3.40314C20.4114 3.56076 21.3604 3.89288 22.1088 4.64124C22.8571 5.38961 23.1892 6.33856 23.3469 7.51098C23.4373 8.18385 23.4744 8.9671 23.4895 9.87428C23.4964 9.91516 23.5 9.95716 23.5 10C23.5 10.0353 23.4976 10.0699 23.4929 10.1039C23.5 10.6696 23.5 11.2818 23.5 11.9436V12.0564C23.5 13.8942 23.5 15.3498 23.3469 16.489C23.1892 17.6614 22.8571 18.6104 22.1088 19.3588C21.3604 20.1071 20.4114 20.4392 19.239 20.5969C18.0998 20.75 16.6442 20.75 14.8064 20.75H10.6936C8.85583 20.75 7.40019 20.75 6.26098 20.5969C5.08856 20.4392 4.13961 20.1071 3.39124 19.3588C2.64288 18.6104 2.31076 17.6614 2.15314 16.489C1.99997 15.3498 1.99998 13.8942 2 12.0564V11.9436C1.99999 11.2818 1.99999 10.6696 2.00714 10.1039C2.00243 10.0699 2 10.0352 2 10C2 9.95716 2.00359 9.91517 2.01049 9.87429C2.02564 8.96711 2.06267 8.18385 2.15314 7.51098C2.31076 6.33856 2.64288 5.38961 3.39124 4.64124C4.13961 3.89288 5.08856 3.56076 6.26098 3.40314C7.40019 3.24997 8.85582 3.24998 10.6936 3.25ZM3.50199 10.75C3.50009 11.1384 3.5 11.5541 3.5 12C3.5 13.9068 3.50159 15.2615 3.63976 16.2892C3.77502 17.2952 4.02869 17.8749 4.4519 18.2981C4.87511 18.7213 5.45476 18.975 6.46085 19.1102C7.48851 19.2484 8.84318 19.25 10.75 19.25H14.75C16.6568 19.25 18.0115 19.2484 19.0392 19.1102C20.0452 18.975 20.6249 18.7213 21.0481 18.2981C21.4713 17.8749 21.725 17.2952 21.8602 16.2892C21.9984 15.2615 22 13.9068 22 12C22 11.5541 21.9999 11.1384 21.998 10.75H3.50199ZM21.9739 9.25H3.52607C3.54564 8.66327 3.57987 8.15634 3.63976 7.71085C3.77502 6.70476 4.02869 6.12511 4.4519 5.7019C4.87511 5.27869 5.45476 5.02502 6.46085 4.88976C7.48851 4.75159 8.84318 4.75 10.75 4.75H14.75C16.6568 4.75 18.0115 4.75159 19.0392 4.88976C20.0452 5.02502 20.6249 5.27869 21.0481 5.7019C21.4713 6.12511 21.725 6.70476 21.8602 7.71085C21.9201 8.15634 21.9544 8.66327 21.9739 9.25ZM6 16C6 15.5858 6.33579 15.25 6.75 15.25H10.75C11.1642 15.25 11.5 15.5858 11.5 16C11.5 16.4142 11.1642 16.75 10.75 16.75H6.75C6.33579 16.75 6 16.4142 6 16ZM12.5 16C12.5 15.5858 12.8358 15.25 13.25 15.25H14.75C15.1642 15.25 15.5 15.5858 15.5 16C15.5 16.4142 15.1642 16.75 14.75 16.75H13.25C12.8358 16.75 12.5 16.4142 12.5 16Z" fill="#828DA9"/>
</svg>
