<svg width="189" height="24" viewBox="0 0 189 24" fill="none" xmlns="http://www.w3.org/2000/svg">
    <rect width="24" height="24" rx="12" fill="#C2F6AE"/>
    <path fill-rule="evenodd" clip-rule="evenodd" d="M15.4881 4.43057C15.8026 4.70014 15.839 5.17361 15.5694 5.48811L9.98781 12L15.5694 18.5119C15.839 18.8264 15.8026 19.2999 15.4881 19.5695C15.1736 19.839 14.7001 19.8026 14.4306 19.4881L8.43056 12.4881C8.18981 12.2072 8.18981 11.7928 8.43056 11.5119L14.4306 4.51192C14.7001 4.19743 15.1736 4.161 15.4881 4.43057Z" fill="#828DA9"/>
    <path d="M37.368 16.564C35.4373 16.564 34.1147 16.0973 33.4 15.164C32.6907 14.2307 32.336 12.868 32.336 11.076C32.336 9.27867 32.6907 7.91867 33.4 6.996C34.1147 6.07333 35.4347 5.612 37.36 5.612C39.2907 5.612 40.5787 6.052 41.224 6.932C41.8693 7.812 42.192 8.85467 42.192 10.06H39.44C39.44 9.02 39.2587 8.32667 38.896 7.98C38.5387 7.63333 38.0213 7.46 37.344 7.46C36.6507 7.46 36.1013 7.66267 35.696 8.068C35.2907 8.468 35.088 9.47067 35.088 11.076C35.088 12.692 35.2907 13.7027 35.696 14.108C36.1067 14.5133 36.656 14.716 37.344 14.716C38.016 14.716 38.5333 14.5373 38.896 14.18C39.2587 13.8173 39.44 13.1293 39.44 12.116H42.192C42.192 13.2893 41.8693 14.324 41.224 15.22C40.5787 16.116 39.2933 16.564 37.368 16.564ZM43.563 16.5V3.94H46.259V16.5H43.563ZM49.795 16.5V11.476C49.795 10.4253 49.6617 9.71333 49.395 9.34C49.1337 8.96667 48.7363 8.78 48.203 8.78C47.643 8.78 47.171 9.00933 46.787 9.468C46.403 9.92133 46.211 10.5107 46.211 11.236L44.907 10.628C44.907 9.79067 45.3017 8.96667 46.091 8.156C46.8857 7.34 47.9283 6.932 49.219 6.932C50.4403 6.932 51.2883 7.332 51.763 8.132C52.2377 8.932 52.475 10.004 52.475 11.348V16.5H49.795ZM57.567 16.604C57.1937 16.604 56.8257 16.5827 56.463 16.54C56.1057 16.4973 55.7697 16.4173 55.455 16.3C55.1403 16.1773 54.863 16.0067 54.623 15.788C54.383 15.5693 54.1937 15.2867 54.055 14.94C53.9217 14.5933 53.855 14.1693 53.855 13.668C53.855 13.1827 53.9217 12.7747 54.055 12.444C54.1937 12.108 54.3803 11.8333 54.615 11.62C54.8497 11.4067 55.1217 11.2413 55.431 11.124C55.7403 11.0067 56.071 10.9267 56.423 10.884C56.775 10.836 57.1323 10.812 57.495 10.812H60.487V10.444C60.487 10.012 60.4017 9.67067 60.231 9.42C60.0657 9.16933 59.8363 8.99333 59.543 8.892C59.255 8.78533 58.9297 8.732 58.567 8.732C58.2363 8.732 57.935 8.78267 57.663 8.884C57.391 8.98533 57.1617 9.15067 56.975 9.38C56.7937 9.60933 56.6657 9.916 56.591 10.3L53.959 9.564C54.055 9.08933 54.231 8.68667 54.487 8.356C54.7483 8.02 55.079 7.748 55.479 7.54C55.8843 7.32667 56.3457 7.172 56.863 7.076C57.3857 6.97467 57.951 6.924 58.559 6.924C59.5137 6.924 60.3377 7.03867 61.031 7.268C61.7243 7.49733 62.2577 7.87867 62.631 8.412C63.0043 8.94533 63.191 9.67067 63.191 10.588V16.5H60.951L60.719 15.412C60.655 15.556 60.535 15.7 60.359 15.844C60.183 15.9827 59.9563 16.1107 59.679 16.228C59.407 16.34 59.0923 16.4307 58.735 16.5C58.383 16.5693 57.9937 16.604 57.567 16.604ZM58.175 14.916C58.4363 14.916 58.695 14.892 58.951 14.844C59.2123 14.796 59.4497 14.7267 59.663 14.636C59.8817 14.5453 60.063 14.4387 60.207 14.316C60.351 14.188 60.4443 14.0493 60.487 13.9L60.551 12.3H58.127C57.9137 12.3 57.7137 12.316 57.527 12.348C57.3403 12.3747 57.175 12.4333 57.031 12.524C56.8923 12.6147 56.783 12.7453 56.703 12.916C56.623 13.0867 56.583 13.3107 56.583 13.588C56.583 13.8707 56.6257 14.1 56.711 14.276C56.8017 14.4467 56.9217 14.58 57.071 14.676C57.2257 14.7667 57.3963 14.8307 57.583 14.868C57.775 14.9 57.9723 14.916 58.175 14.916ZM64.7036 16.5V7.02H66.7836L67.3916 8.62V16.5H64.7036ZM70.8876 16.5V11.476C70.8876 10.4253 70.7596 9.71333 70.5036 9.34C70.2476 8.96667 69.853 8.78 69.3196 8.78C68.7596 8.78 68.2823 9.00933 67.8876 9.468C67.4983 9.92133 67.3036 10.5107 67.3036 11.236L65.9996 10.628C65.9996 9.79067 66.3996 8.96667 67.1996 8.156C67.9996 7.34 69.045 6.932 70.3356 6.932C71.557 6.932 72.4023 7.348 72.8716 8.18C73.341 9.00667 73.5756 10.092 73.5756 11.436V16.5H70.8876ZM79.5408 20.252C78.3888 20.252 77.3914 20.004 76.5488 19.508C75.7061 19.0173 75.2314 18.1693 75.1248 16.964H77.7488C77.7808 17.332 77.8768 17.636 78.0368 17.876C78.2021 18.116 78.4208 18.2867 78.6927 18.388C78.9701 18.4947 79.2821 18.548 79.6288 18.548C80.2101 18.548 80.6794 18.412 81.0368 18.14C81.3941 17.868 81.5728 17.244 81.5728 16.268V8.884L82.3008 7.02H84.2768V15.988C84.2768 17.092 84.0554 17.9533 83.6128 18.572C83.1701 19.196 82.6261 19.6307 81.9808 19.876C81.3354 20.1267 80.5221 20.252 79.5408 20.252ZM78.6048 16.564C77.3194 16.564 76.3808 16.1347 75.7888 15.276C75.1968 14.4173 74.9008 13.2387 74.9008 11.74C74.9008 10.236 75.1914 9.06 75.7728 8.212C76.3541 7.364 77.2874 6.94 78.5728 6.94C79.7088 6.94 80.6901 7.212 81.5168 7.756C82.3488 8.3 82.7648 8.892 82.7648 9.532L81.5728 10.636C81.5728 10.1187 81.3674 9.68133 80.9568 9.324C80.5514 8.96133 80.0714 8.78 79.5168 8.78C78.9141 8.78 78.4474 8.98 78.1168 9.38C77.7861 9.77467 77.6208 10.564 77.6208 11.748C77.6208 12.9427 77.7861 13.7373 78.1168 14.132C78.4474 14.5267 78.9141 14.724 79.5168 14.724C80.0714 14.724 80.5514 14.5453 80.9568 14.188C81.3674 13.8307 81.5728 13.388 81.5728 12.86L82.7648 14.036C82.7648 14.6813 82.3541 15.2653 81.5328 15.788C80.7168 16.3053 79.7408 16.564 78.6048 16.564ZM90.5068 16.596C88.7148 16.596 87.4588 16.164 86.7388 15.3C86.0241 14.4307 85.6668 13.2493 85.6668 11.756C85.6668 10.2253 86.0268 9.03867 86.7468 8.196C87.4668 7.348 88.7041 6.924 90.4588 6.924C92.2561 6.924 93.4988 7.35333 94.1868 8.212C94.8801 9.07067 95.2268 10.2493 95.2268 11.748C95.2268 12.0467 95.2081 12.3133 95.1708 12.548H88.0188V10.924H92.6588L92.5628 11.164C92.5628 10.252 92.3761 9.60667 92.0028 9.228C91.6348 8.84933 91.1201 8.66 90.4588 8.66C89.8081 8.66 89.2801 8.86533 88.8748 9.276C88.4694 9.68667 88.2668 10.5133 88.2668 11.756C88.2668 12.972 88.4668 13.7933 88.8668 14.22C89.2721 14.6467 89.8188 14.86 90.5068 14.86V16.596ZM90.5068 14.86C90.9068 14.86 91.2374 14.8067 91.4988 14.7C91.7601 14.5933 91.9681 14.4147 92.1228 14.164C92.2828 13.9133 92.4188 13.6173 92.5308 13.276L94.9388 13.956C94.8214 14.58 94.5654 15.084 94.1708 15.468C93.7814 15.852 93.3094 16.1373 92.7548 16.324C92.2054 16.5053 91.4561 16.596 90.5068 16.596V14.86ZM100.601 16.5V5.7H106.425C107.774 5.7 108.662 6.08133 109.089 6.844C109.515 7.60667 109.729 8.54533 109.729 9.66C109.729 10.7747 109.515 11.7133 109.089 12.476C108.662 13.2387 107.774 13.62 106.425 13.62H103.329V16.5H100.601ZM103.329 11.772H105.609C106.121 11.772 106.483 11.6093 106.697 11.284C106.915 10.9587 107.025 10.4173 107.025 9.66C107.025 8.908 106.915 8.36933 106.697 8.044C106.483 7.71333 106.121 7.548 105.609 7.548H103.329V11.772ZM114.458 16.604C114.084 16.604 113.716 16.5827 113.354 16.54C112.996 16.4973 112.66 16.4173 112.346 16.3C112.031 16.1773 111.754 16.0067 111.514 15.788C111.274 15.5693 111.084 15.2867 110.946 14.94C110.812 14.5933 110.746 14.1693 110.746 13.668C110.746 13.1827 110.812 12.7747 110.946 12.444C111.084 12.108 111.271 11.8333 111.506 11.62C111.74 11.4067 112.012 11.2413 112.322 11.124C112.631 11.0067 112.962 10.9267 113.314 10.884C113.666 10.836 114.023 10.812 114.386 10.812H117.378V10.444C117.378 10.012 117.292 9.67067 117.122 9.42C116.956 9.16933 116.727 8.99333 116.434 8.892C116.146 8.78533 115.82 8.732 115.458 8.732C115.127 8.732 114.826 8.78267 114.554 8.884C114.282 8.98533 114.052 9.15067 113.866 9.38C113.684 9.60933 113.556 9.916 113.482 10.3L110.85 9.564C110.946 9.08933 111.122 8.68667 111.378 8.356C111.639 8.02 111.97 7.748 112.37 7.54C112.775 7.32667 113.236 7.172 113.754 7.076C114.276 6.97467 114.842 6.924 115.45 6.924C116.404 6.924 117.228 7.03867 117.922 7.268C118.615 7.49733 119.148 7.87867 119.522 8.412C119.895 8.94533 120.082 9.67067 120.082 10.588V16.5H117.842L117.61 15.412C117.546 15.556 117.426 15.7 117.25 15.844C117.074 15.9827 116.847 16.1107 116.57 16.228C116.298 16.34 115.983 16.4307 115.626 16.5C115.274 16.5693 114.884 16.604 114.458 16.604ZM115.066 14.916C115.327 14.916 115.586 14.892 115.842 14.844C116.103 14.796 116.34 14.7267 116.554 14.636C116.772 14.5453 116.954 14.4387 117.098 14.316C117.242 14.188 117.335 14.0493 117.378 13.9L117.442 12.3H115.018C114.804 12.3 114.604 12.316 114.418 12.348C114.231 12.3747 114.066 12.4333 113.922 12.524C113.783 12.6147 113.674 12.7453 113.594 12.916C113.514 13.0867 113.474 13.3107 113.474 13.588C113.474 13.8707 113.516 14.1 113.602 14.276C113.692 14.4467 113.812 14.58 113.962 14.676C114.116 14.7667 114.287 14.8307 114.474 14.868C114.666 14.9 114.863 14.916 115.066 14.916ZM126.282 16.58C125.034 16.58 123.984 16.3907 123.13 16.012C122.277 15.6333 121.725 14.9827 121.474 14.06L123.826 13.196C123.949 13.74 124.226 14.148 124.658 14.42C125.09 14.692 125.645 14.828 126.322 14.828C126.882 14.828 127.317 14.7427 127.626 14.572C127.936 14.396 128.09 14.1533 128.09 13.844C128.09 13.4227 127.813 13.1533 127.258 13.036C126.704 12.9187 125.994 12.7907 125.13 12.652C124.048 12.4867 123.178 12.1907 122.522 11.764C121.872 11.332 121.546 10.636 121.546 9.676C121.546 8.73733 121.949 8.04667 122.754 7.604C123.56 7.16133 124.616 6.94 125.922 6.94C127.197 6.94 128.24 7.12667 129.05 7.5C129.861 7.868 130.381 8.50267 130.61 9.404L128.25 10.252C128.128 9.76667 127.858 9.38267 127.442 9.1C127.026 8.81733 126.509 8.676 125.89 8.676C125.309 8.676 124.88 8.764 124.602 8.94C124.33 9.116 124.194 9.35867 124.194 9.668C124.194 10.0733 124.458 10.3373 124.986 10.46C125.514 10.5773 126.192 10.7 127.018 10.828C128.08 10.9827 128.965 11.252 129.674 11.636C130.389 12.0147 130.746 12.684 130.746 13.644C130.746 14.6947 130.36 15.4467 129.586 15.9C128.813 16.3533 127.712 16.58 126.282 16.58ZM136.767 16.58C135.519 16.58 134.468 16.3907 133.615 16.012C132.761 15.6333 132.209 14.9827 131.959 14.06L134.311 13.196C134.433 13.74 134.711 14.148 135.143 14.42C135.575 14.692 136.129 14.828 136.807 14.828C137.367 14.828 137.801 14.7427 138.111 14.572C138.42 14.396 138.575 14.1533 138.575 13.844C138.575 13.4227 138.297 13.1533 137.743 13.036C137.188 12.9187 136.479 12.7907 135.615 12.652C134.532 12.4867 133.663 12.1907 133.007 11.764C132.356 11.332 132.031 10.636 132.031 9.676C132.031 8.73733 132.433 8.04667 133.239 7.604C134.044 7.16133 135.1 6.94 136.407 6.94C137.681 6.94 138.724 7.12667 139.535 7.5C140.345 7.868 140.865 8.50267 141.095 9.404L138.735 10.252C138.612 9.76667 138.343 9.38267 137.927 9.1C137.511 8.81733 136.993 8.676 136.375 8.676C135.793 8.676 135.364 8.764 135.087 8.94C134.815 9.116 134.679 9.35867 134.679 9.668C134.679 10.0733 134.943 10.3373 135.471 10.46C135.999 10.5773 136.676 10.7 137.503 10.828C138.564 10.9827 139.449 11.252 140.159 11.636C140.873 12.0147 141.231 12.684 141.231 13.644C141.231 14.6947 140.844 15.4467 140.071 15.9C139.297 16.3533 138.196 16.58 136.767 16.58ZM144.355 16.5L142.291 7.02H145.075L146.315 14.884H146.235L148.059 7.02H150.035L147.963 16.5H144.355ZM150.803 16.5L148.723 7.02H150.747L152.547 14.868H152.467L153.651 7.02H156.435L154.379 16.5H150.803ZM161.967 16.58C160.228 16.58 158.988 16.1613 158.247 15.324C157.506 14.4813 157.135 13.2787 157.135 11.716C157.135 10.1587 157.506 8.96933 158.247 8.148C158.988 7.32133 160.228 6.908 161.967 6.908C163.7 6.908 164.935 7.32133 165.671 8.148C166.412 8.96933 166.783 10.1587 166.783 11.716C166.783 13.2787 166.412 14.4813 165.671 15.324C164.935 16.1613 163.7 16.58 161.967 16.58ZM161.967 14.756C162.586 14.756 163.095 14.5587 163.495 14.164C163.895 13.7693 164.095 12.9587 164.095 11.732C164.095 10.5107 163.895 9.70533 163.495 9.316C163.095 8.92667 162.586 8.732 161.967 8.732C161.343 8.732 160.831 8.92667 160.431 9.316C160.031 9.70533 159.831 10.5107 159.831 11.732C159.831 12.9587 160.031 13.7693 160.431 14.164C160.831 14.5587 161.343 14.756 161.967 14.756ZM174.158 11.692C174.158 10.4973 174.022 9.716 173.75 9.348C173.478 8.97467 173.1 8.788 172.614 8.788C172.049 8.788 171.601 8.98533 171.27 9.38C170.94 9.76933 170.774 10.2173 170.774 10.724L169.742 10.108C169.742 9.212 170.1 8.46 170.814 7.852C171.529 7.23867 172.465 6.932 173.622 6.932C174.876 6.932 175.726 7.31867 176.174 8.092C176.622 8.86 176.846 10.06 176.846 11.692H174.158ZM168.094 16.5V7.02H170.174L170.782 8.66V16.5H168.094ZM184.858 16.5L184.682 15.084V3.94H187.362V16.5H184.858ZM181.682 16.564C180.397 16.564 179.463 16.1347 178.882 15.276C178.301 14.4173 178.01 13.2387 178.01 11.74C178.01 10.236 178.301 9.06 178.882 8.212C179.463 7.364 180.397 6.94 181.682 6.94C182.818 6.94 183.799 7.204 184.626 7.732C185.458 8.25467 185.874 8.836 185.874 9.476L184.682 10.636C184.682 10.1187 184.477 9.68133 184.066 9.324C183.661 8.96133 183.181 8.78 182.626 8.78C182.023 8.78 181.557 8.98 181.226 9.38C180.895 9.77467 180.73 10.564 180.73 11.748C180.73 12.9427 180.895 13.7373 181.226 14.132C181.557 14.5267 182.023 14.724 182.626 14.724C183.181 14.724 183.661 14.5453 184.066 14.188C184.477 13.8307 184.682 13.388 184.682 12.86L185.874 14.036C185.874 14.676 185.458 15.2573 184.626 15.78C183.799 16.3027 182.818 16.564 181.682 16.564Z" fill="#050505"/>
</svg>
