<svg width="256" height="24" viewBox="0 0 256 24" fill="none" xmlns="http://www.w3.org/2000/svg">
<rect width="24" height="24" rx="12" fill="#C2F6AE"/>
<path fill-rule="evenodd" clip-rule="evenodd" d="M15.4881 4.43057C15.8026 4.70014 15.839 5.17361 15.5694 5.48811L9.98781 12L15.5694 18.5119C15.839 18.8264 15.8026 19.2999 15.4881 19.5695C15.1736 19.839 14.7001 19.8026 14.4306 19.4881L8.43056 12.4881C8.18981 12.2072 8.18981 11.7928 8.43056 11.5119L14.4306 4.51192C14.7001 4.19743 15.1736 4.161 15.4881 4.43057Z" fill="#828DA9"/>
<path d="M37.368 16.564C35.4373 16.564 34.1147 16.0973 33.4 15.164C32.6907 14.2307 32.336 12.868 32.336 11.076C32.336 9.27867 32.6907 7.91867 33.4 6.996C34.1147 6.07333 35.4347 5.612 37.36 5.612C39.2907 5.612 40.5787 6.052 41.224 6.932C41.8693 7.812 42.192 8.85467 42.192 10.06H39.44C39.44 9.02 39.2587 8.32667 38.896 7.98C38.5387 7.63333 38.0213 7.46 37.344 7.46C36.6507 7.46 36.1013 7.66267 35.696 8.068C35.2907 8.468 35.088 9.47067 35.088 11.076C35.088 12.692 35.2907 13.7027 35.696 14.108C36.1067 14.5133 36.656 14.716 37.344 14.716C38.016 14.716 38.5333 14.5373 38.896 14.18C39.2587 13.8173 39.44 13.1293 39.44 12.116H42.192C42.192 13.2893 41.8693 14.324 41.224 15.22C40.5787 16.116 39.2933 16.564 37.368 16.564ZM43.563 16.5V3.94H46.259V16.5H43.563ZM49.795 16.5V11.476C49.795 10.4253 49.6617 9.71333 49.395 9.34C49.1337 8.96667 48.7363 8.78 48.203 8.78C47.643 8.78 47.171 9.00933 46.787 9.468C46.403 9.92133 46.211 10.5107 46.211 11.236L44.907 10.628C44.907 9.79067 45.3017 8.96667 46.091 8.156C46.8857 7.34 47.9283 6.932 49.219 6.932C50.4403 6.932 51.2883 7.332 51.763 8.132C52.2377 8.932 52.475 10.004 52.475 11.348V16.5H49.795ZM57.567 16.604C57.1937 16.604 56.8257 16.5827 56.463 16.54C56.1057 16.4973 55.7697 16.4173 55.455 16.3C55.1403 16.1773 54.863 16.0067 54.623 15.788C54.383 15.5693 54.1937 15.2867 54.055 14.94C53.9217 14.5933 53.855 14.1693 53.855 13.668C53.855 13.1827 53.9217 12.7747 54.055 12.444C54.1937 12.108 54.3803 11.8333 54.615 11.62C54.8497 11.4067 55.1217 11.2413 55.431 11.124C55.7403 11.0067 56.071 10.9267 56.423 10.884C56.775 10.836 57.1323 10.812 57.495 10.812H60.487V10.444C60.487 10.012 60.4017 9.67067 60.231 9.42C60.0657 9.16933 59.8363 8.99333 59.543 8.892C59.255 8.78533 58.9297 8.732 58.567 8.732C58.2363 8.732 57.935 8.78267 57.663 8.884C57.391 8.98533 57.1617 9.15067 56.975 9.38C56.7937 9.60933 56.6657 9.916 56.591 10.3L53.959 9.564C54.055 9.08933 54.231 8.68667 54.487 8.356C54.7483 8.02 55.079 7.748 55.479 7.54C55.8843 7.32667 56.3457 7.172 56.863 7.076C57.3857 6.97467 57.951 6.924 58.559 6.924C59.5137 6.924 60.3377 7.03867 61.031 7.268C61.7243 7.49733 62.2577 7.87867 62.631 8.412C63.0043 8.94533 63.191 9.67067 63.191 10.588V16.5H60.951L60.719 15.412C60.655 15.556 60.535 15.7 60.359 15.844C60.183 15.9827 59.9563 16.1107 59.679 16.228C59.407 16.34 59.0923 16.4307 58.735 16.5C58.383 16.5693 57.9937 16.604 57.567 16.604ZM58.175 14.916C58.4363 14.916 58.695 14.892 58.951 14.844C59.2123 14.796 59.4497 14.7267 59.663 14.636C59.8817 14.5453 60.063 14.4387 60.207 14.316C60.351 14.188 60.4443 14.0493 60.487 13.9L60.551 12.3H58.127C57.9137 12.3 57.7137 12.316 57.527 12.348C57.3403 12.3747 57.175 12.4333 57.031 12.524C56.8923 12.6147 56.783 12.7453 56.703 12.916C56.623 13.0867 56.583 13.3107 56.583 13.588C56.583 13.8707 56.6257 14.1 56.711 14.276C56.8017 14.4467 56.9217 14.58 57.071 14.676C57.2257 14.7667 57.3963 14.8307 57.583 14.868C57.775 14.9 57.9723 14.916 58.175 14.916ZM64.7036 16.5V7.02H66.7836L67.3916 8.62V16.5H64.7036ZM70.8876 16.5V11.476C70.8876 10.4253 70.7596 9.71333 70.5036 9.34C70.2476 8.96667 69.853 8.78 69.3196 8.78C68.7596 8.78 68.2823 9.00933 67.8876 9.468C67.4983 9.92133 67.3036 10.5107 67.3036 11.236L65.9996 10.628C65.9996 9.79067 66.3996 8.96667 67.1996 8.156C67.9996 7.34 69.045 6.932 70.3356 6.932C71.557 6.932 72.4023 7.348 72.8716 8.18C73.341 9.00667 73.5756 10.092 73.5756 11.436V16.5H70.8876ZM79.5408 20.252C78.3888 20.252 77.3914 20.004 76.5488 19.508C75.7061 19.0173 75.2314 18.1693 75.1248 16.964H77.7488C77.7808 17.332 77.8768 17.636 78.0368 17.876C78.2021 18.116 78.4208 18.2867 78.6927 18.388C78.9701 18.4947 79.2821 18.548 79.6288 18.548C80.2101 18.548 80.6794 18.412 81.0368 18.14C81.3941 17.868 81.5728 17.244 81.5728 16.268V8.884L82.3008 7.02H84.2768V15.988C84.2768 17.092 84.0554 17.9533 83.6128 18.572C83.1701 19.196 82.6261 19.6307 81.9808 19.876C81.3354 20.1267 80.5221 20.252 79.5408 20.252ZM78.6048 16.564C77.3194 16.564 76.3808 16.1347 75.7888 15.276C75.1968 14.4173 74.9008 13.2387 74.9008 11.74C74.9008 10.236 75.1914 9.06 75.7728 8.212C76.3541 7.364 77.2874 6.94 78.5728 6.94C79.7088 6.94 80.6901 7.212 81.5168 7.756C82.3488 8.3 82.7648 8.892 82.7648 9.532L81.5728 10.636C81.5728 10.1187 81.3674 9.68133 80.9568 9.324C80.5514 8.96133 80.0714 8.78 79.5168 8.78C78.9141 8.78 78.4474 8.98 78.1168 9.38C77.7861 9.77467 77.6208 10.564 77.6208 11.748C77.6208 12.9427 77.7861 13.7373 78.1168 14.132C78.4474 14.5267 78.9141 14.724 79.5168 14.724C80.0714 14.724 80.5514 14.5453 80.9568 14.188C81.3674 13.8307 81.5728 13.388 81.5728 12.86L82.7648 14.036C82.7648 14.6813 82.3541 15.2653 81.5328 15.788C80.7168 16.3053 79.7408 16.564 78.6048 16.564ZM90.5068 16.596C88.7148 16.596 87.4588 16.164 86.7388 15.3C86.0241 14.4307 85.6668 13.2493 85.6668 11.756C85.6668 10.2253 86.0268 9.03867 86.7468 8.196C87.4668 7.348 88.7041 6.924 90.4588 6.924C92.2561 6.924 93.4988 7.35333 94.1868 8.212C94.8801 9.07067 95.2268 10.2493 95.2268 11.748C95.2268 12.0467 95.2081 12.3133 95.1708 12.548H88.0188V10.924H92.6588L92.5628 11.164C92.5628 10.252 92.3761 9.60667 92.0028 9.228C91.6348 8.84933 91.1201 8.66 90.4588 8.66C89.8081 8.66 89.2801 8.86533 88.8748 9.276C88.4694 9.68667 88.2668 10.5133 88.2668 11.756C88.2668 12.972 88.4668 13.7933 88.8668 14.22C89.2721 14.6467 89.8188 14.86 90.5068 14.86V16.596ZM90.5068 14.86C90.9068 14.86 91.2374 14.8067 91.4988 14.7C91.7601 14.5933 91.9681 14.4147 92.1228 14.164C92.2828 13.9133 92.4188 13.6173 92.5308 13.276L94.9388 13.956C94.8214 14.58 94.5654 15.084 94.1708 15.468C93.7814 15.852 93.3094 16.1373 92.7548 16.324C92.2054 16.5053 91.4561 16.596 90.5068 16.596V14.86ZM105.217 16.5V14.14H100.321V12.38L103.921 5.7H107.905V12.404H109.249V14.14H107.905V16.5H105.217ZM103.009 12.404H105.217V7.428L105.393 7.412L103.009 12.404ZM110.214 13.556V11.788H116.414V13.556H110.214ZM117.726 16.5V5.7H123.27C124.768 5.7 125.816 6.1 126.414 6.9C127.011 7.7 127.31 9.09733 127.31 11.092C127.31 13.092 127.011 14.4947 126.414 15.3C125.816 16.1 124.768 16.5 123.27 16.5H117.726ZM120.446 14.652H122.534C123.238 14.652 123.755 14.4627 124.086 14.084C124.422 13.7 124.59 12.7027 124.59 11.092C124.59 9.492 124.422 8.50267 124.086 8.124C123.755 7.74 123.238 7.548 122.534 7.548H120.446V14.652ZM128.74 16.5V7.012H131.436V16.5H128.74ZM128.74 4.164H131.436V6.044H128.74V4.164ZM137.572 20.252C136.42 20.252 135.423 20.004 134.58 19.508C133.737 19.0173 133.263 18.1693 133.156 16.964H135.78C135.812 17.332 135.908 17.636 136.068 17.876C136.233 18.116 136.452 18.2867 136.724 18.388C137.001 18.4947 137.313 18.548 137.66 18.548C138.241 18.548 138.711 18.412 139.068 18.14C139.425 17.868 139.604 17.244 139.604 16.268V8.884L140.332 7.02H142.308V15.988C142.308 17.092 142.087 17.9533 141.644 18.572C141.201 19.196 140.657 19.6307 140.012 19.876C139.367 20.1267 138.553 20.252 137.572 20.252ZM136.636 16.564C135.351 16.564 134.412 16.1347 133.82 15.276C133.228 14.4173 132.932 13.2387 132.932 11.74C132.932 10.236 133.223 9.06 133.804 8.212C134.385 7.364 135.319 6.94 136.604 6.94C137.74 6.94 138.721 7.212 139.548 7.756C140.38 8.3 140.796 8.892 140.796 9.532L139.604 10.636C139.604 10.1187 139.399 9.68133 138.988 9.324C138.583 8.96133 138.103 8.78 137.548 8.78C136.945 8.78 136.479 8.98 136.148 9.38C135.817 9.77467 135.652 10.564 135.652 11.748C135.652 12.9427 135.817 13.7373 136.148 14.132C136.479 14.5267 136.945 14.724 137.548 14.724C138.103 14.724 138.583 14.5453 138.988 14.188C139.399 13.8307 139.604 13.388 139.604 12.86L140.796 14.036C140.796 14.6813 140.385 15.2653 139.564 15.788C138.748 16.3053 137.772 16.564 136.636 16.564ZM144.146 16.5V7.012H146.842V16.5H144.146ZM144.146 4.164H146.842V6.044H144.146V4.164ZM153.11 16.62C152.267 16.62 151.553 16.444 150.966 16.092C150.385 15.7347 150.094 15.092 150.094 14.164V8.868H147.926V7.02H150.094V4.852H152.79V7.02H155.702V8.868H152.79V13.572C152.79 14.0893 152.897 14.428 153.11 14.588C153.329 14.7427 153.635 14.82 154.03 14.82C154.425 14.82 154.811 14.7533 155.19 14.62V16.396C154.529 16.5453 153.835 16.62 153.11 16.62ZM160.808 16.5L164.256 5.692H168.104L171.552 16.5H168.744L168.016 13.868H164.344L163.616 16.5H160.808ZM164.792 12.076H167.576L166.2 7.276H166.176L164.792 12.076ZM176.643 16.596C174.873 16.596 173.635 16.1773 172.931 15.34C172.233 14.4973 171.883 13.3107 171.883 11.78C171.883 10.212 172.233 9.012 172.931 8.18C173.635 7.348 174.873 6.932 176.643 6.932C178.217 6.932 179.307 7.27333 179.915 7.956C180.529 8.63867 180.886 9.356 180.987 10.108L178.595 10.94C178.553 10.2147 178.361 9.676 178.019 9.324C177.683 8.96667 177.225 8.788 176.643 8.788C176.067 8.788 175.587 8.988 175.203 9.388C174.819 9.788 174.627 10.5853 174.627 11.78C174.627 12.9267 174.819 13.708 175.203 14.124C175.587 14.54 176.067 14.748 176.643 14.748C177.225 14.748 177.683 14.5613 178.019 14.188C178.361 13.8147 178.553 13.292 178.595 12.62L180.987 13.484C180.886 14.1827 180.529 14.876 179.915 15.564C179.307 16.252 178.217 16.596 176.643 16.596ZM186.753 16.596C184.982 16.596 183.745 16.1773 183.041 15.34C182.342 14.4973 181.993 13.3107 181.993 11.78C181.993 10.212 182.342 9.012 183.041 8.18C183.745 7.348 184.982 6.932 186.753 6.932C188.326 6.932 189.417 7.27333 190.025 7.956C190.638 8.63867 190.995 9.356 191.097 10.108L188.705 10.94C188.662 10.2147 188.47 9.676 188.129 9.324C187.793 8.96667 187.334 8.788 186.753 8.788C186.177 8.788 185.697 8.988 185.313 9.388C184.929 9.788 184.737 10.5853 184.737 11.78C184.737 12.9267 184.929 13.708 185.313 14.124C185.697 14.54 186.177 14.748 186.753 14.748C187.334 14.748 187.793 14.5613 188.129 14.188C188.47 13.8147 188.662 13.292 188.705 12.62L191.097 13.484C190.995 14.1827 190.638 14.876 190.025 15.564C189.417 16.252 188.326 16.596 186.753 16.596ZM197.038 16.596C195.246 16.596 193.99 16.164 193.27 15.3C192.555 14.4307 192.198 13.2493 192.198 11.756C192.198 10.2253 192.558 9.03867 193.278 8.196C193.998 7.348 195.235 6.924 196.99 6.924C198.787 6.924 200.03 7.35333 200.718 8.212C201.411 9.07067 201.758 10.2493 201.758 11.748C201.758 12.0467 201.739 12.3133 201.702 12.548H194.55V10.924H199.19L199.094 11.164C199.094 10.252 198.907 9.60667 198.534 9.228C198.166 8.84933 197.651 8.66 196.99 8.66C196.339 8.66 195.811 8.86533 195.406 9.276C195.001 9.68667 194.798 10.5133 194.798 11.756C194.798 12.972 194.998 13.7933 195.398 14.22C195.803 14.6467 196.35 14.86 197.038 14.86V16.596ZM197.038 14.86C197.438 14.86 197.769 14.8067 198.03 14.7C198.291 14.5933 198.499 14.4147 198.654 14.164C198.814 13.9133 198.95 13.6173 199.062 13.276L201.47 13.956C201.353 14.58 201.097 15.084 200.702 15.468C200.313 15.852 199.841 16.1373 199.286 16.324C198.737 16.5053 197.987 16.596 197.038 16.596V14.86ZM207.767 16.58C206.519 16.58 205.468 16.3907 204.615 16.012C203.761 15.6333 203.209 14.9827 202.959 14.06L205.311 13.196C205.433 13.74 205.711 14.148 206.143 14.42C206.575 14.692 207.129 14.828 207.807 14.828C208.367 14.828 208.801 14.7427 209.111 14.572C209.42 14.396 209.575 14.1533 209.575 13.844C209.575 13.4227 209.297 13.1533 208.743 13.036C208.188 12.9187 207.479 12.7907 206.615 12.652C205.532 12.4867 204.663 12.1907 204.007 11.764C203.356 11.332 203.031 10.636 203.031 9.676C203.031 8.73733 203.433 8.04667 204.239 7.604C205.044 7.16133 206.1 6.94 207.407 6.94C208.681 6.94 209.724 7.12667 210.535 7.5C211.345 7.868 211.865 8.50267 212.095 9.404L209.735 10.252C209.612 9.76667 209.343 9.38267 208.927 9.1C208.511 8.81733 207.993 8.676 207.375 8.676C206.793 8.676 206.364 8.764 206.087 8.94C205.815 9.116 205.679 9.35867 205.679 9.668C205.679 10.0733 205.943 10.3373 206.471 10.46C206.999 10.5773 207.676 10.7 208.503 10.828C209.564 10.9827 210.449 11.252 211.159 11.636C211.873 12.0147 212.231 12.684 212.231 13.644C212.231 14.6947 211.844 15.4467 211.071 15.9C210.297 16.3533 209.196 16.58 207.767 16.58ZM218.251 16.58C217.003 16.58 215.952 16.3907 215.099 16.012C214.246 15.6333 213.694 14.9827 213.443 14.06L215.795 13.196C215.918 13.74 216.195 14.148 216.627 14.42C217.059 14.692 217.614 14.828 218.291 14.828C218.851 14.828 219.286 14.7427 219.595 14.572C219.904 14.396 220.059 14.1533 220.059 13.844C220.059 13.4227 219.782 13.1533 219.227 13.036C218.672 12.9187 217.963 12.7907 217.099 12.652C216.016 12.4867 215.147 12.1907 214.491 11.764C213.84 11.332 213.515 10.636 213.515 9.676C213.515 8.73733 213.918 8.04667 214.723 7.604C215.528 7.16133 216.584 6.94 217.891 6.94C219.166 6.94 220.208 7.12667 221.019 7.5C221.83 7.868 222.35 8.50267 222.579 9.404L220.219 10.252C220.096 9.76667 219.827 9.38267 219.411 9.1C218.995 8.81733 218.478 8.676 217.859 8.676C217.278 8.676 216.848 8.764 216.571 8.94C216.299 9.116 216.163 9.35867 216.163 9.668C216.163 10.0733 216.427 10.3373 216.955 10.46C217.483 10.5773 218.16 10.7 218.987 10.828C220.048 10.9827 220.934 11.252 221.643 11.636C222.358 12.0147 222.715 12.684 222.715 13.644C222.715 14.6947 222.328 15.4467 221.555 15.9C220.782 16.3533 219.68 16.58 218.251 16.58ZM228.101 16.5V5.7H233.925C235.274 5.7 236.162 6.08133 236.589 6.844C237.015 7.60667 237.229 8.54533 237.229 9.66C237.229 10.7747 237.015 11.7133 236.589 12.476C236.162 13.2387 235.274 13.62 233.925 13.62H230.829V16.5H228.101ZM230.829 11.772H233.109C233.621 11.772 233.983 11.6093 234.197 11.284C234.415 10.9587 234.525 10.4173 234.525 9.66C234.525 8.908 234.415 8.36933 234.197 8.044C233.983 7.71333 233.621 7.548 233.109 7.548H230.829V11.772ZM238.798 16.5V5.7H241.51V16.5H238.798ZM243.351 16.5V5.7H247.743L251.999 15.22H251.607L251.631 5.7H254.343V16.5H249.991L245.735 6.956H246.063V16.5H243.351Z" fill="#050505"/>
</svg>
