<svg width="375" height="42" viewBox="0 0 375 42" fill="none" xmlns="http://www.w3.org/2000/svg">
<path d="M16.924 11V2.6H17.848V6.584L22.192 2.6H23.404L18.844 6.716L23.5 11H22.204L17.848 6.968V11H16.924ZM26.8954 11V7.58L23.5594 2.6H24.6394L27.3874 6.764L30.1234 2.6H31.1674L27.8194 7.616V11H26.8954ZM35.2863 11.132C34.6783 11.132 34.1103 11.024 33.5823 10.808C33.0543 10.584 32.5903 10.276 32.1903 9.884C31.7903 9.484 31.4783 9.024 31.2543 8.504C31.0383 7.976 30.9303 7.408 30.9303 6.8C30.9303 6.192 31.0383 5.628 31.2543 5.108C31.4783 4.58 31.7903 4.12 32.1903 3.728C32.5903 3.328 33.0543 3.02 33.5823 2.804C34.1103 2.58 34.6783 2.468 35.2863 2.468C35.7263 2.468 36.1463 2.524 36.5463 2.636C36.9543 2.74 37.3303 2.896 37.6743 3.104C38.0263 3.304 38.3383 3.552 38.6103 3.848L37.9983 4.496C37.6703 4.12 37.2663 3.832 36.7863 3.632C36.3063 3.424 35.8063 3.32 35.2863 3.32C34.7983 3.32 34.3463 3.408 33.9303 3.584C33.5143 3.76 33.1503 4.008 32.8383 4.328C32.5343 4.64 32.2943 5.008 32.1183 5.432C31.9503 5.848 31.8663 6.304 31.8663 6.8C31.8663 7.288 31.9503 7.744 32.1183 8.168C32.2943 8.592 32.5383 8.964 32.8503 9.284C33.1623 9.596 33.5263 9.84 33.9423 10.016C34.3663 10.192 34.8223 10.28 35.3103 10.28C35.8303 10.28 36.3263 10.18 36.7983 9.98C37.2703 9.772 37.6663 9.488 37.9863 9.128L38.5863 9.752C38.3063 10.04 37.9903 10.288 37.6383 10.496C37.2943 10.704 36.9223 10.864 36.5223 10.976C36.1223 11.08 35.7103 11.132 35.2863 11.132ZM42.5646 11V2.6H43.4886V10.172H48.4926V11H42.5646ZM52.0955 11.108C51.5195 11.108 50.9955 10.972 50.5235 10.7C50.0595 10.42 49.6875 10.044 49.4075 9.572C49.1355 9.1 48.9995 8.572 48.9995 7.988C48.9995 7.412 49.1315 6.892 49.3955 6.428C49.6595 5.956 50.0155 5.584 50.4635 5.312C50.9115 5.032 51.4115 4.892 51.9635 4.892C52.4995 4.892 52.9795 5.032 53.4035 5.312C53.8355 5.584 54.1755 5.956 54.4235 6.428C54.6795 6.892 54.8075 7.412 54.8075 7.988V8.264H49.8755C49.9235 8.656 50.0475 9.008 50.2475 9.32C50.4555 9.632 50.7235 9.88 51.0515 10.064C51.3795 10.24 51.7395 10.328 52.1315 10.328C52.4435 10.328 52.7475 10.28 53.0435 10.184C53.3395 10.088 53.5875 9.952 53.7875 9.776L54.3395 10.364C54.0035 10.612 53.6515 10.8 53.2835 10.928C52.9235 11.048 52.5275 11.108 52.0955 11.108ZM49.8995 7.556H53.9195C53.8715 7.196 53.7515 6.876 53.5595 6.596C53.3755 6.308 53.1435 6.084 52.8635 5.924C52.5835 5.756 52.2755 5.672 51.9395 5.672C51.5955 5.672 51.2795 5.752 50.9915 5.912C50.7035 6.072 50.4635 6.296 50.2715 6.584C50.0795 6.864 49.9555 7.188 49.8995 7.556ZM57.7812 11L55.1772 4.988H56.1612L58.2132 9.848L60.2652 4.988H61.2132L58.6212 11H57.7812ZM64.6698 11.108C64.0938 11.108 63.5698 10.972 63.0978 10.7C62.6338 10.42 62.2618 10.044 61.9818 9.572C61.7098 9.1 61.5738 8.572 61.5738 7.988C61.5738 7.412 61.7058 6.892 61.9698 6.428C62.2338 5.956 62.5898 5.584 63.0378 5.312C63.4858 5.032 63.9858 4.892 64.5378 4.892C65.0738 4.892 65.5538 5.032 65.9778 5.312C66.4098 5.584 66.7498 5.956 66.9978 6.428C67.2538 6.892 67.3818 7.412 67.3818 7.988V8.264H62.4498C62.4978 8.656 62.6218 9.008 62.8218 9.32C63.0298 9.632 63.2978 9.88 63.6258 10.064C63.9538 10.24 64.3138 10.328 64.7058 10.328C65.0178 10.328 65.3218 10.28 65.6178 10.184C65.9138 10.088 66.1618 9.952 66.3618 9.776L66.9138 10.364C66.5778 10.612 66.2258 10.8 65.8578 10.928C65.4978 11.048 65.1018 11.108 64.6698 11.108ZM62.4738 7.556H66.4938C66.4458 7.196 66.3258 6.876 66.1338 6.596C65.9498 6.308 65.7178 6.084 65.4378 5.924C65.1578 5.756 64.8498 5.672 64.5138 5.672C64.1698 5.672 63.8538 5.752 63.5658 5.912C63.2778 6.072 63.0378 6.296 62.8458 6.584C62.6538 6.864 62.5298 7.188 62.4738 7.556ZM68.6232 11V2.6L69.5112 2.396V11H68.6232Z" fill="#49526A"/>
<path d="M16.5 30C16.5 23.6487 21.6487 18.5 28 18.5H71C77.3513 18.5 82.5 23.6487 82.5 30C82.5 36.3513 77.3513 41.5 71 41.5H28C21.6487 41.5 16.5 36.3513 16.5 30Z" fill="url(#paint0_linear_1465_21777)"/>
<path d="M16.5 30C16.5 23.6487 21.6487 18.5 28 18.5H71C77.3513 18.5 82.5 23.6487 82.5 30C82.5 36.3513 77.3513 41.5 71 41.5H28C21.6487 41.5 16.5 36.3513 16.5 30Z" stroke="#66C95B"/>
<path d="M22.3082 26.9266C21.9166 29.9024 21.9703 33.0307 22.0793 34.8074C22.1322 35.9847 22.2755 37.8486 22.7987 36.7041C23.5309 35.1025 23.8451 33.6629 24.1394 32.2241C24.334 31.273 25.1532 27.1228 25.284 25.4878C25.4002 24.0342 24.7891 22.8751 23.7797 23.6566C22.766 24.4414 22.4373 25.9456 22.3082 26.9266Z" fill="#2FB763"/>
<path d="M26.7228 24.4414L23.7143 36.0828C23.2892 37.4889 23.8125 38.6661 25.1532 36.3444L26.9844 32.2241L29.9601 24.4414C30.1999 23.7329 30.3525 22.257 29.0445 22.0216C27.7365 21.7861 26.9517 23.5367 26.7228 24.4414Z" fill="#2FB763"/>
<path d="M31.1373 24.4414L25.938 36.5733C25.284 38.1756 26.1669 37.8486 26.7228 37.0965L28.7829 34.3823C29.9601 32.78 32.6023 29.0979 33.7534 27.1882C34.9044 25.2785 34.996 24.376 34.996 23.6566C34.996 23.068 34.8521 22.0216 33.7534 22.0216C32.6546 22.0216 31.5952 23.3623 31.1373 24.4414Z" fill="#2FB763"/>
<path d="M34.1458 28.3655L28.5213 36.5733C27.4095 38.2083 28.7829 38.4392 29.8947 37.26C30.6141 36.497 31.9876 35.0952 32.2492 34.8074C32.5762 34.4477 35.6874 30.9035 36.6964 29.4119C37.4485 28.3001 37.2523 25.4878 37.1215 24.4414C36.9458 23.0353 36.0949 23.3088 35.9443 24.2125C35.5846 26.3707 34.996 27.1882 34.1458 28.3655Z" fill="#2FB763"/>
<path d="M35.2576 32.7146L32.053 36.3444C30.4179 38.3064 31.6606 38.0775 33.0013 37.4562C34.2439 36.8803 36.4348 35.8212 36.6964 33.7283C36.958 31.6355 36.0097 31.8317 35.2576 32.7146Z" fill="#2FB763"/>
<path d="M43.078 34.5V24.7H47.054C47.6887 24.7 48.2347 24.8027 48.692 25.008C49.1587 25.2133 49.518 25.5073 49.77 25.89C50.022 26.2633 50.148 26.7067 50.148 27.22C50.148 27.724 50.0127 28.1627 49.742 28.536C49.4807 28.9093 49.1167 29.194 48.65 29.39C49.238 29.5673 49.7 29.8613 50.036 30.272C50.3813 30.6827 50.554 31.1727 50.554 31.742C50.554 32.302 50.414 32.792 50.134 33.212C49.8633 33.6227 49.476 33.94 48.972 34.164C48.4773 34.388 47.894 34.5 47.222 34.5H43.078ZM44.156 28.97H46.998C47.6327 28.97 48.1367 28.8207 48.51 28.522C48.8927 28.2233 49.084 27.8173 49.084 27.304C49.084 26.7907 48.8927 26.3847 48.51 26.086C48.1367 25.7873 47.6327 25.638 46.998 25.638H44.156V28.97ZM44.156 33.562H47.138C47.8473 33.562 48.412 33.394 48.832 33.058C49.252 32.722 49.462 32.274 49.462 31.714C49.462 31.154 49.252 30.706 48.832 30.37C48.412 30.034 47.8473 29.866 47.138 29.866H44.156V33.562ZM54.2952 34.626C53.7818 34.626 53.3292 34.5373 52.9372 34.36C52.5545 34.1827 52.2512 33.9353 52.0272 33.618C51.8125 33.3007 51.7052 32.932 51.7052 32.512C51.7052 31.8493 51.9572 31.3267 52.4612 30.944C52.9652 30.5613 53.6465 30.37 54.5052 30.37C55.2612 30.37 55.9472 30.5287 56.5632 30.846V29.922C56.5632 29.362 56.4045 28.942 56.0872 28.662C55.7698 28.3727 55.3078 28.228 54.7012 28.228C54.3558 28.228 54.0058 28.2793 53.6512 28.382C53.3058 28.4753 52.9232 28.6293 52.5032 28.844L52.1112 28.046C52.6152 27.8033 53.0818 27.626 53.5112 27.514C53.9405 27.402 54.3698 27.346 54.7992 27.346C55.6858 27.346 56.3672 27.556 56.8432 27.976C57.3285 28.396 57.5712 28.998 57.5712 29.782V34.5H56.5632V33.814C56.2458 34.0847 55.8958 34.29 55.5132 34.43C55.1398 34.5607 54.7338 34.626 54.2952 34.626ZM52.6992 32.484C52.6992 32.876 52.8625 33.198 53.1892 33.45C53.5252 33.6927 53.9545 33.814 54.4772 33.814C54.8972 33.814 55.2798 33.7487 55.6252 33.618C55.9705 33.4873 56.2832 33.282 56.5632 33.002V31.686C56.2738 31.49 55.9658 31.35 55.6392 31.266C55.3125 31.1727 54.9438 31.126 54.5332 31.126C53.9732 31.126 53.5252 31.252 53.1892 31.504C52.8625 31.7467 52.6992 32.0733 52.6992 32.484ZM61.5419 34.64C60.9633 34.64 60.4173 34.5467 59.9039 34.36C59.3999 34.164 58.9613 33.8933 58.5879 33.548L59.2179 32.876C59.5446 33.1747 59.9039 33.408 60.2959 33.576C60.6879 33.7347 61.0893 33.814 61.4999 33.814C62.0599 33.814 62.5173 33.6973 62.8719 33.464C63.2266 33.2307 63.4039 32.9273 63.4039 32.554C63.4039 32.246 63.2966 32.008 63.0819 31.84C62.8766 31.6627 62.5499 31.5413 62.1019 31.476L60.8839 31.308C60.1839 31.2053 59.6613 30.9953 59.3159 30.678C58.9799 30.3607 58.8119 29.9313 58.8119 29.39C58.8119 28.998 58.9239 28.648 59.1479 28.34C59.3719 28.032 59.6799 27.7893 60.0719 27.612C60.4733 27.4347 60.9306 27.346 61.4439 27.346C61.9573 27.346 62.4379 27.4207 62.8859 27.57C63.3339 27.7193 63.7726 27.9527 64.2019 28.27L63.6559 28.97C63.2639 28.6993 62.8813 28.5033 62.5079 28.382C62.1439 28.2513 61.7706 28.186 61.3879 28.186C60.9026 28.186 60.5106 28.2933 60.2119 28.508C59.9133 28.7227 59.7639 29.0027 59.7639 29.348C59.7639 29.6653 59.8666 29.908 60.0719 30.076C60.2773 30.2347 60.6086 30.3467 61.0659 30.412L62.2839 30.58C62.9839 30.6733 63.5066 30.8787 63.8519 31.196C64.2066 31.5133 64.3839 31.9473 64.3839 32.498C64.3839 32.8993 64.2579 33.2633 64.0059 33.59C63.7539 33.9167 63.4133 34.1733 62.9839 34.36C62.5639 34.5467 62.0833 34.64 61.5419 34.64ZM65.55 34.5V27.486H66.586V34.5H65.55ZM66.068 26.142C65.8813 26.142 65.718 26.072 65.578 25.932C65.438 25.792 65.368 25.6287 65.368 25.442C65.368 25.246 65.438 25.0827 65.578 24.952C65.718 24.812 65.8813 24.742 66.068 24.742C66.264 24.742 66.4273 24.812 66.558 24.952C66.698 25.0827 66.768 25.246 66.768 25.442C66.768 25.6287 66.698 25.792 66.558 25.932C66.4273 26.072 66.264 26.142 66.068 26.142ZM71.6007 34.626C70.938 34.626 70.336 34.4673 69.7947 34.15C69.2534 33.8233 68.824 33.3847 68.5067 32.834C68.1894 32.2833 68.0307 31.6673 68.0307 30.986C68.0307 30.3047 68.1894 29.6933 68.5067 29.152C68.824 28.6013 69.2534 28.1627 69.7947 27.836C70.336 27.5093 70.938 27.346 71.6007 27.346C72.114 27.346 72.6087 27.444 73.0847 27.64C73.5607 27.8267 73.9807 28.0973 74.3447 28.452L73.6867 29.208C73.4067 28.9093 73.0847 28.6853 72.7207 28.536C72.366 28.3773 71.9974 28.298 71.6147 28.298C71.1387 28.298 70.7047 28.4193 70.3127 28.662C69.93 28.8953 69.622 29.2173 69.3887 29.628C69.1647 30.0293 69.0527 30.482 69.0527 30.986C69.0527 31.49 69.1647 31.9473 69.3887 32.358C69.622 32.7687 69.9347 33.0953 70.3267 33.338C70.7187 33.5713 71.1527 33.688 71.6287 33.688C72.0114 33.688 72.3707 33.6133 72.7067 33.464C73.052 33.3147 73.374 33.0953 73.6727 32.806L74.3167 33.506C73.9434 33.8607 73.5234 34.136 73.0567 34.332C72.59 34.528 72.1047 34.626 71.6007 34.626Z" fill="#185C32"/>
<path d="M240.848 14.16H242.744C243.232 14.16 243.684 14.076 244.1 13.908C244.516 13.74 244.88 13.504 245.192 13.2C245.504 12.896 245.744 12.54 245.912 12.132C246.088 11.724 246.176 11.28 246.176 10.8C246.176 10.32 246.088 9.876 245.912 9.468C245.744 9.06 245.504 8.704 245.192 8.4C244.88 8.096 244.516 7.86 244.1 7.692C243.684 7.524 243.232 7.44 242.744 7.44H240.848V14.16ZM239.924 15V6.6H242.696C243.336 6.6 243.924 6.704 244.46 6.912C244.996 7.12 245.46 7.412 245.852 7.788C246.252 8.164 246.56 8.608 246.776 9.12C247 9.632 247.112 10.192 247.112 10.8C247.112 11.408 247.004 11.968 246.788 12.48C246.572 12.992 246.264 13.436 245.864 13.812C245.472 14.188 245.004 14.48 244.46 14.688C243.924 14.896 243.336 15 242.696 15H239.924ZM250.172 15.108C249.732 15.108 249.344 15.032 249.008 14.88C248.68 14.728 248.42 14.516 248.228 14.244C248.044 13.972 247.952 13.656 247.952 13.296C247.952 12.728 248.168 12.28 248.6 11.952C249.032 11.624 249.616 11.46 250.352 11.46C251 11.46 251.588 11.596 252.116 11.868V11.076C252.116 10.596 251.98 10.236 251.708 9.996C251.436 9.748 251.04 9.624 250.52 9.624C250.224 9.624 249.924 9.668 249.62 9.756C249.324 9.836 248.996 9.968 248.636 10.152L248.3 9.468C248.732 9.26 249.132 9.108 249.5 9.012C249.868 8.916 250.236 8.868 250.604 8.868C251.364 8.868 251.948 9.048 252.356 9.408C252.772 9.768 252.98 10.284 252.98 10.956V15H252.116V14.412C251.844 14.644 251.544 14.82 251.216 14.94C250.896 15.052 250.548 15.108 250.172 15.108ZM248.804 13.272C248.804 13.608 248.944 13.884 249.224 14.1C249.512 14.308 249.88 14.412 250.328 14.412C250.688 14.412 251.016 14.356 251.312 14.244C251.608 14.132 251.876 13.956 252.116 13.716V12.588C251.868 12.42 251.604 12.3 251.324 12.228C251.044 12.148 250.728 12.108 250.376 12.108C249.896 12.108 249.512 12.216 249.224 12.432C248.944 12.64 248.804 12.92 248.804 13.272ZM254.463 15V8.988H255.351V15H254.463ZM254.907 7.836C254.747 7.836 254.607 7.776 254.487 7.656C254.367 7.536 254.307 7.396 254.307 7.236C254.307 7.068 254.367 6.928 254.487 6.816C254.607 6.696 254.747 6.636 254.907 6.636C255.075 6.636 255.215 6.696 255.327 6.816C255.447 6.928 255.507 7.068 255.507 7.236C255.507 7.396 255.447 7.536 255.327 7.656C255.215 7.776 255.075 7.836 254.907 7.836ZM256.865 15V6.6L257.753 6.396V15H256.865ZM259.52 17.568C259.408 17.568 259.3 17.56 259.196 17.544C259.1 17.536 259.02 17.524 258.956 17.508V16.704C259.092 16.736 259.26 16.752 259.46 16.752C259.988 16.752 260.388 16.44 260.66 15.816L261.02 14.988L258.572 8.988H259.556L261.5 13.92L263.6 8.988H264.56L261.56 15.936C261.392 16.32 261.212 16.632 261.02 16.872C260.828 17.112 260.608 17.288 260.36 17.4C260.12 17.512 259.84 17.568 259.52 17.568ZM270.447 15V7.428H267.411V6.6H274.407V7.428H271.371V15H270.447ZM274.772 15V8.988H275.66V9.84C275.844 9.528 276.076 9.288 276.356 9.12C276.644 8.944 276.972 8.856 277.34 8.856C277.548 8.856 277.736 8.884 277.904 8.94V9.756C277.8 9.716 277.696 9.688 277.592 9.672C277.488 9.656 277.384 9.648 277.28 9.648C276.912 9.648 276.588 9.756 276.308 9.972C276.036 10.18 275.82 10.484 275.66 10.884V15H274.772ZM280.511 15.108C280.071 15.108 279.683 15.032 279.347 14.88C279.019 14.728 278.759 14.516 278.567 14.244C278.383 13.972 278.291 13.656 278.291 13.296C278.291 12.728 278.507 12.28 278.939 11.952C279.371 11.624 279.955 11.46 280.691 11.46C281.339 11.46 281.927 11.596 282.455 11.868V11.076C282.455 10.596 282.319 10.236 282.047 9.996C281.775 9.748 281.379 9.624 280.859 9.624C280.563 9.624 280.263 9.668 279.959 9.756C279.663 9.836 279.335 9.968 278.975 10.152L278.639 9.468C279.071 9.26 279.471 9.108 279.839 9.012C280.207 8.916 280.575 8.868 280.943 8.868C281.703 8.868 282.287 9.048 282.695 9.408C283.111 9.768 283.319 10.284 283.319 10.956V15H282.455V14.412C282.183 14.644 281.883 14.82 281.555 14.94C281.235 15.052 280.887 15.108 280.511 15.108ZM279.143 13.272C279.143 13.608 279.283 13.884 279.563 14.1C279.851 14.308 280.219 14.412 280.667 14.412C281.027 14.412 281.355 14.356 281.651 14.244C281.947 14.132 282.215 13.956 282.455 13.716V12.588C282.207 12.42 281.943 12.3 281.663 12.228C281.383 12.148 281.067 12.108 280.715 12.108C280.235 12.108 279.851 12.216 279.563 12.432C279.283 12.64 279.143 12.92 279.143 13.272ZM284.803 15V8.988H285.691V9.696C286.163 9.144 286.795 8.868 287.587 8.868C288.043 8.868 288.443 8.968 288.787 9.168C289.139 9.36 289.411 9.632 289.603 9.984C289.803 10.328 289.903 10.732 289.903 11.196V15H289.027V11.376C289.027 10.84 288.875 10.42 288.571 10.116C288.275 9.804 287.867 9.648 287.347 9.648C286.987 9.648 286.667 9.728 286.387 9.888C286.107 10.048 285.875 10.276 285.691 10.572V15H284.803ZM293.309 15.12C292.813 15.12 292.345 15.04 291.905 14.88C291.473 14.712 291.097 14.48 290.777 14.184L291.317 13.608C291.597 13.864 291.905 14.064 292.241 14.208C292.577 14.344 292.921 14.412 293.273 14.412C293.753 14.412 294.145 14.312 294.449 14.112C294.753 13.912 294.905 13.652 294.905 13.332C294.905 13.068 294.813 12.864 294.629 12.72C294.453 12.568 294.173 12.464 293.789 12.408L292.745 12.264C292.145 12.176 291.697 11.996 291.401 11.724C291.113 11.452 290.969 11.084 290.969 10.62C290.969 10.284 291.065 9.984 291.257 9.72C291.449 9.456 291.713 9.248 292.049 9.096C292.393 8.944 292.785 8.868 293.225 8.868C293.665 8.868 294.077 8.932 294.461 9.06C294.845 9.188 295.221 9.388 295.589 9.66L295.121 10.26C294.785 10.028 294.457 9.86 294.137 9.756C293.825 9.644 293.505 9.588 293.177 9.588C292.761 9.588 292.425 9.68 292.169 9.864C291.913 10.048 291.785 10.288 291.785 10.584C291.785 10.856 291.873 11.064 292.049 11.208C292.225 11.344 292.509 11.44 292.901 11.496L293.945 11.64C294.545 11.72 294.993 11.896 295.289 12.168C295.593 12.44 295.745 12.812 295.745 13.284C295.745 13.628 295.637 13.94 295.421 14.22C295.205 14.5 294.913 14.72 294.545 14.88C294.185 15.04 293.773 15.12 293.309 15.12ZM298.699 15.108C298.259 15.108 297.871 15.032 297.535 14.88C297.207 14.728 296.947 14.516 296.755 14.244C296.571 13.972 296.479 13.656 296.479 13.296C296.479 12.728 296.695 12.28 297.127 11.952C297.559 11.624 298.143 11.46 298.879 11.46C299.527 11.46 300.115 11.596 300.643 11.868V11.076C300.643 10.596 300.507 10.236 300.235 9.996C299.963 9.748 299.567 9.624 299.047 9.624C298.751 9.624 298.451 9.668 298.147 9.756C297.851 9.836 297.523 9.968 297.163 10.152L296.827 9.468C297.259 9.26 297.659 9.108 298.027 9.012C298.395 8.916 298.763 8.868 299.131 8.868C299.891 8.868 300.475 9.048 300.883 9.408C301.299 9.768 301.507 10.284 301.507 10.956V15H300.643V14.412C300.371 14.644 300.071 14.82 299.743 14.94C299.423 15.052 299.075 15.108 298.699 15.108ZM297.331 13.272C297.331 13.608 297.471 13.884 297.751 14.1C298.039 14.308 298.407 14.412 298.855 14.412C299.215 14.412 299.543 14.356 299.839 14.244C300.135 14.132 300.403 13.956 300.643 13.716V12.588C300.395 12.42 300.131 12.3 299.851 12.228C299.571 12.148 299.255 12.108 298.903 12.108C298.423 12.108 298.039 12.216 297.751 12.432C297.471 12.64 297.331 12.92 297.331 13.272ZM305.774 15.108C305.206 15.108 304.69 14.972 304.226 14.7C303.762 14.42 303.394 14.044 303.122 13.572C302.85 13.1 302.714 12.572 302.714 11.988C302.714 11.404 302.85 10.88 303.122 10.416C303.394 9.944 303.762 9.568 304.226 9.288C304.69 9.008 305.206 8.868 305.774 8.868C306.214 8.868 306.638 8.952 307.046 9.12C307.454 9.28 307.814 9.512 308.126 9.816L307.562 10.464C307.322 10.208 307.046 10.016 306.734 9.888C306.43 9.752 306.114 9.684 305.786 9.684C305.378 9.684 305.006 9.788 304.67 9.996C304.342 10.196 304.078 10.472 303.878 10.824C303.686 11.168 303.59 11.556 303.59 11.988C303.59 12.42 303.686 12.812 303.878 13.164C304.078 13.516 304.346 13.796 304.682 14.004C305.018 14.204 305.39 14.304 305.798 14.304C306.126 14.304 306.434 14.24 306.722 14.112C307.018 13.984 307.294 13.796 307.55 13.548L308.102 14.148C307.782 14.452 307.422 14.688 307.022 14.856C306.622 15.024 306.206 15.108 305.774 15.108ZM311.624 15.12C311.104 15.12 310.704 14.996 310.424 14.748C310.144 14.5 310.004 14.14 310.004 13.668V9.744H308.708V8.988H310.004V7.464L310.88 7.236V8.988H312.692V9.744H310.88V13.44C310.88 13.76 310.952 13.992 311.096 14.136C311.24 14.272 311.476 14.34 311.804 14.34C311.972 14.34 312.12 14.328 312.248 14.304C312.384 14.28 312.528 14.24 312.68 14.184V14.964C312.528 15.02 312.356 15.06 312.164 15.084C311.98 15.108 311.8 15.12 311.624 15.12ZM313.643 15V8.988H314.531V15H313.643ZM314.087 7.836C313.927 7.836 313.787 7.776 313.667 7.656C313.547 7.536 313.487 7.396 313.487 7.236C313.487 7.068 313.547 6.928 313.667 6.816C313.787 6.696 313.927 6.636 314.087 6.636C314.255 6.636 314.395 6.696 314.507 6.816C314.627 6.928 314.687 7.068 314.687 7.236C314.687 7.396 314.627 7.536 314.507 7.656C314.395 7.776 314.255 7.836 314.087 7.836ZM318.841 15.12C318.273 15.12 317.753 14.984 317.281 14.712C316.817 14.432 316.449 14.056 316.177 13.584C315.905 13.112 315.769 12.584 315.769 12C315.769 11.416 315.905 10.888 316.177 10.416C316.449 9.944 316.817 9.572 317.281 9.3C317.753 9.02 318.273 8.88 318.841 8.88C319.417 8.88 319.937 9.02 320.401 9.3C320.865 9.572 321.233 9.944 321.505 10.416C321.777 10.888 321.913 11.416 321.913 12C321.913 12.584 321.777 13.112 321.505 13.584C321.233 14.056 320.865 14.432 320.401 14.712C319.937 14.984 319.417 15.12 318.841 15.12ZM318.841 14.328C319.249 14.328 319.617 14.224 319.945 14.016C320.281 13.808 320.545 13.528 320.737 13.176C320.937 12.824 321.037 12.432 321.037 12C321.037 11.56 320.937 11.168 320.737 10.824C320.545 10.472 320.281 10.192 319.945 9.984C319.617 9.776 319.249 9.672 318.841 9.672C318.433 9.672 318.061 9.776 317.725 9.984C317.397 10.192 317.133 10.472 316.933 10.824C316.741 11.168 316.645 11.56 316.645 12C316.645 12.432 316.741 12.824 316.933 13.176C317.133 13.528 317.397 13.808 317.725 14.016C318.061 14.224 318.433 14.328 318.841 14.328ZM323.147 15V8.988H324.035V9.696C324.507 9.144 325.139 8.868 325.931 8.868C326.387 8.868 326.787 8.968 327.131 9.168C327.483 9.36 327.755 9.632 327.947 9.984C328.147 10.328 328.247 10.732 328.247 11.196V15H327.371V11.376C327.371 10.84 327.219 10.42 326.915 10.116C326.619 9.804 326.211 9.648 325.691 9.648C325.331 9.648 325.011 9.728 324.731 9.888C324.451 10.048 324.219 10.276 324.035 10.572V15H323.147ZM332.479 15V6.6H333.403V14.172H338.407V15H332.479ZM339.553 15V8.988H340.441V15H339.553ZM339.997 7.836C339.837 7.836 339.697 7.776 339.577 7.656C339.457 7.536 339.397 7.396 339.397 7.236C339.397 7.068 339.457 6.928 339.577 6.816C339.697 6.696 339.837 6.636 339.997 6.636C340.165 6.636 340.305 6.696 340.417 6.816C340.537 6.928 340.597 7.068 340.597 7.236C340.597 7.396 340.537 7.536 340.417 7.656C340.305 7.776 340.165 7.836 339.997 7.836ZM341.955 15V8.988H342.843V9.648C343.299 9.128 343.887 8.868 344.607 8.868C345.031 8.868 345.407 8.968 345.735 9.168C346.063 9.36 346.319 9.624 346.503 9.96C346.751 9.592 347.047 9.32 347.391 9.144C347.735 8.96 348.127 8.868 348.567 8.868C349.007 8.868 349.391 8.968 349.719 9.168C350.047 9.36 350.303 9.632 350.487 9.984C350.679 10.328 350.775 10.732 350.775 11.196V15H349.899V11.376C349.899 10.84 349.759 10.42 349.479 10.116C349.199 9.804 348.819 9.648 348.339 9.648C348.011 9.648 347.711 9.732 347.439 9.9C347.167 10.06 346.935 10.304 346.743 10.632C346.759 10.72 346.771 10.812 346.779 10.908C346.795 10.996 346.803 11.092 346.803 11.196V15H345.927V11.376C345.927 10.84 345.787 10.42 345.507 10.116C345.227 9.804 344.851 9.648 344.379 9.648C344.059 9.648 343.767 9.724 343.503 9.876C343.247 10.02 343.027 10.236 342.843 10.524V15H341.955ZM352.268 15V8.988H353.156V15H352.268ZM352.712 7.836C352.552 7.836 352.412 7.776 352.292 7.656C352.172 7.536 352.112 7.396 352.112 7.236C352.112 7.068 352.172 6.928 352.292 6.816C352.412 6.696 352.552 6.636 352.712 6.636C352.88 6.636 353.02 6.696 353.132 6.816C353.252 6.928 353.312 7.068 353.312 7.236C353.312 7.396 353.252 7.536 353.132 7.656C353.02 7.776 352.88 7.836 352.712 7.836ZM357.034 15.12C356.514 15.12 356.114 14.996 355.834 14.748C355.554 14.5 355.414 14.14 355.414 13.668V9.744H354.118V8.988H355.414V7.464L356.29 7.236V8.988H358.102V9.744H356.29V13.44C356.29 13.76 356.362 13.992 356.506 14.136C356.65 14.272 356.886 14.34 357.214 14.34C357.382 14.34 357.53 14.328 357.658 14.304C357.794 14.28 357.938 14.24 358.09 14.184V14.964C357.938 15.02 357.766 15.06 357.574 15.084C357.39 15.108 357.21 15.12 357.034 15.12Z" fill="#49526A"/>
<path d="M231.667 34V26.7013C231.667 26.5462 231.718 26.3955 231.813 26.2728C231.908 26.1501 232.041 26.0624 232.191 26.0235C232.341 25.9846 232.5 25.9967 232.643 26.0578C232.785 26.119 232.904 26.2257 232.979 26.3613L237.021 33.6387C237.097 33.7743 237.215 33.881 237.358 33.9422C237.5 34.0033 237.659 34.0154 237.809 33.9765C237.959 33.9376 238.092 33.8499 238.187 33.7272C238.282 33.6045 238.334 33.4538 238.333 33.2987V26M230.333 28.6667H239.667M230.333 31.3333H239.667" stroke="#279953" stroke-width="2" stroke-linecap="round" stroke-linejoin="round"/>
<path d="M247.104 34.132C246.376 34.132 245.732 33.952 245.172 33.592C244.62 33.224 244.188 32.716 243.876 32.068C243.572 31.412 243.42 30.656 243.42 29.8C243.42 28.936 243.572 28.18 243.876 27.532C244.188 26.884 244.62 26.38 245.172 26.02C245.732 25.652 246.376 25.468 247.104 25.468C247.84 25.468 248.484 25.652 249.036 26.02C249.596 26.38 250.028 26.884 250.332 27.532C250.644 28.18 250.8 28.936 250.8 29.8C250.8 30.656 250.644 31.412 250.332 32.068C250.028 32.716 249.596 33.224 249.036 33.592C248.484 33.952 247.84 34.132 247.104 34.132ZM247.104 32.704C247.536 32.704 247.908 32.588 248.22 32.356C248.532 32.124 248.772 31.788 248.94 31.348C249.116 30.908 249.204 30.392 249.204 29.8C249.204 29.2 249.116 28.684 248.94 28.252C248.772 27.812 248.532 27.476 248.22 27.244C247.908 27.012 247.536 26.896 247.104 26.896C246.68 26.896 246.312 27.012 246 27.244C245.688 27.476 245.444 27.812 245.268 28.252C245.1 28.684 245.016 29.2 245.016 29.8C245.016 30.392 245.1 30.908 245.268 31.348C245.444 31.788 245.688 32.124 246 32.356C246.312 32.588 246.68 32.704 247.104 32.704ZM252.48 34.12C252.216 34.12 251.988 34.024 251.796 33.832C251.604 33.64 251.508 33.412 251.508 33.148C251.508 32.876 251.604 32.644 251.796 32.452C251.988 32.26 252.216 32.164 252.48 32.164C252.744 32.164 252.972 32.26 253.164 32.452C253.356 32.644 253.452 32.876 253.452 33.148C253.452 33.412 253.356 33.64 253.164 33.832C252.972 34.024 252.744 34.12 252.48 34.12ZM257.85 34.132C257.122 34.132 256.478 33.952 255.918 33.592C255.366 33.224 254.934 32.716 254.622 32.068C254.318 31.412 254.166 30.656 254.166 29.8C254.166 28.936 254.318 28.18 254.622 27.532C254.934 26.884 255.366 26.38 255.918 26.02C256.478 25.652 257.122 25.468 257.85 25.468C258.586 25.468 259.23 25.652 259.782 26.02C260.342 26.38 260.774 26.884 261.078 27.532C261.39 28.18 261.546 28.936 261.546 29.8C261.546 30.656 261.39 31.412 261.078 32.068C260.774 32.716 260.342 33.224 259.782 33.592C259.23 33.952 258.586 34.132 257.85 34.132ZM257.85 32.704C258.282 32.704 258.654 32.588 258.966 32.356C259.278 32.124 259.518 31.788 259.686 31.348C259.862 30.908 259.95 30.392 259.95 29.8C259.95 29.2 259.862 28.684 259.686 28.252C259.518 27.812 259.278 27.476 258.966 27.244C258.654 27.012 258.282 26.896 257.85 26.896C257.426 26.896 257.058 27.012 256.746 27.244C256.434 27.476 256.19 27.812 256.014 28.252C255.846 28.684 255.762 29.2 255.762 29.8C255.762 30.392 255.846 30.908 256.014 31.348C256.19 31.788 256.434 32.124 256.746 32.356C257.058 32.588 257.426 32.704 257.85 32.704ZM266.065 34.132C265.337 34.132 264.693 33.952 264.133 33.592C263.581 33.224 263.149 32.716 262.837 32.068C262.533 31.412 262.381 30.656 262.381 29.8C262.381 28.936 262.533 28.18 262.837 27.532C263.149 26.884 263.581 26.38 264.133 26.02C264.693 25.652 265.337 25.468 266.065 25.468C266.801 25.468 267.445 25.652 267.997 26.02C268.557 26.38 268.989 26.884 269.293 27.532C269.605 28.18 269.761 28.936 269.761 29.8C269.761 30.656 269.605 31.412 269.293 32.068C268.989 32.716 268.557 33.224 267.997 33.592C267.445 33.952 266.801 34.132 266.065 34.132ZM266.065 32.704C266.497 32.704 266.869 32.588 267.181 32.356C267.493 32.124 267.733 31.788 267.901 31.348C268.077 30.908 268.165 30.392 268.165 29.8C268.165 29.2 268.077 28.684 267.901 28.252C267.733 27.812 267.493 27.476 267.181 27.244C266.869 27.012 266.497 26.896 266.065 26.896C265.641 26.896 265.273 27.012 264.961 27.244C264.649 27.476 264.405 27.812 264.229 28.252C264.061 28.684 263.977 29.2 263.977 29.8C263.977 30.392 264.061 30.908 264.229 31.348C264.405 31.788 264.649 32.124 264.961 32.356C265.273 32.588 265.641 32.704 266.065 32.704Z" fill="#050505"/>
<path d="M274.316 36.496L279.2 25.6H280.784L275.9 36.496H274.316Z" fill="#2FB763"/>
<path d="M290.667 34V26.7013C290.667 26.5462 290.718 26.3955 290.813 26.2728C290.908 26.1501 291.041 26.0624 291.191 26.0235C291.341 25.9846 291.5 25.9967 291.643 26.0578C291.785 26.119 291.904 26.2257 291.979 26.3613L296.021 33.6387C296.097 33.7743 296.215 33.881 296.358 33.9422C296.5 34.0033 296.659 34.0154 296.809 33.9765C296.959 33.9376 297.092 33.8499 297.187 33.7272C297.282 33.6045 297.334 33.4538 297.333 33.2987V26M289.333 28.6667H298.667M289.333 31.3333H298.667" stroke="#828DA9" stroke-width="2" stroke-linecap="round" stroke-linejoin="round"/>
<path d="M303.812 34V26.836L302.3 27.472V26.416L304.244 25.6H305V34H303.812ZM309.805 34.132C309.101 34.132 308.485 33.952 307.957 33.592C307.429 33.224 307.013 32.716 306.709 32.068C306.413 31.412 306.265 30.656 306.265 29.8C306.265 28.944 306.413 28.192 306.709 27.544C307.013 26.888 307.429 26.38 307.957 26.02C308.485 25.652 309.101 25.468 309.805 25.468C310.501 25.468 311.113 25.652 311.641 26.02C312.169 26.38 312.581 26.888 312.877 27.544C313.181 28.192 313.333 28.944 313.333 29.8C313.333 30.656 313.181 31.412 312.877 32.068C312.581 32.716 312.169 33.224 311.641 33.592C311.113 33.952 310.501 34.132 309.805 34.132ZM309.805 33.088C310.285 33.088 310.701 32.956 311.053 32.692C311.405 32.42 311.677 32.036 311.869 31.54C312.061 31.044 312.157 30.464 312.157 29.8C312.157 29.128 312.061 28.548 311.869 28.06C311.677 27.564 311.405 27.184 311.053 26.92C310.701 26.648 310.285 26.512 309.805 26.512C309.325 26.512 308.909 26.648 308.557 26.92C308.205 27.184 307.929 27.564 307.729 28.06C307.537 28.548 307.441 29.128 307.441 29.8C307.441 30.464 307.537 31.044 307.729 31.54C307.929 32.036 308.205 32.42 308.557 32.692C308.909 32.956 309.325 33.088 309.805 33.088ZM313.844 35.716L314.588 32.92H315.86L314.756 35.716H313.844ZM320.247 34.132C319.543 34.132 318.927 33.952 318.399 33.592C317.871 33.224 317.455 32.716 317.151 32.068C316.855 31.412 316.707 30.656 316.707 29.8C316.707 28.944 316.855 28.192 317.151 27.544C317.455 26.888 317.871 26.38 318.399 26.02C318.927 25.652 319.543 25.468 320.247 25.468C320.943 25.468 321.555 25.652 322.083 26.02C322.611 26.38 323.023 26.888 323.319 27.544C323.623 28.192 323.775 28.944 323.775 29.8C323.775 30.656 323.623 31.412 323.319 32.068C323.023 32.716 322.611 33.224 322.083 33.592C321.555 33.952 320.943 34.132 320.247 34.132ZM320.247 33.088C320.727 33.088 321.143 32.956 321.495 32.692C321.847 32.42 322.119 32.036 322.311 31.54C322.503 31.044 322.599 30.464 322.599 29.8C322.599 29.128 322.503 28.548 322.311 28.06C322.119 27.564 321.847 27.184 321.495 26.92C321.143 26.648 320.727 26.512 320.247 26.512C319.767 26.512 319.351 26.648 318.999 26.92C318.647 27.184 318.371 27.564 318.171 28.06C317.979 28.548 317.883 29.128 317.883 29.8C317.883 30.464 317.979 31.044 318.171 31.54C318.371 32.036 318.647 32.42 318.999 32.692C319.351 32.956 319.767 33.088 320.247 33.088ZM328.298 34.132C327.594 34.132 326.978 33.952 326.45 33.592C325.922 33.224 325.506 32.716 325.202 32.068C324.906 31.412 324.758 30.656 324.758 29.8C324.758 28.944 324.906 28.192 325.202 27.544C325.506 26.888 325.922 26.38 326.45 26.02C326.978 25.652 327.594 25.468 328.298 25.468C328.994 25.468 329.606 25.652 330.134 26.02C330.662 26.38 331.074 26.888 331.37 27.544C331.674 28.192 331.826 28.944 331.826 29.8C331.826 30.656 331.674 31.412 331.37 32.068C331.074 32.716 330.662 33.224 330.134 33.592C329.606 33.952 328.994 34.132 328.298 34.132ZM328.298 33.088C328.778 33.088 329.194 32.956 329.546 32.692C329.898 32.42 330.17 32.036 330.362 31.54C330.554 31.044 330.65 30.464 330.65 29.8C330.65 29.128 330.554 28.548 330.362 28.06C330.17 27.564 329.898 27.184 329.546 26.92C329.194 26.648 328.778 26.512 328.298 26.512C327.818 26.512 327.402 26.648 327.05 26.92C326.698 27.184 326.422 27.564 326.222 28.06C326.03 28.548 325.934 29.128 325.934 29.8C325.934 30.464 326.03 31.044 326.222 31.54C326.422 32.036 326.698 32.42 327.05 32.692C327.402 32.956 327.818 33.088 328.298 33.088ZM336.348 34.132C335.644 34.132 335.028 33.952 334.5 33.592C333.972 33.224 333.556 32.716 333.252 32.068C332.956 31.412 332.808 30.656 332.808 29.8C332.808 28.944 332.956 28.192 333.252 27.544C333.556 26.888 333.972 26.38 334.5 26.02C335.028 25.652 335.644 25.468 336.348 25.468C337.044 25.468 337.656 25.652 338.184 26.02C338.712 26.38 339.124 26.888 339.42 27.544C339.724 28.192 339.876 28.944 339.876 29.8C339.876 30.656 339.724 31.412 339.42 32.068C339.124 32.716 338.712 33.224 338.184 33.592C337.656 33.952 337.044 34.132 336.348 34.132ZM336.348 33.088C336.828 33.088 337.244 32.956 337.596 32.692C337.948 32.42 338.22 32.036 338.412 31.54C338.604 31.044 338.7 30.464 338.7 29.8C338.7 29.128 338.604 28.548 338.412 28.06C338.22 27.564 337.948 27.184 337.596 26.92C337.244 26.648 336.828 26.512 336.348 26.512C335.868 26.512 335.452 26.648 335.1 26.92C334.748 27.184 334.472 27.564 334.272 28.06C334.08 28.548 333.984 29.128 333.984 29.8C333.984 30.464 334.08 31.044 334.272 31.54C334.472 32.036 334.748 32.42 335.1 32.692C335.452 32.956 335.868 33.088 336.348 33.088ZM341.562 34.084C341.355 34.084 341.175 34.012 341.023 33.868C340.879 33.716 340.807 33.536 340.807 33.328C340.807 33.12 340.879 32.944 341.023 32.8C341.175 32.648 341.355 32.572 341.562 32.572C341.771 32.572 341.947 32.648 342.091 32.8C342.243 32.944 342.319 33.12 342.319 33.328C342.319 33.536 342.243 33.716 342.091 33.868C341.947 34.012 341.771 34.084 341.562 34.084ZM346.79 34.132C346.086 34.132 345.47 33.952 344.942 33.592C344.414 33.224 343.998 32.716 343.694 32.068C343.398 31.412 343.25 30.656 343.25 29.8C343.25 28.944 343.398 28.192 343.694 27.544C343.998 26.888 344.414 26.38 344.942 26.02C345.47 25.652 346.086 25.468 346.79 25.468C347.486 25.468 348.098 25.652 348.626 26.02C349.154 26.38 349.566 26.888 349.862 27.544C350.166 28.192 350.318 28.944 350.318 29.8C350.318 30.656 350.166 31.412 349.862 32.068C349.566 32.716 349.154 33.224 348.626 33.592C348.098 33.952 347.486 34.132 346.79 34.132ZM346.79 33.088C347.27 33.088 347.686 32.956 348.038 32.692C348.39 32.42 348.662 32.036 348.854 31.54C349.046 31.044 349.142 30.464 349.142 29.8C349.142 29.128 349.046 28.548 348.854 28.06C348.662 27.564 348.39 27.184 348.038 26.92C347.686 26.648 347.27 26.512 346.79 26.512C346.31 26.512 345.894 26.648 345.542 26.92C345.19 27.184 344.914 27.564 344.714 28.06C344.522 28.548 344.426 29.128 344.426 29.8C344.426 30.464 344.522 31.044 344.714 31.54C344.914 32.036 345.19 32.42 345.542 32.692C345.894 32.956 346.31 33.088 346.79 33.088ZM354.841 34.132C354.137 34.132 353.521 33.952 352.993 33.592C352.465 33.224 352.049 32.716 351.745 32.068C351.449 31.412 351.301 30.656 351.301 29.8C351.301 28.944 351.449 28.192 351.745 27.544C352.049 26.888 352.465 26.38 352.993 26.02C353.521 25.652 354.137 25.468 354.841 25.468C355.537 25.468 356.149 25.652 356.677 26.02C357.205 26.38 357.617 26.888 357.913 27.544C358.217 28.192 358.369 28.944 358.369 29.8C358.369 30.656 358.217 31.412 357.913 32.068C357.617 32.716 357.205 33.224 356.677 33.592C356.149 33.952 355.537 34.132 354.841 34.132ZM354.841 33.088C355.321 33.088 355.737 32.956 356.089 32.692C356.441 32.42 356.713 32.036 356.905 31.54C357.097 31.044 357.193 30.464 357.193 29.8C357.193 29.128 357.097 28.548 356.905 28.06C356.713 27.564 356.441 27.184 356.089 26.92C355.737 26.648 355.321 26.512 354.841 26.512C354.361 26.512 353.945 26.648 353.593 26.92C353.241 27.184 352.965 27.564 352.765 28.06C352.573 28.548 352.477 29.128 352.477 29.8C352.477 30.464 352.573 31.044 352.765 31.54C352.965 32.036 353.241 32.42 353.593 32.692C353.945 32.956 354.361 33.088 354.841 33.088Z" fill="#828DA9"/>
<defs>
<linearGradient id="paint0_linear_1465_21777" x1="16" y1="30" x2="83" y2="30" gradientUnits="userSpaceOnUse">
<stop stop-color="#E6FBEE"/>
<stop offset="1" stop-color="#E3EEFF"/>
</linearGradient>
</defs>
</svg>
