<svg width="343" height="44" viewBox="0 0 343 44" fill="none" xmlns="http://www.w3.org/2000/svg">
<path d="M0.5 22C0.5 17.2972 0.500744 13.812 0.806823 11.097C1.11177 8.39202 1.71448 6.51354 2.87644 4.99924C3.48824 4.20192 4.20192 3.48824 4.99924 2.87644C6.51354 1.71448 8.39202 1.11177 11.097 0.806823C13.812 0.500744 17.2972 0.5 22 0.5H321C325.703 0.5 329.188 0.500744 331.903 0.806823C334.608 1.11177 336.486 1.71448 338.001 2.87644C338.798 3.48824 339.512 4.20192 340.124 4.99924C341.286 6.51354 341.888 8.39202 342.193 11.097C342.499 13.812 342.5 17.2972 342.5 22C342.5 26.7028 342.499 30.188 342.193 32.903C341.888 35.608 341.286 37.4865 340.124 39.0008C339.512 39.7981 338.798 40.5118 338.001 41.1236C336.486 42.2855 334.608 42.8882 331.903 43.1932C329.188 43.4993 325.703 43.5 321 43.5H22C17.2972 43.5 13.812 43.4993 11.097 43.1932C8.39202 42.8882 6.51354 42.2855 4.99924 41.1236C4.20192 40.5118 3.48824 39.7981 2.87644 39.0008C1.71448 37.4865 1.11177 35.608 0.806823 32.903C0.500744 30.188 0.5 26.7028 0.5 22Z" fill="#FFF3D5"/>
<path d="M0.5 22C0.5 17.2972 0.500744 13.812 0.806823 11.097C1.11177 8.39202 1.71448 6.51354 2.87644 4.99924C3.48824 4.20192 4.20192 3.48824 4.99924 2.87644C6.51354 1.71448 8.39202 1.11177 11.097 0.806823C13.812 0.500744 17.2972 0.5 22 0.5H321C325.703 0.5 329.188 0.500744 331.903 0.806823C334.608 1.11177 336.486 1.71448 338.001 2.87644C338.798 3.48824 339.512 4.20192 340.124 4.99924C341.286 6.51354 341.888 8.39202 342.193 11.097C342.499 13.812 342.5 17.2972 342.5 22C342.5 26.7028 342.499 30.188 342.193 32.903C341.888 35.608 341.286 37.4865 340.124 39.0008C339.512 39.7981 338.798 40.5118 338.001 41.1236C336.486 42.2855 334.608 42.8882 331.903 43.1932C329.188 43.4993 325.703 43.5 321 43.5H22C17.2972 43.5 13.812 43.4993 11.097 43.1932C8.39202 42.8882 6.51354 42.2855 4.99924 41.1236C4.20192 40.5118 3.48824 39.7981 2.87644 39.0008C1.71448 37.4865 1.11177 35.608 0.806823 32.903C0.500744 30.188 0.5 26.7028 0.5 22Z" stroke="#E2E4EB"/>
<path d="M20 16.25C20.4142 16.25 20.75 16.5858 20.75 17V23C20.75 23.4142 20.4142 23.75 20 23.75C19.5858 23.75 19.25 23.4142 19.25 23V17C19.25 16.5858 19.5858 16.25 20 16.25Z" fill="#FFBE62"/>
<path d="M21 26C21 26.5523 20.5523 27 20 27C19.4477 27 19 26.5523 19 26C19 25.4477 19.4477 25 20 25C20.5523 25 21 25.4477 21 26Z" fill="#FFBE62"/>
<path fill-rule="evenodd" clip-rule="evenodd" d="M20 11.25C19.2954 11.25 18.6519 11.4436 17.9486 11.7704C17.2681 12.0866 16.4804 12.553 15.4946 13.1369L14.7415 13.5828C13.7553 14.1668 12.9677 14.6332 12.3608 15.0794C11.7331 15.5408 11.2518 16.0131 10.9033 16.6321C10.5555 17.2501 10.3984 17.9109 10.3231 18.6951C10.25 19.4554 10.25 20.3865 10.25 21.556V22.444C10.25 23.6135 10.25 24.5446 10.3231 25.3049C10.3984 26.0891 10.5555 26.7499 10.9033 27.3679C11.2518 27.9869 11.7331 28.4592 12.3608 28.9206C12.9677 29.3668 13.7553 29.8332 14.7415 30.4172L15.4946 30.8632C16.4804 31.447 17.2681 31.9135 17.9486 32.2296C18.6519 32.5564 19.2954 32.75 20 32.75C20.7046 32.75 21.3481 32.5564 22.0514 32.2296C22.7319 31.9134 23.5196 31.447 24.5054 30.8632L25.2585 30.4172C26.2446 29.8332 27.0323 29.3668 27.6392 28.9206C28.2669 28.4592 28.7482 27.9869 29.0967 27.3679C29.4445 26.7499 29.6016 26.0891 29.6769 25.3049C29.75 24.5446 29.75 23.6135 29.75 22.4441V21.556C29.75 20.3866 29.75 19.4554 29.6769 18.6951C29.6016 17.9109 29.4445 17.2501 29.0967 16.6321C28.7482 16.0131 28.2669 15.5408 27.6392 15.0794C27.0323 14.6332 26.2447 14.1668 25.2585 13.5828L24.5054 13.1368C23.5196 12.553 22.7319 12.0866 22.0514 11.7704C21.3481 11.4436 20.7046 11.25 20 11.25ZM16.2252 14.4474C17.2524 13.8392 17.9761 13.4116 18.5807 13.1307C19.1702 12.8568 19.5907 12.75 20 12.75C20.4093 12.75 20.8298 12.8568 21.4193 13.1307C22.0239 13.4116 22.7476 13.8392 23.7748 14.4474L24.4609 14.8538C25.4879 15.462 26.2109 15.8911 26.7508 16.288C27.2767 16.6747 27.581 16.9975 27.7895 17.3679C27.9986 17.7393 28.1199 18.1739 28.1838 18.8386C28.2492 19.5188 28.25 20.378 28.25 21.5937V22.4063C28.25 23.622 28.2492 24.4812 28.1838 25.1614C28.1199 25.8261 27.9986 26.2607 27.7895 26.6321C27.581 27.0025 27.2767 27.3253 26.7508 27.712C26.2109 28.1089 25.4879 28.538 24.4609 29.1462L23.7748 29.5526C22.7476 30.1608 22.0239 30.5884 21.4193 30.8693C20.8298 31.1432 20.4093 31.25 20 31.25C19.5907 31.25 19.1702 31.1432 18.5807 30.8693C17.9761 30.5884 17.2524 30.1608 16.2252 29.5526L15.5391 29.1462C14.5121 28.538 13.7891 28.1089 13.2492 27.712C12.7233 27.3253 12.419 27.0025 12.2105 26.6321C12.0014 26.2607 11.8801 25.8261 11.8162 25.1614C11.7508 24.4812 11.75 23.622 11.75 22.4063V21.5937C11.75 20.378 11.7508 19.5188 11.8162 18.8386C11.8801 18.1739 12.0014 17.7393 12.2105 17.3679C12.419 16.9975 12.7233 16.6747 13.2492 16.288C13.7891 15.8911 14.5121 15.462 15.5391 14.8538L16.2252 14.4474Z" fill="#FFBE62"/>
<path d="M40.048 19L43.528 10.6H44.644L48.1 19H47.092L46.036 16.36H42.076L41.008 19H40.048ZM42.4 15.568H45.712L44.056 11.452L42.4 15.568ZM54.2267 19.096C53.6667 19.096 53.1547 18.96 52.6907 18.688C52.2347 18.408 51.8707 18.036 51.5987 17.572C51.3347 17.1 51.2027 16.572 51.2027 15.988C51.2027 15.404 51.3347 14.88 51.5987 14.416C51.8707 13.952 52.2347 13.584 52.6907 13.312C53.1547 13.032 53.6707 12.892 54.2387 12.892C54.5907 12.892 54.9307 12.952 55.2587 13.072C55.5867 13.184 55.8867 13.352 56.1587 13.576V10.6L57.0467 10.396V19H56.1707V18.364C55.6427 18.852 54.9947 19.096 54.2267 19.096ZM54.3107 18.316C54.6867 18.316 55.0347 18.244 55.3547 18.1C55.6827 17.948 55.9507 17.74 56.1587 17.476V14.5C55.9507 14.244 55.6827 14.044 55.3547 13.9C55.0347 13.748 54.6867 13.672 54.3107 13.672C53.8947 13.672 53.5147 13.772 53.1707 13.972C52.8347 14.172 52.5667 14.448 52.3667 14.8C52.1747 15.144 52.0787 15.536 52.0787 15.976C52.0787 16.416 52.1747 16.812 52.3667 17.164C52.5667 17.516 52.8347 17.796 53.1707 18.004C53.5147 18.212 53.8947 18.316 54.3107 18.316ZM61.3768 19.108C60.8008 19.108 60.2768 18.972 59.8048 18.7C59.3408 18.42 58.9688 18.044 58.6888 17.572C58.4168 17.1 58.2808 16.572 58.2808 15.988C58.2808 15.412 58.4128 14.892 58.6768 14.428C58.9408 13.956 59.2968 13.584 59.7448 13.312C60.1928 13.032 60.6928 12.892 61.2448 12.892C61.7808 12.892 62.2608 13.032 62.6848 13.312C63.1168 13.584 63.4568 13.956 63.7048 14.428C63.9608 14.892 64.0888 15.412 64.0888 15.988V16.264H59.1568C59.2048 16.656 59.3288 17.008 59.5288 17.32C59.7368 17.632 60.0048 17.88 60.3328 18.064C60.6608 18.24 61.0208 18.328 61.4128 18.328C61.7248 18.328 62.0288 18.28 62.3248 18.184C62.6208 18.088 62.8688 17.952 63.0688 17.776L63.6208 18.364C63.2848 18.612 62.9328 18.8 62.5648 18.928C62.2048 19.048 61.8088 19.108 61.3768 19.108ZM59.1808 15.556H63.2008C63.1528 15.196 63.0328 14.876 62.8408 14.596C62.6568 14.308 62.4248 14.084 62.1448 13.924C61.8648 13.756 61.5568 13.672 61.2208 13.672C60.8768 13.672 60.5608 13.752 60.2728 13.912C59.9848 14.072 59.7448 14.296 59.5528 14.584C59.3608 14.864 59.2368 15.188 59.1808 15.556ZM65.3302 19V10.6L66.2182 10.396V19H65.3302ZM67.7326 19V12.988H68.6206V19H67.7326ZM68.1766 11.836C68.0166 11.836 67.8766 11.776 67.7566 11.656C67.6366 11.536 67.5766 11.396 67.5766 11.236C67.5766 11.068 67.6366 10.928 67.7566 10.816C67.8766 10.696 68.0166 10.636 68.1766 10.636C68.3446 10.636 68.4846 10.696 68.5966 10.816C68.7166 10.928 68.7766 11.068 68.7766 11.236C68.7766 11.396 68.7166 11.536 68.5966 11.656C68.4846 11.776 68.3446 11.836 68.1766 11.836ZM72.0429 19L69.4389 12.988H70.4229L72.4749 17.848L74.5269 12.988H75.4749L72.8829 19H72.0429ZM78.9315 19.108C78.3555 19.108 77.8315 18.972 77.3595 18.7C76.8955 18.42 76.5235 18.044 76.2435 17.572C75.9715 17.1 75.8355 16.572 75.8355 15.988C75.8355 15.412 75.9675 14.892 76.2315 14.428C76.4955 13.956 76.8515 13.584 77.2995 13.312C77.7475 13.032 78.2475 12.892 78.7995 12.892C79.3355 12.892 79.8155 13.032 80.2395 13.312C80.6715 13.584 81.0115 13.956 81.2595 14.428C81.5155 14.892 81.6435 15.412 81.6435 15.988V16.264H76.7115C76.7595 16.656 76.8835 17.008 77.0835 17.32C77.2915 17.632 77.5595 17.88 77.8875 18.064C78.2155 18.24 78.5755 18.328 78.9675 18.328C79.2795 18.328 79.5835 18.28 79.8795 18.184C80.1755 18.088 80.4235 17.952 80.6235 17.776L81.1755 18.364C80.8395 18.612 80.4875 18.8 80.1195 18.928C79.7595 19.048 79.3635 19.108 78.9315 19.108ZM76.7355 15.556H80.7555C80.7075 15.196 80.5875 14.876 80.3955 14.596C80.2115 14.308 79.9795 14.084 79.6995 13.924C79.4195 13.756 79.1115 13.672 78.7755 13.672C78.4315 13.672 78.1155 13.752 77.8275 13.912C77.5395 14.072 77.2995 14.296 77.1075 14.584C76.9155 14.864 76.7915 15.188 76.7355 15.556ZM82.8849 19V12.988H83.7729V13.84C83.9569 13.528 84.1889 13.288 84.4689 13.12C84.7569 12.944 85.0849 12.856 85.4529 12.856C85.6609 12.856 85.8489 12.884 86.0169 12.94V13.756C85.9129 13.716 85.8089 13.688 85.7049 13.672C85.6009 13.656 85.4969 13.648 85.3929 13.648C85.0249 13.648 84.7009 13.756 84.4209 13.972C84.1489 14.18 83.9329 14.484 83.7729 14.884V19H82.8849ZM87.4025 21.568C87.2905 21.568 87.1825 21.56 87.0785 21.544C86.9825 21.536 86.9025 21.524 86.8385 21.508V20.704C86.9745 20.736 87.1425 20.752 87.3425 20.752C87.8705 20.752 88.2705 20.44 88.5425 19.816L88.9025 18.988L86.4545 12.988H87.4385L89.3825 17.92L91.4825 12.988H92.4425L89.4425 19.936C89.2745 20.32 89.0945 20.632 88.9025 20.872C88.7105 21.112 88.4905 21.288 88.2425 21.4C88.0025 21.512 87.7225 21.568 87.4025 21.568ZM96.7098 19V13.744H95.2938V12.988H96.7098V11.848C96.7098 11.256 96.8698 10.804 97.1898 10.492C97.5098 10.18 97.9698 10.024 98.5698 10.024C98.7298 10.024 98.8738 10.032 99.0018 10.048C99.1298 10.064 99.2538 10.092 99.3738 10.132V10.924C99.2378 10.884 99.1138 10.856 99.0018 10.84C98.8898 10.816 98.7658 10.804 98.6298 10.804C98.2778 10.804 98.0138 10.892 97.8378 11.068C97.6698 11.236 97.5858 11.504 97.5858 11.872V12.988H99.3738V13.744H97.5858V19H96.7098ZM102.849 19.108C102.273 19.108 101.749 18.972 101.277 18.7C100.813 18.42 100.441 18.044 100.161 17.572C99.8894 17.1 99.7534 16.572 99.7534 15.988C99.7534 15.412 99.8854 14.892 100.149 14.428C100.413 13.956 100.769 13.584 101.217 13.312C101.665 13.032 102.165 12.892 102.717 12.892C103.253 12.892 103.733 13.032 104.157 13.312C104.589 13.584 104.929 13.956 105.177 14.428C105.433 14.892 105.561 15.412 105.561 15.988V16.264H100.629C100.677 16.656 100.801 17.008 101.001 17.32C101.209 17.632 101.477 17.88 101.805 18.064C102.133 18.24 102.493 18.328 102.885 18.328C103.197 18.328 103.501 18.28 103.797 18.184C104.093 18.088 104.341 17.952 104.541 17.776L105.093 18.364C104.757 18.612 104.405 18.8 104.037 18.928C103.677 19.048 103.281 19.108 102.849 19.108ZM100.653 15.556H104.673C104.625 15.196 104.505 14.876 104.313 14.596C104.129 14.308 103.897 14.084 103.617 13.924C103.337 13.756 103.029 13.672 102.693 13.672C102.349 13.672 102.033 13.752 101.745 13.912C101.457 14.072 101.217 14.296 101.025 14.584C100.833 14.864 100.709 15.188 100.653 15.556ZM109.623 19.108C109.047 19.108 108.523 18.972 108.051 18.7C107.587 18.42 107.215 18.044 106.935 17.572C106.663 17.1 106.527 16.572 106.527 15.988C106.527 15.412 106.659 14.892 106.923 14.428C107.187 13.956 107.543 13.584 107.991 13.312C108.439 13.032 108.939 12.892 109.491 12.892C110.027 12.892 110.507 13.032 110.931 13.312C111.363 13.584 111.703 13.956 111.951 14.428C112.207 14.892 112.335 15.412 112.335 15.988V16.264H107.403C107.451 16.656 107.575 17.008 107.775 17.32C107.983 17.632 108.251 17.88 108.579 18.064C108.907 18.24 109.267 18.328 109.659 18.328C109.971 18.328 110.275 18.28 110.571 18.184C110.867 18.088 111.115 17.952 111.315 17.776L111.867 18.364C111.531 18.612 111.179 18.8 110.811 18.928C110.451 19.048 110.055 19.108 109.623 19.108ZM107.427 15.556H111.447C111.399 15.196 111.279 14.876 111.087 14.596C110.903 14.308 110.671 14.084 110.391 13.924C110.111 13.756 109.803 13.672 109.467 13.672C109.123 13.672 108.807 13.752 108.519 13.912C108.231 14.072 107.991 14.296 107.799 14.584C107.607 14.864 107.483 15.188 107.427 15.556ZM118.95 19.12C118.382 19.12 117.862 18.984 117.39 18.712C116.926 18.432 116.558 18.056 116.286 17.584C116.014 17.112 115.878 16.584 115.878 16C115.878 15.416 116.014 14.888 116.286 14.416C116.558 13.944 116.926 13.572 117.39 13.3C117.862 13.02 118.382 12.88 118.95 12.88C119.526 12.88 120.046 13.02 120.51 13.3C120.974 13.572 121.342 13.944 121.614 14.416C121.886 14.888 122.022 15.416 122.022 16C122.022 16.584 121.886 17.112 121.614 17.584C121.342 18.056 120.974 18.432 120.51 18.712C120.046 18.984 119.526 19.12 118.95 19.12ZM118.95 18.328C119.358 18.328 119.726 18.224 120.054 18.016C120.39 17.808 120.654 17.528 120.846 17.176C121.046 16.824 121.146 16.432 121.146 16C121.146 15.56 121.046 15.168 120.846 14.824C120.654 14.472 120.39 14.192 120.054 13.984C119.726 13.776 119.358 13.672 118.95 13.672C118.542 13.672 118.17 13.776 117.834 13.984C117.506 14.192 117.242 14.472 117.042 14.824C116.85 15.168 116.754 15.56 116.754 16C116.754 16.432 116.85 16.824 117.042 17.176C117.242 17.528 117.506 17.808 117.834 18.016C118.17 18.224 118.542 18.328 118.95 18.328ZM123.698 19V13.744H122.282V12.988H123.698V11.848C123.698 11.256 123.858 10.804 124.178 10.492C124.498 10.18 124.958 10.024 125.558 10.024C125.718 10.024 125.862 10.032 125.99 10.048C126.118 10.064 126.242 10.092 126.362 10.132V10.924C126.226 10.884 126.102 10.856 125.99 10.84C125.878 10.816 125.754 10.804 125.618 10.804C125.266 10.804 125.002 10.892 124.826 11.068C124.658 11.236 124.574 11.504 124.574 11.872V12.988H126.362V13.744H124.574V19H123.698ZM130.069 19V10.6H130.993L136.045 17.416V10.6H136.921V19H136.105L130.945 12.004V19H130.069ZM142.712 19.132C142.104 19.132 141.536 19.02 141.008 18.796C140.488 18.572 140.028 18.264 139.628 17.872C139.236 17.472 138.928 17.012 138.704 16.492C138.48 15.964 138.368 15.4 138.368 14.8C138.368 14.2 138.476 13.64 138.692 13.12C138.916 12.592 139.224 12.132 139.616 11.74C140.016 11.34 140.476 11.028 140.996 10.804C141.524 10.58 142.092 10.468 142.7 10.468C143.348 10.468 143.96 10.588 144.536 10.828C145.112 11.068 145.604 11.408 146.012 11.848L145.388 12.484C145.068 12.116 144.668 11.832 144.188 11.632C143.716 11.424 143.22 11.32 142.7 11.32C142.22 11.32 141.772 11.408 141.356 11.584C140.948 11.76 140.588 12.008 140.276 12.328C139.972 12.64 139.732 13.008 139.556 13.432C139.388 13.848 139.304 14.304 139.304 14.8C139.304 15.288 139.388 15.744 139.556 16.168C139.732 16.592 139.972 16.964 140.276 17.284C140.588 17.596 140.948 17.84 141.356 18.016C141.772 18.192 142.22 18.28 142.7 18.28C143.268 18.28 143.78 18.156 144.236 17.908C144.7 17.66 145.072 17.32 145.352 16.888C145.64 16.456 145.808 15.968 145.856 15.424H142.844V14.608H146.792V14.98C146.792 15.564 146.688 16.108 146.48 16.612C146.272 17.116 145.984 17.556 145.616 17.932C145.248 18.308 144.816 18.604 144.32 18.82C143.824 19.028 143.288 19.132 142.712 19.132ZM148.221 19V10.6H149.145L154.197 17.416V10.6H155.073V19H154.257L149.097 12.004V19H148.221ZM160.322 19V11.524L158.906 12.148V11.344L160.634 10.6H161.198V19H160.322ZM166.011 19.132C165.339 19.132 164.747 18.948 164.235 18.58C163.723 18.212 163.319 17.704 163.023 17.056C162.735 16.4 162.591 15.648 162.591 14.8C162.591 13.952 162.735 13.204 163.023 12.556C163.319 11.9 163.723 11.388 164.235 11.02C164.747 10.652 165.339 10.468 166.011 10.468C166.683 10.468 167.275 10.652 167.787 11.02C168.299 11.388 168.699 11.9 168.987 12.556C169.283 13.204 169.431 13.952 169.431 14.8C169.431 15.648 169.283 16.4 168.987 17.056C168.699 17.704 168.299 18.212 167.787 18.58C167.275 18.948 166.683 19.132 166.011 19.132ZM166.011 18.352C166.531 18.352 166.979 18.208 167.355 17.92C167.739 17.624 168.035 17.208 168.243 16.672C168.451 16.136 168.555 15.512 168.555 14.8C168.555 14.08 168.451 13.456 168.243 12.928C168.035 12.392 167.739 11.98 167.355 11.692C166.979 11.396 166.531 11.248 166.011 11.248C165.499 11.248 165.051 11.396 164.667 11.692C164.283 11.98 163.987 12.392 163.779 12.928C163.571 13.456 163.467 14.08 163.467 14.8C163.467 15.512 163.571 16.136 163.779 16.672C163.987 17.208 164.283 17.624 164.667 17.92C165.051 18.208 165.499 18.352 166.011 18.352ZM173.956 19.132C173.284 19.132 172.692 18.948 172.18 18.58C171.668 18.212 171.264 17.704 170.968 17.056C170.68 16.4 170.536 15.648 170.536 14.8C170.536 13.952 170.68 13.204 170.968 12.556C171.264 11.9 171.668 11.388 172.18 11.02C172.692 10.652 173.284 10.468 173.956 10.468C174.628 10.468 175.22 10.652 175.732 11.02C176.244 11.388 176.644 11.9 176.932 12.556C177.228 13.204 177.376 13.952 177.376 14.8C177.376 15.648 177.228 16.4 176.932 17.056C176.644 17.704 176.244 18.212 175.732 18.58C175.22 18.948 174.628 19.132 173.956 19.132ZM173.956 18.352C174.476 18.352 174.924 18.208 175.3 17.92C175.684 17.624 175.98 17.208 176.188 16.672C176.396 16.136 176.5 15.512 176.5 14.8C176.5 14.08 176.396 13.456 176.188 12.928C175.98 12.392 175.684 11.98 175.3 11.692C174.924 11.396 174.476 11.248 173.956 11.248C173.444 11.248 172.996 11.396 172.612 11.692C172.228 11.98 171.932 12.392 171.724 12.928C171.516 13.456 171.412 14.08 171.412 14.8C171.412 15.512 171.516 16.136 171.724 16.672C171.932 17.208 172.228 17.624 172.612 17.92C172.996 18.208 173.444 18.352 173.956 18.352ZM181.902 19.132C181.23 19.132 180.638 18.948 180.126 18.58C179.614 18.212 179.21 17.704 178.914 17.056C178.626 16.4 178.482 15.648 178.482 14.8C178.482 13.952 178.626 13.204 178.914 12.556C179.21 11.9 179.614 11.388 180.126 11.02C180.638 10.652 181.23 10.468 181.902 10.468C182.574 10.468 183.166 10.652 183.678 11.02C184.19 11.388 184.59 11.9 184.878 12.556C185.174 13.204 185.322 13.952 185.322 14.8C185.322 15.648 185.174 16.4 184.878 17.056C184.59 17.704 184.19 18.212 183.678 18.58C183.166 18.948 182.574 19.132 181.902 19.132ZM181.902 18.352C182.422 18.352 182.87 18.208 183.246 17.92C183.63 17.624 183.926 17.208 184.134 16.672C184.342 16.136 184.446 15.512 184.446 14.8C184.446 14.08 184.342 13.456 184.134 12.928C183.926 12.392 183.63 11.98 183.246 11.692C182.87 11.396 182.422 11.248 181.902 11.248C181.39 11.248 180.942 11.396 180.558 11.692C180.174 11.98 179.878 12.392 179.67 12.928C179.462 13.456 179.358 14.08 179.358 14.8C179.358 15.512 179.462 16.136 179.67 16.672C179.878 17.208 180.174 17.624 180.558 17.92C180.942 18.208 181.39 18.352 181.902 18.352ZM190.313 19L188.621 12.988H189.497L190.793 17.788L192.293 12.988H193.085L194.573 17.788L195.881 12.988H196.721L195.017 19H194.165L192.677 14.188L191.177 19H190.313ZM197.647 19V12.988H198.535V19H197.647ZM198.091 11.836C197.931 11.836 197.791 11.776 197.671 11.656C197.551 11.536 197.491 11.396 197.491 11.236C197.491 11.068 197.551 10.928 197.671 10.816C197.791 10.696 197.931 10.636 198.091 10.636C198.259 10.636 198.399 10.696 198.511 10.816C198.631 10.928 198.691 11.068 198.691 11.236C198.691 11.396 198.631 11.536 198.511 11.656C198.399 11.776 198.259 11.836 198.091 11.836ZM200.049 19V10.6L200.937 10.396V19H200.049ZM202.451 19V10.6L203.339 10.396V19H202.451ZM207.432 19V10.6L208.32 10.396V13.624C208.832 13.136 209.476 12.892 210.252 12.892C210.82 12.892 211.332 13.032 211.788 13.312C212.244 13.584 212.604 13.952 212.868 14.416C213.14 14.88 213.276 15.404 213.276 15.988C213.276 16.572 213.14 17.1 212.868 17.572C212.604 18.036 212.244 18.408 211.788 18.688C211.332 18.96 210.816 19.096 210.24 19.096C209.888 19.096 209.544 19.036 209.208 18.916C208.88 18.796 208.58 18.624 208.308 18.4V19H207.432ZM210.168 18.316C210.592 18.316 210.972 18.216 211.308 18.016C211.644 17.808 211.908 17.532 212.1 17.188C212.3 16.836 212.4 16.44 212.4 16C212.4 15.56 212.3 15.164 212.1 14.812C211.908 14.46 211.644 14.184 211.308 13.984C210.972 13.776 210.592 13.672 210.168 13.672C209.792 13.672 209.44 13.748 209.112 13.9C208.792 14.044 208.528 14.248 208.32 14.512V17.488C208.528 17.744 208.796 17.948 209.124 18.1C209.452 18.244 209.8 18.316 210.168 18.316ZM217.33 19.108C216.754 19.108 216.23 18.972 215.758 18.7C215.294 18.42 214.922 18.044 214.642 17.572C214.37 17.1 214.234 16.572 214.234 15.988C214.234 15.412 214.366 14.892 214.63 14.428C214.894 13.956 215.25 13.584 215.698 13.312C216.146 13.032 216.646 12.892 217.198 12.892C217.734 12.892 218.214 13.032 218.638 13.312C219.07 13.584 219.41 13.956 219.658 14.428C219.914 14.892 220.042 15.412 220.042 15.988V16.264H215.11C215.158 16.656 215.282 17.008 215.482 17.32C215.69 17.632 215.958 17.88 216.286 18.064C216.614 18.24 216.974 18.328 217.366 18.328C217.678 18.328 217.982 18.28 218.278 18.184C218.574 18.088 218.822 17.952 219.022 17.776L219.574 18.364C219.238 18.612 218.886 18.8 218.518 18.928C218.158 19.048 217.762 19.108 217.33 19.108ZM215.134 15.556H219.154C219.106 15.196 218.986 14.876 218.794 14.596C218.61 14.308 218.378 14.084 218.098 13.924C217.818 13.756 217.51 13.672 217.174 13.672C216.83 13.672 216.514 13.752 216.226 13.912C215.938 14.072 215.698 14.296 215.506 14.584C215.314 14.864 215.19 15.188 215.134 15.556ZM226.645 19.108C226.077 19.108 225.561 18.972 225.097 18.7C224.633 18.42 224.265 18.044 223.993 17.572C223.721 17.1 223.585 16.572 223.585 15.988C223.585 15.404 223.721 14.88 223.993 14.416C224.265 13.944 224.633 13.568 225.097 13.288C225.561 13.008 226.077 12.868 226.645 12.868C227.085 12.868 227.509 12.952 227.917 13.12C228.325 13.28 228.685 13.512 228.997 13.816L228.433 14.464C228.193 14.208 227.917 14.016 227.605 13.888C227.301 13.752 226.985 13.684 226.657 13.684C226.249 13.684 225.877 13.788 225.541 13.996C225.213 14.196 224.949 14.472 224.749 14.824C224.557 15.168 224.461 15.556 224.461 15.988C224.461 16.42 224.557 16.812 224.749 17.164C224.949 17.516 225.217 17.796 225.553 18.004C225.889 18.204 226.261 18.304 226.669 18.304C226.997 18.304 227.305 18.24 227.593 18.112C227.889 17.984 228.165 17.796 228.421 17.548L228.973 18.148C228.653 18.452 228.293 18.688 227.893 18.856C227.493 19.024 227.077 19.108 226.645 19.108ZM230.014 19V10.6L230.902 10.396V13.696C231.374 13.144 232.006 12.868 232.798 12.868C233.254 12.868 233.654 12.968 233.998 13.168C234.35 13.36 234.622 13.632 234.814 13.984C235.014 14.328 235.114 14.732 235.114 15.196V19H234.238V15.376C234.238 14.84 234.086 14.42 233.782 14.116C233.486 13.804 233.078 13.648 232.558 13.648C232.198 13.648 231.878 13.728 231.598 13.888C231.318 14.048 231.086 14.276 230.902 14.572V19H230.014ZM238.496 19.108C238.056 19.108 237.668 19.032 237.332 18.88C237.004 18.728 236.744 18.516 236.552 18.244C236.368 17.972 236.276 17.656 236.276 17.296C236.276 16.728 236.492 16.28 236.924 15.952C237.356 15.624 237.94 15.46 238.676 15.46C239.324 15.46 239.912 15.596 240.44 15.868V15.076C240.44 14.596 240.304 14.236 240.032 13.996C239.76 13.748 239.364 13.624 238.844 13.624C238.548 13.624 238.248 13.668 237.944 13.756C237.648 13.836 237.32 13.968 236.96 14.152L236.624 13.468C237.056 13.26 237.456 13.108 237.824 13.012C238.192 12.916 238.56 12.868 238.928 12.868C239.688 12.868 240.272 13.048 240.68 13.408C241.096 13.768 241.304 14.284 241.304 14.956V19H240.44V18.412C240.168 18.644 239.868 18.82 239.54 18.94C239.22 19.052 238.872 19.108 238.496 19.108ZM237.128 17.272C237.128 17.608 237.268 17.884 237.548 18.1C237.836 18.308 238.204 18.412 238.652 18.412C239.012 18.412 239.34 18.356 239.636 18.244C239.932 18.132 240.2 17.956 240.44 17.716V16.588C240.192 16.42 239.928 16.3 239.648 16.228C239.368 16.148 239.052 16.108 238.7 16.108C238.22 16.108 237.836 16.216 237.548 16.432C237.268 16.64 237.128 16.92 237.128 17.272ZM242.787 19V12.988H243.675V13.84C243.859 13.528 244.091 13.288 244.371 13.12C244.659 12.944 244.987 12.856 245.355 12.856C245.563 12.856 245.751 12.884 245.919 12.94V13.756C245.815 13.716 245.711 13.688 245.607 13.672C245.503 13.656 245.399 13.648 245.295 13.648C244.927 13.648 244.603 13.756 244.323 13.972C244.051 14.18 243.835 14.484 243.675 14.884V19H242.787ZM249.442 21.568C249.026 21.568 248.614 21.512 248.206 21.4C247.798 21.296 247.426 21.144 247.09 20.944L247.474 20.248C247.834 20.44 248.166 20.58 248.47 20.668C248.782 20.756 249.094 20.8 249.406 20.8C249.974 20.8 250.406 20.664 250.702 20.392C250.998 20.12 251.146 19.72 251.146 19.192V18.352C250.594 18.816 249.958 19.048 249.238 19.048C248.686 19.048 248.182 18.912 247.726 18.64C247.27 18.368 246.906 18 246.634 17.536C246.37 17.064 246.238 16.54 246.238 15.964C246.238 15.388 246.37 14.868 246.634 14.404C246.906 13.932 247.27 13.56 247.726 13.288C248.182 13.016 248.694 12.88 249.262 12.88C249.606 12.88 249.938 12.94 250.258 13.06C250.586 13.18 250.886 13.356 251.158 13.588V12.988H252.034V19.18C252.034 19.948 251.81 20.536 251.362 20.944C250.914 21.36 250.274 21.568 249.442 21.568ZM249.31 18.268C249.694 18.268 250.046 18.196 250.366 18.052C250.686 17.908 250.946 17.704 251.146 17.44V14.488C250.946 14.232 250.682 14.032 250.354 13.888C250.034 13.744 249.686 13.672 249.31 13.672C248.894 13.672 248.518 13.772 248.182 13.972C247.854 14.172 247.594 14.448 247.402 14.8C247.21 15.144 247.114 15.532 247.114 15.964C247.114 16.396 247.21 16.788 247.402 17.14C247.602 17.484 247.866 17.76 248.194 17.968C248.53 18.168 248.902 18.268 249.31 18.268ZM256.365 19.108C255.789 19.108 255.265 18.972 254.793 18.7C254.329 18.42 253.957 18.044 253.677 17.572C253.405 17.1 253.269 16.572 253.269 15.988C253.269 15.412 253.401 14.892 253.665 14.428C253.929 13.956 254.285 13.584 254.733 13.312C255.181 13.032 255.681 12.892 256.233 12.892C256.769 12.892 257.249 13.032 257.673 13.312C258.105 13.584 258.445 13.956 258.693 14.428C258.949 14.892 259.077 15.412 259.077 15.988V16.264H254.145C254.193 16.656 254.317 17.008 254.517 17.32C254.725 17.632 254.993 17.88 255.321 18.064C255.649 18.24 256.009 18.328 256.401 18.328C256.713 18.328 257.017 18.28 257.313 18.184C257.609 18.088 257.857 17.952 258.057 17.776L258.609 18.364C258.273 18.612 257.921 18.8 257.553 18.928C257.193 19.048 256.797 19.108 256.365 19.108ZM254.169 15.556H258.189C258.141 15.196 258.021 14.876 257.829 14.596C257.645 14.308 257.413 14.084 257.133 13.924C256.853 13.756 256.545 13.672 256.209 13.672C255.865 13.672 255.549 13.752 255.261 13.912C254.973 14.072 254.733 14.296 254.541 14.584C254.349 14.864 254.225 15.188 254.169 15.556ZM263.067 19.096C262.507 19.096 261.995 18.96 261.531 18.688C261.075 18.408 260.711 18.036 260.439 17.572C260.175 17.1 260.043 16.572 260.043 15.988C260.043 15.404 260.175 14.88 260.439 14.416C260.711 13.952 261.075 13.584 261.531 13.312C261.995 13.032 262.511 12.892 263.079 12.892C263.431 12.892 263.771 12.952 264.099 13.072C264.427 13.184 264.727 13.352 264.999 13.576V10.6L265.887 10.396V19H265.011V18.364C264.483 18.852 263.835 19.096 263.067 19.096ZM263.151 18.316C263.527 18.316 263.875 18.244 264.195 18.1C264.523 17.948 264.791 17.74 264.999 17.476V14.5C264.791 14.244 264.523 14.044 264.195 13.9C263.875 13.748 263.527 13.672 263.151 13.672C262.735 13.672 262.355 13.772 262.011 13.972C261.675 14.172 261.407 14.448 261.207 14.8C261.015 15.144 260.919 15.536 260.919 15.976C260.919 16.416 261.015 16.812 261.207 17.164C261.407 17.516 261.675 17.796 262.011 18.004C262.355 18.212 262.735 18.316 263.151 18.316ZM270.839 19V13.744H269.423V12.988H270.839V11.848C270.839 11.256 270.999 10.804 271.319 10.492C271.639 10.18 272.099 10.024 272.699 10.024C272.859 10.024 273.003 10.032 273.131 10.048C273.259 10.064 273.383 10.092 273.503 10.132V10.924C273.367 10.884 273.243 10.856 273.131 10.84C273.019 10.816 272.895 10.804 272.759 10.804C272.407 10.804 272.143 10.892 271.967 11.068C271.799 11.236 271.715 11.504 271.715 11.872V12.988H273.503V13.744H271.715V19H270.839ZM274.463 19V12.988H275.351V13.84C275.535 13.528 275.767 13.288 276.047 13.12C276.335 12.944 276.663 12.856 277.031 12.856C277.239 12.856 277.427 12.884 277.595 12.94V13.756C277.491 13.716 277.387 13.688 277.283 13.672C277.179 13.656 277.075 13.648 276.971 13.648C276.603 13.648 276.279 13.756 275.999 13.972C275.727 14.18 275.511 14.484 275.351 14.884V19H274.463ZM280.986 19.12C280.418 19.12 279.898 18.984 279.426 18.712C278.962 18.432 278.594 18.056 278.322 17.584C278.05 17.112 277.914 16.584 277.914 16C277.914 15.416 278.05 14.888 278.322 14.416C278.594 13.944 278.962 13.572 279.426 13.3C279.898 13.02 280.418 12.88 280.986 12.88C281.562 12.88 282.082 13.02 282.546 13.3C283.01 13.572 283.378 13.944 283.65 14.416C283.922 14.888 284.058 15.416 284.058 16C284.058 16.584 283.922 17.112 283.65 17.584C283.378 18.056 283.01 18.432 282.546 18.712C282.082 18.984 281.562 19.12 280.986 19.12ZM280.986 18.328C281.394 18.328 281.762 18.224 282.09 18.016C282.426 17.808 282.69 17.528 282.882 17.176C283.082 16.824 283.182 16.432 283.182 16C283.182 15.56 283.082 15.168 282.882 14.824C282.69 14.472 282.426 14.192 282.09 13.984C281.762 13.776 281.394 13.672 280.986 13.672C280.578 13.672 280.206 13.776 279.87 13.984C279.542 14.192 279.278 14.472 279.078 14.824C278.886 15.168 278.79 15.56 278.79 16C278.79 16.432 278.886 16.824 279.078 17.176C279.278 17.528 279.542 17.808 279.87 18.016C280.206 18.224 280.578 18.328 280.986 18.328ZM285.291 19V12.988H286.179V13.648C286.635 13.128 287.223 12.868 287.943 12.868C288.367 12.868 288.743 12.968 289.071 13.168C289.399 13.36 289.655 13.624 289.839 13.96C290.087 13.592 290.383 13.32 290.727 13.144C291.071 12.96 291.463 12.868 291.903 12.868C292.343 12.868 292.727 12.968 293.055 13.168C293.383 13.36 293.639 13.632 293.823 13.984C294.015 14.328 294.111 14.732 294.111 15.196V19H293.235V15.376C293.235 14.84 293.095 14.42 292.815 14.116C292.535 13.804 292.155 13.648 291.675 13.648C291.347 13.648 291.047 13.732 290.775 13.9C290.503 14.06 290.271 14.304 290.079 14.632C290.095 14.72 290.107 14.812 290.115 14.908C290.131 14.996 290.139 15.092 290.139 15.196V19H289.263V15.376C289.263 14.84 289.123 14.42 288.843 14.116C288.563 13.804 288.187 13.648 287.715 13.648C287.395 13.648 287.103 13.724 286.839 13.876C286.583 14.02 286.363 14.236 286.179 14.524V19H285.291ZM298.434 21.568C298.322 21.568 298.214 21.56 298.11 21.544C298.014 21.536 297.934 21.524 297.87 21.508V20.704C298.006 20.736 298.174 20.752 298.374 20.752C298.902 20.752 299.302 20.44 299.574 19.816L299.934 18.988L297.486 12.988H298.47L300.414 17.92L302.514 12.988H303.474L300.474 19.936C300.306 20.32 300.126 20.632 299.934 20.872C299.742 21.112 299.522 21.288 299.274 21.4C299.034 21.512 298.754 21.568 298.434 21.568ZM306.919 19.12C306.351 19.12 305.831 18.984 305.359 18.712C304.895 18.432 304.527 18.056 304.255 17.584C303.983 17.112 303.847 16.584 303.847 16C303.847 15.416 303.983 14.888 304.255 14.416C304.527 13.944 304.895 13.572 305.359 13.3C305.831 13.02 306.351 12.88 306.919 12.88C307.495 12.88 308.015 13.02 308.479 13.3C308.943 13.572 309.311 13.944 309.583 14.416C309.855 14.888 309.991 15.416 309.991 16C309.991 16.584 309.855 17.112 309.583 17.584C309.311 18.056 308.943 18.432 308.479 18.712C308.015 18.984 307.495 19.12 306.919 19.12ZM306.919 18.328C307.327 18.328 307.695 18.224 308.023 18.016C308.359 17.808 308.623 17.528 308.815 17.176C309.015 16.824 309.115 16.432 309.115 16C309.115 15.56 309.015 15.168 308.815 14.824C308.623 14.472 308.359 14.192 308.023 13.984C307.695 13.776 307.327 13.672 306.919 13.672C306.511 13.672 306.139 13.776 305.803 13.984C305.475 14.192 305.211 14.472 305.011 14.824C304.819 15.168 304.723 15.56 304.723 16C304.723 16.432 304.819 16.824 305.011 17.176C305.211 17.528 305.475 17.808 305.803 18.016C306.139 18.224 306.511 18.328 306.919 18.328ZM313.529 19.12C313.073 19.12 312.669 19.024 312.317 18.832C311.965 18.632 311.689 18.36 311.489 18.016C311.297 17.664 311.201 17.256 311.201 16.792V12.988H312.077V16.612C312.077 17.148 312.229 17.572 312.533 17.884C312.837 18.188 313.245 18.34 313.757 18.34C314.117 18.34 314.437 18.26 314.717 18.1C315.005 17.932 315.237 17.7 315.413 17.404V12.988H316.301V19H315.413V18.304C314.941 18.848 314.313 19.12 313.529 19.12ZM317.811 19V12.988H318.699V13.84C318.883 13.528 319.115 13.288 319.395 13.12C319.683 12.944 320.011 12.856 320.379 12.856C320.587 12.856 320.775 12.884 320.943 12.94V13.756C320.839 13.716 320.735 13.688 320.631 13.672C320.527 13.656 320.423 13.648 320.319 13.648C319.951 13.648 319.627 13.756 319.347 13.972C319.075 14.18 318.859 14.484 318.699 14.884V19H317.811ZM42.652 33.108C42.212 33.108 41.824 33.032 41.488 32.88C41.16 32.728 40.9 32.516 40.708 32.244C40.524 31.972 40.432 31.656 40.432 31.296C40.432 30.728 40.648 30.28 41.08 29.952C41.512 29.624 42.096 29.46 42.832 29.46C43.48 29.46 44.068 29.596 44.596 29.868V29.076C44.596 28.596 44.46 28.236 44.188 27.996C43.916 27.748 43.52 27.624 43 27.624C42.704 27.624 42.404 27.668 42.1 27.756C41.804 27.836 41.476 27.968 41.116 28.152L40.78 27.468C41.212 27.26 41.612 27.108 41.98 27.012C42.348 26.916 42.716 26.868 43.084 26.868C43.844 26.868 44.428 27.048 44.836 27.408C45.252 27.768 45.46 28.284 45.46 28.956V33H44.596V32.412C44.324 32.644 44.024 32.82 43.696 32.94C43.376 33.052 43.028 33.108 42.652 33.108ZM41.284 31.272C41.284 31.608 41.424 31.884 41.704 32.1C41.992 32.308 42.36 32.412 42.808 32.412C43.168 32.412 43.496 32.356 43.792 32.244C44.088 32.132 44.356 31.956 44.596 31.716V30.588C44.348 30.42 44.084 30.3 43.804 30.228C43.524 30.148 43.208 30.108 42.856 30.108C42.376 30.108 41.992 30.216 41.704 30.432C41.424 30.64 41.284 30.92 41.284 31.272ZM49.7275 33.108C49.1595 33.108 48.6435 32.972 48.1795 32.7C47.7155 32.42 47.3475 32.044 47.0755 31.572C46.8035 31.1 46.6675 30.572 46.6675 29.988C46.6675 29.404 46.8035 28.88 47.0755 28.416C47.3475 27.944 47.7155 27.568 48.1795 27.288C48.6435 27.008 49.1595 26.868 49.7275 26.868C50.1675 26.868 50.5915 26.952 50.9995 27.12C51.4075 27.28 51.7675 27.512 52.0795 27.816L51.5155 28.464C51.2755 28.208 50.9995 28.016 50.6875 27.888C50.3835 27.752 50.0675 27.684 49.7395 27.684C49.3315 27.684 48.9595 27.788 48.6235 27.996C48.2955 28.196 48.0315 28.472 47.8315 28.824C47.6395 29.168 47.5435 29.556 47.5435 29.988C47.5435 30.42 47.6395 30.812 47.8315 31.164C48.0315 31.516 48.2995 31.796 48.6355 32.004C48.9715 32.204 49.3435 32.304 49.7515 32.304C50.0795 32.304 50.3875 32.24 50.6755 32.112C50.9715 31.984 51.2475 31.796 51.5035 31.548L52.0555 32.148C51.7355 32.452 51.3755 32.688 50.9755 32.856C50.5755 33.024 50.1595 33.108 49.7275 33.108ZM55.7041 33.108C55.1361 33.108 54.6201 32.972 54.1561 32.7C53.6921 32.42 53.3241 32.044 53.0521 31.572C52.7801 31.1 52.6441 30.572 52.6441 29.988C52.6441 29.404 52.7801 28.88 53.0521 28.416C53.3241 27.944 53.6921 27.568 54.1561 27.288C54.6201 27.008 55.1361 26.868 55.7041 26.868C56.1441 26.868 56.5681 26.952 56.9761 27.12C57.3841 27.28 57.7441 27.512 58.0561 27.816L57.4921 28.464C57.2521 28.208 56.9761 28.016 56.6641 27.888C56.3601 27.752 56.0441 27.684 55.7161 27.684C55.3081 27.684 54.9361 27.788 54.6001 27.996C54.2721 28.196 54.0081 28.472 53.8081 28.824C53.6161 29.168 53.5201 29.556 53.5201 29.988C53.5201 30.42 53.6161 30.812 53.8081 31.164C54.0081 31.516 54.2761 31.796 54.6121 32.004C54.9481 32.204 55.3201 32.304 55.7281 32.304C56.0561 32.304 56.3641 32.24 56.6521 32.112C56.9481 31.984 57.2241 31.796 57.4801 31.548L58.0321 32.148C57.7121 32.452 57.3521 32.688 56.9521 32.856C56.5521 33.024 56.1361 33.108 55.7041 33.108ZM61.6926 33.12C61.1246 33.12 60.6046 32.984 60.1326 32.712C59.6686 32.432 59.3006 32.056 59.0286 31.584C58.7566 31.112 58.6206 30.584 58.6206 30C58.6206 29.416 58.7566 28.888 59.0286 28.416C59.3006 27.944 59.6686 27.572 60.1326 27.3C60.6046 27.02 61.1246 26.88 61.6926 26.88C62.2686 26.88 62.7886 27.02 63.2526 27.3C63.7166 27.572 64.0846 27.944 64.3566 28.416C64.6286 28.888 64.7646 29.416 64.7646 30C64.7646 30.584 64.6286 31.112 64.3566 31.584C64.0846 32.056 63.7166 32.432 63.2526 32.712C62.7886 32.984 62.2686 33.12 61.6926 33.12ZM61.6926 32.328C62.1006 32.328 62.4686 32.224 62.7966 32.016C63.1326 31.808 63.3966 31.528 63.5886 31.176C63.7886 30.824 63.8886 30.432 63.8886 30C63.8886 29.56 63.7886 29.168 63.5886 28.824C63.3966 28.472 63.1326 28.192 62.7966 27.984C62.4686 27.776 62.1006 27.672 61.6926 27.672C61.2846 27.672 60.9126 27.776 60.5766 27.984C60.2486 28.192 59.9846 28.472 59.7846 28.824C59.5926 29.168 59.4966 29.56 59.4966 30C59.4966 30.432 59.5926 30.824 59.7846 31.176C59.9846 31.528 60.2486 31.808 60.5766 32.016C60.9126 32.224 61.2846 32.328 61.6926 32.328ZM68.3022 33.12C67.8462 33.12 67.4422 33.024 67.0902 32.832C66.7382 32.632 66.4622 32.36 66.2622 32.016C66.0702 31.664 65.9742 31.256 65.9742 30.792V26.988H66.8502V30.612C66.8502 31.148 67.0022 31.572 67.3062 31.884C67.6102 32.188 68.0182 32.34 68.5302 32.34C68.8902 32.34 69.2102 32.26 69.4902 32.1C69.7782 31.932 70.0102 31.7 70.1862 31.404V26.988H71.0742V33H70.1862V32.304C69.7142 32.848 69.0862 33.12 68.3022 33.12ZM72.5841 33V26.988H73.4721V27.696C73.9441 27.144 74.5761 26.868 75.3681 26.868C75.8241 26.868 76.2241 26.968 76.5681 27.168C76.9201 27.36 77.1921 27.632 77.3841 27.984C77.5841 28.328 77.6841 28.732 77.6841 29.196V33H76.8081V29.376C76.8081 28.84 76.6561 28.42 76.3521 28.116C76.0561 27.804 75.6481 27.648 75.1281 27.648C74.7681 27.648 74.4481 27.728 74.1681 27.888C73.8881 28.048 73.6561 28.276 73.4721 28.572V33H72.5841ZM81.3583 33.12C80.8383 33.12 80.4383 32.996 80.1583 32.748C79.8783 32.5 79.7383 32.14 79.7383 31.668V27.744H78.4423V26.988H79.7383V25.464L80.6143 25.236V26.988H82.4263V27.744H80.6143V31.44C80.6143 31.76 80.6863 31.992 80.8303 32.136C80.9743 32.272 81.2103 32.34 81.5383 32.34C81.7063 32.34 81.8543 32.328 81.9823 32.304C82.1183 32.28 82.2623 32.24 82.4143 32.184V32.964C82.2623 33.02 82.0903 33.06 81.8983 33.084C81.7143 33.108 81.5343 33.12 81.3583 33.12ZM86.8192 33V27.744H85.4032V26.988H86.8192V25.848C86.8192 25.256 86.9792 24.804 87.2992 24.492C87.6192 24.18 88.0792 24.024 88.6792 24.024C88.8392 24.024 88.9832 24.032 89.1112 24.048C89.2392 24.064 89.3632 24.092 89.4832 24.132V24.924C89.3472 24.884 89.2232 24.856 89.1112 24.84C88.9992 24.816 88.8752 24.804 88.7392 24.804C88.3872 24.804 88.1232 24.892 87.9472 25.068C87.7792 25.236 87.6952 25.504 87.6952 25.872V26.988H89.4832V27.744H87.6952V33H86.8192ZM92.9348 33.12C92.3668 33.12 91.8468 32.984 91.3748 32.712C90.9108 32.432 90.5428 32.056 90.2708 31.584C89.9988 31.112 89.8628 30.584 89.8628 30C89.8628 29.416 89.9988 28.888 90.2708 28.416C90.5428 27.944 90.9108 27.572 91.3748 27.3C91.8468 27.02 92.3668 26.88 92.9348 26.88C93.5108 26.88 94.0308 27.02 94.4948 27.3C94.9588 27.572 95.3268 27.944 95.5988 28.416C95.8708 28.888 96.0068 29.416 96.0068 30C96.0068 30.584 95.8708 31.112 95.5988 31.584C95.3268 32.056 94.9588 32.432 94.4948 32.712C94.0308 32.984 93.5108 33.12 92.9348 33.12ZM92.9348 32.328C93.3428 32.328 93.7108 32.224 94.0388 32.016C94.3748 31.808 94.6388 31.528 94.8308 31.176C95.0308 30.824 95.1308 30.432 95.1308 30C95.1308 29.56 95.0308 29.168 94.8308 28.824C94.6388 28.472 94.3748 28.192 94.0388 27.984C93.7108 27.776 93.3428 27.672 92.9348 27.672C92.5268 27.672 92.1548 27.776 91.8188 27.984C91.4908 28.192 91.2268 28.472 91.0268 28.824C90.8348 29.168 90.7388 29.56 90.7388 30C90.7388 30.432 90.8348 30.824 91.0268 31.176C91.2268 31.528 91.4908 31.808 91.8188 32.016C92.1548 32.224 92.5268 32.328 92.9348 32.328ZM97.2404 33V26.988H98.1284V27.84C98.3124 27.528 98.5444 27.288 98.8244 27.12C99.1124 26.944 99.4404 26.856 99.8084 26.856C100.016 26.856 100.204 26.884 100.372 26.94V27.756C100.268 27.716 100.164 27.688 100.06 27.672C99.9564 27.656 99.8524 27.648 99.7484 27.648C99.3804 27.648 99.0564 27.756 98.7764 27.972C98.5044 28.18 98.2884 28.484 98.1284 28.884V33H97.2404ZM106.331 33.12C105.811 33.12 105.411 32.996 105.131 32.748C104.851 32.5 104.711 32.14 104.711 31.668V27.744H103.415V26.988H104.711V25.464L105.587 25.236V26.988H107.399V27.744H105.587V31.44C105.587 31.76 105.659 31.992 105.803 32.136C105.947 32.272 106.183 32.34 106.511 32.34C106.679 32.34 106.827 32.328 106.955 32.304C107.091 32.28 107.235 32.24 107.387 32.184V32.964C107.235 33.02 107.063 33.06 106.871 33.084C106.687 33.108 106.507 33.12 106.331 33.12ZM108.35 33V24.6L109.238 24.396V27.696C109.71 27.144 110.342 26.868 111.134 26.868C111.59 26.868 111.99 26.968 112.334 27.168C112.686 27.36 112.958 27.632 113.15 27.984C113.35 28.328 113.45 28.732 113.45 29.196V33H112.574V29.376C112.574 28.84 112.422 28.42 112.118 28.116C111.822 27.804 111.414 27.648 110.894 27.648C110.534 27.648 110.214 27.728 109.934 27.888C109.654 28.048 109.422 28.276 109.238 28.572V33H108.35ZM114.936 33V26.988H115.824V33H114.936ZM115.38 25.836C115.22 25.836 115.08 25.776 114.96 25.656C114.84 25.536 114.78 25.396 114.78 25.236C114.78 25.068 114.84 24.928 114.96 24.816C115.08 24.696 115.22 24.636 115.38 24.636C115.548 24.636 115.688 24.696 115.8 24.816C115.92 24.928 115.98 25.068 115.98 25.236C115.98 25.396 115.92 25.536 115.8 25.656C115.688 25.776 115.548 25.836 115.38 25.836ZM119.258 33.12C118.762 33.12 118.294 33.04 117.854 32.88C117.422 32.712 117.046 32.48 116.726 32.184L117.266 31.608C117.546 31.864 117.854 32.064 118.19 32.208C118.526 32.344 118.87 32.412 119.222 32.412C119.702 32.412 120.094 32.312 120.398 32.112C120.702 31.912 120.854 31.652 120.854 31.332C120.854 31.068 120.762 30.864 120.578 30.72C120.402 30.568 120.122 30.464 119.738 30.408L118.694 30.264C118.094 30.176 117.646 29.996 117.35 29.724C117.062 29.452 116.918 29.084 116.918 28.62C116.918 28.284 117.014 27.984 117.206 27.72C117.398 27.456 117.662 27.248 117.998 27.096C118.342 26.944 118.734 26.868 119.174 26.868C119.614 26.868 120.026 26.932 120.41 27.06C120.794 27.188 121.17 27.388 121.538 27.66L121.07 28.26C120.734 28.028 120.406 27.86 120.086 27.756C119.774 27.644 119.454 27.588 119.126 27.588C118.71 27.588 118.374 27.68 118.118 27.864C117.862 28.048 117.734 28.288 117.734 28.584C117.734 28.856 117.822 29.064 117.998 29.208C118.174 29.344 118.458 29.44 118.85 29.496L119.894 29.64C120.494 29.72 120.942 29.896 121.238 30.168C121.542 30.44 121.694 30.812 121.694 31.284C121.694 31.628 121.586 31.94 121.37 32.22C121.154 32.5 120.862 32.72 120.494 32.88C120.134 33.04 119.722 33.12 119.258 33.12ZM128.056 33.108C127.488 33.108 126.972 32.972 126.508 32.7C126.044 32.42 125.676 32.044 125.404 31.572C125.132 31.1 124.996 30.572 124.996 29.988C124.996 29.404 125.132 28.88 125.404 28.416C125.676 27.944 126.044 27.568 126.508 27.288C126.972 27.008 127.488 26.868 128.056 26.868C128.496 26.868 128.92 26.952 129.328 27.12C129.736 27.28 130.096 27.512 130.408 27.816L129.844 28.464C129.604 28.208 129.328 28.016 129.016 27.888C128.712 27.752 128.396 27.684 128.068 27.684C127.66 27.684 127.288 27.788 126.952 27.996C126.624 28.196 126.36 28.472 126.16 28.824C125.968 29.168 125.872 29.556 125.872 29.988C125.872 30.42 125.968 30.812 126.16 31.164C126.36 31.516 126.628 31.796 126.964 32.004C127.3 32.204 127.672 32.304 128.08 32.304C128.408 32.304 128.716 32.24 129.004 32.112C129.3 31.984 129.576 31.796 129.832 31.548L130.384 32.148C130.064 32.452 129.704 32.688 129.304 32.856C128.904 33.024 128.488 33.108 128.056 33.108ZM133.32 33.108C132.88 33.108 132.492 33.032 132.156 32.88C131.828 32.728 131.568 32.516 131.376 32.244C131.192 31.972 131.1 31.656 131.1 31.296C131.1 30.728 131.316 30.28 131.748 29.952C132.18 29.624 132.764 29.46 133.5 29.46C134.148 29.46 134.736 29.596 135.264 29.868V29.076C135.264 28.596 135.128 28.236 134.856 27.996C134.584 27.748 134.188 27.624 133.668 27.624C133.372 27.624 133.072 27.668 132.768 27.756C132.472 27.836 132.144 27.968 131.784 28.152L131.448 27.468C131.88 27.26 132.28 27.108 132.648 27.012C133.016 26.916 133.384 26.868 133.752 26.868C134.512 26.868 135.096 27.048 135.504 27.408C135.92 27.768 136.128 28.284 136.128 28.956V33H135.264V32.412C134.992 32.644 134.692 32.82 134.364 32.94C134.044 33.052 133.696 33.108 133.32 33.108ZM131.952 31.272C131.952 31.608 132.092 31.884 132.372 32.1C132.66 32.308 133.028 32.412 133.476 32.412C133.836 32.412 134.164 32.356 134.46 32.244C134.756 32.132 135.024 31.956 135.264 31.716V30.588C135.016 30.42 134.752 30.3 134.472 30.228C134.192 30.148 133.876 30.108 133.524 30.108C133.044 30.108 132.66 30.216 132.372 30.432C132.092 30.64 131.952 30.92 131.952 31.272ZM137.611 33V26.988H138.499V27.84C138.683 27.528 138.915 27.288 139.195 27.12C139.483 26.944 139.811 26.856 140.179 26.856C140.387 26.856 140.575 26.884 140.743 26.94V27.756C140.639 27.716 140.535 27.688 140.431 27.672C140.327 27.656 140.223 27.648 140.119 27.648C139.751 27.648 139.427 27.756 139.147 27.972C138.875 28.18 138.659 28.484 138.499 28.884V33H137.611ZM144.086 33.096C143.526 33.096 143.014 32.96 142.55 32.688C142.094 32.408 141.73 32.036 141.458 31.572C141.194 31.1 141.062 30.572 141.062 29.988C141.062 29.404 141.194 28.88 141.458 28.416C141.73 27.952 142.094 27.584 142.55 27.312C143.014 27.032 143.53 26.892 144.098 26.892C144.45 26.892 144.79 26.952 145.118 27.072C145.446 27.184 145.746 27.352 146.018 27.576V24.6L146.906 24.396V33H146.03V32.364C145.502 32.852 144.854 33.096 144.086 33.096ZM144.17 32.316C144.546 32.316 144.894 32.244 145.214 32.1C145.542 31.948 145.81 31.74 146.018 31.476V28.5C145.81 28.244 145.542 28.044 145.214 27.9C144.894 27.748 144.546 27.672 144.17 27.672C143.754 27.672 143.374 27.772 143.03 27.972C142.694 28.172 142.426 28.448 142.226 28.8C142.034 29.144 141.938 29.536 141.938 29.976C141.938 30.416 142.034 30.812 142.226 31.164C142.426 31.516 142.694 31.796 143.03 32.004C143.374 32.212 143.754 32.316 144.17 32.316ZM150.994 33V26.988H151.882V27.84C152.066 27.528 152.298 27.288 152.578 27.12C152.866 26.944 153.194 26.856 153.562 26.856C153.77 26.856 153.958 26.884 154.126 26.94V27.756C154.022 27.716 153.918 27.688 153.814 27.672C153.71 27.656 153.606 27.648 153.502 27.648C153.134 27.648 152.81 27.756 152.53 27.972C152.258 28.18 152.042 28.484 151.882 28.884V33H150.994ZM157.541 33.108C156.965 33.108 156.441 32.972 155.969 32.7C155.505 32.42 155.133 32.044 154.853 31.572C154.581 31.1 154.445 30.572 154.445 29.988C154.445 29.412 154.577 28.892 154.841 28.428C155.105 27.956 155.461 27.584 155.909 27.312C156.357 27.032 156.857 26.892 157.409 26.892C157.945 26.892 158.425 27.032 158.849 27.312C159.281 27.584 159.621 27.956 159.869 28.428C160.125 28.892 160.253 29.412 160.253 29.988V30.264H155.321C155.369 30.656 155.493 31.008 155.693 31.32C155.901 31.632 156.169 31.88 156.497 32.064C156.825 32.24 157.185 32.328 157.577 32.328C157.889 32.328 158.193 32.28 158.489 32.184C158.785 32.088 159.033 31.952 159.233 31.776L159.785 32.364C159.449 32.612 159.097 32.8 158.729 32.928C158.369 33.048 157.973 33.108 157.541 33.108ZM155.345 29.556H159.365C159.317 29.196 159.197 28.876 159.005 28.596C158.821 28.308 158.589 28.084 158.309 27.924C158.029 27.756 157.721 27.672 157.385 27.672C157.041 27.672 156.725 27.752 156.437 27.912C156.149 28.072 155.909 28.296 155.717 28.584C155.525 28.864 155.401 29.188 155.345 29.556ZM166.174 35.448V32.376C165.646 32.856 165.002 33.096 164.242 33.096C163.682 33.096 163.17 32.96 162.706 32.688C162.25 32.408 161.886 32.036 161.614 31.572C161.35 31.1 161.218 30.572 161.218 29.988C161.218 29.404 161.35 28.88 161.614 28.416C161.886 27.952 162.25 27.584 162.706 27.312C163.17 27.032 163.686 26.892 164.254 26.892C164.614 26.892 164.958 26.952 165.286 27.072C165.622 27.192 165.922 27.36 166.186 27.576V26.988H167.062V35.448H166.174ZM164.326 32.316C164.702 32.316 165.05 32.244 165.37 32.1C165.698 31.948 165.966 31.74 166.174 31.476V28.5C165.966 28.244 165.698 28.044 165.37 27.9C165.05 27.748 164.702 27.672 164.326 27.672C163.91 27.672 163.53 27.772 163.186 27.972C162.85 28.172 162.582 28.448 162.382 28.8C162.19 29.144 162.094 29.536 162.094 29.976C162.094 30.416 162.19 30.812 162.382 31.164C162.582 31.516 162.85 31.796 163.186 32.004C163.53 32.212 163.91 32.316 164.326 32.316ZM170.876 33.12C170.42 33.12 170.016 33.024 169.664 32.832C169.312 32.632 169.036 32.36 168.836 32.016C168.644 31.664 168.548 31.256 168.548 30.792V26.988H169.424V30.612C169.424 31.148 169.576 31.572 169.88 31.884C170.184 32.188 170.592 32.34 171.104 32.34C171.464 32.34 171.784 32.26 172.064 32.1C172.352 31.932 172.584 31.7 172.76 31.404V26.988H173.648V33H172.76V32.304C172.288 32.848 171.66 33.12 170.876 33.12ZM177.978 33.108C177.402 33.108 176.878 32.972 176.406 32.7C175.942 32.42 175.57 32.044 175.29 31.572C175.018 31.1 174.882 30.572 174.882 29.988C174.882 29.412 175.014 28.892 175.278 28.428C175.542 27.956 175.898 27.584 176.346 27.312C176.794 27.032 177.294 26.892 177.846 26.892C178.382 26.892 178.862 27.032 179.286 27.312C179.718 27.584 180.058 27.956 180.306 28.428C180.562 28.892 180.69 29.412 180.69 29.988V30.264H175.758C175.806 30.656 175.93 31.008 176.13 31.32C176.338 31.632 176.606 31.88 176.934 32.064C177.262 32.24 177.622 32.328 178.014 32.328C178.326 32.328 178.63 32.28 178.926 32.184C179.222 32.088 179.47 31.952 179.67 31.776L180.222 32.364C179.886 32.612 179.534 32.8 179.166 32.928C178.806 33.048 178.41 33.108 177.978 33.108ZM175.782 29.556H179.802C179.754 29.196 179.634 28.876 179.442 28.596C179.258 28.308 179.026 28.084 178.746 27.924C178.466 27.756 178.158 27.672 177.822 27.672C177.478 27.672 177.162 27.752 176.874 27.912C176.586 28.072 176.346 28.296 176.154 28.584C175.962 28.864 175.838 29.188 175.782 29.556ZM183.91 33.12C183.414 33.12 182.946 33.04 182.506 32.88C182.074 32.712 181.698 32.48 181.378 32.184L181.918 31.608C182.198 31.864 182.506 32.064 182.842 32.208C183.178 32.344 183.522 32.412 183.874 32.412C184.354 32.412 184.746 32.312 185.05 32.112C185.354 31.912 185.506 31.652 185.506 31.332C185.506 31.068 185.414 30.864 185.23 30.72C185.054 30.568 184.774 30.464 184.39 30.408L183.346 30.264C182.746 30.176 182.298 29.996 182.002 29.724C181.714 29.452 181.57 29.084 181.57 28.62C181.57 28.284 181.666 27.984 181.858 27.72C182.05 27.456 182.314 27.248 182.65 27.096C182.994 26.944 183.386 26.868 183.826 26.868C184.266 26.868 184.678 26.932 185.062 27.06C185.446 27.188 185.822 27.388 186.19 27.66L185.722 28.26C185.386 28.028 185.058 27.86 184.738 27.756C184.426 27.644 184.106 27.588 183.778 27.588C183.362 27.588 183.026 27.68 182.77 27.864C182.514 28.048 182.386 28.288 182.386 28.584C182.386 28.856 182.474 29.064 182.65 29.208C182.826 29.344 183.11 29.44 183.502 29.496L184.546 29.64C185.146 29.72 185.594 29.896 185.89 30.168C186.194 30.44 186.346 30.812 186.346 31.284C186.346 31.628 186.238 31.94 186.022 32.22C185.806 32.5 185.514 32.72 185.146 32.88C184.786 33.04 184.374 33.12 183.91 33.12ZM189.593 33.12C189.073 33.12 188.673 32.996 188.393 32.748C188.113 32.5 187.973 32.14 187.973 31.668V27.744H186.677V26.988H187.973V25.464L188.849 25.236V26.988H190.661V27.744H188.849V31.44C188.849 31.76 188.921 31.992 189.065 32.136C189.209 32.272 189.445 32.34 189.773 32.34C189.941 32.34 190.089 32.328 190.217 32.304C190.353 32.28 190.497 32.24 190.649 32.184V32.964C190.497 33.02 190.325 33.06 190.133 33.084C189.949 33.108 189.769 33.12 189.593 33.12ZM192.355 33.072C192.187 33.072 192.043 33.012 191.923 32.892C191.803 32.772 191.743 32.628 191.743 32.46C191.743 32.292 191.803 32.148 191.923 32.028C192.043 31.908 192.187 31.848 192.355 31.848C192.523 31.848 192.667 31.908 192.787 32.028C192.907 32.148 192.967 32.292 192.967 32.46C192.967 32.628 192.907 32.772 192.787 32.892C192.667 33.012 192.523 33.072 192.355 33.072Z" fill="#49526A"/>
</svg>
