<svg width="15" height="18" viewBox="0 0 15 18" fill="none" xmlns="http://www.w3.org/2000/svg">
    <path fill-rule="evenodd" clip-rule="evenodd" d="M7.5 0.25C7.91421 0.25 8.25 0.585786 8.25 1L8.25 15.1893L12.9697 10.4697C13.2626 10.1768 13.7374 10.1768 14.0303 10.4697C14.3232 10.7626 14.3232 11.2374 14.0303 11.5303L8.03033 17.5303C7.88968 17.671 7.69891 17.75 7.5 17.75C7.30109 17.75 7.11032 17.671 6.96967 17.5303L0.96967 11.5303C0.676777 11.2374 0.676777 10.7626 0.96967 10.4697C1.26256 10.1768 1.73744 10.1768 2.03033 10.4697L6.75 15.1893L6.75 1C6.75 0.585786 7.08579 0.25 7.5 0.25Z" fill="#1F7A42"/>
</svg>
