<svg width="24" height="24" viewBox="0 0 24 24" fill="none" xmlns="http://www.w3.org/2000/svg">
    <path d="M0 12C0 5.37258 5.37258 0 12 0C18.6274 0 24 5.37258 24 12C24 18.6274 18.6274 24 12 24C5.37258 24 0 18.6274 0 12Z" fill="#185C32"/>
    <path d="M9.16667 5.83333C9.16667 5.3731 8.79357 5 8.33333 5C7.8731 5 7.5 5.3731 7.5 5.83333V6.26889L5.84281 6.25005C5.3826 6.24482 5.00529 6.61365 5.00006 7.07386C4.99482 7.53407 5.36365 7.91138 5.82386 7.91661L7.49048 7.93556L7.5 7.93561V8.33333C7.5 8.79357 7.8731 9.16667 8.33333 9.16667C8.79357 9.16667 9.16667 8.79357 9.16667 8.33333V5.83333Z" fill="#F3FFEB"/>
    <path d="M10.8333 7.08063C10.8348 6.62039 11.2091 6.24851 11.6694 6.25L17.5027 6.26895C17.9629 6.27044 18.3348 6.64475 18.3333 7.10498C18.3318 7.56522 17.9575 7.9371 17.4972 7.93561L11.664 7.91666C11.2037 7.91517 10.8318 7.54086 10.8333 7.08063Z" fill="#F3FFEB"/>
    <path d="M5.84281 16.2501C5.3826 16.2448 5.00529 16.6137 5.00006 17.0739C4.99482 17.5341 5.36365 17.9114 5.82386 17.9166L7.49048 17.9356C7.49366 17.9356 7.49683 17.9356 7.5 17.9356V18.3333C7.5 18.7936 7.8731 19.1667 8.33333 19.1667C8.79357 19.1667 9.16667 18.7936 9.16667 18.3333V15.8333C9.16667 15.3731 8.79357 15 8.33333 15C7.8731 15 7.5 15.3731 7.5 15.8333V16.2689L5.84281 16.2501Z" fill="#F3FFEB"/>
    <path d="M15.8333 13.3333V12.9167L17.4905 12.9356C17.9507 12.9408 18.328 12.572 18.3332 12.1118C18.3385 11.6515 17.9696 11.2742 17.5094 11.269L15.8428 11.2501L15.8333 11.25V10.8333C15.8333 10.3731 15.4602 10 15 10C14.5398 10 14.1667 10.3731 14.1667 10.8333V13.3333C14.1667 13.7936 14.5398 14.1667 15 14.1667C15.4602 14.1667 15.8333 13.7936 15.8333 13.3333Z" fill="#F3FFEB"/>
    <path d="M11.6667 16.25C11.2064 16.25 10.8333 16.6231 10.8333 17.0833C10.8333 17.5436 11.2064 17.9167 11.6667 17.9167H17.5C17.9602 17.9167 18.3333 17.5436 18.3333 17.0833C18.3333 16.6231 17.9602 16.25 17.5 16.25H11.6667Z" fill="#F3FFEB"/>
    <path d="M5 12.0833C5 11.6231 5.3731 11.25 5.83333 11.25H11.6667C12.1269 11.25 12.5 11.6231 12.5 12.0833C12.5 12.5436 12.1269 12.9167 11.6667 12.9167H5.83333C5.3731 12.9167 5 12.5436 5 12.0833Z" fill="#F3FFEB"/>
</svg>
