<svg width="322" height="428" viewBox="0 0 322 428" fill="none" xmlns="http://www.w3.org/2000/svg">
<g filter="url(#filter0_dd_1680_31796)">
<g clip-path="url(#clip0_1680_31796)">
<rect x="52" y="46" width="218" height="332" rx="20" fill="white"/>
<g clip-path="url(#clip1_1680_31796)">
<rect width="218" height="192" transform="translate(52 46)" fill="#2FB763"/>
<g clip-path="url(#clip2_1680_31796)">
<path d="M-6.97617 182.71C-7.40737 182.457 -7.60048 181.996 -7.51985 181.463C-4.68873 162.021 9.04445 143.761 27.4815 134.87C46.1922 125.909 67.5595 127.435 87.5675 139.179C99.21 146.013 107.137 153.449 112.077 160.639C115.371 158.978 119.203 157.98 123.421 157.905C136.897 157.467 144.52 165.42 152.646 173.899C161.604 183.332 170.906 192.967 189.475 194.125C213.139 195.492 224.656 176.859 235.854 158.965C244.501 145.024 252.743 131.773 266.11 128.952C292.024 123.522 326.904 169.39 328.432 171.331C328.798 171.893 328.702 172.649 328.226 173.065C327.664 173.43 326.908 173.335 326.492 172.858C326.076 172.382 290.987 126.276 266.614 131.451C254.291 134.074 246.353 146.807 237.959 160.317C226.949 178.088 214.485 198.138 189.396 196.63C169.798 195.447 159.749 184.91 150.913 175.666C142.874 167.236 135.876 159.998 123.566 160.425C119.743 160.616 116.372 161.42 113.503 162.751C120.176 173.509 120.515 183.796 117.551 191.217C114.84 198.206 109.099 202.258 103.754 201.091C98.2365 199.824 95.1582 193.611 95.9513 185.148C96.825 176.153 101.745 166.981 110.065 161.893C105.282 155.027 97.7364 147.931 86.4388 141.3C67.1208 129.961 46.5597 128.444 28.6345 137.055C10.8968 145.544 -2.34522 163.165 -5.08072 181.851C-5.12573 182.52 -5.73879 182.972 -6.49434 182.877C-6.71745 182.862 -6.80369 182.811 -6.97617 182.71ZM106.857 187.765C98.537 192.854 105.543 178.733 104.941 185.685C104.238 192.809 103.46 178.425 107.705 179.293C111.899 180.247 104.5 195.617 106.776 189.764C109.472 182.997 112.992 197.859 106.857 187.765Z" fill="#185C32"/>
</g>
<g clip-path="url(#clip3_1680_31796)">
<rect x="182" y="86" width="29.0909" height="40" rx="4" fill="url(#paint0_linear_1680_31796)"/>
<path fill-rule="evenodd" clip-rule="evenodd" d="M211.697 112.525L205.762 106.166L211.722 99.8072L211.236 99.2871L205.132 105.798L201.836 105.798L201.848 99.9149L201.849 99.1795L201.881 83L201.193 83L201.161 99.1795L191.53 99.1795L191.562 83L190.874 83L190.842 99.1795L190.841 99.9149L190.829 105.798L187.532 105.798L181.455 99.2871L180.967 99.8072L186.903 106.166L180.942 112.525L181.428 113.045L187.531 106.534L190.828 106.534L190.816 112.417L190.815 113.153L190.783 129.332L191.471 129.332L191.503 113.153L201.134 113.153L201.102 129.332L201.79 129.332L201.822 112.785C201.823 112.582 201.669 112.417 201.479 112.417L191.504 112.417L191.517 106.166L191.529 99.9149L201.16 99.9149L201.147 106.166C201.147 106.369 201.301 106.534 201.491 106.534L205.131 106.534L211.209 113.045L211.697 112.525Z" fill="#47453F"/>
</g>
<rect x="182" y="86" width="29.0909" height="40" rx="4" stroke="#47453F" stroke-width="0.6"/>
<path d="M73.4623 71.306C72.875 75.7696 72.9555 80.4621 73.119 83.1272C73.1984 84.893 73.4133 87.6889 74.1981 85.9721C75.2963 83.5698 75.7677 81.4104 76.2092 79.2522C76.501 77.8256 77.7298 71.6003 77.9259 69.1477C78.1004 66.9674 77.1837 65.2287 75.6696 66.4009C74.149 67.5781 73.6559 69.8344 73.4623 71.306Z" fill="white"/>
<path d="M80.0842 67.5781L75.5715 85.0402C74.9339 87.1493 75.7187 88.9152 77.7297 85.4326L80.4766 79.2522L84.9402 67.5781C85.2999 66.5153 85.5288 64.3015 83.5668 63.9484C81.6047 63.5952 80.4275 66.221 80.0842 67.5781Z" fill="white"/>
<path d="M86.706 67.5781L78.907 85.7759C77.926 88.1794 79.2503 87.6889 80.0842 86.5607L83.1744 82.4895C84.9402 80.086 88.9035 74.5629 90.6301 71.6984C92.3567 68.8338 92.494 67.48 92.494 66.4009C92.494 65.518 92.2782 63.9484 90.6301 63.9484C88.982 63.9484 87.3927 65.9594 86.706 67.5781Z" fill="white"/>
<path d="M91.2187 73.4642L82.782 85.7759C81.1142 88.2284 83.1744 88.5748 84.8421 86.806C85.9212 85.6615 87.9813 83.5588 88.3737 83.1272C88.8643 82.5876 93.531 77.2713 95.0446 75.0338C96.1728 73.3661 95.8785 69.1477 95.6823 67.5781C95.4186 65.4689 94.1424 65.8792 93.9165 67.2348C93.3769 70.4721 92.494 71.6984 91.2187 73.4642Z" fill="white"/>
<path d="M92.8864 79.9879L88.0794 85.4326C85.6269 88.3756 87.4908 88.0322 89.5019 87.1003C91.3658 86.2365 94.6522 84.6478 95.0446 81.5085C95.437 78.3693 94.0146 78.6636 92.8864 79.9879Z" fill="white"/>
</g>
<g clip-path="url(#clip4_1680_31796)">
<rect width="218" height="140" transform="translate(52 238)" fill="#0D1218"/>
<g filter="url(#filter1_f_1680_31796)">
<circle cx="257.99" cy="237.99" r="66.9905" fill="#103D21"/>
</g>
<g filter="url(#filter2_f_1680_31796)">
<circle cx="160.99" cy="380.729" r="66.9905" fill="#0E4222"/>
</g>
<g filter="url(#filter3_f_1680_31796)">
<circle cx="51.9905" cy="238.99" r="66.9905" fill="#187A33"/>
</g>
<path d="M221.635 357.769H217.582L220.147 342.28H224.199L221.635 357.769Z" fill="white"/>
<path d="M236.348 342.66C235.549 342.346 234.283 342 232.715 342C228.715 342 225.893 344.109 225.871 347.124C225.833 349.348 227.881 350.584 229.413 351.326C230.979 352.084 231.51 352.579 231.509 353.254C231.491 354.291 230.239 354.77 229.073 354.77C227.456 354.77 226.59 354.523 225.274 353.946L224.741 353.698L224.168 357.175C225.117 357.603 226.866 357.983 228.684 358C232.934 358 235.705 355.923 235.745 352.711C235.764 350.948 234.684 349.596 232.352 348.493C230.937 347.783 230.07 347.306 230.072 346.581C230.09 345.921 230.809 345.247 232.408 345.247C233.725 345.214 234.692 345.526 235.424 345.84L235.791 346.004L236.348 342.66Z" fill="white"/>
<path d="M241.71 352.282C242.046 351.392 243.336 347.948 243.336 347.948C243.32 347.981 243.671 347.042 243.872 346.465L244.153 347.801C244.153 347.801 244.913 351.507 245.078 352.282C244.445 352.282 242.511 352.282 241.71 352.282ZM246.731 342.28H243.598C242.631 342.28 241.896 342.561 241.477 343.566L235.433 357.769H239.684C239.684 357.769 240.386 355.857 240.538 355.445C241.005 355.445 245.14 355.445 245.739 355.445C245.854 355.989 246.218 357.769 246.218 357.769H249.969L246.731 342.28Z" fill="white"/>
<path d="M214.231 342.28L210.243 352.842L209.815 350.7C209.085 348.228 206.791 345.543 204.226 344.208L207.834 357.752H212.117L218.515 342.28H214.231Z" fill="white"/>
<path d="M206.582 342.28H200.065L199.997 342.594C205.079 343.878 208.44 346.977 209.816 350.701L208.413 343.582C208.182 342.594 207.465 342.313 206.582 342.28Z" fill="white"/>
<path d="M73.54 351.3H75.12C75.5267 351.3 75.9033 351.23 76.25 351.09C76.5967 350.95 76.9 350.753 77.16 350.5C77.42 350.247 77.62 349.95 77.76 349.61C77.9067 349.27 77.98 348.9 77.98 348.5C77.98 348.1 77.9067 347.73 77.76 347.39C77.62 347.05 77.42 346.753 77.16 346.5C76.9 346.247 76.5967 346.05 76.25 345.91C75.9033 345.77 75.5267 345.7 75.12 345.7H73.54V351.3ZM72.77 352V345H75.08C75.6133 345 76.1033 345.087 76.55 345.26C76.9967 345.433 77.3833 345.677 77.71 345.99C78.0433 346.303 78.3 346.673 78.48 347.1C78.6667 347.527 78.76 347.993 78.76 348.5C78.76 349.007 78.67 349.473 78.49 349.9C78.31 350.327 78.0533 350.697 77.72 351.01C77.3933 351.323 77.0033 351.567 76.55 351.74C76.1033 351.913 75.6133 352 75.08 352H72.77ZM82.4773 352.09C81.9973 352.09 81.5606 351.977 81.1673 351.75C80.7806 351.517 80.4706 351.203 80.2373 350.81C80.0106 350.417 79.8973 349.977 79.8973 349.49C79.8973 349.01 80.0073 348.577 80.2273 348.19C80.4473 347.797 80.7439 347.487 81.1173 347.26C81.4906 347.027 81.9073 346.91 82.3673 346.91C82.8139 346.91 83.2139 347.027 83.5673 347.26C83.9273 347.487 84.2106 347.797 84.4173 348.19C84.6306 348.577 84.7373 349.01 84.7373 349.49V349.72H80.6273C80.6673 350.047 80.7706 350.34 80.9373 350.6C81.1106 350.86 81.3339 351.067 81.6073 351.22C81.8806 351.367 82.1806 351.44 82.5073 351.44C82.7673 351.44 83.0206 351.4 83.2673 351.32C83.5139 351.24 83.7206 351.127 83.8873 350.98L84.3473 351.47C84.0673 351.677 83.7739 351.833 83.4673 351.94C83.1673 352.04 82.8373 352.09 82.4773 352.09ZM80.6473 349.13H83.9973C83.9573 348.83 83.8573 348.563 83.6973 348.33C83.5439 348.09 83.3506 347.903 83.1173 347.77C82.8839 347.63 82.6273 347.56 82.3473 347.56C82.0606 347.56 81.7973 347.627 81.5573 347.76C81.3173 347.893 81.1173 348.08 80.9573 348.32C80.7973 348.553 80.6939 348.823 80.6473 349.13ZM86.0718 352V345L86.8118 344.83V347.52C87.2385 347.113 87.7751 346.91 88.4218 346.91C88.8951 346.91 89.3218 347.027 89.7018 347.26C90.0818 347.487 90.3818 347.793 90.6018 348.18C90.8285 348.567 90.9418 349.003 90.9418 349.49C90.9418 349.977 90.8285 350.417 90.6018 350.81C90.3818 351.197 90.0818 351.507 89.7018 351.74C89.3218 351.967 88.8918 352.08 88.4118 352.08C88.1185 352.08 87.8318 352.03 87.5518 351.93C87.2785 351.83 87.0285 351.687 86.8018 351.5V352H86.0718ZM88.3518 351.43C88.7051 351.43 89.0218 351.347 89.3018 351.18C89.5818 351.007 89.8018 350.777 89.9618 350.49C90.1285 350.197 90.2118 349.867 90.2118 349.5C90.2118 349.133 90.1285 348.803 89.9618 348.51C89.8018 348.217 89.5818 347.987 89.3018 347.82C89.0218 347.647 88.7051 347.56 88.3518 347.56C88.0385 347.56 87.7451 347.623 87.4718 347.75C87.2051 347.87 86.9851 348.04 86.8118 348.26V350.74C86.9851 350.953 87.2085 351.123 87.4818 351.25C87.7551 351.37 88.0451 351.43 88.3518 351.43ZM92.2702 352V346.99H93.0102V352H92.2702ZM92.6402 346.03C92.5069 346.03 92.3902 345.98 92.2902 345.88C92.1902 345.78 92.1402 345.663 92.1402 345.53C92.1402 345.39 92.1902 345.273 92.2902 345.18C92.3902 345.08 92.5069 345.03 92.6402 345.03C92.7802 345.03 92.8969 345.08 92.9902 345.18C93.0902 345.273 93.1402 345.39 93.1402 345.53C93.1402 345.663 93.0902 345.78 92.9902 345.88C92.8969 345.98 92.7802 346.03 92.6402 346.03ZM96.5422 352.1C96.1089 352.1 95.7755 351.997 95.5422 351.79C95.3089 351.583 95.1922 351.283 95.1922 350.89V347.62H94.1122V346.99H95.1922V345.72L95.9222 345.53V346.99H97.4322V347.62H95.9222V350.7C95.9222 350.967 95.9822 351.16 96.1022 351.28C96.2222 351.393 96.4189 351.45 96.6922 351.45C96.8322 351.45 96.9555 351.44 97.0622 351.42C97.1755 351.4 97.2955 351.367 97.4222 351.32V351.97C97.2955 352.017 97.1522 352.05 96.9922 352.07C96.8389 352.09 96.6889 352.1 96.5422 352.1ZM104.413 352.11C103.906 352.11 103.433 352.02 102.993 351.84C102.553 351.653 102.166 351.397 101.833 351.07C101.5 350.737 101.24 350.353 101.053 349.92C100.873 349.48 100.783 349.007 100.783 348.5C100.783 347.993 100.873 347.523 101.053 347.09C101.24 346.65 101.5 346.267 101.833 345.94C102.166 345.607 102.553 345.35 102.993 345.17C103.433 344.983 103.906 344.89 104.413 344.89C104.78 344.89 105.13 344.937 105.463 345.03C105.803 345.117 106.116 345.247 106.403 345.42C106.696 345.587 106.956 345.793 107.183 346.04L106.673 346.58C106.4 346.267 106.063 346.027 105.663 345.86C105.263 345.687 104.846 345.6 104.413 345.6C104.006 345.6 103.63 345.673 103.283 345.82C102.936 345.967 102.633 346.173 102.373 346.44C102.12 346.7 101.92 347.007 101.773 347.36C101.633 347.707 101.563 348.087 101.563 348.5C101.563 348.907 101.633 349.287 101.773 349.64C101.92 349.993 102.123 350.303 102.383 350.57C102.643 350.83 102.946 351.033 103.293 351.18C103.646 351.327 104.026 351.4 104.433 351.4C104.866 351.4 105.28 351.317 105.673 351.15C106.066 350.977 106.396 350.74 106.663 350.44L107.163 350.96C106.93 351.2 106.666 351.407 106.373 351.58C106.086 351.753 105.776 351.887 105.443 351.98C105.11 352.067 104.766 352.11 104.413 352.11ZM110.07 352.09C109.703 352.09 109.38 352.027 109.1 351.9C108.826 351.773 108.61 351.597 108.45 351.37C108.296 351.143 108.22 350.88 108.22 350.58C108.22 350.107 108.4 349.733 108.76 349.46C109.12 349.187 109.606 349.05 110.22 349.05C110.76 349.05 111.25 349.163 111.69 349.39V348.73C111.69 348.33 111.576 348.03 111.35 347.83C111.123 347.623 110.793 347.52 110.36 347.52C110.113 347.52 109.863 347.557 109.61 347.63C109.363 347.697 109.09 347.807 108.79 347.96L108.51 347.39C108.87 347.217 109.203 347.09 109.51 347.01C109.816 346.93 110.123 346.89 110.43 346.89C111.063 346.89 111.55 347.04 111.89 347.34C112.236 347.64 112.41 348.07 112.41 348.63V352H111.69V351.51C111.463 351.703 111.213 351.85 110.94 351.95C110.673 352.043 110.383 352.09 110.07 352.09ZM108.93 350.56C108.93 350.84 109.046 351.07 109.28 351.25C109.52 351.423 109.826 351.51 110.2 351.51C110.5 351.51 110.773 351.463 111.02 351.37C111.266 351.277 111.49 351.13 111.69 350.93V349.99C111.483 349.85 111.263 349.75 111.03 349.69C110.796 349.623 110.533 349.59 110.24 349.59C109.84 349.59 109.52 349.68 109.28 349.86C109.046 350.033 108.93 350.267 108.93 350.56ZM113.946 352V346.99H114.686V347.7C114.839 347.44 115.033 347.24 115.266 347.1C115.506 346.953 115.779 346.88 116.086 346.88C116.259 346.88 116.416 346.903 116.556 346.95V347.63C116.469 347.597 116.383 347.573 116.296 347.56C116.209 347.547 116.123 347.54 116.036 347.54C115.729 347.54 115.459 347.63 115.226 347.81C114.999 347.983 114.819 348.237 114.686 348.57V352H113.946ZM119.641 352.08C119.175 352.08 118.748 351.967 118.361 351.74C117.981 351.507 117.678 351.197 117.451 350.81C117.231 350.417 117.121 349.977 117.121 349.49C117.121 349.003 117.231 348.567 117.451 348.18C117.678 347.793 117.981 347.487 118.361 347.26C118.748 347.027 119.178 346.91 119.651 346.91C119.945 346.91 120.228 346.96 120.501 347.06C120.775 347.153 121.025 347.293 121.251 347.48V345L121.991 344.83V352H121.261V351.47C120.821 351.877 120.281 352.08 119.641 352.08ZM119.711 351.43C120.025 351.43 120.315 351.37 120.581 351.25C120.855 351.123 121.078 350.95 121.251 350.73V348.25C121.078 348.037 120.855 347.87 120.581 347.75C120.315 347.623 120.025 347.56 119.711 347.56C119.365 347.56 119.048 347.643 118.761 347.81C118.481 347.977 118.258 348.207 118.091 348.5C117.931 348.787 117.851 349.113 117.851 349.48C117.851 349.847 117.931 350.177 118.091 350.47C118.258 350.763 118.481 350.997 118.761 351.17C119.048 351.343 119.365 351.43 119.711 351.43Z" fill="white"/>
</g>
</g>
</g>
<defs>
<filter id="filter0_dd_1680_31796" x="0" y="0" width="322" height="428" filterUnits="userSpaceOnUse" color-interpolation-filters="sRGB">
<feFlood flood-opacity="0" result="BackgroundImageFix"/>
<feColorMatrix in="SourceAlpha" type="matrix" values="0 0 0 0 0 0 0 0 0 0 0 0 0 0 0 0 0 0 127 0" result="hardAlpha"/>
<feMorphology radius="2" operator="dilate" in="SourceAlpha" result="effect1_dropShadow_1680_31796"/>
<feOffset dx="10" dy="8"/>
<feGaussianBlur stdDeviation="20"/>
<feComposite in2="hardAlpha" operator="out"/>
<feColorMatrix type="matrix" values="0 0 0 0 0 0 0 0 0 0 0 0 0 0 0 0 0 0 0.2 0"/>
<feBlend mode="normal" in2="BackgroundImageFix" result="effect1_dropShadow_1680_31796"/>
<feColorMatrix in="SourceAlpha" type="matrix" values="0 0 0 0 0 0 0 0 0 0 0 0 0 0 0 0 0 0 127 0" result="hardAlpha"/>
<feMorphology radius="2" operator="dilate" in="SourceAlpha" result="effect2_dropShadow_1680_31796"/>
<feOffset dx="-10" dy="-4"/>
<feGaussianBlur stdDeviation="20"/>
<feComposite in2="hardAlpha" operator="out"/>
<feColorMatrix type="matrix" values="0 0 0 0 0 0 0 0 0 0 0 0 0 0 0 0 0 0 0.2 0"/>
<feBlend mode="normal" in2="effect1_dropShadow_1680_31796" result="effect2_dropShadow_1680_31796"/>
<feBlend mode="normal" in="SourceGraphic" in2="effect2_dropShadow_1680_31796" result="shape"/>
</filter>
<filter id="filter1_f_1680_31796" x="89.4676" y="69.4676" width="337.046" height="337.045" filterUnits="userSpaceOnUse" color-interpolation-filters="sRGB">
<feFlood flood-opacity="0" result="BackgroundImageFix"/>
<feBlend mode="normal" in="SourceGraphic" in2="BackgroundImageFix" result="shape"/>
<feGaussianBlur stdDeviation="50.7662" result="effect1_foregroundBlur_1680_31796"/>
</filter>
<filter id="filter2_f_1680_31796" x="-7.53241" y="212.206" width="337.046" height="337.045" filterUnits="userSpaceOnUse" color-interpolation-filters="sRGB">
<feFlood flood-opacity="0" result="BackgroundImageFix"/>
<feBlend mode="normal" in="SourceGraphic" in2="BackgroundImageFix" result="shape"/>
<feGaussianBlur stdDeviation="50.7662" result="effect1_foregroundBlur_1680_31796"/>
</filter>
<filter id="filter3_f_1680_31796" x="-116.532" y="70.4676" width="337.046" height="337.045" filterUnits="userSpaceOnUse" color-interpolation-filters="sRGB">
<feFlood flood-opacity="0" result="BackgroundImageFix"/>
<feBlend mode="normal" in="SourceGraphic" in2="BackgroundImageFix" result="shape"/>
<feGaussianBlur stdDeviation="50.7662" result="effect1_foregroundBlur_1680_31796"/>
</filter>
<linearGradient id="paint0_linear_1680_31796" x1="182.235" y1="86" x2="230.397" y2="128.041" gradientUnits="userSpaceOnUse">
<stop stop-color="#F8ECC1"/>
<stop offset="1" stop-color="#C8AC48"/>
</linearGradient>
<clipPath id="clip0_1680_31796">
<rect x="52" y="46" width="218" height="332" rx="20" fill="white"/>
</clipPath>
<clipPath id="clip1_1680_31796">
<rect width="218" height="192" fill="white" transform="translate(52 46)"/>
</clipPath>
<clipPath id="clip2_1680_31796">
<rect width="289.6" height="191.5" fill="white" transform="translate(78.0762 23.1328) rotate(28.0658)"/>
</clipPath>
<clipPath id="clip3_1680_31796">
<rect x="182" y="86" width="29.0909" height="40" rx="4" fill="white"/>
</clipPath>
<clipPath id="clip4_1680_31796">
<rect width="218" height="140" fill="white" transform="translate(52 238)"/>
</clipPath>
</defs>
</svg>
