<svg width="104" height="24" viewBox="0 0 104 24" fill="none" xmlns="http://www.w3.org/2000/svg">
    <rect width="24" height="24" rx="12" fill="#9747FF"/>
    <path fill-rule="evenodd" clip-rule="evenodd" d="M15.4881 4.43057C15.8026 4.70014 15.839 5.17361 15.5694 5.48811L9.98781 12L15.5694 18.5119C15.839 18.8264 15.8026 19.2999 15.4881 19.5695C15.1736 19.839 14.7001 19.8026 14.4306 19.4881L8.43056 12.4881C8.18981 12.2072 8.18981 11.7928 8.43056 11.5119L14.4306 4.51192C14.7001 4.19743 15.1736 4.161 15.4881 4.43057Z" fill="white"/>
    <path d="M37.208 16.564C35.4053 16.564 34.16 16.0947 33.472 15.156C32.7893 14.2173 32.448 12.8547 32.448 11.068C32.448 9.25467 32.8 7.892 33.504 6.98C34.208 6.068 35.5227 5.612 37.448 5.612C39.24 5.612 40.48 6.02267 41.168 6.844C41.856 7.66533 42.2213 8.60933 42.264 9.676H39.536C39.488 8.81733 39.3013 8.23333 38.976 7.924C38.656 7.60933 38.1467 7.452 37.448 7.452C36.7227 7.452 36.1653 7.65733 35.776 8.068C35.3867 8.47333 35.192 9.50267 35.192 11.156C35.192 12.5907 35.3867 13.5427 35.776 14.012C36.1653 14.4813 36.728 14.716 37.464 14.716C38.152 14.716 38.6533 14.58 38.968 14.308C39.2827 14.0307 39.456 13.5373 39.488 12.828L39.584 12.516H37.632V10.908H42.264V16.5H40.728L40.424 15.148C39.9493 16.092 38.8773 16.564 37.208 16.564ZM48.4911 16.596C46.6991 16.596 45.4431 16.164 44.7231 15.3C44.0085 14.4307 43.6511 13.2493 43.6511 11.756C43.6511 10.2253 44.0111 9.03867 44.7311 8.196C45.4511 7.348 46.6885 6.924 48.4431 6.924C50.2405 6.924 51.4831 7.35333 52.1711 8.212C52.8645 9.07067 53.2111 10.2493 53.2111 11.748C53.2111 12.0467 53.1925 12.3133 53.1551 12.548H46.0031V10.924H50.6431L50.5471 11.164C50.5471 10.252 50.3605 9.60667 49.9871 9.228C49.6191 8.84933 49.1045 8.66 48.4431 8.66C47.7925 8.66 47.2645 8.86533 46.8591 9.276C46.4538 9.68667 46.2511 10.5133 46.2511 11.756C46.2511 12.972 46.4511 13.7933 46.8511 14.22C47.2565 14.6467 47.8031 14.86 48.4911 14.86V16.596ZM48.4911 14.86C48.8911 14.86 49.2218 14.8067 49.4831 14.7C49.7445 14.5933 49.9525 14.4147 50.1071 14.164C50.2671 13.9133 50.4031 13.6173 50.5151 13.276L52.9231 13.956C52.8058 14.58 52.5498 15.084 52.1551 15.468C51.7658 15.852 51.2938 16.1373 50.7391 16.324C50.1898 16.5053 49.4405 16.596 48.4911 16.596V14.86ZM59.1569 16.62C58.3142 16.62 57.5995 16.444 57.0129 16.092C56.4315 15.7347 56.1409 15.092 56.1409 14.164V8.868H53.9729V7.02H56.1409V4.852H58.8369V7.02H61.7489V8.868H58.8369V13.572C58.8369 14.0893 58.9435 14.428 59.1569 14.588C59.3755 14.7427 59.6822 14.82 60.0769 14.82C60.4715 14.82 60.8582 14.7533 61.2369 14.62V16.396C60.5755 16.5453 59.8822 16.62 59.1569 16.62ZM67.0226 16.5V5.7H69.7506V10.172H73.7346V5.7H76.4546V16.5H73.7346V12.028H69.7506V16.5H67.0226ZM82.6786 16.596C80.8866 16.596 79.6306 16.164 78.9106 15.3C78.196 14.4307 77.8386 13.2493 77.8386 11.756C77.8386 10.2253 78.1986 9.03867 78.9186 8.196C79.6386 7.348 80.876 6.924 82.6306 6.924C84.428 6.924 85.6706 7.35333 86.3586 8.212C87.052 9.07067 87.3986 10.2493 87.3986 11.748C87.3986 12.0467 87.38 12.3133 87.3426 12.548H80.1906V10.924H84.8306L84.7346 11.164C84.7346 10.252 84.548 9.60667 84.1746 9.228C83.8066 8.84933 83.292 8.66 82.6306 8.66C81.98 8.66 81.452 8.86533 81.0466 9.276C80.6413 9.68667 80.4386 10.5133 80.4386 11.756C80.4386 12.972 80.6386 13.7933 81.0386 14.22C81.444 14.6467 81.9906 14.86 82.6786 14.86V16.596ZM82.6786 14.86C83.0786 14.86 83.4093 14.8067 83.6706 14.7C83.932 14.5933 84.14 14.4147 84.2946 14.164C84.4546 13.9133 84.5906 13.6173 84.7026 13.276L87.1106 13.956C86.9933 14.58 86.7373 15.084 86.3426 15.468C85.9533 15.852 85.4813 16.1373 84.9266 16.324C84.3773 16.5053 83.628 16.596 82.6786 16.596V14.86ZM88.9273 16.5V3.94H91.6233V16.5H88.9273ZM93.2818 20.052V7.02H95.3618L95.9698 8.524V20.052H93.2818ZM98.9778 16.564C97.8471 16.564 96.8631 16.3027 96.0258 15.78C95.1938 15.2573 94.7778 14.676 94.7778 14.036L95.9698 12.86C95.9698 13.3933 96.1751 13.8387 96.5858 14.196C96.9964 14.548 97.4818 14.724 98.0418 14.724C98.6444 14.724 99.1084 14.5267 99.4338 14.132C99.7591 13.7373 99.9218 12.9427 99.9218 11.748C99.9218 10.5693 99.7591 9.78 99.4338 9.38C99.1084 8.98 98.6444 8.78 98.0418 8.78C97.4818 8.78 96.9964 8.96133 96.5858 9.324C96.1751 9.68133 95.9698 10.1187 95.9698 10.636L94.7778 9.476C94.7778 8.836 95.1938 8.25467 96.0258 7.732C96.8631 7.204 97.8471 6.94 98.9778 6.94C100.268 6.94 101.202 7.36667 101.778 8.22C102.354 9.068 102.642 10.2413 102.642 11.74C102.642 13.2333 102.354 14.412 101.778 15.276C101.202 16.1347 100.268 16.564 98.9778 16.564Z" fill="#050505"/>
</svg>
