<svg width="343" height="56" viewBox="0 0 343 56" fill="none" xmlns="http://www.w3.org/2000/svg">
<path d="M0 24C0 12.6863 0 7.02944 3.51472 3.51472C7.02944 0 12.6863 0 24 0H319C330.314 0 335.971 0 339.485 3.51472C343 7.02944 343 12.6863 343 24V32C343 43.3137 343 48.9706 339.485 52.4853C335.971 56 330.314 56 319 56H24C12.6863 56 7.02944 56 3.51472 52.4853C0 48.9706 0 43.3137 0 32V24Z" fill="white"/>
<rect y="12" width="32" height="32" rx="16" fill="#F6F8FA"/>
<g clip-path="url(#clip0_1032_7872)">
<path fill-rule="evenodd" clip-rule="evenodd" d="M17.0867 37.3877L17.6288 36.4718C18.0492 35.7614 18.2595 35.4062 18.5972 35.2098C18.9349 35.0134 19.36 35.0061 20.2104 34.9915C21.4658 34.9698 22.2531 34.8929 22.9134 34.6194C24.1386 34.1119 25.1119 33.1386 25.6194 31.9134C26 30.9946 26 29.8297 26 27.5V26.5C26 23.2266 26 21.5899 25.2632 20.3875C24.8509 19.7147 24.2853 19.1491 23.6125 18.7368C22.4101 18 20.7734 18 17.5 18H14.5C11.2266 18 9.58985 18 8.38751 18.7368C7.71473 19.1491 7.14908 19.7147 6.7368 20.3875C6 21.5899 6 23.2266 6 26.5V27.5C6 29.8297 6 30.9946 6.3806 31.9134C6.88807 33.1386 7.86144 34.1119 9.08658 34.6194C9.74689 34.8929 10.5342 34.9698 11.7896 34.9915C12.6399 35.0061 13.0651 35.0134 13.4028 35.2098C13.7405 35.4063 13.9507 35.7614 14.3712 36.4718L14.9133 37.3877C15.3965 38.204 16.6035 38.204 17.0867 37.3877ZM11.5 25.7148C11.5 27.4673 13.6633 29.3304 14.9901 30.3082C15.4442 30.643 15.6713 30.8103 16 30.8103C16.3287 30.8103 16.5558 30.643 17.0099 30.3082C18.3367 29.3304 20.5 27.4674 20.5 25.7147C20.5 23.0376 18.0249 22.0381 16 24.1061C13.9751 22.0381 11.5 23.0376 11.5 25.7148Z" fill="#9747FF"/>
</g>
<path d="M45.698 32.654C44.9793 32.654 44.3073 32.5233 43.682 32.262C43.066 32.0007 42.5247 31.6413 42.058 31.184C41.5913 30.7173 41.2273 30.1807 40.966 29.574C40.7047 28.958 40.574 28.3 40.574 27.6C40.574 26.9 40.7 26.2467 40.952 25.64C41.2133 25.024 41.5773 24.4873 42.044 24.03C42.5107 23.5633 43.052 23.1993 43.668 22.938C44.284 22.6767 44.9513 22.546 45.67 22.546C46.4447 22.546 47.1773 22.6953 47.868 22.994C48.5587 23.2927 49.142 23.708 49.618 24.24L48.61 25.22C48.2553 24.8 47.8167 24.478 47.294 24.254C46.7807 24.0207 46.2393 23.904 45.67 23.904C45.1567 23.904 44.6807 23.9973 44.242 24.184C43.8127 24.3707 43.4347 24.632 43.108 24.968C42.7813 25.2947 42.5247 25.682 42.338 26.13C42.1607 26.578 42.072 27.068 42.072 27.6C42.072 28.1227 42.1607 28.6127 42.338 29.07C42.5247 29.518 42.7813 29.91 43.108 30.246C43.444 30.582 43.8313 30.8433 44.27 31.03C44.7087 31.2167 45.1847 31.31 45.698 31.31C46.2767 31.31 46.7993 31.1887 47.266 30.946C47.742 30.7033 48.1293 30.372 48.428 29.952C48.7267 29.5227 48.9087 29.042 48.974 28.51H45.712V27.222H50.514V27.726C50.514 28.426 50.3927 29.0747 50.15 29.672C49.9073 30.2693 49.5667 30.792 49.128 31.24C48.6987 31.688 48.19 32.038 47.602 32.29C47.014 32.5327 46.3793 32.654 45.698 32.654ZM55.3025 32.626C54.6025 32.626 53.9679 32.4627 53.3985 32.136C52.8385 31.8093 52.3905 31.366 52.0545 30.806C51.7279 30.246 51.5645 29.6207 51.5645 28.93C51.5645 28.2487 51.7232 27.6327 52.0405 27.082C52.3579 26.522 52.7872 26.0787 53.3285 25.752C53.8699 25.416 54.4719 25.248 55.1345 25.248C55.7972 25.248 56.3852 25.416 56.8985 25.752C57.4119 26.0787 57.8179 26.5267 58.1165 27.096C58.4245 27.656 58.5785 28.2907 58.5785 29V29.392H52.9645C53.0392 29.784 53.1839 30.134 53.3985 30.442C53.6225 30.75 53.9025 30.9927 54.2385 31.17C54.5839 31.3473 54.9572 31.436 55.3585 31.436C55.7039 31.436 56.0352 31.3847 56.3525 31.282C56.6792 31.17 56.9499 31.0113 57.1645 30.806L58.0605 31.688C57.6405 32.0053 57.2065 32.2433 56.7585 32.402C56.3199 32.5513 55.8345 32.626 55.3025 32.626ZM52.9785 28.342H57.1925C57.1365 27.9687 57.0059 27.642 56.8005 27.362C56.6045 27.0727 56.3572 26.8487 56.0585 26.69C55.7692 26.522 55.4519 26.438 55.1065 26.438C54.7519 26.438 54.4252 26.5173 54.1265 26.676C53.8279 26.8347 53.5759 27.0587 53.3705 27.348C53.1745 27.628 53.0439 27.9593 52.9785 28.342ZM62.7589 32.626C62.0682 32.626 61.5409 32.4673 61.1769 32.15C60.8129 31.8233 60.6309 31.352 60.6309 30.736V26.55H59.1189V25.374H60.6309V23.554L62.0169 23.218V25.374H64.1169V26.55H62.0169V30.414C62.0169 30.778 62.0962 31.0393 62.2549 31.198C62.4229 31.3473 62.6935 31.422 63.0669 31.422C63.2629 31.422 63.4355 31.408 63.5849 31.38C63.7435 31.352 63.9115 31.31 64.0889 31.254V32.43C63.9022 32.4953 63.6829 32.542 63.4309 32.57C63.1882 32.6073 62.9642 32.626 62.7589 32.626ZM68.242 32.5V22.7H69.712V26.9H74.92V22.7H76.39V32.5H74.92V28.23H69.712V32.5H68.242ZM81.6346 32.626C80.9346 32.626 80.2999 32.4627 79.7306 32.136C79.1706 31.8093 78.7226 31.366 78.3866 30.806C78.0599 30.246 77.8966 29.6207 77.8966 28.93C77.8966 28.2487 78.0552 27.6327 78.3726 27.082C78.6899 26.522 79.1192 26.0787 79.6606 25.752C80.2019 25.416 80.8039 25.248 81.4666 25.248C82.1292 25.248 82.7172 25.416 83.2306 25.752C83.7439 26.0787 84.1499 26.5267 84.4486 27.096C84.7566 27.656 84.9106 28.2907 84.9106 29V29.392H79.2966C79.3712 29.784 79.5159 30.134 79.7306 30.442C79.9546 30.75 80.2346 30.9927 80.5706 31.17C80.9159 31.3473 81.2892 31.436 81.6906 31.436C82.0359 31.436 82.3672 31.3847 82.6846 31.282C83.0112 31.17 83.2819 31.0113 83.4966 30.806L84.3926 31.688C83.9726 32.0053 83.5386 32.2433 83.0906 32.402C82.6519 32.5513 82.1666 32.626 81.6346 32.626ZM79.3106 28.342H83.5246C83.4686 27.9687 83.3379 27.642 83.1326 27.362C82.9366 27.0727 82.6892 26.8487 82.3906 26.69C82.1012 26.522 81.7839 26.438 81.4386 26.438C81.0839 26.438 80.7572 26.5173 80.4586 26.676C80.1599 26.8347 79.9079 27.0587 79.7026 27.348C79.5066 27.628 79.3759 27.9593 79.3106 28.342ZM86.244 32.5V22.7L87.644 22.434V32.5H86.244ZM89.2928 35.356V25.374H90.6788V26.06C91.2761 25.528 92.0041 25.262 92.8628 25.262C93.5348 25.262 94.1415 25.4253 94.6828 25.752C95.2335 26.0787 95.6675 26.5173 95.9848 27.068C96.3021 27.6187 96.4608 28.2393 96.4608 28.93C96.4608 29.6207 96.2975 30.246 95.9708 30.806C95.6535 31.3567 95.2195 31.7953 94.6688 32.122C94.1275 32.4487 93.5161 32.612 92.8348 32.612C92.4428 32.612 92.0648 32.5513 91.7008 32.43C91.3368 32.2993 91.0008 32.1173 90.6928 31.884V35.356H89.2928ZM92.6808 31.394C93.1381 31.394 93.5441 31.2867 93.8988 31.072C94.2628 30.8573 94.5521 30.568 94.7668 30.204C94.9815 29.8307 95.0888 29.4107 95.0888 28.944C95.0888 28.4773 94.9815 28.0573 94.7668 27.684C94.5521 27.3107 94.2628 27.0167 93.8988 26.802C93.5441 26.5873 93.1381 26.48 92.6808 26.48C92.2795 26.48 91.9061 26.5547 91.5608 26.704C91.2155 26.8533 90.9261 27.0633 90.6928 27.334V30.554C90.9261 30.8153 91.2155 31.0207 91.5608 31.17C91.9155 31.3193 92.2888 31.394 92.6808 31.394Z" fill="#050505"/>
<path fill-rule="evenodd" clip-rule="evenodd" d="M328.675 22.9544C328.884 22.7747 329.2 22.7989 329.38 23.0086L333.38 27.6753C333.54 27.8625 333.54 28.1388 333.38 28.3261L329.38 32.9927C329.2 33.2024 328.884 33.2267 328.675 33.047C328.465 32.8672 328.441 32.5516 328.62 32.3419L332.341 28.0007L328.62 23.6594C328.441 23.4497 328.465 23.1341 328.675 22.9544Z" fill="#CCD0DC"/>
<defs>
<clipPath id="clip0_1032_7872">
<rect x="4" y="16" width="24" height="24" rx="8" fill="white"/>
</clipPath>
</defs>
</svg>
