<svg width="24" height="24" viewBox="0 0 24 24" fill="none" xmlns="http://www.w3.org/2000/svg">
<g id="ICONS SET">
<path id="Vector" d="M8.3999 4.7998H5.6999C4.82469 4.7998 3.98532 5.14748 3.36645 5.76635C2.74758 6.38522 2.3999 7.22459 2.3999 8.0998V10.7998H5.1215C4.85739 10.3423 4.75162 9.81038 4.82059 9.2866C4.88956 8.76283 5.12943 8.27645 5.50299 7.90289C5.87655 7.52933 6.36293 7.28947 6.8867 7.22049C7.41047 7.15152 7.94237 7.25729 8.3999 7.5214V4.7998ZM9.5999 9.5998V10.7998H10.7999C11.0372 10.7998 11.2692 10.7294 11.4666 10.5976C11.6639 10.4657 11.8177 10.2783 11.9086 10.059C11.9994 9.83975 12.0231 9.59847 11.9768 9.3657C11.9305 9.13292 11.8163 8.9191 11.6484 8.75128C11.4806 8.58345 11.2668 8.46916 11.034 8.42286C10.8012 8.37656 10.56 8.40032 10.3407 8.49115C10.1214 8.58197 9.934 8.73578 9.80214 8.93312C9.67028 9.13046 9.5999 9.36247 9.5999 9.5998ZM12.8783 10.7998C13.1424 10.3423 13.2482 9.81038 13.1792 9.2866C13.1102 8.76283 12.8704 8.27645 12.4968 7.90289C12.1233 7.52933 11.6369 7.28947 11.1131 7.22049C10.5893 7.15152 10.0574 7.25729 9.5999 7.5214V4.7998H18.2999C19.1751 4.7998 20.0145 5.14748 20.6334 5.76635C21.2522 6.38522 21.5999 7.22459 21.5999 8.0998V10.7998H12.8783ZM10.4483 11.9998L12.4247 13.975C12.5374 14.0877 12.6007 14.2405 12.6007 14.3998C12.6007 14.5591 12.5374 14.7119 12.4247 14.8246C12.312 14.9373 12.1592 15.0006 11.9999 15.0006C11.8406 15.0006 11.6878 14.9373 11.5751 14.8246L9.5999 12.8482V19.1998H18.2999C19.1751 19.1998 20.0145 18.8521 20.6334 18.2333C21.2522 17.6144 21.5999 16.775 21.5999 15.8998V11.9998H10.4483ZM8.3999 19.1998V12.8482L6.4247 14.8246C6.31204 14.9373 6.15923 15.0006 5.9999 15.0006C5.84057 15.0006 5.68777 14.9373 5.5751 14.8246C5.46244 14.7119 5.39914 14.5591 5.39914 14.3998C5.39914 14.2405 5.46244 14.0877 5.5751 13.975L7.5515 11.9998H2.3999V15.8998C2.3999 16.775 2.74758 17.6144 3.36645 18.2333C3.98532 18.8521 4.82469 19.1998 5.6999 19.1998H8.3999ZM8.3999 9.5998C8.3999 9.36247 8.32952 9.13046 8.19767 8.93312C8.06581 8.73578 7.87839 8.58197 7.65912 8.49115C7.43985 8.40032 7.19857 8.37656 6.96579 8.42286C6.73302 8.46916 6.5192 8.58345 6.35137 8.75128C6.18355 8.9191 6.06926 9.13292 6.02296 9.3657C5.97666 9.59847 6.00042 9.83975 6.09125 10.059C6.18207 10.2783 6.33588 10.4657 6.53322 10.5976C6.73056 10.7294 6.96256 10.7998 7.1999 10.7998H8.3999V9.5998Z" fill="#2FB763"/>
</g>
</svg>
