<svg width="16" height="16" viewBox="0 0 16 16" fill="none" xmlns="http://www.w3.org/2000/svg">
    <path fill-rule="evenodd" clip-rule="evenodd" d="M5.22872 2.53344C6.5812 1.7325 7.25744 1.33203 8 1.33203C8.74256 1.33203 9.4188 1.7325 10.7713 2.53344L11.2287 2.80434C12.5812 3.60528 13.2574 4.00575 13.6287 4.66536C14 5.32498 14 6.12592 14 7.7278V8.26959C14 9.87147 14 10.6724 13.6287 11.332C13.2574 11.9917 12.5812 12.3921 11.2287 13.1931L10.7713 13.464C9.4188 14.2649 8.74256 14.6654 8 14.6654C7.25744 14.6654 6.5812 14.2649 5.22872 13.464L4.77128 13.1931C3.4188 12.3921 2.74256 11.9917 2.37128 11.332C2 10.6724 2 9.87147 2 8.26959V7.7278C2 6.12592 2 5.32498 2.37128 4.66536C2.74256 4.00575 3.4188 3.60528 4.77128 2.80434L5.22872 2.53344ZM8.66667 10.6654C8.66667 11.0336 8.36819 11.332 8 11.332C7.63181 11.332 7.33333 11.0336 7.33333 10.6654C7.33333 10.2972 7.63181 9.9987 8 9.9987C8.36819 9.9987 8.66667 10.2972 8.66667 10.6654ZM8 4.16536C8.27614 4.16536 8.5 4.38922 8.5 4.66536V8.66536C8.5 8.94151 8.27614 9.16536 8 9.16536C7.72386 9.16536 7.5 8.94151 7.5 8.66536V4.66536C7.5 4.38922 7.72386 4.16536 8 4.16536Z" fill="#FFBE62"/>
</svg>
