<svg width="25" height="24" viewBox="0 0 25 24" fill="none" xmlns="http://www.w3.org/2000/svg">
    <path d="M12.5 6.25C12.9142 6.25 13.25 6.58579 13.25 7V13C13.25 13.4142 12.9142 13.75 12.5 13.75C12.0858 13.75 11.75 13.4142 11.75 13V7C11.75 6.58579 12.0858 6.25 12.5 6.25Z" fill="#1F7A42"/>
    <path d="M13.5 16C13.5 16.5523 13.0523 17 12.5 17C11.9477 17 11.5 16.5523 11.5 16C11.5 15.4477 11.9477 15 12.5 15C13.0523 15 13.5 15.4477 13.5 16Z" fill="#1F7A42"/>
    <path fill-rule="evenodd" clip-rule="evenodd" d="M12.5 1.25C11.7954 1.25 11.1519 1.44359 10.4486 1.77037C9.76808 2.08656 8.98039 2.55304 7.99457 3.13685L7.24148 3.58283C6.25533 4.16682 5.46771 4.63324 4.86076 5.07944C4.23315 5.54083 3.75177 6.01311 3.40334 6.63212C3.05548 7.25014 2.89841 7.91095 2.82306 8.69506C2.74999 9.45539 2.74999 10.3865 2.75 11.556V12.444C2.74999 13.6135 2.74999 14.5446 2.82306 15.3049C2.89841 16.0891 3.05548 16.7499 3.40334 17.3679C3.75177 17.9869 4.23315 18.4592 4.86076 18.9206C5.46771 19.3668 6.25533 19.8332 7.24148 20.4172L7.9946 20.8632C8.98038 21.447 9.7681 21.9135 10.4486 22.2296C11.1519 22.5564 11.7954 22.75 12.5 22.75C13.2046 22.75 13.8481 22.5564 14.5514 22.2296C15.2319 21.9134 16.0196 21.447 17.0054 20.8632L17.7585 20.4172C18.7446 19.8332 19.5323 19.3668 20.1392 18.9206C20.7669 18.4592 21.2482 17.9869 21.5967 17.3679C21.9445 16.7499 22.1016 16.0891 22.1769 15.3049C22.25 14.5446 22.25 13.6135 22.25 12.4441V11.556C22.25 10.3866 22.25 9.45538 22.1769 8.69506C22.1016 7.91095 21.9445 7.25014 21.5967 6.63212C21.2482 6.01311 20.7669 5.54083 20.1392 5.07944C19.5323 4.63324 18.7447 4.16683 17.7585 3.58285L17.0054 3.13685C16.0196 2.55303 15.2319 2.08656 14.5514 1.77037C13.8481 1.44359 13.2046 1.25 12.5 1.25ZM8.72524 4.44744C9.75238 3.83917 10.4761 3.41161 11.0807 3.13069C11.6702 2.85676 12.0907 2.75 12.5 2.75C12.9093 2.75 13.3298 2.85676 13.9193 3.13069C14.5239 3.41161 15.2476 3.83917 16.2748 4.44744L16.9609 4.85379C17.9879 5.46197 18.7109 5.89115 19.2508 6.288C19.7767 6.67467 20.081 6.99746 20.2895 7.36788C20.4986 7.73929 20.6199 8.1739 20.6838 8.83855C20.7492 9.51884 20.75 10.378 20.75 11.5937V12.4063C20.75 13.622 20.7492 14.4812 20.6838 15.1614C20.6199 15.8261 20.4986 16.2607 20.2895 16.6321C20.081 17.0025 19.7767 17.3253 19.2508 17.712C18.7109 18.1089 17.9879 18.538 16.9609 19.1462L16.2748 19.5526C15.2476 20.1608 14.5239 20.5884 13.9193 20.8693C13.3298 21.1432 12.9093 21.25 12.5 21.25C12.0907 21.25 11.6702 21.1432 11.0807 20.8693C10.4761 20.5884 9.75238 20.1608 8.72524 19.5526L8.03909 19.1462C7.0121 18.538 6.28906 18.1089 5.74924 17.712C5.22326 17.3253 4.919 17.0025 4.7105 16.6321C4.50145 16.2607 4.38005 15.8261 4.31618 15.1614C4.2508 14.4812 4.25 13.622 4.25 12.4063V11.5937C4.25 10.378 4.2508 9.51884 4.31618 8.83855C4.38005 8.1739 4.50145 7.73929 4.7105 7.36788C4.919 6.99746 5.22326 6.67467 5.74924 6.288C6.28906 5.89115 7.0121 5.46197 8.03909 4.85379L8.72524 4.44744Z" fill="#1F7A42"/>
</svg>
