<svg width="500" height="812" viewBox="0 0 375 812" fill="none" xmlns="http://www.w3.org/2000/svg">
    <g clip-path="url(#clip0_4050_30292)">
        <rect width="375" height="812" fill="white"/>
        <g clip-path="url(#clip1_4050_30292)">
            <rect width="375" height="812" fill="#FBFBFB"/>
            <circle cx="70.0156" cy="-122.624" r="544.805" stroke="#F0F0F0" stroke-width="1.21202"/>
            <circle cx="125.769" cy="-22.0256" r="544.805" stroke="#F0F0F0" stroke-width="1.21202"/>
            <circle cx="-11.1898" cy="-160.196" r="241.799" stroke="#F0F0F0" stroke-width="1.21202"/>
            <circle cx="-11.1904" cy="-202.617" r="363.001" stroke="#F0F0F0" stroke-width="1.21202"/>
            <circle cx="-11.1901" cy="-240.19" r="484.204" stroke="#F0F0F0" stroke-width="1.21202"/>
            <circle cx="40.9261" cy="-160.196" r="484.204" stroke="#F0F0F0" stroke-width="1.21202"/>
            <line x1="-54.5652" y1="-52.5833" x2="535.112" y2="537.094" stroke="#F0F0F0" stroke-width="0.727215"/>
            <line x1="-67.5766" y1="-44.1749" x2="624.754" y2="420.708" stroke="#F0F0F0" stroke-width="0.727215"/>
            <line x1="-67.6145" y1="-27.2679" x2="706.279" y2="283.42" stroke="#F0F0F0" stroke-width="0.727215"/>
            <line x1="-76.157" y1="-15.5768" x2="740.551" y2="153.027" stroke="#F0F0F0" stroke-width="0.727215"/>
            <line x1="-40.0521" y1="-58.0677" x2="409.194" y2="644.511" stroke="#F0F0F0" stroke-width="0.727215"/>
            <line x1="-20.7408" y1="-55.444" x2="235.028" y2="738.294" stroke="#F0F0F0" stroke-width="0.727215"/>
            <path d="M22.7471 79.1785L22.6474 78.5807L21.9595 78.6954L22.169 79.3605L22.7471 79.1785ZM213.439 291.283C213.439 293.068 214.886 294.515 216.671 294.515C218.456 294.515 219.903 293.068 219.903 291.283C219.903 289.498 218.456 288.051 216.671 288.051C214.886 288.051 213.439 289.498 213.439 291.283ZM46.9876 156.142L46.4095 156.324L46.5761 156.853L47.1175 156.734L46.9876 156.142ZM168 113.5L168.34 112.998L168.035 112.792L167.712 112.967L168 113.5ZM333.5 225.5L333.853 225.993L334.56 225.486L333.84 224.998L333.5 225.5ZM71.609 66.4956C59.5499 71.3192 44.4507 74.9468 22.6474 78.5807L22.8467 79.7762C44.6763 76.138 59.8777 72.4935 72.0591 67.6209L71.609 66.4956ZM22.169 79.3605L46.4095 156.324L47.5656 155.96L23.3251 78.9964L22.169 79.3605ZM167.66 114.002L333.16 226.002L333.84 224.998L168.34 112.998L167.66 114.002ZM46.9876 156.142C47.1175 156.734 47.1176 156.734 47.118 156.734C47.1183 156.734 47.1188 156.734 47.1195 156.734C47.1209 156.733 47.1229 156.733 47.1255 156.732C47.1308 156.731 47.1387 156.729 47.1492 156.727C47.1701 156.722 47.2014 156.716 47.2427 156.706C47.3254 156.688 47.4483 156.661 47.6096 156.625C47.9321 156.554 48.4081 156.448 49.0222 156.31C50.2503 156.034 52.0311 155.631 54.2423 155.121C58.6644 154.1 64.8086 152.653 71.6966 150.942C85.4661 147.523 102.232 143.047 114.154 138.836L113.75 137.693C101.888 141.884 85.1709 146.347 71.4045 149.766C64.5245 151.474 58.3871 152.921 53.9698 153.94C51.7612 154.449 49.9828 154.852 48.7566 155.127C48.1436 155.265 47.6686 155.371 47.347 155.442C47.1862 155.478 47.0638 155.505 46.9816 155.523C46.9405 155.532 46.9095 155.539 46.8887 155.543C46.8784 155.546 46.8706 155.547 46.8654 155.548C46.8628 155.549 46.8608 155.549 46.8596 155.55C46.8589 155.55 46.8584 155.55 46.8581 155.55C46.8578 155.55 46.8577 155.55 46.9876 156.142ZM114.154 138.836C126.079 134.624 139.616 128.421 150.161 123.276C155.436 120.703 159.967 118.393 163.179 116.726C164.785 115.892 166.062 115.219 166.937 114.755C167.375 114.522 167.712 114.342 167.941 114.22C168.055 114.159 168.141 114.112 168.2 114.081C168.229 114.065 168.251 114.053 168.266 114.045C168.273 114.041 168.279 114.038 168.282 114.036C168.284 114.035 168.286 114.034 168.287 114.034C168.287 114.034 168.288 114.033 168.288 114.033C168.288 114.033 168.288 114.033 168 113.5C167.712 112.967 167.712 112.967 167.711 112.967C167.711 112.967 167.711 112.967 167.711 112.968C167.71 112.968 167.708 112.969 167.706 112.97C167.703 112.972 167.697 112.975 167.69 112.979C167.676 112.986 167.654 112.998 167.625 113.014C167.568 113.045 167.481 113.091 167.368 113.152C167.141 113.273 166.805 113.453 166.369 113.684C165.497 114.147 164.223 114.818 162.621 115.65C159.415 117.314 154.894 119.619 149.629 122.187C139.097 127.325 125.609 133.504 113.75 137.693L114.154 138.836ZM333.5 225.5C333.147 225.007 333.147 225.008 333.147 225.008C333.146 225.008 333.146 225.008 333.146 225.008C333.145 225.009 333.143 225.01 333.141 225.011C333.138 225.014 333.132 225.018 333.125 225.023C333.11 225.034 333.087 225.05 333.058 225.071C332.998 225.114 332.91 225.177 332.793 225.26C332.561 225.426 332.216 225.671 331.769 225.988C330.876 226.622 329.574 227.542 327.94 228.687C324.673 230.976 320.081 234.162 314.778 237.751C304.171 244.931 290.736 253.715 279.397 260.152L279.996 261.206C291.377 254.745 304.844 245.939 315.458 238.755C320.766 235.161 325.365 231.971 328.636 229.679C330.271 228.533 331.575 227.612 332.471 226.977C332.918 226.659 333.264 226.413 333.497 226.247C333.614 226.163 333.703 226.1 333.763 226.057C333.792 226.036 333.815 226.02 333.83 226.009C333.838 226.004 333.843 225.999 333.847 225.997C333.849 225.995 333.851 225.994 333.852 225.994C333.852 225.993 333.852 225.993 333.853 225.993C333.853 225.993 333.853 225.993 333.5 225.5ZM279.397 260.152C268.06 266.589 252.322 274.231 239.407 280.269C232.952 283.287 227.207 285.902 223.075 287.762C221.009 288.692 219.347 289.434 218.201 289.943C217.628 290.197 217.185 290.394 216.884 290.526C216.734 290.593 216.62 290.643 216.543 290.677C216.505 290.694 216.476 290.707 216.456 290.715C216.447 290.719 216.439 290.723 216.435 290.725C216.432 290.726 216.43 290.727 216.429 290.727C216.428 290.727 216.428 290.728 216.428 290.728C216.427 290.728 216.427 290.728 216.671 291.283C216.915 291.838 216.915 291.838 216.915 291.837C216.916 291.837 216.916 291.837 216.917 291.837C216.918 291.836 216.92 291.835 216.922 291.834C216.927 291.832 216.935 291.829 216.944 291.825C216.964 291.816 216.993 291.803 217.032 291.786C217.109 291.752 217.223 291.702 217.374 291.635C217.675 291.502 218.12 291.306 218.693 291.051C219.841 290.541 221.505 289.799 223.573 288.867C227.708 287.005 233.459 284.388 239.92 281.367C252.839 275.327 268.613 267.668 279.996 261.206L279.397 260.152Z" fill="url(#paint0_linear_4050_30292)"/>
            <g filter="url(#filter0_d_4050_30292)">
                <g clip-path="url(#clip2_4050_30292)">
                    <rect x="67" y="42" width="40" height="40" rx="20" fill="url(#paint1_linear_4050_30292)" shape-rendering="crispEdges"/>
                    <g filter="url(#filter1_d_4050_30292)">
                        <rect x="73.25" y="48.25" width="27.5" height="27.5" rx="13.75" fill="white"/>
                        <path d="M80.4139 59.1187C80.0468 61.9085 80.0972 64.8413 80.1993 66.507C80.249 67.6106 80.3833 69.358 80.8738 68.2851C81.5602 66.7836 81.8548 65.434 82.1307 64.0851C82.3131 63.1935 83.0811 59.3027 83.2037 57.7698C83.3127 56.4071 82.7398 55.3204 81.7935 56.0531C80.8432 56.7888 80.535 58.199 80.4139 59.1187Z" fill="#2FB763"/>
                        <path d="M84.5526 56.7888L81.7322 67.7026C81.3337 69.0208 81.8242 70.1245 83.0811 67.9478L84.7979 64.0851L87.5876 56.7888C87.8124 56.1246 87.9555 54.7409 86.7292 54.5202C85.503 54.2995 84.7672 55.9406 84.5526 56.7888Z" fill="#2FB763"/>
                        <path d="M88.6913 56.7888L83.8169 68.1624C83.2037 69.6646 84.0315 69.358 84.5526 68.6529L86.484 66.1084C87.5876 64.6063 90.0647 61.1543 91.1438 59.364C92.2229 57.5736 92.3088 56.7275 92.3088 56.0531C92.3088 55.5012 92.1739 54.5202 91.1438 54.5202C90.1137 54.5202 89.1205 55.7771 88.6913 56.7888Z" fill="#2FB763"/>
                        <path d="M91.5117 60.4676L86.2387 68.1624C85.1964 69.6953 86.484 69.9117 87.5263 68.8062C88.2008 68.0909 89.4883 66.7768 89.7336 66.507C90.0402 66.1698 92.9569 62.8471 93.9029 61.4486C94.608 60.4063 94.4241 57.7698 94.3014 56.7888C94.1367 55.4706 93.339 55.727 93.1978 56.5742C92.8606 58.5976 92.3088 59.364 91.5117 60.4676Z" fill="#2FB763"/>
                        <path d="M92.554 64.5449L89.5497 67.9478C88.0168 69.7872 89.1818 69.5726 90.4387 68.9902C91.6037 68.4503 93.6576 67.4573 93.9029 65.4953C94.1482 63.5333 93.2591 63.7172 92.554 64.5449Z" fill="#2FB763"/>
                    </g>
                </g>
            </g>
            <g filter="url(#filter2_d_4050_30292)">
                <g clip-path="url(#clip3_4050_30292)">
                    <g filter="url(#filter3_d_4050_30292)">
                        <rect x="168" y="277" width="44" height="44" rx="22" fill="#E3FAD6"/>
                        <path fill-rule="evenodd" clip-rule="evenodd" d="M187.592 290.2C187.349 290.408 187.227 290.512 187.097 290.599C186.799 290.799 186.464 290.937 186.112 291.007C185.959 291.037 185.799 291.05 185.48 291.075C184.679 291.139 184.278 291.171 183.944 291.289C183.171 291.562 182.562 292.171 182.289 292.944C182.171 293.278 182.139 293.679 182.075 294.48C182.05 294.799 182.037 294.959 182.007 295.112C181.937 295.464 181.799 295.799 181.599 296.097C181.512 296.227 181.408 296.349 181.2 296.592C180.679 297.204 180.418 297.51 180.265 297.83C179.912 298.57 179.912 299.43 180.265 300.17C180.418 300.49 180.679 300.796 181.2 301.408C181.408 301.651 181.512 301.773 181.599 301.903C181.799 302.201 181.937 302.536 182.007 302.888C182.037 303.041 182.05 303.201 182.075 303.52C182.139 304.321 182.171 304.722 182.289 305.056C182.562 305.829 183.171 306.438 183.944 306.711C184.278 306.829 184.679 306.861 185.48 306.925C185.799 306.95 185.959 306.963 186.112 306.993C186.464 307.063 186.799 307.201 187.097 307.401C187.227 307.488 187.349 307.592 187.592 307.8C188.204 308.321 188.51 308.582 188.83 308.735C189.57 309.088 190.43 309.088 191.17 308.735C191.49 308.582 191.796 308.321 192.408 307.8C192.651 307.592 192.773 307.488 192.903 307.401C193.201 307.201 193.536 307.063 193.888 306.993C194.041 306.963 194.201 306.95 194.52 306.925C195.321 306.861 195.722 306.829 196.056 306.711C196.829 306.438 197.438 305.829 197.711 305.056C197.829 304.722 197.861 304.321 197.925 303.52C197.95 303.201 197.963 303.041 197.993 302.888C198.063 302.536 198.201 302.201 198.401 301.903C198.488 301.773 198.592 301.651 198.8 301.408C199.321 300.796 199.582 300.49 199.735 300.17C200.088 299.43 200.088 298.57 199.735 297.83C199.582 297.51 199.321 297.204 198.8 296.592C198.592 296.349 198.488 296.227 198.401 296.097C198.201 295.799 198.063 295.464 197.993 295.112C197.963 294.959 197.95 294.799 197.925 294.48C197.861 293.679 197.829 293.278 197.711 292.944C197.438 292.171 196.829 291.562 196.056 291.289C195.722 291.171 195.321 291.139 194.52 291.075C194.201 291.05 194.041 291.037 193.888 291.007C193.536 290.937 193.201 290.799 192.903 290.599C192.773 290.512 192.651 290.408 192.408 290.2C191.796 289.679 191.49 289.418 191.17 289.265C190.43 288.912 189.57 288.912 188.83 289.265C188.51 289.418 188.204 289.679 187.592 290.2ZM194.373 296.863C194.691 296.545 194.691 296.03 194.373 295.712C194.056 295.394 193.54 295.394 193.223 295.712L188.372 300.562L186.777 298.968C186.46 298.65 185.944 298.65 185.626 298.968C185.309 299.285 185.309 299.801 185.626 300.119L187.797 302.289C188.115 302.607 188.63 302.607 188.948 302.289L194.373 296.863Z" fill="#2FB763"/>
                    </g>
                </g>
            </g>
        </g>
    </g>
    <defs>
        <filter id="filter0_d_4050_30292" x="53.25" y="29.5" width="67.5" height="67.5" filterUnits="userSpaceOnUse" color-interpolation-filters="sRGB">
            <feFlood flood-opacity="0" result="BackgroundImageFix"/>
            <feColorMatrix in="SourceAlpha" type="matrix" values="0 0 0 0 0 0 0 0 0 0 0 0 0 0 0 0 0 0 127 0" result="hardAlpha"/>
            <feMorphology radius="1.25" operator="dilate" in="SourceAlpha" result="effect1_dropShadow_4050_30292"/>
            <feOffset dy="1.25"/>
            <feGaussianBlur stdDeviation="6.25"/>
            <feComposite in2="hardAlpha" operator="out"/>
            <feColorMatrix type="matrix" values="0 0 0 0 0 0 0 0 0 0 0 0 0 0 0 0 0 0 0.07 0"/>
            <feBlend mode="normal" in2="BackgroundImageFix" result="effect1_dropShadow_4050_30292"/>
            <feBlend mode="normal" in="SourceGraphic" in2="effect1_dropShadow_4050_30292" result="shape"/>
        </filter>
        <filter id="filter1_d_4050_30292" x="63.25" y="39.5" width="47.5" height="47.5" filterUnits="userSpaceOnUse" color-interpolation-filters="sRGB">
            <feFlood flood-opacity="0" result="BackgroundImageFix"/>
            <feColorMatrix in="SourceAlpha" type="matrix" values="0 0 0 0 0 0 0 0 0 0 0 0 0 0 0 0 0 0 127 0" result="hardAlpha"/>
            <feMorphology radius="2.5" operator="erode" in="SourceAlpha" result="effect1_dropShadow_4050_30292"/>
            <feOffset dy="1.25"/>
            <feGaussianBlur stdDeviation="6.25"/>
            <feComposite in2="hardAlpha" operator="out"/>
            <feColorMatrix type="matrix" values="0 0 0 0 0 0 0 0 0 0 0 0 0 0 0 0 0 0 0.15 0"/>
            <feBlend mode="normal" in2="BackgroundImageFix" result="effect1_dropShadow_4050_30292"/>
            <feBlend mode="normal" in="SourceGraphic" in2="effect1_dropShadow_4050_30292" result="shape"/>
        </filter>
        <filter id="filter2_d_4050_30292" x="150" y="260" width="80" height="80" filterUnits="userSpaceOnUse" color-interpolation-filters="sRGB">
            <feFlood flood-opacity="0" result="BackgroundImageFix"/>
            <feColorMatrix in="SourceAlpha" type="matrix" values="0 0 0 0 0 0 0 0 0 0 0 0 0 0 0 0 0 0 127 0" result="hardAlpha"/>
            <feMorphology radius="1" operator="erode" in="SourceAlpha" result="effect1_dropShadow_4050_30292"/>
            <feOffset dy="1"/>
            <feGaussianBlur stdDeviation="4.5"/>
            <feComposite in2="hardAlpha" operator="out"/>
            <feColorMatrix type="matrix" values="0 0 0 0 0.900027 0 0 0 0 0.985587 0 0 0 0 0.932741 0 0 0 1 0"/>
            <feBlend mode="normal" in2="BackgroundImageFix" result="effect1_dropShadow_4050_30292"/>
            <feBlend mode="normal" in="SourceGraphic" in2="effect1_dropShadow_4050_30292" result="shape"/>
        </filter>
        <filter id="filter3_d_4050_30292" x="161" y="270" width="62" height="62" filterUnits="userSpaceOnUse" color-interpolation-filters="sRGB">
            <feFlood flood-opacity="0" result="BackgroundImageFix"/>
            <feColorMatrix in="SourceAlpha" type="matrix" values="0 0 0 0 0 0 0 0 0 0 0 0 0 0 0 0 0 0 127 0" result="hardAlpha"/>
            <feMorphology radius="1" operator="erode" in="SourceAlpha" result="effect1_dropShadow_4050_30292"/>
            <feOffset dx="2" dy="2"/>
            <feGaussianBlur stdDeviation="5"/>
            <feComposite in2="hardAlpha" operator="out"/>
            <feColorMatrix type="matrix" values="0 0 0 0 0.214787 0 0 0 0 0.00952833 0 0 0 0 0.043305 0 0 0 0.13 0"/>
            <feBlend mode="normal" in2="BackgroundImageFix" result="effect1_dropShadow_4050_30292"/>
            <feBlend mode="normal" in="SourceGraphic" in2="effect1_dropShadow_4050_30292" result="shape"/>
        </filter>
        <linearGradient id="paint0_linear_4050_30292" x1="-0.887417" y1="0.396869" x2="147.586" y2="439.756" gradientUnits="userSpaceOnUse">
            <stop offset="0.149957" stop-color="#C2F6AE"/>
            <stop offset="0.550957" stop-color="#2FB763"/>
        </linearGradient>
        <linearGradient id="paint1_linear_4050_30292" x1="87" y1="42" x2="87" y2="82" gradientUnits="userSpaceOnUse">
            <stop offset="0.37" stop-color="#F3FFEB"/>
            <stop offset="1" stop-color="white" stop-opacity="0"/>
        </linearGradient>
        <clipPath id="clip0_4050_30292">
            <rect width="375" height="812" fill="white"/>
        </clipPath>
        <clipPath id="clip1_4050_30292">
            <rect width="375" height="812" fill="white"/>
        </clipPath>
        <clipPath id="clip2_4050_30292">
            <rect x="67" y="42" width="40" height="40" rx="20" fill="white"/>
        </clipPath>
        <clipPath id="clip3_4050_30292">
            <rect x="158" y="267" width="64" height="64" rx="32" fill="white"/>
        </clipPath>
    </defs>
</svg>
