<svg width="375" height="812" viewBox="0 0 375 812" fill="none" xmlns="http://www.w3.org/2000/svg">
<g clip-path="url(#clip0_7710_17830)">
<rect width="375" height="812" fill="#121212"/>
<g clip-path="url(#clip1_7710_17830)">
<rect width="375" height="812" fill="#111111"/>
<circle cx="70.0156" cy="-122.624" r="544.805" stroke="#444444" stroke-width="1.21202"/>
<circle cx="125.769" cy="-22.0256" r="544.805" stroke="#444444" stroke-width="1.21202"/>
<circle cx="-11.1898" cy="-160.196" r="241.799" stroke="#444444" stroke-width="1.21202"/>
<circle cx="-11.1904" cy="-202.617" r="363.001" stroke="#444444" stroke-width="1.21202"/>
<circle cx="-11.1901" cy="-240.19" r="484.204" stroke="#444444" stroke-width="1.21202"/>
<circle cx="40.9261" cy="-160.196" r="484.204" stroke="#444444" stroke-width="1.21202"/>
<line x1="-54.5652" y1="-52.5833" x2="535.112" y2="537.094" stroke="#444444" stroke-width="0.727215"/>
<line x1="-67.5766" y1="-44.1749" x2="624.754" y2="420.708" stroke="#444444" stroke-width="0.727215"/>
<line x1="-67.6145" y1="-27.2679" x2="706.279" y2="283.42" stroke="#444444" stroke-width="0.727215"/>
<line x1="-76.157" y1="-15.5768" x2="740.551" y2="153.027" stroke="#444444" stroke-width="0.727215"/>
<line x1="-40.0521" y1="-58.0677" x2="409.194" y2="644.511" stroke="#444444" stroke-width="0.727215"/>
<line x1="-20.7408" y1="-55.444" x2="235.028" y2="738.294" stroke="#444444" stroke-width="0.727215"/>
<path d="M22.7471 79.1784L22.5827 78.192L21.4476 78.3811L21.7933 79.4788L22.7471 79.1784ZM211.338 291.283C211.338 294.228 213.726 296.616 216.671 296.616C219.617 296.616 222.004 294.228 222.004 291.283C222.004 288.337 219.617 285.949 216.671 285.949C213.726 285.949 211.338 288.337 211.338 291.283ZM46.9876 156.142L46.0338 156.442L46.3085 157.315L47.2019 157.119L46.9876 156.142ZM168 113.5L168.56 112.672L168.058 112.332L167.524 112.62L168 113.5ZM333.5 225.5L334.083 226.313L335.249 225.476L334.06 224.672L333.5 225.5ZM71.4627 66.1296C59.4434 70.9374 44.3773 74.5595 22.5827 78.192L22.9115 80.1647C44.7497 76.525 59.9843 72.875 72.2055 67.9866L71.4627 66.1296ZM21.7933 79.4788L46.0338 156.442L47.9414 155.842L23.7009 78.8779L21.7933 79.4788ZM167.44 114.328L332.94 226.328L334.06 224.672L168.56 112.672L167.44 114.328ZM46.9876 156.142C47.2019 157.119 47.2021 157.119 47.2025 157.119C47.2028 157.118 47.2033 157.118 47.204 157.118C47.2054 157.118 47.2074 157.117 47.2101 157.117C47.2154 157.116 47.2233 157.114 47.2338 157.112C47.2549 157.107 47.2862 157.1 47.3276 157.091C47.4104 157.073 47.5335 157.046 47.6949 157.01C48.0177 156.938 48.494 156.832 49.1085 156.694C50.3373 156.418 52.1189 156.015 54.3308 155.504C58.7546 154.484 64.9009 153.036 71.7915 151.324C85.5621 147.905 102.344 143.426 114.285 139.207L113.619 137.322C101.776 141.505 85.075 145.965 71.3095 149.383C64.4321 151.091 58.297 152.537 53.8812 153.556C51.6735 154.065 49.8958 154.468 48.6703 154.743C48.0576 154.88 47.583 154.986 47.2617 155.057C47.1011 155.093 46.9788 155.12 46.8967 155.138C46.8557 155.147 46.8247 155.154 46.8041 155.158C46.7937 155.161 46.786 155.162 46.7808 155.164C46.7782 155.164 46.7763 155.164 46.7751 155.165C46.7744 155.165 46.774 155.165 46.7736 155.165C46.7733 155.165 46.7732 155.165 46.9876 156.142ZM114.285 139.207C126.232 134.988 139.784 128.777 150.334 123.63C155.612 121.056 160.146 118.744 163.36 117.075C164.968 116.241 166.246 115.568 167.122 115.103C167.56 114.87 167.898 114.69 168.127 114.567C168.241 114.506 168.328 114.459 168.386 114.428C168.416 114.412 168.438 114.4 168.453 114.392C168.46 114.388 168.466 114.385 168.47 114.383C168.472 114.382 168.473 114.381 168.474 114.38C168.475 114.38 168.475 114.38 168.475 114.38C168.475 114.38 168.476 114.38 168 113.5C167.524 112.62 167.524 112.62 167.524 112.62C167.524 112.62 167.524 112.621 167.523 112.621C167.522 112.621 167.521 112.622 167.519 112.623C167.516 112.625 167.51 112.628 167.503 112.632C167.489 112.639 167.467 112.651 167.438 112.667C167.381 112.697 167.295 112.744 167.182 112.804C166.956 112.926 166.62 113.105 166.184 113.336C165.313 113.799 164.041 114.469 162.439 115.3C159.236 116.963 154.717 119.267 149.457 121.833C138.928 126.969 125.457 133.14 113.619 137.322L114.285 139.207ZM333.5 225.5C332.917 224.687 332.917 224.687 332.917 224.687C332.917 224.687 332.917 224.688 332.916 224.688C332.915 224.689 332.914 224.69 332.912 224.691C332.908 224.694 332.903 224.698 332.895 224.703C332.88 224.714 332.858 224.73 332.828 224.751C332.769 224.793 332.681 224.856 332.565 224.939C332.332 225.105 331.988 225.35 331.541 225.667C330.648 226.3 329.347 227.22 327.714 228.364C324.449 230.652 319.858 233.837 314.557 237.425C303.952 244.604 290.527 253.38 279.203 259.809L280.19 261.549C291.585 255.08 305.062 246.267 315.679 239.081C320.989 235.486 325.589 232.295 328.862 230.002C330.498 228.855 331.803 227.934 332.699 227.298C333.146 226.98 333.492 226.734 333.726 226.567C333.843 226.484 333.932 226.42 333.992 226.378C334.022 226.356 334.044 226.34 334.06 226.329C334.067 226.324 334.073 226.32 334.077 226.317C334.079 226.315 334.08 226.314 334.081 226.314C334.082 226.313 334.082 226.313 334.082 226.313C334.082 226.313 334.083 226.313 333.5 225.5ZM279.203 259.809C267.88 266.238 252.154 273.874 239.24 279.912C232.787 282.929 227.044 285.543 222.913 287.403C220.848 288.333 219.186 289.074 218.041 289.583C217.469 289.837 217.025 290.033 216.725 290.166C216.575 290.232 216.461 290.283 216.384 290.316C216.346 290.333 216.317 290.346 216.298 290.354C216.288 290.359 216.281 290.362 216.276 290.364C216.274 290.365 216.272 290.366 216.271 290.366C216.27 290.367 216.27 290.367 216.269 290.367C216.269 290.367 216.269 290.367 216.671 291.283C217.073 292.198 217.073 292.198 217.074 292.198C217.074 292.198 217.075 292.198 217.075 292.197C217.076 292.197 217.078 292.196 217.081 292.195C217.086 292.193 217.093 292.189 217.103 292.185C217.123 292.177 217.152 292.164 217.19 292.147C217.268 292.113 217.383 292.062 217.533 291.995C217.835 291.862 218.279 291.666 218.853 291.411C220.001 290.901 221.666 290.158 223.734 289.226C227.871 287.364 233.624 284.745 240.087 281.724C253.007 275.684 268.793 268.019 280.19 261.549L279.203 259.809Z" fill="url(#paint0_linear_7710_17830)"/>
<g filter="url(#filter0_d_7710_17830)">
<g clip-path="url(#clip2_7710_17830)">
<rect x="67" y="42" width="40" height="40" rx="20" fill="url(#paint1_linear_7710_17830)" fill-opacity="0.6" shape-rendering="crispEdges"/>
<g filter="url(#filter1_d_7710_17830)">
<rect x="73.25" y="48.25" width="27.5" height="27.5" rx="13.75" fill="#185C32"/>
<path d="M80.4139 59.1187C80.0468 61.9085 80.0972 64.8413 80.1993 66.507C80.249 67.6106 80.3833 69.358 80.8738 68.2851C81.5602 66.7836 81.8548 65.434 82.1307 64.0851C82.3131 63.1935 83.0811 59.3027 83.2037 57.7698C83.3127 56.4071 82.7398 55.3204 81.7935 56.0531C80.8432 56.7888 80.535 58.199 80.4139 59.1187Z" fill="#2FB763"/>
<path d="M84.5526 56.7888L81.7322 67.7026C81.3337 69.0208 81.8242 70.1245 83.0811 67.9478L84.7979 64.0851L87.5876 56.7888C87.8124 56.1246 87.9555 54.7409 86.7292 54.5202C85.503 54.2995 84.7672 55.9406 84.5526 56.7888Z" fill="#2FB763"/>
<path d="M88.6913 56.7888L83.8169 68.1624C83.2037 69.6646 84.0315 69.358 84.5526 68.6529L86.484 66.1084C87.5876 64.6063 90.0647 61.1543 91.1438 59.364C92.2229 57.5736 92.3088 56.7275 92.3088 56.0531C92.3088 55.5012 92.1739 54.5202 91.1438 54.5202C90.1137 54.5202 89.1205 55.7771 88.6913 56.7888Z" fill="#2FB763"/>
<path d="M91.5117 60.4676L86.2387 68.1624C85.1964 69.6953 86.484 69.9117 87.5263 68.8062C88.2008 68.0909 89.4883 66.7768 89.7336 66.507C90.0402 66.1698 92.9569 62.8471 93.9029 61.4486C94.608 60.4063 94.4241 57.7698 94.3014 56.7888C94.1367 55.4706 93.339 55.727 93.1978 56.5742C92.8606 58.5976 92.3088 59.364 91.5117 60.4676Z" fill="#2FB763"/>
<path d="M92.554 64.5449L89.5497 67.9478C88.0168 69.7872 89.1818 69.5726 90.4387 68.9902C91.6036 68.4503 93.6576 67.4573 93.9029 65.4953C94.1482 63.5333 93.2591 63.7172 92.554 64.5449Z" fill="#2FB763"/>
</g>
</g>
</g>
<g filter="url(#filter2_d_7710_17830)">
<g clip-path="url(#clip3_7710_17830)">
<g filter="url(#filter3_d_7710_17830)">
<rect x="168" y="277" width="44" height="44" rx="22" fill="#1C4008"/>
<path fill-rule="evenodd" clip-rule="evenodd" d="M187.592 290.2C187.349 290.408 187.227 290.512 187.097 290.599C186.799 290.799 186.464 290.937 186.112 291.007C185.959 291.037 185.799 291.05 185.48 291.075C184.679 291.139 184.278 291.171 183.944 291.289C183.171 291.562 182.562 292.171 182.289 292.944C182.171 293.278 182.139 293.679 182.075 294.48C182.05 294.799 182.037 294.959 182.007 295.112C181.937 295.464 181.799 295.799 181.599 296.097C181.512 296.227 181.408 296.349 181.2 296.592C180.679 297.204 180.418 297.51 180.265 297.83C179.912 298.57 179.912 299.43 180.265 300.17C180.418 300.49 180.679 300.796 181.2 301.408C181.408 301.651 181.512 301.773 181.599 301.903C181.799 302.201 181.937 302.536 182.007 302.888C182.037 303.041 182.05 303.201 182.075 303.52C182.139 304.321 182.171 304.722 182.289 305.056C182.562 305.829 183.171 306.438 183.944 306.711C184.278 306.829 184.679 306.861 185.48 306.925C185.799 306.95 185.959 306.963 186.112 306.993C186.464 307.063 186.799 307.201 187.097 307.401C187.227 307.488 187.349 307.592 187.592 307.8C188.204 308.321 188.51 308.582 188.83 308.735C189.57 309.088 190.43 309.088 191.17 308.735C191.49 308.582 191.796 308.321 192.408 307.8C192.651 307.592 192.773 307.488 192.903 307.401C193.201 307.201 193.536 307.063 193.888 306.993C194.041 306.963 194.201 306.95 194.52 306.925C195.321 306.861 195.722 306.829 196.056 306.711C196.829 306.438 197.438 305.829 197.711 305.056C197.829 304.722 197.861 304.321 197.925 303.52C197.95 303.201 197.963 303.041 197.993 302.888C198.063 302.536 198.201 302.201 198.401 301.903C198.488 301.773 198.592 301.651 198.8 301.408C199.321 300.796 199.582 300.49 199.735 300.17C200.088 299.43 200.088 298.57 199.735 297.83C199.582 297.51 199.321 297.204 198.8 296.592C198.592 296.349 198.488 296.227 198.401 296.097C198.201 295.799 198.063 295.464 197.993 295.112C197.963 294.959 197.95 294.799 197.925 294.48C197.861 293.679 197.829 293.278 197.711 292.944C197.438 292.171 196.829 291.562 196.056 291.289C195.722 291.171 195.321 291.139 194.52 291.075C194.201 291.05 194.041 291.037 193.888 291.007C193.536 290.937 193.201 290.799 192.903 290.599C192.773 290.512 192.651 290.408 192.408 290.2C191.796 289.679 191.49 289.418 191.17 289.265C190.43 288.912 189.57 288.912 188.83 289.265C188.51 289.418 188.204 289.679 187.592 290.2ZM194.373 296.863C194.691 296.545 194.691 296.03 194.373 295.712C194.056 295.394 193.54 295.394 193.223 295.712L188.372 300.562L186.777 298.968C186.46 298.65 185.944 298.65 185.626 298.968C185.309 299.285 185.309 299.801 185.626 300.119L187.797 302.289C188.115 302.607 188.63 302.607 188.948 302.289L194.373 296.863Z" fill="#35CB6E"/>
</g>
</g>
</g>
</g>
</g>
<defs>
<filter id="filter0_d_7710_17830" x="53.25" y="29.5" width="67.5" height="67.5" filterUnits="userSpaceOnUse" color-interpolation-filters="sRGB">
<feFlood flood-opacity="0" result="BackgroundImageFix"/>
<feColorMatrix in="SourceAlpha" type="matrix" values="0 0 0 0 0 0 0 0 0 0 0 0 0 0 0 0 0 0 127 0" result="hardAlpha"/>
<feMorphology radius="1.25" operator="dilate" in="SourceAlpha" result="effect1_dropShadow_7710_17830"/>
<feOffset dy="1.25"/>
<feGaussianBlur stdDeviation="6.25"/>
<feComposite in2="hardAlpha" operator="out"/>
<feColorMatrix type="matrix" values="0 0 0 0 0 0 0 0 0 0 0 0 0 0 0 0 0 0 0.07 0"/>
<feBlend mode="normal" in2="BackgroundImageFix" result="effect1_dropShadow_7710_17830"/>
<feBlend mode="normal" in="SourceGraphic" in2="effect1_dropShadow_7710_17830" result="shape"/>
</filter>
<filter id="filter1_d_7710_17830" x="63.25" y="39.5" width="47.5" height="47.5" filterUnits="userSpaceOnUse" color-interpolation-filters="sRGB">
<feFlood flood-opacity="0" result="BackgroundImageFix"/>
<feColorMatrix in="SourceAlpha" type="matrix" values="0 0 0 0 0 0 0 0 0 0 0 0 0 0 0 0 0 0 127 0" result="hardAlpha"/>
<feMorphology radius="2.5" operator="erode" in="SourceAlpha" result="effect1_dropShadow_7710_17830"/>
<feOffset dy="1.25"/>
<feGaussianBlur stdDeviation="6.25"/>
<feComposite in2="hardAlpha" operator="out"/>
<feColorMatrix type="matrix" values="0 0 0 0 0 0 0 0 0 0 0 0 0 0 0 0 0 0 0.15 0"/>
<feBlend mode="normal" in2="BackgroundImageFix" result="effect1_dropShadow_7710_17830"/>
<feBlend mode="normal" in="SourceGraphic" in2="effect1_dropShadow_7710_17830" result="shape"/>
</filter>
<filter id="filter2_d_7710_17830" x="150" y="260" width="80" height="80" filterUnits="userSpaceOnUse" color-interpolation-filters="sRGB">
<feFlood flood-opacity="0" result="BackgroundImageFix"/>
<feColorMatrix in="SourceAlpha" type="matrix" values="0 0 0 0 0 0 0 0 0 0 0 0 0 0 0 0 0 0 127 0" result="hardAlpha"/>
<feMorphology radius="1" operator="erode" in="SourceAlpha" result="effect1_dropShadow_7710_17830"/>
<feOffset dy="1"/>
<feGaussianBlur stdDeviation="4.5"/>
<feComposite in2="hardAlpha" operator="out"/>
<feColorMatrix type="matrix" values="0 0 0 0 0.900027 0 0 0 0 0.985587 0 0 0 0 0.932741 0 0 0 1 0"/>
<feBlend mode="normal" in2="BackgroundImageFix" result="effect1_dropShadow_7710_17830"/>
<feBlend mode="normal" in="SourceGraphic" in2="effect1_dropShadow_7710_17830" result="shape"/>
</filter>
<filter id="filter3_d_7710_17830" x="161" y="270" width="62" height="62" filterUnits="userSpaceOnUse" color-interpolation-filters="sRGB">
<feFlood flood-opacity="0" result="BackgroundImageFix"/>
<feColorMatrix in="SourceAlpha" type="matrix" values="0 0 0 0 0 0 0 0 0 0 0 0 0 0 0 0 0 0 127 0" result="hardAlpha"/>
<feMorphology radius="1" operator="erode" in="SourceAlpha" result="effect1_dropShadow_7710_17830"/>
<feOffset dx="2" dy="2"/>
<feGaussianBlur stdDeviation="5"/>
<feComposite in2="hardAlpha" operator="out"/>
<feColorMatrix type="matrix" values="0 0 0 0 0.214787 0 0 0 0 0.00952833 0 0 0 0 0.043305 0 0 0 0.13 0"/>
<feBlend mode="normal" in2="BackgroundImageFix" result="effect1_dropShadow_7710_17830"/>
<feBlend mode="normal" in="SourceGraphic" in2="effect1_dropShadow_7710_17830" result="shape"/>
</filter>
<linearGradient id="paint0_linear_7710_17830" x1="-0.887417" y1="0.396747" x2="147.586" y2="439.756" gradientUnits="userSpaceOnUse">
<stop offset="0.149957" stop-color="#103D21"/>
<stop offset="0.550957" stop-color="#2FB763"/>
</linearGradient>
<linearGradient id="paint1_linear_7710_17830" x1="87" y1="42" x2="87" y2="82" gradientUnits="userSpaceOnUse">
<stop offset="0.38" stop-color="#103D21"/>
<stop offset="1" stop-color="#2F6C0D"/>
</linearGradient>
<clipPath id="clip0_7710_17830">
<rect width="375" height="812" fill="white"/>
</clipPath>
<clipPath id="clip1_7710_17830">
<rect width="375" height="812" fill="white"/>
</clipPath>
<clipPath id="clip2_7710_17830">
<rect x="67" y="42" width="40" height="40" rx="20" fill="white"/>
</clipPath>
<clipPath id="clip3_7710_17830">
<rect x="158" y="267" width="64" height="64" rx="32" fill="white"/>
</clipPath>
</defs>
</svg>
