<svg width="172" height="24" viewBox="0 0 172 24" fill="none" xmlns="http://www.w3.org/2000/svg">
<rect width="24" height="24" rx="12" fill="#C2F6AE"/>
<path fill-rule="evenodd" clip-rule="evenodd" d="M15.4881 4.43057C15.8026 4.70014 15.839 5.17361 15.5694 5.48811L9.98781 12L15.5694 18.5119C15.839 18.8264 15.8026 19.2999 15.4881 19.5695C15.1736 19.839 14.7001 19.8026 14.4306 19.4881L8.43056 12.4881C8.18981 12.2072 8.18981 11.7928 8.43056 11.5119L14.4306 4.51192C14.7001 4.19743 15.1736 4.161 15.4881 4.43057Z" fill="#828DA9"/>
<path d="M32.632 16.5V5.7H35.344V10.38L38.848 5.7H41.896L37.8 11.108L41.904 16.5H38.856L35.344 11.828V16.5H32.632ZM46.5235 12.604L42.3475 5.7H45.2915L47.9235 10.388H47.7155L50.3235 5.7H53.2755L49.1075 12.604H46.5235ZM46.4595 16.5V11.06H49.1715V16.5H46.4595ZM58.5243 16.564C56.5936 16.564 55.2709 16.0973 54.5563 15.164C53.8469 14.2307 53.4923 12.868 53.4923 11.076C53.4923 9.27867 53.8469 7.91867 54.5563 6.996C55.2709 6.07333 56.5909 5.612 58.5163 5.612C60.4469 5.612 61.7349 6.052 62.3802 6.932C63.0256 7.812 63.3483 8.85467 63.3483 10.06H60.5963C60.5963 9.02 60.4149 8.32667 60.0523 7.98C59.6949 7.63333 59.1776 7.46 58.5003 7.46C57.8069 7.46 57.2576 7.66267 56.8523 8.068C56.4469 8.468 56.2443 9.47067 56.2443 11.076C56.2443 12.692 56.4469 13.7027 56.8523 14.108C57.2629 14.5133 57.8123 14.716 58.5003 14.716C59.1723 14.716 59.6896 14.5373 60.0523 14.18C60.4149 13.8173 60.5963 13.1293 60.5963 12.116H63.3483C63.3483 13.2893 63.0256 14.324 62.3802 15.22C61.7349 16.116 60.4496 16.564 58.5243 16.564ZM71.6366 16.5L68.5326 5.7H71.3006L73.6446 14.94H73.5886L75.9326 5.7H78.6926L75.5886 16.5H71.6366ZM84.0068 16.596C82.2148 16.596 80.9588 16.164 80.2388 15.3C79.5241 14.4307 79.1668 13.2493 79.1668 11.756C79.1668 10.2253 79.5268 9.03867 80.2468 8.196C80.9668 7.348 82.2041 6.924 83.9588 6.924C85.7561 6.924 86.9988 7.35333 87.6868 8.212C88.3801 9.07067 88.7268 10.2493 88.7268 11.748C88.7268 12.0467 88.7081 12.3133 88.6708 12.548H81.5188V10.924H86.1588L86.0628 11.164C86.0628 10.252 85.8761 9.60667 85.5028 9.228C85.1348 8.84933 84.6201 8.66 83.9588 8.66C83.3081 8.66 82.7801 8.86533 82.3748 9.276C81.9694 9.68667 81.7668 10.5133 81.7668 11.756C81.7668 12.972 81.9668 13.7933 82.3668 14.22C82.7721 14.6467 83.3188 14.86 84.0068 14.86V16.596ZM84.0068 14.86C84.4068 14.86 84.7374 14.8067 84.9988 14.7C85.2601 14.5933 85.4681 14.4147 85.6228 14.164C85.7828 13.9133 85.9188 13.6173 86.0308 13.276L88.4388 13.956C88.3214 14.58 88.0654 15.084 87.6708 15.468C87.2814 15.852 86.8094 16.1373 86.2548 16.324C85.7054 16.5053 84.9561 16.596 84.0068 16.596V14.86ZM96.1114 11.692C96.1114 10.4973 95.9754 9.716 95.7034 9.348C95.4314 8.97467 95.0527 8.788 94.5674 8.788C94.002 8.788 93.554 8.98533 93.2234 9.38C92.8927 9.76933 92.7274 10.2173 92.7274 10.724L91.6954 10.108C91.6954 9.212 92.0527 8.46 92.7674 7.852C93.482 7.23867 94.418 6.932 95.5754 6.932C96.8287 6.932 97.6794 7.31867 98.1274 8.092C98.5754 8.86 98.7994 10.06 98.7994 11.692H96.1114ZM90.0474 16.5V7.02H92.1274L92.7354 8.66V16.5H90.0474ZM100.584 16.5V7.012H103.28V16.5H100.584ZM100.584 4.164H103.28V6.044H100.584V4.164ZM106.48 16.5V8.852H104.544V7.02H106.496L106.48 6.7C106.48 5.68667 106.909 4.96133 107.768 4.524C108.626 4.08667 109.853 3.868 111.448 3.868H111.776V5.636H111.512C110.674 5.636 110.074 5.708 109.712 5.852C109.349 5.996 109.168 6.28133 109.168 6.708L109.16 7.02H111.72V8.852H109.168V16.5H106.48ZM113.208 16.5V7.012H115.904V16.5H113.208ZM113.208 4.164H115.904V6.044H113.208V4.164ZM122.081 16.596C120.31 16.596 119.073 16.1773 118.369 15.34C117.67 14.4973 117.321 13.3107 117.321 11.78C117.321 10.212 117.67 9.012 118.369 8.18C119.073 7.348 120.31 6.932 122.081 6.932C123.654 6.932 124.745 7.27333 125.353 7.956C125.966 8.63867 126.323 9.356 126.425 10.108L124.033 10.94C123.99 10.2147 123.798 9.676 123.457 9.324C123.121 8.96667 122.662 8.788 122.081 8.788C121.505 8.788 121.025 8.988 120.641 9.388C120.257 9.788 120.065 10.5853 120.065 11.78C120.065 12.9267 120.257 13.708 120.641 14.124C121.025 14.54 121.505 14.748 122.081 14.748C122.662 14.748 123.121 14.5613 123.457 14.188C123.798 13.8147 123.99 13.292 124.033 12.62L126.425 13.484C126.323 14.1827 125.966 14.876 125.353 15.564C124.745 16.252 123.654 16.596 122.081 16.596ZM131.27 16.604C130.897 16.604 130.529 16.5827 130.166 16.54C129.809 16.4973 129.473 16.4173 129.158 16.3C128.843 16.1773 128.566 16.0067 128.326 15.788C128.086 15.5693 127.897 15.2867 127.758 14.94C127.625 14.5933 127.558 14.1693 127.558 13.668C127.558 13.1827 127.625 12.7747 127.758 12.444C127.897 12.108 128.083 11.8333 128.318 11.62C128.553 11.4067 128.825 11.2413 129.134 11.124C129.443 11.0067 129.774 10.9267 130.126 10.884C130.478 10.836 130.835 10.812 131.198 10.812H134.19V10.444C134.19 10.012 134.105 9.67067 133.934 9.42C133.769 9.16933 133.539 8.99333 133.246 8.892C132.958 8.78533 132.633 8.732 132.27 8.732C131.939 8.732 131.638 8.78267 131.366 8.884C131.094 8.98533 130.865 9.15067 130.678 9.38C130.497 9.60933 130.369 9.916 130.294 10.3L127.662 9.564C127.758 9.08933 127.934 8.68667 128.19 8.356C128.451 8.02 128.782 7.748 129.182 7.54C129.587 7.32667 130.049 7.172 130.566 7.076C131.089 6.97467 131.654 6.924 132.262 6.924C133.217 6.924 134.041 7.03867 134.734 7.268C135.427 7.49733 135.961 7.87867 136.334 8.412C136.707 8.94533 136.894 9.67067 136.894 10.588V16.5H134.654L134.422 15.412C134.358 15.556 134.238 15.7 134.062 15.844C133.886 15.9827 133.659 16.1107 133.382 16.228C133.11 16.34 132.795 16.4307 132.438 16.5C132.086 16.5693 131.697 16.604 131.27 16.604ZM131.878 14.916C132.139 14.916 132.398 14.892 132.654 14.844C132.915 14.796 133.153 14.7267 133.366 14.636C133.585 14.5453 133.766 14.4387 133.91 14.316C134.054 14.188 134.147 14.0493 134.19 13.9L134.254 12.3H131.83C131.617 12.3 131.417 12.316 131.23 12.348C131.043 12.3747 130.878 12.4333 130.734 12.524C130.595 12.6147 130.486 12.7453 130.406 12.916C130.326 13.0867 130.286 13.3107 130.286 13.588C130.286 13.8707 130.329 14.1 130.414 14.276C130.505 14.4467 130.625 14.58 130.774 14.676C130.929 14.7667 131.099 14.8307 131.286 14.868C131.478 14.9 131.675 14.916 131.878 14.916ZM142.954 16.62C142.111 16.62 141.396 16.444 140.81 16.092C140.228 15.7347 139.938 15.092 139.938 14.164V8.868H137.77V7.02H139.938V4.852H142.634V7.02H145.546V8.868H142.634V13.572C142.634 14.0893 142.74 14.428 142.954 14.588C143.172 14.7427 143.479 14.82 143.874 14.82C144.268 14.82 144.655 14.7533 145.034 14.62V16.396C144.372 16.5453 143.679 16.62 142.954 16.62ZM146.974 16.5V7.012H149.67V16.5H146.974ZM146.974 4.164H149.67V6.044H146.974V4.164ZM155.998 16.58C154.26 16.58 153.02 16.1613 152.278 15.324C151.537 14.4813 151.166 13.2787 151.166 11.716C151.166 10.1587 151.537 8.96933 152.278 8.148C153.02 7.32133 154.26 6.908 155.998 6.908C157.732 6.908 158.966 7.32133 159.702 8.148C160.444 8.96933 160.814 10.1587 160.814 11.716C160.814 13.2787 160.444 14.4813 159.702 15.324C158.966 16.1613 157.732 16.58 155.998 16.58ZM155.998 14.756C156.617 14.756 157.126 14.5587 157.526 14.164C157.926 13.7693 158.126 12.9587 158.126 11.732C158.126 10.5107 157.926 9.70533 157.526 9.316C157.126 8.92667 156.617 8.732 155.998 8.732C155.374 8.732 154.862 8.92667 154.462 9.316C154.062 9.70533 153.862 10.5107 153.862 11.732C153.862 12.9587 154.062 13.7693 154.462 14.164C154.862 14.5587 155.374 14.756 155.998 14.756ZM162.126 16.5V7.02H164.206L164.814 8.62V16.5H162.126ZM168.31 16.5V11.476C168.31 10.4253 168.182 9.71333 167.926 9.34C167.67 8.96667 167.275 8.78 166.742 8.78C166.182 8.78 165.704 9.00933 165.31 9.468C164.92 9.92133 164.726 10.5107 164.726 11.236L163.422 10.628C163.422 9.79067 163.822 8.96667 164.622 8.156C165.422 7.34 166.467 6.932 167.758 6.932C168.979 6.932 169.824 7.348 170.293 8.18C170.763 9.00667 170.998 10.092 170.998 11.436V16.5H168.31Z" fill="#050505"/>
</svg>
