<svg width="343" height="56" viewBox="0 0 343 56" fill="none" xmlns="http://www.w3.org/2000/svg">
<path d="M0 24C0 12.6863 0 7.02944 3.51472 3.51472C7.02944 0 12.6863 0 24 0H319C330.314 0 335.971 0 339.485 3.51472C343 7.02944 343 12.6863 343 24V32C343 43.3137 343 48.9706 339.485 52.4853C335.971 56 330.314 56 319 56H24C12.6863 56 7.02944 56 3.51472 52.4853C0 48.9706 0 43.3137 0 32V24Z" fill="white"/>
<rect y="12" width="32" height="32" rx="16" fill="#F6F8FA"/>
<g clip-path="url(#clip0_1032_7883)">
<path fill-rule="evenodd" clip-rule="evenodd" d="M14.5487 37.5277L14.7988 37.1053C15.1996 36.4282 15.3999 36.0897 15.7191 35.9009C16.0383 35.712 16.4547 35.6987 17.2874 35.6721C18.0682 35.6471 18.593 35.579 19.0417 35.3931C19.9864 35.0018 20.7369 34.2513 21.1282 33.3066C21.4217 32.5981 21.4217 31.6999 21.4217 29.9035V29.1324C21.4217 26.6083 21.4217 25.3462 20.8536 24.4191C20.5357 23.9003 20.0995 23.4642 19.5807 23.1463C18.6536 22.5781 17.3916 22.5781 14.8675 22.5781H12.5542C10.0301 22.5781 8.76808 22.5781 7.84097 23.1463C7.3222 23.4642 6.88604 23.9003 6.56813 24.4191C6 25.3462 6 26.6083 6 29.1324V29.9035C6 31.6999 6 32.5981 6.29348 33.3066C6.68478 34.2513 7.43533 35.0018 8.38002 35.3931C8.82871 35.579 9.35348 35.6471 10.1343 35.6721C10.967 35.6987 11.3833 35.712 11.7025 35.9009C12.0217 36.0897 12.2221 36.4282 12.6229 37.1053L12.8729 37.5277C13.2455 38.1572 14.1762 38.1572 14.5487 37.5277ZM17.0843 30.289C17.6167 30.289 18.0482 29.8574 18.0482 29.3251C18.0482 28.7928 17.6167 28.3613 17.0843 28.3613C16.552 28.3613 16.1205 28.7928 16.1205 29.3251C16.1205 29.8574 16.552 30.289 17.0843 30.289ZM14.6747 29.3251C14.6747 29.8574 14.2432 30.289 13.7108 30.289C13.1785 30.289 12.747 29.8574 12.747 29.3251C12.747 28.7928 13.1785 28.3613 13.7108 28.3613C14.2432 28.3613 14.6747 28.7928 14.6747 29.3251ZM10.3373 30.289C10.8697 30.289 11.3012 29.8574 11.3012 29.3251C11.3012 28.7928 10.8697 28.3613 10.3373 28.3613C9.80503 28.3613 9.37349 28.7928 9.37349 29.3251C9.37349 29.8574 9.80503 30.289 10.3373 30.289Z" fill="#FFA02E"/>
<path d="M19.1696 18C20.3214 18 21.2372 18 21.9717 18.0698C22.7249 18.1414 23.3617 18.2915 23.9289 18.6392C24.5125 18.9968 25.0032 19.4875 25.3608 20.0711C25.7085 20.6384 25.8586 21.2751 25.9302 22.0283C26 22.7628 26 23.6787 26 24.8304V25.617C26 26.4367 26 27.0886 25.9639 27.6173C25.927 28.1581 25.85 28.6226 25.6698 29.0575C25.2296 30.1202 24.3853 30.9646 23.3225 31.4048C23.2959 31.4158 23.2692 31.4265 23.2423 31.4367C23.114 31.4858 23.0042 31.5278 22.9077 31.5591C22.9217 31.0903 22.9217 30.5563 22.9217 29.9537V29.0614C22.9217 27.8598 22.9217 26.8532 22.8439 26.0349C22.7625 25.1782 22.5853 24.3742 22.1325 23.6354C21.6909 22.9148 21.0851 22.3089 20.3645 21.8673C19.6256 21.4145 18.8217 21.2373 17.9649 21.1559C17.1466 21.0781 16.14 21.0781 14.9384 21.0781H12.4833C11.6672 21.0781 10.9411 21.0781 10.3028 21.1025C10.3325 20.9994 10.3732 20.8813 10.4211 20.7426C10.5024 20.5068 10.6052 20.2838 10.7355 20.0711C11.0932 19.4875 11.5839 18.9968 12.1675 18.6392C12.7347 18.2915 13.3715 18.1414 14.1247 18.0698C14.8592 18 15.775 18 16.9268 18H19.1696Z" fill="#FFA02E"/>
</g>
<path d="M40.994 32.5V22.7H42.464V31.198H48.106V32.5H40.994ZM52.4861 32.626C51.7861 32.626 51.1515 32.4627 50.5821 32.136C50.0221 31.8093 49.5741 31.366 49.2381 30.806C48.9115 30.246 48.7481 29.6207 48.7481 28.93C48.7481 28.2487 48.9068 27.6327 49.2241 27.082C49.5415 26.522 49.9708 26.0787 50.5121 25.752C51.0535 25.416 51.6555 25.248 52.3181 25.248C52.9808 25.248 53.5688 25.416 54.0821 25.752C54.5955 26.0787 55.0015 26.5267 55.3001 27.096C55.6081 27.656 55.7621 28.2907 55.7621 29V29.392H50.1481C50.2228 29.784 50.3675 30.134 50.5821 30.442C50.8061 30.75 51.0861 30.9927 51.4221 31.17C51.7675 31.3473 52.1408 31.436 52.5421 31.436C52.8875 31.436 53.2188 31.3847 53.5361 31.282C53.8628 31.17 54.1335 31.0113 54.3481 30.806L55.2441 31.688C54.8241 32.0053 54.3901 32.2433 53.9421 32.402C53.5035 32.5513 53.0181 32.626 52.4861 32.626ZM50.1621 28.342H54.3761C54.3201 27.9687 54.1895 27.642 53.9841 27.362C53.7881 27.0727 53.5408 26.8487 53.2421 26.69C52.9528 26.522 52.6355 26.438 52.2901 26.438C51.9355 26.438 51.6088 26.5173 51.3101 26.676C51.0115 26.8347 50.7595 27.0587 50.5541 27.348C50.3581 27.628 50.2275 27.9593 50.1621 28.342ZM60.6509 35.496C60.1282 35.496 59.6195 35.4353 59.1249 35.314C58.6302 35.1927 58.1822 35.02 57.7809 34.796L58.3129 33.704C58.7329 33.9187 59.1249 34.0727 59.4889 34.166C59.8622 34.2687 60.2355 34.32 60.6089 34.32C61.2342 34.32 61.7055 34.1753 62.0229 33.886C62.3495 33.5967 62.5129 33.172 62.5129 32.612V31.8C61.8875 32.2947 61.1735 32.542 60.3709 32.542C59.7175 32.542 59.1155 32.3833 58.5649 32.066C58.0235 31.7393 57.5942 31.3007 57.2769 30.75C56.9595 30.19 56.8009 29.574 56.8009 28.902C56.8009 28.2207 56.9595 27.6047 57.2769 27.054C57.6035 26.494 58.0375 26.0553 58.5789 25.738C59.1295 25.4113 59.7455 25.248 60.4269 25.248C60.8095 25.248 61.1782 25.3133 61.5329 25.444C61.8969 25.5653 62.2282 25.7427 62.5269 25.976V25.374H63.9129V32.612C63.9129 33.536 63.6282 34.2453 63.0589 34.74C62.4989 35.244 61.6962 35.496 60.6509 35.496ZM60.5529 31.338C60.9635 31.338 61.3369 31.268 61.6729 31.128C62.0089 30.9787 62.2889 30.7687 62.5129 30.498V27.306C62.2889 27.0447 62.0042 26.8393 61.6589 26.69C61.3229 26.5407 60.9542 26.466 60.5529 26.466C60.1049 26.466 59.6989 26.5733 59.3349 26.788C58.9802 27.0027 58.6955 27.2967 58.4809 27.67C58.2755 28.034 58.1729 28.4447 58.1729 28.902C58.1729 29.3593 58.2755 29.7747 58.4809 30.148C58.6955 30.512 58.9802 30.8013 59.3349 31.016C59.6989 31.2307 60.1049 31.338 60.5529 31.338ZM67.8124 32.626C67.2991 32.626 66.8464 32.5373 66.4544 32.36C66.0624 32.1733 65.7544 31.9167 65.5304 31.59C65.3064 31.2633 65.1944 30.8853 65.1944 30.456C65.1944 29.784 65.4511 29.2567 65.9644 28.874C66.4778 28.482 67.1824 28.286 68.0784 28.286C68.7784 28.286 69.4271 28.4213 70.0244 28.692V27.936C70.0244 27.4227 69.8751 27.04 69.5764 26.788C69.2871 26.536 68.8578 26.41 68.2884 26.41C67.9618 26.41 67.6211 26.4613 67.2664 26.564C66.9118 26.6573 66.5151 26.8067 66.0764 27.012L65.5584 25.962C66.0998 25.71 66.6038 25.528 67.0704 25.416C67.5371 25.2947 68.0084 25.234 68.4844 25.234C69.4084 25.234 70.1224 25.4533 70.6264 25.892C71.1398 26.3307 71.3964 26.956 71.3964 27.768V32.5H70.0244V31.884C69.7071 32.136 69.3664 32.3227 69.0024 32.444C68.6384 32.5653 68.2418 32.626 67.8124 32.626ZM66.5384 30.428C66.5384 30.7733 66.6831 31.0533 66.9724 31.268C67.2711 31.4733 67.6584 31.576 68.1344 31.576C68.5078 31.576 68.8484 31.5247 69.1564 31.422C69.4738 31.31 69.7631 31.1373 70.0244 30.904V29.7C69.7538 29.5413 69.4691 29.4293 69.1704 29.364C68.8811 29.2893 68.5544 29.252 68.1904 29.252C67.6771 29.252 67.2711 29.3593 66.9724 29.574C66.6831 29.7793 66.5384 30.064 66.5384 30.428ZM73.0096 32.5V22.7L74.4096 22.434V32.5H73.0096Z" fill="#050505"/>
<path fill-rule="evenodd" clip-rule="evenodd" d="M328.675 22.9544C328.884 22.7747 329.2 22.7989 329.38 23.0086L333.38 27.6753C333.54 27.8625 333.54 28.1388 333.38 28.3261L329.38 32.9927C329.2 33.2024 328.884 33.2267 328.675 33.047C328.465 32.8672 328.441 32.5516 328.62 32.3419L332.341 28.0007L328.62 23.6594C328.441 23.4497 328.465 23.1341 328.675 22.9544Z" fill="#CCD0DC"/>
<defs>
<clipPath id="clip0_1032_7883">
<rect x="4" y="16" width="24" height="24" rx="8" fill="white"/>
</clipPath>
</defs>
</svg>
