<svg width="77" height="24" viewBox="0 0 77 24" fill="none" xmlns="http://www.w3.org/2000/svg">
<rect width="24" height="24" rx="12" fill="#FFA02E"/>
<path fill-rule="evenodd" clip-rule="evenodd" d="M15.4881 4.43057C15.8026 4.70014 15.839 5.17361 15.5694 5.48811L9.98781 12L15.5694 18.5119C15.839 18.8264 15.8026 19.2999 15.4881 19.5695C15.1736 19.839 14.7001 19.8026 14.4306 19.4881L8.43056 12.4881C8.18981 12.2072 8.18981 11.7928 8.43056 11.5119L14.4306 4.51192C14.7001 4.19743 15.1736 4.161 15.4881 4.43057Z" fill="white"/>
<path d="M32.632 16.5V5.7H35.36V14.66H39.744V16.5H32.632ZM45.5536 16.596C43.7616 16.596 42.5056 16.164 41.7856 15.3C41.071 14.4307 40.7136 13.2493 40.7136 11.756C40.7136 10.2253 41.0736 9.03867 41.7936 8.196C42.5136 7.348 43.751 6.924 45.5056 6.924C47.303 6.924 48.5456 7.35333 49.2336 8.212C49.927 9.07067 50.2736 10.2493 50.2736 11.748C50.2736 12.0467 50.255 12.3133 50.2176 12.548H43.0656V10.924H47.7056L47.6096 11.164C47.6096 10.252 47.423 9.60667 47.0496 9.228C46.6816 8.84933 46.167 8.66 45.5056 8.66C44.855 8.66 44.327 8.86533 43.9216 9.276C43.5163 9.68667 43.3136 10.5133 43.3136 11.756C43.3136 12.972 43.5136 13.7933 43.9136 14.22C44.319 14.6467 44.8656 14.86 45.5536 14.86V16.596ZM45.5536 14.86C45.9536 14.86 46.2843 14.8067 46.5456 14.7C46.807 14.5933 47.015 14.4147 47.1696 14.164C47.3296 13.9133 47.4656 13.6173 47.5776 13.276L49.9856 13.956C49.8683 14.58 49.6123 15.084 49.2176 15.468C48.8283 15.852 48.3563 16.1373 47.8016 16.324C47.2523 16.5053 46.503 16.596 45.5536 16.596V14.86ZM55.9783 20.252C54.8263 20.252 53.8289 20.004 52.9863 19.508C52.1436 19.0173 51.6689 18.1693 51.5623 16.964H54.1863C54.2183 17.332 54.3143 17.636 54.4743 17.876C54.6396 18.116 54.8583 18.2867 55.1302 18.388C55.4076 18.4947 55.7196 18.548 56.0663 18.548C56.6476 18.548 57.1169 18.412 57.4743 18.14C57.8316 17.868 58.0103 17.244 58.0103 16.268V8.884L58.7383 7.02H60.7143V15.988C60.7143 17.092 60.4929 17.9533 60.0503 18.572C59.6076 19.196 59.0636 19.6307 58.4183 19.876C57.7729 20.1267 56.9596 20.252 55.9783 20.252ZM55.0423 16.564C53.7569 16.564 52.8183 16.1347 52.2263 15.276C51.6343 14.4173 51.3383 13.2387 51.3383 11.74C51.3383 10.236 51.6289 9.06 52.2103 8.212C52.7916 7.364 53.7249 6.94 55.0103 6.94C56.1463 6.94 57.1276 7.212 57.9543 7.756C58.7863 8.3 59.2023 8.892 59.2023 9.532L58.0103 10.636C58.0103 10.1187 57.8049 9.68133 57.3943 9.324C56.9889 8.96133 56.5089 8.78 55.9543 8.78C55.3516 8.78 54.8849 8.98 54.5543 9.38C54.2236 9.77467 54.0583 10.564 54.0583 11.748C54.0583 12.9427 54.2236 13.7373 54.5543 14.132C54.8849 14.5267 55.3516 14.724 55.9543 14.724C56.5089 14.724 56.9889 14.5453 57.3943 14.188C57.8049 13.8307 58.0103 13.388 58.0103 12.86L59.2023 14.036C59.2023 14.6813 58.7916 15.2653 57.9703 15.788C57.1543 16.3053 56.1783 16.564 55.0423 16.564ZM65.8483 16.604C65.4749 16.604 65.1069 16.5827 64.7443 16.54C64.3869 16.4973 64.0509 16.4173 63.7363 16.3C63.4216 16.1773 63.1443 16.0067 62.9043 15.788C62.6643 15.5693 62.4749 15.2867 62.3363 14.94C62.2029 14.5933 62.1363 14.1693 62.1363 13.668C62.1363 13.1827 62.2029 12.7747 62.3363 12.444C62.4749 12.108 62.6616 11.8333 62.8963 11.62C63.1309 11.4067 63.4029 11.2413 63.7122 11.124C64.0216 11.0067 64.3523 10.9267 64.7043 10.884C65.0563 10.836 65.4136 10.812 65.7763 10.812H68.7683V10.444C68.7683 10.012 68.6829 9.67067 68.5123 9.42C68.3469 9.16933 68.1176 8.99333 67.8243 8.892C67.5363 8.78533 67.2109 8.732 66.8483 8.732C66.5176 8.732 66.2163 8.78267 65.9443 8.884C65.6723 8.98533 65.4429 9.15067 65.2563 9.38C65.0749 9.60933 64.9469 9.916 64.8723 10.3L62.2403 9.564C62.3363 9.08933 62.5123 8.68667 62.7683 8.356C63.0296 8.02 63.3603 7.748 63.7603 7.54C64.1656 7.32667 64.6269 7.172 65.1443 7.076C65.6669 6.97467 66.2323 6.924 66.8403 6.924C67.7949 6.924 68.6189 7.03867 69.3123 7.268C70.0056 7.49733 70.5389 7.87867 70.9123 8.412C71.2856 8.94533 71.4723 9.67067 71.4723 10.588V16.5H69.2323L69.0003 15.412C68.9363 15.556 68.8163 15.7 68.6403 15.844C68.4643 15.9827 68.2376 16.1107 67.9603 16.228C67.6883 16.34 67.3736 16.4307 67.0163 16.5C66.6643 16.5693 66.2749 16.604 65.8483 16.604ZM66.4563 14.916C66.7176 14.916 66.9763 14.892 67.2323 14.844C67.4936 14.796 67.7309 14.7267 67.9443 14.636C68.1629 14.5453 68.3443 14.4387 68.4883 14.316C68.6323 14.188 68.7256 14.0493 68.7683 13.9L68.8323 12.3H66.4083C66.1949 12.3 65.9949 12.316 65.8083 12.348C65.6216 12.3747 65.4563 12.4333 65.3123 12.524C65.1736 12.6147 65.0643 12.7453 64.9843 12.916C64.9043 13.0867 64.8643 13.3107 64.8643 13.588C64.8643 13.8707 64.9069 14.1 64.9923 14.276C65.0829 14.4467 65.2029 14.58 65.3523 14.676C65.5069 14.7667 65.6776 14.8307 65.8643 14.868C66.0563 14.9 66.2536 14.916 66.4563 14.916ZM73.1929 16.5V3.94H75.8889V16.5H73.1929Z" fill="#050505"/>
</svg>
