<svg width="343" height="48" viewBox="0 0 343 48" fill="none" xmlns="http://www.w3.org/2000/svg">
<path d="M112.2 24C112.2 20.2231 112.2 17.4106 112.491 15.2485C112.781 13.0921 113.356 11.6128 114.485 10.4846C115.613 9.35635 117.092 8.78102 119.248 8.49111C121.411 8.20042 124.223 8.2 128 8.2H215C218.777 8.2 221.589 8.20042 223.752 8.49111C225.908 8.78102 227.387 9.35635 228.515 10.4846C229.644 11.6128 230.219 13.0921 230.509 15.2485C230.8 17.4106 230.8 20.2231 230.8 24C230.8 27.7769 230.8 30.5894 230.509 32.7515C230.219 34.9079 229.644 36.3872 228.515 37.5154C227.387 38.6437 225.908 39.219 223.752 39.5089C221.589 39.7996 218.777 39.8 215 39.8H128C124.223 39.8 121.411 39.7996 119.248 39.5089C117.092 39.219 115.613 38.6437 114.485 37.5154C113.356 36.3872 112.781 34.9079 112.491 32.7515C112.2 30.5894 112.2 27.7769 112.2 24Z" fill="#F6F8FA"/>
<path d="M112.2 24C112.2 20.2231 112.2 17.4106 112.491 15.2485C112.781 13.0921 113.356 11.6128 114.485 10.4846C115.613 9.35635 117.092 8.78102 119.248 8.49111C121.411 8.20042 124.223 8.2 128 8.2H215C218.777 8.2 221.589 8.20042 223.752 8.49111C225.908 8.78102 227.387 9.35635 228.515 10.4846C229.644 11.6128 230.219 13.0921 230.509 15.2485C230.8 17.4106 230.8 20.2231 230.8 24C230.8 27.7769 230.8 30.5894 230.509 32.7515C230.219 34.9079 229.644 36.3872 228.515 37.5154C227.387 38.6437 225.908 39.219 223.752 39.5089C221.589 39.7996 218.777 39.8 215 39.8H128C124.223 39.8 121.411 39.7996 119.248 39.5089C117.092 39.219 115.613 38.6437 114.485 37.5154C113.356 36.3872 112.781 34.9079 112.491 32.7515C112.2 30.5894 112.2 27.7769 112.2 24Z" stroke="#CCD0DC" stroke-width="0.4"/>
<path d="M146.598 27.978H151.848V29H145.492V19.48H146.598V27.978ZM156.554 22.336C158.528 22.336 159.998 23.792 159.998 25.752C159.998 27.712 158.528 29.168 156.554 29.168C154.566 29.168 153.096 27.712 153.096 25.752C153.096 23.792 154.566 22.336 156.554 22.336ZM156.554 28.188C157.912 28.188 158.92 27.152 158.92 25.752C158.92 24.352 157.912 23.316 156.554 23.316C155.182 23.316 154.16 24.352 154.16 25.752C154.16 27.152 155.182 28.188 156.554 28.188ZM167.132 22.504H168.196V29.322C168.196 31.226 166.894 32.388 164.962 32.388C163.17 32.388 161.882 31.38 161.658 29.938H162.75C162.932 30.82 163.744 31.422 164.962 31.422C166.264 31.422 167.132 30.638 167.132 29.322V28.104C166.53 28.636 165.718 28.944 164.78 28.944C162.918 28.944 161.504 27.46 161.504 25.668C161.504 23.75 162.918 22.336 164.78 22.336C165.718 22.336 166.53 22.644 167.132 23.176V22.504ZM164.92 28.006C165.774 28.006 166.586 27.656 167.132 26.858V24.422C166.586 23.624 165.774 23.274 164.92 23.274C163.548 23.274 162.568 24.296 162.568 25.668C162.568 26.914 163.548 28.006 164.92 28.006ZM178.767 19.312C181.511 19.312 183.723 21.496 183.723 24.24C183.723 26.984 181.511 29.168 178.767 29.168C176.023 29.168 173.811 26.984 173.811 24.24C173.811 21.496 176.023 19.312 178.767 19.312ZM178.767 28.132C180.923 28.132 182.603 26.396 182.603 24.24C182.603 22.084 180.923 20.348 178.767 20.348C176.611 20.348 174.931 22.084 174.931 24.24C174.931 26.396 176.611 28.132 178.767 28.132ZM190.542 22.504H191.606V29H190.542V28.258C189.94 28.832 189.142 29.168 188.218 29.168C186.566 29.168 185.432 28.034 185.432 26.2V22.504H186.496V26.144C186.496 27.46 187.266 28.188 188.414 28.188C189.184 28.188 189.982 27.782 190.542 27.04V22.504ZM198.073 27.95L198.227 28.93C197.695 29.112 197.247 29.168 196.855 29.168C195.259 29.168 194.489 28.286 194.489 26.592V23.414H192.795V22.504H194.489V20.11H195.553V22.504H198.003V23.414H195.553V26.592C195.553 27.712 196.029 28.174 196.953 28.174C197.317 28.174 197.723 28.076 198.073 27.95Z" fill="#050505"/>
</svg>
