<svg width="24" height="25" viewBox="0 0 24 25" fill="none" xmlns="http://www.w3.org/2000/svg">
    <path d="M0.962315 7.88995C0.374959 12.3536 0.455458 17.0461 0.61896 19.7112C0.698371 21.477 0.913296 24.2729 1.6981 22.5561C2.7963 20.1538 3.26772 17.9944 3.70917 15.8362C4.00098 14.4096 5.22976 8.18425 5.42595 5.73172C5.60037 3.55137 4.68366 1.81271 3.16962 2.98488C1.64905 4.1621 1.15595 6.41843 0.962315 7.88995Z" fill="white"/>
    <path d="M7.58417 4.1621L3.07151 21.6241C2.43387 23.7333 3.21868 25.4991 5.22975 22.0165L7.97658 15.8362L12.4402 4.1621C12.7999 3.09933 13.0288 0.885512 11.0668 0.532347C9.10475 0.179182 7.92753 2.80503 7.58417 4.1621Z" fill="white"/>
    <path d="M14.206 4.1621L6.40696 22.3599C5.42595 24.7634 6.75032 24.2729 7.58417 23.1447L10.6744 19.0735C12.4402 16.67 16.4035 11.1469 18.1301 8.28235C19.8567 5.41779 19.994 4.06399 19.994 2.98488C19.994 2.10197 19.7782 0.532347 18.1301 0.532347C16.482 0.532347 14.8927 2.54342 14.206 4.1621Z" fill="white"/>
    <path d="M18.7187 10.0482L10.282 22.3599C8.61425 24.8124 10.6744 25.1588 12.3421 23.39C13.4212 22.2454 15.4813 20.1428 15.8737 19.7112C16.3643 19.1716 21.031 13.8553 22.5446 11.6178C23.6728 9.95008 23.3785 5.73172 23.1823 4.1621C22.9186 2.05292 21.6424 2.46315 21.4165 3.81874C20.8769 7.05609 19.994 8.28235 18.7187 10.0482Z" fill="white"/>
    <path d="M20.3864 16.5719L15.5794 22.0165C13.1269 24.9596 14.9908 24.6162 17.0019 23.6843C18.8658 22.8205 22.1522 21.2317 22.5446 18.0925C22.937 14.9532 21.5146 15.2476 20.3864 16.5719Z" fill="white"/>
</svg>
