<svg width="65" height="64" viewBox="0 0 65 64" fill="none" xmlns="http://www.w3.org/2000/svg">
    <circle cx="32.5" cy="32" r="32" fill="#D2F69E" fill-opacity="0.2"/>
    <circle cx="32.4997" cy="31.9997" r="26.6667" fill="#D2F69E" fill-opacity="0.5"/>
    <path d="M11.167 32.0003C11.167 20.2183 20.7183 10.667 32.5003 10.667C44.2824 10.667 53.8337 20.2183 53.8337 32.0003C53.8337 43.7824 44.2824 53.3337 32.5003 53.3337C20.7183 53.3337 11.167 43.7824 11.167 32.0003Z" fill="#D2F69E"/>
    <path d="M21.9623 27.3899C21.375 31.8536 21.4555 36.5461 21.619 39.2112C21.6984 40.977 21.9133 43.7729 22.6981 42.0561C23.7963 39.6538 24.2677 37.4944 24.7092 35.3362C25.001 33.9096 26.2298 27.6843 26.4259 25.2317C26.6004 23.0514 25.6837 21.3127 24.1696 22.4849C22.649 23.6621 22.1559 25.9184 21.9623 27.3899Z" fill="#2FB763"/>
    <path d="M28.5842 23.6621L24.0715 41.1241C23.4339 43.2333 24.2187 44.9991 26.2297 41.5165L28.9766 35.3362L33.4402 23.6621C33.7999 22.5993 34.0288 20.3855 32.0668 20.0323C30.1047 19.6792 28.9275 22.305 28.5842 23.6621Z" fill="#2FB763"/>
    <path d="M35.206 23.6621L27.407 41.8599C26.426 44.2634 27.7503 43.7729 28.5842 42.6447L31.6744 38.5735C33.4402 36.17 37.4035 30.6469 39.1301 27.7824C40.8567 24.9178 40.994 23.564 40.994 22.4849C40.994 21.602 40.7782 20.0323 39.1301 20.0323C37.482 20.0323 35.8927 22.0434 35.206 23.6621Z" fill="#2FB763"/>
    <path d="M39.7187 29.5482L31.282 41.8599C29.6142 44.3124 31.6744 44.6588 33.3421 42.89C34.4212 41.7454 36.4813 39.6428 36.8737 39.2112C37.3643 38.6716 42.031 33.3553 43.5446 31.1178C44.6728 29.4501 44.3785 25.2317 44.1823 23.6621C43.9186 21.5529 42.6424 21.9631 42.4165 23.3187C41.8769 26.5561 40.994 27.7824 39.7187 29.5482Z" fill="#2FB763"/>
    <path d="M41.3864 36.0719L36.5794 41.5165C34.1269 44.4596 35.9908 44.1162 38.0019 43.1843C39.8658 42.3205 43.1522 40.7317 43.5446 37.5925C43.937 34.4532 42.5146 34.7476 41.3864 36.0719Z" fill="#2FB763"/>
</svg>
