<svg width="343" height="200" viewBox="0 0 343 200" fill="none" xmlns="http://www.w3.org/2000/svg">
<g opacity="0.2">
<path opacity="0.0526316" d="M-57.4927 213.597C-47.85 226.426 -17.0309 247.893 29.1038 231.132C86.7723 210.181 109.076 154.646 160.546 125.851C198.535 104.598 300.612 72.6951 359.308 107.948" stroke="#68F465" stroke-width="1.10756"/>
<path opacity="0.105263" d="M-67.0042 186.702C-58.7553 200.468 -30.3491 225.04 17.2849 213.193C76.8274 198.385 104.814 145.486 159.012 122.228C199.014 105.062 303.867 84.0042 358.556 125.199" stroke="#68F465" stroke-width="1.10756"/>
<path opacity="0.157895" d="M-74.1891 159.445C-67.4244 173.998 -41.7422 201.404 6.86918 194.601C67.6334 186.098 100.996 136.414 157.328 118.949C198.905 106.058 305.385 96.076 355.469 142.762" stroke="#68F465" stroke-width="1.10756"/>
<path opacity="0.210526" d="M-79.0244 132.07C-73.818 147.251 -51.1411 177.191 -2.08503 175.507C59.2351 173.402 97.6084 127.477 155.458 115.996C198.155 107.522 305.094 108.725 350.024 160.39" stroke="#68F465" stroke-width="1.10756"/>
<path opacity="0.263158" d="M-81.5086 104.824C-77.9175 120.466 -58.4945 152.612 -9.53112 156.065C51.6731 160.382 94.6366 118.72 153.369 113.348C196.718 109.384 302.946 121.758 342.229 177.837" stroke="#68F465" stroke-width="1.10756"/>
<path opacity="0.315789" d="M-81.6681 77.9513C-79.7317 93.8827 -63.7753 127.884 -15.4411 136.436C44.9766 147.126 92.0596 110.183 151.032 110.98C194.558 111.569 298.91 134.979 332.116 194.857" stroke="#68F465" stroke-width="1.10756"/>
<path opacity="0.368421" d="M-79.5561 51.6929C-79.2956 67.7395 -66.9807 103.222 -19.8052 116.78C39.1641 133.727 89.8508 101.908 148.416 108.865C191.642 114 292.976 148.19 319.741 211.21" stroke="#68F465" stroke-width="1.10756"/>
<path opacity="0.421053" d="M-75.2487 26.2833C-76.6669 42.2692 -68.1284 78.8446 -22.6285 97.2592C34.2463 120.277 87.9813 93.9309 145.499 106.972C187.951 116.597 285.156 161.192 305.187 226.665" stroke="#68F465" stroke-width="1.10756"/>
<path opacity="0.473684" d="M-68.8455 1.94788C-71.927 17.6979 -67.2584 54.9654 -23.9326 78.0352C30.2246 106.872 86.4192 86.2871 142.259 105.269C183.472 119.279 275.483 173.79 288.561 240.998" stroke="#68F465" stroke-width="1.10756"/>
<path opacity="0.526316" d="M-60.4722 -21.1008C-65.1831 -5.7591 -64.4356 31.7923 -23.7586 59.2644C27.0876 93.6046 85.1261 79.006 138.676 103.72C178.199 121.962 264.008 185.792 269.989 253.999" stroke="#68F465" stroke-width="1.10756"/>
<path opacity="0.578947" d="M-50.2721 -42.6652C-56.5608 -27.9 -59.7426 9.52384 -22.1601 41.0974C24.8181 80.5643 84.0646 72.1124 134.737 102.289C172.138 124.561 250.804 197.012 249.623 265.47" stroke="#68F465" stroke-width="1.10756"/>
<path opacity="0.631579" d="M-38.4125 -62.5614C-46.2101 -48.5344 -53.2863 -11.6482 -19.21 23.6808C23.3854 67.8421 83.1908 65.6294 130.432 100.937C165.299 126.997 235.962 207.273 227.631 275.233" stroke="#68F465" stroke-width="1.10756"/>
<path opacity="0.684211" d="M-25.074 -80.6225C-34.2952 -67.4875 -45.1883 -31.543 -14.9915 7.15443C22.7544 55.5262 82.4635 59.577 125.755 99.6295C157.707 129.191 219.592 216.414 204.203 283.131" stroke="#68F465" stroke-width="1.10756"/>
<path opacity="0.736842" d="M-10.4596 -96.7087C-21.0032 -84.6094 -35.5939 -50.0005 -9.60752 -8.35867C22.8754 43.6937 81.834 53.9636 120.702 98.3218C149.389 131.062 201.817 224.275 179.538 289.018" stroke="#68F465" stroke-width="1.10756"/>
<path opacity="0.789474" d="M5.21861 -110.694C-6.53196 -99.7634 -24.6603 -66.8692 -3.16906 -22.7391C23.695 32.4235 81.2571 48.7999 115.275 96.978C140.383 132.537 182.78 230.72 153.856 292.779" stroke="#68F465" stroke-width="1.10756"/>
<path opacity="0.842105" d="M21.7353 -122.481C8.90652 -112.838 -12.5609 -82.0192 4.19977 -35.8845C25.1506 21.784 80.6855 44.0876 109.481 95.5576C130.734 133.546 162.637 235.623 127.384 294.319" stroke="#68F465" stroke-width="1.10756"/>
<path opacity="0.894737" d="M38.8568 -131.992C25.0903 -123.743 0.519063 -95.3364 12.3655 -47.7024C27.1736 11.8401 80.0729 39.8266 103.331 94.0245C120.497 134.027 141.554 238.879 100.36 293.569" stroke="#68F465" stroke-width="1.10756"/>
<path opacity="0.947368" d="M56.3406 -139.177C41.7874 -132.413 14.3814 -106.73 21.1839 -58.1191C29.6869 2.64508 79.3711 36.0077 96.8363 92.3399C109.727 133.917 119.709 240.397 73.0233 290.48" stroke="#68F465" stroke-width="1.10756"/>
<path d="M73.9418 -144.012C58.7611 -138.805 28.8208 -116.128 30.5047 -67.0723C32.6096 -5.75222 78.5342 32.6211 90.0154 90.4702C98.4894 133.167 97.2868 240.107 45.6216 285.036" stroke="#68F465" stroke-width="1.10756"/>
</g>
    <g opacity="0.2">
        <path opacity="0.0526316" d="M418.493 -88.5967C408.85 -101.426 378.031 -122.893 331.896 -106.132C274.228 -85.1814 251.924 -29.6465 200.454 -0.850873C162.465 20.4024 60.3883 52.3049 1.69238 17.0523" stroke="#68F465" stroke-width="1.10756"/>
        <path opacity="0.105263" d="M428.004 -61.7018C419.755 -75.4683 391.349 -100.04 343.715 -88.1931C284.173 -73.385 256.186 -20.4857 201.988 2.77212C161.986 19.9381 57.1334 40.9958 2.44388 -0.199062" stroke="#68F465" stroke-width="1.10756"/>
        <path opacity="0.157895" d="M435.189 -34.4445C428.424 -48.9978 402.742 -76.4037 354.131 -69.6013C293.367 -61.0982 260.004 -11.4141 203.672 6.05111C162.095 18.9417 55.6151 28.924 5.53126 -17.7619" stroke="#68F465" stroke-width="1.10756"/>
        <path opacity="0.210526" d="M440.024 -7.06997C434.818 -22.2506 412.141 -52.191 363.085 -50.507C301.765 -48.4022 263.392 -2.47749 205.542 9.00368C162.845 17.4776 55.906 16.2751 10.9764 -35.3902" stroke="#68F465" stroke-width="1.10756"/>
        <path opacity="0.263158" d="M442.509 20.1761C438.918 4.53437 419.494 -27.6123 370.531 -31.0654C309.327 -35.3817 266.363 6.28025 207.631 11.6516C164.282 15.6161 58.0542 3.24193 18.7713 -52.8367" stroke="#68F465" stroke-width="1.10756"/>
        <path opacity="0.315789" d="M442.668 47.0487C440.732 31.1173 424.775 -2.88357 376.441 -11.4358C316.023 -22.1261 268.94 14.8168 209.968 14.0195C166.442 13.4311 62.0899 -9.97913 28.884 -69.8567" stroke="#68F465" stroke-width="1.10756"/>
        <path opacity="0.368421" d="M440.556 73.3071C440.296 57.2605 427.981 21.7781 380.805 8.22039C321.836 -8.72671 271.149 23.0923 212.584 16.1351C169.358 11.0002 68.0238 -23.1896 41.2587 -86.2101" stroke="#68F465" stroke-width="1.10756"/>
        <path opacity="0.421053" d="M436.249 98.7167C437.667 82.7308 429.128 46.1554 383.629 27.7408C326.754 4.72261 273.019 31.0691 215.501 18.0283C173.049 8.40317 75.8437 -36.1916 55.8127 -101.665" stroke="#68F465" stroke-width="1.10756"/>
        <path opacity="0.473684" d="M429.846 123.052C432.927 107.302 428.258 70.0346 384.933 46.9648C330.775 18.1276 274.581 38.7129 218.741 19.7313C177.528 5.72149 85.5167 -48.7897 72.4392 -115.998" stroke="#68F465" stroke-width="1.10756"/>
        <path opacity="0.526316" d="M421.472 146.101C426.183 130.759 425.436 93.2077 384.759 65.7356C333.912 31.3954 275.874 45.994 222.324 21.2796C182.801 3.0385 96.992 -60.7919 91.0113 -128.999" stroke="#68F465" stroke-width="1.10756"/>
        <path opacity="0.578947" d="M411.272 167.665C417.561 152.9 420.743 115.476 383.16 83.9026C336.182 44.4357 276.935 52.8876 226.263 22.7112C188.862 0.438656 110.196 -72.0115 111.377 -140.47" stroke="#68F465" stroke-width="1.10756"/>
        <path opacity="0.631579" d="M399.412 187.561C407.21 173.534 414.286 136.648 380.21 101.319C337.615 57.1579 277.809 59.3706 230.568 24.0627C195.701 -1.99718 125.038 -82.2734 133.369 -150.233" stroke="#68F465" stroke-width="1.10756"/>
        <path opacity="0.684211" d="M386.074 205.623C395.295 192.487 406.188 156.543 375.992 117.846C338.246 69.4738 278.537 65.423 235.245 25.3705C203.293 -4.19125 141.408 -91.414 156.797 -158.131" stroke="#68F465" stroke-width="1.10756"/>
        <path opacity="0.736842" d="M371.46 221.709C382.003 209.609 396.594 175.001 370.608 133.359C338.125 81.3063 279.166 71.0364 240.298 26.6782C211.611 -6.06154 159.183 -99.2751 181.462 -164.018" stroke="#68F465" stroke-width="1.10756"/>
        <path opacity="0.789474" d="M355.781 235.694C367.532 224.763 385.66 191.869 364.169 147.739C337.305 92.5765 279.743 76.2001 245.725 28.022C220.617 -7.53696 178.22 -105.72 207.144 -167.779" stroke="#68F465" stroke-width="1.10756"/>
        <path opacity="0.842105" d="M339.265 247.481C352.093 237.838 373.561 207.019 356.8 160.884C335.849 103.216 280.314 80.9124 251.519 29.4424C230.266 -8.54626 198.363 -110.623 233.616 -169.319" stroke="#68F465" stroke-width="1.10756"/>
        <path opacity="0.894737" d="M322.143 256.992C335.91 248.743 360.481 220.336 348.634 172.702C333.826 113.16 280.927 85.1734 257.669 30.9755C240.503 -9.02666 219.446 -113.879 260.64 -168.569" stroke="#68F465" stroke-width="1.10756"/>
        <path opacity="0.947368" d="M304.659 264.177C319.213 257.413 346.619 231.73 339.816 183.119C331.313 122.355 281.629 88.9923 264.164 32.6601C251.273 -8.9172 241.291 -115.397 287.977 -165.48" stroke="#68F465" stroke-width="1.10756"/>
        <path d="M287.058 269.012C302.239 263.805 332.179 241.128 330.495 192.072C328.39 130.752 282.466 92.3789 270.985 34.5298C262.511 -8.16723 263.713 -115.107 315.378 -160.036" stroke="#68F465" stroke-width="1.10756"/>
    </g>
</svg>
