<svg width="343" height="44" viewBox="0 0 343 44" fill="none" xmlns="http://www.w3.org/2000/svg">
<path d="M0.5 22C0.5 17.2972 0.500744 13.812 0.806823 11.097C1.11177 8.39202 1.71448 6.51354 2.87644 4.99924C3.48824 4.20192 4.20192 3.48824 4.99924 2.87644C6.51354 1.71448 8.39202 1.11177 11.097 0.806823C13.812 0.500744 17.2972 0.5 22 0.5H321C325.703 0.5 329.188 0.500744 331.903 0.806823C334.608 1.11177 336.486 1.71448 338.001 2.87644C338.798 3.48824 339.512 4.20192 340.124 4.99924C341.286 6.51354 341.888 8.39202 342.193 11.097C342.499 13.812 342.5 17.2972 342.5 22C342.5 26.7028 342.499 30.188 342.193 32.903C341.888 35.608 341.286 37.4865 340.124 39.0008C339.512 39.7981 338.798 40.5118 338.001 41.1236C336.486 42.2855 334.608 42.8882 331.903 43.1932C329.188 43.4993 325.703 43.5 321 43.5H22C17.2972 43.5 13.812 43.4993 11.097 43.1932C8.39202 42.8882 6.51354 42.2855 4.99924 41.1236C4.20192 40.5118 3.48824 39.7981 2.87644 39.0008C1.71448 37.4865 1.11177 35.608 0.806823 32.903C0.500744 30.188 0.5 26.7028 0.5 22Z" fill="#FFF3D5"/>
<path d="M0.5 22C0.5 17.2972 0.500744 13.812 0.806823 11.097C1.11177 8.39202 1.71448 6.51354 2.87644 4.99924C3.48824 4.20192 4.20192 3.48824 4.99924 2.87644C6.51354 1.71448 8.39202 1.11177 11.097 0.806823C13.812 0.500744 17.2972 0.5 22 0.5H321C325.703 0.5 329.188 0.500744 331.903 0.806823C334.608 1.11177 336.486 1.71448 338.001 2.87644C338.798 3.48824 339.512 4.20192 340.124 4.99924C341.286 6.51354 341.888 8.39202 342.193 11.097C342.499 13.812 342.5 17.2972 342.5 22C342.5 26.7028 342.499 30.188 342.193 32.903C341.888 35.608 341.286 37.4865 340.124 39.0008C339.512 39.7981 338.798 40.5118 338.001 41.1236C336.486 42.2855 334.608 42.8882 331.903 43.1932C329.188 43.4993 325.703 43.5 321 43.5H22C17.2972 43.5 13.812 43.4993 11.097 43.1932C8.39202 42.8882 6.51354 42.2855 4.99924 41.1236C4.20192 40.5118 3.48824 39.7981 2.87644 39.0008C1.71448 37.4865 1.11177 35.608 0.806823 32.903C0.500744 30.188 0.5 26.7028 0.5 22Z" stroke="#E2E4EB"/>
<path d="M20 16.25C20.4142 16.25 20.75 16.5858 20.75 17V23C20.75 23.4142 20.4142 23.75 20 23.75C19.5858 23.75 19.25 23.4142 19.25 23V17C19.25 16.5858 19.5858 16.25 20 16.25Z" fill="#FFBE62"/>
<path d="M21 26C21 26.5523 20.5523 27 20 27C19.4477 27 19 26.5523 19 26C19 25.4477 19.4477 25 20 25C20.5523 25 21 25.4477 21 26Z" fill="#FFBE62"/>
<path fill-rule="evenodd" clip-rule="evenodd" d="M20 11.25C19.2954 11.25 18.6519 11.4436 17.9486 11.7704C17.2681 12.0866 16.4804 12.553 15.4946 13.1369L14.7415 13.5828C13.7553 14.1668 12.9677 14.6332 12.3608 15.0794C11.7331 15.5408 11.2518 16.0131 10.9033 16.6321C10.5555 17.2501 10.3984 17.9109 10.3231 18.6951C10.25 19.4554 10.25 20.3865 10.25 21.556V22.444C10.25 23.6135 10.25 24.5446 10.3231 25.3049C10.3984 26.0891 10.5555 26.7499 10.9033 27.3679C11.2518 27.9869 11.7331 28.4592 12.3608 28.9206C12.9677 29.3668 13.7553 29.8332 14.7415 30.4172L15.4946 30.8632C16.4804 31.447 17.2681 31.9135 17.9486 32.2296C18.6519 32.5564 19.2954 32.75 20 32.75C20.7046 32.75 21.3481 32.5564 22.0514 32.2296C22.7319 31.9134 23.5196 31.447 24.5054 30.8632L25.2585 30.4172C26.2446 29.8332 27.0323 29.3668 27.6392 28.9206C28.2669 28.4592 28.7482 27.9869 29.0967 27.3679C29.4445 26.7499 29.6016 26.0891 29.6769 25.3049C29.75 24.5446 29.75 23.6135 29.75 22.4441V21.556C29.75 20.3866 29.75 19.4554 29.6769 18.6951C29.6016 17.9109 29.4445 17.2501 29.0967 16.6321C28.7482 16.0131 28.2669 15.5408 27.6392 15.0794C27.0323 14.6332 26.2447 14.1668 25.2585 13.5828L24.5054 13.1368C23.5196 12.553 22.7319 12.0866 22.0514 11.7704C21.3481 11.4436 20.7046 11.25 20 11.25ZM16.2252 14.4474C17.2524 13.8392 17.9761 13.4116 18.5807 13.1307C19.1702 12.8568 19.5907 12.75 20 12.75C20.4093 12.75 20.8298 12.8568 21.4193 13.1307C22.0239 13.4116 22.7476 13.8392 23.7748 14.4474L24.4609 14.8538C25.4879 15.462 26.2109 15.8911 26.7508 16.288C27.2767 16.6747 27.581 16.9975 27.7895 17.3679C27.9986 17.7393 28.1199 18.1739 28.1838 18.8386C28.2492 19.5188 28.25 20.378 28.25 21.5937V22.4063C28.25 23.622 28.2492 24.4812 28.1838 25.1614C28.1199 25.8261 27.9986 26.2607 27.7895 26.6321C27.581 27.0025 27.2767 27.3253 26.7508 27.712C26.2109 28.1089 25.4879 28.538 24.4609 29.1462L23.7748 29.5526C22.7476 30.1608 22.0239 30.5884 21.4193 30.8693C20.8298 31.1432 20.4093 31.25 20 31.25C19.5907 31.25 19.1702 31.1432 18.5807 30.8693C17.9761 30.5884 17.2524 30.1608 16.2252 29.5526L15.5391 29.1462C14.5121 28.538 13.7891 28.1089 13.2492 27.712C12.7233 27.3253 12.419 27.0025 12.2105 26.6321C12.0014 26.2607 11.8801 25.8261 11.8162 25.1614C11.7508 24.4812 11.75 23.622 11.75 22.4063V21.5937C11.75 20.378 11.7508 19.5188 11.8162 18.8386C11.8801 18.1739 12.0014 17.7393 12.2105 17.3679C12.419 16.9975 12.7233 16.6747 13.2492 16.288C13.7891 15.8911 14.5121 15.462 15.5391 14.8538L16.2252 14.4474Z" fill="#FFBE62"/>
<path d="M40.924 19V10.6H42.22L45.088 16.564L47.944 10.6H49.24V19H48.364V11.656L45.076 18.4L41.788 11.668V19H40.924ZM53.7122 19.12C53.1442 19.12 52.6242 18.984 52.1522 18.712C51.6882 18.432 51.3202 18.056 51.0482 17.584C50.7762 17.112 50.6402 16.584 50.6402 16C50.6402 15.416 50.7762 14.888 51.0482 14.416C51.3202 13.944 51.6882 13.572 52.1522 13.3C52.6242 13.02 53.1442 12.88 53.7122 12.88C54.2882 12.88 54.8082 13.02 55.2722 13.3C55.7362 13.572 56.1042 13.944 56.3762 14.416C56.6482 14.888 56.7842 15.416 56.7842 16C56.7842 16.584 56.6482 17.112 56.3762 17.584C56.1042 18.056 55.7362 18.432 55.2722 18.712C54.8082 18.984 54.2882 19.12 53.7122 19.12ZM53.7122 18.328C54.1202 18.328 54.4882 18.224 54.8162 18.016C55.1522 17.808 55.4162 17.528 55.6082 17.176C55.8082 16.824 55.9082 16.432 55.9082 16C55.9082 15.56 55.8082 15.168 55.6082 14.824C55.4162 14.472 55.1522 14.192 54.8162 13.984C54.4882 13.776 54.1202 13.672 53.7122 13.672C53.3042 13.672 52.9322 13.776 52.5962 13.984C52.2682 14.192 52.0042 14.472 51.8042 14.824C51.6122 15.168 51.5162 15.56 51.5162 16C51.5162 16.432 51.6122 16.824 51.8042 17.176C52.0042 17.528 52.2682 17.808 52.5962 18.016C52.9322 18.224 53.3042 18.328 53.7122 18.328ZM58.0177 19V12.988H58.9057V13.696C59.3777 13.144 60.0097 12.868 60.8017 12.868C61.2577 12.868 61.6577 12.968 62.0017 13.168C62.3537 13.36 62.6257 13.632 62.8177 13.984C63.0177 14.328 63.1177 14.732 63.1177 15.196V19H62.2417V15.376C62.2417 14.84 62.0897 14.42 61.7857 14.116C61.4897 13.804 61.0817 13.648 60.5617 13.648C60.2017 13.648 59.8817 13.728 59.6017 13.888C59.3217 14.048 59.0897 14.276 58.9057 14.572V19H58.0177ZM67.4237 19.108C66.8477 19.108 66.3237 18.972 65.8517 18.7C65.3877 18.42 65.0157 18.044 64.7357 17.572C64.4637 17.1 64.3277 16.572 64.3277 15.988C64.3277 15.412 64.4597 14.892 64.7237 14.428C64.9877 13.956 65.3437 13.584 65.7917 13.312C66.2397 13.032 66.7397 12.892 67.2917 12.892C67.8277 12.892 68.3077 13.032 68.7317 13.312C69.1637 13.584 69.5037 13.956 69.7517 14.428C70.0077 14.892 70.1357 15.412 70.1357 15.988V16.264H65.2037C65.2517 16.656 65.3757 17.008 65.5757 17.32C65.7837 17.632 66.0517 17.88 66.3797 18.064C66.7077 18.24 67.0677 18.328 67.4597 18.328C67.7717 18.328 68.0757 18.28 68.3717 18.184C68.6677 18.088 68.9157 17.952 69.1157 17.776L69.6677 18.364C69.3317 18.612 68.9797 18.8 68.6117 18.928C68.2517 19.048 67.8557 19.108 67.4237 19.108ZM65.2277 15.556H69.2477C69.1997 15.196 69.0797 14.876 68.8877 14.596C68.7037 14.308 68.4717 14.084 68.1917 13.924C67.9117 13.756 67.6037 13.672 67.2677 13.672C66.9237 13.672 66.6077 13.752 66.3197 13.912C66.0317 14.072 65.7917 14.296 65.5997 14.584C65.4077 14.864 65.2837 15.188 65.2277 15.556ZM71.4533 21.568C71.3413 21.568 71.2333 21.56 71.1293 21.544C71.0333 21.536 70.9533 21.524 70.8893 21.508V20.704C71.0253 20.736 71.1933 20.752 71.3933 20.752C71.9213 20.752 72.3213 20.44 72.5933 19.816L72.9533 18.988L70.5053 12.988H71.4893L73.4333 17.92L75.5333 12.988H76.4933L73.4933 19.936C73.3253 20.32 73.1453 20.632 72.9533 20.872C72.7613 21.112 72.5413 21.288 72.2933 21.4C72.0533 21.512 71.7733 21.568 71.4533 21.568ZM82.3806 19V11.428H79.3446V10.6H86.3406V11.428H83.3046V19H82.3806ZM86.7052 19V12.988H87.5932V13.84C87.7772 13.528 88.0092 13.288 88.2892 13.12C88.5772 12.944 88.9052 12.856 89.2732 12.856C89.4812 12.856 89.6692 12.884 89.8372 12.94V13.756C89.7332 13.716 89.6292 13.688 89.5252 13.672C89.4212 13.656 89.3172 13.648 89.2132 13.648C88.8452 13.648 88.5212 13.756 88.2412 13.972C87.9692 14.18 87.7532 14.484 87.5932 14.884V19H86.7052ZM92.445 19.108C92.005 19.108 91.617 19.032 91.281 18.88C90.953 18.728 90.693 18.516 90.501 18.244C90.317 17.972 90.225 17.656 90.225 17.296C90.225 16.728 90.441 16.28 90.873 15.952C91.305 15.624 91.889 15.46 92.625 15.46C93.273 15.46 93.861 15.596 94.389 15.868V15.076C94.389 14.596 94.253 14.236 93.981 13.996C93.709 13.748 93.313 13.624 92.793 13.624C92.497 13.624 92.197 13.668 91.893 13.756C91.597 13.836 91.269 13.968 90.909 14.152L90.573 13.468C91.005 13.26 91.405 13.108 91.773 13.012C92.141 12.916 92.509 12.868 92.877 12.868C93.637 12.868 94.221 13.048 94.629 13.408C95.045 13.768 95.253 14.284 95.253 14.956V19H94.389V18.412C94.117 18.644 93.817 18.82 93.489 18.94C93.169 19.052 92.821 19.108 92.445 19.108ZM91.077 17.272C91.077 17.608 91.217 17.884 91.497 18.1C91.785 18.308 92.153 18.412 92.601 18.412C92.961 18.412 93.289 18.356 93.585 18.244C93.881 18.132 94.149 17.956 94.389 17.716V16.588C94.141 16.42 93.877 16.3 93.597 16.228C93.317 16.148 93.001 16.108 92.649 16.108C92.169 16.108 91.785 16.216 91.497 16.432C91.217 16.64 91.077 16.92 91.077 17.272ZM96.7365 19V12.988H97.6245V13.696C98.0965 13.144 98.7285 12.868 99.5205 12.868C99.9765 12.868 100.376 12.968 100.72 13.168C101.072 13.36 101.344 13.632 101.536 13.984C101.736 14.328 101.836 14.732 101.836 15.196V19H100.96V15.376C100.96 14.84 100.808 14.42 100.504 14.116C100.208 13.804 99.8005 13.648 99.2805 13.648C98.9205 13.648 98.6005 13.728 98.3205 13.888C98.0405 14.048 97.8085 14.276 97.6245 14.572V19H96.7365ZM105.242 19.12C104.746 19.12 104.278 19.04 103.838 18.88C103.406 18.712 103.03 18.48 102.71 18.184L103.25 17.608C103.53 17.864 103.838 18.064 104.174 18.208C104.51 18.344 104.854 18.412 105.206 18.412C105.686 18.412 106.078 18.312 106.382 18.112C106.686 17.912 106.838 17.652 106.838 17.332C106.838 17.068 106.746 16.864 106.562 16.72C106.386 16.568 106.106 16.464 105.722 16.408L104.678 16.264C104.078 16.176 103.63 15.996 103.334 15.724C103.046 15.452 102.902 15.084 102.902 14.62C102.902 14.284 102.998 13.984 103.19 13.72C103.382 13.456 103.646 13.248 103.982 13.096C104.326 12.944 104.718 12.868 105.158 12.868C105.598 12.868 106.01 12.932 106.394 13.06C106.778 13.188 107.154 13.388 107.522 13.66L107.054 14.26C106.718 14.028 106.39 13.86 106.07 13.756C105.758 13.644 105.438 13.588 105.11 13.588C104.694 13.588 104.358 13.68 104.102 13.864C103.846 14.048 103.718 14.288 103.718 14.584C103.718 14.856 103.806 15.064 103.982 15.208C104.158 15.344 104.442 15.44 104.834 15.496L105.878 15.64C106.478 15.72 106.926 15.896 107.222 16.168C107.526 16.44 107.678 16.812 107.678 17.284C107.678 17.628 107.57 17.94 107.354 18.22C107.138 18.5 106.846 18.72 106.478 18.88C106.118 19.04 105.706 19.12 105.242 19.12ZM109.425 19V13.744H108.009V12.988H109.425V11.848C109.425 11.256 109.585 10.804 109.905 10.492C110.225 10.18 110.685 10.024 111.285 10.024C111.445 10.024 111.589 10.032 111.717 10.048C111.845 10.064 111.969 10.092 112.089 10.132V10.924C111.953 10.884 111.829 10.856 111.717 10.84C111.605 10.816 111.481 10.804 111.345 10.804C110.993 10.804 110.729 10.892 110.553 11.068C110.385 11.236 110.301 11.504 110.301 11.872V12.988H112.089V13.744H110.301V19H109.425ZM115.564 19.108C114.988 19.108 114.464 18.972 113.992 18.7C113.528 18.42 113.156 18.044 112.876 17.572C112.604 17.1 112.468 16.572 112.468 15.988C112.468 15.412 112.6 14.892 112.864 14.428C113.128 13.956 113.484 13.584 113.932 13.312C114.38 13.032 114.88 12.892 115.432 12.892C115.968 12.892 116.448 13.032 116.872 13.312C117.304 13.584 117.644 13.956 117.892 14.428C118.148 14.892 118.276 15.412 118.276 15.988V16.264H113.344C113.392 16.656 113.516 17.008 113.716 17.32C113.924 17.632 114.192 17.88 114.52 18.064C114.848 18.24 115.208 18.328 115.6 18.328C115.912 18.328 116.216 18.28 116.512 18.184C116.808 18.088 117.056 17.952 117.256 17.776L117.808 18.364C117.472 18.612 117.12 18.8 116.752 18.928C116.392 19.048 115.996 19.108 115.564 19.108ZM113.368 15.556H117.388C117.34 15.196 117.22 14.876 117.028 14.596C116.844 14.308 116.612 14.084 116.332 13.924C116.052 13.756 115.744 13.672 115.408 13.672C115.064 13.672 114.748 13.752 114.46 13.912C114.172 14.072 113.932 14.296 113.74 14.584C113.548 14.864 113.424 15.188 113.368 15.556ZM119.518 19V12.988H120.406V13.84C120.59 13.528 120.822 13.288 121.102 13.12C121.39 12.944 121.718 12.856 122.086 12.856C122.294 12.856 122.482 12.884 122.65 12.94V13.756C122.546 13.716 122.442 13.688 122.338 13.672C122.234 13.656 122.13 13.648 122.026 13.648C121.658 13.648 121.334 13.756 121.054 13.972C120.782 14.18 120.566 14.484 120.406 14.884V19H119.518ZM125.528 19.12C125.032 19.12 124.564 19.04 124.124 18.88C123.692 18.712 123.316 18.48 122.996 18.184L123.536 17.608C123.816 17.864 124.124 18.064 124.46 18.208C124.796 18.344 125.14 18.412 125.492 18.412C125.972 18.412 126.364 18.312 126.668 18.112C126.972 17.912 127.124 17.652 127.124 17.332C127.124 17.068 127.032 16.864 126.848 16.72C126.672 16.568 126.392 16.464 126.008 16.408L124.964 16.264C124.364 16.176 123.916 15.996 123.62 15.724C123.332 15.452 123.188 15.084 123.188 14.62C123.188 14.284 123.284 13.984 123.476 13.72C123.668 13.456 123.932 13.248 124.268 13.096C124.612 12.944 125.004 12.868 125.444 12.868C125.884 12.868 126.296 12.932 126.68 13.06C127.064 13.188 127.44 13.388 127.808 13.66L127.34 14.26C127.004 14.028 126.676 13.86 126.356 13.756C126.044 13.644 125.724 13.588 125.396 13.588C124.98 13.588 124.644 13.68 124.388 13.864C124.132 14.048 124.004 14.288 124.004 14.584C124.004 14.856 124.092 15.064 124.268 15.208C124.444 15.344 124.728 15.44 125.12 15.496L126.164 15.64C126.764 15.72 127.212 15.896 127.508 16.168C127.812 16.44 127.964 16.812 127.964 17.284C127.964 17.628 127.856 17.94 127.64 18.22C127.424 18.5 127.132 18.72 126.764 18.88C126.404 19.04 125.992 19.12 125.528 19.12ZM133.461 19.12C132.965 19.12 132.497 19.04 132.057 18.88C131.625 18.712 131.249 18.48 130.929 18.184L131.469 17.608C131.749 17.864 132.057 18.064 132.393 18.208C132.729 18.344 133.073 18.412 133.425 18.412C133.905 18.412 134.297 18.312 134.601 18.112C134.905 17.912 135.057 17.652 135.057 17.332C135.057 17.068 134.965 16.864 134.781 16.72C134.605 16.568 134.325 16.464 133.941 16.408L132.897 16.264C132.297 16.176 131.849 15.996 131.553 15.724C131.265 15.452 131.121 15.084 131.121 14.62C131.121 14.284 131.217 13.984 131.409 13.72C131.601 13.456 131.865 13.248 132.201 13.096C132.545 12.944 132.937 12.868 133.377 12.868C133.817 12.868 134.229 12.932 134.613 13.06C134.997 13.188 135.373 13.388 135.741 13.66L135.273 14.26C134.937 14.028 134.609 13.86 134.289 13.756C133.977 13.644 133.657 13.588 133.329 13.588C132.913 13.588 132.577 13.68 132.321 13.864C132.065 14.048 131.937 14.288 131.937 14.584C131.937 14.856 132.025 15.064 132.201 15.208C132.377 15.344 132.661 15.44 133.053 15.496L134.097 15.64C134.697 15.72 135.145 15.896 135.441 16.168C135.745 16.44 135.897 16.812 135.897 17.284C135.897 17.628 135.789 17.94 135.573 18.22C135.357 18.5 135.065 18.72 134.697 18.88C134.337 19.04 133.925 19.12 133.461 19.12ZM139.775 19.108C139.199 19.108 138.675 18.972 138.203 18.7C137.739 18.42 137.367 18.044 137.087 17.572C136.815 17.1 136.679 16.572 136.679 15.988C136.679 15.412 136.811 14.892 137.075 14.428C137.339 13.956 137.695 13.584 138.143 13.312C138.591 13.032 139.091 12.892 139.643 12.892C140.179 12.892 140.659 13.032 141.083 13.312C141.515 13.584 141.855 13.956 142.103 14.428C142.359 14.892 142.487 15.412 142.487 15.988V16.264H137.555C137.603 16.656 137.727 17.008 137.927 17.32C138.135 17.632 138.403 17.88 138.731 18.064C139.059 18.24 139.419 18.328 139.811 18.328C140.123 18.328 140.427 18.28 140.723 18.184C141.019 18.088 141.267 17.952 141.467 17.776L142.019 18.364C141.683 18.612 141.331 18.8 140.963 18.928C140.603 19.048 140.207 19.108 139.775 19.108ZM137.579 15.556H141.599C141.551 15.196 141.431 14.876 141.239 14.596C141.055 14.308 140.823 14.084 140.543 13.924C140.263 13.756 139.955 13.672 139.619 13.672C139.275 13.672 138.959 13.752 138.671 13.912C138.383 14.072 138.143 14.296 137.951 14.584C137.759 14.864 137.635 15.188 137.579 15.556ZM143.729 19V12.988H144.617V13.696C145.089 13.144 145.721 12.868 146.513 12.868C146.969 12.868 147.369 12.968 147.713 13.168C148.065 13.36 148.337 13.632 148.529 13.984C148.729 14.328 148.829 14.732 148.829 15.196V19H147.953V15.376C147.953 14.84 147.801 14.42 147.497 14.116C147.201 13.804 146.793 13.648 146.273 13.648C145.913 13.648 145.593 13.728 145.313 13.888C145.033 14.048 144.801 14.276 144.617 14.572V19H143.729ZM152.503 19.12C151.983 19.12 151.583 18.996 151.303 18.748C151.023 18.5 150.883 18.14 150.883 17.668V13.744H149.587V12.988H150.883V11.464L151.759 11.236V12.988H153.571V13.744H151.759V17.44C151.759 17.76 151.831 17.992 151.975 18.136C152.119 18.272 152.355 18.34 152.683 18.34C152.851 18.34 152.999 18.328 153.127 18.304C153.263 18.28 153.407 18.24 153.559 18.184V18.964C153.407 19.02 153.235 19.06 153.043 19.084C152.859 19.108 152.679 19.12 152.503 19.12ZM159.464 19.12C158.944 19.12 158.544 18.996 158.264 18.748C157.984 18.5 157.844 18.14 157.844 17.668V13.744H156.548V12.988H157.844V11.464L158.72 11.236V12.988H160.532V13.744H158.72V17.44C158.72 17.76 158.792 17.992 158.936 18.136C159.08 18.272 159.316 18.34 159.644 18.34C159.812 18.34 159.96 18.328 160.088 18.304C160.224 18.28 160.368 18.24 160.52 18.184V18.964C160.368 19.02 160.196 19.06 160.004 19.084C159.82 19.108 159.64 19.12 159.464 19.12ZM164.161 19.12C163.593 19.12 163.073 18.984 162.601 18.712C162.137 18.432 161.769 18.056 161.497 17.584C161.225 17.112 161.089 16.584 161.089 16C161.089 15.416 161.225 14.888 161.497 14.416C161.769 13.944 162.137 13.572 162.601 13.3C163.073 13.02 163.593 12.88 164.161 12.88C164.737 12.88 165.257 13.02 165.721 13.3C166.185 13.572 166.553 13.944 166.825 14.416C167.097 14.888 167.233 15.416 167.233 16C167.233 16.584 167.097 17.112 166.825 17.584C166.553 18.056 166.185 18.432 165.721 18.712C165.257 18.984 164.737 19.12 164.161 19.12ZM164.161 18.328C164.569 18.328 164.937 18.224 165.265 18.016C165.601 17.808 165.865 17.528 166.057 17.176C166.257 16.824 166.357 16.432 166.357 16C166.357 15.56 166.257 15.168 166.057 14.824C165.865 14.472 165.601 14.192 165.265 13.984C164.937 13.776 164.569 13.672 164.161 13.672C163.753 13.672 163.381 13.776 163.045 13.984C162.717 14.192 162.453 14.472 162.253 14.824C162.061 15.168 161.965 15.56 161.965 16C161.965 16.432 162.061 16.824 162.253 17.176C162.453 17.528 162.717 17.808 163.045 18.016C163.381 18.224 163.753 18.328 164.161 18.328ZM173.409 19.12C172.889 19.12 172.489 18.996 172.209 18.748C171.929 18.5 171.789 18.14 171.789 17.668V13.744H170.493V12.988H171.789V11.464L172.665 11.236V12.988H174.477V13.744H172.665V17.44C172.665 17.76 172.737 17.992 172.881 18.136C173.025 18.272 173.261 18.34 173.589 18.34C173.757 18.34 173.905 18.328 174.033 18.304C174.169 18.28 174.313 18.24 174.465 18.184V18.964C174.313 19.02 174.141 19.06 173.949 19.084C173.765 19.108 173.585 19.12 173.409 19.12ZM175.428 19V10.6L176.316 10.396V13.696C176.788 13.144 177.42 12.868 178.212 12.868C178.668 12.868 179.068 12.968 179.412 13.168C179.764 13.36 180.036 13.632 180.228 13.984C180.428 14.328 180.528 14.732 180.528 15.196V19H179.652V15.376C179.652 14.84 179.5 14.42 179.196 14.116C178.9 13.804 178.492 13.648 177.972 13.648C177.612 13.648 177.292 13.728 177.012 13.888C176.732 14.048 176.5 14.276 176.316 14.572V19H175.428ZM182.014 19V12.988H182.902V19H182.014ZM182.458 11.836C182.298 11.836 182.158 11.776 182.038 11.656C181.918 11.536 181.858 11.396 181.858 11.236C181.858 11.068 181.918 10.928 182.038 10.816C182.158 10.696 182.298 10.636 182.458 10.636C182.626 10.636 182.766 10.696 182.878 10.816C182.998 10.928 183.058 11.068 183.058 11.236C183.058 11.396 182.998 11.536 182.878 11.656C182.766 11.776 182.626 11.836 182.458 11.836ZM186.336 19.12C185.84 19.12 185.372 19.04 184.932 18.88C184.5 18.712 184.124 18.48 183.804 18.184L184.344 17.608C184.624 17.864 184.932 18.064 185.268 18.208C185.604 18.344 185.948 18.412 186.3 18.412C186.78 18.412 187.172 18.312 187.476 18.112C187.78 17.912 187.932 17.652 187.932 17.332C187.932 17.068 187.84 16.864 187.656 16.72C187.48 16.568 187.2 16.464 186.816 16.408L185.772 16.264C185.172 16.176 184.724 15.996 184.428 15.724C184.14 15.452 183.996 15.084 183.996 14.62C183.996 14.284 184.092 13.984 184.284 13.72C184.476 13.456 184.74 13.248 185.076 13.096C185.42 12.944 185.812 12.868 186.252 12.868C186.692 12.868 187.104 12.932 187.488 13.06C187.872 13.188 188.248 13.388 188.616 13.66L188.148 14.26C187.812 14.028 187.484 13.86 187.164 13.756C186.852 13.644 186.532 13.588 186.204 13.588C185.788 13.588 185.452 13.68 185.196 13.864C184.94 14.048 184.812 14.288 184.812 14.584C184.812 14.856 184.9 15.064 185.076 15.208C185.252 15.344 185.536 15.44 185.928 15.496L186.972 15.64C187.572 15.72 188.02 15.896 188.316 16.168C188.62 16.44 188.772 16.812 188.772 17.284C188.772 17.628 188.664 17.94 188.448 18.22C188.232 18.5 187.94 18.72 187.572 18.88C187.212 19.04 186.8 19.12 186.336 19.12ZM192.35 19V10.6L193.238 10.396V13.624C193.75 13.136 194.394 12.892 195.17 12.892C195.738 12.892 196.25 13.032 196.706 13.312C197.162 13.584 197.522 13.952 197.786 14.416C198.058 14.88 198.194 15.404 198.194 15.988C198.194 16.572 198.058 17.1 197.786 17.572C197.522 18.036 197.162 18.408 196.706 18.688C196.25 18.96 195.734 19.096 195.158 19.096C194.806 19.096 194.462 19.036 194.126 18.916C193.798 18.796 193.498 18.624 193.226 18.4V19H192.35ZM195.086 18.316C195.51 18.316 195.89 18.216 196.226 18.016C196.562 17.808 196.826 17.532 197.018 17.188C197.218 16.836 197.318 16.44 197.318 16C197.318 15.56 197.218 15.164 197.018 14.812C196.826 14.46 196.562 14.184 196.226 13.984C195.89 13.776 195.51 13.672 195.086 13.672C194.71 13.672 194.358 13.748 194.03 13.9C193.71 14.044 193.446 14.248 193.238 14.512V17.488C193.446 17.744 193.714 17.948 194.042 18.1C194.37 18.244 194.718 18.316 195.086 18.316ZM201.382 19.108C200.942 19.108 200.554 19.032 200.218 18.88C199.89 18.728 199.63 18.516 199.438 18.244C199.254 17.972 199.162 17.656 199.162 17.296C199.162 16.728 199.378 16.28 199.81 15.952C200.242 15.624 200.826 15.46 201.562 15.46C202.21 15.46 202.798 15.596 203.326 15.868V15.076C203.326 14.596 203.19 14.236 202.918 13.996C202.646 13.748 202.25 13.624 201.73 13.624C201.434 13.624 201.134 13.668 200.83 13.756C200.534 13.836 200.206 13.968 199.846 14.152L199.51 13.468C199.942 13.26 200.342 13.108 200.71 13.012C201.078 12.916 201.446 12.868 201.814 12.868C202.574 12.868 203.158 13.048 203.566 13.408C203.982 13.768 204.19 14.284 204.19 14.956V19H203.326V18.412C203.054 18.644 202.754 18.82 202.426 18.94C202.106 19.052 201.758 19.108 201.382 19.108ZM200.014 17.272C200.014 17.608 200.154 17.884 200.434 18.1C200.722 18.308 201.09 18.412 201.538 18.412C201.898 18.412 202.226 18.356 202.522 18.244C202.818 18.132 203.086 17.956 203.326 17.716V16.588C203.078 16.42 202.814 16.3 202.534 16.228C202.254 16.148 201.938 16.108 201.586 16.108C201.106 16.108 200.722 16.216 200.434 16.432C200.154 16.64 200.014 16.92 200.014 17.272ZM205.674 19V12.988H206.562V13.696C207.034 13.144 207.666 12.868 208.458 12.868C208.914 12.868 209.314 12.968 209.658 13.168C210.01 13.36 210.282 13.632 210.474 13.984C210.674 14.328 210.774 14.732 210.774 15.196V19H209.898V15.376C209.898 14.84 209.746 14.42 209.442 14.116C209.146 13.804 208.738 13.648 208.218 13.648C207.858 13.648 207.538 13.728 207.258 13.888C206.978 14.048 206.746 14.276 206.562 14.572V19H205.674ZM212.26 19V10.6L213.148 10.396V15.7L216.292 12.988H217.372L214.072 15.844L217.528 19H216.316L213.148 16.12V19H212.26ZM222.664 19.108C222.224 19.108 221.836 19.032 221.5 18.88C221.172 18.728 220.912 18.516 220.72 18.244C220.536 17.972 220.444 17.656 220.444 17.296C220.444 16.728 220.66 16.28 221.092 15.952C221.524 15.624 222.108 15.46 222.844 15.46C223.492 15.46 224.08 15.596 224.608 15.868V15.076C224.608 14.596 224.472 14.236 224.2 13.996C223.928 13.748 223.532 13.624 223.012 13.624C222.716 13.624 222.416 13.668 222.112 13.756C221.816 13.836 221.488 13.968 221.128 14.152L220.792 13.468C221.224 13.26 221.624 13.108 221.992 13.012C222.36 12.916 222.728 12.868 223.096 12.868C223.856 12.868 224.44 13.048 224.848 13.408C225.264 13.768 225.472 14.284 225.472 14.956V19H224.608V18.412C224.336 18.644 224.036 18.82 223.708 18.94C223.388 19.052 223.04 19.108 222.664 19.108ZM221.296 17.272C221.296 17.608 221.436 17.884 221.716 18.1C222.004 18.308 222.372 18.412 222.82 18.412C223.18 18.412 223.508 18.356 223.804 18.244C224.1 18.132 224.368 17.956 224.608 17.716V16.588C224.36 16.42 224.096 16.3 223.816 16.228C223.536 16.148 223.22 16.108 222.868 16.108C222.388 16.108 222.004 16.216 221.716 16.432C221.436 16.64 221.296 16.92 221.296 17.272ZM229.739 19.108C229.171 19.108 228.655 18.972 228.191 18.7C227.727 18.42 227.359 18.044 227.087 17.572C226.815 17.1 226.679 16.572 226.679 15.988C226.679 15.404 226.815 14.88 227.087 14.416C227.359 13.944 227.727 13.568 228.191 13.288C228.655 13.008 229.171 12.868 229.739 12.868C230.179 12.868 230.603 12.952 231.011 13.12C231.419 13.28 231.779 13.512 232.091 13.816L231.527 14.464C231.287 14.208 231.011 14.016 230.699 13.888C230.395 13.752 230.079 13.684 229.751 13.684C229.343 13.684 228.971 13.788 228.635 13.996C228.307 14.196 228.043 14.472 227.843 14.824C227.651 15.168 227.555 15.556 227.555 15.988C227.555 16.42 227.651 16.812 227.843 17.164C228.043 17.516 228.311 17.796 228.647 18.004C228.983 18.204 229.355 18.304 229.763 18.304C230.091 18.304 230.399 18.24 230.687 18.112C230.983 17.984 231.259 17.796 231.515 17.548L232.067 18.148C231.747 18.452 231.387 18.688 230.987 18.856C230.587 19.024 230.171 19.108 229.739 19.108ZM235.716 19.108C235.148 19.108 234.632 18.972 234.168 18.7C233.704 18.42 233.336 18.044 233.064 17.572C232.792 17.1 232.656 16.572 232.656 15.988C232.656 15.404 232.792 14.88 233.064 14.416C233.336 13.944 233.704 13.568 234.168 13.288C234.632 13.008 235.148 12.868 235.716 12.868C236.156 12.868 236.58 12.952 236.988 13.12C237.396 13.28 237.756 13.512 238.068 13.816L237.504 14.464C237.264 14.208 236.988 14.016 236.676 13.888C236.372 13.752 236.056 13.684 235.728 13.684C235.32 13.684 234.948 13.788 234.612 13.996C234.284 14.196 234.02 14.472 233.82 14.824C233.628 15.168 233.532 15.556 233.532 15.988C233.532 16.42 233.628 16.812 233.82 17.164C234.02 17.516 234.288 17.796 234.624 18.004C234.96 18.204 235.332 18.304 235.74 18.304C236.068 18.304 236.376 18.24 236.664 18.112C236.96 17.984 237.236 17.796 237.492 17.548L238.044 18.148C237.724 18.452 237.364 18.688 236.964 18.856C236.564 19.024 236.148 19.108 235.716 19.108ZM241.704 19.12C241.136 19.12 240.616 18.984 240.144 18.712C239.68 18.432 239.312 18.056 239.04 17.584C238.768 17.112 238.632 16.584 238.632 16C238.632 15.416 238.768 14.888 239.04 14.416C239.312 13.944 239.68 13.572 240.144 13.3C240.616 13.02 241.136 12.88 241.704 12.88C242.28 12.88 242.8 13.02 243.264 13.3C243.728 13.572 244.096 13.944 244.368 14.416C244.64 14.888 244.776 15.416 244.776 16C244.776 16.584 244.64 17.112 244.368 17.584C244.096 18.056 243.728 18.432 243.264 18.712C242.8 18.984 242.28 19.12 241.704 19.12ZM241.704 18.328C242.112 18.328 242.48 18.224 242.808 18.016C243.144 17.808 243.408 17.528 243.6 17.176C243.8 16.824 243.9 16.432 243.9 16C243.9 15.56 243.8 15.168 243.6 14.824C243.408 14.472 243.144 14.192 242.808 13.984C242.48 13.776 242.112 13.672 241.704 13.672C241.296 13.672 240.924 13.776 240.588 13.984C240.26 14.192 239.996 14.472 239.796 14.824C239.604 15.168 239.508 15.56 239.508 16C239.508 16.432 239.604 16.824 239.796 17.176C239.996 17.528 240.26 17.808 240.588 18.016C240.924 18.224 241.296 18.328 241.704 18.328ZM248.314 19.12C247.858 19.12 247.454 19.024 247.102 18.832C246.75 18.632 246.474 18.36 246.274 18.016C246.082 17.664 245.986 17.256 245.986 16.792V12.988H246.862V16.612C246.862 17.148 247.014 17.572 247.318 17.884C247.622 18.188 248.03 18.34 248.542 18.34C248.902 18.34 249.222 18.26 249.502 18.1C249.79 17.932 250.022 17.7 250.198 17.404V12.988H251.086V19H250.198V18.304C249.726 18.848 249.098 19.12 248.314 19.12ZM252.596 19V12.988H253.484V13.696C253.956 13.144 254.588 12.868 255.38 12.868C255.836 12.868 256.236 12.968 256.58 13.168C256.932 13.36 257.204 13.632 257.396 13.984C257.596 14.328 257.696 14.732 257.696 15.196V19H256.82V15.376C256.82 14.84 256.668 14.42 256.364 14.116C256.068 13.804 255.66 13.648 255.14 13.648C254.78 13.648 254.46 13.728 254.18 13.888C253.9 14.048 253.668 14.276 253.484 14.572V19H252.596ZM261.37 19.12C260.85 19.12 260.45 18.996 260.17 18.748C259.89 18.5 259.75 18.14 259.75 17.668V13.744H258.454V12.988H259.75V11.464L260.626 11.236V12.988H262.438V13.744H260.626V17.44C260.626 17.76 260.698 17.992 260.842 18.136C260.986 18.272 261.222 18.34 261.55 18.34C261.718 18.34 261.866 18.328 261.994 18.304C262.13 18.28 262.274 18.24 262.426 18.184V18.964C262.274 19.02 262.102 19.06 261.91 19.084C261.726 19.108 261.546 19.12 261.37 19.12ZM265.967 19V12.988H266.855V13.696C267.327 13.144 267.959 12.868 268.751 12.868C269.207 12.868 269.607 12.968 269.951 13.168C270.303 13.36 270.575 13.632 270.767 13.984C270.967 14.328 271.067 14.732 271.067 15.196V19H270.191V15.376C270.191 14.84 270.039 14.42 269.735 14.116C269.439 13.804 269.031 13.648 268.511 13.648C268.151 13.648 267.831 13.728 267.551 13.888C267.271 14.048 267.039 14.276 266.855 14.572V19H265.967ZM274.798 19.12C274.342 19.12 273.938 19.024 273.586 18.832C273.234 18.632 272.958 18.36 272.758 18.016C272.566 17.664 272.47 17.256 272.47 16.792V12.988H273.346V16.612C273.346 17.148 273.498 17.572 273.802 17.884C274.106 18.188 274.514 18.34 275.026 18.34C275.386 18.34 275.706 18.26 275.986 18.1C276.274 17.932 276.506 17.7 276.682 17.404V12.988H277.57V19H276.682V18.304C276.21 18.848 275.582 19.12 274.798 19.12ZM279.08 19V12.988H279.968V13.648C280.424 13.128 281.012 12.868 281.732 12.868C282.156 12.868 282.532 12.968 282.86 13.168C283.188 13.36 283.444 13.624 283.628 13.96C283.876 13.592 284.172 13.32 284.516 13.144C284.86 12.96 285.252 12.868 285.692 12.868C286.132 12.868 286.516 12.968 286.844 13.168C287.172 13.36 287.428 13.632 287.612 13.984C287.804 14.328 287.9 14.732 287.9 15.196V19H287.024V15.376C287.024 14.84 286.884 14.42 286.604 14.116C286.324 13.804 285.944 13.648 285.464 13.648C285.136 13.648 284.836 13.732 284.564 13.9C284.292 14.06 284.06 14.304 283.868 14.632C283.884 14.72 283.896 14.812 283.904 14.908C283.92 14.996 283.928 15.092 283.928 15.196V19H283.052V15.376C283.052 14.84 282.912 14.42 282.632 14.116C282.352 13.804 281.976 13.648 281.504 13.648C281.184 13.648 280.892 13.724 280.628 13.876C280.372 14.02 280.152 14.236 279.968 14.524V19H279.08ZM289.393 19V10.6L290.281 10.396V13.624C290.793 13.136 291.437 12.892 292.213 12.892C292.781 12.892 293.293 13.032 293.749 13.312C294.205 13.584 294.565 13.952 294.829 14.416C295.101 14.88 295.237 15.404 295.237 15.988C295.237 16.572 295.101 17.1 294.829 17.572C294.565 18.036 294.205 18.408 293.749 18.688C293.293 18.96 292.777 19.096 292.201 19.096C291.849 19.096 291.505 19.036 291.169 18.916C290.841 18.796 290.541 18.624 290.269 18.4V19H289.393ZM292.129 18.316C292.553 18.316 292.933 18.216 293.269 18.016C293.605 17.808 293.869 17.532 294.061 17.188C294.261 16.836 294.361 16.44 294.361 16C294.361 15.56 294.261 15.164 294.061 14.812C293.869 14.46 293.605 14.184 293.269 13.984C292.933 13.776 292.553 13.672 292.129 13.672C291.753 13.672 291.401 13.748 291.073 13.9C290.753 14.044 290.489 14.248 290.281 14.512V17.488C290.489 17.744 290.757 17.948 291.085 18.1C291.413 18.244 291.761 18.316 292.129 18.316ZM299.291 19.108C298.715 19.108 298.191 18.972 297.719 18.7C297.255 18.42 296.883 18.044 296.603 17.572C296.331 17.1 296.195 16.572 296.195 15.988C296.195 15.412 296.327 14.892 296.591 14.428C296.855 13.956 297.211 13.584 297.659 13.312C298.107 13.032 298.607 12.892 299.159 12.892C299.695 12.892 300.175 13.032 300.599 13.312C301.031 13.584 301.371 13.956 301.619 14.428C301.875 14.892 302.003 15.412 302.003 15.988V16.264H297.071C297.119 16.656 297.243 17.008 297.443 17.32C297.651 17.632 297.919 17.88 298.247 18.064C298.575 18.24 298.935 18.328 299.327 18.328C299.639 18.328 299.943 18.28 300.239 18.184C300.535 18.088 300.783 17.952 300.983 17.776L301.535 18.364C301.199 18.612 300.847 18.8 300.479 18.928C300.119 19.048 299.723 19.108 299.291 19.108ZM297.095 15.556H301.115C301.067 15.196 300.947 14.876 300.755 14.596C300.571 14.308 300.339 14.084 300.059 13.924C299.779 13.756 299.471 13.672 299.135 13.672C298.791 13.672 298.475 13.752 298.187 13.912C297.899 14.072 297.659 14.296 297.467 14.584C297.275 14.864 297.151 15.188 297.095 15.556ZM303.244 19V12.988H304.132V13.84C304.316 13.528 304.548 13.288 304.828 13.12C305.116 12.944 305.444 12.856 305.812 12.856C306.02 12.856 306.208 12.884 306.376 12.94V13.756C306.272 13.716 306.168 13.688 306.064 13.672C305.96 13.656 305.856 13.648 305.752 13.648C305.384 13.648 305.06 13.756 304.78 13.972C304.508 14.18 304.292 14.484 304.132 14.884V19H303.244ZM311.075 19L309.383 12.988H310.259L311.555 17.788L313.055 12.988H313.847L315.335 17.788L316.643 12.988H317.483L315.779 19H314.927L313.439 14.188L311.939 19H311.075ZM318.408 19V12.988H319.296V19H318.408ZM318.852 11.836C318.692 11.836 318.552 11.776 318.432 11.656C318.312 11.536 318.252 11.396 318.252 11.236C318.252 11.068 318.312 10.928 318.432 10.816C318.552 10.696 318.692 10.636 318.852 10.636C319.02 10.636 319.16 10.696 319.272 10.816C319.392 10.928 319.452 11.068 319.452 11.236C319.452 11.396 319.392 11.536 319.272 11.656C319.16 11.776 319.02 11.836 318.852 11.836ZM320.811 19V10.6L321.699 10.396V19H320.811ZM323.213 19V10.6L324.101 10.396V19H323.213ZM42.652 33.108C42.212 33.108 41.824 33.032 41.488 32.88C41.16 32.728 40.9 32.516 40.708 32.244C40.524 31.972 40.432 31.656 40.432 31.296C40.432 30.728 40.648 30.28 41.08 29.952C41.512 29.624 42.096 29.46 42.832 29.46C43.48 29.46 44.068 29.596 44.596 29.868V29.076C44.596 28.596 44.46 28.236 44.188 27.996C43.916 27.748 43.52 27.624 43 27.624C42.704 27.624 42.404 27.668 42.1 27.756C41.804 27.836 41.476 27.968 41.116 28.152L40.78 27.468C41.212 27.26 41.612 27.108 41.98 27.012C42.348 26.916 42.716 26.868 43.084 26.868C43.844 26.868 44.428 27.048 44.836 27.408C45.252 27.768 45.46 28.284 45.46 28.956V33H44.596V32.412C44.324 32.644 44.024 32.82 43.696 32.94C43.376 33.052 43.028 33.108 42.652 33.108ZM41.284 31.272C41.284 31.608 41.424 31.884 41.704 32.1C41.992 32.308 42.36 32.412 42.808 32.412C43.168 32.412 43.496 32.356 43.792 32.244C44.088 32.132 44.356 31.956 44.596 31.716V30.588C44.348 30.42 44.084 30.3 43.804 30.228C43.524 30.148 43.208 30.108 42.856 30.108C42.376 30.108 41.992 30.216 41.704 30.432C41.424 30.64 41.284 30.92 41.284 31.272ZM49.1889 33.12C48.7329 33.12 48.3289 33.024 47.9769 32.832C47.6249 32.632 47.3489 32.36 47.1489 32.016C46.9569 31.664 46.8609 31.256 46.8609 30.792V26.988H47.7369V30.612C47.7369 31.148 47.8889 31.572 48.1929 31.884C48.4969 32.188 48.9049 32.34 49.4169 32.34C49.7769 32.34 50.0969 32.26 50.3769 32.1C50.6649 31.932 50.8969 31.7 51.0729 31.404V26.988H51.9609V33H51.0729V32.304C50.6009 32.848 49.9729 33.12 49.1889 33.12ZM55.8348 33.12C55.3148 33.12 54.9148 32.996 54.6348 32.748C54.3548 32.5 54.2148 32.14 54.2148 31.668V27.744H52.9188V26.988H54.2148V25.464L55.0908 25.236V26.988H56.9028V27.744H55.0908V31.44C55.0908 31.76 55.1628 31.992 55.3068 32.136C55.4508 32.272 55.6868 32.34 56.0148 32.34C56.1828 32.34 56.3308 32.328 56.4588 32.304C56.5948 32.28 56.7388 32.24 56.8908 32.184V32.964C56.7388 33.02 56.5668 33.06 56.3748 33.084C56.1908 33.108 56.0108 33.12 55.8348 33.12ZM60.5325 33.12C59.9645 33.12 59.4445 32.984 58.9725 32.712C58.5085 32.432 58.1405 32.056 57.8685 31.584C57.5965 31.112 57.4605 30.584 57.4605 30C57.4605 29.416 57.5965 28.888 57.8685 28.416C58.1405 27.944 58.5085 27.572 58.9725 27.3C59.4445 27.02 59.9645 26.88 60.5325 26.88C61.1085 26.88 61.6285 27.02 62.0925 27.3C62.5565 27.572 62.9245 27.944 63.1965 28.416C63.4685 28.888 63.6045 29.416 63.6045 30C63.6045 30.584 63.4685 31.112 63.1965 31.584C62.9245 32.056 62.5565 32.432 62.0925 32.712C61.6285 32.984 61.1085 33.12 60.5325 33.12ZM60.5325 32.328C60.9405 32.328 61.3085 32.224 61.6365 32.016C61.9725 31.808 62.2365 31.528 62.4285 31.176C62.6285 30.824 62.7285 30.432 62.7285 30C62.7285 29.56 62.6285 29.168 62.4285 28.824C62.2365 28.472 61.9725 28.192 61.6365 27.984C61.3085 27.776 60.9405 27.672 60.5325 27.672C60.1245 27.672 59.7525 27.776 59.4165 27.984C59.0885 28.192 58.8245 28.472 58.6245 28.824C58.4325 29.168 58.3365 29.56 58.3365 30C58.3365 30.432 58.4325 30.824 58.6245 31.176C58.8245 31.528 59.0885 31.808 59.4165 32.016C59.7525 32.224 60.1245 32.328 60.5325 32.328ZM64.838 33V26.988H65.726V27.648C66.182 27.128 66.77 26.868 67.49 26.868C67.914 26.868 68.29 26.968 68.618 27.168C68.946 27.36 69.202 27.624 69.386 27.96C69.634 27.592 69.93 27.32 70.274 27.144C70.618 26.96 71.01 26.868 71.45 26.868C71.89 26.868 72.274 26.968 72.602 27.168C72.93 27.36 73.186 27.632 73.37 27.984C73.562 28.328 73.658 28.732 73.658 29.196V33H72.782V29.376C72.782 28.84 72.642 28.42 72.362 28.116C72.082 27.804 71.702 27.648 71.222 27.648C70.894 27.648 70.594 27.732 70.322 27.9C70.05 28.06 69.818 28.304 69.626 28.632C69.642 28.72 69.654 28.812 69.662 28.908C69.678 28.996 69.686 29.092 69.686 29.196V33H68.81V29.376C68.81 28.84 68.67 28.42 68.39 28.116C68.11 27.804 67.734 27.648 67.262 27.648C66.942 27.648 66.65 27.724 66.386 27.876C66.13 28.02 65.91 28.236 65.726 28.524V33H64.838ZM77.0465 33.108C76.6065 33.108 76.2185 33.032 75.8825 32.88C75.5545 32.728 75.2945 32.516 75.1025 32.244C74.9185 31.972 74.8265 31.656 74.8265 31.296C74.8265 30.728 75.0425 30.28 75.4745 29.952C75.9065 29.624 76.4905 29.46 77.2265 29.46C77.8745 29.46 78.4625 29.596 78.9905 29.868V29.076C78.9905 28.596 78.8545 28.236 78.5825 27.996C78.3105 27.748 77.9145 27.624 77.3945 27.624C77.0985 27.624 76.7985 27.668 76.4945 27.756C76.1985 27.836 75.8705 27.968 75.5105 28.152L75.1745 27.468C75.6065 27.26 76.0065 27.108 76.3745 27.012C76.7425 26.916 77.1105 26.868 77.4785 26.868C78.2385 26.868 78.8225 27.048 79.2305 27.408C79.6465 27.768 79.8545 28.284 79.8545 28.956V33H78.9905V32.412C78.7185 32.644 78.4185 32.82 78.0905 32.94C77.7705 33.052 77.4225 33.108 77.0465 33.108ZM75.6785 31.272C75.6785 31.608 75.8185 31.884 76.0985 32.1C76.3865 32.308 76.7545 32.412 77.2025 32.412C77.5625 32.412 77.8905 32.356 78.1865 32.244C78.4825 32.132 78.7505 31.956 78.9905 31.716V30.588C78.7425 30.42 78.4785 30.3 78.1985 30.228C77.9185 30.148 77.6025 30.108 77.2505 30.108C76.7705 30.108 76.3865 30.216 76.0985 30.432C75.8185 30.64 75.6785 30.92 75.6785 31.272ZM83.5263 33.12C83.0063 33.12 82.6063 32.996 82.3263 32.748C82.0463 32.5 81.9062 32.14 81.9062 31.668V27.744H80.6103V26.988H81.9062V25.464L82.7823 25.236V26.988H84.5943V27.744H82.7823V31.44C82.7823 31.76 82.8543 31.992 82.9983 32.136C83.1423 32.272 83.3783 32.34 83.7063 32.34C83.8743 32.34 84.0223 32.328 84.1503 32.304C84.2863 32.28 84.4303 32.24 84.5823 32.184V32.964C84.4303 33.02 84.2583 33.06 84.0663 33.084C83.8823 33.108 83.7023 33.12 83.5263 33.12ZM85.5451 33V26.988H86.4331V33H85.5451ZM85.9891 25.836C85.8291 25.836 85.6891 25.776 85.5691 25.656C85.4491 25.536 85.3891 25.396 85.3891 25.236C85.3891 25.068 85.4491 24.928 85.5691 24.816C85.6891 24.696 85.8291 24.636 85.9891 24.636C86.1571 24.636 86.2971 24.696 86.4091 24.816C86.5291 24.928 86.5891 25.068 86.5891 25.236C86.5891 25.396 86.5291 25.536 86.4091 25.656C86.2971 25.776 86.1571 25.836 85.9891 25.836ZM90.7314 33.108C90.1634 33.108 89.6474 32.972 89.1834 32.7C88.7194 32.42 88.3514 32.044 88.0794 31.572C87.8074 31.1 87.6714 30.572 87.6714 29.988C87.6714 29.404 87.8074 28.88 88.0794 28.416C88.3514 27.944 88.7194 27.568 89.1834 27.288C89.6474 27.008 90.1634 26.868 90.7314 26.868C91.1714 26.868 91.5954 26.952 92.0034 27.12C92.4114 27.28 92.7714 27.512 93.0834 27.816L92.5194 28.464C92.2794 28.208 92.0034 28.016 91.6914 27.888C91.3874 27.752 91.0714 27.684 90.7434 27.684C90.3354 27.684 89.9634 27.788 89.6274 27.996C89.2994 28.196 89.0354 28.472 88.8354 28.824C88.6434 29.168 88.5474 29.556 88.5474 29.988C88.5474 30.42 88.6434 30.812 88.8354 31.164C89.0354 31.516 89.3034 31.796 89.6394 32.004C89.9754 32.204 90.3474 32.304 90.7554 32.304C91.0834 32.304 91.3914 32.24 91.6794 32.112C91.9754 31.984 92.2514 31.796 92.5074 31.548L93.0594 32.148C92.7394 32.452 92.3794 32.688 91.9794 32.856C91.5794 33.024 91.1634 33.108 90.7314 33.108ZM95.9958 33.108C95.5558 33.108 95.1678 33.032 94.8318 32.88C94.5038 32.728 94.2438 32.516 94.0518 32.244C93.8678 31.972 93.7758 31.656 93.7758 31.296C93.7758 30.728 93.9918 30.28 94.4238 29.952C94.8558 29.624 95.4398 29.46 96.1758 29.46C96.8238 29.46 97.4118 29.596 97.9398 29.868V29.076C97.9398 28.596 97.8038 28.236 97.5318 27.996C97.2598 27.748 96.8638 27.624 96.3438 27.624C96.0478 27.624 95.7478 27.668 95.4438 27.756C95.1478 27.836 94.8198 27.968 94.4598 28.152L94.1238 27.468C94.5558 27.26 94.9558 27.108 95.3238 27.012C95.6918 26.916 96.0598 26.868 96.4277 26.868C97.1878 26.868 97.7718 27.048 98.1798 27.408C98.5958 27.768 98.8038 28.284 98.8038 28.956V33H97.9398V32.412C97.6678 32.644 97.3678 32.82 97.0398 32.94C96.7198 33.052 96.3718 33.108 95.9958 33.108ZM94.6278 31.272C94.6278 31.608 94.7678 31.884 95.0478 32.1C95.3358 32.308 95.7038 32.412 96.1518 32.412C96.5118 32.412 96.8398 32.356 97.1358 32.244C97.4318 32.132 97.6998 31.956 97.9398 31.716V30.588C97.6918 30.42 97.4278 30.3 97.1478 30.228C96.8678 30.148 96.5518 30.108 96.1998 30.108C95.7198 30.108 95.3358 30.216 95.0478 30.432C94.7678 30.64 94.6278 30.92 94.6278 31.272ZM100.287 33V24.6L101.175 24.396V33H100.287ZM102.69 33V24.6L103.578 24.396V33H102.69ZM105.344 35.568C105.232 35.568 105.124 35.56 105.02 35.544C104.924 35.536 104.844 35.524 104.78 35.508V34.704C104.916 34.736 105.084 34.752 105.284 34.752C105.812 34.752 106.212 34.44 106.484 33.816L106.844 32.988L104.396 26.988H105.38L107.324 31.92L109.424 26.988H110.384L107.384 33.936C107.216 34.32 107.036 34.632 106.844 34.872C106.652 35.112 106.432 35.288 106.184 35.4C105.944 35.512 105.664 35.568 105.344 35.568ZM116.151 33.12C115.631 33.12 115.231 32.996 114.951 32.748C114.671 32.5 114.531 32.14 114.531 31.668V27.744H113.235V26.988H114.531V25.464L115.407 25.236V26.988H117.219V27.744H115.407V31.44C115.407 31.76 115.479 31.992 115.623 32.136C115.767 32.272 116.003 32.34 116.331 32.34C116.499 32.34 116.647 32.328 116.775 32.304C116.911 32.28 117.055 32.24 117.207 32.184V32.964C117.055 33.02 116.883 33.06 116.691 33.084C116.507 33.108 116.327 33.12 116.151 33.12ZM120.849 33.12C120.281 33.12 119.761 32.984 119.289 32.712C118.825 32.432 118.457 32.056 118.185 31.584C117.913 31.112 117.777 30.584 117.777 30C117.777 29.416 117.913 28.888 118.185 28.416C118.457 27.944 118.825 27.572 119.289 27.3C119.761 27.02 120.281 26.88 120.849 26.88C121.425 26.88 121.945 27.02 122.409 27.3C122.873 27.572 123.241 27.944 123.513 28.416C123.785 28.888 123.921 29.416 123.921 30C123.921 30.584 123.785 31.112 123.513 31.584C123.241 32.056 122.873 32.432 122.409 32.712C121.945 32.984 121.425 33.12 120.849 33.12ZM120.849 32.328C121.257 32.328 121.625 32.224 121.953 32.016C122.289 31.808 122.553 31.528 122.745 31.176C122.945 30.824 123.045 30.432 123.045 30C123.045 29.56 122.945 29.168 122.745 28.824C122.553 28.472 122.289 28.192 121.953 27.984C121.625 27.776 121.257 27.672 120.849 27.672C120.441 27.672 120.069 27.776 119.733 27.984C119.405 28.192 119.141 28.472 118.941 28.824C118.749 29.168 118.653 29.56 118.653 30C118.653 30.432 118.749 30.824 118.941 31.176C119.141 31.528 119.405 31.808 119.733 32.016C120.069 32.224 120.441 32.328 120.849 32.328ZM125.154 35.448V26.988H126.03V27.636C126.55 27.14 127.198 26.892 127.974 26.892C128.542 26.892 129.054 27.032 129.51 27.312C129.966 27.584 130.326 27.952 130.59 28.416C130.862 28.88 130.998 29.404 130.998 29.988C130.998 30.572 130.862 31.1 130.59 31.572C130.326 32.036 129.966 32.408 129.51 32.688C129.054 32.96 128.538 33.096 127.962 33.096C127.61 33.096 127.27 33.036 126.942 32.916C126.614 32.796 126.314 32.624 126.042 32.4V35.448H125.154ZM127.89 32.316C128.314 32.316 128.694 32.216 129.03 32.016C129.366 31.808 129.63 31.532 129.822 31.188C130.022 30.836 130.122 30.44 130.122 30C130.122 29.56 130.022 29.164 129.822 28.812C129.63 28.46 129.366 28.184 129.03 27.984C128.694 27.776 128.314 27.672 127.89 27.672C127.514 27.672 127.162 27.748 126.834 27.9C126.514 28.044 126.25 28.248 126.042 28.512V31.488C126.25 31.744 126.518 31.948 126.846 32.1C127.174 32.244 127.522 32.316 127.89 32.316ZM137.115 33.12C136.659 33.12 136.255 33.024 135.903 32.832C135.551 32.632 135.275 32.36 135.075 32.016C134.883 31.664 134.787 31.256 134.787 30.792V26.988H135.663V30.612C135.663 31.148 135.815 31.572 136.119 31.884C136.423 32.188 136.831 32.34 137.343 32.34C137.703 32.34 138.023 32.26 138.303 32.1C138.591 31.932 138.823 31.7 138.999 31.404V26.988H139.887V33H138.999V32.304C138.527 32.848 137.899 33.12 137.115 33.12ZM141.397 35.448V26.988H142.273V27.636C142.793 27.14 143.441 26.892 144.217 26.892C144.785 26.892 145.297 27.032 145.753 27.312C146.209 27.584 146.569 27.952 146.833 28.416C147.105 28.88 147.241 29.404 147.241 29.988C147.241 30.572 147.105 31.1 146.833 31.572C146.569 32.036 146.209 32.408 145.753 32.688C145.297 32.96 144.781 33.096 144.205 33.096C143.853 33.096 143.513 33.036 143.185 32.916C142.857 32.796 142.557 32.624 142.285 32.4V35.448H141.397ZM144.133 32.316C144.557 32.316 144.937 32.216 145.273 32.016C145.609 31.808 145.873 31.532 146.065 31.188C146.265 30.836 146.365 30.44 146.365 30C146.365 29.56 146.265 29.164 146.065 28.812C145.873 28.46 145.609 28.184 145.273 27.984C144.937 27.776 144.557 27.672 144.133 27.672C143.757 27.672 143.405 27.748 143.077 27.9C142.757 28.044 142.493 28.248 142.285 28.512V31.488C142.493 31.744 142.761 31.948 143.089 32.1C143.417 32.244 143.765 32.316 144.133 32.316ZM151.305 35.568C151.193 35.568 151.085 35.56 150.981 35.544C150.885 35.536 150.805 35.524 150.741 35.508V34.704C150.877 34.736 151.045 34.752 151.245 34.752C151.773 34.752 152.173 34.44 152.445 33.816L152.805 32.988L150.357 26.988H151.341L153.285 31.92L155.385 26.988H156.345L153.345 33.936C153.177 34.32 152.997 34.632 152.805 34.872C152.613 35.112 152.393 35.288 152.145 35.4C151.905 35.512 151.625 35.568 151.305 35.568ZM159.79 33.12C159.222 33.12 158.702 32.984 158.23 32.712C157.766 32.432 157.398 32.056 157.126 31.584C156.854 31.112 156.718 30.584 156.718 30C156.718 29.416 156.854 28.888 157.126 28.416C157.398 27.944 157.766 27.572 158.23 27.3C158.702 27.02 159.222 26.88 159.79 26.88C160.366 26.88 160.886 27.02 161.35 27.3C161.814 27.572 162.182 27.944 162.454 28.416C162.726 28.888 162.862 29.416 162.862 30C162.862 30.584 162.726 31.112 162.454 31.584C162.182 32.056 161.814 32.432 161.35 32.712C160.886 32.984 160.366 33.12 159.79 33.12ZM159.79 32.328C160.198 32.328 160.566 32.224 160.894 32.016C161.23 31.808 161.494 31.528 161.686 31.176C161.886 30.824 161.986 30.432 161.986 30C161.986 29.56 161.886 29.168 161.686 28.824C161.494 28.472 161.23 28.192 160.894 27.984C160.566 27.776 160.198 27.672 159.79 27.672C159.382 27.672 159.01 27.776 158.674 27.984C158.346 28.192 158.082 28.472 157.882 28.824C157.69 29.168 157.594 29.56 157.594 30C157.594 30.432 157.69 30.824 157.882 31.176C158.082 31.528 158.346 31.808 158.674 32.016C159.01 32.224 159.382 32.328 159.79 32.328ZM166.4 33.12C165.944 33.12 165.54 33.024 165.188 32.832C164.836 32.632 164.56 32.36 164.36 32.016C164.168 31.664 164.072 31.256 164.072 30.792V26.988H164.948V30.612C164.948 31.148 165.1 31.572 165.404 31.884C165.708 32.188 166.116 32.34 166.628 32.34C166.988 32.34 167.308 32.26 167.588 32.1C167.876 31.932 168.108 31.7 168.284 31.404V26.988H169.172V33H168.284V32.304C167.812 32.848 167.184 33.12 166.4 33.12ZM170.682 33V26.988H171.57V27.84C171.754 27.528 171.986 27.288 172.266 27.12C172.554 26.944 172.882 26.856 173.25 26.856C173.458 26.856 173.646 26.884 173.814 26.94V27.756C173.71 27.716 173.606 27.688 173.502 27.672C173.398 27.656 173.294 27.648 173.19 27.648C172.822 27.648 172.498 27.756 172.218 27.972C171.946 28.18 171.73 28.484 171.57 28.884V33H170.682ZM179.892 33V25.428H176.856V24.6H183.852V25.428H180.816V33H179.892ZM186.264 33.108C185.688 33.108 185.164 32.972 184.692 32.7C184.228 32.42 183.856 32.044 183.576 31.572C183.304 31.1 183.168 30.572 183.168 29.988C183.168 29.412 183.3 28.892 183.564 28.428C183.828 27.956 184.184 27.584 184.632 27.312C185.08 27.032 185.58 26.892 186.132 26.892C186.668 26.892 187.148 27.032 187.572 27.312C188.004 27.584 188.344 27.956 188.592 28.428C188.848 28.892 188.976 29.412 188.976 29.988V30.264H184.044C184.092 30.656 184.216 31.008 184.416 31.32C184.624 31.632 184.892 31.88 185.22 32.064C185.548 32.24 185.908 32.328 186.3 32.328C186.612 32.328 186.916 32.28 187.212 32.184C187.508 32.088 187.756 31.952 187.956 31.776L188.508 32.364C188.172 32.612 187.82 32.8 187.452 32.928C187.092 33.048 186.696 33.108 186.264 33.108ZM184.068 29.556H188.088C188.04 29.196 187.92 28.876 187.728 28.596C187.544 28.308 187.312 28.084 187.032 27.924C186.752 27.756 186.444 27.672 186.108 27.672C185.764 27.672 185.448 27.752 185.16 27.912C184.872 28.072 184.632 28.296 184.44 28.584C184.248 28.864 184.124 29.188 184.068 29.556ZM190.217 33V24.6L191.105 24.396V33H190.217ZM192.619 33V24.6L193.507 24.396V33H192.619ZM196.918 33.108C196.478 33.108 196.09 33.032 195.754 32.88C195.426 32.728 195.166 32.516 194.974 32.244C194.79 31.972 194.698 31.656 194.698 31.296C194.698 30.728 194.914 30.28 195.346 29.952C195.778 29.624 196.362 29.46 197.098 29.46C197.746 29.46 198.334 29.596 198.862 29.868V29.076C198.862 28.596 198.726 28.236 198.454 27.996C198.182 27.748 197.786 27.624 197.266 27.624C196.97 27.624 196.67 27.668 196.366 27.756C196.07 27.836 195.742 27.968 195.382 28.152L195.046 27.468C195.478 27.26 195.878 27.108 196.246 27.012C196.614 26.916 196.982 26.868 197.35 26.868C198.11 26.868 198.694 27.048 199.102 27.408C199.518 27.768 199.726 28.284 199.726 28.956V33H198.862V32.412C198.59 32.644 198.29 32.82 197.962 32.94C197.642 33.052 197.294 33.108 196.918 33.108ZM195.55 31.272C195.55 31.608 195.69 31.884 195.97 32.1C196.258 32.308 196.626 32.412 197.074 32.412C197.434 32.412 197.762 32.356 198.058 32.244C198.354 32.132 198.622 31.956 198.862 31.716V30.588C198.614 30.42 198.35 30.3 198.07 30.228C197.79 30.148 197.474 30.108 197.122 30.108C196.642 30.108 196.258 30.216 195.97 30.432C195.69 30.64 195.55 30.92 195.55 31.272ZM206.271 33V25.428H203.235V24.6H210.231V25.428H207.195V33H206.271ZM210.596 33V26.988H211.484V27.84C211.668 27.528 211.9 27.288 212.18 27.12C212.468 26.944 212.796 26.856 213.164 26.856C213.372 26.856 213.56 26.884 213.728 26.94V27.756C213.624 27.716 213.52 27.688 213.416 27.672C213.312 27.656 213.208 27.648 213.104 27.648C212.736 27.648 212.412 27.756 212.132 27.972C211.86 28.18 211.644 28.484 211.484 28.884V33H210.596ZM216.931 33.12C216.475 33.12 216.071 33.024 215.719 32.832C215.367 32.632 215.091 32.36 214.891 32.016C214.699 31.664 214.603 31.256 214.603 30.792V26.988H215.479V30.612C215.479 31.148 215.631 31.572 215.935 31.884C216.239 32.188 216.647 32.34 217.159 32.34C217.519 32.34 217.839 32.26 218.119 32.1C218.407 31.932 218.639 31.7 218.815 31.404V26.988H219.703V33H218.815V32.304C218.343 32.848 217.715 33.12 216.931 33.12ZM223.133 33.12C222.637 33.12 222.169 33.04 221.729 32.88C221.297 32.712 220.921 32.48 220.601 32.184L221.141 31.608C221.421 31.864 221.729 32.064 222.065 32.208C222.401 32.344 222.745 32.412 223.097 32.412C223.577 32.412 223.969 32.312 224.273 32.112C224.577 31.912 224.729 31.652 224.729 31.332C224.729 31.068 224.637 30.864 224.453 30.72C224.277 30.568 223.997 30.464 223.613 30.408L222.569 30.264C221.969 30.176 221.521 29.996 221.225 29.724C220.937 29.452 220.793 29.084 220.793 28.62C220.793 28.284 220.889 27.984 221.081 27.72C221.273 27.456 221.537 27.248 221.873 27.096C222.217 26.944 222.609 26.868 223.049 26.868C223.489 26.868 223.901 26.932 224.285 27.06C224.669 27.188 225.045 27.388 225.413 27.66L224.945 28.26C224.609 28.028 224.281 27.86 223.961 27.756C223.649 27.644 223.329 27.588 223.001 27.588C222.585 27.588 222.249 27.68 221.993 27.864C221.737 28.048 221.609 28.288 221.609 28.584C221.609 28.856 221.697 29.064 221.873 29.208C222.049 29.344 222.333 29.44 222.725 29.496L223.769 29.64C224.369 29.72 224.817 29.896 225.113 30.168C225.417 30.44 225.569 30.812 225.569 31.284C225.569 31.628 225.461 31.94 225.245 32.22C225.029 32.5 224.737 32.72 224.369 32.88C224.009 33.04 223.597 33.12 223.133 33.12ZM228.815 33.12C228.295 33.12 227.895 32.996 227.615 32.748C227.335 32.5 227.195 32.14 227.195 31.668V27.744H225.899V26.988H227.195V25.464L228.071 25.236V26.988H229.883V27.744H228.071V31.44C228.071 31.76 228.143 31.992 228.287 32.136C228.431 32.272 228.667 32.34 228.995 32.34C229.163 32.34 229.311 32.328 229.439 32.304C229.575 32.28 229.719 32.24 229.871 32.184V32.964C229.719 33.02 229.547 33.06 229.355 33.084C229.171 33.108 228.991 33.12 228.815 33.12ZM234.888 33L233.076 24.6H234.012L235.44 31.536L237.516 24.6H238.416L240.492 31.512L241.932 24.6H242.832L241.02 33H240.084L237.96 25.884L235.824 33H234.888ZM245.351 33.108C244.911 33.108 244.523 33.032 244.187 32.88C243.859 32.728 243.599 32.516 243.407 32.244C243.223 31.972 243.131 31.656 243.131 31.296C243.131 30.728 243.347 30.28 243.779 29.952C244.211 29.624 244.795 29.46 245.531 29.46C246.179 29.46 246.767 29.596 247.295 29.868V29.076C247.295 28.596 247.159 28.236 246.887 27.996C246.615 27.748 246.219 27.624 245.699 27.624C245.403 27.624 245.103 27.668 244.799 27.756C244.503 27.836 244.175 27.968 243.815 28.152L243.479 27.468C243.911 27.26 244.311 27.108 244.679 27.012C245.047 26.916 245.415 26.868 245.783 26.868C246.543 26.868 247.127 27.048 247.535 27.408C247.951 27.768 248.159 28.284 248.159 28.956V33H247.295V32.412C247.023 32.644 246.723 32.82 246.395 32.94C246.075 33.052 245.727 33.108 245.351 33.108ZM243.983 31.272C243.983 31.608 244.123 31.884 244.403 32.1C244.691 32.308 245.059 32.412 245.507 32.412C245.867 32.412 246.195 32.356 246.491 32.244C246.787 32.132 247.055 31.956 247.295 31.716V30.588C247.047 30.42 246.783 30.3 246.503 30.228C246.223 30.148 245.907 30.108 245.555 30.108C245.075 30.108 244.691 30.216 244.403 30.432C244.123 30.64 243.983 30.92 243.983 31.272ZM249.643 33V24.6L250.531 24.396V33H249.643ZM252.045 33V24.6L252.933 24.396V33H252.045ZM257.267 33.108C256.691 33.108 256.167 32.972 255.695 32.7C255.231 32.42 254.859 32.044 254.579 31.572C254.307 31.1 254.171 30.572 254.171 29.988C254.171 29.412 254.303 28.892 254.567 28.428C254.831 27.956 255.187 27.584 255.635 27.312C256.083 27.032 256.583 26.892 257.135 26.892C257.671 26.892 258.151 27.032 258.575 27.312C259.007 27.584 259.347 27.956 259.595 28.428C259.851 28.892 259.979 29.412 259.979 29.988V30.264H255.047C255.095 30.656 255.219 31.008 255.419 31.32C255.627 31.632 255.895 31.88 256.223 32.064C256.551 32.24 256.911 32.328 257.303 32.328C257.615 32.328 257.919 32.28 258.215 32.184C258.511 32.088 258.759 31.952 258.959 31.776L259.511 32.364C259.175 32.612 258.823 32.8 258.455 32.928C258.095 33.048 257.699 33.108 257.267 33.108ZM255.071 29.556H259.091C259.043 29.196 258.923 28.876 258.731 28.596C258.547 28.308 258.315 28.084 258.035 27.924C257.755 27.756 257.447 27.672 257.111 27.672C256.767 27.672 256.451 27.752 256.163 27.912C255.875 28.072 255.635 28.296 255.443 28.584C255.251 28.864 255.127 29.188 255.071 29.556ZM263.409 33.12C262.889 33.12 262.489 32.996 262.209 32.748C261.929 32.5 261.789 32.14 261.789 31.668V27.744H260.493V26.988H261.789V25.464L262.665 25.236V26.988H264.477V27.744H262.665V31.44C262.665 31.76 262.737 31.992 262.881 32.136C263.025 32.272 263.261 32.34 263.589 32.34C263.757 32.34 263.905 32.328 264.033 32.304C264.169 32.28 264.313 32.24 264.465 32.184V32.964C264.313 33.02 264.141 33.06 263.949 33.084C263.765 33.108 263.585 33.12 263.409 33.12ZM266.172 33.072C266.004 33.072 265.86 33.012 265.74 32.892C265.62 32.772 265.56 32.628 265.56 32.46C265.56 32.292 265.62 32.148 265.74 32.028C265.86 31.908 266.004 31.848 266.172 31.848C266.34 31.848 266.484 31.908 266.604 32.028C266.724 32.148 266.784 32.292 266.784 32.46C266.784 32.628 266.724 32.772 266.604 32.892C266.484 33.012 266.34 33.072 266.172 33.072Z" fill="#49526A"/>
</svg>
