<svg width="21" height="20" viewBox="0 0 21 20" fill="none" xmlns="http://www.w3.org/2000/svg">
<g id="ICONS SET">
<path id="Vector" d="M6.33317 15V5.87667C6.33311 5.68277 6.39746 5.49435 6.5161 5.34099C6.63475 5.18763 6.80097 5.07802 6.98867 5.02938C7.17636 4.98074 7.3749 4.99582 7.5531 5.07226C7.73129 5.14869 7.87905 5.28215 7.97317 5.45167L13.0265 14.5483C13.1206 14.7179 13.2684 14.8513 13.4466 14.9277C13.6248 15.0042 13.8233 15.0193 14.011 14.9706C14.1987 14.922 14.3649 14.8124 14.4836 14.659C14.6022 14.5057 14.6666 14.3172 14.6665 14.1233V5M4.6665 8.33333H16.3332M4.6665 11.6667H16.3332" stroke="#93E380" stroke-width="2" stroke-linecap="round" stroke-linejoin="round"/>
</g>
</svg>
