<svg width="24" height="24" viewBox="0 0 24 24" fill="none" xmlns="http://www.w3.org/2000/svg">
    <path d="M12.0001 20.4001C13.3256 20.4001 14.4001 19.3256 14.4001 18.0001C14.4001 16.6746 13.3256 15.6001 12.0001 15.6001C10.6746 15.6001 9.6001 16.6746 9.6001 18.0001C9.6001 19.3256 10.6746 20.4001 12.0001 20.4001Z" fill="#828DA9"/>
    <path d="M1.2002 8.8802C2.55152 7.22026 4.21342 5.89082 6.07549 4.9802C7.93756 4.06958 9.95719 3.59863 12.0002 3.59863C14.0432 3.59863 16.0628 4.06958 17.9249 4.9802C19.787 5.89082 21.4489 7.22026 22.8002 8.8802L21.0002 10.5602C19.8741 9.14287 18.4892 8.00773 16.9374 7.2302C15.3857 6.45268 13.7027 6.05055 12.0002 6.05055C10.2977 6.05055 8.61467 6.45268 7.06294 7.2302C5.51121 8.00773 4.1263 9.14287 3.0002 10.5602L1.2002 8.8802ZM5.64019 12.7202C6.42871 11.7456 7.41173 10.9623 8.5206 10.425C9.62948 9.88771 10.8375 9.60933 12.0602 9.60933C13.2829 9.60933 14.4909 9.88771 15.5998 10.425C16.7087 10.9623 17.6917 11.7456 18.4802 12.7202L16.8002 14.4002C16.238 13.6574 15.5256 13.0579 14.7156 12.646C13.9056 12.234 13.0186 12.0202 12.1202 12.0202C11.2218 12.0202 10.3348 12.234 9.52482 12.646C8.71481 13.0579 8.0024 13.6574 7.44019 14.4002L5.64019 12.7202Z" fill="#828DA9"/>
</svg>
