<svg width="343" height="56" viewBox="0 0 343 56" fill="none" xmlns="http://www.w3.org/2000/svg">
<path d="M0 24C0 12.6863 0 7.02944 3.51472 3.51472C7.02944 0 12.6863 0 24 0H319C330.314 0 335.971 0 339.485 3.51472C343 7.02944 343 12.6863 343 24V32C343 43.3137 343 48.9706 339.485 52.4853C335.971 56 330.314 56 319 56H24C12.6863 56 7.02944 56 3.51472 52.4853C0 48.9706 0 43.3137 0 32V24Z" fill="white"/>
<rect y="12" width="32" height="32" rx="16" fill="#F6F8FA"/>
<g clip-path="url(#clip0_1032_7861)">
<path d="M12.3518 36.2418C13.1929 37.311 14.5142 38 16 38C17.4858 38 18.8071 37.311 19.6482 36.2418C17.2264 36.57 14.7736 36.57 12.3518 36.2418Z" fill="#49526A"/>
<path fill-rule="evenodd" clip-rule="evenodd" d="M22.7491 25.7041V25C22.7491 21.134 19.7274 18 16 18C12.2726 18 9.25087 21.134 9.25087 25V25.7041C9.25087 26.5491 9.00972 27.3752 8.5578 28.0782L7.45036 29.8012C6.43882 31.3749 7.21105 33.5139 8.97036 34.0116C13.5727 35.3134 18.4273 35.3134 23.0296 34.0116C24.789 33.5139 25.5612 31.3749 24.5496 29.8012L23.4422 28.0782C22.9903 27.3752 22.7491 26.5491 22.7491 25.7041ZM16 21.25C16.4142 21.25 16.75 21.5858 16.75 22V26C16.75 26.4142 16.4142 26.75 16 26.75C15.5858 26.75 15.25 26.4142 15.25 26V22C15.25 21.5858 15.5858 21.25 16 21.25Z" fill="#49526A"/>
</g>
<path d="M40.994 32.5V22.7H42.422L47.896 29.98V22.7H49.282V32.5H47.994L42.394 24.996V32.5H40.994ZM54.5089 32.64C53.8183 32.64 53.1883 32.4767 52.6189 32.15C52.0589 31.8233 51.6156 31.38 51.2889 30.82C50.9623 30.26 50.7989 29.6347 50.7989 28.944C50.7989 28.2533 50.9623 27.628 51.2889 27.068C51.6156 26.508 52.0589 26.0647 52.6189 25.738C53.1883 25.402 53.8183 25.234 54.5089 25.234C55.2089 25.234 55.8389 25.402 56.3989 25.738C56.9589 26.0647 57.4023 26.508 57.7289 27.068C58.0556 27.628 58.2189 28.2533 58.2189 28.944C58.2189 29.6347 58.0556 30.26 57.7289 30.82C57.4023 31.38 56.9589 31.8233 56.3989 32.15C55.8389 32.4767 55.2089 32.64 54.5089 32.64ZM54.5089 31.408C54.9476 31.408 55.3443 31.3007 55.6989 31.086C56.0536 30.862 56.3336 30.5633 56.5389 30.19C56.7443 29.8167 56.8469 29.3967 56.8469 28.93C56.8469 28.4727 56.7396 28.062 56.5249 27.698C56.3196 27.3247 56.0396 27.026 55.6849 26.802C55.3396 26.578 54.9476 26.466 54.5089 26.466C54.0703 26.466 53.6736 26.578 53.3189 26.802C52.9736 27.026 52.6936 27.3247 52.4789 27.698C52.2736 28.062 52.1709 28.4727 52.1709 28.93C52.1709 29.3967 52.2736 29.8167 52.4789 30.19C52.6843 30.5633 52.9643 30.862 53.3189 31.086C53.6736 31.3007 54.0703 31.408 54.5089 31.408ZM62.1846 32.626C61.494 32.626 60.9666 32.4673 60.6026 32.15C60.2386 31.8233 60.0566 31.352 60.0566 30.736V26.55H58.5446V25.374H60.0566V23.554L61.4426 23.218V25.374H63.5426V26.55H61.4426V30.414C61.4426 30.778 61.522 31.0393 61.6806 31.198C61.8486 31.3473 62.1193 31.422 62.4926 31.422C62.6886 31.422 62.8613 31.408 63.0106 31.38C63.1693 31.352 63.3373 31.31 63.5146 31.254V32.43C63.328 32.4953 63.1086 32.542 62.8566 32.57C62.614 32.6073 62.39 32.626 62.1846 32.626ZM64.574 32.5V25.374H65.974V32.5H64.574ZM65.274 24.226C65.0407 24.226 64.84 24.142 64.672 23.974C64.504 23.7967 64.42 23.5913 64.42 23.358C64.42 23.1153 64.504 22.9147 64.672 22.756C64.84 22.588 65.0407 22.504 65.274 22.504C65.5167 22.504 65.722 22.588 65.89 22.756C66.058 22.9147 66.142 23.1153 66.142 23.358C66.142 23.5913 66.058 23.7967 65.89 23.974C65.722 24.142 65.5167 24.226 65.274 24.226ZM68.6869 32.5V26.55H67.0349V25.374H68.6869V24.296C68.6869 23.5493 68.8922 22.98 69.3029 22.588C69.7229 22.196 70.3202 22 71.0949 22C71.2909 22 71.4729 22.014 71.6409 22.042C71.8182 22.0607 71.9769 22.0933 72.1169 22.14V23.344C71.9489 23.2973 71.7995 23.2647 71.6689 23.246C71.5382 23.218 71.3935 23.204 71.2349 23.204C70.8429 23.204 70.5489 23.2973 70.3529 23.484C70.1662 23.6613 70.0729 23.946 70.0729 24.338V25.374H72.1169V26.55H70.0729V32.5H68.6869ZM73.1873 32.5V25.374H74.5873V32.5H73.1873ZM73.8873 24.226C73.654 24.226 73.4533 24.142 73.2853 23.974C73.1173 23.7967 73.0333 23.5913 73.0333 23.358C73.0333 23.1153 73.1173 22.9147 73.2853 22.756C73.4533 22.588 73.654 22.504 73.8873 22.504C74.13 22.504 74.3353 22.588 74.5033 22.756C74.6713 22.9147 74.7553 23.1153 74.7553 23.358C74.7553 23.5913 74.6713 23.7967 74.5033 23.974C74.3353 24.142 74.13 24.226 73.8873 24.226ZM79.5822 32.626C78.9008 32.626 78.2802 32.4627 77.7202 32.136C77.1602 31.8093 76.7168 31.366 76.3902 30.806C76.0728 30.246 75.9142 29.6207 75.9142 28.93C75.9142 28.2393 76.0775 27.6187 76.4042 27.068C76.7308 26.508 77.1695 26.0647 77.7202 25.738C78.2802 25.402 78.9008 25.234 79.5822 25.234C80.1235 25.234 80.6415 25.3367 81.1362 25.542C81.6402 25.7473 82.0742 26.0367 82.4382 26.41L81.5702 27.376C81.2995 27.0773 80.9962 26.8533 80.6602 26.704C80.3242 26.5547 79.9742 26.48 79.6102 26.48C79.1808 26.48 78.7888 26.5873 78.4342 26.802C78.0888 27.0167 77.8135 27.3107 77.6082 27.684C77.4028 28.0573 77.3002 28.4727 77.3002 28.93C77.3002 29.3873 77.4028 29.8027 77.6082 30.176C77.8135 30.5493 78.0935 30.848 78.4482 31.072C78.8028 31.2867 79.1995 31.394 79.6382 31.394C80.0022 31.394 80.3428 31.324 80.6602 31.184C80.9775 31.0347 81.2762 30.82 81.5562 30.54L82.4102 31.436C82.0368 31.8187 81.6028 32.1127 81.1082 32.318C80.6228 32.5233 80.1142 32.626 79.5822 32.626ZM85.7909 32.626C85.2776 32.626 84.8249 32.5373 84.4329 32.36C84.0409 32.1733 83.7329 31.9167 83.5089 31.59C83.2849 31.2633 83.1729 30.8853 83.1729 30.456C83.1729 29.784 83.4296 29.2567 83.9429 28.874C84.4563 28.482 85.1609 28.286 86.0569 28.286C86.7569 28.286 87.4056 28.4213 88.0029 28.692V27.936C88.0029 27.4227 87.8536 27.04 87.5549 26.788C87.2656 26.536 86.8363 26.41 86.2669 26.41C85.9403 26.41 85.5996 26.4613 85.2449 26.564C84.8903 26.6573 84.4936 26.8067 84.0549 27.012L83.5369 25.962C84.0783 25.71 84.5823 25.528 85.0489 25.416C85.5156 25.2947 85.9869 25.234 86.4629 25.234C87.3869 25.234 88.1009 25.4533 88.6049 25.892C89.1183 26.3307 89.3749 26.956 89.3749 27.768V32.5H88.0029V31.884C87.6856 32.136 87.3449 32.3227 86.9809 32.444C86.6169 32.5653 86.2203 32.626 85.7909 32.626ZM84.5169 30.428C84.5169 30.7733 84.6616 31.0533 84.9509 31.268C85.2496 31.4733 85.6369 31.576 86.1129 31.576C86.4863 31.576 86.8269 31.5247 87.1349 31.422C87.4523 31.31 87.7416 31.1373 88.0029 30.904V29.7C87.7323 29.5413 87.4476 29.4293 87.1489 29.364C86.8596 29.2893 86.5329 29.252 86.1689 29.252C85.6556 29.252 85.2496 29.3593 84.9509 29.574C84.6616 29.7793 84.5169 30.064 84.5169 30.428ZM93.835 32.626C93.1444 32.626 92.617 32.4673 92.253 32.15C91.889 31.8233 91.707 31.352 91.707 30.736V26.55H90.195V25.374H91.707V23.554L93.093 23.218V25.374H95.193V26.55H93.093V30.414C93.093 30.778 93.1724 31.0393 93.331 31.198C93.499 31.3473 93.7697 31.422 94.143 31.422C94.339 31.422 94.5117 31.408 94.661 31.38C94.8197 31.352 94.9877 31.31 95.165 31.254V32.43C94.9784 32.4953 94.759 32.542 94.507 32.57C94.2644 32.6073 94.0404 32.626 93.835 32.626ZM96.2244 32.5V25.374H97.6244V32.5H96.2244ZM96.9244 24.226C96.6911 24.226 96.4904 24.142 96.3224 23.974C96.1544 23.7967 96.0704 23.5913 96.0704 23.358C96.0704 23.1153 96.1544 22.9147 96.3224 22.756C96.4904 22.588 96.6911 22.504 96.9244 22.504C97.1671 22.504 97.3724 22.588 97.5404 22.756C97.7084 22.9147 97.7924 23.1153 97.7924 23.358C97.7924 23.5913 97.7084 23.7967 97.5404 23.974C97.3724 24.142 97.1671 24.226 96.9244 24.226ZM102.661 32.64C101.971 32.64 101.341 32.4767 100.771 32.15C100.211 31.8233 99.7679 31.38 99.4413 30.82C99.1146 30.26 98.9513 29.6347 98.9513 28.944C98.9513 28.2533 99.1146 27.628 99.4413 27.068C99.7679 26.508 100.211 26.0647 100.771 25.738C101.341 25.402 101.971 25.234 102.661 25.234C103.361 25.234 103.991 25.402 104.551 25.738C105.111 26.0647 105.555 26.508 105.881 27.068C106.208 27.628 106.371 28.2533 106.371 28.944C106.371 29.6347 106.208 30.26 105.881 30.82C105.555 31.38 105.111 31.8233 104.551 32.15C103.991 32.4767 103.361 32.64 102.661 32.64ZM102.661 31.408C103.1 31.408 103.497 31.3007 103.851 31.086C104.206 30.862 104.486 30.5633 104.691 30.19C104.897 29.8167 104.999 29.3967 104.999 28.93C104.999 28.4727 104.892 28.062 104.677 27.698C104.472 27.3247 104.192 27.026 103.837 26.802C103.492 26.578 103.1 26.466 102.661 26.466C102.223 26.466 101.826 26.578 101.471 26.802C101.126 27.026 100.846 27.3247 100.631 27.698C100.426 28.062 100.323 28.4727 100.323 28.93C100.323 29.3967 100.426 29.8167 100.631 30.19C100.837 30.5633 101.117 30.862 101.471 31.086C101.826 31.3007 102.223 31.408 102.661 31.408ZM107.695 32.5V25.374H109.095V26.102C109.646 25.5233 110.36 25.234 111.237 25.234C111.788 25.234 112.268 25.3507 112.679 25.584C113.099 25.8173 113.426 26.144 113.659 26.564C113.902 26.984 114.023 27.4693 114.023 28.02V32.5H112.623V28.258C112.623 27.698 112.464 27.2593 112.147 26.942C111.839 26.6153 111.405 26.452 110.845 26.452C110.472 26.452 110.136 26.5313 109.837 26.69C109.538 26.8487 109.291 27.0773 109.095 27.376V32.5H107.695ZM118.089 32.64C117.473 32.64 116.894 32.5513 116.353 32.374C115.821 32.1873 115.359 31.926 114.967 31.59L115.736 30.666C116.101 30.9553 116.474 31.1793 116.857 31.338C117.249 31.4873 117.645 31.562 118.047 31.562C118.551 31.562 118.961 31.464 119.279 31.268C119.596 31.072 119.755 30.8153 119.755 30.498C119.755 30.2367 119.661 30.0313 119.475 29.882C119.288 29.7327 118.999 29.63 118.607 29.574L117.319 29.392C116.609 29.2893 116.077 29.07 115.723 28.734C115.368 28.398 115.191 27.95 115.191 27.39C115.191 26.9607 115.307 26.5873 115.541 26.27C115.774 25.9433 116.101 25.6913 116.521 25.514C116.941 25.3273 117.431 25.234 117.991 25.234C118.504 25.234 118.999 25.3087 119.475 25.458C119.951 25.6073 120.408 25.8407 120.847 26.158L120.133 27.082C119.741 26.8207 119.358 26.6293 118.985 26.508C118.621 26.3867 118.252 26.326 117.879 26.326C117.449 26.326 117.104 26.4193 116.843 26.606C116.581 26.7833 116.451 27.0167 116.451 27.306C116.451 27.5673 116.539 27.7727 116.717 27.922C116.903 28.062 117.207 28.16 117.627 28.216L118.915 28.398C119.624 28.5007 120.161 28.72 120.525 29.056C120.889 29.3827 121.071 29.826 121.071 30.386C121.071 30.8153 120.94 31.2027 120.679 31.548C120.417 31.884 120.063 32.15 119.615 32.346C119.167 32.542 118.658 32.64 118.089 32.64Z" fill="#050505"/>
<path fill-rule="evenodd" clip-rule="evenodd" d="M328.675 22.9544C328.884 22.7747 329.2 22.7989 329.38 23.0086L333.38 27.6753C333.54 27.8625 333.54 28.1388 333.38 28.3261L329.38 32.9927C329.2 33.2024 328.884 33.2267 328.675 33.047C328.465 32.8672 328.441 32.5516 328.62 32.3419L332.341 28.0007L328.62 23.6594C328.441 23.4497 328.465 23.1341 328.675 22.9544Z" fill="#CCD0DC"/>
<defs>
<clipPath id="clip0_1032_7861">
<rect x="4" y="16" width="24" height="24" rx="8" fill="white"/>
</clipPath>
</defs>
</svg>
