<svg width="375" height="58" viewBox="0 0 375 58" fill="none" xmlns="http://www.w3.org/2000/svg">
<rect x="16" y="17" width="24" height="24" rx="12" fill="#C2F6AE"/>
<path fill-rule="evenodd" clip-rule="evenodd" d="M31.4881 21.4306C31.8026 21.7001 31.839 22.1736 31.5694 22.4881L25.9878 29L31.5694 35.5119C31.839 35.8264 31.8026 36.2999 31.4881 36.5695C31.1736 36.839 30.7001 36.8026 30.4306 36.4881L24.4306 29.4881C24.1898 29.2072 24.1898 28.7928 24.4306 28.5119L30.4306 21.5119C30.7001 21.1974 31.1736 21.161 31.4881 21.4306Z" fill="#828DA9"/>
<path d="M48.632 33.5V22.7H53.024L57.28 32.22H56.888L56.912 22.7H59.624V33.5H55.272L51.016 23.956H51.344V33.5H48.632ZM65.8265 33.58C64.0878 33.58 62.8478 33.1613 62.1065 32.324C61.3652 31.4813 60.9945 30.2787 60.9945 28.716C60.9945 27.1587 61.3652 25.9693 62.1065 25.148C62.8478 24.3213 64.0878 23.908 65.8265 23.908C67.5598 23.908 68.7945 24.3213 69.5305 25.148C70.2718 25.9693 70.6425 27.1587 70.6425 28.716C70.6425 30.2787 70.2718 31.4813 69.5305 32.324C68.7945 33.1613 67.5598 33.58 65.8265 33.58ZM65.8265 31.756C66.4452 31.756 66.9545 31.5587 67.3545 31.164C67.7545 30.7693 67.9545 29.9587 67.9545 28.732C67.9545 27.5107 67.7545 26.7053 67.3545 26.316C66.9545 25.9267 66.4452 25.732 65.8265 25.732C65.2025 25.732 64.6905 25.9267 64.2905 26.316C63.8905 26.7053 63.6905 27.5107 63.6905 28.732C63.6905 29.9587 63.8905 30.7693 64.2905 31.164C64.6905 31.5587 65.2025 31.756 65.8265 31.756ZM76.5788 33.62C75.7361 33.62 75.0214 33.444 74.4348 33.092C73.8534 32.7347 73.5628 32.092 73.5628 31.164V25.868H71.3948V24.02H73.5628V21.852H76.2588V24.02H79.1708V25.868H76.2588V30.572C76.2588 31.0893 76.3654 31.428 76.5788 31.588C76.7974 31.7427 77.1041 31.82 77.4988 31.82C77.8934 31.82 78.2801 31.7533 78.6588 31.62V33.396C77.9974 33.5453 77.3041 33.62 76.5788 33.62ZM80.5991 33.5V24.012H83.2951V33.5H80.5991ZM80.5991 21.164H83.2951V23.044H80.5991V21.164ZM86.4954 33.5V25.852H84.5594V24.02H86.5114L86.4954 23.7C86.4954 22.6867 86.9247 21.9613 87.7834 21.524C88.642 21.0867 89.8687 20.868 91.4634 20.868H91.7914V22.636H91.5274C90.69 22.636 90.09 22.708 89.7274 22.852C89.3647 22.996 89.1834 23.2813 89.1834 23.708L89.1754 24.02H91.7354V25.852H89.1834V33.5H86.4954ZM93.2234 33.5V24.012H95.9194V33.5H93.2234ZM93.2234 21.164H95.9194V23.044H93.2234V21.164ZM102.096 33.596C100.326 33.596 99.0884 33.1773 98.3844 32.34C97.6857 31.4973 97.3364 30.3107 97.3364 28.78C97.3364 27.212 97.6857 26.012 98.3844 25.18C99.0884 24.348 100.326 23.932 102.096 23.932C103.67 23.932 104.76 24.2733 105.368 24.956C105.982 25.6387 106.339 26.356 106.44 27.108L104.048 27.94C104.006 27.2147 103.814 26.676 103.472 26.324C103.136 25.9667 102.678 25.788 102.096 25.788C101.52 25.788 101.04 25.988 100.656 26.388C100.272 26.788 100.08 27.5853 100.08 28.78C100.08 29.9267 100.272 30.708 100.656 31.124C101.04 31.54 101.52 31.748 102.096 31.748C102.678 31.748 103.136 31.5613 103.472 31.188C103.814 30.8147 104.006 30.292 104.048 29.62L106.44 30.484C106.339 31.1827 105.982 31.876 105.368 32.564C104.76 33.252 103.67 33.596 102.096 33.596ZM111.286 33.604C110.912 33.604 110.544 33.5827 110.182 33.54C109.824 33.4973 109.488 33.4173 109.174 33.3C108.859 33.1773 108.582 33.0067 108.342 32.788C108.102 32.5693 107.912 32.2867 107.774 31.94C107.64 31.5933 107.574 31.1693 107.574 30.668C107.574 30.1827 107.64 29.7747 107.774 29.444C107.912 29.108 108.099 28.8333 108.334 28.62C108.568 28.4067 108.84 28.2413 109.15 28.124C109.459 28.0067 109.79 27.9267 110.142 27.884C110.494 27.836 110.851 27.812 111.214 27.812H114.206V27.444C114.206 27.012 114.12 26.6707 113.95 26.42C113.784 26.1693 113.555 25.9933 113.262 25.892C112.974 25.7853 112.648 25.732 112.286 25.732C111.955 25.732 111.654 25.7827 111.382 25.884C111.11 25.9853 110.88 26.1507 110.694 26.38C110.512 26.6093 110.384 26.916 110.31 27.3L107.678 26.564C107.774 26.0893 107.95 25.6867 108.206 25.356C108.467 25.02 108.798 24.748 109.198 24.54C109.603 24.3267 110.064 24.172 110.582 24.076C111.104 23.9747 111.67 23.924 112.278 23.924C113.232 23.924 114.056 24.0387 114.75 24.268C115.443 24.4973 115.976 24.8787 116.35 25.412C116.723 25.9453 116.91 26.6707 116.91 27.588V33.5H114.67L114.438 32.412C114.374 32.556 114.254 32.7 114.078 32.844C113.902 32.9827 113.675 33.1107 113.398 33.228C113.126 33.34 112.811 33.4307 112.454 33.5C112.102 33.5693 111.712 33.604 111.286 33.604ZM111.894 31.916C112.155 31.916 112.414 31.892 112.67 31.844C112.931 31.796 113.168 31.7267 113.382 31.636C113.6 31.5453 113.782 31.4387 113.926 31.316C114.07 31.188 114.163 31.0493 114.206 30.9L114.27 29.3H111.846C111.632 29.3 111.432 29.316 111.246 29.348C111.059 29.3747 110.894 29.4333 110.75 29.524C110.611 29.6147 110.502 29.7453 110.422 29.916C110.342 30.0867 110.302 30.3107 110.302 30.588C110.302 30.8707 110.344 31.1 110.43 31.276C110.52 31.4467 110.64 31.58 110.79 31.676C110.944 31.7667 111.115 31.8307 111.302 31.868C111.494 31.9 111.691 31.916 111.894 31.916ZM122.969 33.62C122.127 33.62 121.412 33.444 120.825 33.092C120.244 32.7347 119.953 32.092 119.953 31.164V25.868H117.785V24.02H119.953V21.852H122.649V24.02H125.561V25.868H122.649V30.572C122.649 31.0893 122.756 31.428 122.969 31.588C123.188 31.7427 123.495 31.82 123.889 31.82C124.284 31.82 124.671 31.7533 125.049 31.62V33.396C124.388 33.5453 123.695 33.62 122.969 33.62ZM126.99 33.5V24.012H129.686V33.5H126.99ZM126.99 21.164H129.686V23.044H126.99V21.164ZM136.014 33.58C134.275 33.58 133.035 33.1613 132.294 32.324C131.553 31.4813 131.182 30.2787 131.182 28.716C131.182 27.1587 131.553 25.9693 132.294 25.148C133.035 24.3213 134.275 23.908 136.014 23.908C137.747 23.908 138.982 24.3213 139.718 25.148C140.459 25.9693 140.83 27.1587 140.83 28.716C140.83 30.2787 140.459 31.4813 139.718 32.324C138.982 33.1613 137.747 33.58 136.014 33.58ZM136.014 31.756C136.633 31.756 137.142 31.5587 137.542 31.164C137.942 30.7693 138.142 29.9587 138.142 28.732C138.142 27.5107 137.942 26.7053 137.542 26.316C137.142 25.9267 136.633 25.732 136.014 25.732C135.39 25.732 134.878 25.9267 134.478 26.316C134.078 26.7053 133.878 27.5107 133.878 28.732C133.878 29.9587 134.078 30.7693 134.478 31.164C134.878 31.5587 135.39 31.756 136.014 31.756ZM142.141 33.5V24.02H144.221L144.829 25.62V33.5H142.141ZM148.325 33.5V28.476C148.325 27.4253 148.197 26.7133 147.941 26.34C147.685 25.9667 147.29 25.78 146.757 25.78C146.197 25.78 145.72 26.0093 145.325 26.468C144.936 26.9213 144.741 27.5107 144.741 28.236L143.437 27.628C143.437 26.7907 143.837 25.9667 144.637 25.156C145.437 24.34 146.482 23.932 147.773 23.932C148.994 23.932 149.84 24.348 150.309 25.18C150.778 26.0067 151.013 27.092 151.013 28.436V33.5H148.325ZM157.282 33.58C156.034 33.58 154.984 33.3907 154.13 33.012C153.277 32.6333 152.725 31.9827 152.474 31.06L154.826 30.196C154.949 30.74 155.226 31.148 155.658 31.42C156.09 31.692 156.645 31.828 157.322 31.828C157.882 31.828 158.317 31.7427 158.626 31.572C158.936 31.396 159.09 31.1533 159.09 30.844C159.09 30.4227 158.813 30.1533 158.258 30.036C157.704 29.9187 156.994 29.7907 156.13 29.652C155.048 29.4867 154.178 29.1907 153.522 28.764C152.872 28.332 152.546 27.636 152.546 26.676C152.546 25.7373 152.949 25.0467 153.754 24.604C154.56 24.1613 155.616 23.94 156.922 23.94C158.197 23.94 159.24 24.1267 160.05 24.5C160.861 24.868 161.381 25.5027 161.61 26.404L159.25 27.252C159.128 26.7667 158.858 26.3827 158.442 26.1C158.026 25.8173 157.509 25.676 156.89 25.676C156.309 25.676 155.88 25.764 155.602 25.94C155.33 26.116 155.194 26.3587 155.194 26.668C155.194 27.0733 155.458 27.3373 155.986 27.46C156.514 27.5773 157.192 27.7 158.018 27.828C159.08 27.9827 159.965 28.252 160.674 28.636C161.389 29.0147 161.746 29.684 161.746 30.644C161.746 31.6947 161.36 32.4467 160.586 32.9C159.813 33.3533 158.712 33.58 157.282 33.58Z" fill="#050505"/>
</svg>
