<svg width="156" height="24" viewBox="0 0 156 24" fill="none" xmlns="http://www.w3.org/2000/svg">
<rect width="24" height="24" rx="12" fill="#C2F6AE"/>
<path fill-rule="evenodd" clip-rule="evenodd" d="M15.4881 4.43057C15.8026 4.70014 15.839 5.17361 15.5694 5.48811L9.98781 12L15.5694 18.5119C15.839 18.8264 15.8026 19.2999 15.4881 19.5695C15.1736 19.839 14.7001 19.8026 14.4306 19.4881L8.43056 12.4881C8.18981 12.2072 8.18981 11.7928 8.43056 11.5119L14.4306 4.51192C14.7001 4.19743 15.1736 4.161 15.4881 4.43057Z" fill="#828DA9"/>
<path d="M32.632 16.5V5.7H38.456C39.8053 5.7 40.6933 6.08133 41.12 6.844C41.5467 7.60667 41.76 8.54533 41.76 9.66C41.76 10.7747 41.5467 11.7133 41.12 12.476C40.6933 13.2387 39.8053 13.62 38.456 13.62H35.36V16.5H32.632ZM35.36 11.772H37.64C38.152 11.772 38.5147 11.6093 38.728 11.284C38.9467 10.9587 39.056 10.4173 39.056 9.66C39.056 8.908 38.9467 8.36933 38.728 8.044C38.5147 7.71333 38.152 7.548 37.64 7.548H35.36V11.772ZM49.0489 11.692C49.0489 10.4973 48.9129 9.716 48.6409 9.348C48.3689 8.97467 47.9902 8.788 47.5049 8.788C46.9395 8.788 46.4915 8.98533 46.1609 9.38C45.8302 9.76933 45.6649 10.2173 45.6649 10.724L44.6329 10.108C44.6329 9.212 44.9902 8.46 45.7049 7.852C46.4195 7.23867 47.3555 6.932 48.5129 6.932C49.7662 6.932 50.6169 7.31867 51.0649 8.092C51.5129 8.86 51.7369 10.06 51.7369 11.692H49.0489ZM42.9849 16.5V7.02H45.0649L45.6729 8.66V16.5H42.9849ZM57.7328 16.58C55.9941 16.58 54.7541 16.1613 54.0128 15.324C53.2714 14.4813 52.9008 13.2787 52.9008 11.716C52.9008 10.1587 53.2714 8.96933 54.0128 8.148C54.7541 7.32133 55.9941 6.908 57.7328 6.908C59.4661 6.908 60.7008 7.32133 61.4368 8.148C62.1781 8.96933 62.5488 10.1587 62.5488 11.716C62.5488 13.2787 62.1781 14.4813 61.4368 15.324C60.7008 16.1613 59.4661 16.58 57.7328 16.58ZM57.7328 14.756C58.3514 14.756 58.8608 14.5587 59.2608 14.164C59.6608 13.7693 59.8608 12.9587 59.8608 11.732C59.8608 10.5107 59.6608 9.70533 59.2608 9.316C58.8608 8.92667 58.3514 8.732 57.7328 8.732C57.1088 8.732 56.5968 8.92667 56.1968 9.316C55.7968 9.70533 55.5968 10.5107 55.5968 11.732C55.5968 12.9587 55.7968 13.7693 56.1968 14.164C56.5968 14.5587 57.1088 14.756 57.7328 14.756ZM65.261 16.5V8.852H63.325V7.02H65.277L65.261 6.7C65.261 5.68667 65.6903 4.96133 66.549 4.524C67.4077 4.08667 68.6343 3.868 70.229 3.868H70.557V5.636H70.293C69.4557 5.636 68.8557 5.708 68.493 5.852C68.1303 5.996 67.949 6.28133 67.949 6.708L67.941 7.02H70.501V8.852H67.949V16.5H65.261ZM71.989 16.5V7.012H74.685V16.5H71.989ZM71.989 4.164H74.685V6.044H71.989V4.164ZM76.646 16.5V3.94H79.342V16.5H76.646ZM85.6005 16.596C83.8085 16.596 82.5525 16.164 81.8325 15.3C81.1178 14.4307 80.7605 13.2493 80.7605 11.756C80.7605 10.2253 81.1205 9.03867 81.8405 8.196C82.5605 7.348 83.7978 6.924 85.5525 6.924C87.3498 6.924 88.5925 7.35333 89.2805 8.212C89.9738 9.07067 90.3205 10.2493 90.3205 11.748C90.3205 12.0467 90.3018 12.3133 90.2645 12.548H83.1125V10.924H87.7525L87.6565 11.164C87.6565 10.252 87.4698 9.60667 87.0965 9.228C86.7285 8.84933 86.2138 8.66 85.5525 8.66C84.9018 8.66 84.3738 8.86533 83.9685 9.276C83.5632 9.68667 83.3605 10.5133 83.3605 11.756C83.3605 12.972 83.5605 13.7933 83.9605 14.22C84.3658 14.6467 84.9125 14.86 85.6005 14.86V16.596ZM85.6005 14.86C86.0005 14.86 86.3312 14.8067 86.5925 14.7C86.8538 14.5933 87.0618 14.4147 87.2165 14.164C87.3765 13.9133 87.5125 13.6173 87.6245 13.276L90.0325 13.956C89.9152 14.58 89.6592 15.084 89.2645 15.468C88.8752 15.852 88.4032 16.1373 87.8485 16.324C87.2992 16.5053 86.5498 16.596 85.6005 16.596V14.86ZM95.6945 16.5V5.7H101.239C102.737 5.7 103.785 6.1 104.383 6.9C104.98 7.7 105.279 9.09733 105.279 11.092C105.279 13.092 104.98 14.4947 104.383 15.3C103.785 16.1 102.737 16.5 101.239 16.5H95.6945ZM98.4145 14.652H100.503C101.207 14.652 101.724 14.4627 102.055 14.084C102.391 13.7 102.559 12.7027 102.559 11.092C102.559 9.492 102.391 8.50267 102.055 8.124C101.724 7.74 101.207 7.548 100.503 7.548H98.4145V14.652ZM111.101 16.596C109.309 16.596 108.053 16.164 107.333 15.3C106.618 14.4307 106.261 13.2493 106.261 11.756C106.261 10.2253 106.621 9.03867 107.341 8.196C108.061 7.348 109.298 6.924 111.053 6.924C112.85 6.924 114.093 7.35333 114.781 8.212C115.474 9.07067 115.821 10.2493 115.821 11.748C115.821 12.0467 115.802 12.3133 115.765 12.548H108.613V10.924H113.253L113.157 11.164C113.157 10.252 112.97 9.60667 112.597 9.228C112.229 8.84933 111.714 8.66 111.053 8.66C110.402 8.66 109.874 8.86533 109.469 9.276C109.063 9.68667 108.861 10.5133 108.861 11.756C108.861 12.972 109.061 13.7933 109.461 14.22C109.866 14.6467 110.413 14.86 111.101 14.86V16.596ZM111.101 14.86C111.501 14.86 111.831 14.8067 112.093 14.7C112.354 14.5933 112.562 14.4147 112.717 14.164C112.877 13.9133 113.013 13.6173 113.125 13.276L115.533 13.956C115.415 14.58 115.159 15.084 114.765 15.468C114.375 15.852 113.903 16.1373 113.349 16.324C112.799 16.5053 112.05 16.596 111.101 16.596V14.86ZM121.766 16.62C120.924 16.62 120.209 16.444 119.622 16.092C119.041 15.7347 118.75 15.092 118.75 14.164V8.868H116.582V7.02H118.75V4.852H121.446V7.02H124.358V8.868H121.446V13.572C121.446 14.0893 121.553 14.428 121.766 14.588C121.985 14.7427 122.292 14.82 122.686 14.82C123.081 14.82 123.468 14.7533 123.846 14.62V16.396C123.185 16.5453 122.492 16.62 121.766 16.62ZM129.02 16.604C128.647 16.604 128.279 16.5827 127.916 16.54C127.559 16.4973 127.223 16.4173 126.908 16.3C126.593 16.1773 126.316 16.0067 126.076 15.788C125.836 15.5693 125.647 15.2867 125.508 14.94C125.375 14.5933 125.308 14.1693 125.308 13.668C125.308 13.1827 125.375 12.7747 125.508 12.444C125.647 12.108 125.833 11.8333 126.068 11.62C126.303 11.4067 126.575 11.2413 126.884 11.124C127.193 11.0067 127.524 10.9267 127.876 10.884C128.228 10.836 128.585 10.812 128.948 10.812H131.94V10.444C131.94 10.012 131.855 9.67067 131.684 9.42C131.519 9.16933 131.289 8.99333 130.996 8.892C130.708 8.78533 130.383 8.732 130.02 8.732C129.689 8.732 129.388 8.78267 129.116 8.884C128.844 8.98533 128.615 9.15067 128.428 9.38C128.247 9.60933 128.119 9.916 128.044 10.3L125.412 9.564C125.508 9.08933 125.684 8.68667 125.94 8.356C126.201 8.02 126.532 7.748 126.932 7.54C127.337 7.32667 127.799 7.172 128.316 7.076C128.839 6.97467 129.404 6.924 130.012 6.924C130.967 6.924 131.791 7.03867 132.484 7.268C133.177 7.49733 133.711 7.87867 134.084 8.412C134.457 8.94533 134.644 9.67067 134.644 10.588V16.5H132.404L132.172 15.412C132.108 15.556 131.988 15.7 131.812 15.844C131.636 15.9827 131.409 16.1107 131.132 16.228C130.86 16.34 130.545 16.4307 130.188 16.5C129.836 16.5693 129.447 16.604 129.02 16.604ZM129.628 14.916C129.889 14.916 130.148 14.892 130.404 14.844C130.665 14.796 130.903 14.7267 131.116 14.636C131.335 14.5453 131.516 14.4387 131.66 14.316C131.804 14.188 131.897 14.0493 131.94 13.9L132.004 12.3H129.58C129.367 12.3 129.167 12.316 128.98 12.348C128.793 12.3747 128.628 12.4333 128.484 12.524C128.345 12.6147 128.236 12.7453 128.156 12.916C128.076 13.0867 128.036 13.3107 128.036 13.588C128.036 13.8707 128.079 14.1 128.164 14.276C128.255 14.4467 128.375 14.58 128.524 14.676C128.679 14.7667 128.849 14.8307 129.036 14.868C129.228 14.9 129.425 14.916 129.628 14.916ZM136.365 16.5V7.012H139.061V16.5H136.365ZM136.365 4.164H139.061V6.044H136.365V4.164ZM141.021 16.5V3.94H143.717V16.5H141.021ZM150.064 16.58C148.816 16.58 147.765 16.3907 146.912 16.012C146.058 15.6333 145.506 14.9827 145.256 14.06L147.608 13.196C147.73 13.74 148.008 14.148 148.44 14.42C148.872 14.692 149.426 14.828 150.104 14.828C150.664 14.828 151.098 14.7427 151.408 14.572C151.717 14.396 151.872 14.1533 151.872 13.844C151.872 13.4227 151.594 13.1533 151.04 13.036C150.485 12.9187 149.776 12.7907 148.911 12.652C147.829 12.4867 146.96 12.1907 146.304 11.764C145.653 11.332 145.328 10.636 145.328 9.676C145.328 8.73733 145.73 8.04667 146.536 7.604C147.341 7.16133 148.397 6.94 149.704 6.94C150.978 6.94 152.021 7.12667 152.832 7.5C153.642 7.868 154.162 8.50267 154.392 9.404L152.032 10.252C151.909 9.76667 151.64 9.38267 151.224 9.1C150.808 8.81733 150.29 8.676 149.672 8.676C149.09 8.676 148.661 8.764 148.384 8.94C148.112 9.116 147.976 9.35867 147.976 9.668C147.976 10.0733 148.24 10.3373 148.768 10.46C149.296 10.5773 149.973 10.7 150.8 10.828C151.861 10.9827 152.746 11.252 153.456 11.636C154.17 12.0147 154.528 12.684 154.528 13.644C154.528 14.6947 154.141 15.4467 153.368 15.9C152.594 16.3533 151.493 16.58 150.064 16.58Z" fill="#050505"/>
</svg>
