<svg width="375" height="58" viewBox="0 0 375 58" fill="none" xmlns="http://www.w3.org/2000/svg">
<path d="M16.79 35V21.5H24.07C25.7567 21.5 26.8667 21.9767 27.4 22.93C27.9333 23.8833 28.2 25.0567 28.2 26.45C28.2 27.8433 27.9333 29.0167 27.4 29.97C26.8667 30.9233 25.7567 31.4 24.07 31.4H20.2V35H16.79ZM20.2 29.09H23.05C23.69 29.09 24.1433 28.8867 24.41 28.48C24.6833 28.0733 24.82 27.3967 24.82 26.45C24.82 25.51 24.6833 24.8367 24.41 24.43C24.1433 24.0167 23.69 23.81 23.05 23.81H20.2V29.09ZM37.3111 28.99C37.3111 27.4967 37.1411 26.52 36.8011 26.06C36.4611 25.5933 35.9878 25.36 35.3811 25.36C34.6744 25.36 34.1144 25.6067 33.7011 26.1C33.2878 26.5867 33.0811 27.1467 33.0811 27.78L31.7911 27.01C31.7911 25.89 32.2378 24.95 33.1311 24.19C34.0244 23.4233 35.1944 23.04 36.6411 23.04C38.2078 23.04 39.2711 23.5233 39.8311 24.49C40.3911 25.45 40.6711 26.95 40.6711 28.99H37.3111ZM29.7311 35V23.15H32.3311L33.0911 25.2V35H29.7311ZM48.1659 35.1C45.9926 35.1 44.4426 34.5767 43.5159 33.53C42.5893 32.4767 42.1259 30.9733 42.1259 29.02C42.1259 27.0733 42.5893 25.5867 43.5159 24.56C44.4426 23.5267 45.9926 23.01 48.1659 23.01C50.3326 23.01 51.8759 23.5267 52.7959 24.56C53.7226 25.5867 54.1859 27.0733 54.1859 29.02C54.1859 30.9733 53.7226 32.4767 52.7959 33.53C51.8759 34.5767 50.3326 35.1 48.1659 35.1ZM48.1659 32.82C48.9393 32.82 49.5759 32.5733 50.0759 32.08C50.5759 31.5867 50.8259 30.5733 50.8259 29.04C50.8259 27.5133 50.5759 26.5067 50.0759 26.02C49.5759 25.5333 48.9393 25.29 48.1659 25.29C47.3859 25.29 46.7459 25.5333 46.2459 26.02C45.7459 26.5067 45.4959 27.5133 45.4959 29.04C45.4959 30.5733 45.7459 31.5867 46.2459 32.08C46.7459 32.5733 47.3859 32.82 48.1659 32.82ZM57.5763 35V25.44H55.1563V23.15H57.5963L57.5763 22.75C57.5763 21.4833 58.1129 20.5767 59.1863 20.03C60.2596 19.4833 61.7929 19.21 63.7863 19.21H64.1963V21.42H63.8663C62.8196 21.42 62.0696 21.51 61.6163 21.69C61.1629 21.87 60.9363 22.2267 60.9363 22.76L60.9263 23.15H64.1263V25.44H60.9363V35H57.5763ZM65.9863 35V23.14H69.3563V35H65.9863ZM65.9863 19.58H69.3563V21.93H65.9863V19.58ZM71.8075 35V19.3H75.1775V35H71.8075ZM83.0006 35.12C80.7606 35.12 79.1906 34.58 78.2906 33.5C77.3973 32.4133 76.9506 30.9367 76.9506 29.07C76.9506 27.1567 77.4006 25.6733 78.3006 24.62C79.2006 23.56 80.7473 23.03 82.9406 23.03C85.1873 23.03 86.7406 23.5667 87.6006 24.64C88.4673 25.7133 88.9006 27.1867 88.9006 29.06C88.9006 29.4333 88.8773 29.7667 88.8306 30.06H79.8906V28.03H85.6906L85.5706 28.33C85.5706 27.19 85.3373 26.3833 84.8706 25.91C84.4106 25.4367 83.7673 25.2 82.9406 25.2C82.1273 25.2 81.4673 25.4567 80.9606 25.97C80.454 26.4833 80.2006 27.5167 80.2006 29.07C80.2006 30.59 80.4506 31.6167 80.9506 32.15C81.4573 32.6833 82.1406 32.95 83.0006 32.95V35.12ZM83.0006 32.95C83.5006 32.95 83.914 32.8833 84.2406 32.75C84.5673 32.6167 84.8273 32.3933 85.0206 32.08C85.2206 31.7667 85.3906 31.3967 85.5306 30.97L88.5406 31.82C88.394 32.6 88.074 33.23 87.5806 33.71C87.094 34.19 86.504 34.5467 85.8106 34.78C85.124 35.0067 84.1873 35.12 83.0006 35.12V32.95Z" fill="#185C32"/>
</svg>
