<svg width="343" height="115" viewBox="0 0 343 115" fill="none" xmlns="http://www.w3.org/2000/svg">
<circle cx="171.5" cy="44" r="32" fill="#D2F69E" fill-opacity="0.2"/>
<circle cx="171.5" cy="43.9997" r="26.6667" fill="#D2F69E" fill-opacity="0.5"/>
<path d="M150.167 44.0003C150.167 32.2183 159.718 22.667 171.5 22.667C183.282 22.667 192.834 32.2183 192.834 44.0003C192.834 55.7824 183.282 65.3337 171.5 65.3337C159.718 65.3337 150.167 55.7824 150.167 44.0003Z" fill="#D2F69E"/>
<path fill-rule="evenodd" clip-rule="evenodd" d="M175.64 37.9976C176.01 38.3205 176.048 38.882 175.725 39.2518L166.413 49.9185C166.244 50.1118 166 50.2228 165.744 50.2228C165.487 50.2228 165.243 50.1118 165.074 49.9185L161.349 45.6518C161.026 45.282 161.064 44.7205 161.434 44.3976C161.804 44.0747 162.366 44.1128 162.688 44.4826L165.744 47.9823L174.386 38.0826C174.709 37.7128 175.271 37.6747 175.64 37.9976Z" fill="#2FA52D"/>
<path fill-rule="evenodd" clip-rule="evenodd" d="M181.595 38.0977C181.95 38.4363 181.964 38.9989 181.626 39.3544L171.467 50.0211C171.287 50.2096 171.034 50.3099 170.774 50.2956C170.514 50.2812 170.273 50.1536 170.116 49.9465L169.608 49.2799C169.311 48.8893 169.386 48.3316 169.777 48.0342C170.112 47.7787 170.571 47.7984 170.882 48.0567L180.338 38.1283C180.677 37.7728 181.24 37.7591 181.595 38.0977Z" fill="#2FA52D"/>
<path d="M109.136 99V87.8H114.32C115.056 87.8 115.696 87.944 116.24 88.232C116.784 88.5093 117.211 88.8987 117.52 89.4C117.829 89.9013 117.984 90.4827 117.984 91.144C117.984 91.8053 117.829 92.3867 117.52 92.888C117.211 93.3893 116.779 93.784 116.224 94.072C115.68 94.3493 115.045 94.488 114.32 94.488H110.816V99H109.136ZM110.816 93.064H114.144C114.805 93.064 115.328 92.8933 115.712 92.552C116.107 92.2 116.304 91.736 116.304 91.16C116.304 90.584 116.107 90.1253 115.712 89.784C115.328 89.4427 114.805 89.272 114.144 89.272H110.816V93.064ZM122.518 99.16C121.889 99.16 121.334 99.0267 120.854 98.76C120.374 98.4933 120.001 98.12 119.734 97.64C119.467 97.1493 119.334 96.5893 119.334 95.96V90.856H120.918V95.688C120.918 96.328 121.099 96.8347 121.462 97.208C121.835 97.5813 122.331 97.768 122.95 97.768C123.387 97.768 123.777 97.6773 124.118 97.496C124.459 97.304 124.737 97.0373 124.95 96.696V90.856H126.55V99H124.95V98.168C124.321 98.8293 123.51 99.16 122.518 99.16ZM128.444 99V90.856H130.044V91.896C130.3 91.512 130.615 91.2133 130.988 91C131.372 90.776 131.804 90.664 132.284 90.664C132.615 90.6747 132.887 90.7227 133.1 90.808V92.248C132.951 92.184 132.796 92.1413 132.636 92.12C132.476 92.088 132.316 92.072 132.156 92.072C131.687 92.072 131.271 92.2 130.908 92.456C130.545 92.7013 130.257 93.064 130.044 93.544V99H128.444ZM137.737 99.144C136.958 99.144 136.249 98.9573 135.609 98.584C134.969 98.2107 134.462 97.704 134.089 97.064C133.726 96.424 133.545 95.7093 133.545 94.92C133.545 94.1307 133.731 93.4213 134.105 92.792C134.478 92.152 134.979 91.6453 135.609 91.272C136.249 90.888 136.958 90.696 137.737 90.696C138.355 90.696 138.947 90.8133 139.513 91.048C140.089 91.2827 140.585 91.6133 141.001 92.04L140.009 93.144C139.699 92.8027 139.353 92.5467 138.969 92.376C138.585 92.2053 138.185 92.12 137.769 92.12C137.278 92.12 136.83 92.2427 136.425 92.488C136.03 92.7333 135.715 93.0693 135.481 93.496C135.246 93.9227 135.129 94.3973 135.129 94.92C135.129 95.4427 135.246 95.9173 135.481 96.344C135.715 96.7707 136.035 97.112 136.441 97.368C136.846 97.6133 137.299 97.736 137.801 97.736C138.217 97.736 138.606 97.656 138.969 97.496C139.331 97.3253 139.673 97.08 139.993 96.76L140.969 97.784C140.542 98.2213 140.046 98.5573 139.481 98.792C138.926 99.0267 138.345 99.144 137.737 99.144ZM142.257 99V87.8L143.857 87.448V91.688C144.486 91.0267 145.302 90.696 146.305 90.696C146.934 90.696 147.483 90.8293 147.953 91.096C148.433 91.3627 148.806 91.736 149.073 92.216C149.35 92.696 149.489 93.2507 149.489 93.88V99H147.889V94.152C147.889 93.512 147.707 93.0107 147.345 92.648C146.982 92.2747 146.486 92.088 145.857 92.088C145.43 92.088 145.046 92.1787 144.705 92.36C144.363 92.5413 144.081 92.8027 143.857 93.144V99H142.257ZM153.911 99.144C153.324 99.144 152.807 99.0427 152.359 98.84C151.911 98.6267 151.559 98.3333 151.303 97.96C151.047 97.5867 150.919 97.1547 150.919 96.664C150.919 95.896 151.212 95.2933 151.799 94.856C152.385 94.408 153.191 94.184 154.215 94.184C155.015 94.184 155.756 94.3387 156.439 94.648V93.784C156.439 93.1973 156.268 92.76 155.927 92.472C155.596 92.184 155.105 92.04 154.455 92.04C154.081 92.04 153.692 92.0987 153.287 92.216C152.881 92.3227 152.428 92.4933 151.927 92.728L151.335 91.528C151.953 91.24 152.529 91.032 153.063 90.904C153.596 90.7653 154.135 90.696 154.679 90.696C155.735 90.696 156.551 90.9467 157.127 91.448C157.713 91.9493 158.007 92.664 158.007 93.592V99H156.439V98.296C156.076 98.584 155.687 98.7973 155.271 98.936C154.855 99.0747 154.401 99.144 153.911 99.144ZM152.455 96.632C152.455 97.0267 152.62 97.3467 152.951 97.592C153.292 97.8267 153.735 97.944 154.279 97.944C154.705 97.944 155.095 97.8853 155.447 97.768C155.809 97.64 156.14 97.4427 156.439 97.176V95.8C156.129 95.6187 155.804 95.4907 155.463 95.416C155.132 95.3307 154.759 95.288 154.343 95.288C153.756 95.288 153.292 95.4107 152.951 95.656C152.62 95.8907 152.455 96.216 152.455 96.632ZM162.65 99.16C161.946 99.16 161.285 99.0587 160.666 98.856C160.058 98.6427 159.53 98.344 159.082 97.96L159.962 96.904C160.378 97.2347 160.805 97.4907 161.242 97.672C161.69 97.8427 162.144 97.928 162.602 97.928C163.178 97.928 163.648 97.816 164.01 97.592C164.373 97.368 164.554 97.0747 164.554 96.712C164.554 96.4133 164.448 96.1787 164.234 96.008C164.021 95.8373 163.69 95.72 163.242 95.656L161.77 95.448C160.96 95.3307 160.352 95.08 159.946 94.696C159.541 94.312 159.338 93.8 159.338 93.16C159.338 92.6693 159.472 92.2427 159.738 91.88C160.005 91.5067 160.378 91.2187 160.858 91.016C161.338 90.8027 161.898 90.696 162.538 90.696C163.125 90.696 163.69 90.7813 164.234 90.952C164.778 91.1227 165.301 91.3893 165.802 91.752L164.986 92.808C164.538 92.5093 164.101 92.2907 163.674 92.152C163.258 92.0133 162.837 91.944 162.41 91.944C161.92 91.944 161.525 92.0507 161.226 92.264C160.928 92.4667 160.778 92.7333 160.778 93.064C160.778 93.3627 160.88 93.5973 161.082 93.768C161.296 93.928 161.642 94.04 162.122 94.104L163.594 94.312C164.405 94.4293 165.018 94.68 165.434 95.064C165.85 95.4373 166.058 95.944 166.058 96.584C166.058 97.0747 165.909 97.5173 165.61 97.912C165.312 98.296 164.906 98.6 164.394 98.824C163.882 99.048 163.301 99.16 162.65 99.16ZM171.27 99.144C170.47 99.144 169.745 98.9573 169.094 98.584C168.454 98.2107 167.942 97.704 167.558 97.064C167.185 96.424 166.998 95.7093 166.998 94.92C166.998 94.1413 167.179 93.4373 167.542 92.808C167.905 92.168 168.395 91.6613 169.014 91.288C169.633 90.904 170.321 90.712 171.078 90.712C171.835 90.712 172.507 90.904 173.094 91.288C173.681 91.6613 174.145 92.1733 174.486 92.824C174.838 93.464 175.014 94.1893 175.014 95V95.448H168.598C168.683 95.896 168.849 96.296 169.094 96.648C169.35 97 169.67 97.2773 170.054 97.48C170.449 97.6827 170.875 97.784 171.334 97.784C171.729 97.784 172.107 97.7253 172.47 97.608C172.843 97.48 173.153 97.2987 173.398 97.064L174.422 98.072C173.942 98.4347 173.446 98.7067 172.934 98.888C172.433 99.0587 171.878 99.144 171.27 99.144ZM168.614 94.248H173.43C173.366 93.8213 173.217 93.448 172.982 93.128C172.758 92.7973 172.475 92.5413 172.134 92.36C171.803 92.168 171.441 92.072 171.046 92.072C170.641 92.072 170.267 92.1627 169.926 92.344C169.585 92.5253 169.297 92.7813 169.062 93.112C168.838 93.432 168.689 93.8107 168.614 94.248ZM180.074 99V87.8H185.146C185.892 87.8 186.543 87.9387 187.098 88.216C187.663 88.4933 188.1 88.8827 188.41 89.384C188.73 89.8747 188.89 90.4507 188.89 91.112C188.89 91.848 188.682 92.4827 188.266 93.016C187.85 93.5493 187.29 93.9333 186.586 94.168L189.082 99H187.226L184.906 94.408H181.754V99H180.074ZM181.754 93H185.018C185.679 93 186.207 92.8347 186.602 92.504C187.007 92.1627 187.21 91.704 187.21 91.128C187.21 90.5733 187.007 90.1253 186.602 89.784C186.207 89.4427 185.679 89.272 185.018 89.272H181.754V93ZM193.848 99.144C193.048 99.144 192.323 98.9573 191.672 98.584C191.032 98.2107 190.52 97.704 190.136 97.064C189.763 96.424 189.576 95.7093 189.576 94.92C189.576 94.1413 189.757 93.4373 190.12 92.808C190.483 92.168 190.973 91.6613 191.592 91.288C192.211 90.904 192.899 90.712 193.656 90.712C194.413 90.712 195.085 90.904 195.672 91.288C196.259 91.6613 196.723 92.1733 197.064 92.824C197.416 93.464 197.592 94.1893 197.592 95V95.448H191.176C191.261 95.896 191.427 96.296 191.672 96.648C191.928 97 192.248 97.2773 192.632 97.48C193.027 97.6827 193.453 97.784 193.912 97.784C194.307 97.784 194.685 97.7253 195.048 97.608C195.421 97.48 195.731 97.2987 195.976 97.064L197 98.072C196.52 98.4347 196.024 98.7067 195.512 98.888C195.011 99.0587 194.456 99.144 193.848 99.144ZM191.192 94.248H196.008C195.944 93.8213 195.795 93.448 195.56 93.128C195.336 92.7973 195.053 92.5413 194.712 92.36C194.381 92.168 194.019 92.072 193.624 92.072C193.219 92.072 192.845 92.1627 192.504 92.344C192.163 92.5253 191.875 92.7813 191.64 93.112C191.416 93.432 191.267 93.8107 191.192 94.248ZM202.971 99.144C202.192 99.144 201.483 98.9573 200.843 98.584C200.203 98.2107 199.696 97.704 199.323 97.064C198.96 96.424 198.779 95.7093 198.779 94.92C198.779 94.1307 198.966 93.4213 199.339 92.792C199.712 92.152 200.214 91.6453 200.843 91.272C201.483 90.888 202.192 90.696 202.971 90.696C203.59 90.696 204.182 90.8133 204.747 91.048C205.323 91.2827 205.819 91.6133 206.235 92.04L205.243 93.144C204.934 92.8027 204.587 92.5467 204.203 92.376C203.819 92.2053 203.419 92.12 203.003 92.12C202.512 92.12 202.064 92.2427 201.659 92.488C201.264 92.7333 200.95 93.0693 200.715 93.496C200.48 93.9227 200.363 94.3973 200.363 94.92C200.363 95.4427 200.48 95.9173 200.715 96.344C200.95 96.7707 201.27 97.112 201.675 97.368C202.08 97.6133 202.534 97.736 203.035 97.736C203.451 97.736 203.84 97.656 204.203 97.496C204.566 97.3253 204.907 97.08 205.227 96.76L206.203 97.784C205.776 98.2213 205.28 98.5573 204.715 98.792C204.16 99.0267 203.579 99.144 202.971 99.144ZM211.161 99.144C210.361 99.144 209.635 98.9573 208.985 98.584C208.345 98.2107 207.833 97.704 207.449 97.064C207.075 96.424 206.889 95.7093 206.889 94.92C206.889 94.1413 207.07 93.4373 207.433 92.808C207.795 92.168 208.286 91.6613 208.905 91.288C209.523 90.904 210.211 90.712 210.969 90.712C211.726 90.712 212.398 90.904 212.985 91.288C213.571 91.6613 214.035 92.1733 214.377 92.824C214.729 93.464 214.905 94.1893 214.905 95V95.448H208.489C208.574 95.896 208.739 96.296 208.985 96.648C209.241 97 209.561 97.2773 209.945 97.48C210.339 97.6827 210.766 97.784 211.225 97.784C211.619 97.784 211.998 97.7253 212.361 97.608C212.734 97.48 213.043 97.2987 213.289 97.064L214.312 98.072C213.833 98.4347 213.337 98.7067 212.825 98.888C212.323 99.0587 211.769 99.144 211.161 99.144ZM208.505 94.248H213.321C213.257 93.8213 213.107 93.448 212.873 93.128C212.649 92.7973 212.366 92.5413 212.025 92.36C211.694 92.168 211.331 92.072 210.937 92.072C210.531 92.072 210.158 92.1627 209.817 92.344C209.475 92.5253 209.187 92.7813 208.953 93.112C208.729 93.432 208.579 93.8107 208.505 94.248ZM216.428 99V90.856H218.028V99H216.428ZM217.228 89.544C216.962 89.544 216.732 89.448 216.54 89.256C216.348 89.0533 216.252 88.8187 216.252 88.552C216.252 88.2747 216.348 88.0453 216.54 87.864C216.732 87.672 216.962 87.576 217.228 87.576C217.506 87.576 217.74 87.672 217.932 87.864C218.124 88.0453 218.22 88.2747 218.22 88.552C218.22 88.8187 218.124 89.0533 217.932 89.256C217.74 89.448 217.506 89.544 217.228 89.544ZM219.913 102.264V90.856H221.497V91.64C222.179 91.032 223.011 90.728 223.993 90.728C224.761 90.728 225.454 90.9147 226.073 91.288C226.702 91.6613 227.198 92.1627 227.561 92.792C227.923 93.4213 228.105 94.1307 228.105 94.92C228.105 95.7093 227.918 96.424 227.545 97.064C227.182 97.6933 226.686 98.1947 226.057 98.568C225.438 98.9413 224.739 99.128 223.961 99.128C223.513 99.128 223.081 99.0587 222.665 98.92C222.249 98.7707 221.865 98.5627 221.513 98.296V102.264H219.913ZM223.785 97.736C224.307 97.736 224.771 97.6133 225.177 97.368C225.593 97.1227 225.923 96.792 226.169 96.376C226.414 95.9493 226.537 95.4693 226.537 94.936C226.537 94.4027 226.414 93.9227 226.169 93.496C225.923 93.0693 225.593 92.7333 225.177 92.488C224.771 92.2427 224.307 92.12 223.785 92.12C223.326 92.12 222.899 92.2053 222.505 92.376C222.11 92.5467 221.779 92.7867 221.513 93.096V96.776C221.779 97.0747 222.11 97.3093 222.505 97.48C222.91 97.6507 223.337 97.736 223.785 97.736ZM232.651 99.144C231.861 99.144 231.259 98.9627 230.843 98.6C230.427 98.2267 230.219 97.688 230.219 96.984V92.2H228.491V90.856H230.219V88.776L231.803 88.392V90.856H234.203V92.2H231.803V96.616C231.803 97.032 231.893 97.3307 232.075 97.512C232.267 97.6827 232.576 97.768 233.003 97.768C233.227 97.768 233.424 97.752 233.595 97.72C233.776 97.688 233.968 97.64 234.171 97.576V98.92C233.957 98.9947 233.707 99.048 233.419 99.08C233.141 99.1227 232.885 99.144 232.651 99.144Z" fill="#49526A"/>
</svg>
