<svg width="375" height="60" viewBox="0 0 375 60" fill="none" xmlns="http://www.w3.org/2000/svg">
    <rect width="375" height="60" fill="white"/>
    <g filter="url(#filter0_d_4885_68485)">
        <path d="M142 30C142 22.5231 142 18.7846 143.608 16C144.661 14.1758 146.176 12.6609 148 11.6077C150.785 10 154.523 10 162 10H213C220.477 10 224.215 10 227 11.6077C228.824 12.6609 230.339 14.1758 231.392 16C233 18.7846 233 22.5231 233 30C233 37.4769 233 41.2154 231.392 44C230.339 45.8242 228.824 47.3391 227 48.3923C224.215 50 220.477 50 213 50H162C154.523 50 150.785 50 148 48.3923C146.176 47.3391 144.661 45.8242 143.608 44C142 41.2154 142 37.4769 142 30Z" fill="#F3F4F7" shape-rendering="crispEdges"/>
        <path d="M142.25 30C142.25 26.2569 142.25 23.4664 142.45 21.2629C142.649 19.063 143.046 17.4729 143.824 16.125C144.855 14.3388 146.339 12.8555 148.125 11.8242C149.473 11.046 151.063 10.6493 153.263 10.4499C155.466 10.2502 158.257 10.25 162 10.25H213C216.743 10.25 219.534 10.2502 221.737 10.4499C223.937 10.6493 225.527 11.046 226.875 11.8242C228.661 12.8555 230.145 14.3388 231.176 16.125C231.954 17.4729 232.351 19.063 232.55 21.2629C232.75 23.4664 232.75 26.2569 232.75 30C232.75 33.7431 232.75 36.5336 232.55 38.7371C232.351 40.937 231.954 42.5271 231.176 43.875C230.145 45.6612 228.661 47.1445 226.875 48.1758C225.527 48.954 223.937 49.3507 221.737 49.5501C219.534 49.7498 216.743 49.75 213 49.75H162C158.257 49.75 155.466 49.7498 153.263 49.5501C151.063 49.3507 149.473 48.954 148.125 48.1758C146.339 47.1445 144.855 45.6612 143.824 43.875C143.046 42.5271 142.649 40.937 142.45 38.7371C142.25 36.5336 142.25 33.7431 142.25 30Z" stroke="#E2E4EB" stroke-width="0.5" shape-rendering="crispEdges"/>
        <rect x="150" y="18" width="24" height="24" rx="12" fill="#CCD0DC"/>
        <g clip-path="url(#clip0_4885_68485)">
            <path d="M166.172 24.3389C166.359 24.4162 166.481 24.5986 166.481 24.8008V27.6292C166.481 27.9054 166.257 28.1292 165.981 28.1292H163.152C162.95 28.1292 162.768 28.0074 162.69 27.8206C162.613 27.6337 162.656 27.4187 162.799 27.2757L163.867 26.207C162.112 25.4727 160.011 25.8206 158.583 27.249C156.695 29.1365 156.695 32.1968 158.583 34.0844C160.47 35.9719 163.53 35.9719 165.418 34.0844C166.515 32.9869 166.975 31.4934 166.796 30.0625C166.762 29.7885 166.956 29.5385 167.23 29.5042C167.504 29.4699 167.754 29.6642 167.788 29.9382C168.004 31.6623 167.45 33.4665 166.125 34.7915C163.847 37.0695 160.154 37.0695 157.876 34.7915C155.597 32.5134 155.597 28.8199 157.876 26.5419C159.701 24.7163 162.435 24.3541 164.621 25.4535L165.627 24.4472C165.77 24.3042 165.985 24.2615 166.172 24.3389Z" fill="#828DA9"/>
        </g>
        <path d="M185.621 33H182.305V32.6836H183.242V26.2852H182.305V25.9688H186.078C186.695 25.9688 187.219 26.1133 187.648 26.4023C188.164 26.7539 188.422 27.2227 188.422 27.8086C188.422 28.0039 188.391 28.1992 188.328 28.3945C188.109 29.0273 187.602 29.4492 186.805 29.6602L188.645 32.6953H188.891C188.938 32.6953 188.984 32.6992 189.031 32.707C189.133 32.7305 189.184 32.8281 189.184 33L187.215 33.0117L185.434 29.7891H184.684V32.6836H185.621V33ZM185.492 26.2852H184.684V29.4375H185.562C185.836 29.4375 186.078 29.3633 186.289 29.2148C186.688 28.9258 186.887 28.4688 186.887 27.8438C186.887 27.6016 186.848 27.375 186.77 27.1641C186.551 26.5781 186.125 26.2852 185.492 26.2852ZM192.137 28.125C192.051 28.125 191.961 28.1367 191.867 28.1602C191.312 28.332 191.02 28.9727 190.988 30.082L191.891 30.1172C192.219 30.125 192.469 30.1055 192.641 30.0586C192.906 29.9648 193.039 29.7344 193.039 29.3672C193.039 29.2344 193.027 29.1055 193.004 28.9805C192.91 28.4102 192.621 28.125 192.137 28.125ZM194.281 31.8164C194.234 31.9336 194.176 32.0508 194.105 32.168C193.707 32.8008 193.062 33.1172 192.172 33.1172C191.648 33.1172 191.176 33 190.754 32.7656C189.965 32.3047 189.57 31.5391 189.57 30.4688C189.57 29.8125 189.738 29.2539 190.074 28.793C190.551 28.1445 191.238 27.8203 192.137 27.8203C192.629 27.8203 193.07 27.9141 193.461 28.1016C194.086 28.4141 194.398 28.8789 194.398 29.4961C194.398 29.668 194.359 29.8164 194.281 29.9414C194.047 30.3008 193.344 30.4688 192.172 30.4453L190.988 30.4219C190.988 30.4297 190.988 30.4375 190.988 30.4453C191.027 32 191.504 32.7773 192.418 32.7773C192.59 32.7773 192.758 32.75 192.922 32.6953C193.414 32.5391 193.773 32.2148 194 31.7227L194.281 31.8164ZM198.043 32.6953C198.082 32.6953 198.117 32.6992 198.148 32.707C198.266 32.7227 198.324 32.8203 198.324 33H195.031V32.6953C195.172 32.6953 195.293 32.6875 195.395 32.6719C195.746 32.6172 195.922 32.4141 195.922 32.0625V28.2891H195.008V27.9844H195.922V27.8203C195.922 27.2266 196.039 26.7266 196.273 26.3203C196.656 25.6562 197.285 25.3242 198.16 25.3242C198.535 25.3242 198.859 25.3867 199.133 25.5117C199.531 25.707 199.73 25.9688 199.73 26.2969C199.73 26.3516 199.723 26.4062 199.707 26.4609C199.629 26.7031 199.438 26.8242 199.133 26.8242C198.992 26.8242 198.871 26.7695 198.77 26.6602C198.707 26.5977 198.598 26.4023 198.441 26.0742C198.301 25.7773 198.129 25.6289 197.926 25.6289C197.793 25.6289 197.676 25.668 197.574 25.7461C197.332 25.9727 197.211 26.6953 197.211 27.9141V27.9844H198.547V28.2891H197.211V32.6953H198.043ZM201.793 32.6953C201.832 32.6953 201.867 32.6992 201.898 32.707C202.016 32.7227 202.074 32.8203 202.074 33H198.898V32.6953C199.055 32.6953 199.184 32.6836 199.285 32.6602C199.52 32.5977 199.637 32.3984 199.637 32.0625V28.2773H198.898V27.9844H200.832L200.902 29.0859C200.996 28.8594 201.125 28.6562 201.289 28.4766C201.664 28.0859 202.09 27.8906 202.566 27.8906C202.66 27.8906 202.754 27.9023 202.848 27.9258C203.215 28.0195 203.398 28.2539 203.398 28.6289C203.398 28.7227 203.379 28.8125 203.34 28.8984C203.223 29.1719 203.023 29.3086 202.742 29.3086C202.664 29.3086 202.59 29.2969 202.52 29.2734C202.371 29.2266 202.23 29.0781 202.098 28.8281C201.996 28.6484 201.895 28.5586 201.793 28.5586C201.73 28.5586 201.656 28.5859 201.57 28.6406C201.203 28.8984 200.992 29.4023 200.938 30.1523V32.6953H201.793ZM206.41 28.125C206.324 28.125 206.234 28.1367 206.141 28.1602C205.586 28.332 205.293 28.9727 205.262 30.082L206.164 30.1172C206.492 30.125 206.742 30.1055 206.914 30.0586C207.18 29.9648 207.312 29.7344 207.312 29.3672C207.312 29.2344 207.301 29.1055 207.277 28.9805C207.184 28.4102 206.895 28.125 206.41 28.125ZM208.555 31.8164C208.508 31.9336 208.449 32.0508 208.379 32.168C207.98 32.8008 207.336 33.1172 206.445 33.1172C205.922 33.1172 205.449 33 205.027 32.7656C204.238 32.3047 203.844 31.5391 203.844 30.4688C203.844 29.8125 204.012 29.2539 204.348 28.793C204.824 28.1445 205.512 27.8203 206.41 27.8203C206.902 27.8203 207.344 27.9141 207.734 28.1016C208.359 28.4141 208.672 28.8789 208.672 29.4961C208.672 29.668 208.633 29.8164 208.555 29.9414C208.32 30.3008 207.617 30.4688 206.445 30.4453L205.262 30.4219C205.262 30.4297 205.262 30.4375 205.262 30.4453C205.301 32 205.777 32.7773 206.691 32.7773C206.863 32.7773 207.031 32.75 207.195 32.6953C207.688 32.5391 208.047 32.2148 208.273 31.7227L208.555 31.8164ZM211.262 32.7891C211.785 32.7891 212.109 32.6133 212.234 32.2617C212.258 32.1836 212.27 32.1055 212.27 32.0273C212.27 31.6523 212.023 31.3359 211.531 31.0781C211.422 31.0234 211.25 30.9453 211.016 30.8438C210.414 30.5781 210.012 30.3359 209.809 30.1172C209.598 29.8672 209.492 29.5781 209.492 29.25C209.492 28.6328 209.828 28.207 210.5 27.9727C210.797 27.8711 211.129 27.8203 211.496 27.8203C212.066 27.8203 212.535 27.9297 212.902 28.1484C212.902 27.9141 212.965 27.7852 213.09 27.7617C213.129 27.7539 213.168 27.75 213.207 27.75V29.2148H212.855C212.824 28.5039 212.434 28.1445 211.684 28.1367C211.16 28.1367 210.836 28.3008 210.711 28.6289C210.68 28.7148 210.664 28.8008 210.664 28.8867C210.664 29.2148 210.898 29.5 211.367 29.7422C211.469 29.7891 211.633 29.8633 211.859 29.9648C212.477 30.2305 212.887 30.4766 213.09 30.7031C213.324 30.9688 213.441 31.2812 213.441 31.6406C213.441 32.3047 213.098 32.75 212.41 32.9766C212.129 33.0703 211.816 33.1172 211.473 33.1172C210.816 33.1172 210.266 32.9883 209.82 32.7305C209.82 32.9336 209.77 33.0508 209.668 33.082C209.621 33.0898 209.566 33.0938 209.504 33.0938V31.3125H209.879C209.895 32.2891 210.355 32.7812 211.262 32.7891ZM216.535 32.6953C216.582 32.6953 216.629 32.6992 216.676 32.707C216.777 32.7305 216.828 32.8281 216.828 33H214.109V32.6953C214.242 32.6953 214.355 32.6875 214.449 32.6719C214.723 32.6172 214.859 32.4141 214.859 32.0625V25.6875H214.109V25.3828H216.148V28.957C216.211 28.8086 216.293 28.6641 216.395 28.5234C216.77 28.0547 217.273 27.8203 217.906 27.8203C218.133 27.8203 218.344 27.8594 218.539 27.9375C219.172 28.2031 219.488 28.8008 219.488 29.7305V32.6953H219.934C219.98 32.6953 220.027 32.6992 220.074 32.707C220.176 32.7305 220.227 32.8281 220.227 33H217.625V32.6953C217.805 32.6953 217.938 32.6758 218.023 32.6367C218.141 32.5742 218.199 32.3828 218.199 32.0625V29.5898C218.199 29.4258 218.184 29.2773 218.152 29.1445C218.027 28.6602 217.738 28.418 217.285 28.418C217.129 28.418 216.973 28.4609 216.816 28.5469C216.371 28.8047 216.148 29.2812 216.148 29.9766V32.6953H216.535Z" fill="#050505"/>
    </g>
    <defs>
        <filter id="filter0_d_4885_68485" x="136" y="6" width="101" height="50" filterUnits="userSpaceOnUse" color-interpolation-filters="sRGB">
            <feFlood flood-opacity="0" result="BackgroundImageFix"/>
            <feColorMatrix in="SourceAlpha" type="matrix" values="0 0 0 0 0 0 0 0 0 0 0 0 0 0 0 0 0 0 127 0" result="hardAlpha"/>
            <feMorphology radius="1" operator="dilate" in="SourceAlpha" result="effect1_dropShadow_4885_68485"/>
            <feOffset dx="-1" dy="1"/>
            <feGaussianBlur stdDeviation="2"/>
            <feComposite in2="hardAlpha" operator="out"/>
            <feColorMatrix type="matrix" values="0 0 0 0 0 0 0 0 0 0 0 0 0 0 0 0 0 0 0.1 0"/>
            <feBlend mode="normal" in2="BackgroundImageFix" result="effect1_dropShadow_4885_68485"/>
            <feBlend mode="normal" in="SourceGraphic" in2="effect1_dropShadow_4885_68485" result="shape"/>
        </filter>
        <clipPath id="clip0_4885_68485">
            <rect x="154" y="22" width="16" height="16" rx="8" fill="white"/>
        </clipPath>
    </defs>
</svg>
