<svg width="18" height="19" viewBox="0 0 18 19" fill="none" xmlns="http://www.w3.org/2000/svg">
<path fill-rule="evenodd" clip-rule="evenodd" d="M15.364 0.0576172C15.7782 0.0576172 16.114 0.393404 16.114 0.807617V5.05026C16.114 5.46447 15.7782 5.80026 15.364 5.80026H11.1213C10.7071 5.80026 10.3713 5.46447 10.3713 5.05026C10.3713 4.63604 10.7071 4.30026 11.1213 4.30026H13.4817C10.6363 2.05718 6.4987 2.24825 3.87348 4.87348C1.04217 7.70478 1.04217 12.2952 3.87348 15.1265C6.70478 17.9578 11.2952 17.9578 14.1265 15.1265C16.0234 13.2297 16.6504 10.5428 16.0039 8.12187C15.897 7.72168 16.1348 7.31063 16.535 7.20376C16.9352 7.09689 17.3462 7.33467 17.4531 7.73486C18.2321 10.6518 17.478 13.8964 15.1872 16.1872C11.7701 19.6043 6.2299 19.6043 2.81282 16.1872C-0.604272 12.7701 -0.604272 7.22991 2.81282 3.81282C6.04483 0.580805 11.1762 0.405757 14.614 3.28768V0.807617C14.614 0.393404 14.9497 0.0576172 15.364 0.0576172Z" fill="#828DA9"/>
</svg>
