<svg width="172" height="24" viewBox="0 0 172 24" fill="none" xmlns="http://www.w3.org/2000/svg">
    <rect width="24" height="24" rx="12" fill="#C2F6AE"/>
    <path fill-rule="evenodd" clip-rule="evenodd" d="M15.4881 4.43057C15.8026 4.70014 15.839 5.17361 15.5694 5.48811L9.98781 12L15.5694 18.5119C15.839 18.8264 15.8026 19.2999 15.4881 19.5695C15.1736 19.839 14.7001 19.8026 14.4306 19.4881L8.43056 12.4881C8.18981 12.2072 8.18981 11.7928 8.43056 11.5119L14.4306 4.51192C14.7001 4.19743 15.1736 4.161 15.4881 4.43057Z" fill="#828DA9"/>
    <path d="M37.336 16.564C35.4267 16.564 34.136 16.22 33.464 15.532C32.792 14.844 32.456 13.868 32.456 12.604H35.184C35.184 13.5267 35.3787 14.1133 35.768 14.364C36.1573 14.6093 36.6747 14.732 37.32 14.732C37.96 14.732 38.4747 14.6333 38.864 14.436C39.2587 14.2387 39.456 13.9373 39.456 13.532C39.456 13.0573 39.1867 12.732 38.648 12.556C38.1147 12.38 37.3787 12.1987 36.44 12.012C34.952 11.692 33.9173 11.3293 33.336 10.924C32.7547 10.5187 32.464 9.85467 32.464 8.932C32.464 8.02 32.8053 7.23867 33.488 6.588C34.176 5.93733 35.4427 5.612 37.288 5.612C39.1493 5.612 40.4187 5.96667 41.096 6.676C41.7787 7.38 42.12 8.32933 42.12 9.524H39.4C39.4 8.62267 39.1973 8.052 38.792 7.812C38.3867 7.56667 37.8747 7.444 37.256 7.444C36.6053 7.444 36.0827 7.548 35.688 7.756C35.2933 7.95867 35.096 8.24667 35.096 8.62C35.096 9.12133 35.368 9.46 35.912 9.636C36.4613 9.80667 37.2 9.988 38.128 10.18C39.664 10.4947 40.7147 10.8413 41.28 11.22C41.8507 11.5933 42.136 12.2387 42.136 13.156C42.136 14.1 41.8027 14.9053 41.136 15.572C40.4693 16.2333 39.2027 16.564 37.336 16.564ZM48.1318 16.596C46.3398 16.596 45.0838 16.164 44.3638 15.3C43.6491 14.4307 43.2918 13.2493 43.2918 11.756C43.2918 10.2253 43.6518 9.03867 44.3718 8.196C45.0918 7.348 46.3291 6.924 48.0838 6.924C49.8811 6.924 51.1238 7.35333 51.8118 8.212C52.5051 9.07067 52.8518 10.2493 52.8518 11.748C52.8518 12.0467 52.8331 12.3133 52.7958 12.548H45.6438V10.924H50.2838L50.1878 11.164C50.1878 10.252 50.0011 9.60667 49.6278 9.228C49.2598 8.84933 48.7451 8.66 48.0838 8.66C47.4331 8.66 46.9051 8.86533 46.4998 9.276C46.0944 9.68667 45.8918 10.5133 45.8918 11.756C45.8918 12.972 46.0918 13.7933 46.4918 14.22C46.8971 14.6467 47.4438 14.86 48.1318 14.86V16.596ZM48.1318 14.86C48.5318 14.86 48.8624 14.8067 49.1238 14.7C49.3851 14.5933 49.5931 14.4147 49.7478 14.164C49.9078 13.9133 50.0438 13.6173 50.1558 13.276L52.5638 13.956C52.4464 14.58 52.1904 15.084 51.7958 15.468C51.4064 15.852 50.9344 16.1373 50.3798 16.324C49.8304 16.5053 49.0811 16.596 48.1318 16.596V14.86ZM58.5964 16.596C56.8257 16.596 55.5884 16.1773 54.8844 15.34C54.1857 14.4973 53.8364 13.3107 53.8364 11.78C53.8364 10.212 54.1857 9.012 54.8844 8.18C55.5884 7.348 56.8257 6.932 58.5964 6.932C60.1697 6.932 61.2604 7.27333 61.8684 7.956C62.4817 8.63867 62.839 9.356 62.9404 10.108L60.5484 10.94C60.5057 10.2147 60.3137 9.676 59.9724 9.324C59.6364 8.96667 59.1777 8.788 58.5964 8.788C58.0204 8.788 57.5404 8.988 57.1564 9.388C56.7724 9.788 56.5804 10.5853 56.5804 11.78C56.5804 12.9267 56.7724 13.708 57.1564 14.124C57.5404 14.54 58.0204 14.748 58.5964 14.748C59.1777 14.748 59.6364 14.5613 59.9724 14.188C60.3137 13.8147 60.5057 13.292 60.5484 12.62L62.9404 13.484C62.839 14.1827 62.4817 14.876 61.8684 15.564C61.2604 16.252 60.1697 16.596 58.5964 16.596ZM71.0738 16.5L70.4578 14.988V7.02H73.1378V16.5H71.0738ZM66.8818 7.012V12.036C66.8818 13.0867 67.0044 13.7987 67.2498 14.172C67.5004 14.5453 67.8924 14.732 68.4258 14.732C68.9804 14.732 69.4578 14.516 69.8578 14.084C70.2631 13.6467 70.4658 13.0627 70.4658 12.332L71.7778 12.884C71.7778 13.7213 71.3964 14.548 70.6338 15.364C69.8764 16.1747 68.8098 16.58 67.4338 16.58C66.1964 16.58 65.3484 16.18 64.8898 15.38C64.4311 14.58 64.2018 13.508 64.2018 12.164V7.012H66.8818ZM80.7989 11.692C80.7989 10.4973 80.6629 9.716 80.3909 9.348C80.1189 8.97467 79.7402 8.788 79.2549 8.788C78.6895 8.788 78.2415 8.98533 77.9109 9.38C77.5802 9.76933 77.4149 10.2173 77.4149 10.724L76.3829 10.108C76.3829 9.212 76.7402 8.46 77.4549 7.852C78.1695 7.23867 79.1055 6.932 80.2629 6.932C81.5162 6.932 82.3669 7.31867 82.8149 8.092C83.2629 8.86 83.4869 10.06 83.4869 11.692H80.7989ZM74.7349 16.5V7.02H76.8149L77.4229 8.66V16.5H74.7349ZM85.271 16.5V7.012H87.967V16.5H85.271ZM85.271 4.164H87.967V6.044H85.271V4.164ZM94.235 16.62C93.3923 16.62 92.6777 16.444 92.091 16.092C91.5097 15.7347 91.219 15.092 91.219 14.164V8.868H89.051V7.02H91.219V4.852H93.915V7.02H96.827V8.868H93.915V13.572C93.915 14.0893 94.0217 14.428 94.235 14.588C94.4537 14.7427 94.7603 14.82 95.155 14.82C95.5497 14.82 95.9363 14.7533 96.315 14.62V16.396C95.6537 16.5453 94.9603 16.62 94.235 16.62ZM100.247 16.5L97.5514 7.02H100.367L102.575 15.436H102.015L104.191 7.02H107.007L104.351 16.5H100.247ZM98.2474 20.228V18.412C99.346 18.4067 100.167 18.284 100.711 18.044C101.255 17.8093 101.639 17.292 101.863 16.492L104.351 16.5C103.914 18.0307 103.194 19.0333 102.191 19.508C101.194 19.988 99.8794 20.228 98.2474 20.228Z" fill="#050505"/>
</svg>
