<svg width="24" height="24" viewBox="0 0 24 24" fill="none" xmlns="http://www.w3.org/2000/svg">
    <g clip-path="url(#clip0_4814_7129)">
        <path d="M11.25 2.07422C10.6437 2.18732 9.93159 2.43108 8.83772 2.80552L8.26491 3.00159C5.25832 4.03076 3.75503 4.54534 3.37752 5.08321C3.00825 5.60933 3.00018 7.15054 3 10.2102L11.25 7.46023V2.07422Z" fill="#49526A"/>
        <path d="M11.25 9.04137L3 11.7914V11.9922C3 17.6302 7.23896 20.3663 9.89856 21.5281C10.4093 21.7512 10.7392 21.8953 11.25 21.9605V9.04137Z" fill="#49526A"/>
        <path d="M12.75 21.9605V9.04137L21 11.7914V11.9922C21 17.6302 16.761 20.3663 14.1014 21.5281C13.5907 21.7512 13.2608 21.8953 12.75 21.9605Z" fill="#49526A"/>
        <path d="M12.75 7.46023V2.07422C13.3563 2.18732 14.0684 2.43108 15.1623 2.80552L15.7351 3.00159C18.7417 4.03076 20.245 4.54534 20.6225 5.08321C20.9918 5.60933 20.9998 7.15054 21 10.2102L12.75 7.46023Z" fill="#49526A"/>
    </g>
    <defs>
        <clipPath id="clip0_4814_7129">
            <rect width="24" height="24" rx="8" fill="white"/>
        </clipPath>
    </defs>
</svg>
