<svg width="375" height="58" viewBox="0 0 375 58" fill="none" xmlns="http://www.w3.org/2000/svg">
<rect x="16" y="17" width="24" height="24" rx="12" fill="#C2F6AE"/>
<path fill-rule="evenodd" clip-rule="evenodd" d="M31.4881 21.4306C31.8026 21.7001 31.839 22.1736 31.5694 22.4881L25.9878 29L31.5694 35.5119C31.839 35.8264 31.8026 36.2999 31.4881 36.5695C31.1736 36.839 30.7001 36.8026 30.4306 36.4881L24.4306 29.4881C24.1898 29.2072 24.1898 28.7928 24.4306 28.5119L30.4306 21.5119C30.7001 21.1974 31.1736 21.161 31.4881 21.4306Z" fill="#828DA9"/>
<path d="M53.336 33.564C51.4267 33.564 50.136 33.22 49.464 32.532C48.792 31.844 48.456 30.868 48.456 29.604H51.184C51.184 30.5267 51.3787 31.1133 51.768 31.364C52.1573 31.6093 52.6747 31.732 53.32 31.732C53.96 31.732 54.4747 31.6333 54.864 31.436C55.2587 31.2387 55.456 30.9373 55.456 30.532C55.456 30.0573 55.1867 29.732 54.648 29.556C54.1147 29.38 53.3787 29.1987 52.44 29.012C50.952 28.692 49.9173 28.3293 49.336 27.924C48.7547 27.5187 48.464 26.8547 48.464 25.932C48.464 25.02 48.8053 24.2387 49.488 23.588C50.176 22.9373 51.4427 22.612 53.288 22.612C55.1493 22.612 56.4187 22.9667 57.096 23.676C57.7787 24.38 58.12 25.3293 58.12 26.524H55.4C55.4 25.6227 55.1973 25.052 54.792 24.812C54.3867 24.5667 53.8747 24.444 53.256 24.444C52.6053 24.444 52.0827 24.548 51.688 24.756C51.2933 24.9587 51.096 25.2467 51.096 25.62C51.096 26.1213 51.368 26.46 51.912 26.636C52.4613 26.8067 53.2 26.988 54.128 27.18C55.664 27.4947 56.7147 27.8413 57.28 28.22C57.8507 28.5933 58.136 29.2387 58.136 30.156C58.136 31.1 57.8027 31.9053 57.136 32.572C56.4693 33.2333 55.2027 33.564 53.336 33.564ZM64.1318 33.596C62.3398 33.596 61.0838 33.164 60.3638 32.3C59.6491 31.4307 59.2918 30.2493 59.2918 28.756C59.2918 27.2253 59.6518 26.0387 60.3718 25.196C61.0918 24.348 62.3291 23.924 64.0838 23.924C65.8811 23.924 67.1238 24.3533 67.8118 25.212C68.5051 26.0707 68.8518 27.2493 68.8518 28.748C68.8518 29.0467 68.8331 29.3133 68.7958 29.548H61.6438V27.924H66.2838L66.1878 28.164C66.1878 27.252 66.0011 26.6067 65.6278 26.228C65.2598 25.8493 64.7451 25.66 64.0838 25.66C63.4331 25.66 62.9051 25.8653 62.4998 26.276C62.0944 26.6867 61.8918 27.5133 61.8918 28.756C61.8918 29.972 62.0918 30.7933 62.4918 31.22C62.8971 31.6467 63.4438 31.86 64.1318 31.86V33.596ZM64.1318 31.86C64.5318 31.86 64.8624 31.8067 65.1238 31.7C65.3851 31.5933 65.5931 31.4147 65.7478 31.164C65.9078 30.9133 66.0438 30.6173 66.1558 30.276L68.5638 30.956C68.4464 31.58 68.1904 32.084 67.7958 32.468C67.4064 32.852 66.9344 33.1373 66.3798 33.324C65.8304 33.5053 65.0811 33.596 64.1318 33.596V31.86ZM74.5964 33.596C72.8257 33.596 71.5884 33.1773 70.8844 32.34C70.1857 31.4973 69.8364 30.3107 69.8364 28.78C69.8364 27.212 70.1857 26.012 70.8844 25.18C71.5884 24.348 72.8257 23.932 74.5964 23.932C76.1697 23.932 77.2604 24.2733 77.8684 24.956C78.4817 25.6387 78.839 26.356 78.9404 27.108L76.5484 27.94C76.5057 27.2147 76.3137 26.676 75.9724 26.324C75.6364 25.9667 75.1777 25.788 74.5964 25.788C74.0204 25.788 73.5404 25.988 73.1564 26.388C72.7724 26.788 72.5804 27.5853 72.5804 28.78C72.5804 29.9267 72.7724 30.708 73.1564 31.124C73.5404 31.54 74.0204 31.748 74.5964 31.748C75.1777 31.748 75.6364 31.5613 75.9724 31.188C76.3137 30.8147 76.5057 30.292 76.5484 29.62L78.9404 30.484C78.839 31.1827 78.4817 31.876 77.8684 32.564C77.2604 33.252 76.1697 33.596 74.5964 33.596ZM87.0738 33.5L86.4578 31.988V24.02H89.1378V33.5H87.0738ZM82.8818 24.012V29.036C82.8818 30.0867 83.0044 30.7987 83.2498 31.172C83.5004 31.5453 83.8924 31.732 84.4258 31.732C84.9804 31.732 85.4578 31.516 85.8578 31.084C86.2631 30.6467 86.4658 30.0627 86.4658 29.332L87.7778 29.884C87.7778 30.7213 87.3964 31.548 86.6338 32.364C85.8764 33.1747 84.8098 33.58 83.4338 33.58C82.1964 33.58 81.3484 33.18 80.8898 32.38C80.4311 31.58 80.2018 30.508 80.2018 29.164V24.012H82.8818ZM96.7989 28.692C96.7989 27.4973 96.6629 26.716 96.3909 26.348C96.1189 25.9747 95.7402 25.788 95.2549 25.788C94.6895 25.788 94.2415 25.9853 93.9109 26.38C93.5802 26.7693 93.4149 27.2173 93.4149 27.724L92.3829 27.108C92.3829 26.212 92.7402 25.46 93.4549 24.852C94.1695 24.2387 95.1055 23.932 96.2629 23.932C97.5162 23.932 98.3669 24.3187 98.8149 25.092C99.2629 25.86 99.4869 27.06 99.4869 28.692H96.7989ZM90.7349 33.5V24.02H92.8149L93.4229 25.66V33.5H90.7349ZM101.271 33.5V24.012H103.967V33.5H101.271ZM101.271 21.164H103.967V23.044H101.271V21.164ZM110.235 33.62C109.392 33.62 108.678 33.444 108.091 33.092C107.51 32.7347 107.219 32.092 107.219 31.164V25.868H105.051V24.02H107.219V21.852H109.915V24.02H112.827V25.868H109.915V30.572C109.915 31.0893 110.022 31.428 110.235 31.588C110.454 31.7427 110.76 31.82 111.155 31.82C111.55 31.82 111.936 31.7533 112.315 31.62V33.396C111.654 33.5453 110.96 33.62 110.235 33.62ZM116.247 33.5L113.551 24.02H116.367L118.575 32.436H118.015L120.191 24.02H123.007L120.351 33.5H116.247ZM114.247 37.228V35.412C115.346 35.4067 116.167 35.284 116.711 35.044C117.255 34.8093 117.639 34.292 117.863 33.492L120.351 33.5C119.914 35.0307 119.194 36.0333 118.191 36.508C117.194 36.988 115.879 37.228 114.247 37.228Z" fill="#050505"/>
</svg>
