<svg width="343" height="56" viewBox="0 0 343 56" fill="none" xmlns="http://www.w3.org/2000/svg">
<path d="M0 24C0 12.6863 0 7.02944 3.51472 3.51472C7.02944 0 12.6863 0 24 0H319C330.314 0 335.971 0 339.485 3.51472C343 7.02944 343 12.6863 343 24V32C343 43.3137 343 48.9706 339.485 52.4853C335.971 56 330.314 56 319 56H24C12.6863 56 7.02944 56 3.51472 52.4853C0 48.9706 0 43.3137 0 32V24Z" fill="white"/>
<rect y="12" width="32" height="32" rx="16" fill="#F6F8FA"/>
<g clip-path="url(#clip0_1036_8028)">
<path d="M15.25 18.0742C14.6437 18.1873 13.9316 18.4311 12.8377 18.8055L12.2649 19.0016C9.25832 20.0308 7.75503 20.5453 7.37752 21.0832C7.00825 21.6093 7.00018 23.1505 7 26.2102L15.25 23.4602V18.0742Z" fill="#49526A"/>
<path d="M15.25 25.0414L7 27.7914V27.9922C7 33.6302 11.239 36.3663 13.8986 37.5281C14.4093 37.7512 14.7392 37.8953 15.25 37.9605V25.0414Z" fill="#49526A"/>
<path d="M16.75 37.9605V25.0414L25 27.7914V27.9922C25 33.6302 20.761 36.3663 18.1014 37.5281C17.5907 37.7512 17.2608 37.8953 16.75 37.9605Z" fill="#49526A"/>
<path d="M16.75 23.4602V18.0742C17.3563 18.1873 18.0684 18.4311 19.1623 18.8055L19.7351 19.0016C22.7417 20.0308 24.245 20.5453 24.6225 21.0832C24.9918 21.6093 24.9998 23.1505 25 26.2102L16.75 23.4602Z" fill="#49526A"/>
</g>
<path d="M44.312 32.64C43.528 32.64 42.772 32.486 42.044 32.178C41.316 31.87 40.672 31.436 40.112 30.876L41.008 29.84C41.54 30.3627 42.0813 30.75 42.632 31.002C43.192 31.254 43.7753 31.38 44.382 31.38C44.858 31.38 45.2733 31.3147 45.628 31.184C45.992 31.044 46.272 30.848 46.468 30.596C46.664 30.344 46.762 30.0593 46.762 29.742C46.762 29.3033 46.608 28.9673 46.3 28.734C45.992 28.5007 45.4833 28.3233 44.774 28.202L43.136 27.936C42.24 27.7773 41.568 27.488 41.12 27.068C40.6813 26.648 40.462 26.088 40.462 25.388C40.462 24.828 40.6113 24.338 40.91 23.918C41.2087 23.4887 41.6287 23.1573 42.17 22.924C42.7207 22.6907 43.3553 22.574 44.074 22.574C44.7833 22.574 45.4787 22.6907 46.16 22.924C46.8507 23.148 47.4713 23.4747 48.022 23.904L47.21 25.024C46.1553 24.2213 45.0867 23.82 44.004 23.82C43.5747 23.82 43.2013 23.8807 42.884 24.002C42.5667 24.1233 42.3193 24.296 42.142 24.52C41.9647 24.7347 41.876 24.9867 41.876 25.276C41.876 25.6773 42.0113 25.9853 42.282 26.2C42.5527 26.4053 43.0007 26.5547 43.626 26.648L45.208 26.914C46.244 27.082 47.0047 27.3853 47.49 27.824C47.9753 28.2627 48.218 28.8647 48.218 29.63C48.218 30.2273 48.0547 30.7547 47.728 31.212C47.4013 31.66 46.944 32.01 46.356 32.262C45.768 32.514 45.0867 32.64 44.312 32.64ZM52.9647 32.626C52.2647 32.626 51.63 32.4627 51.0607 32.136C50.5007 31.8093 50.0527 31.366 49.7167 30.806C49.39 30.246 49.2267 29.6207 49.2267 28.93C49.2267 28.2487 49.3853 27.6327 49.7027 27.082C50.02 26.522 50.4493 26.0787 50.9907 25.752C51.532 25.416 52.134 25.248 52.7967 25.248C53.4593 25.248 54.0473 25.416 54.5607 25.752C55.074 26.0787 55.48 26.5267 55.7787 27.096C56.0867 27.656 56.2407 28.2907 56.2407 29V29.392H50.6267C50.7013 29.784 50.846 30.134 51.0607 30.442C51.2847 30.75 51.5647 30.9927 51.9007 31.17C52.246 31.3473 52.6193 31.436 53.0207 31.436C53.366 31.436 53.6973 31.3847 54.0147 31.282C54.3413 31.17 54.612 31.0113 54.8267 30.806L55.7227 31.688C55.3027 32.0053 54.8687 32.2433 54.4207 32.402C53.982 32.5513 53.4967 32.626 52.9647 32.626ZM50.6407 28.342H54.8547C54.7987 27.9687 54.668 27.642 54.4627 27.362C54.2667 27.0727 54.0193 26.8487 53.7207 26.69C53.4313 26.522 53.114 26.438 52.7687 26.438C52.414 26.438 52.0873 26.5173 51.7887 26.676C51.49 26.8347 51.238 27.0587 51.0327 27.348C50.8367 27.628 50.706 27.9593 50.6407 28.342ZM60.9474 32.626C60.2661 32.626 59.6454 32.4627 59.0854 32.136C58.5254 31.8093 58.0821 31.366 57.7554 30.806C57.4381 30.246 57.2794 29.6207 57.2794 28.93C57.2794 28.2393 57.4427 27.6187 57.7694 27.068C58.0961 26.508 58.5347 26.0647 59.0854 25.738C59.6454 25.402 60.2661 25.234 60.9474 25.234C61.4887 25.234 62.0067 25.3367 62.5014 25.542C63.0054 25.7473 63.4394 26.0367 63.8034 26.41L62.9354 27.376C62.6647 27.0773 62.3614 26.8533 62.0254 26.704C61.6894 26.5547 61.3394 26.48 60.9754 26.48C60.5461 26.48 60.1541 26.5873 59.7994 26.802C59.4541 27.0167 59.1787 27.3107 58.9734 27.684C58.7681 28.0573 58.6654 28.4727 58.6654 28.93C58.6654 29.3873 58.7681 29.8027 58.9734 30.176C59.1787 30.5493 59.4587 30.848 59.8134 31.072C60.1681 31.2867 60.5647 31.394 61.0034 31.394C61.3674 31.394 61.7081 31.324 62.0254 31.184C62.3427 31.0347 62.6414 30.82 62.9214 30.54L63.7754 31.436C63.4021 31.8187 62.9681 32.1127 62.4734 32.318C61.9881 32.5233 61.4794 32.626 60.9474 32.626ZM67.6602 32.64C67.1095 32.64 66.6242 32.5233 66.2042 32.29C65.7842 32.0567 65.4575 31.73 65.2242 31.31C64.9908 30.8807 64.8742 30.3907 64.8742 29.84V25.374H66.2602V29.602C66.2602 30.162 66.4188 30.6053 66.7362 30.932C67.0628 31.2587 67.4968 31.422 68.0382 31.422C68.4208 31.422 68.7615 31.3427 69.0602 31.184C69.3588 31.016 69.6015 30.7827 69.7882 30.484V25.374H71.1882V32.5H69.7882V31.772C69.2375 32.3507 68.5282 32.64 67.6602 32.64ZM72.8455 32.5V25.374H74.2455V26.284C74.4695 25.948 74.7449 25.6867 75.0715 25.5C75.4075 25.304 75.7855 25.206 76.2055 25.206C76.4949 25.2153 76.7329 25.2573 76.9195 25.332V26.592C76.7889 26.536 76.6535 26.4987 76.5135 26.48C76.3735 26.452 76.2335 26.438 76.0935 26.438C75.6829 26.438 75.3189 26.55 75.0015 26.774C74.6842 26.9887 74.4322 27.306 74.2455 27.726V32.5H72.8455ZM78.0408 32.5V25.374H79.4408V32.5H78.0408ZM78.7408 24.226C78.5075 24.226 78.3068 24.142 78.1388 23.974C77.9708 23.7967 77.8868 23.5913 77.8868 23.358C77.8868 23.1153 77.9708 22.9147 78.1388 22.756C78.3068 22.588 78.5075 22.504 78.7408 22.504C78.9835 22.504 79.1888 22.588 79.3568 22.756C79.5248 22.9147 79.6088 23.1153 79.6088 23.358C79.6088 23.5913 79.5248 23.7967 79.3568 23.974C79.1888 24.142 78.9835 24.226 78.7408 24.226ZM84.1417 32.626C83.451 32.626 82.9237 32.4673 82.5597 32.15C82.1957 31.8233 82.0137 31.352 82.0137 30.736V26.55H80.5017V25.374H82.0137V23.554L83.3997 23.218V25.374H85.4997V26.55H83.3997V30.414C83.3997 30.778 83.479 31.0393 83.6377 31.198C83.8057 31.3473 84.0763 31.422 84.4497 31.422C84.6457 31.422 84.8183 31.408 84.9677 31.38C85.1263 31.352 85.2943 31.31 85.4717 31.254V32.43C85.285 32.4953 85.0657 32.542 84.8137 32.57C84.571 32.6073 84.347 32.626 84.1417 32.626ZM87.1438 35.51C86.9945 35.51 86.8545 35.5007 86.7238 35.482C86.5931 35.4727 86.4858 35.454 86.4018 35.426V34.194C86.5698 34.2313 86.7751 34.25 87.0178 34.25C87.6711 34.25 88.1425 33.9 88.4318 33.2L88.7398 32.514L85.8838 25.374H87.4378L89.5098 30.806L91.8058 25.374H93.3178L89.8738 33.382C89.6498 33.886 89.4118 34.292 89.1598 34.6C88.9078 34.9173 88.6185 35.146 88.2918 35.286C87.9651 35.4353 87.5825 35.51 87.1438 35.51Z" fill="#050505"/>
<path fill-rule="evenodd" clip-rule="evenodd" d="M328.675 22.9544C328.884 22.7747 329.2 22.7989 329.38 23.0086L333.38 27.6753C333.54 27.8625 333.54 28.1388 333.38 28.3261L329.38 32.9927C329.2 33.2024 328.884 33.2267 328.675 33.047C328.465 32.8672 328.441 32.5516 328.62 32.3419L332.341 28.0007L328.62 23.6594C328.441 23.4497 328.465 23.1341 328.675 22.9544Z" fill="#CCD0DC"/>
<defs>
<clipPath id="clip0_1036_8028">
<rect x="4" y="16" width="24" height="24" rx="8" fill="white"/>
</clipPath>
</defs>
</svg>
