<svg width="25" height="24" viewBox="0 0 25 24" fill="none" xmlns="http://www.w3.org/2000/svg">
<path fill-rule="evenodd" clip-rule="evenodd" d="M18.3937 3.63083C17.2237 3.83896 15.6464 4.36262 13.4327 5.10051L8.42141 6.77094C6.64139 7.36428 5.3521 7.79468 4.44146 8.182C3.48939 8.58693 3.15071 8.86919 3.04071 9.0584C2.70191 9.64118 2.70191 10.361 3.04071 10.9437C3.15071 11.1329 3.48939 11.4152 4.44146 11.8201C5.3521 12.2075 6.64139 12.6379 8.42141 13.2312C8.44952 13.2406 8.47727 13.2498 8.50468 13.2589C8.99086 13.4206 9.36881 13.5464 9.69395 13.764C10.0072 13.9737 10.2763 14.2428 10.486 14.5561C10.7036 14.8812 10.8294 15.2592 10.9911 15.7453C11.0002 15.7727 11.0094 15.8005 11.0188 15.8286C11.6121 17.6086 12.0425 18.8979 12.4299 19.8085C12.8348 20.7606 13.117 21.0993 13.3063 21.2093C13.889 21.5481 14.6088 21.5481 15.1916 21.2093C15.3808 21.0993 15.6631 20.7606 16.068 19.8085C16.4553 18.8979 16.8857 17.6086 17.4791 15.8286L19.1495 10.8173C19.8874 8.60363 20.411 7.02627 20.6192 5.85629C20.8283 4.68074 20.6685 4.1814 20.3685 3.88146C20.0686 3.58152 19.5693 3.42171 18.3937 3.63083ZM18.1246 2.11797C19.4268 1.88632 20.5996 1.93941 21.4551 2.79491C22.3106 3.65041 22.3637 4.82322 22.132 6.12542C21.9018 7.41975 21.3403 9.10415 20.6294 11.2367L18.9245 16.3515C18.346 18.0869 17.8965 19.4354 17.482 20.41C17.0822 21.35 16.6382 22.1457 15.9639 22.5377C14.9037 23.1541 13.5942 23.1541 12.534 22.5377C11.8596 22.1457 11.4157 21.35 11.0158 20.41C10.6013 19.4354 10.1518 18.0869 9.57338 16.3515L9.56105 16.3145C9.35838 15.7065 9.29661 15.5416 9.20909 15.4109C9.11114 15.2646 8.98545 15.1389 8.83913 15.0409C8.7084 14.9534 8.54348 14.8916 7.93549 14.689L7.89845 14.6766C6.16306 14.0982 4.81463 13.6487 3.84005 13.2342C2.89996 12.8343 2.10431 12.3904 1.71228 11.716C1.09591 10.6558 1.09591 9.34634 1.71228 8.28611C2.10431 7.61177 2.89996 7.16781 3.84005 6.76797C4.81464 6.35345 6.16309 5.90397 7.89852 5.3255L13.0133 3.62057C15.1459 2.9097 16.8303 2.34822 18.1246 2.11797ZM17.9307 6.32532C18.2291 6.62702 18.2264 7.11348 17.9247 7.41185L13.8271 11.4643C13.5254 11.7627 13.0389 11.76 12.7405 11.4583C12.4421 11.1566 12.4448 10.6701 12.7465 10.3718L16.8442 6.3193C17.1459 6.02092 17.6323 6.02362 17.9307 6.32532Z" fill="#828DA9"/>
</svg>
