<svg width="375" height="812" viewBox="0 0 375 812" fill="none" xmlns="http://www.w3.org/2000/svg">
    <g clip-path="url(#clip0_1389_7382)">
        <rect width="375" height="812" fill="#185C32"/>
        <path opacity="0.2" d="M293.412 240.793C331.23 176.687 418.468 234.585 457.36 271.547L702.23 575.907L147.483 1022.22L-266.554 507.601C86.5002 531.5 161 806 296.552 747.289C366.565 716.964 311.24 558.781 293.185 493.573C277.503 436.024 255.593 304.899 293.412 240.793Z" fill="url(#paint0_linear_1389_7382)"/>
        <g filter="url(#filter0_f_1389_7382)">
            <rect x="-84" y="-92.4761" width="353.796" height="383.38" rx="109.5" transform="rotate(-21.0116 -84 -92.4761)" fill="#208D28"/>
        </g>
        <g filter="url(#filter1_f_1389_7382)">
            <rect x="-36" y="609.524" width="219" height="383.38" rx="109.5" transform="rotate(-21.0116 -36 609.524)" fill="#167625"/>
        </g>
        <path d="M158.741 377.707C157.175 389.609 157.39 402.123 157.826 409.23C158.037 413.939 158.61 421.394 160.703 416.816C163.632 410.41 164.889 404.652 166.066 398.896C166.844 395.092 170.121 378.491 170.644 371.951C171.109 366.137 168.665 361.501 164.627 364.626C160.572 367.766 159.257 373.782 158.741 377.707Z" fill="#2FB763"/>
        <path d="M176.399 367.766L164.366 414.331C162.665 419.956 164.758 424.664 170.121 415.377L177.446 398.896L189.349 367.766C190.308 364.932 190.918 359.028 185.686 358.086C180.454 357.144 177.315 364.147 176.399 367.766Z" fill="#2FB763"/>
        <path d="M194.058 367.766L173.26 416.293C170.644 422.702 174.176 421.394 176.399 418.386L184.64 407.529C189.349 401.12 199.918 386.392 204.522 378.753C209.126 371.114 209.492 367.504 209.492 364.626C209.492 362.272 208.917 358.086 204.522 358.086C200.127 358.086 195.889 363.449 194.058 367.766Z" fill="#2FB763"/>
        <path d="M206.091 383.462L183.594 416.293C179.146 422.833 184.64 423.757 189.087 419.04C191.965 415.988 197.459 410.381 198.505 409.23C199.813 407.791 212.258 393.614 216.294 387.647C219.302 383.2 218.518 371.951 217.994 367.766C217.291 362.141 213.888 363.235 213.286 366.85C211.847 375.483 209.492 378.753 206.091 383.462Z" fill="#2FB763"/>
        <path d="M210.539 400.858L197.72 415.377C191.18 423.226 196.151 422.31 201.513 419.825C206.484 417.521 215.248 413.285 216.294 404.913C217.34 396.542 213.547 397.327 210.539 400.858Z" fill="#2FB763"/>
        <path d="M158.741 377.707C157.175 389.609 157.39 402.123 157.826 409.23C158.037 413.939 158.61 421.394 160.703 416.816C163.632 410.41 164.889 404.652 166.066 398.896C166.844 395.092 170.121 378.491 170.644 371.951C171.109 366.137 168.665 361.501 164.627 364.626C160.572 367.766 159.257 373.782 158.741 377.707Z" stroke="#2FB763" stroke-width="1.06276"/>
        <path d="M176.399 367.766L164.366 414.331C162.665 419.956 164.758 424.664 170.121 415.377L177.446 398.896L189.349 367.766C190.308 364.932 190.918 359.028 185.686 358.086C180.454 357.144 177.315 364.147 176.399 367.766Z" stroke="#2FB763" stroke-width="1.06276"/>
        <path d="M194.058 367.766L173.26 416.293C170.644 422.702 174.176 421.394 176.399 418.386L184.64 407.529C189.349 401.12 199.918 386.392 204.522 378.753C209.126 371.114 209.492 367.504 209.492 364.626C209.492 362.272 208.917 358.086 204.522 358.086C200.127 358.086 195.889 363.449 194.058 367.766Z" stroke="#2FB763" stroke-width="1.06276"/>
        <path d="M206.091 383.462L183.594 416.293C179.146 422.833 184.64 423.757 189.087 419.04C191.965 415.988 197.459 410.381 198.505 409.23C199.813 407.791 212.258 393.614 216.294 387.647C219.302 383.2 218.518 371.951 217.994 367.766C217.291 362.141 213.888 363.235 213.286 366.85C211.847 375.483 209.492 378.753 206.091 383.462Z" stroke="#2FB763" stroke-width="1.06276"/>
        <path d="M210.539 400.858L197.72 415.377C191.18 423.226 196.151 422.31 201.513 419.825C206.484 417.521 215.248 413.285 216.294 404.913C217.34 396.542 213.547 397.327 210.539 400.858Z" stroke="#2FB763" stroke-width="1.06276"/>
        <path d="M127.64 454V440.572H122.816V437.8H136.544V440.572H131.732V454H127.64ZM144.018 454.144C141.33 454.144 139.446 453.496 138.366 452.2C137.294 450.896 136.758 449.124 136.758 446.884C136.758 444.588 137.298 442.808 138.378 441.544C139.458 440.272 141.314 439.636 143.946 439.636C146.642 439.636 148.506 440.28 149.538 441.568C150.578 442.856 151.098 444.624 151.098 446.872C151.098 447.32 151.07 447.72 151.014 448.072H140.286V445.636H147.246L147.102 445.996C147.102 444.628 146.822 443.66 146.262 443.092C145.71 442.524 144.938 442.24 143.946 442.24C142.97 442.24 142.178 442.548 141.57 443.164C140.962 443.78 140.658 445.02 140.658 446.884C140.658 448.708 140.958 449.94 141.558 450.58C142.166 451.22 142.986 451.54 144.018 451.54V454.144ZM144.018 451.54C144.618 451.54 145.114 451.46 145.506 451.3C145.898 451.14 146.21 450.872 146.442 450.496C146.682 450.12 146.886 449.676 147.054 449.164L150.666 450.184C150.49 451.12 150.106 451.876 149.514 452.452C148.93 453.028 148.222 453.456 147.39 453.736C146.566 454.008 145.442 454.144 144.018 454.144V451.54ZM153.391 454V435.16H157.435V454H153.391ZM160.211 454V435.16H164.255V454H160.211ZM171.999 454.156C171.439 454.156 170.887 454.124 170.343 454.06C169.807 453.996 169.303 453.876 168.831 453.7C168.359 453.516 167.943 453.26 167.583 452.932C167.223 452.604 166.939 452.18 166.731 451.66C166.531 451.14 166.431 450.504 166.431 449.752C166.431 449.024 166.531 448.412 166.731 447.916C166.939 447.412 167.219 447 167.571 446.68C167.923 446.36 168.331 446.112 168.795 445.936C169.259 445.76 169.755 445.64 170.283 445.576C170.811 445.504 171.347 445.468 171.891 445.468H176.379V444.916C176.379 444.268 176.251 443.756 175.995 443.38C175.747 443.004 175.403 442.74 174.963 442.588C174.531 442.428 174.043 442.348 173.499 442.348C173.003 442.348 172.551 442.424 172.143 442.576C171.735 442.728 171.391 442.976 171.111 443.32C170.839 443.664 170.647 444.124 170.535 444.7L166.587 443.596C166.731 442.884 166.995 442.28 167.379 441.784C167.771 441.28 168.267 440.872 168.867 440.56C169.475 440.24 170.167 440.008 170.943 439.864C171.727 439.712 172.575 439.636 173.487 439.636C174.919 439.636 176.155 439.808 177.195 440.152C178.235 440.496 179.035 441.068 179.595 441.868C180.155 442.668 180.435 443.756 180.435 445.132V454H177.075L176.727 452.368C176.631 452.584 176.451 452.8 176.187 453.016C175.923 453.224 175.583 453.416 175.167 453.592C174.759 453.76 174.287 453.896 173.751 454C173.223 454.104 172.639 454.156 171.999 454.156ZM172.911 451.624C173.303 451.624 173.691 451.588 174.075 451.516C174.467 451.444 174.823 451.34 175.143 451.204C175.471 451.068 175.743 450.908 175.959 450.724C176.175 450.532 176.315 450.324 176.379 450.1L176.475 447.7H172.839C172.519 447.7 172.219 447.724 171.939 447.772C171.659 447.812 171.411 447.9 171.195 448.036C170.987 448.172 170.823 448.368 170.703 448.624C170.583 448.88 170.523 449.216 170.523 449.632C170.523 450.056 170.587 450.4 170.715 450.664C170.851 450.92 171.031 451.12 171.255 451.264C171.487 451.4 171.743 451.496 172.023 451.552C172.311 451.6 172.607 451.624 172.911 451.624ZM185.46 454V440.572H180.636V437.8H194.364V440.572H189.552V454H185.46ZM204.081 446.788C204.081 444.996 203.877 443.824 203.469 443.272C203.061 442.712 202.493 442.432 201.765 442.432C200.917 442.432 200.245 442.728 199.749 443.32C199.253 443.904 199.005 444.576 199.005 445.336L197.457 444.412C197.457 443.068 197.993 441.94 199.065 441.028C200.137 440.108 201.541 439.648 203.277 439.648C205.157 439.648 206.433 440.228 207.105 441.388C207.777 442.54 208.113 444.34 208.113 446.788H204.081ZM194.985 454V439.78H198.105L199.017 442.24V454H194.985ZM220.665 454L219.741 451.732V439.78H223.761V454H220.665ZM214.377 439.768V447.304C214.377 448.88 214.561 449.948 214.929 450.508C215.305 451.068 215.893 451.348 216.693 451.348C217.525 451.348 218.241 451.024 218.841 450.376C219.449 449.72 219.753 448.844 219.753 447.748L221.721 448.576C221.721 449.832 221.149 451.072 220.005 452.296C218.869 453.512 217.269 454.12 215.205 454.12C213.349 454.12 212.077 453.52 211.389 452.32C210.701 451.12 210.357 449.512 210.357 447.496V439.768H214.377ZM233.189 454.12C231.317 454.12 229.741 453.836 228.461 453.268C227.181 452.7 226.353 451.724 225.977 450.34L229.505 449.044C229.689 449.86 230.105 450.472 230.753 450.88C231.401 451.288 232.233 451.492 233.249 451.492C234.089 451.492 234.741 451.364 235.205 451.108C235.669 450.844 235.901 450.48 235.901 450.016C235.901 449.384 235.485 448.98 234.653 448.804C233.821 448.628 232.757 448.436 231.461 448.228C229.837 447.98 228.533 447.536 227.549 446.896C226.573 446.248 226.085 445.204 226.085 443.764C226.085 442.356 226.689 441.32 227.897 440.656C229.105 439.992 230.689 439.66 232.649 439.66C234.561 439.66 236.125 439.94 237.341 440.5C238.557 441.052 239.337 442.004 239.681 443.356L236.141 444.628C235.957 443.9 235.553 443.324 234.929 442.9C234.305 442.476 233.529 442.264 232.601 442.264C231.729 442.264 231.085 442.396 230.669 442.66C230.261 442.924 230.057 443.288 230.057 443.752C230.057 444.36 230.453 444.756 231.245 444.94C232.037 445.116 233.053 445.3 234.293 445.492C235.885 445.724 237.213 446.128 238.277 446.704C239.349 447.272 239.885 448.276 239.885 449.716C239.885 451.292 239.305 452.42 238.145 453.1C236.985 453.78 235.333 454.12 233.189 454.12ZM248.587 454.18C247.323 454.18 246.251 453.916 245.371 453.388C244.499 452.852 244.063 451.888 244.063 450.496V442.552H240.811V439.78H244.063V436.528H248.107V439.78H252.475V442.552H248.107V449.608C248.107 450.384 248.267 450.892 248.587 451.132C248.915 451.364 249.375 451.48 249.967 451.48C250.559 451.48 251.139 451.38 251.707 451.18V453.844C250.715 454.068 249.675 454.18 248.587 454.18Z" fill="white"/>
    </g>
    <defs>
        <filter id="filter0_f_1389_7382" x="-252.048" y="-387.38" width="803.832" height="820.841" filterUnits="userSpaceOnUse" color-interpolation-filters="sRGB">
            <feFlood flood-opacity="0" result="BackgroundImageFix"/>
            <feBlend mode="normal" in="SourceGraphic" in2="BackgroundImageFix" result="shape"/>
            <feGaussianBlur stdDeviation="100" result="effect1_foregroundBlur_1389_7382"/>
        </filter>
        <filter id="filter1_f_1389_7382" x="-104.048" y="462.952" width="477.999" height="572.509" filterUnits="userSpaceOnUse" color-interpolation-filters="sRGB">
            <feFlood flood-opacity="0" result="BackgroundImageFix"/>
            <feBlend mode="normal" in="SourceGraphic" in2="BackgroundImageFix" result="shape"/>
            <feGaussianBlur stdDeviation="50" result="effect1_foregroundBlur_1389_7382"/>
        </filter>
        <linearGradient id="paint0_linear_1389_7382" x1="424.856" y1="799.066" x2="7.37376" y2="280.159" gradientUnits="userSpaceOnUse">
            <stop stop-color="#66C95B"/>
            <stop offset="1" stop-color="#D9D9D9" stop-opacity="0"/>
            <stop offset="1" stop-color="#C2F6AE"/>
        </linearGradient>
        <clipPath id="clip0_1389_7382">
            <rect width="375" height="812" fill="white"/>
        </clipPath>
    </defs>
</svg>
