<svg width="375" height="812" viewBox="0 0 375 812" fill="none" xmlns="http://www.w3.org/2000/svg">
<g clip-path="url(#clip0_1389_7382)">
<rect width="375" height="812" fill="#185C32"/>
<path opacity="0.2" d="M293.412 240.793C331.23 176.687 418.468 234.585 457.36 271.547L702.23 575.907L147.483 1022.22L-266.554 507.601C86.5002 531.5 161 806 296.552 747.289C366.565 716.964 311.24 558.781 293.185 493.573C277.503 436.024 255.593 304.899 293.412 240.793Z" fill="url(#paint0_linear_1389_7382)"/>
<g filter="url(#filter0_f_1389_7382)">
<rect x="-84" y="-92.4761" width="353.796" height="383.38" rx="109.5" transform="rotate(-21.0116 -84 -92.4761)" fill="#208D28"/>
</g>
<g filter="url(#filter1_f_1389_7382)">
<rect x="-36" y="609.524" width="219" height="383.38" rx="109.5" transform="rotate(-21.0116 -36 609.524)" fill="#167625"/>
</g>
<path d="M158.741 377.707C157.175 389.609 157.39 402.123 157.826 409.23C158.037 413.939 158.61 421.394 160.703 416.816C163.632 410.41 164.889 404.652 166.066 398.896C166.844 395.092 170.121 378.491 170.644 371.951C171.109 366.137 168.665 361.501 164.627 364.626C160.572 367.766 159.257 373.782 158.741 377.707Z" fill="#2FB763"/>
<path d="M176.399 367.766L164.366 414.331C162.665 419.956 164.758 424.664 170.121 415.377L177.446 398.896L189.349 367.766C190.308 364.932 190.918 359.028 185.686 358.086C180.454 357.144 177.315 364.147 176.399 367.766Z" fill="#2FB763"/>
<path d="M194.058 367.766L173.26 416.293C170.644 422.702 174.176 421.394 176.399 418.386L184.64 407.529C189.349 401.12 199.918 386.392 204.522 378.753C209.126 371.114 209.492 367.504 209.492 364.626C209.492 362.272 208.917 358.086 204.522 358.086C200.127 358.086 195.889 363.449 194.058 367.766Z" fill="#2FB763"/>
<path d="M206.091 383.462L183.594 416.293C179.146 422.833 184.64 423.757 189.087 419.04C191.965 415.988 197.459 410.381 198.505 409.23C199.813 407.791 212.258 393.614 216.294 387.647C219.302 383.2 218.518 371.951 217.994 367.766C217.291 362.141 213.888 363.235 213.286 366.85C211.847 375.483 209.492 378.753 206.091 383.462Z" fill="#2FB763"/>
<path d="M210.539 400.858L197.72 415.377C191.18 423.226 196.151 422.31 201.513 419.825C206.484 417.521 215.248 413.285 216.294 404.913C217.34 396.542 213.547 397.327 210.539 400.858Z" fill="#2FB763"/>
<path d="M158.741 377.707C157.175 389.609 157.39 402.123 157.826 409.23C158.037 413.939 158.61 421.394 160.703 416.816C163.632 410.41 164.889 404.652 166.066 398.896C166.844 395.092 170.121 378.491 170.644 371.951C171.109 366.137 168.665 361.501 164.627 364.626C160.572 367.766 159.257 373.782 158.741 377.707Z" stroke="#2FB763" stroke-width="1.06276"/>
<path d="M176.399 367.766L164.366 414.331C162.665 419.956 164.758 424.664 170.121 415.377L177.446 398.896L189.349 367.766C190.308 364.932 190.918 359.028 185.686 358.086C180.454 357.144 177.315 364.147 176.399 367.766Z" stroke="#2FB763" stroke-width="1.06276"/>
<path d="M194.058 367.766L173.26 416.293C170.644 422.702 174.176 421.394 176.399 418.386L184.64 407.529C189.349 401.12 199.918 386.392 204.522 378.753C209.126 371.114 209.492 367.504 209.492 364.626C209.492 362.272 208.917 358.086 204.522 358.086C200.127 358.086 195.889 363.449 194.058 367.766Z" stroke="#2FB763" stroke-width="1.06276"/>
<path d="M206.091 383.462L183.594 416.293C179.146 422.833 184.64 423.757 189.087 419.04C191.965 415.988 197.459 410.381 198.505 409.23C199.813 407.791 212.258 393.614 216.294 387.647C219.302 383.2 218.518 371.951 217.994 367.766C217.291 362.141 213.888 363.235 213.286 366.85C211.847 375.483 209.492 378.753 206.091 383.462Z" stroke="#2FB763" stroke-width="1.06276"/>
<path d="M210.539 400.858L197.72 415.377C191.18 423.226 196.151 422.31 201.513 419.825C206.484 417.521 215.248 413.285 216.294 404.913C217.34 396.542 213.547 397.327 210.539 400.858Z" stroke="#2FB763" stroke-width="1.06276"/>
<path d="M123.64 454V440.572H118.816V437.8H132.544V440.572H127.732V454H123.64ZM140.018 454.144C137.33 454.144 135.446 453.496 134.366 452.2C133.294 450.896 132.758 449.124 132.758 446.884C132.758 444.588 133.298 442.808 134.378 441.544C135.458 440.272 137.314 439.636 139.946 439.636C142.642 439.636 144.506 440.28 145.538 441.568C146.578 442.856 147.098 444.624 147.098 446.872C147.098 447.32 147.07 447.72 147.014 448.072H136.286V445.636H143.246L143.102 445.996C143.102 444.628 142.822 443.66 142.262 443.092C141.71 442.524 140.938 442.24 139.946 442.24C138.97 442.24 138.178 442.548 137.57 443.164C136.962 443.78 136.658 445.02 136.658 446.884C136.658 448.708 136.958 449.94 137.558 450.58C138.166 451.22 138.986 451.54 140.018 451.54V454.144ZM140.018 451.54C140.618 451.54 141.114 451.46 141.506 451.3C141.898 451.14 142.21 450.872 142.442 450.496C142.682 450.12 142.886 449.676 143.054 449.164L146.666 450.184C146.49 451.12 146.106 451.876 145.514 452.452C144.93 453.028 144.222 453.456 143.39 453.736C142.566 454.008 141.442 454.144 140.018 454.144V451.54ZM149.391 454V435.16H153.435V454H149.391ZM156.211 454V435.16H160.255V454H156.211ZM167.999 454.156C167.439 454.156 166.887 454.124 166.343 454.06C165.807 453.996 165.303 453.876 164.831 453.7C164.359 453.516 163.943 453.26 163.583 452.932C163.223 452.604 162.939 452.18 162.731 451.66C162.531 451.14 162.431 450.504 162.431 449.752C162.431 449.024 162.531 448.412 162.731 447.916C162.939 447.412 163.219 447 163.571 446.68C163.923 446.36 164.331 446.112 164.795 445.936C165.259 445.76 165.755 445.64 166.283 445.576C166.811 445.504 167.347 445.468 167.891 445.468H172.379V444.916C172.379 444.268 172.251 443.756 171.995 443.38C171.747 443.004 171.403 442.74 170.963 442.588C170.531 442.428 170.043 442.348 169.499 442.348C169.003 442.348 168.551 442.424 168.143 442.576C167.735 442.728 167.391 442.976 167.111 443.32C166.839 443.664 166.647 444.124 166.535 444.7L162.587 443.596C162.731 442.884 162.995 442.28 163.379 441.784C163.771 441.28 164.267 440.872 164.867 440.56C165.475 440.24 166.167 440.008 166.943 439.864C167.727 439.712 168.575 439.636 169.487 439.636C170.919 439.636 172.155 439.808 173.195 440.152C174.235 440.496 175.035 441.068 175.595 441.868C176.155 442.668 176.435 443.756 176.435 445.132V454H173.075L172.727 452.368C172.631 452.584 172.451 452.8 172.187 453.016C171.923 453.224 171.583 453.416 171.167 453.592C170.759 453.76 170.287 453.896 169.751 454C169.223 454.104 168.639 454.156 167.999 454.156ZM168.911 451.624C169.303 451.624 169.691 451.588 170.075 451.516C170.467 451.444 170.823 451.34 171.143 451.204C171.471 451.068 171.743 450.908 171.959 450.724C172.175 450.532 172.315 450.324 172.379 450.1L172.475 447.7H168.839C168.519 447.7 168.219 447.724 167.939 447.772C167.659 447.812 167.411 447.9 167.195 448.036C166.987 448.172 166.823 448.368 166.703 448.624C166.583 448.88 166.523 449.216 166.523 449.632C166.523 450.056 166.587 450.4 166.715 450.664C166.851 450.92 167.031 451.12 167.255 451.264C167.487 451.4 167.743 451.496 168.023 451.552C168.311 451.6 168.607 451.624 168.911 451.624ZM189.476 454V440.572H184.652V437.8H198.38V440.572H193.568V454H189.476ZM208.097 446.788C208.097 444.996 207.893 443.824 207.485 443.272C207.077 442.712 206.509 442.432 205.781 442.432C204.933 442.432 204.261 442.728 203.765 443.32C203.269 443.904 203.021 444.576 203.021 445.336L201.473 444.412C201.473 443.068 202.009 441.94 203.081 441.028C204.153 440.108 205.557 439.648 207.293 439.648C209.173 439.648 210.449 440.228 211.121 441.388C211.793 442.54 212.129 444.34 212.129 446.788H208.097ZM199.001 454V439.78H202.121L203.033 442.24V454H199.001ZM224.681 454L223.757 451.732V439.78H227.777V454H224.681ZM218.393 439.768V447.304C218.393 448.88 218.577 449.948 218.945 450.508C219.321 451.068 219.909 451.348 220.709 451.348C221.541 451.348 222.257 451.024 222.857 450.376C223.465 449.72 223.769 448.844 223.769 447.748L225.737 448.576C225.737 449.832 225.165 451.072 224.021 452.296C222.885 453.512 221.285 454.12 219.221 454.12C217.365 454.12 216.093 453.52 215.405 452.32C214.717 451.12 214.373 449.512 214.373 447.496V439.768H218.393ZM237.205 454.12C235.333 454.12 233.757 453.836 232.477 453.268C231.197 452.7 230.369 451.724 229.993 450.34L233.521 449.044C233.705 449.86 234.121 450.472 234.769 450.88C235.417 451.288 236.249 451.492 237.265 451.492C238.105 451.492 238.757 451.364 239.221 451.108C239.685 450.844 239.917 450.48 239.917 450.016C239.917 449.384 239.501 448.98 238.669 448.804C237.837 448.628 236.773 448.436 235.477 448.228C233.853 447.98 232.549 447.536 231.565 446.896C230.589 446.248 230.101 445.204 230.101 443.764C230.101 442.356 230.705 441.32 231.913 440.656C233.121 439.992 234.705 439.66 236.665 439.66C238.577 439.66 240.141 439.94 241.357 440.5C242.573 441.052 243.353 442.004 243.697 443.356L240.157 444.628C239.973 443.9 239.569 443.324 238.945 442.9C238.321 442.476 237.545 442.264 236.617 442.264C235.745 442.264 235.101 442.396 234.685 442.66C234.277 442.924 234.073 443.288 234.073 443.752C234.073 444.36 234.469 444.756 235.261 444.94C236.053 445.116 237.069 445.3 238.309 445.492C239.901 445.724 241.229 446.128 242.293 446.704C243.365 447.272 243.901 448.276 243.901 449.716C243.901 451.292 243.321 452.42 242.161 453.1C241.001 453.78 239.349 454.12 237.205 454.12ZM252.603 454.18C251.339 454.18 250.267 453.916 249.387 453.388C248.515 452.852 248.079 451.888 248.079 450.496V442.552H244.827V439.78H248.079V436.528H252.123V439.78H256.491V442.552H252.123V449.608C252.123 450.384 252.283 450.892 252.603 451.132C252.931 451.364 253.391 451.48 253.983 451.48C254.575 451.48 255.155 451.38 255.723 451.18V453.844C254.731 454.068 253.691 454.18 252.603 454.18Z" fill="white"/>
</g>
<defs>
<filter id="filter0_f_1389_7382" x="-252.048" y="-387.38" width="803.832" height="820.841" filterUnits="userSpaceOnUse" color-interpolation-filters="sRGB">
<feFlood flood-opacity="0" result="BackgroundImageFix"/>
<feBlend mode="normal" in="SourceGraphic" in2="BackgroundImageFix" result="shape"/>
<feGaussianBlur stdDeviation="100" result="effect1_foregroundBlur_1389_7382"/>
</filter>
<filter id="filter1_f_1389_7382" x="-104.048" y="462.952" width="477.999" height="572.509" filterUnits="userSpaceOnUse" color-interpolation-filters="sRGB">
<feFlood flood-opacity="0" result="BackgroundImageFix"/>
<feBlend mode="normal" in="SourceGraphic" in2="BackgroundImageFix" result="shape"/>
<feGaussianBlur stdDeviation="50" result="effect1_foregroundBlur_1389_7382"/>
</filter>
<linearGradient id="paint0_linear_1389_7382" x1="424.856" y1="799.066" x2="7.37376" y2="280.159" gradientUnits="userSpaceOnUse">
<stop stop-color="#66C95B"/>
<stop offset="1" stop-color="#D9D9D9" stop-opacity="0"/>
<stop offset="1" stop-color="#C2F6AE"/>
</linearGradient>
<clipPath id="clip0_1389_7382">
<rect width="375" height="812" fill="white"/>
</clipPath>
</defs>
</svg>
