<svg width="343" height="56" viewBox="0 0 343 56" fill="none" xmlns="http://www.w3.org/2000/svg">
<path d="M0 24C0 12.6863 0 7.02944 3.51472 3.51472C7.02944 0 12.6863 0 24 0H319C330.314 0 335.971 0 339.485 3.51472C343 7.02944 343 12.6863 343 24V32C343 43.3137 343 48.9706 339.485 52.4853C335.971 56 330.314 56 319 56H24C12.6863 56 7.02944 56 3.51472 52.4853C0 48.9706 0 43.3137 0 32V24Z" fill="white"/>
<rect y="12" width="32" height="32" rx="16" fill="#F6F8FA"/>
<g clip-path="url(#clip0_1036_8041)">
<path fill-rule="evenodd" clip-rule="evenodd" d="M11.245 18H20.755C21.9139 18 22.4933 18 22.9606 18.1626C23.8468 18.471 24.5425 19.1872 24.842 20.0995C25 20.5805 25 21.1771 25 22.3701V36.3742C25 37.2324 24.015 37.6878 23.3919 37.1176C23.0258 36.7826 22.4742 36.7826 22.1081 37.1176L21.625 37.5597C20.9834 38.1468 20.0166 38.1468 19.375 37.5597C18.7334 36.9726 17.7666 36.9726 17.125 37.5597C16.4834 38.1468 15.5166 38.1468 14.875 37.5597C14.2334 36.9726 13.2666 36.9726 12.625 37.5597C11.9834 38.1468 11.0166 38.1468 10.375 37.5597L9.8919 37.1176C9.52583 36.7826 8.97417 36.7826 8.6081 37.1176C7.985 37.6878 7 37.2324 7 36.3742V22.3701C7 21.1771 7 20.5805 7.15795 20.0995C7.45748 19.1872 8.15322 18.471 9.03939 18.1626C9.50671 18 10.0861 18 11.245 18ZM19.0595 24.4995C19.3353 24.1905 19.3085 23.7164 18.9995 23.4406C18.6905 23.1647 18.2164 23.1915 17.9405 23.5005L14.9286 26.8739L14.0595 25.9005C13.7836 25.5915 13.3095 25.5647 13.0005 25.8406C12.6915 26.1164 12.6647 26.5905 12.9405 26.8995L14.3691 28.4995C14.5114 28.6589 14.7149 28.75 14.9286 28.75C15.1422 28.75 15.3457 28.6589 15.488 28.4995L19.0595 24.4995ZM11.5 30.75C11.0858 30.75 10.75 31.0858 10.75 31.5C10.75 31.9142 11.0858 32.25 11.5 32.25H20.5C20.9142 32.25 21.25 31.9142 21.25 31.5C21.25 31.0858 20.9142 30.75 20.5 30.75H11.5Z" fill="#49526A"/>
</g>
<path d="M44.312 32.64C43.528 32.64 42.772 32.486 42.044 32.178C41.316 31.87 40.672 31.436 40.112 30.876L41.008 29.84C41.54 30.3627 42.0813 30.75 42.632 31.002C43.192 31.254 43.7753 31.38 44.382 31.38C44.858 31.38 45.2733 31.3147 45.628 31.184C45.992 31.044 46.272 30.848 46.468 30.596C46.664 30.344 46.762 30.0593 46.762 29.742C46.762 29.3033 46.608 28.9673 46.3 28.734C45.992 28.5007 45.4833 28.3233 44.774 28.202L43.136 27.936C42.24 27.7773 41.568 27.488 41.12 27.068C40.6813 26.648 40.462 26.088 40.462 25.388C40.462 24.828 40.6113 24.338 40.91 23.918C41.2087 23.4887 41.6287 23.1573 42.17 22.924C42.7207 22.6907 43.3553 22.574 44.074 22.574C44.7833 22.574 45.4787 22.6907 46.16 22.924C46.8507 23.148 47.4713 23.4747 48.022 23.904L47.21 25.024C46.1553 24.2213 45.0867 23.82 44.004 23.82C43.5747 23.82 43.2013 23.8807 42.884 24.002C42.5667 24.1233 42.3193 24.296 42.142 24.52C41.9647 24.7347 41.876 24.9867 41.876 25.276C41.876 25.6773 42.0113 25.9853 42.282 26.2C42.5527 26.4053 43.0007 26.5547 43.626 26.648L45.208 26.914C46.244 27.082 47.0047 27.3853 47.49 27.824C47.9753 28.2627 48.218 28.8647 48.218 29.63C48.218 30.2273 48.0547 30.7547 47.728 31.212C47.4013 31.66 46.944 32.01 46.356 32.262C45.768 32.514 45.0867 32.64 44.312 32.64ZM52.2589 32.626C51.5682 32.626 51.0409 32.4673 50.6769 32.15C50.3129 31.8233 50.1309 31.352 50.1309 30.736V26.55H48.6189V25.374H50.1309V23.554L51.5169 23.218V25.374H53.6169V26.55H51.5169V30.414C51.5169 30.778 51.5962 31.0393 51.7549 31.198C51.9229 31.3473 52.1935 31.422 52.5669 31.422C52.7629 31.422 52.9355 31.408 53.0849 31.38C53.2435 31.352 53.4115 31.31 53.5889 31.254V32.43C53.4022 32.4953 53.1829 32.542 52.9309 32.57C52.6882 32.6073 52.4642 32.626 52.2589 32.626ZM56.9023 32.626C56.3889 32.626 55.9363 32.5373 55.5443 32.36C55.1523 32.1733 54.8443 31.9167 54.6203 31.59C54.3963 31.2633 54.2843 30.8853 54.2843 30.456C54.2843 29.784 54.5409 29.2567 55.0543 28.874C55.5676 28.482 56.2723 28.286 57.1683 28.286C57.8683 28.286 58.5169 28.4213 59.1143 28.692V27.936C59.1143 27.4227 58.9649 27.04 58.6663 26.788C58.3769 26.536 57.9476 26.41 57.3783 26.41C57.0516 26.41 56.7109 26.4613 56.3563 26.564C56.0016 26.6573 55.6049 26.8067 55.1663 27.012L54.6483 25.962C55.1896 25.71 55.6936 25.528 56.1603 25.416C56.6269 25.2947 57.0983 25.234 57.5743 25.234C58.4983 25.234 59.2123 25.4533 59.7163 25.892C60.2296 26.3307 60.4863 26.956 60.4863 27.768V32.5H59.1143V31.884C58.7969 32.136 58.4563 32.3227 58.0923 32.444C57.7283 32.5653 57.3316 32.626 56.9023 32.626ZM55.6283 30.428C55.6283 30.7733 55.7729 31.0533 56.0623 31.268C56.3609 31.4733 56.7483 31.576 57.2243 31.576C57.5976 31.576 57.9383 31.5247 58.2463 31.422C58.5636 31.31 58.8529 31.1373 59.1143 30.904V29.7C58.8436 29.5413 58.5589 29.4293 58.2603 29.364C57.9709 29.2893 57.6443 29.252 57.2803 29.252C56.7669 29.252 56.3609 29.3593 56.0623 29.574C55.7729 29.7793 55.6283 30.064 55.6283 30.428ZM64.9464 32.626C64.2557 32.626 63.7284 32.4673 63.3644 32.15C63.0004 31.8233 62.8184 31.352 62.8184 30.736V26.55H61.3064V25.374H62.8184V23.554L64.2044 23.218V25.374H66.3044V26.55H64.2044V30.414C64.2044 30.778 64.2837 31.0393 64.4424 31.198C64.6104 31.3473 64.881 31.422 65.2544 31.422C65.4504 31.422 65.623 31.408 65.7724 31.38C65.931 31.352 66.099 31.31 66.2764 31.254V32.43C66.0897 32.4953 65.8704 32.542 65.6184 32.57C65.3757 32.6073 65.1517 32.626 64.9464 32.626ZM70.6424 32.626C69.9424 32.626 69.3077 32.4627 68.7384 32.136C68.1784 31.8093 67.7304 31.366 67.3944 30.806C67.0677 30.246 66.9044 29.6207 66.9044 28.93C66.9044 28.2487 67.0631 27.6327 67.3804 27.082C67.6977 26.522 68.1271 26.0787 68.6684 25.752C69.2097 25.416 69.8117 25.248 70.4744 25.248C71.1371 25.248 71.7251 25.416 72.2384 25.752C72.7517 26.0787 73.1577 26.5267 73.4564 27.096C73.7644 27.656 73.9184 28.2907 73.9184 29V29.392H68.3044C68.3791 29.784 68.5237 30.134 68.7384 30.442C68.9624 30.75 69.2424 30.9927 69.5784 31.17C69.9237 31.3473 70.2971 31.436 70.6984 31.436C71.0437 31.436 71.3751 31.3847 71.6924 31.282C72.0191 31.17 72.2897 31.0113 72.5044 30.806L73.4004 31.688C72.9804 32.0053 72.5464 32.2433 72.0984 32.402C71.6597 32.5513 71.1744 32.626 70.6424 32.626ZM68.3184 28.342H72.5324C72.4764 27.9687 72.3457 27.642 72.1404 27.362C71.9444 27.0727 71.6971 26.8487 71.3984 26.69C71.1091 26.522 70.7917 26.438 70.4464 26.438C70.0917 26.438 69.7651 26.5173 69.4664 26.676C69.1677 26.8347 68.9157 27.0587 68.7104 27.348C68.5144 27.628 68.3837 27.9593 68.3184 28.342ZM75.2518 32.5V25.374H76.6518V26.06C77.1838 25.5093 77.8511 25.234 78.6538 25.234C79.1391 25.234 79.5684 25.3413 79.9418 25.556C80.3244 25.7707 80.6278 26.06 80.8518 26.424C81.1504 26.032 81.5004 25.738 81.9018 25.542C82.3031 25.3367 82.7558 25.234 83.2598 25.234C83.7918 25.234 84.2538 25.3507 84.6458 25.584C85.0471 25.8173 85.3598 26.144 85.5838 26.564C85.8171 26.984 85.9338 27.4693 85.9338 28.02V32.5H84.5338V28.258C84.5338 27.698 84.3844 27.2593 84.0858 26.942C83.7964 26.6153 83.3998 26.452 82.8958 26.452C82.5504 26.452 82.2378 26.5313 81.9578 26.69C81.6778 26.8487 81.4351 27.0913 81.2298 27.418C81.2484 27.5113 81.2624 27.6093 81.2718 27.712C81.2811 27.8147 81.2858 27.9173 81.2858 28.02V32.5H79.8998V28.258C79.8998 27.698 79.7504 27.2593 79.4518 26.942C79.1624 26.6153 78.7658 26.452 78.2618 26.452C77.9258 26.452 77.6224 26.5267 77.3518 26.676C77.0811 26.816 76.8478 27.0307 76.6518 27.32V32.5H75.2518ZM90.9588 32.626C90.2588 32.626 89.6241 32.4627 89.0548 32.136C88.4948 31.8093 88.0468 31.366 87.7108 30.806C87.3841 30.246 87.2208 29.6207 87.2208 28.93C87.2208 28.2487 87.3795 27.6327 87.6968 27.082C88.0141 26.522 88.4435 26.0787 88.9848 25.752C89.5261 25.416 90.1281 25.248 90.7908 25.248C91.4535 25.248 92.0415 25.416 92.5548 25.752C93.0681 26.0787 93.4741 26.5267 93.7728 27.096C94.0808 27.656 94.2348 28.2907 94.2348 29V29.392H88.6208C88.6955 29.784 88.8401 30.134 89.0548 30.442C89.2788 30.75 89.5588 30.9927 89.8948 31.17C90.2401 31.3473 90.6135 31.436 91.0148 31.436C91.3601 31.436 91.6915 31.3847 92.0088 31.282C92.3355 31.17 92.6061 31.0113 92.8208 30.806L93.7168 31.688C93.2968 32.0053 92.8628 32.2433 92.4148 32.402C91.9761 32.5513 91.4908 32.626 90.9588 32.626ZM88.6348 28.342H92.8488C92.7928 27.9687 92.6621 27.642 92.4568 27.362C92.2608 27.0727 92.0135 26.8487 91.7148 26.69C91.4255 26.522 91.1081 26.438 90.7628 26.438C90.4081 26.438 90.0815 26.5173 89.7828 26.676C89.4841 26.8347 89.2321 27.0587 89.0268 27.348C88.8308 27.628 88.7001 27.9593 88.6348 28.342ZM95.5682 32.5V25.374H96.9682V26.102C97.5189 25.5233 98.2329 25.234 99.1102 25.234C99.6609 25.234 100.142 25.3507 100.552 25.584C100.972 25.8173 101.299 26.144 101.532 26.564C101.775 26.984 101.896 27.4693 101.896 28.02V32.5H100.496V28.258C100.496 27.698 100.338 27.2593 100.02 26.942C99.7122 26.6153 99.2782 26.452 98.7182 26.452C98.3449 26.452 98.0089 26.5313 97.7102 26.69C97.4115 26.8487 97.1642 27.0773 96.9682 27.376V32.5H95.5682ZM106.358 32.626C105.668 32.626 105.14 32.4673 104.776 32.15C104.412 31.8233 104.23 31.352 104.23 30.736V26.55H102.718V25.374H104.23V23.554L105.616 23.218V25.374H107.716V26.55H105.616V30.414C105.616 30.778 105.696 31.0393 105.854 31.198C106.022 31.3473 106.293 31.422 106.666 31.422C106.862 31.422 107.035 31.408 107.184 31.38C107.343 31.352 107.511 31.31 107.688 31.254V32.43C107.502 32.4953 107.282 32.542 107.03 32.57C106.788 32.6073 106.564 32.626 106.358 32.626Z" fill="#050505"/>
<path fill-rule="evenodd" clip-rule="evenodd" d="M328.675 22.9544C328.884 22.7747 329.2 22.7989 329.38 23.0086L333.38 27.6753C333.54 27.8625 333.54 28.1388 333.38 28.3261L329.38 32.9927C329.2 33.2024 328.884 33.2267 328.675 33.047C328.465 32.8672 328.441 32.5516 328.62 32.3419L332.341 28.0007L328.62 23.6594C328.441 23.4497 328.465 23.1341 328.675 22.9544Z" fill="#CCD0DC"/>
<defs>
<clipPath id="clip0_1036_8041">
<rect x="4" y="16" width="24" height="24" rx="8" fill="white"/>
</clipPath>
</defs>
</svg>
