<svg width="21" height="20" viewBox="0 0 21 20" fill="none" xmlns="http://www.w3.org/2000/svg">
    <path fill-rule="evenodd" clip-rule="evenodd" d="M10.5 2.7085C10.8452 2.7085 11.125 2.98832 11.125 3.3335L11.125 15.1579L15.0581 11.2249C15.3021 10.9808 15.6979 10.9808 15.9419 11.2249C16.186 11.469 16.186 11.8647 15.9419 12.1088L10.9419 17.1088C10.8247 17.226 10.6658 17.2918 10.5 17.2918C10.3342 17.2918 10.1753 17.226 10.0581 17.1088L5.05806 12.1088C4.81398 11.8647 4.81398 11.469 5.05806 11.2249C5.30214 10.9808 5.69786 10.9808 5.94194 11.2249L9.875 15.1579L9.875 3.3335C9.875 2.98832 10.1548 2.7085 10.5 2.7085Z" fill="#828DA9"/>
</svg>
