<svg width="21" height="20" viewBox="0 0 21 20" fill="none" xmlns="http://www.w3.org/2000/svg">
<g id="ICONS SET">
<g id="Union">
<path d="M6.0938 8.89449C6.47253 6.79561 8.321 5.20817 10.5363 5.20817C11.8508 5.20817 13.0358 5.76726 13.8605 6.65875C14.0949 6.91214 14.0795 7.30757 13.8261 7.54197C13.5727 7.77637 13.1773 7.76098 12.9429 7.50759C12.346 6.86237 11.4897 6.45817 10.5363 6.45817C9.0045 6.45817 7.72462 7.5016 7.37027 8.90426L7.56729 8.71536C7.81645 8.47647 8.21209 8.4848 8.45098 8.73396C8.68987 8.98312 8.68154 9.37876 8.43238 9.61765L7.08035 10.9139C6.95761 11.0316 6.79221 11.0942 6.6223 11.0873C6.45239 11.0803 6.29265 11.0045 6.17991 10.8772L5.03194 9.58087C4.80309 9.32245 4.82706 8.92745 5.08548 8.6986C5.34389 8.46976 5.73889 8.49373 5.96774 8.75214L6.0938 8.89449Z" fill="#185C32"/>
<path d="M14.3736 8.91309C14.5434 8.91982 14.7032 8.99543 14.8161 9.12249L15.9671 10.4181C16.1963 10.6761 16.173 11.0712 15.9149 11.3004C15.6569 11.5297 15.2619 11.5063 15.0326 11.2483L14.9032 11.1026C14.5244 13.2046 12.6674 14.7922 10.4455 14.7922C9.13608 14.7922 7.95436 14.2411 7.12744 13.36C6.89122 13.1083 6.90377 12.7128 7.15547 12.4766C7.40716 12.2403 7.80269 12.2529 8.0389 12.5046C8.63772 13.1426 9.49313 13.5422 10.4455 13.5422C11.9847 13.5422 13.2682 12.4991 13.6251 11.0993L13.4328 11.2839C13.1838 11.523 12.7882 11.5151 12.5491 11.2661C12.31 11.0171 12.318 10.6215 12.5669 10.3824L13.9159 9.08682C14.0385 8.96909 14.2037 8.90636 14.3736 8.91309Z" fill="#185C32"/>
<path fill-rule="evenodd" clip-rule="evenodd" d="M10.452 1.0415C8.52836 1.04149 7.02083 1.04148 5.84459 1.19963C4.64065 1.36149 3.69063 1.69928 2.94495 2.44495C2.19928 3.19063 1.86149 4.14065 1.69963 5.34459C1.54148 6.52083 1.54149 8.02836 1.5415 9.95202V10.0477C1.54149 11.9713 1.54148 13.4788 1.69963 14.6551C1.86149 15.859 2.19928 16.8091 2.94495 17.5547C3.69063 18.3004 4.64065 18.6382 5.84459 18.8C7.02083 18.9582 8.52836 18.9582 10.452 18.9582H10.5476C12.4713 18.9582 13.9788 18.9582 15.1551 18.8C16.359 18.6382 17.3091 18.3004 18.0547 17.5547C18.8004 16.8091 19.1382 15.859 19.3 14.6551C19.4582 13.4788 19.4582 11.9713 19.4582 10.0476V9.95203C19.4582 8.02836 19.4582 6.52083 19.3 5.34459C19.1382 4.14065 18.8004 3.19063 18.0547 2.44495C17.3091 1.69928 16.359 1.36149 15.1551 1.19963C13.9788 1.04148 12.4713 1.04149 10.5477 1.0415H10.452ZM3.82883 3.32883C4.30355 2.85412 4.94582 2.58171 6.01115 2.43848C7.09447 2.29283 8.51798 2.2915 10.4998 2.2915C12.4817 2.2915 13.9052 2.29283 14.9885 2.43848C16.0539 2.58171 16.6961 2.85412 17.1708 3.32883C17.6456 3.80355 17.918 4.44582 18.0612 5.51115C18.2068 6.59447 18.2082 8.01798 18.2082 9.99984C18.2082 11.9817 18.2068 13.4052 18.0612 14.4885C17.918 15.5539 17.6456 16.1961 17.1708 16.6708C16.6961 17.1456 16.0539 17.418 14.9885 17.5612C13.9052 17.7068 12.4817 17.7082 10.4998 17.7082C8.51798 17.7082 7.09447 17.7068 6.01115 17.5612C4.94582 17.418 4.30355 17.1456 3.82883 16.6708C3.35412 16.1961 3.08171 15.5539 2.93848 14.4885C2.79283 13.4052 2.7915 11.9817 2.7915 9.99984C2.7915 8.01798 2.79283 6.59447 2.93848 5.51115C3.08171 4.44582 3.35412 3.80355 3.82883 3.32883Z" fill="#185C32"/>
</g>
</g>
</svg>
