<svg width="319" height="18" viewBox="0 0 319 18" fill="none" xmlns="http://www.w3.org/2000/svg">
    <path
        d="M3.29 12.5V4.667H0.476V3.05H8.484V4.667H5.677V12.5H3.29ZM12.8438 12.584C11.2758 12.584 10.1768 12.206 9.5468 11.45C8.92146 10.6893 8.6088 9.65567 8.6088 8.349C8.6088 7.00967 8.9238 5.97133 9.5538 5.234C10.1838 4.492 11.2665 4.121 12.8018 4.121C14.3745 4.121 15.4618 4.49667 16.0638 5.248C16.6705 5.99933 16.9738 7.03067 16.9738 8.342C16.9738 8.60333 16.9575 8.83667 16.9248 9.042H10.6668V7.621H14.7268L14.6428 7.831C14.6428 7.033 14.4795 6.46833 14.1528 6.137C13.8308 5.80567 13.3805 5.64 12.8018 5.64C12.2325 5.64 11.7705 5.81967 11.4158 6.179C11.0611 6.53833 10.8838 7.26167 10.8838 8.349C10.8838 9.413 11.0588 10.1317 11.4088 10.505C11.7635 10.8783 12.2418 11.065 12.8438 11.065V12.584ZM12.8438 11.065C13.1938 11.065 13.4831 11.0183 13.7118 10.925C13.9405 10.8317 14.1225 10.6753 14.2578 10.456C14.3978 10.2367 14.5168 9.97767 14.6148 9.679L16.7218 10.274C16.6191 10.82 16.3951 11.261 16.0498 11.597C15.7091 11.933 15.2961 12.1827 14.8108 12.346C14.3301 12.5047 13.6745 12.584 12.8438 12.584V11.065ZM18.3113 12.5V1.51H20.6703V12.5H18.3113ZM22.2899 12.5V1.51H24.6489V12.5H22.2899ZM29.166 12.591C28.8394 12.591 28.5174 12.5723 28.2 12.535C27.8874 12.4977 27.5934 12.4277 27.318 12.325C27.0427 12.2177 26.8 12.0683 26.59 11.877C26.38 11.6857 26.2144 11.4383 26.093 11.135C25.9764 10.8317 25.918 10.4607 25.918 10.022C25.918 9.59733 25.9764 9.24033 26.093 8.951C26.2144 8.657 26.3777 8.41667 26.583 8.23C26.7884 8.04333 27.0264 7.89867 27.297 7.796C27.5677 7.69333 27.857 7.62333 28.165 7.586C28.473 7.544 28.7857 7.523 29.103 7.523H31.721V7.201C31.721 6.823 31.6464 6.52433 31.497 6.305C31.3524 6.08567 31.1517 5.93167 30.895 5.843C30.643 5.74967 30.3584 5.703 30.041 5.703C29.7517 5.703 29.488 5.74733 29.25 5.836C29.012 5.92467 28.8114 6.06933 28.648 6.27C28.4894 6.47067 28.3774 6.739 28.312 7.075L26.009 6.431C26.093 6.01567 26.247 5.66333 26.471 5.374C26.6997 5.08 26.989 4.842 27.339 4.66C27.6937 4.47333 28.0974 4.338 28.55 4.254C29.0074 4.16533 29.502 4.121 30.034 4.121C30.8694 4.121 31.5904 4.22133 32.197 4.422C32.8037 4.62267 33.2704 4.95633 33.597 5.423C33.9237 5.88967 34.087 6.52433 34.087 7.327V12.5H32.127L31.924 11.548C31.868 11.674 31.763 11.8 31.609 11.926C31.455 12.0473 31.2567 12.1593 31.014 12.262C30.776 12.36 30.5007 12.4393 30.188 12.5C29.88 12.5607 29.5394 12.591 29.166 12.591ZM29.698 11.114C29.9267 11.114 30.153 11.093 30.377 11.051C30.6057 11.009 30.8134 10.9483 31 10.869C31.1914 10.7897 31.35 10.6963 31.476 10.589C31.602 10.477 31.6837 10.3557 31.721 10.225L31.777 8.825H29.656C29.4694 8.825 29.2944 8.839 29.131 8.867C28.9677 8.89033 28.823 8.94167 28.697 9.021C28.5757 9.10033 28.48 9.21467 28.41 9.364C28.34 9.51333 28.305 9.70933 28.305 9.952C28.305 10.1993 28.3424 10.4 28.417 10.554C28.4964 10.7033 28.6014 10.82 28.732 10.904C28.8674 10.9833 29.0167 11.0393 29.18 11.072C29.348 11.1 29.5207 11.114 29.698 11.114ZM43.1013 12.556C41.412 12.556 40.2546 12.1477 39.6293 11.331C39.0086 10.5143 38.6983 9.322 38.6983 7.754C38.6983 6.18133 39.0086 4.99133 39.6293 4.184C40.2546 3.37667 41.4096 2.973 43.0943 2.973C44.7836 2.973 45.9106 3.358 46.4753 4.128C47.04 4.898 47.3223 5.81033 47.3223 6.865H44.9143C44.9143 5.955 44.7556 5.34833 44.4383 5.045C44.1256 4.74167 43.673 4.59 43.0803 4.59C42.4736 4.59 41.993 4.76733 41.6383 5.122C41.2836 5.472 41.1063 6.34933 41.1063 7.754C41.1063 9.168 41.2836 10.0523 41.6383 10.407C41.9976 10.7617 42.4783 10.939 43.0803 10.939C43.6683 10.939 44.121 10.7827 44.4383 10.47C44.7556 10.1527 44.9143 9.55067 44.9143 8.664H47.3223C47.3223 9.69067 47.04 10.596 46.4753 11.38C45.9106 12.164 44.786 12.556 43.1013 12.556ZM51.4512 12.591C51.1245 12.591 50.8025 12.5723 50.4852 12.535C50.1725 12.4977 49.8785 12.4277 49.6032 12.325C49.3279 12.2177 49.0852 12.0683 48.8752 11.877C48.6652 11.6857 48.4995 11.4383 48.3782 11.135C48.2615 10.8317 48.2032 10.4607 48.2032 10.022C48.2032 9.59733 48.2615 9.24033 48.3782 8.951C48.4995 8.657 48.6629 8.41667 48.8682 8.23C49.0735 8.04333 49.3115 7.89867 49.5822 7.796C49.8529 7.69333 50.1422 7.62333 50.4502 7.586C50.7582 7.544 51.0709 7.523 51.3882 7.523H54.0062V7.201C54.0062 6.823 53.9315 6.52433 53.7822 6.305C53.6375 6.08567 53.4369 5.93167 53.1802 5.843C52.9282 5.74967 52.6435 5.703 52.3262 5.703C52.0369 5.703 51.7732 5.74733 51.5352 5.836C51.2972 5.92467 51.0965 6.06933 50.9332 6.27C50.7745 6.47067 50.6625 6.739 50.5972 7.075L48.2942 6.431C48.3782 6.01567 48.5322 5.66333 48.7562 5.374C48.9849 5.08 49.2742 4.842 49.6242 4.66C49.9789 4.47333 50.3825 4.338 50.8352 4.254C51.2925 4.16533 51.7872 4.121 52.3192 4.121C53.1545 4.121 53.8755 4.22133 54.4822 4.422C55.0889 4.62267 55.5555 4.95633 55.8822 5.423C56.2089 5.88967 56.3722 6.52433 56.3722 7.327V12.5H54.4122L54.2092 11.548C54.1532 11.674 54.0482 11.8 53.8942 11.926C53.7402 12.0473 53.5419 12.1593 53.2992 12.262C53.0612 12.36 52.7859 12.4393 52.4732 12.5C52.1652 12.5607 51.8245 12.591 51.4512 12.591ZM51.9832 11.114C52.2119 11.114 52.4382 11.093 52.6622 11.051C52.8909 11.009 53.0985 10.9483 53.2852 10.869C53.4765 10.7897 53.6352 10.6963 53.7612 10.589C53.8872 10.477 53.9689 10.3557 54.0062 10.225L54.0622 8.825H51.9412C51.7545 8.825 51.5795 8.839 51.4162 8.867C51.2529 8.89033 51.1082 8.94167 50.9822 9.021C50.8609 9.10033 50.7652 9.21467 50.6952 9.364C50.6252 9.51333 50.5902 9.70933 50.5902 9.952C50.5902 10.1993 50.6275 10.4 50.7022 10.554C50.7815 10.7033 50.8865 10.82 51.0172 10.904C51.1525 10.9833 51.3019 11.0393 51.4652 11.072C51.6332 11.1 51.8059 11.114 51.9832 11.114ZM63.0018 8.293C63.0018 7.24767 62.8828 6.564 62.6448 6.242C62.4068 5.91533 62.0754 5.752 61.6508 5.752C61.1561 5.752 60.7641 5.92467 60.4748 6.27C60.1854 6.61067 60.0408 7.00267 60.0408 7.446L59.1378 6.907C59.1378 6.123 59.4504 5.465 60.0758 4.933C60.7011 4.39633 61.5201 4.128 62.5328 4.128C63.6294 4.128 64.3738 4.46633 64.7658 5.143C65.1578 5.815 65.3538 6.865 65.3538 8.293H63.0018ZM57.6958 12.5V4.205H59.5158L60.0478 5.64V12.5H57.6958ZM72.3641 12.5L72.2101 11.261V1.51H74.5551V12.5H72.3641ZM69.5851 12.556C68.4605 12.556 67.6438 12.1803 67.1351 11.429C66.6265 10.6777 66.3721 9.64633 66.3721 8.335C66.3721 7.019 66.6265 5.99 67.1351 5.248C67.6438 4.506 68.4605 4.135 69.5851 4.135C70.5791 4.135 71.4378 4.366 72.1611 4.828C72.8891 5.28533 73.2531 5.794 73.2531 6.354L72.2101 7.369C72.2101 6.91633 72.0305 6.53367 71.6711 6.221C71.3165 5.90367 70.8965 5.745 70.4111 5.745C69.8838 5.745 69.4755 5.92 69.1861 6.27C68.8968 6.61533 68.7521 7.306 68.7521 8.342C68.7521 9.38733 68.8968 10.0827 69.1861 10.428C69.4755 10.7733 69.8838 10.946 70.4111 10.946C70.8965 10.946 71.3165 10.7897 71.6711 10.477C72.0305 10.1643 72.2101 9.777 72.2101 9.315L73.2531 10.344C73.2531 10.904 72.8891 11.4127 72.1611 11.87C71.4378 12.3273 70.5791 12.556 69.5851 12.556ZM79.4671 12.5V3.05H84.8991C85.9491 3.05 86.6514 3.33233 87.0061 3.897C87.3607 4.46167 87.5381 5.143 87.5381 5.941C87.5381 6.725 87.3514 7.38533 86.9781 7.922C86.6047 8.45867 85.8791 8.727 84.8011 8.727H81.8541V12.5H79.4671ZM85.1161 12.5L83.1141 8.104L85.4731 8.006L87.6991 12.5H85.1161ZM81.8541 7.271H84.1151C84.5071 7.271 84.7777 7.159 84.9271 6.935C85.0764 6.70633 85.1511 6.38433 85.1511 5.969C85.1511 5.55833 85.0764 5.23867 84.9271 5.01C84.7777 4.78133 84.5071 4.667 84.1151 4.667H81.8541V7.271ZM92.8106 12.584C91.2426 12.584 90.1436 12.206 89.5136 11.45C88.8883 10.6893 88.5756 9.65567 88.5756 8.349C88.5756 7.00967 88.8906 5.97133 89.5206 5.234C90.1506 4.492 91.2333 4.121 92.7686 4.121C94.3413 4.121 95.4286 4.49667 96.0306 5.248C96.6373 5.99933 96.9406 7.03067 96.9406 8.342C96.9406 8.60333 96.9243 8.83667 96.8916 9.042H90.6336V7.621H94.6936L94.6096 7.831C94.6096 7.033 94.4463 6.46833 94.1196 6.137C93.7976 5.80567 93.3473 5.64 92.7686 5.64C92.1993 5.64 91.7373 5.81967 91.3826 6.179C91.0279 6.53833 90.8506 7.26167 90.8506 8.349C90.8506 9.413 91.0256 10.1317 91.3756 10.505C91.7303 10.8783 92.2086 11.065 92.8106 11.065V12.584ZM92.8106 11.065C93.1606 11.065 93.4499 11.0183 93.6786 10.925C93.9073 10.8317 94.0893 10.6753 94.2246 10.456C94.3646 10.2367 94.4836 9.97767 94.5816 9.679L96.6886 10.274C96.5859 10.82 96.3619 11.261 96.0166 11.597C95.6759 11.933 95.2629 12.1827 94.7776 12.346C94.2969 12.5047 93.6413 12.584 92.8106 12.584V11.065ZM103.689 15.608V5.647L104.214 4.205H106.034V15.608H103.689ZM101.085 12.556C99.9605 12.556 99.1438 12.1803 98.6351 11.429C98.1265 10.6777 97.8721 9.64633 97.8721 8.335C97.8721 7.019 98.1265 5.99 98.6351 5.248C99.1438 4.506 99.9605 4.135 101.085 4.135C102.079 4.135 102.938 4.366 103.661 4.828C104.389 5.28533 104.753 5.794 104.753 6.354L103.71 7.369C103.71 6.91633 103.53 6.53367 103.171 6.221C102.816 5.90367 102.396 5.745 101.911 5.745C101.384 5.745 100.975 5.92 100.686 6.27C100.397 6.61533 100.252 7.306 100.252 8.342C100.252 9.38733 100.397 10.0827 100.686 10.428C100.975 10.7733 101.384 10.946 101.911 10.946C102.396 10.946 102.816 10.7897 103.171 10.477C103.53 10.1643 103.71 9.777 103.71 9.315L104.753 10.344C104.753 10.904 104.389 11.4127 103.661 11.87C102.938 12.3273 102.079 12.556 101.085 12.556ZM113.363 12.5L112.824 11.177V4.205H115.169V12.5H113.363ZM109.695 4.198V8.594C109.695 9.51333 109.803 10.1363 110.017 10.463C110.237 10.7897 110.58 10.953 111.046 10.953C111.532 10.953 111.949 10.764 112.299 10.386C112.654 10.0033 112.831 9.49233 112.831 8.853L113.979 9.336C113.979 10.0687 113.646 10.792 112.978 11.506C112.316 12.2153 111.382 12.57 110.178 12.57C109.096 12.57 108.354 12.22 107.952 11.52C107.551 10.82 107.35 9.882 107.35 8.706V4.198H109.695ZM120.592 12.584C119.024 12.584 117.925 12.206 117.295 11.45C116.67 10.6893 116.357 9.65567 116.357 8.349C116.357 7.00967 116.672 5.97133 117.302 5.234C117.932 4.492 119.015 4.121 120.55 4.121C122.123 4.121 123.21 4.49667 123.812 5.248C124.419 5.99933 124.722 7.03067 124.722 8.342C124.722 8.60333 124.706 8.83667 124.673 9.042H118.415V7.621H122.475L122.391 7.831C122.391 7.033 122.228 6.46833 121.901 6.137C121.579 5.80567 121.129 5.64 120.55 5.64C119.981 5.64 119.519 5.81967 119.164 6.179C118.809 6.53833 118.632 7.26167 118.632 8.349C118.632 9.413 118.807 10.1317 119.157 10.505C119.512 10.8783 119.99 11.065 120.592 11.065V12.584ZM120.592 11.065C120.942 11.065 121.231 11.0183 121.46 10.925C121.689 10.8317 121.871 10.6753 122.006 10.456C122.146 10.2367 122.265 9.97767 122.363 9.679L124.47 10.274C124.367 10.82 124.143 11.261 123.798 11.597C123.457 11.933 123.044 12.1827 122.559 12.346C122.078 12.5047 121.423 12.584 120.592 12.584V11.065ZM129.979 12.57C128.887 12.57 127.968 12.4043 127.221 12.073C126.475 11.7417 125.992 11.1723 125.772 10.365L127.83 9.609C127.938 10.085 128.18 10.442 128.558 10.68C128.936 10.918 129.422 11.037 130.014 11.037C130.504 11.037 130.885 10.9623 131.155 10.813C131.426 10.659 131.561 10.4467 131.561 10.176C131.561 9.80733 131.319 9.57167 130.833 9.469C130.348 9.36633 129.727 9.25433 128.971 9.133C128.024 8.98833 127.263 8.72933 126.689 8.356C126.12 7.978 125.835 7.369 125.835 6.529C125.835 5.70767 126.188 5.10333 126.892 4.716C127.597 4.32867 128.521 4.135 129.664 4.135C130.78 4.135 131.692 4.29833 132.401 4.625C133.111 4.947 133.566 5.50233 133.766 6.291L131.701 7.033C131.594 6.60833 131.358 6.27233 130.994 6.025C130.63 5.77767 130.178 5.654 129.636 5.654C129.128 5.654 128.752 5.731 128.509 5.885C128.271 6.039 128.152 6.25133 128.152 6.522C128.152 6.87667 128.383 7.10767 128.845 7.215C129.307 7.31767 129.9 7.425 130.623 7.537C131.552 7.67233 132.327 7.908 132.947 8.244C133.573 8.57533 133.885 9.161 133.885 10.001C133.885 10.9203 133.547 11.5783 132.87 11.975C132.194 12.3717 131.23 12.57 129.979 12.57ZM138.961 12.605C138.224 12.605 137.599 12.451 137.085 12.143C136.577 11.8303 136.322 11.268 136.322 10.456V5.822H134.425V4.205H136.322V2.308H138.681V4.205H141.229V5.822H138.681V9.938C138.681 10.3907 138.775 10.687 138.961 10.827C139.153 10.9623 139.421 11.03 139.766 11.03C140.112 11.03 140.45 10.9717 140.781 10.855V12.409C140.203 12.5397 139.596 12.605 138.961 12.605Z"
        fill="#828DA9" />
</svg>
