<svg width="375" height="48" viewBox="0 0 375 48" fill="none" xmlns="http://www.w3.org/2000/svg">
<g clip-path="url(#clip0_1030_7748)">
<path d="M16 24C16 12.6863 16 7.02944 19.5147 3.51472C23.0294 0 28.6863 0 40 0H335C346.314 0 351.971 0 355.485 3.51472C359 7.02944 359 12.6863 359 24C359 35.3137 359 40.9706 355.485 44.4853C351.971 48 346.314 48 335 48H40C28.6863 48 23.0294 48 19.5147 44.4853C16 40.9706 16 35.3137 16 24Z" fill="url(#paint0_linear_1030_7748)"/>
<g clip-path="url(#clip1_1030_7748)">
<circle cx="365.5" cy="5" r="131.5" fill="#2FA52D"/>
<circle cx="365.5" cy="5" r="65.75" fill="#F6F8FA"/>
<circle cx="365.5" cy="5" r="32.875" fill="#185C32"/>
</g>
<rect x="28" y="8" width="32" height="32" rx="16" fill="#93E380"/>
<path fill-rule="evenodd" clip-rule="evenodd" d="M44 28C47.866 28 51 24.866 51 21C51 17.134 47.866 14 44 14C40.134 14 37 17.134 37 21C37 24.866 40.134 28 44 28ZM44 18C43.7159 18 43.5259 18.3408 43.1459 19.0225L43.0476 19.1989C42.9397 19.3926 42.8857 19.4894 42.8015 19.5533C42.7173 19.6172 42.6125 19.641 42.4028 19.6884L42.2119 19.7316C41.474 19.8986 41.105 19.982 41.0172 20.2643C40.9294 20.5466 41.181 20.8407 41.684 21.429L41.8142 21.5812C41.9571 21.7483 42.0286 21.8319 42.0608 21.9353C42.0929 22.0387 42.0821 22.1502 42.0605 22.3733L42.0408 22.5763C41.9648 23.3612 41.9267 23.7536 42.1565 23.9281C42.3864 24.1025 42.7318 23.9435 43.4227 23.6254L43.6014 23.5431C43.7978 23.4527 43.8959 23.4075 44 23.4075C44.1041 23.4075 44.2022 23.4527 44.3986 23.5431L44.5773 23.6254C45.2682 23.9435 45.6136 24.1025 45.8435 23.9281C46.0733 23.7536 46.0352 23.3612 45.9592 22.5763L45.9395 22.3733C45.9179 22.1502 45.9071 22.0387 45.9392 21.9353C45.9714 21.8319 46.0429 21.7483 46.1858 21.5812L46.316 21.429C46.819 20.8407 47.0706 20.5466 46.9828 20.2643C46.895 19.982 46.526 19.8986 45.7881 19.7316L45.5972 19.6884C45.3875 19.641 45.2827 19.6172 45.1985 19.5533C45.1143 19.4894 45.0603 19.3926 44.9524 19.1989L44.8541 19.0225C44.4741 18.3408 44.2841 18 44 18Z" fill="#ED0027"/>
<path d="M36.4952 24.9941L34.9921 26.5505C34.4519 27.1097 34.1819 27.3893 34.0884 27.6261C33.8755 28.1657 34.0577 28.7643 34.5214 29.0482C34.7249 29.1727 35.0919 29.2115 35.8259 29.2892C36.2403 29.333 36.4476 29.3549 36.6211 29.4214C37.0097 29.5704 37.3119 29.8833 37.4558 30.2856C37.52 30.4653 37.5412 30.6799 37.5835 31.109C37.6585 31.869 37.696 32.249 37.8163 32.4597C38.0904 32.9398 38.6685 33.1285 39.1897 32.908C39.4184 32.8112 39.6884 32.5316 40.2285 31.9724L42.7106 29.4025C40.0131 28.9919 37.7322 27.3135 36.4952 24.9941Z" fill="#050505"/>
<path d="M45.2894 29.4025L47.7715 31.9724C48.3116 32.5316 48.5816 32.8112 48.8103 32.908C49.3315 33.1285 49.9096 32.9398 50.1837 32.4597C50.304 32.249 50.3415 31.869 50.4165 31.109C50.4588 30.6799 50.48 30.4653 50.5442 30.2856C50.6881 29.8833 50.9903 29.5704 51.3789 29.4214C51.5525 29.3549 51.7597 29.333 52.1741 29.2892C52.9081 29.2115 53.2751 29.1727 53.4786 29.0482C53.9423 28.7643 54.1245 28.1657 53.9116 27.6261C53.8181 27.3893 53.5481 27.1097 53.0079 26.5505L51.5048 24.9941C50.2677 27.3135 47.9869 28.9919 45.2894 29.4025Z" fill="#050505"/>
<path d="M71.24 20V12.428H68.204V11.6H75.2V12.428H72.164V20H71.24ZM77.6112 20.108C77.0352 20.108 76.5112 19.972 76.0392 19.7C75.5752 19.42 75.2032 19.044 74.9232 18.572C74.6512 18.1 74.5152 17.572 74.5152 16.988C74.5152 16.412 74.6472 15.892 74.9112 15.428C75.1752 14.956 75.5312 14.584 75.9792 14.312C76.4272 14.032 76.9272 13.892 77.4792 13.892C78.0152 13.892 78.4952 14.032 78.9192 14.312C79.3512 14.584 79.6912 14.956 79.9392 15.428C80.1952 15.892 80.3232 16.412 80.3232 16.988V17.264H75.3912C75.4392 17.656 75.5632 18.008 75.7632 18.32C75.9712 18.632 76.2392 18.88 76.5672 19.064C76.8952 19.24 77.2552 19.328 77.6472 19.328C77.9592 19.328 78.2632 19.28 78.5592 19.184C78.8552 19.088 79.1032 18.952 79.3032 18.776L79.8552 19.364C79.5192 19.612 79.1672 19.8 78.7992 19.928C78.4392 20.048 78.0432 20.108 77.6112 20.108ZM75.4152 16.556H79.4352C79.3872 16.196 79.2672 15.876 79.0752 15.596C78.8912 15.308 78.6592 15.084 78.3792 14.924C78.0992 14.756 77.7912 14.672 77.4552 14.672C77.1112 14.672 76.7952 14.752 76.5072 14.912C76.2192 15.072 75.9792 15.296 75.7872 15.584C75.5952 15.864 75.4712 16.188 75.4152 16.556ZM81.5646 20V11.6L82.4526 11.396V20H81.5646ZM83.9669 20V11.6L84.8549 11.396V20H83.9669ZM88.2653 20.108C87.8253 20.108 87.4373 20.032 87.1013 19.88C86.7733 19.728 86.5133 19.516 86.3213 19.244C86.1373 18.972 86.0453 18.656 86.0453 18.296C86.0453 17.728 86.2613 17.28 86.6933 16.952C87.1253 16.624 87.7093 16.46 88.4453 16.46C89.0933 16.46 89.6813 16.596 90.2093 16.868V16.076C90.2093 15.596 90.0733 15.236 89.8013 14.996C89.5293 14.748 89.1333 14.624 88.6133 14.624C88.3173 14.624 88.0173 14.668 87.7133 14.756C87.4173 14.836 87.0893 14.968 86.7293 15.152L86.3933 14.468C86.8253 14.26 87.2253 14.108 87.5933 14.012C87.9613 13.916 88.3293 13.868 88.6973 13.868C89.4573 13.868 90.0413 14.048 90.4493 14.408C90.8653 14.768 91.0733 15.284 91.0733 15.956V20H90.2093V19.412C89.9373 19.644 89.6373 19.82 89.3093 19.94C88.9893 20.052 88.6413 20.108 88.2653 20.108ZM86.8973 18.272C86.8973 18.608 87.0373 18.884 87.3173 19.1C87.6053 19.308 87.9733 19.412 88.4213 19.412C88.7813 19.412 89.1093 19.356 89.4053 19.244C89.7013 19.132 89.9693 18.956 90.2093 18.716V17.588C89.9613 17.42 89.6973 17.3 89.4173 17.228C89.1373 17.148 88.8213 17.108 88.4693 17.108C87.9893 17.108 87.6053 17.216 87.3173 17.432C87.0373 17.64 86.8973 17.92 86.8973 18.272ZM95.3029 20V11.6H98.9029C99.4549 11.6 99.9349 11.7 100.343 11.9C100.751 12.1 101.067 12.38 101.291 12.74C101.523 13.1 101.639 13.524 101.639 14.012C101.639 14.564 101.475 15.04 101.147 15.44C100.827 15.832 100.395 16.108 99.8509 16.268L101.735 20H100.715L98.9149 16.388H96.2269V20H95.3029ZM96.2269 15.608H98.8429C99.4109 15.608 99.8629 15.464 100.199 15.176C100.543 14.888 100.715 14.5 100.715 14.012C100.715 13.532 100.543 13.148 100.199 12.86C99.8629 12.572 99.4109 12.428 98.8429 12.428H96.2269V15.608ZM105.326 20.108C104.75 20.108 104.226 19.972 103.754 19.7C103.29 19.42 102.918 19.044 102.638 18.572C102.366 18.1 102.23 17.572 102.23 16.988C102.23 16.412 102.362 15.892 102.626 15.428C102.89 14.956 103.246 14.584 103.694 14.312C104.142 14.032 104.642 13.892 105.194 13.892C105.73 13.892 106.21 14.032 106.634 14.312C107.066 14.584 107.406 14.956 107.654 15.428C107.91 15.892 108.038 16.412 108.038 16.988V17.264H103.106C103.154 17.656 103.278 18.008 103.478 18.32C103.686 18.632 103.954 18.88 104.282 19.064C104.61 19.24 104.97 19.328 105.362 19.328C105.674 19.328 105.978 19.28 106.274 19.184C106.57 19.088 106.818 18.952 107.018 18.776L107.57 19.364C107.234 19.612 106.882 19.8 106.514 19.928C106.154 20.048 105.758 20.108 105.326 20.108ZM103.13 16.556H107.15C107.102 16.196 106.982 15.876 106.79 15.596C106.606 15.308 106.374 15.084 106.094 14.924C105.814 14.756 105.506 14.672 105.17 14.672C104.826 14.672 104.51 14.752 104.222 14.912C103.934 15.072 103.694 15.296 103.502 15.584C103.31 15.864 103.186 16.188 103.13 16.556ZM110.266 20L108.574 13.988H109.45L110.746 18.788L112.246 13.988H113.038L114.526 18.788L115.834 13.988H116.674L114.97 20H114.118L112.63 15.188L111.13 20H110.266ZM119.437 20.108C118.997 20.108 118.609 20.032 118.273 19.88C117.945 19.728 117.685 19.516 117.493 19.244C117.309 18.972 117.217 18.656 117.217 18.296C117.217 17.728 117.433 17.28 117.865 16.952C118.297 16.624 118.881 16.46 119.617 16.46C120.265 16.46 120.853 16.596 121.381 16.868V16.076C121.381 15.596 121.245 15.236 120.973 14.996C120.701 14.748 120.305 14.624 119.785 14.624C119.489 14.624 119.189 14.668 118.885 14.756C118.589 14.836 118.261 14.968 117.901 15.152L117.565 14.468C117.997 14.26 118.397 14.108 118.765 14.012C119.133 13.916 119.501 13.868 119.869 13.868C120.629 13.868 121.213 14.048 121.621 14.408C122.037 14.768 122.245 15.284 122.245 15.956V20H121.381V19.412C121.109 19.644 120.809 19.82 120.481 19.94C120.161 20.052 119.813 20.108 119.437 20.108ZM118.069 18.272C118.069 18.608 118.209 18.884 118.489 19.1C118.777 19.308 119.145 19.412 119.593 19.412C119.953 19.412 120.281 19.356 120.577 19.244C120.873 19.132 121.141 18.956 121.381 18.716V17.588C121.133 17.42 120.869 17.3 120.589 17.228C120.309 17.148 119.993 17.108 119.641 17.108C119.161 17.108 118.777 17.216 118.489 17.432C118.209 17.64 118.069 17.92 118.069 18.272ZM123.729 20V13.988H124.617V14.84C124.801 14.528 125.033 14.288 125.313 14.12C125.601 13.944 125.929 13.856 126.297 13.856C126.505 13.856 126.693 13.884 126.861 13.94V14.756C126.757 14.716 126.653 14.688 126.549 14.672C126.445 14.656 126.341 14.648 126.237 14.648C125.869 14.648 125.545 14.756 125.265 14.972C124.993 15.18 124.777 15.484 124.617 15.884V20H123.729ZM130.203 20.096C129.643 20.096 129.131 19.96 128.667 19.688C128.211 19.408 127.847 19.036 127.575 18.572C127.311 18.1 127.179 17.572 127.179 16.988C127.179 16.404 127.311 15.88 127.575 15.416C127.847 14.952 128.211 14.584 128.667 14.312C129.131 14.032 129.647 13.892 130.215 13.892C130.567 13.892 130.907 13.952 131.235 14.072C131.563 14.184 131.863 14.352 132.135 14.576V11.6L133.023 11.396V20H132.147V19.364C131.619 19.852 130.971 20.096 130.203 20.096ZM130.287 19.316C130.663 19.316 131.011 19.244 131.331 19.1C131.659 18.948 131.927 18.74 132.135 18.476V15.5C131.927 15.244 131.659 15.044 131.331 14.9C131.011 14.748 130.663 14.672 130.287 14.672C129.871 14.672 129.491 14.772 129.147 14.972C128.811 15.172 128.543 15.448 128.343 15.8C128.151 16.144 128.055 16.536 128.055 16.976C128.055 17.416 128.151 17.812 128.343 18.164C128.543 18.516 128.811 18.796 129.147 19.004C129.491 19.212 129.871 19.316 130.287 19.316ZM136.453 20.12C135.957 20.12 135.489 20.04 135.049 19.88C134.617 19.712 134.241 19.48 133.921 19.184L134.461 18.608C134.741 18.864 135.049 19.064 135.385 19.208C135.721 19.344 136.065 19.412 136.417 19.412C136.897 19.412 137.289 19.312 137.593 19.112C137.897 18.912 138.049 18.652 138.049 18.332C138.049 18.068 137.957 17.864 137.773 17.72C137.597 17.568 137.317 17.464 136.933 17.408L135.889 17.264C135.289 17.176 134.841 16.996 134.545 16.724C134.257 16.452 134.113 16.084 134.113 15.62C134.113 15.284 134.209 14.984 134.401 14.72C134.593 14.456 134.857 14.248 135.193 14.096C135.537 13.944 135.929 13.868 136.369 13.868C136.809 13.868 137.221 13.932 137.605 14.06C137.989 14.188 138.365 14.388 138.733 14.66L138.265 15.26C137.929 15.028 137.601 14.86 137.281 14.756C136.969 14.644 136.649 14.588 136.321 14.588C135.905 14.588 135.569 14.68 135.313 14.864C135.057 15.048 134.929 15.288 134.929 15.584C134.929 15.856 135.017 16.064 135.193 16.208C135.369 16.344 135.653 16.44 136.045 16.496L137.089 16.64C137.689 16.72 138.137 16.896 138.433 17.168C138.737 17.44 138.889 17.812 138.889 18.284C138.889 18.628 138.781 18.94 138.565 19.22C138.349 19.5 138.057 19.72 137.689 19.88C137.329 20.04 136.917 20.12 136.453 20.12ZM140.633 20.072C140.465 20.072 140.321 20.012 140.201 19.892C140.081 19.772 140.021 19.628 140.021 19.46C140.021 19.292 140.081 19.148 140.201 19.028C140.321 18.908 140.465 18.848 140.633 18.848C140.801 18.848 140.945 18.908 141.065 19.028C141.185 19.148 141.245 19.292 141.245 19.46C141.245 19.628 141.185 19.772 141.065 19.892C140.945 20.012 140.801 20.072 140.633 20.072ZM140.633 15.08C140.465 15.08 140.321 15.02 140.201 14.9C140.081 14.78 140.021 14.636 140.021 14.468C140.021 14.3 140.081 14.156 140.201 14.036C140.321 13.916 140.465 13.856 140.633 13.856C140.801 13.856 140.945 13.916 141.065 14.036C141.185 14.156 141.245 14.3 141.245 14.468C141.245 14.636 141.185 14.78 141.065 14.9C140.945 15.02 140.801 15.08 140.633 15.08Z" fill="#050505"/>
<path d="M152.026 11.298C154.77 11.298 156.436 13.356 156.436 16.24C156.436 19.124 154.77 21.182 152.026 21.182C149.282 21.182 147.616 19.124 147.616 16.24C147.616 13.356 149.282 11.298 152.026 11.298ZM152.026 19.124C153.44 19.124 154.196 17.892 154.196 16.24C154.196 14.588 153.44 13.356 152.026 13.356C150.612 13.356 149.856 14.588 149.856 16.24C149.856 17.892 150.612 19.124 152.026 19.124Z" fill="#050505"/>
<path d="M73.016 38.268C74.504 38.268 75.584 37.404 75.92 36.084H76.904C76.52 37.92 75.02 39.156 73.016 39.156C70.664 39.156 68.768 37.332 68.768 34.92C68.768 32.508 70.664 30.696 73.016 30.696C75.02 30.696 76.52 31.92 76.904 33.756H75.92C75.584 32.424 74.504 31.584 73.016 31.584C71.168 31.584 69.728 33.012 69.728 34.92C69.728 36.828 71.168 38.268 73.016 38.268ZM82.977 33.432H83.889V39H82.977V38.424C82.485 38.88 81.813 39.144 81.021 39.144C79.425 39.144 78.153 37.848 78.153 36.216C78.153 34.596 79.425 33.288 81.021 33.288C81.813 33.288 82.485 33.552 82.977 34.008V33.432ZM81.141 38.304C81.873 38.304 82.521 38.028 82.977 37.356V35.076C82.521 34.404 81.873 34.128 81.141 34.128C79.965 34.128 79.065 35.064 79.065 36.216C79.065 37.368 79.965 38.304 81.141 38.304ZM86.327 37.248C86.495 37.992 87.071 38.388 88.091 38.388C88.955 38.388 89.543 38.064 89.543 37.5C89.543 37.032 89.171 36.756 88.631 36.66L87.371 36.456C86.459 36.3 85.715 35.892 85.715 34.944C85.715 33.912 86.627 33.288 87.971 33.288C89.135 33.288 90.287 33.732 90.395 35.052H89.543C89.447 34.356 88.859 34.032 87.971 34.032C87.131 34.032 86.627 34.356 86.627 34.86C86.627 35.268 86.903 35.568 87.659 35.7L88.763 35.88C89.567 36.012 90.419 36.372 90.419 37.44C90.419 38.532 89.435 39.144 88.067 39.144C86.651 39.144 85.643 38.556 85.475 37.248H86.327ZM95.0677 33.288C96.4837 33.288 97.4557 34.236 97.4557 35.808V39H96.5437V35.856C96.5437 34.728 95.8837 34.128 94.8997 34.128C94.2397 34.128 93.5557 34.464 93.0757 35.088V39H92.1637V30.48H93.0757V34.056C93.5917 33.564 94.2757 33.288 95.0677 33.288ZM108.644 30.84H109.688L105.932 39.06H105.044L101.288 30.84H102.332L105.488 37.788L108.644 30.84ZM114.489 33.432H115.401V39H114.489V38.424C113.997 38.88 113.325 39.144 112.533 39.144C110.937 39.144 109.665 37.848 109.665 36.216C109.665 34.596 110.937 33.288 112.533 33.288C113.325 33.288 113.997 33.552 114.489 34.008V33.432ZM112.653 38.304C113.385 38.304 114.033 38.028 114.489 37.356V35.076C114.033 34.404 113.385 34.128 112.653 34.128C111.477 34.128 110.577 35.064 110.577 36.216C110.577 37.368 111.477 38.304 112.653 38.304ZM117.371 30.48H118.283V39H117.371V30.48ZM124.394 33.432H125.306V39H124.394V38.364C123.878 38.856 123.194 39.144 122.402 39.144C120.986 39.144 120.014 38.172 120.014 36.6V33.432H120.926V36.552C120.926 37.68 121.586 38.304 122.57 38.304C123.23 38.304 123.914 37.956 124.394 37.32V33.432ZM129.841 33.288C131.629 33.288 132.745 34.668 132.565 36.492H127.909C128.017 37.524 128.725 38.328 129.889 38.328C130.597 38.328 131.137 38.076 131.377 37.608H132.397C132.049 38.568 131.089 39.144 129.889 39.144C128.173 39.144 126.985 37.86 126.985 36.216C126.985 34.572 128.161 33.288 129.841 33.288ZM129.841 34.08C128.737 34.08 128.053 34.86 127.921 35.844H131.653C131.605 34.74 130.897 34.08 129.841 34.08ZM134.377 34.536C134.041 34.536 133.765 34.272 133.765 33.924C133.765 33.588 134.041 33.336 134.377 33.336C134.725 33.336 135.001 33.588 135.001 33.924C135.001 34.272 134.725 34.536 134.377 34.536ZM134.377 39.096C134.041 39.096 133.765 38.832 133.765 38.484C133.765 38.148 134.041 37.896 134.377 37.896C134.725 37.896 135.001 38.148 135.001 38.484C135.001 38.832 134.725 39.096 134.377 39.096Z" fill="#828DA9"/>
<path d="M147.128 30.84H148.076V39H147.284L142.064 32.568V39H141.116V30.84H141.884L147.128 37.356V30.84ZM153.496 30.696C155.728 30.696 157.036 32.424 157.036 34.92C157.036 37.416 155.728 39.144 153.496 39.144C151.264 39.144 149.956 37.416 149.956 34.92C149.956 32.424 151.264 30.696 153.496 30.696ZM153.496 38.28C155.164 38.28 156.076 36.9 156.076 34.92C156.076 32.94 155.164 31.548 153.496 31.548C151.828 31.548 150.916 32.94 150.916 34.92C150.916 36.9 151.828 38.28 153.496 38.28ZM158.354 39.096C158.018 39.096 157.742 38.832 157.742 38.484C157.742 38.148 158.018 37.896 158.354 37.896C158.702 37.896 158.978 38.148 158.978 38.484C158.978 38.832 158.702 39.096 158.354 39.096ZM163.222 30.696C165.454 30.696 166.762 32.424 166.762 34.92C166.762 37.416 165.454 39.144 163.222 39.144C160.99 39.144 159.682 37.416 159.682 34.92C159.682 32.424 160.99 30.696 163.222 30.696ZM163.222 38.28C164.89 38.28 165.802 36.9 165.802 34.92C165.802 32.94 164.89 31.548 163.222 31.548C161.554 31.548 160.642 32.94 160.642 34.92C160.642 36.9 161.554 38.28 163.222 38.28ZM171.835 30.696C174.067 30.696 175.375 32.424 175.375 34.92C175.375 37.416 174.067 39.144 171.835 39.144C169.603 39.144 168.295 37.416 168.295 34.92C168.295 32.424 169.603 30.696 171.835 30.696ZM171.835 38.28C173.503 38.28 174.415 36.9 174.415 34.92C174.415 32.94 173.503 31.548 171.835 31.548C170.167 31.548 169.255 32.94 169.255 34.92C169.255 36.9 170.167 38.28 171.835 38.28Z" fill="#828DA9"/>
<rect x="319" y="12" width="24" height="24" rx="12" fill="#52C37D"/>
<path fill-rule="evenodd" clip-rule="evenodd" d="M328.675 18.9544C328.884 18.7747 329.2 18.7989 329.38 19.0086L333.38 23.6753C333.54 23.8625 333.54 24.1388 333.38 24.3261L329.38 28.9927C329.2 29.2024 328.884 29.2267 328.675 29.047C328.465 28.8672 328.441 28.5516 328.62 28.3419L332.341 24.0007L328.62 19.6594C328.441 19.4497 328.465 19.1341 328.675 18.9544Z" fill="white"/>
</g>
<path d="M16.2 24C16.2 18.3375 16.2004 14.1107 16.6376 10.8594C17.0739 7.6138 17.9421 5.37015 19.6561 3.65614C21.3701 1.94213 23.6138 1.07391 26.8594 0.637556C30.1107 0.200425 34.3375 0.2 40 0.2H335C340.663 0.2 344.889 0.200425 348.141 0.637556C351.386 1.07391 353.63 1.94213 355.344 3.65614C357.058 5.37015 357.926 7.6138 358.362 10.8594C358.8 14.1107 358.8 18.3375 358.8 24C358.8 29.6625 358.8 33.8893 358.362 37.1406C357.926 40.3862 357.058 42.6299 355.344 44.3439C353.63 46.0579 351.386 46.9261 348.141 47.3624C344.889 47.7996 340.663 47.8 335 47.8H40C34.3375 47.8 30.1107 47.7996 26.8594 47.3624C23.6138 46.9261 21.3701 46.0579 19.6561 44.3439C17.9421 42.6299 17.0739 40.3862 16.6376 37.1406C16.2004 33.8893 16.2 29.6625 16.2 24Z" stroke="#E2E4EB" stroke-width="0.4"/>
<defs>
<linearGradient id="paint0_linear_1030_7748" x1="16" y1="24" x2="359" y2="24" gradientUnits="userSpaceOnUse">
<stop offset="0.0885417" stop-color="#E6FBEE"/>
<stop offset="1" stop-color="white"/>
</linearGradient>
<clipPath id="clip0_1030_7748">
<path d="M16 24C16 12.6863 16 7.02944 19.5147 3.51472C23.0294 0 28.6863 0 40 0H335C346.314 0 351.971 0 355.485 3.51472C359 7.02944 359 12.6863 359 24C359 35.3137 359 40.9706 355.485 44.4853C351.971 48 346.314 48 335 48H40C28.6863 48 23.0294 48 19.5147 44.4853C16 40.9706 16 35.3137 16 24Z" fill="white"/>
</clipPath>
<clipPath id="clip1_1030_7748">
<rect width="375" height="150" fill="white" transform="translate(-16)"/>
</clipPath>
</defs>
</svg>
