<svg width="171" height="24" viewBox="0 0 171 24" fill="none" xmlns="http://www.w3.org/2000/svg">
    <rect width="24" height="24" rx="12" fill="#C2F6AE"/>
    <path fill-rule="evenodd" clip-rule="evenodd" d="M15.4881 4.43057C15.8026 4.70014 15.839 5.17361 15.5694 5.48811L9.98781 12L15.5694 18.5119C15.839 18.8264 15.8026 19.2999 15.4881 19.5695C15.1736 19.839 14.7001 19.8026 14.4306 19.4881L8.43056 12.4881C8.18981 12.2072 8.18981 11.7928 8.43056 11.5119L14.4306 4.51192C14.7001 4.19743 15.1736 4.161 15.4881 4.43057Z" fill="#828DA9"/>
    <path d="M35.76 16.5V7.548H32.544V5.7H41.696V7.548H38.488V16.5H35.76ZM48.1739 11.692C48.1739 10.4973 48.0379 9.716 47.7659 9.348C47.4939 8.97467 47.1152 8.788 46.6299 8.788C46.0645 8.788 45.6165 8.98533 45.2859 9.38C44.9552 9.76933 44.7899 10.2173 44.7899 10.724L43.7579 10.108C43.7579 9.212 44.1152 8.46 44.8299 7.852C45.5445 7.23867 46.4805 6.932 47.6379 6.932C48.8912 6.932 49.7419 7.31867 50.1899 8.092C50.6379 8.86 50.8619 10.06 50.8619 11.692H48.1739ZM42.1099 16.5V7.02H44.1899L44.7979 8.66V16.5H42.1099ZM55.7858 16.604C55.4124 16.604 55.0444 16.5827 54.6818 16.54C54.3244 16.4973 53.9884 16.4173 53.6738 16.3C53.3591 16.1773 53.0818 16.0067 52.8418 15.788C52.6018 15.5693 52.4124 15.2867 52.2738 14.94C52.1404 14.5933 52.0738 14.1693 52.0738 13.668C52.0738 13.1827 52.1404 12.7747 52.2738 12.444C52.4124 12.108 52.5991 11.8333 52.8338 11.62C53.0684 11.4067 53.3404 11.2413 53.6497 11.124C53.9591 11.0067 54.2898 10.9267 54.6418 10.884C54.9938 10.836 55.3511 10.812 55.7138 10.812H58.7058V10.444C58.7058 10.012 58.6204 9.67067 58.4498 9.42C58.2844 9.16933 58.0551 8.99333 57.7618 8.892C57.4738 8.78533 57.1484 8.732 56.7858 8.732C56.4551 8.732 56.1538 8.78267 55.8818 8.884C55.6098 8.98533 55.3804 9.15067 55.1938 9.38C55.0124 9.60933 54.8844 9.916 54.8098 10.3L52.1778 9.564C52.2738 9.08933 52.4498 8.68667 52.7058 8.356C52.9671 8.02 53.2978 7.748 53.6978 7.54C54.1031 7.32667 54.5644 7.172 55.0818 7.076C55.6044 6.97467 56.1698 6.924 56.7778 6.924C57.7324 6.924 58.5564 7.03867 59.2498 7.268C59.9431 7.49733 60.4764 7.87867 60.8498 8.412C61.2231 8.94533 61.4098 9.67067 61.4098 10.588V16.5H59.1698L58.9378 15.412C58.8738 15.556 58.7538 15.7 58.5778 15.844C58.4018 15.9827 58.1751 16.1107 57.8978 16.228C57.6258 16.34 57.3111 16.4307 56.9538 16.5C56.6018 16.5693 56.2124 16.604 55.7858 16.604ZM56.3938 14.916C56.6551 14.916 56.9138 14.892 57.1698 14.844C57.4311 14.796 57.6684 14.7267 57.8818 14.636C58.1004 14.5453 58.2818 14.4387 58.4258 14.316C58.5698 14.188 58.6631 14.0493 58.7058 13.9L58.7698 12.3H56.3458C56.1324 12.3 55.9324 12.316 55.7458 12.348C55.5591 12.3747 55.3938 12.4333 55.2498 12.524C55.1111 12.6147 55.0018 12.7453 54.9218 12.916C54.8418 13.0867 54.8018 13.3107 54.8018 13.588C54.8018 13.8707 54.8444 14.1 54.9298 14.276C55.0204 14.4467 55.1404 14.58 55.2898 14.676C55.4444 14.7667 55.6151 14.8307 55.8018 14.868C55.9938 14.9 56.1911 14.916 56.3938 14.916ZM62.9224 16.5V7.02H65.0024L65.6104 8.62V16.5H62.9224ZM69.1064 16.5V11.476C69.1064 10.4253 68.9784 9.71333 68.7224 9.34C68.4664 8.96667 68.0717 8.78 67.5384 8.78C66.9784 8.78 66.501 9.00933 66.1064 9.468C65.717 9.92133 65.5224 10.5107 65.5224 11.236L64.2184 10.628C64.2184 9.79067 64.6184 8.96667 65.4184 8.156C66.2184 7.34 67.2637 6.932 68.5544 6.932C69.7757 6.932 70.621 7.348 71.0904 8.18C71.5597 9.00667 71.7944 10.092 71.7944 11.436V16.5H69.1064ZM78.0635 16.58C76.8155 16.58 75.7648 16.3907 74.9115 16.012C74.0582 15.6333 73.5062 14.9827 73.2555 14.06L75.6075 13.196C75.7302 13.74 76.0075 14.148 76.4395 14.42C76.8715 14.692 77.4262 14.828 78.1035 14.828C78.6635 14.828 79.0982 14.7427 79.4075 14.572C79.7168 14.396 79.8715 14.1533 79.8715 13.844C79.8715 13.4227 79.5942 13.1533 79.0395 13.036C78.4848 12.9187 77.7755 12.7907 76.9115 12.652C75.8288 12.4867 74.9595 12.1907 74.3035 11.764C73.6528 11.332 73.3275 10.636 73.3275 9.676C73.3275 8.73733 73.7302 8.04667 74.5355 7.604C75.3408 7.16133 76.3968 6.94 77.7035 6.94C78.9782 6.94 80.0208 7.12667 80.8315 7.5C81.6422 7.868 82.1622 8.50267 82.3915 9.404L80.0315 10.252C79.9088 9.76667 79.6395 9.38267 79.2235 9.1C78.8075 8.81733 78.2902 8.676 77.6715 8.676C77.0902 8.676 76.6608 8.764 76.3835 8.94C76.1115 9.116 75.9755 9.35867 75.9755 9.668C75.9755 10.0733 76.2395 10.3373 76.7675 10.46C77.2955 10.5773 77.9728 10.7 78.7995 10.828C79.8608 10.9827 80.7462 11.252 81.4555 11.636C82.1702 12.0147 82.5275 12.684 82.5275 13.644C82.5275 14.6947 82.1408 15.4467 81.3675 15.9C80.5942 16.3533 79.4928 16.58 78.0635 16.58ZM87.3639 16.604C86.9905 16.604 86.6225 16.5827 86.2599 16.54C85.9025 16.4973 85.5665 16.4173 85.2519 16.3C84.9372 16.1773 84.6599 16.0067 84.4199 15.788C84.1799 15.5693 83.9905 15.2867 83.8519 14.94C83.7185 14.5933 83.6519 14.1693 83.6519 13.668C83.6519 13.1827 83.7185 12.7747 83.8519 12.444C83.9905 12.108 84.1772 11.8333 84.4119 11.62C84.6465 11.4067 84.9185 11.2413 85.2279 11.124C85.5372 11.0067 85.8679 10.9267 86.2199 10.884C86.5719 10.836 86.9292 10.812 87.2919 10.812H90.2839V10.444C90.2839 10.012 90.1985 9.67067 90.0279 9.42C89.8625 9.16933 89.6332 8.99333 89.3399 8.892C89.0519 8.78533 88.7265 8.732 88.3639 8.732C88.0332 8.732 87.7319 8.78267 87.4599 8.884C87.1879 8.98533 86.9585 9.15067 86.7719 9.38C86.5905 9.60933 86.4625 9.916 86.3879 10.3L83.7559 9.564C83.8519 9.08933 84.0279 8.68667 84.2839 8.356C84.5452 8.02 84.8759 7.748 85.2759 7.54C85.6812 7.32667 86.1425 7.172 86.6599 7.076C87.1825 6.97467 87.7479 6.924 88.3559 6.924C89.3105 6.924 90.1345 7.03867 90.8279 7.268C91.5212 7.49733 92.0545 7.87867 92.4279 8.412C92.8012 8.94533 92.9879 9.67067 92.9879 10.588V16.5H90.7479L90.5159 15.412C90.4519 15.556 90.3319 15.7 90.1559 15.844C89.9799 15.9827 89.7532 16.1107 89.4759 16.228C89.2039 16.34 88.8892 16.4307 88.5319 16.5C88.1799 16.5693 87.7905 16.604 87.3639 16.604ZM87.9719 14.916C88.2332 14.916 88.4919 14.892 88.7479 14.844C89.0092 14.796 89.2465 14.7267 89.4599 14.636C89.6785 14.5453 89.8599 14.4387 90.0039 14.316C90.1479 14.188 90.2412 14.0493 90.2839 13.9L90.3479 12.3H87.9239C87.7105 12.3 87.5105 12.316 87.3239 12.348C87.1372 12.3747 86.9719 12.4333 86.8279 12.524C86.6892 12.6147 86.5799 12.7453 86.4999 12.916C86.4199 13.0867 86.3799 13.3107 86.3799 13.588C86.3799 13.8707 86.4225 14.1 86.5079 14.276C86.5985 14.4467 86.7185 14.58 86.8679 14.676C87.0225 14.7667 87.1932 14.8307 87.3799 14.868C87.5719 14.9 87.7692 14.916 87.9719 14.916ZM98.9245 16.596C97.1538 16.596 95.9165 16.1773 95.2125 15.34C94.5138 14.4973 94.1645 13.3107 94.1645 11.78C94.1645 10.212 94.5138 9.012 95.2125 8.18C95.9165 7.348 97.1538 6.932 98.9245 6.932C100.498 6.932 101.589 7.27333 102.197 7.956C102.81 8.63867 103.167 9.356 103.269 10.108L100.877 10.94C100.834 10.2147 100.642 9.676 100.301 9.324C99.9645 8.96667 99.5058 8.788 98.9245 8.788C98.3485 8.788 97.8685 8.988 97.4845 9.388C97.1005 9.788 96.9085 10.5853 96.9085 11.78C96.9085 12.9267 97.1005 13.708 97.4845 14.124C97.8685 14.54 98.3485 14.748 98.9245 14.748C99.5058 14.748 99.9645 14.5613 100.301 14.188C100.642 13.8147 100.834 13.292 100.877 12.62L103.269 13.484C103.167 14.1827 102.81 14.876 102.197 15.564C101.589 16.252 100.498 16.596 98.9245 16.596ZM109.282 16.62C108.439 16.62 107.725 16.444 107.138 16.092C106.557 15.7347 106.266 15.092 106.266 14.164V8.868H104.098V7.02H106.266V4.852H108.962V7.02H111.874V8.868H108.962V13.572C108.962 14.0893 109.069 14.428 109.282 14.588C109.501 14.7427 109.807 14.82 110.202 14.82C110.597 14.82 110.983 14.7533 111.362 14.62V16.396C110.701 16.5453 110.007 16.62 109.282 16.62ZM113.302 16.5V7.012H115.998V16.5H113.302ZM113.302 4.164H115.998V6.044H113.302V4.164ZM122.327 16.58C120.588 16.58 119.348 16.1613 118.607 15.324C117.865 14.4813 117.495 13.2787 117.495 11.716C117.495 10.1587 117.865 8.96933 118.607 8.148C119.348 7.32133 120.588 6.908 122.327 6.908C124.06 6.908 125.295 7.32133 126.031 8.148C126.772 8.96933 127.143 10.1587 127.143 11.716C127.143 13.2787 126.772 14.4813 126.031 15.324C125.295 16.1613 124.06 16.58 122.327 16.58ZM122.327 14.756C122.945 14.756 123.455 14.5587 123.855 14.164C124.255 13.7693 124.455 12.9587 124.455 11.732C124.455 10.5107 124.255 9.70533 123.855 9.316C123.455 8.92667 122.945 8.732 122.327 8.732C121.703 8.732 121.191 8.92667 120.791 9.316C120.391 9.70533 120.191 10.5107 120.191 11.732C120.191 12.9587 120.391 13.7693 120.791 14.164C121.191 14.5587 121.703 14.756 122.327 14.756ZM128.454 16.5V7.02H130.534L131.142 8.62V16.5H128.454ZM134.638 16.5V11.476C134.638 10.4253 134.51 9.71333 134.254 9.34C133.998 8.96667 133.603 8.78 133.07 8.78C132.51 8.78 132.032 9.00933 131.638 9.468C131.248 9.92133 131.054 10.5107 131.054 11.236L129.75 10.628C129.75 9.79067 130.15 8.96667 130.95 8.156C131.75 7.34 132.795 6.932 134.086 6.932C135.307 6.932 136.152 7.348 136.622 8.18C137.091 9.00667 137.326 10.092 137.326 11.436V16.5H134.638ZM142.96 16.5V5.7H148.784C150.133 5.7 151.021 6.08133 151.448 6.844C151.875 7.60667 152.088 8.54533 152.088 9.66C152.088 10.7747 151.875 11.7133 151.448 12.476C151.021 13.2387 150.133 13.62 148.784 13.62H145.688V16.5H142.96ZM145.688 11.772H147.968C148.48 11.772 148.843 11.6093 149.056 11.284C149.275 10.9587 149.384 10.4173 149.384 9.66C149.384 8.908 149.275 8.36933 149.056 8.044C148.843 7.71333 148.48 7.548 147.968 7.548H145.688V11.772ZM153.657 16.5V5.7H156.369V16.5H153.657ZM158.21 16.5V5.7H162.602L166.858 15.22H166.466L166.49 5.7H169.202V16.5H164.85L160.594 6.956H160.922V16.5H158.21Z" fill="#050505"/>
</svg>
