<svg width="343" height="32" viewBox="0 0 343 32" fill="none" xmlns="http://www.w3.org/2000/svg">
<rect x="40" width="32" height="32" rx="16" fill="#FFF3D5"/>
<g clip-path="url(#clip0_1979_14463)">
<path fill-rule="evenodd" clip-rule="evenodd" d="M49.25 14.0546V12C49.25 8.27208 52.2721 5.25 56 5.25C59.7279 5.25 62.75 8.27208 62.75 12V14.0546C63.8648 14.1379 64.5907 14.348 65.1213 14.8787C66 15.7574 66 17.1716 66 20C66 22.8284 66 24.2426 65.1213 25.1213C64.2426 26 62.8284 26 60 26H52C49.1716 26 47.7574 26 46.8787 25.1213C46 24.2426 46 22.8284 46 20C46 17.1716 46 15.7574 46.8787 14.8787C47.4093 14.348 48.1352 14.1379 49.25 14.0546ZM50.75 12C50.75 9.10051 53.1005 6.75 56 6.75C58.8995 6.75 61.25 9.10051 61.25 12V14.0036C60.867 14 60.4515 14 60 14H52C51.5485 14 51.133 14 50.75 14.0036V12ZM52 21C52.5523 21 53 20.5523 53 20C53 19.4477 52.5523 19 52 19C51.4477 19 51 19.4477 51 20C51 20.5523 51.4477 21 52 21ZM56 21C56.5523 21 57 20.5523 57 20C57 19.4477 56.5523 19 56 19C55.4477 19 55 19.4477 55 20C55 20.5523 55.4477 21 56 21ZM61 20C61 20.5523 60.5523 21 60 21C59.4477 21 59 20.5523 59 20C59 19.4477 59.4477 19 60 19C60.5523 19 61 19.4477 61 20Z" fill="#93450E"/>
</g>
<path d="M80.924 20V11.6H81.848V15.356H86.732V11.6H87.656V20H86.732V16.184H81.848V20H80.924ZM92.1541 20.108C91.5781 20.108 91.0541 19.972 90.5821 19.7C90.1181 19.42 89.7461 19.044 89.4661 18.572C89.1941 18.1 89.0581 17.572 89.0581 16.988C89.0581 16.412 89.1901 15.892 89.4541 15.428C89.7181 14.956 90.0741 14.584 90.5221 14.312C90.9701 14.032 91.4701 13.892 92.0221 13.892C92.5581 13.892 93.0381 14.032 93.4621 14.312C93.8941 14.584 94.2341 14.956 94.4821 15.428C94.7381 15.892 94.8661 16.412 94.8661 16.988V17.264H89.9341C89.9821 17.656 90.1061 18.008 90.3061 18.32C90.5141 18.632 90.7821 18.88 91.1101 19.064C91.4381 19.24 91.7981 19.328 92.1901 19.328C92.5021 19.328 92.8061 19.28 93.1021 19.184C93.3981 19.088 93.6461 18.952 93.8461 18.776L94.3981 19.364C94.0621 19.612 93.7101 19.8 93.3421 19.928C92.9821 20.048 92.5861 20.108 92.1541 20.108ZM89.9581 16.556H93.9781C93.9301 16.196 93.8101 15.876 93.6181 15.596C93.4341 15.308 93.2021 15.084 92.9221 14.924C92.6421 14.756 92.3341 14.672 91.9981 14.672C91.6541 14.672 91.3381 14.752 91.0501 14.912C90.7621 15.072 90.5221 15.296 90.3301 15.584C90.1381 15.864 90.0141 16.188 89.9581 16.556ZM97.8864 20.108C97.4464 20.108 97.0584 20.032 96.7224 19.88C96.3944 19.728 96.1344 19.516 95.9424 19.244C95.7584 18.972 95.6664 18.656 95.6664 18.296C95.6664 17.728 95.8824 17.28 96.3144 16.952C96.7464 16.624 97.3304 16.46 98.0664 16.46C98.7144 16.46 99.3024 16.596 99.8304 16.868V16.076C99.8304 15.596 99.6944 15.236 99.4224 14.996C99.1504 14.748 98.7544 14.624 98.2344 14.624C97.9384 14.624 97.6384 14.668 97.3344 14.756C97.0384 14.836 96.7104 14.968 96.3504 15.152L96.0144 14.468C96.4464 14.26 96.8464 14.108 97.2144 14.012C97.5824 13.916 97.9504 13.868 98.3184 13.868C99.0784 13.868 99.6624 14.048 100.07 14.408C100.486 14.768 100.694 15.284 100.694 15.956V20H99.8304V19.412C99.5584 19.644 99.2584 19.82 98.9304 19.94C98.6104 20.052 98.2624 20.108 97.8864 20.108ZM96.5184 18.272C96.5184 18.608 96.6584 18.884 96.9384 19.1C97.2264 19.308 97.5944 19.412 98.0424 19.412C98.4024 19.412 98.7304 19.356 99.0264 19.244C99.3224 19.132 99.5904 18.956 99.8304 18.716V17.588C99.5824 17.42 99.3184 17.3 99.0384 17.228C98.7584 17.148 98.4424 17.108 98.0904 17.108C97.6104 17.108 97.2264 17.216 96.9384 17.432C96.6584 17.64 96.5184 17.92 96.5184 18.272ZM103.793 20L101.189 13.988H102.173L104.225 18.848L106.277 13.988H107.225L104.633 20H103.793ZM108.037 20V13.988H108.925V20H108.037ZM108.481 12.836C108.321 12.836 108.181 12.776 108.061 12.656C107.941 12.536 107.881 12.396 107.881 12.236C107.881 12.068 107.941 11.928 108.061 11.816C108.181 11.696 108.321 11.636 108.481 11.636C108.649 11.636 108.789 11.696 108.901 11.816C109.021 11.928 109.081 12.068 109.081 12.236C109.081 12.396 109.021 12.536 108.901 12.656C108.789 12.776 108.649 12.836 108.481 12.836ZM110.44 20V11.6L111.328 11.396V20H110.44ZM113.094 22.568C112.982 22.568 112.874 22.56 112.77 22.544C112.674 22.536 112.594 22.524 112.53 22.508V21.704C112.666 21.736 112.834 21.752 113.034 21.752C113.562 21.752 113.962 21.44 114.234 20.816L114.594 19.988L112.146 13.988H113.13L115.074 18.92L117.174 13.988H118.134L115.134 20.936C114.966 21.32 114.786 21.632 114.594 21.872C114.402 22.112 114.182 22.288 113.934 22.4C113.694 22.512 113.414 22.568 113.094 22.568ZM123.457 20.12C122.961 20.12 122.493 20.04 122.053 19.88C121.621 19.712 121.245 19.48 120.925 19.184L121.465 18.608C121.745 18.864 122.053 19.064 122.389 19.208C122.725 19.344 123.069 19.412 123.421 19.412C123.901 19.412 124.293 19.312 124.597 19.112C124.901 18.912 125.053 18.652 125.053 18.332C125.053 18.068 124.961 17.864 124.777 17.72C124.601 17.568 124.321 17.464 123.937 17.408L122.893 17.264C122.293 17.176 121.845 16.996 121.549 16.724C121.261 16.452 121.117 16.084 121.117 15.62C121.117 15.284 121.213 14.984 121.405 14.72C121.597 14.456 121.861 14.248 122.197 14.096C122.541 13.944 122.933 13.868 123.373 13.868C123.813 13.868 124.225 13.932 124.609 14.06C124.993 14.188 125.369 14.388 125.737 14.66L125.269 15.26C124.933 15.028 124.605 14.86 124.285 14.756C123.973 14.644 123.653 14.588 123.325 14.588C122.909 14.588 122.573 14.68 122.317 14.864C122.061 15.048 121.933 15.288 121.933 15.584C121.933 15.856 122.021 16.064 122.197 16.208C122.373 16.344 122.657 16.44 123.049 16.496L124.093 16.64C124.693 16.72 125.141 16.896 125.437 17.168C125.741 17.44 125.893 17.812 125.893 18.284C125.893 18.628 125.785 18.94 125.569 19.22C125.353 19.5 125.061 19.72 124.693 19.88C124.333 20.04 123.921 20.12 123.457 20.12ZM129.771 20.108C129.195 20.108 128.671 19.972 128.199 19.7C127.735 19.42 127.363 19.044 127.083 18.572C126.811 18.1 126.675 17.572 126.675 16.988C126.675 16.412 126.807 15.892 127.071 15.428C127.335 14.956 127.691 14.584 128.139 14.312C128.587 14.032 129.087 13.892 129.639 13.892C130.175 13.892 130.655 14.032 131.079 14.312C131.511 14.584 131.851 14.956 132.099 15.428C132.355 15.892 132.483 16.412 132.483 16.988V17.264H127.551C127.599 17.656 127.723 18.008 127.923 18.32C128.131 18.632 128.399 18.88 128.727 19.064C129.055 19.24 129.415 19.328 129.807 19.328C130.119 19.328 130.423 19.28 130.719 19.184C131.015 19.088 131.263 18.952 131.463 18.776L132.015 19.364C131.679 19.612 131.327 19.8 130.959 19.928C130.599 20.048 130.203 20.108 129.771 20.108ZM127.575 16.556H131.595C131.547 16.196 131.427 15.876 131.235 15.596C131.051 15.308 130.819 15.084 130.539 14.924C130.259 14.756 129.951 14.672 129.615 14.672C129.271 14.672 128.955 14.752 128.667 14.912C128.379 15.072 128.139 15.296 127.947 15.584C127.755 15.864 127.631 16.188 127.575 16.556ZM136.509 20.108C135.941 20.108 135.425 19.972 134.961 19.7C134.497 19.42 134.129 19.044 133.857 18.572C133.585 18.1 133.449 17.572 133.449 16.988C133.449 16.404 133.585 15.88 133.857 15.416C134.129 14.944 134.497 14.568 134.961 14.288C135.425 14.008 135.941 13.868 136.509 13.868C136.949 13.868 137.373 13.952 137.781 14.12C138.189 14.28 138.549 14.512 138.861 14.816L138.297 15.464C138.057 15.208 137.781 15.016 137.469 14.888C137.165 14.752 136.849 14.684 136.521 14.684C136.113 14.684 135.741 14.788 135.405 14.996C135.077 15.196 134.813 15.472 134.613 15.824C134.421 16.168 134.325 16.556 134.325 16.988C134.325 17.42 134.421 17.812 134.613 18.164C134.813 18.516 135.081 18.796 135.417 19.004C135.753 19.204 136.125 19.304 136.533 19.304C136.861 19.304 137.169 19.24 137.457 19.112C137.753 18.984 138.029 18.796 138.285 18.548L138.837 19.148C138.517 19.452 138.157 19.688 137.757 19.856C137.357 20.024 136.941 20.108 136.509 20.108ZM142.181 20.12C141.725 20.12 141.321 20.024 140.969 19.832C140.617 19.632 140.341 19.36 140.141 19.016C139.949 18.664 139.853 18.256 139.853 17.792V13.988H140.729V17.612C140.729 18.148 140.881 18.572 141.185 18.884C141.489 19.188 141.897 19.34 142.409 19.34C142.769 19.34 143.089 19.26 143.369 19.1C143.657 18.932 143.889 18.7 144.065 18.404V13.988H144.953V20H144.065V19.304C143.593 19.848 142.965 20.12 142.181 20.12ZM146.463 20V13.988H147.351V14.84C147.535 14.528 147.767 14.288 148.047 14.12C148.335 13.944 148.663 13.856 149.031 13.856C149.239 13.856 149.427 13.884 149.595 13.94V14.756C149.491 14.716 149.387 14.688 149.283 14.672C149.179 14.656 149.075 14.648 148.971 14.648C148.603 14.648 148.279 14.756 147.999 14.972C147.727 15.18 147.511 15.484 147.351 15.884V20H146.463ZM153.01 20.108C152.434 20.108 151.91 19.972 151.438 19.7C150.974 19.42 150.602 19.044 150.322 18.572C150.05 18.1 149.914 17.572 149.914 16.988C149.914 16.412 150.046 15.892 150.31 15.428C150.574 14.956 150.93 14.584 151.378 14.312C151.826 14.032 152.326 13.892 152.878 13.892C153.414 13.892 153.894 14.032 154.318 14.312C154.75 14.584 155.09 14.956 155.338 15.428C155.594 15.892 155.722 16.412 155.722 16.988V17.264H150.79C150.838 17.656 150.962 18.008 151.162 18.32C151.37 18.632 151.638 18.88 151.966 19.064C152.294 19.24 152.654 19.328 153.046 19.328C153.358 19.328 153.662 19.28 153.958 19.184C154.254 19.088 154.502 18.952 154.702 18.776L155.254 19.364C154.918 19.612 154.566 19.8 154.198 19.928C153.838 20.048 153.442 20.108 153.01 20.108ZM150.814 16.556H154.834C154.786 16.196 154.666 15.876 154.474 15.596C154.29 15.308 154.058 15.084 153.778 14.924C153.498 14.756 153.19 14.672 152.854 14.672C152.51 14.672 152.194 14.752 151.906 14.912C151.618 15.072 151.378 15.296 151.186 15.584C150.994 15.864 150.87 16.188 150.814 16.556Z" fill="#49526A"/>
<defs>
<clipPath id="clip0_1979_14463">
<rect x="44" y="4" width="24" height="24" rx="8" fill="white"/>
</clipPath>
</defs>
</svg>
