<svg width="343" height="32" viewBox="0 0 343 32" fill="none" xmlns="http://www.w3.org/2000/svg">
<rect x="40" width="32" height="32" rx="16" fill="#FFF3D5"/>
<g clip-path="url(#clip0_1979_14451)">
<path d="M60.2733 23.4499C60.9027 23.6961 61.4879 23.8839 62.0206 24.0155L62.028 24.0173C62.9815 24.2521 63.739 24.2995 64.2774 24.2031C64.4294 24.1758 64.5575 24.1389 64.6655 24.0943C64.929 23.9837 65.0738 23.8265 65.1502 23.6637C65.2379 23.4768 65.2785 23.2057 65.2276 22.837C65.2002 22.6392 65.1464 22.4129 65.0592 22.1559C65.0459 22.1167 65.0319 22.0772 65.0173 22.0372C64.8989 21.7141 64.7363 21.3647 64.5303 20.9936L64.5192 20.9738C64.4896 20.9207 64.4591 20.8672 64.4277 20.8133C64.1531 20.3411 63.8116 19.8373 63.4059 19.3108L63.4016 19.3051C62.005 17.4939 59.9115 15.4961 57.3966 13.7096C54.7308 11.816 52.1504 10.5566 50.1528 10.0289C50.0954 10.0137 50.0387 9.9992 49.9826 9.98533L49.9721 9.98282C49.0185 9.748 48.261 9.70061 47.7226 9.797C47.5071 9.83558 47.3398 9.89367 47.2098 9.96535C47.0246 10.0676 46.9151 10.1972 46.8498 10.3363C46.7374 10.576 46.7083 10.9437 46.8259 11.4471C46.8628 11.6044 46.9143 11.776 46.9827 11.9628C47.0586 12.17 47.1526 12.3876 47.2643 12.6145C47.2802 12.6469 47.2966 12.6797 47.3134 12.7127L47.3426 12.7696C47.3767 12.8354 47.4122 12.9019 47.449 12.9689C47.7423 13.5028 48.1253 14.081 48.5941 14.6894L48.5969 14.6931C49.1008 15.3467 49.6987 16.0288 50.3802 16.7207C50.535 16.8778 50.6787 17.0224 50.8122 17.1555L50.8363 16.8473C50.9367 15.5612 50.9869 14.9181 51.423 14.6889C51.8591 14.4597 52.3923 14.7961 53.4587 15.469L53.7346 15.6431C54.0377 15.8343 54.1892 15.9299 54.3637 15.9538C54.5382 15.9777 54.716 15.9272 55.0715 15.8261L55.3952 15.7342C56.6464 15.3786 57.272 15.2009 57.6068 15.5356C57.9416 15.8704 57.7638 16.496 57.4083 17.7472L57.3163 18.0709C57.2152 18.4264 57.1647 18.6042 57.1886 18.7787C57.2125 18.9532 57.3081 19.1048 57.4993 19.4078L57.6734 19.6837C58.3463 20.7501 58.6827 21.2833 58.4535 21.7194C58.2243 22.1555 57.5812 22.2057 56.2951 22.3061L55.9624 22.3321C55.5969 22.3606 55.4142 22.3749 55.2544 22.4589C55.0946 22.5428 54.976 22.687 54.7386 22.9753L54.5225 23.2378C53.6871 24.2524 53.2695 24.7597 52.793 24.6944C52.3166 24.6292 52.0969 24.0346 51.6576 22.8455L51.5439 22.5379C51.4191 22.2 51.3567 22.031 51.234 21.9084C51.1114 21.7857 50.9425 21.7233 50.6045 21.5985L50.2969 21.4848C49.1078 21.0455 48.5132 20.8258 48.448 20.3494C48.3827 19.873 48.89 19.4553 49.9046 18.62L50.0438 18.5053C49.8287 18.2942 49.5858 18.0516 49.3116 17.7733C48.4798 16.9289 47.748 16.08 47.1434 15.256C47.0211 15.0893 46.9039 14.9235 46.7922 14.7591C46.6732 14.5839 46.5604 14.4101 46.454 14.2381C46.3986 14.1485 46.3449 14.0594 46.293 13.9708C46.192 13.7983 46.0978 13.6277 46.0107 13.4595C45.9776 13.3956 45.9453 13.3316 45.9138 13.2674C45.7821 12.9991 45.6684 12.7358 45.5743 12.4789C45.4912 12.2523 45.4209 12.0236 45.3672 11.7954C45.1911 11.0491 45.197 10.3276 45.4919 9.69911C45.7399 9.17057 46.1447 8.80813 46.631 8.57836C46.9112 8.44593 47.2186 8.35757 47.5386 8.30688C48.3988 8.17062 49.4298 8.2864 50.536 8.57864C52.7585 9.16581 55.5025 10.5242 58.2652 12.4867C61.031 14.4515 63.3455 16.6877 64.8493 18.7341C65.3469 19.4113 65.7645 20.0795 66.0802 20.7204C66.1811 20.9252 66.2716 21.1273 66.3509 21.3259C66.3977 21.4431 66.4407 21.5591 66.4796 21.6738C66.7858 22.576 66.8797 23.5091 66.5081 24.3009C66.2358 24.8812 65.7817 25.2568 65.2374 25.4799C65.0179 25.5706 64.7838 25.6362 64.5417 25.6796C64.3358 25.7165 64.1197 25.7384 63.8951 25.7464C63.8603 25.7477 63.8254 25.7486 63.7905 25.7492C63.6446 25.7517 63.4946 25.7485 63.3407 25.7398C63.0403 25.723 62.7253 25.6852 62.3981 25.6281C61.5736 25.484 60.6712 25.2163 59.7267 24.8467C59.341 24.6958 59.1506 24.2608 59.3016 23.875C59.4525 23.4893 59.8875 23.2989 60.2733 23.4499Z" fill="#93450E"/>
<path fill-rule="evenodd" clip-rule="evenodd" d="M63.6653 6.40887C63.9918 6.66377 64.0498 7.13509 63.7949 7.46158L63.6836 7.60419C63.8074 8.26218 64.1092 8.871 64.5544 9.35951C64.8334 9.66567 64.8113 10.14 64.5052 10.419C64.199 10.698 63.7246 10.676 63.4456 10.3698C62.9952 9.87554 62.6498 9.29762 62.4247 8.67251C62.3203 8.73491 62.2146 8.79175 62.105 8.84354C61.9852 8.90014 61.8639 8.94919 61.7385 8.99298C62.0635 9.58426 62.2703 10.2395 62.343 10.9205C62.3869 11.3324 62.0886 11.7019 61.6767 11.7458C61.2648 11.7897 60.8953 11.4914 60.8514 11.0796C60.7805 10.4147 60.5297 9.78795 60.1329 9.26875L59.9748 9.26343C59.5608 9.2495 59.2365 8.90261 59.2504 8.48863C59.2644 8.07465 59.6112 7.75035 60.0252 7.76428L60.4325 7.77798C60.9586 7.67412 61.2301 7.59791 61.4642 7.48731C61.6993 7.37622 61.9338 7.21283 62.3552 6.86811L62.6126 6.53849C62.8675 6.212 63.3388 6.15396 63.6653 6.40887Z" fill="#93450E"/>
</g>
<path d="M80.924 20V11.6H86.936V12.416H81.848V15.416H85.184V16.22H81.848V20H80.924ZM89.0387 20.108C88.5987 20.108 88.2107 20.032 87.8747 19.88C87.5467 19.728 87.2867 19.516 87.0947 19.244C86.9107 18.972 86.8187 18.656 86.8187 18.296C86.8187 17.728 87.0347 17.28 87.4667 16.952C87.8987 16.624 88.4827 16.46 89.2187 16.46C89.8667 16.46 90.4547 16.596 90.9827 16.868V16.076C90.9827 15.596 90.8467 15.236 90.5747 14.996C90.3027 14.748 89.9067 14.624 89.3867 14.624C89.0907 14.624 88.7907 14.668 88.4867 14.756C88.1907 14.836 87.8627 14.968 87.5027 15.152L87.1667 14.468C87.5987 14.26 87.9987 14.108 88.3667 14.012C88.7347 13.916 89.1027 13.868 89.4707 13.868C90.2307 13.868 90.8147 14.048 91.2227 14.408C91.6387 14.768 91.8467 15.284 91.8467 15.956V20H90.9827V19.412C90.7107 19.644 90.4107 19.82 90.0827 19.94C89.7627 20.052 89.4147 20.108 89.0387 20.108ZM87.6707 18.272C87.6707 18.608 87.8107 18.884 88.0907 19.1C88.3787 19.308 88.7467 19.412 89.1947 19.412C89.5547 19.412 89.8827 19.356 90.1787 19.244C90.4747 19.132 90.7427 18.956 90.9827 18.716V17.588C90.7347 17.42 90.4707 17.3 90.1907 17.228C89.9107 17.148 89.5947 17.108 89.2427 17.108C88.7627 17.108 88.3787 17.216 88.0907 17.432C87.8107 17.64 87.6707 17.92 87.6707 18.272ZM95.2502 20.12C94.7542 20.12 94.2862 20.04 93.8462 19.88C93.4142 19.712 93.0382 19.48 92.7182 19.184L93.2582 18.608C93.5382 18.864 93.8462 19.064 94.1822 19.208C94.5182 19.344 94.8622 19.412 95.2142 19.412C95.6942 19.412 96.0862 19.312 96.3902 19.112C96.6942 18.912 96.8462 18.652 96.8462 18.332C96.8462 18.068 96.7542 17.864 96.5702 17.72C96.3942 17.568 96.1142 17.464 95.7302 17.408L94.6862 17.264C94.0862 17.176 93.6382 16.996 93.3422 16.724C93.0542 16.452 92.9102 16.084 92.9102 15.62C92.9102 15.284 93.0062 14.984 93.1982 14.72C93.3902 14.456 93.6542 14.248 93.9902 14.096C94.3342 13.944 94.7262 13.868 95.1662 13.868C95.6062 13.868 96.0182 13.932 96.4022 14.06C96.7862 14.188 97.1622 14.388 97.5302 14.66L97.0622 15.26C96.7262 15.028 96.3982 14.86 96.0782 14.756C95.7662 14.644 95.4462 14.588 95.1182 14.588C94.7022 14.588 94.3662 14.68 94.1102 14.864C93.8542 15.048 93.7262 15.288 93.7262 15.584C93.7262 15.856 93.8142 16.064 93.9902 16.208C94.1662 16.344 94.4502 16.44 94.8422 16.496L95.8862 16.64C96.4862 16.72 96.9342 16.896 97.2302 17.168C97.5342 17.44 97.6862 17.812 97.6862 18.284C97.6862 18.628 97.5782 18.94 97.3622 19.22C97.1462 19.5 96.8542 19.72 96.4862 19.88C96.1262 20.04 95.7142 20.12 95.2502 20.12ZM100.933 20.12C100.413 20.12 100.013 19.996 99.7325 19.748C99.4525 19.5 99.3125 19.14 99.3125 18.668V14.744H98.0165V13.988H99.3125V12.464L100.189 12.236V13.988H102.001V14.744H100.189V18.44C100.189 18.76 100.261 18.992 100.405 19.136C100.549 19.272 100.785 19.34 101.113 19.34C101.281 19.34 101.429 19.328 101.557 19.304C101.693 19.28 101.837 19.24 101.989 19.184V19.964C101.837 20.02 101.665 20.06 101.473 20.084C101.289 20.108 101.109 20.12 100.933 20.12ZM105.654 20.108C105.078 20.108 104.554 19.972 104.082 19.7C103.618 19.42 103.246 19.044 102.966 18.572C102.694 18.1 102.558 17.572 102.558 16.988C102.558 16.412 102.69 15.892 102.954 15.428C103.218 14.956 103.574 14.584 104.022 14.312C104.47 14.032 104.97 13.892 105.522 13.892C106.058 13.892 106.538 14.032 106.962 14.312C107.394 14.584 107.734 14.956 107.982 15.428C108.238 15.892 108.366 16.412 108.366 16.988V17.264H103.434C103.482 17.656 103.606 18.008 103.806 18.32C104.014 18.632 104.282 18.88 104.61 19.064C104.938 19.24 105.298 19.328 105.69 19.328C106.002 19.328 106.306 19.28 106.602 19.184C106.898 19.088 107.146 18.952 107.346 18.776L107.898 19.364C107.562 19.612 107.21 19.8 106.842 19.928C106.482 20.048 106.086 20.108 105.654 20.108ZM103.458 16.556H107.478C107.43 16.196 107.31 15.876 107.118 15.596C106.934 15.308 106.702 15.084 106.422 14.924C106.142 14.756 105.834 14.672 105.498 14.672C105.154 14.672 104.838 14.752 104.55 14.912C104.262 15.072 104.022 15.296 103.83 15.584C103.638 15.864 103.514 16.188 103.458 16.556ZM109.608 20V13.988H110.496V14.84C110.68 14.528 110.912 14.288 111.192 14.12C111.48 13.944 111.808 13.856 112.176 13.856C112.384 13.856 112.572 13.884 112.74 13.94V14.756C112.636 14.716 112.532 14.688 112.428 14.672C112.324 14.656 112.22 14.648 112.116 14.648C111.748 14.648 111.424 14.756 111.144 14.972C110.872 15.18 110.656 15.484 110.496 15.884V20H109.608ZM116.334 22.448V13.988H117.21V14.636C117.73 14.14 118.378 13.892 119.154 13.892C119.722 13.892 120.234 14.032 120.69 14.312C121.146 14.584 121.506 14.952 121.77 15.416C122.042 15.88 122.178 16.404 122.178 16.988C122.178 17.572 122.042 18.1 121.77 18.572C121.506 19.036 121.146 19.408 120.69 19.688C120.234 19.96 119.718 20.096 119.142 20.096C118.79 20.096 118.45 20.036 118.122 19.916C117.794 19.796 117.494 19.624 117.222 19.4V22.448H116.334ZM119.07 19.316C119.494 19.316 119.874 19.216 120.21 19.016C120.546 18.808 120.81 18.532 121.002 18.188C121.202 17.836 121.302 17.44 121.302 17C121.302 16.56 121.202 16.164 121.002 15.812C120.81 15.46 120.546 15.184 120.21 14.984C119.874 14.776 119.494 14.672 119.07 14.672C118.694 14.672 118.342 14.748 118.014 14.9C117.694 15.044 117.43 15.248 117.222 15.512V18.488C117.43 18.744 117.698 18.948 118.026 19.1C118.354 19.244 118.702 19.316 119.07 19.316ZM125.367 20.108C124.927 20.108 124.539 20.032 124.203 19.88C123.875 19.728 123.615 19.516 123.423 19.244C123.239 18.972 123.147 18.656 123.147 18.296C123.147 17.728 123.363 17.28 123.795 16.952C124.227 16.624 124.811 16.46 125.547 16.46C126.195 16.46 126.783 16.596 127.311 16.868V16.076C127.311 15.596 127.175 15.236 126.903 14.996C126.631 14.748 126.235 14.624 125.715 14.624C125.419 14.624 125.119 14.668 124.815 14.756C124.519 14.836 124.191 14.968 123.831 15.152L123.495 14.468C123.927 14.26 124.327 14.108 124.695 14.012C125.063 13.916 125.431 13.868 125.799 13.868C126.559 13.868 127.143 14.048 127.551 14.408C127.967 14.768 128.175 15.284 128.175 15.956V20H127.311V19.412C127.039 19.644 126.739 19.82 126.411 19.94C126.091 20.052 125.743 20.108 125.367 20.108ZM123.999 18.272C123.999 18.608 124.139 18.884 124.419 19.1C124.707 19.308 125.075 19.412 125.523 19.412C125.883 19.412 126.211 19.356 126.507 19.244C126.803 19.132 127.071 18.956 127.311 18.716V17.588C127.063 17.42 126.799 17.3 126.519 17.228C126.239 17.148 125.923 17.108 125.571 17.108C125.091 17.108 124.707 17.216 124.419 17.432C124.139 17.64 123.999 17.92 123.999 18.272ZM129.793 22.568C129.681 22.568 129.573 22.56 129.469 22.544C129.373 22.536 129.293 22.524 129.229 22.508V21.704C129.365 21.736 129.533 21.752 129.733 21.752C130.261 21.752 130.661 21.44 130.933 20.816L131.293 19.988L128.845 13.988H129.829L131.773 18.92L133.873 13.988H134.833L131.833 20.936C131.665 21.32 131.485 21.632 131.293 21.872C131.101 22.112 130.881 22.288 130.633 22.4C130.393 22.512 130.113 22.568 129.793 22.568ZM135.658 20V13.988H136.546V14.648C137.002 14.128 137.59 13.868 138.31 13.868C138.734 13.868 139.11 13.968 139.438 14.168C139.766 14.36 140.022 14.624 140.206 14.96C140.454 14.592 140.75 14.32 141.094 14.144C141.438 13.96 141.83 13.868 142.27 13.868C142.71 13.868 143.094 13.968 143.422 14.168C143.75 14.36 144.006 14.632 144.19 14.984C144.382 15.328 144.478 15.732 144.478 16.196V20H143.602V16.376C143.602 15.84 143.462 15.42 143.182 15.116C142.902 14.804 142.522 14.648 142.042 14.648C141.714 14.648 141.414 14.732 141.142 14.9C140.87 15.06 140.638 15.304 140.446 15.632C140.462 15.72 140.474 15.812 140.482 15.908C140.498 15.996 140.506 16.092 140.506 16.196V20H139.63V16.376C139.63 15.84 139.49 15.42 139.21 15.116C138.93 14.804 138.554 14.648 138.082 14.648C137.762 14.648 137.47 14.724 137.206 14.876C136.95 15.02 136.73 15.236 136.546 15.524V20H135.658ZM148.791 20.108C148.215 20.108 147.691 19.972 147.219 19.7C146.755 19.42 146.383 19.044 146.103 18.572C145.831 18.1 145.695 17.572 145.695 16.988C145.695 16.412 145.827 15.892 146.091 15.428C146.355 14.956 146.711 14.584 147.159 14.312C147.607 14.032 148.107 13.892 148.659 13.892C149.195 13.892 149.675 14.032 150.099 14.312C150.531 14.584 150.871 14.956 151.119 15.428C151.375 15.892 151.503 16.412 151.503 16.988V17.264H146.571C146.619 17.656 146.743 18.008 146.943 18.32C147.151 18.632 147.419 18.88 147.747 19.064C148.075 19.24 148.435 19.328 148.827 19.328C149.139 19.328 149.443 19.28 149.739 19.184C150.035 19.088 150.283 18.952 150.483 18.776L151.035 19.364C150.699 19.612 150.347 19.8 149.979 19.928C149.619 20.048 149.223 20.108 148.791 20.108ZM146.595 16.556H150.615C150.567 16.196 150.447 15.876 150.255 15.596C150.071 15.308 149.839 15.084 149.559 14.924C149.279 14.756 148.971 14.672 148.635 14.672C148.291 14.672 147.975 14.752 147.687 14.912C147.399 15.072 147.159 15.296 146.967 15.584C146.775 15.864 146.651 16.188 146.595 16.556ZM152.744 20V13.988H153.632V14.696C154.104 14.144 154.736 13.868 155.528 13.868C155.984 13.868 156.384 13.968 156.728 14.168C157.08 14.36 157.352 14.632 157.544 14.984C157.744 15.328 157.844 15.732 157.844 16.196V20H156.968V16.376C156.968 15.84 156.816 15.42 156.512 15.116C156.216 14.804 155.808 14.648 155.288 14.648C154.928 14.648 154.608 14.728 154.328 14.888C154.048 15.048 153.816 15.276 153.632 15.572V20H152.744ZM161.518 20.12C160.998 20.12 160.598 19.996 160.318 19.748C160.038 19.5 159.898 19.14 159.898 18.668V14.744H158.602V13.988H159.898V12.464L160.774 12.236V13.988H162.586V14.744H160.774V18.44C160.774 18.76 160.846 18.992 160.99 19.136C161.134 19.272 161.37 19.34 161.698 19.34C161.866 19.34 162.014 19.328 162.142 19.304C162.278 19.28 162.422 19.24 162.574 19.184V19.964C162.422 20.02 162.25 20.06 162.058 20.084C161.874 20.108 161.694 20.12 161.518 20.12ZM165.574 20.12C165.078 20.12 164.61 20.04 164.17 19.88C163.738 19.712 163.362 19.48 163.042 19.184L163.582 18.608C163.862 18.864 164.17 19.064 164.506 19.208C164.842 19.344 165.186 19.412 165.538 19.412C166.018 19.412 166.41 19.312 166.714 19.112C167.018 18.912 167.17 18.652 167.17 18.332C167.17 18.068 167.078 17.864 166.894 17.72C166.718 17.568 166.438 17.464 166.054 17.408L165.01 17.264C164.41 17.176 163.962 16.996 163.666 16.724C163.378 16.452 163.234 16.084 163.234 15.62C163.234 15.284 163.33 14.984 163.522 14.72C163.714 14.456 163.978 14.248 164.314 14.096C164.658 13.944 165.05 13.868 165.49 13.868C165.93 13.868 166.342 13.932 166.726 14.06C167.11 14.188 167.486 14.388 167.854 14.66L167.386 15.26C167.05 15.028 166.722 14.86 166.402 14.756C166.09 14.644 165.77 14.588 165.442 14.588C165.026 14.588 164.69 14.68 164.434 14.864C164.178 15.048 164.05 15.288 164.05 15.584C164.05 15.856 164.138 16.064 164.314 16.208C164.49 16.344 164.774 16.44 165.166 16.496L166.21 16.64C166.81 16.72 167.258 16.896 167.554 17.168C167.858 17.44 168.01 17.812 168.01 18.284C168.01 18.628 167.902 18.94 167.686 19.22C167.47 19.5 167.178 19.72 166.81 19.88C166.45 20.04 166.038 20.12 165.574 20.12ZM173.952 20.12C173.432 20.12 173.032 19.996 172.752 19.748C172.472 19.5 172.332 19.14 172.332 18.668V14.744H171.036V13.988H172.332V12.464L173.208 12.236V13.988H175.02V14.744H173.208V18.44C173.208 18.76 173.28 18.992 173.424 19.136C173.568 19.272 173.804 19.34 174.132 19.34C174.3 19.34 174.448 19.328 174.576 19.304C174.712 19.28 174.856 19.24 175.008 19.184V19.964C174.856 20.02 174.684 20.06 174.492 20.084C174.308 20.108 174.128 20.12 173.952 20.12ZM178.65 20.12C178.082 20.12 177.562 19.984 177.09 19.712C176.626 19.432 176.258 19.056 175.986 18.584C175.714 18.112 175.578 17.584 175.578 17C175.578 16.416 175.714 15.888 175.986 15.416C176.258 14.944 176.626 14.572 177.09 14.3C177.562 14.02 178.082 13.88 178.65 13.88C179.226 13.88 179.746 14.02 180.21 14.3C180.674 14.572 181.042 14.944 181.314 15.416C181.586 15.888 181.722 16.416 181.722 17C181.722 17.584 181.586 18.112 181.314 18.584C181.042 19.056 180.674 19.432 180.21 19.712C179.746 19.984 179.226 20.12 178.65 20.12ZM178.65 19.328C179.058 19.328 179.426 19.224 179.754 19.016C180.09 18.808 180.354 18.528 180.546 18.176C180.746 17.824 180.846 17.432 180.846 17C180.846 16.56 180.746 16.168 180.546 15.824C180.354 15.472 180.09 15.192 179.754 14.984C179.426 14.776 179.058 14.672 178.65 14.672C178.242 14.672 177.87 14.776 177.534 14.984C177.206 15.192 176.942 15.472 176.742 15.824C176.55 16.168 176.454 16.56 176.454 17C176.454 17.432 176.55 17.824 176.742 18.176C176.942 18.528 177.206 18.808 177.534 19.016C177.87 19.224 178.242 19.328 178.65 19.328ZM187.429 20.108C186.989 20.108 186.601 20.032 186.265 19.88C185.937 19.728 185.677 19.516 185.485 19.244C185.301 18.972 185.209 18.656 185.209 18.296C185.209 17.728 185.425 17.28 185.857 16.952C186.289 16.624 186.873 16.46 187.609 16.46C188.257 16.46 188.845 16.596 189.373 16.868V16.076C189.373 15.596 189.237 15.236 188.965 14.996C188.693 14.748 188.297 14.624 187.777 14.624C187.481 14.624 187.181 14.668 186.877 14.756C186.581 14.836 186.253 14.968 185.893 15.152L185.557 14.468C185.989 14.26 186.389 14.108 186.757 14.012C187.125 13.916 187.493 13.868 187.861 13.868C188.621 13.868 189.205 14.048 189.613 14.408C190.029 14.768 190.237 15.284 190.237 15.956V20H189.373V19.412C189.101 19.644 188.801 19.82 188.473 19.94C188.153 20.052 187.805 20.108 187.429 20.108ZM186.061 18.272C186.061 18.608 186.201 18.884 186.481 19.1C186.769 19.308 187.137 19.412 187.585 19.412C187.945 19.412 188.273 19.356 188.569 19.244C188.865 19.132 189.133 18.956 189.373 18.716V17.588C189.125 17.42 188.861 17.3 188.581 17.228C188.301 17.148 187.985 17.108 187.633 17.108C187.153 17.108 186.769 17.216 186.481 17.432C186.201 17.64 186.061 17.92 186.061 18.272ZM191.721 20V13.988H192.609V14.696C193.081 14.144 193.713 13.868 194.505 13.868C194.961 13.868 195.361 13.968 195.705 14.168C196.057 14.36 196.329 14.632 196.521 14.984C196.721 15.328 196.821 15.732 196.821 16.196V20H195.945V16.376C195.945 15.84 195.793 15.42 195.489 15.116C195.193 14.804 194.785 14.648 194.265 14.648C193.905 14.648 193.585 14.728 193.305 14.888C193.025 15.048 192.793 15.276 192.609 15.572V20H191.721ZM198.442 22.568C198.33 22.568 198.222 22.56 198.118 22.544C198.022 22.536 197.942 22.524 197.878 22.508V21.704C198.014 21.736 198.182 21.752 198.382 21.752C198.91 21.752 199.31 21.44 199.582 20.816L199.942 19.988L197.494 13.988H198.478L200.422 18.92L202.522 13.988H203.482L200.482 20.936C200.314 21.32 200.134 21.632 199.942 21.872C199.75 22.112 199.53 22.288 199.282 22.4C199.042 22.512 198.762 22.568 198.442 22.568ZM205.528 20L203.836 13.988H204.712L206.008 18.788L207.508 13.988H208.3L209.788 18.788L211.096 13.988H211.936L210.232 20H209.38L207.892 15.188L206.392 20H205.528ZM212.861 20V11.6L213.749 11.396V14.696C214.221 14.144 214.853 13.868 215.645 13.868C216.101 13.868 216.501 13.968 216.845 14.168C217.197 14.36 217.469 14.632 217.661 14.984C217.861 15.328 217.961 15.732 217.961 16.196V20H217.085V16.376C217.085 15.84 216.933 15.42 216.629 15.116C216.333 14.804 215.925 14.648 215.405 14.648C215.045 14.648 214.725 14.728 214.445 14.888C214.165 15.048 213.933 15.276 213.749 15.572V20H212.861ZM222.267 20.108C221.691 20.108 221.167 19.972 220.695 19.7C220.231 19.42 219.859 19.044 219.579 18.572C219.307 18.1 219.171 17.572 219.171 16.988C219.171 16.412 219.303 15.892 219.567 15.428C219.831 14.956 220.187 14.584 220.635 14.312C221.083 14.032 221.583 13.892 222.135 13.892C222.671 13.892 223.151 14.032 223.575 14.312C224.007 14.584 224.347 14.956 224.595 15.428C224.851 15.892 224.979 16.412 224.979 16.988V17.264H220.047C220.095 17.656 220.219 18.008 220.419 18.32C220.627 18.632 220.895 18.88 221.223 19.064C221.551 19.24 221.911 19.328 222.303 19.328C222.615 19.328 222.919 19.28 223.215 19.184C223.511 19.088 223.759 18.952 223.959 18.776L224.511 19.364C224.175 19.612 223.823 19.8 223.455 19.928C223.095 20.048 222.699 20.108 222.267 20.108ZM220.071 16.556H224.091C224.043 16.196 223.923 15.876 223.731 15.596C223.547 15.308 223.315 15.084 223.035 14.924C222.755 14.756 222.447 14.672 222.111 14.672C221.767 14.672 221.451 14.752 221.163 14.912C220.875 15.072 220.635 15.296 220.443 15.584C220.251 15.864 220.127 16.188 220.071 16.556ZM226.221 20V13.988H227.109V14.84C227.293 14.528 227.525 14.288 227.805 14.12C228.093 13.944 228.421 13.856 228.789 13.856C228.997 13.856 229.185 13.884 229.353 13.94V14.756C229.249 14.716 229.145 14.688 229.041 14.672C228.937 14.656 228.833 14.648 228.729 14.648C228.361 14.648 228.037 14.756 227.757 14.972C227.485 15.18 227.269 15.484 227.109 15.884V20H226.221ZM232.767 20.108C232.191 20.108 231.667 19.972 231.195 19.7C230.731 19.42 230.359 19.044 230.079 18.572C229.807 18.1 229.671 17.572 229.671 16.988C229.671 16.412 229.803 15.892 230.067 15.428C230.331 14.956 230.687 14.584 231.135 14.312C231.583 14.032 232.083 13.892 232.635 13.892C233.171 13.892 233.651 14.032 234.075 14.312C234.507 14.584 234.847 14.956 235.095 15.428C235.351 15.892 235.479 16.412 235.479 16.988V17.264H230.547C230.595 17.656 230.719 18.008 230.919 18.32C231.127 18.632 231.395 18.88 231.723 19.064C232.051 19.24 232.411 19.328 232.803 19.328C233.115 19.328 233.419 19.28 233.715 19.184C234.011 19.088 234.259 18.952 234.459 18.776L235.011 19.364C234.675 19.612 234.323 19.8 233.955 19.928C233.595 20.048 233.199 20.108 232.767 20.108ZM230.571 16.556H234.591C234.543 16.196 234.423 15.876 234.231 15.596C234.047 15.308 233.815 15.084 233.535 14.924C233.255 14.756 232.947 14.672 232.611 14.672C232.267 14.672 231.951 14.752 231.663 14.912C231.375 15.072 231.135 15.296 230.943 15.584C230.751 15.864 230.627 16.188 230.571 16.556Z" fill="#49526A"/>
<defs>
<clipPath id="clip0_1979_14451">
<rect x="44" y="4" width="24" height="24" rx="8" fill="white"/>
</clipPath>
</defs>
</svg>
