<svg width="343" height="32" viewBox="0 0 343 32" fill="none" xmlns="http://www.w3.org/2000/svg">
<rect x="40" width="32" height="32" rx="16" fill="#FFF3D5"/>
<g clip-path="url(#clip0_1979_14457)">
<path d="M60.5 17.2871C58.0251 14.5713 55 16.5746 55 19.3995C55 21.9583 56.814 23.4344 58.3584 24.6912L58.4018 24.7265C58.5474 24.8449 58.6903 24.9615 58.829 25.0769C59.4 25.5523 59.95 26 60.5 26C61.05 26 61.6 25.5523 62.171 25.0769C63.7893 23.7296 66 22.2243 66 19.3995C66 18.4715 65.6735 17.6321 65.1474 17.0197C64.0718 15.7677 62.1619 15.4635 60.5 17.2871Z" fill="#93450E"/>
<path d="M52.1063 22.2471C49.2982 20.0836 46 17.5424 46 13.1373C46 8.27441 51.5002 4.82571 56 9.50088C60.4998 4.82571 66 8.27441 66 13.1373C66 13.9709 65.8819 14.7377 65.6714 15.4479C64.9524 14.8704 64.051 14.5059 63.052 14.5003C62.162 14.4953 61.2936 14.7747 60.4988 15.3103C59.1099 14.3775 57.5429 14.252 56.1698 14.9149C54.5345 15.7044 53.5 17.4707 53.5 19.3997C53.5 21.7049 54.6485 23.3219 55.8415 24.4939C54.8942 24.4187 53.9451 23.6864 52.9617 22.9111C52.6847 22.6927 52.3981 22.4719 52.1063 22.2471Z" fill="#93450E"/>
</g>
<path d="M82.232 20L80.42 11.6H81.356L82.784 18.536L84.86 11.6H85.76L87.836 18.512L89.276 11.6H90.176L88.364 20H87.428L85.304 12.884L83.168 20H82.232ZM93.595 20.12C93.027 20.12 92.507 19.984 92.035 19.712C91.571 19.432 91.203 19.056 90.931 18.584C90.659 18.112 90.523 17.584 90.523 17C90.523 16.416 90.659 15.888 90.931 15.416C91.203 14.944 91.571 14.572 92.035 14.3C92.507 14.02 93.027 13.88 93.595 13.88C94.171 13.88 94.691 14.02 95.155 14.3C95.619 14.572 95.987 14.944 96.259 15.416C96.531 15.888 96.667 16.416 96.667 17C96.667 17.584 96.531 18.112 96.259 18.584C95.987 19.056 95.619 19.432 95.155 19.712C94.691 19.984 94.171 20.12 93.595 20.12ZM93.595 19.328C94.003 19.328 94.371 19.224 94.699 19.016C95.035 18.808 95.299 18.528 95.491 18.176C95.691 17.824 95.791 17.432 95.791 17C95.791 16.56 95.691 16.168 95.491 15.824C95.299 15.472 95.035 15.192 94.699 14.984C94.371 14.776 94.003 14.672 93.595 14.672C93.187 14.672 92.815 14.776 92.479 14.984C92.151 15.192 91.887 15.472 91.687 15.824C91.495 16.168 91.399 16.56 91.399 17C91.399 17.432 91.495 17.824 91.687 18.176C91.887 18.528 92.151 18.808 92.479 19.016C92.815 19.224 93.187 19.328 93.595 19.328ZM97.9005 20V13.988H98.7885V14.84C98.9725 14.528 99.2045 14.288 99.4845 14.12C99.7725 13.944 100.101 13.856 100.469 13.856C100.677 13.856 100.865 13.884 101.033 13.94V14.756C100.929 14.716 100.825 14.688 100.721 14.672C100.617 14.656 100.513 14.648 100.409 14.648C100.041 14.648 99.7165 14.756 99.4365 14.972C99.1645 15.18 98.9485 15.484 98.7885 15.884V20H97.9005ZM102.049 20V11.6L102.937 11.396V16.7L106.081 13.988H107.161L103.861 16.844L107.317 20H106.105L102.937 17.12V20H102.049ZM109.781 20.12C109.285 20.12 108.817 20.04 108.377 19.88C107.945 19.712 107.569 19.48 107.249 19.184L107.789 18.608C108.069 18.864 108.377 19.064 108.713 19.208C109.049 19.344 109.393 19.412 109.745 19.412C110.225 19.412 110.617 19.312 110.921 19.112C111.225 18.912 111.377 18.652 111.377 18.332C111.377 18.068 111.285 17.864 111.101 17.72C110.925 17.568 110.645 17.464 110.261 17.408L109.217 17.264C108.617 17.176 108.169 16.996 107.873 16.724C107.585 16.452 107.441 16.084 107.441 15.62C107.441 15.284 107.537 14.984 107.729 14.72C107.921 14.456 108.185 14.248 108.521 14.096C108.865 13.944 109.257 13.868 109.697 13.868C110.137 13.868 110.549 13.932 110.933 14.06C111.317 14.188 111.693 14.388 112.061 14.66L111.593 15.26C111.257 15.028 110.929 14.86 110.609 14.756C110.297 14.644 109.977 14.588 109.649 14.588C109.233 14.588 108.897 14.68 108.641 14.864C108.385 15.048 108.257 15.288 108.257 15.584C108.257 15.856 108.345 16.064 108.521 16.208C108.697 16.344 108.981 16.44 109.373 16.496L110.417 16.64C111.017 16.72 111.465 16.896 111.761 17.168C112.065 17.44 112.217 17.812 112.217 18.284C112.217 18.628 112.109 18.94 111.893 19.22C111.677 19.5 111.385 19.72 111.017 19.88C110.657 20.04 110.245 20.12 109.781 20.12ZM118.591 20.12C118.023 20.12 117.503 19.984 117.031 19.712C116.567 19.432 116.199 19.056 115.927 18.584C115.655 18.112 115.519 17.584 115.519 17C115.519 16.416 115.655 15.888 115.927 15.416C116.199 14.944 116.567 14.572 117.031 14.3C117.503 14.02 118.023 13.88 118.591 13.88C119.167 13.88 119.687 14.02 120.151 14.3C120.615 14.572 120.983 14.944 121.255 15.416C121.527 15.888 121.663 16.416 121.663 17C121.663 17.584 121.527 18.112 121.255 18.584C120.983 19.056 120.615 19.432 120.151 19.712C119.687 19.984 119.167 20.12 118.591 20.12ZM118.591 19.328C118.999 19.328 119.367 19.224 119.695 19.016C120.031 18.808 120.295 18.528 120.487 18.176C120.687 17.824 120.787 17.432 120.787 17C120.787 16.56 120.687 16.168 120.487 15.824C120.295 15.472 120.031 15.192 119.695 14.984C119.367 14.776 118.999 14.672 118.591 14.672C118.183 14.672 117.811 14.776 117.475 14.984C117.147 15.192 116.883 15.472 116.683 15.824C116.491 16.168 116.395 16.56 116.395 17C116.395 17.432 116.491 17.824 116.683 18.176C116.883 18.528 117.147 18.808 117.475 19.016C117.811 19.224 118.183 19.328 118.591 19.328ZM122.897 20V13.988H123.785V14.696C124.257 14.144 124.889 13.868 125.681 13.868C126.137 13.868 126.537 13.968 126.881 14.168C127.233 14.36 127.505 14.632 127.697 14.984C127.897 15.328 127.997 15.732 127.997 16.196V20H127.121V16.376C127.121 15.84 126.969 15.42 126.665 15.116C126.369 14.804 125.961 14.648 125.441 14.648C125.081 14.648 124.761 14.728 124.481 14.888C124.201 15.048 123.969 15.276 123.785 15.572V20H122.897ZM133.957 20.108C133.517 20.108 133.129 20.032 132.793 19.88C132.465 19.728 132.205 19.516 132.013 19.244C131.829 18.972 131.737 18.656 131.737 18.296C131.737 17.728 131.953 17.28 132.385 16.952C132.817 16.624 133.401 16.46 134.137 16.46C134.785 16.46 135.373 16.596 135.901 16.868V16.076C135.901 15.596 135.765 15.236 135.493 14.996C135.221 14.748 134.825 14.624 134.305 14.624C134.009 14.624 133.709 14.668 133.405 14.756C133.109 14.836 132.781 14.968 132.421 15.152L132.085 14.468C132.517 14.26 132.917 14.108 133.285 14.012C133.653 13.916 134.021 13.868 134.389 13.868C135.149 13.868 135.733 14.048 136.141 14.408C136.557 14.768 136.765 15.284 136.765 15.956V20H135.901V19.412C135.629 19.644 135.329 19.82 135.001 19.94C134.681 20.052 134.333 20.108 133.957 20.108ZM132.589 18.272C132.589 18.608 132.729 18.884 133.009 19.1C133.297 19.308 133.665 19.412 134.113 19.412C134.473 19.412 134.801 19.356 135.097 19.244C135.393 19.132 135.661 18.956 135.901 18.716V17.588C135.653 17.42 135.389 17.3 135.109 17.228C134.829 17.148 134.513 17.108 134.161 17.108C133.681 17.108 133.297 17.216 133.009 17.432C132.729 17.64 132.589 17.92 132.589 18.272ZM138.248 20V11.6L139.136 11.396V20H138.248ZM140.651 20V11.6L141.539 11.396V20H140.651ZM145.883 22.568C145.771 22.568 145.663 22.56 145.559 22.544C145.463 22.536 145.383 22.524 145.319 22.508V21.704C145.455 21.736 145.623 21.752 145.823 21.752C146.351 21.752 146.751 21.44 147.023 20.816L147.383 19.988L144.935 13.988H145.919L147.863 18.92L149.963 13.988H150.923L147.923 20.936C147.755 21.32 147.575 21.632 147.383 21.872C147.191 22.112 146.971 22.288 146.723 22.4C146.483 22.512 146.203 22.568 145.883 22.568ZM154.368 20.12C153.8 20.12 153.28 19.984 152.808 19.712C152.344 19.432 151.976 19.056 151.704 18.584C151.432 18.112 151.296 17.584 151.296 17C151.296 16.416 151.432 15.888 151.704 15.416C151.976 14.944 152.344 14.572 152.808 14.3C153.28 14.02 153.8 13.88 154.368 13.88C154.944 13.88 155.464 14.02 155.928 14.3C156.392 14.572 156.76 14.944 157.032 15.416C157.304 15.888 157.44 16.416 157.44 17C157.44 17.584 157.304 18.112 157.032 18.584C156.76 19.056 156.392 19.432 155.928 19.712C155.464 19.984 154.944 20.12 154.368 20.12ZM154.368 19.328C154.776 19.328 155.144 19.224 155.472 19.016C155.808 18.808 156.072 18.528 156.264 18.176C156.464 17.824 156.564 17.432 156.564 17C156.564 16.56 156.464 16.168 156.264 15.824C156.072 15.472 155.808 15.192 155.472 14.984C155.144 14.776 154.776 14.672 154.368 14.672C153.96 14.672 153.588 14.776 153.252 14.984C152.924 15.192 152.66 15.472 152.46 15.824C152.268 16.168 152.172 16.56 152.172 17C152.172 17.432 152.268 17.824 152.46 18.176C152.66 18.528 152.924 18.808 153.252 19.016C153.588 19.224 153.96 19.328 154.368 19.328ZM160.978 20.12C160.522 20.12 160.118 20.024 159.766 19.832C159.414 19.632 159.138 19.36 158.938 19.016C158.746 18.664 158.65 18.256 158.65 17.792V13.988H159.526V17.612C159.526 18.148 159.678 18.572 159.982 18.884C160.286 19.188 160.694 19.34 161.206 19.34C161.566 19.34 161.886 19.26 162.166 19.1C162.454 18.932 162.686 18.7 162.862 18.404V13.988H163.75V20H162.862V19.304C162.39 19.848 161.762 20.12 160.978 20.12ZM165.26 20V13.988H166.148V14.84C166.332 14.528 166.564 14.288 166.844 14.12C167.132 13.944 167.46 13.856 167.828 13.856C168.036 13.856 168.224 13.884 168.392 13.94V14.756C168.288 14.716 168.184 14.688 168.08 14.672C167.976 14.656 167.872 14.648 167.768 14.648C167.4 14.648 167.076 14.756 166.796 14.972C166.524 15.18 166.308 15.484 166.148 15.884V20H165.26ZM172.85 20V14.744H171.434V13.988H172.85V12.848C172.85 12.256 173.01 11.804 173.33 11.492C173.65 11.18 174.11 11.024 174.71 11.024C174.87 11.024 175.014 11.032 175.142 11.048C175.27 11.064 175.394 11.092 175.514 11.132V11.924C175.378 11.884 175.254 11.856 175.142 11.84C175.03 11.816 174.906 11.804 174.77 11.804C174.418 11.804 174.154 11.892 173.978 12.068C173.81 12.236 173.726 12.504 173.726 12.872V13.988H175.514V14.744H173.726V20H172.85ZM178.195 20.108C177.755 20.108 177.367 20.032 177.031 19.88C176.703 19.728 176.443 19.516 176.251 19.244C176.067 18.972 175.975 18.656 175.975 18.296C175.975 17.728 176.191 17.28 176.623 16.952C177.055 16.624 177.639 16.46 178.375 16.46C179.023 16.46 179.611 16.596 180.139 16.868V16.076C180.139 15.596 180.003 15.236 179.731 14.996C179.459 14.748 179.063 14.624 178.543 14.624C178.247 14.624 177.947 14.668 177.643 14.756C177.347 14.836 177.019 14.968 176.659 15.152L176.323 14.468C176.755 14.26 177.155 14.108 177.523 14.012C177.891 13.916 178.259 13.868 178.627 13.868C179.387 13.868 179.971 14.048 180.379 14.408C180.795 14.768 181.003 15.284 181.003 15.956V20H180.139V19.412C179.867 19.644 179.567 19.82 179.239 19.94C178.919 20.052 178.571 20.108 178.195 20.108ZM176.827 18.272C176.827 18.608 176.967 18.884 177.247 19.1C177.535 19.308 177.903 19.412 178.351 19.412C178.711 19.412 179.039 19.356 179.335 19.244C179.631 19.132 179.899 18.956 180.139 18.716V17.588C179.891 17.42 179.627 17.3 179.347 17.228C179.067 17.148 178.751 17.108 178.399 17.108C177.919 17.108 177.535 17.216 177.247 17.432C176.967 17.64 176.827 17.92 176.827 18.272ZM184.102 20L181.498 13.988H182.482L184.534 18.848L186.586 13.988H187.534L184.942 20H184.102ZM190.966 20.12C190.398 20.12 189.878 19.984 189.406 19.712C188.942 19.432 188.574 19.056 188.302 18.584C188.03 18.112 187.894 17.584 187.894 17C187.894 16.416 188.03 15.888 188.302 15.416C188.574 14.944 188.942 14.572 189.406 14.3C189.878 14.02 190.398 13.88 190.966 13.88C191.542 13.88 192.062 14.02 192.526 14.3C192.99 14.572 193.358 14.944 193.63 15.416C193.902 15.888 194.038 16.416 194.038 17C194.038 17.584 193.902 18.112 193.63 18.584C193.358 19.056 192.99 19.432 192.526 19.712C192.062 19.984 191.542 20.12 190.966 20.12ZM190.966 19.328C191.374 19.328 191.742 19.224 192.07 19.016C192.406 18.808 192.67 18.528 192.862 18.176C193.062 17.824 193.162 17.432 193.162 17C193.162 16.56 193.062 16.168 192.862 15.824C192.67 15.472 192.406 15.192 192.07 14.984C191.742 14.776 191.374 14.672 190.966 14.672C190.558 14.672 190.186 14.776 189.85 14.984C189.522 15.192 189.258 15.472 189.058 15.824C188.866 16.168 188.77 16.56 188.77 17C188.77 17.432 188.866 17.824 189.058 18.176C189.258 18.528 189.522 18.808 189.85 19.016C190.186 19.224 190.558 19.328 190.966 19.328ZM197.576 20.12C197.12 20.12 196.716 20.024 196.364 19.832C196.012 19.632 195.736 19.36 195.536 19.016C195.344 18.664 195.248 18.256 195.248 17.792V13.988H196.124V17.612C196.124 18.148 196.276 18.572 196.58 18.884C196.884 19.188 197.292 19.34 197.804 19.34C198.164 19.34 198.484 19.26 198.764 19.1C199.052 18.932 199.284 18.7 199.46 18.404V13.988H200.348V20H199.46V19.304C198.988 19.848 198.36 20.12 197.576 20.12ZM201.858 20V13.988H202.746V14.84C202.93 14.528 203.162 14.288 203.442 14.12C203.73 13.944 204.058 13.856 204.426 13.856C204.634 13.856 204.822 13.884 204.99 13.94V14.756C204.886 14.716 204.782 14.688 204.678 14.672C204.574 14.656 204.47 14.648 204.366 14.648C203.998 14.648 203.674 14.756 203.394 14.972C203.122 15.18 202.906 15.484 202.746 15.884V20H201.858ZM206.006 20V13.988H206.894V20H206.006ZM206.45 12.836C206.29 12.836 206.15 12.776 206.03 12.656C205.91 12.536 205.85 12.396 205.85 12.236C205.85 12.068 205.91 11.928 206.03 11.816C206.15 11.696 206.29 11.636 206.45 11.636C206.618 11.636 206.758 11.696 206.87 11.816C206.99 11.928 207.05 12.068 207.05 12.236C207.05 12.396 206.99 12.536 206.87 12.656C206.758 12.776 206.618 12.836 206.45 12.836ZM210.772 20.12C210.252 20.12 209.852 19.996 209.572 19.748C209.292 19.5 209.152 19.14 209.152 18.668V14.744H207.856V13.988H209.152V12.464L210.028 12.236V13.988H211.84V14.744H210.028V18.44C210.028 18.76 210.1 18.992 210.244 19.136C210.388 19.272 210.624 19.34 210.952 19.34C211.12 19.34 211.268 19.328 211.396 19.304C211.532 19.28 211.676 19.24 211.828 19.184V19.964C211.676 20.02 211.504 20.06 211.312 20.084C211.128 20.108 210.948 20.12 210.772 20.12ZM215.494 20.108C214.918 20.108 214.394 19.972 213.922 19.7C213.458 19.42 213.086 19.044 212.806 18.572C212.534 18.1 212.398 17.572 212.398 16.988C212.398 16.412 212.53 15.892 212.794 15.428C213.058 14.956 213.414 14.584 213.862 14.312C214.31 14.032 214.81 13.892 215.362 13.892C215.898 13.892 216.378 14.032 216.802 14.312C217.234 14.584 217.574 14.956 217.822 15.428C218.078 15.892 218.206 16.412 218.206 16.988V17.264H213.274C213.322 17.656 213.446 18.008 213.646 18.32C213.854 18.632 214.122 18.88 214.45 19.064C214.778 19.24 215.138 19.328 215.53 19.328C215.842 19.328 216.146 19.28 216.442 19.184C216.738 19.088 216.986 18.952 217.186 18.776L217.738 19.364C217.402 19.612 217.05 19.8 216.682 19.928C216.322 20.048 215.926 20.108 215.494 20.108ZM213.298 16.556H217.318C217.27 16.196 217.15 15.876 216.958 15.596C216.774 15.308 216.542 15.084 216.262 14.924C215.982 14.756 215.674 14.672 215.338 14.672C214.994 14.672 214.678 14.752 214.39 14.912C214.102 15.072 213.862 15.296 213.67 15.584C213.478 15.864 213.354 16.188 213.298 16.556ZM223.946 20.12C223.45 20.12 222.982 20.04 222.542 19.88C222.11 19.712 221.734 19.48 221.414 19.184L221.954 18.608C222.234 18.864 222.542 19.064 222.878 19.208C223.214 19.344 223.558 19.412 223.91 19.412C224.39 19.412 224.782 19.312 225.086 19.112C225.39 18.912 225.542 18.652 225.542 18.332C225.542 18.068 225.45 17.864 225.266 17.72C225.09 17.568 224.81 17.464 224.426 17.408L223.382 17.264C222.782 17.176 222.334 16.996 222.038 16.724C221.75 16.452 221.606 16.084 221.606 15.62C221.606 15.284 221.702 14.984 221.894 14.72C222.086 14.456 222.35 14.248 222.686 14.096C223.03 13.944 223.422 13.868 223.862 13.868C224.302 13.868 224.714 13.932 225.098 14.06C225.482 14.188 225.858 14.388 226.226 14.66L225.758 15.26C225.422 15.028 225.094 14.86 224.774 14.756C224.462 14.644 224.142 14.588 223.814 14.588C223.398 14.588 223.062 14.68 222.806 14.864C222.55 15.048 222.422 15.288 222.422 15.584C222.422 15.856 222.51 16.064 222.686 16.208C222.862 16.344 223.146 16.44 223.538 16.496L224.582 16.64C225.182 16.72 225.63 16.896 225.926 17.168C226.23 17.44 226.382 17.812 226.382 18.284C226.382 18.628 226.274 18.94 226.058 19.22C225.842 19.5 225.55 19.72 225.182 19.88C224.822 20.04 224.41 20.12 223.946 20.12ZM229.628 20.12C229.108 20.12 228.708 19.996 228.428 19.748C228.148 19.5 228.008 19.14 228.008 18.668V14.744H226.712V13.988H228.008V12.464L228.884 12.236V13.988H230.696V14.744H228.884V18.44C228.884 18.76 228.956 18.992 229.1 19.136C229.244 19.272 229.48 19.34 229.808 19.34C229.976 19.34 230.124 19.328 230.252 19.304C230.388 19.28 230.532 19.24 230.684 19.184V19.964C230.532 20.02 230.36 20.06 230.168 20.084C229.984 20.108 229.804 20.12 229.628 20.12ZM234.325 20.12C233.757 20.12 233.237 19.984 232.765 19.712C232.301 19.432 231.933 19.056 231.661 18.584C231.389 18.112 231.253 17.584 231.253 17C231.253 16.416 231.389 15.888 231.661 15.416C231.933 14.944 232.301 14.572 232.765 14.3C233.237 14.02 233.757 13.88 234.325 13.88C234.901 13.88 235.421 14.02 235.885 14.3C236.349 14.572 236.717 14.944 236.989 15.416C237.261 15.888 237.397 16.416 237.397 17C237.397 17.584 237.261 18.112 236.989 18.584C236.717 19.056 236.349 19.432 235.885 19.712C235.421 19.984 234.901 20.12 234.325 20.12ZM234.325 19.328C234.733 19.328 235.101 19.224 235.429 19.016C235.765 18.808 236.029 18.528 236.221 18.176C236.421 17.824 236.521 17.432 236.521 17C236.521 16.56 236.421 16.168 236.221 15.824C236.029 15.472 235.765 15.192 235.429 14.984C235.101 14.776 234.733 14.672 234.325 14.672C233.917 14.672 233.545 14.776 233.209 14.984C232.881 15.192 232.617 15.472 232.417 15.824C232.225 16.168 232.129 16.56 232.129 17C232.129 17.432 232.225 17.824 232.417 18.176C232.617 18.528 232.881 18.808 233.209 19.016C233.545 19.224 233.917 19.328 234.325 19.328ZM238.631 20V13.988H239.519V14.84C239.703 14.528 239.935 14.288 240.215 14.12C240.503 13.944 240.831 13.856 241.199 13.856C241.407 13.856 241.595 13.884 241.763 13.94V14.756C241.659 14.716 241.555 14.688 241.451 14.672C241.347 14.656 241.243 14.648 241.139 14.648C240.771 14.648 240.447 14.756 240.167 14.972C239.895 15.18 239.679 15.484 239.519 15.884V20H238.631ZM245.178 20.108C244.602 20.108 244.078 19.972 243.606 19.7C243.142 19.42 242.77 19.044 242.49 18.572C242.218 18.1 242.082 17.572 242.082 16.988C242.082 16.412 242.214 15.892 242.478 15.428C242.742 14.956 243.098 14.584 243.546 14.312C243.994 14.032 244.494 13.892 245.046 13.892C245.582 13.892 246.062 14.032 246.486 14.312C246.918 14.584 247.258 14.956 247.506 15.428C247.762 15.892 247.89 16.412 247.89 16.988V17.264H242.958C243.006 17.656 243.13 18.008 243.33 18.32C243.538 18.632 243.806 18.88 244.134 19.064C244.462 19.24 244.822 19.328 245.214 19.328C245.526 19.328 245.83 19.28 246.126 19.184C246.422 19.088 246.67 18.952 246.87 18.776L247.422 19.364C247.086 19.612 246.734 19.8 246.366 19.928C246.006 20.048 245.61 20.108 245.178 20.108ZM242.982 16.556H247.002C246.954 16.196 246.834 15.876 246.642 15.596C246.458 15.308 246.226 15.084 245.946 14.924C245.666 14.756 245.358 14.672 245.022 14.672C244.678 14.672 244.362 14.752 244.074 14.912C243.786 15.072 243.546 15.296 243.354 15.584C243.162 15.864 243.038 16.188 242.982 16.556ZM251.11 20.12C250.614 20.12 250.146 20.04 249.706 19.88C249.274 19.712 248.898 19.48 248.578 19.184L249.118 18.608C249.398 18.864 249.706 19.064 250.042 19.208C250.378 19.344 250.722 19.412 251.074 19.412C251.554 19.412 251.946 19.312 252.25 19.112C252.554 18.912 252.706 18.652 252.706 18.332C252.706 18.068 252.614 17.864 252.43 17.72C252.254 17.568 251.974 17.464 251.59 17.408L250.546 17.264C249.946 17.176 249.498 16.996 249.202 16.724C248.914 16.452 248.77 16.084 248.77 15.62C248.77 15.284 248.866 14.984 249.058 14.72C249.25 14.456 249.514 14.248 249.85 14.096C250.194 13.944 250.586 13.868 251.026 13.868C251.466 13.868 251.878 13.932 252.262 14.06C252.646 14.188 253.022 14.388 253.39 14.66L252.922 15.26C252.586 15.028 252.258 14.86 251.938 14.756C251.626 14.644 251.306 14.588 250.978 14.588C250.562 14.588 250.226 14.68 249.97 14.864C249.714 15.048 249.586 15.288 249.586 15.584C249.586 15.856 249.674 16.064 249.85 16.208C250.026 16.344 250.31 16.44 250.702 16.496L251.746 16.64C252.346 16.72 252.794 16.896 253.09 17.168C253.394 17.44 253.546 17.812 253.546 18.284C253.546 18.628 253.438 18.94 253.222 19.22C253.006 19.5 252.714 19.72 252.346 19.88C251.986 20.04 251.574 20.12 251.11 20.12Z" fill="#49526A"/>
<defs>
<clipPath id="clip0_1979_14457">
<rect x="44" y="4" width="24" height="24" rx="8" fill="white"/>
</clipPath>
</defs>
</svg>
