<svg width="209" height="24" viewBox="0 0 209 24" fill="none" xmlns="http://www.w3.org/2000/svg">
<rect width="24" height="24" rx="12" fill="#C2F6AE"/>
<path fill-rule="evenodd" clip-rule="evenodd" d="M15.4881 4.43057C15.8026 4.70014 15.839 5.17361 15.5694 5.48811L9.98781 12L15.5694 18.5119C15.839 18.8264 15.8026 19.2999 15.4881 19.5695C15.1736 19.839 14.7001 19.8026 14.4306 19.4881L8.43056 12.4881C8.18981 12.2072 8.18981 11.7928 8.43056 11.5119L14.4306 4.51192C14.7001 4.19743 15.1736 4.161 15.4881 4.43057Z" fill="#828DA9"/>
<path d="M34.304 16.5L32.344 5.7H35.28L36.616 14.844H36.456L38.264 5.7H41.824L43.64 14.844H43.48L44.872 5.7H47.8L45.792 16.5H41.632L40 7.34H40.096L38.448 16.5H34.304ZM49.1773 16.5V7.012H51.8733V16.5H49.1773ZM49.1773 4.164H51.8733V6.044H49.1773V4.164ZM58.1413 16.62C57.2986 16.62 56.5839 16.444 55.9973 16.092C55.4159 15.7347 55.1253 15.092 55.1253 14.164V8.868H52.9573V7.02H55.1253V4.852H57.8213V7.02H60.7333V8.868H57.8213V13.572C57.8213 14.0893 57.9279 14.428 58.1413 14.588C58.3599 14.7427 58.6666 14.82 59.0613 14.82C59.4559 14.82 59.8426 14.7533 60.2213 14.62V16.396C59.5599 16.5453 58.8666 16.62 58.1413 16.62ZM61.9536 16.5V3.94H64.6496V16.5H61.9536ZM68.1856 16.5V11.476C68.1856 10.4253 68.0523 9.71333 67.7856 9.34C67.5243 8.96667 67.127 8.78 66.5936 8.78C66.0336 8.78 65.5616 9.00933 65.1776 9.468C64.7936 9.92133 64.6016 10.5107 64.6016 11.236L63.2976 10.628C63.2976 9.79067 63.6923 8.96667 64.4816 8.156C65.2763 7.34 66.319 6.932 67.6096 6.932C68.831 6.932 69.679 7.332 70.1536 8.132C70.6283 8.932 70.8656 10.004 70.8656 11.348V16.5H68.1856ZM79.0456 16.5L78.8696 15.084V3.94H81.5496V16.5H79.0456ZM75.8696 16.564C74.5843 16.564 73.651 16.1347 73.0696 15.276C72.4883 14.4173 72.1976 13.2387 72.1976 11.74C72.1976 10.236 72.4883 9.06 73.0696 8.212C73.651 7.364 74.5843 6.94 75.8696 6.94C77.0056 6.94 77.987 7.204 78.8136 7.732C79.6456 8.25467 80.0616 8.836 80.0616 9.476L78.8696 10.636C78.8696 10.1187 78.6643 9.68133 78.2536 9.324C77.8483 8.96133 77.3683 8.78 76.8136 8.78C76.211 8.78 75.7443 8.98 75.4136 9.38C75.083 9.77467 74.9176 10.564 74.9176 11.748C74.9176 12.9427 75.083 13.7373 75.4136 14.132C75.7443 14.5267 76.211 14.724 76.8136 14.724C77.3683 14.724 77.8483 14.5453 78.2536 14.188C78.6643 13.8307 78.8696 13.388 78.8696 12.86L80.0616 14.036C80.0616 14.676 79.6456 15.2573 78.8136 15.78C77.987 16.3027 77.0056 16.564 75.8696 16.564ZM89.1739 11.692C89.1739 10.4973 89.0379 9.716 88.7659 9.348C88.4939 8.97467 88.1152 8.788 87.6299 8.788C87.0645 8.788 86.6165 8.98533 86.2859 9.38C85.9552 9.76933 85.7899 10.2173 85.7899 10.724L84.7579 10.108C84.7579 9.212 85.1152 8.46 85.8299 7.852C86.5445 7.23867 87.4805 6.932 88.6379 6.932C89.8912 6.932 90.7419 7.31867 91.1899 8.092C91.6379 8.86 91.8619 10.06 91.8619 11.692H89.1739ZM83.1099 16.5V7.02H85.1899L85.7979 8.66V16.5H83.1099ZM96.7858 16.604C96.4124 16.604 96.0444 16.5827 95.6818 16.54C95.3244 16.4973 94.9884 16.4173 94.6738 16.3C94.3591 16.1773 94.0818 16.0067 93.8418 15.788C93.6018 15.5693 93.4124 15.2867 93.2738 14.94C93.1404 14.5933 93.0738 14.1693 93.0738 13.668C93.0738 13.1827 93.1404 12.7747 93.2738 12.444C93.4124 12.108 93.5991 11.8333 93.8338 11.62C94.0684 11.4067 94.3404 11.2413 94.6497 11.124C94.9591 11.0067 95.2898 10.9267 95.6418 10.884C95.9938 10.836 96.3511 10.812 96.7138 10.812H99.7058V10.444C99.7058 10.012 99.6204 9.67067 99.4498 9.42C99.2844 9.16933 99.0551 8.99333 98.7618 8.892C98.4738 8.78533 98.1484 8.732 97.7858 8.732C97.4551 8.732 97.1538 8.78267 96.8818 8.884C96.6098 8.98533 96.3804 9.15067 96.1938 9.38C96.0124 9.60933 95.8844 9.916 95.8098 10.3L93.1778 9.564C93.2738 9.08933 93.4498 8.68667 93.7058 8.356C93.9671 8.02 94.2978 7.748 94.6978 7.54C95.1031 7.32667 95.5644 7.172 96.0818 7.076C96.6044 6.97467 97.1698 6.924 97.7778 6.924C98.7324 6.924 99.5564 7.03867 100.25 7.268C100.943 7.49733 101.476 7.87867 101.85 8.412C102.223 8.94533 102.41 9.67067 102.41 10.588V16.5H100.17L99.9378 15.412C99.8738 15.556 99.7538 15.7 99.5778 15.844C99.4018 15.9827 99.1751 16.1107 98.8978 16.228C98.6258 16.34 98.3111 16.4307 97.9538 16.5C97.6018 16.5693 97.2124 16.604 96.7858 16.604ZM97.3938 14.916C97.6551 14.916 97.9138 14.892 98.1698 14.844C98.4311 14.796 98.6684 14.7267 98.8818 14.636C99.1004 14.5453 99.2818 14.4387 99.4258 14.316C99.5698 14.188 99.6631 14.0493 99.7058 13.9L99.7698 12.3H97.3458C97.1324 12.3 96.9324 12.316 96.7458 12.348C96.5591 12.3747 96.3938 12.4333 96.2498 12.524C96.1111 12.6147 96.0018 12.7453 95.9218 12.916C95.8418 13.0867 95.8018 13.3107 95.8018 13.588C95.8018 13.8707 95.8444 14.1 95.9298 14.276C96.0204 14.4467 96.1404 14.58 96.2898 14.676C96.4444 14.7667 96.6151 14.8307 96.8018 14.868C96.9938 14.9 97.1911 14.916 97.3938 14.916ZM105.48 16.5L103.416 7.02H106.2L107.44 14.884H107.36L109.184 7.02H111.16L109.088 16.5H105.48ZM111.928 16.5L109.848 7.02H111.872L113.672 14.868H113.592L114.776 7.02H117.56L115.504 16.5H111.928ZM121.942 16.604C121.569 16.604 121.201 16.5827 120.838 16.54C120.481 16.4973 120.145 16.4173 119.83 16.3C119.515 16.1773 119.238 16.0067 118.998 15.788C118.758 15.5693 118.569 15.2867 118.43 14.94C118.297 14.5933 118.23 14.1693 118.23 13.668C118.23 13.1827 118.297 12.7747 118.43 12.444C118.569 12.108 118.755 11.8333 118.99 11.62C119.225 11.4067 119.497 11.2413 119.806 11.124C120.115 11.0067 120.446 10.9267 120.798 10.884C121.15 10.836 121.507 10.812 121.87 10.812H124.862V10.444C124.862 10.012 124.777 9.67067 124.606 9.42C124.441 9.16933 124.211 8.99333 123.918 8.892C123.63 8.78533 123.305 8.732 122.942 8.732C122.611 8.732 122.31 8.78267 122.038 8.884C121.766 8.98533 121.537 9.15067 121.35 9.38C121.169 9.60933 121.041 9.916 120.966 10.3L118.334 9.564C118.43 9.08933 118.606 8.68667 118.862 8.356C119.123 8.02 119.454 7.748 119.854 7.54C120.259 7.32667 120.721 7.172 121.238 7.076C121.761 6.97467 122.326 6.924 122.934 6.924C123.889 6.924 124.713 7.03867 125.406 7.268C126.099 7.49733 126.633 7.87867 127.006 8.412C127.379 8.94533 127.566 9.67067 127.566 10.588V16.5H125.326L125.094 15.412C125.03 15.556 124.91 15.7 124.734 15.844C124.558 15.9827 124.331 16.1107 124.054 16.228C123.782 16.34 123.467 16.4307 123.11 16.5C122.758 16.5693 122.369 16.604 121.942 16.604ZM122.55 14.916C122.811 14.916 123.07 14.892 123.326 14.844C123.587 14.796 123.825 14.7267 124.038 14.636C124.257 14.5453 124.438 14.4387 124.582 14.316C124.726 14.188 124.819 14.0493 124.862 13.9L124.926 12.3H122.502C122.289 12.3 122.089 12.316 121.902 12.348C121.715 12.3747 121.55 12.4333 121.406 12.524C121.267 12.6147 121.158 12.7453 121.078 12.916C120.998 13.0867 120.958 13.3107 120.958 13.588C120.958 13.8707 121.001 14.1 121.086 14.276C121.177 14.4467 121.297 14.58 121.446 14.676C121.601 14.7667 121.771 14.8307 121.958 14.868C122.15 14.9 122.347 14.916 122.55 14.916ZM129.287 16.5V3.94H131.983V16.5H129.287ZM137.527 16.5L140.975 5.692H144.823L148.271 16.5H145.463L144.735 13.868H141.062L140.335 16.5H137.527ZM141.511 12.076H144.295L142.919 7.276H142.895L141.511 12.076ZM153.362 16.596C151.591 16.596 150.354 16.1773 149.65 15.34C148.951 14.4973 148.602 13.3107 148.602 11.78C148.602 10.212 148.951 9.012 149.65 8.18C150.354 7.348 151.591 6.932 153.362 6.932C154.935 6.932 156.026 7.27333 156.634 7.956C157.247 8.63867 157.605 9.356 157.706 10.108L155.314 10.94C155.271 10.2147 155.079 9.676 154.738 9.324C154.402 8.96667 153.943 8.788 153.362 8.788C152.786 8.788 152.306 8.988 151.922 9.388C151.538 9.788 151.346 10.5853 151.346 11.78C151.346 12.9267 151.538 13.708 151.922 14.124C152.306 14.54 152.786 14.748 153.362 14.748C153.943 14.748 154.402 14.5613 154.738 14.188C155.079 13.8147 155.271 13.292 155.314 12.62L157.706 13.484C157.605 14.1827 157.247 14.876 156.634 15.564C156.026 16.252 154.935 16.596 153.362 16.596ZM163.471 16.596C161.701 16.596 160.463 16.1773 159.759 15.34C159.061 14.4973 158.711 13.3107 158.711 11.78C158.711 10.212 159.061 9.012 159.759 8.18C160.463 7.348 161.701 6.932 163.471 6.932C165.045 6.932 166.135 7.27333 166.743 7.956C167.357 8.63867 167.714 9.356 167.815 10.108L165.423 10.94C165.381 10.2147 165.189 9.676 164.847 9.324C164.511 8.96667 164.053 8.788 163.471 8.788C162.895 8.788 162.415 8.988 162.031 9.388C161.647 9.788 161.455 10.5853 161.455 11.78C161.455 12.9267 161.647 13.708 162.031 14.124C162.415 14.54 162.895 14.748 163.471 14.748C164.053 14.748 164.511 14.5613 164.847 14.188C165.189 13.8147 165.381 13.292 165.423 12.62L167.815 13.484C167.714 14.1827 167.357 14.876 166.743 15.564C166.135 16.252 165.045 16.596 163.471 16.596ZM173.733 16.58C171.994 16.58 170.754 16.1613 170.013 15.324C169.271 14.4813 168.901 13.2787 168.901 11.716C168.901 10.1587 169.271 8.96933 170.013 8.148C170.754 7.32133 171.994 6.908 173.733 6.908C175.466 6.908 176.701 7.32133 177.437 8.148C178.178 8.96933 178.549 10.1587 178.549 11.716C178.549 13.2787 178.178 14.4813 177.437 15.324C176.701 16.1613 175.466 16.58 173.733 16.58ZM173.733 14.756C174.351 14.756 174.861 14.5587 175.261 14.164C175.661 13.7693 175.861 12.9587 175.861 11.732C175.861 10.5107 175.661 9.70533 175.261 9.316C174.861 8.92667 174.351 8.732 173.733 8.732C173.109 8.732 172.597 8.92667 172.197 9.316C171.797 9.70533 171.597 10.5107 171.597 11.732C171.597 12.9587 171.797 13.7693 172.197 14.164C172.597 14.5587 173.109 14.756 173.733 14.756ZM186.652 16.5L186.036 14.988V7.02H188.716V16.5H186.652ZM182.46 7.012V12.036C182.46 13.0867 182.583 13.7987 182.828 14.172C183.079 14.5453 183.471 14.732 184.004 14.732C184.559 14.732 185.036 14.516 185.436 14.084C185.841 13.6467 186.044 13.0627 186.044 12.332L187.356 12.884C187.356 13.7213 186.975 14.548 186.212 15.364C185.455 16.1747 184.388 16.58 183.012 16.58C181.775 16.58 180.927 16.18 180.468 15.38C180.009 14.58 179.78 13.508 179.78 12.164V7.012H182.46ZM190.313 16.5V7.02H192.393L193.001 8.62V16.5H190.313ZM196.497 16.5V11.476C196.497 10.4253 196.369 9.71333 196.113 9.34C195.857 8.96667 195.462 8.78 194.929 8.78C194.369 8.78 193.892 9.00933 193.497 9.468C193.108 9.92133 192.913 10.5107 192.913 11.236L191.609 10.628C191.609 9.79067 192.009 8.96667 192.809 8.156C193.609 7.34 194.654 6.932 195.945 6.932C197.166 6.932 198.012 7.348 198.481 8.18C198.95 9.00667 199.185 10.092 199.185 11.436V16.5H196.497ZM205.313 16.62C204.47 16.62 203.756 16.444 203.169 16.092C202.588 15.7347 202.297 15.092 202.297 14.164V8.868H200.129V7.02H202.297V4.852H204.993V7.02H207.905V8.868H204.993V13.572C204.993 14.0893 205.1 14.428 205.313 14.588C205.532 14.7427 205.838 14.82 206.233 14.82C206.628 14.82 207.014 14.7533 207.393 14.62V16.396C206.732 16.5453 206.038 16.62 205.313 16.62Z" fill="#050505"/>
</svg>
