<svg width="147" height="19" viewBox="0 0 147 19" fill="none" xmlns="http://www.w3.org/2000/svg">
<g filter="url(#filter0_d_1677_31547)">
<path d="M7.794 7.091L4.14 1.05H6.716L9.019 5.152H8.837L11.119 1.05H13.702L10.055 7.091H7.794ZM7.738 10.5V5.74H10.111V10.5H7.738ZM18.2173 10.57C16.696 10.57 15.611 10.2037 14.9623 9.471C14.3137 8.73367 13.9893 7.68133 13.9893 6.314C13.9893 4.95133 14.3137 3.91067 14.9623 3.192C15.611 2.46867 16.696 2.107 18.2173 2.107C19.734 2.107 20.8143 2.46867 21.4583 3.192C22.107 3.91067 22.4313 4.95133 22.4313 6.314C22.4313 7.68133 22.107 8.73367 21.4583 9.471C20.8143 10.2037 19.734 10.57 18.2173 10.57ZM18.2173 8.974C18.7587 8.974 19.2043 8.80133 19.5543 8.456C19.9043 8.11067 20.0793 7.40133 20.0793 6.328C20.0793 5.25933 19.9043 4.55467 19.5543 4.214C19.2043 3.87333 18.7587 3.703 18.2173 3.703C17.6713 3.703 17.2233 3.87333 16.8733 4.214C16.5233 4.55467 16.3483 5.25933 16.3483 6.328C16.3483 7.40133 16.5233 8.11067 16.8733 8.456C17.2233 8.80133 17.6713 8.974 18.2173 8.974ZM29.5216 10.5L28.9826 9.177V2.205H31.3276V10.5H29.5216ZM25.8536 2.198V6.594C25.8536 7.51333 25.9609 8.13633 26.1756 8.463C26.3949 8.78967 26.7379 8.953 27.2046 8.953C27.6899 8.953 28.1076 8.764 28.4576 8.386C28.8122 8.00333 28.9896 7.49233 28.9896 6.853L30.1376 7.336C30.1376 8.06867 29.8039 8.792 29.1366 9.506C28.4739 10.2153 27.5406 10.57 26.3366 10.57C25.2539 10.57 24.5119 10.22 24.1106 9.52C23.7092 8.82 23.5086 7.882 23.5086 6.706V2.198H25.8536ZM38.031 6.293C38.031 5.24767 37.912 4.564 37.674 4.242C37.436 3.91533 37.1047 3.752 36.68 3.752C36.1854 3.752 35.7934 3.92467 35.504 4.27C35.2147 4.61067 35.07 5.00267 35.07 5.446L34.167 4.907C34.167 4.123 34.4797 3.465 35.105 2.933C35.7304 2.39633 36.5494 2.128 37.562 2.128C38.6587 2.128 39.403 2.46633 39.795 3.143C40.187 3.815 40.383 4.865 40.383 6.293H38.031ZM32.725 10.5V2.205H34.545L35.077 3.64V10.5H32.725ZM45.3089 10.5V1.05H49.1519L52.8759 9.38H52.5329L52.5539 1.05H54.9269V10.5H51.1189L47.3949 2.149H47.6819V10.5H45.3089ZM60.305 10.556C58.7277 10.556 57.638 10.1453 57.036 9.324C56.4387 8.50267 56.14 7.31033 56.14 5.747C56.14 4.16033 56.448 2.968 57.064 2.17C57.68 1.372 58.8304 0.973 60.515 0.973C62.083 0.973 63.168 1.33233 63.77 2.051C64.372 2.76967 64.6917 3.59567 64.729 4.529H62.342C62.3 3.77767 62.1367 3.26667 61.852 2.996C61.572 2.72067 61.1264 2.583 60.515 2.583C59.8804 2.583 59.3927 2.76267 59.052 3.122C58.7114 3.47667 58.541 4.37733 58.541 5.824C58.541 7.07933 58.7114 7.91233 59.052 8.323C59.3927 8.73367 59.885 8.939 60.529 8.939C61.131 8.939 61.5697 8.82 61.845 8.582C62.1204 8.33933 62.272 7.90767 62.3 7.287L62.384 7.014H60.676V5.607H64.729V10.5H63.385L63.119 9.317C62.7037 10.143 61.7657 10.556 60.305 10.556ZM66.1038 10.5V1.05H69.9468L73.6708 9.38H73.3278L73.3488 1.05H75.7218V10.5H71.9138L68.1898 2.149H68.4768V10.5H66.1038ZM80.5447 10.5L83.5617 1.043H86.9287L89.9457 10.5H87.4887L86.8517 8.197H83.6387L83.0017 10.5H80.5447ZM84.0307 6.629H86.4667L85.2627 2.429H85.2417L84.0307 6.629ZM94.4007 10.584C92.8514 10.584 91.7687 10.2177 91.1527 9.485C90.5414 8.74767 90.2357 7.70933 90.2357 6.37C90.2357 4.998 90.5414 3.948 91.1527 3.22C91.7687 2.492 92.8514 2.128 94.4007 2.128C95.7774 2.128 96.7317 2.42667 97.2637 3.024C97.8004 3.62133 98.1131 4.249 98.2017 4.907L96.1087 5.635C96.0714 5.00033 95.9034 4.529 95.6047 4.221C95.3107 3.90833 94.9094 3.752 94.4007 3.752C93.8967 3.752 93.4767 3.927 93.1407 4.277C92.8047 4.627 92.6367 5.32467 92.6367 6.37C92.6367 7.37333 92.8047 8.057 93.1407 8.421C93.4767 8.785 93.8967 8.967 94.4007 8.967C94.9094 8.967 95.3107 8.80367 95.6047 8.477C95.9034 8.15033 96.0714 7.693 96.1087 7.105L98.2017 7.861C98.1131 8.47233 97.8004 9.079 97.2637 9.681C96.7317 10.283 95.7774 10.584 94.4007 10.584ZM103.246 10.584C101.697 10.584 100.614 10.2177 99.9984 9.485C99.3871 8.74767 99.0814 7.70933 99.0814 6.37C99.0814 4.998 99.3871 3.948 99.9984 3.22C100.614 2.492 101.697 2.128 103.246 2.128C104.623 2.128 105.577 2.42667 106.109 3.024C106.646 3.62133 106.959 4.249 107.047 4.907L104.954 5.635C104.917 5.00033 104.749 4.529 104.45 4.221C104.156 3.90833 103.755 3.752 103.246 3.752C102.742 3.752 102.322 3.927 101.986 4.277C101.65 4.627 101.482 5.32467 101.482 6.37C101.482 7.37333 101.65 8.057 101.986 8.421C102.322 8.785 102.742 8.967 103.246 8.967C103.755 8.967 104.156 8.80367 104.45 8.477C104.749 8.15033 104.917 7.693 104.954 7.105L107.047 7.861C106.959 8.47233 106.646 9.079 106.109 9.681C105.577 10.283 104.623 10.584 103.246 10.584ZM112.225 10.57C110.704 10.57 109.619 10.2037 108.97 9.471C108.321 8.73367 107.997 7.68133 107.997 6.314C107.997 4.95133 108.321 3.91067 108.97 3.192C109.619 2.46867 110.704 2.107 112.225 2.107C113.742 2.107 114.822 2.46867 115.466 3.192C116.115 3.91067 116.439 4.95133 116.439 6.314C116.439 7.68133 116.115 8.73367 115.466 9.471C114.822 10.2037 113.742 10.57 112.225 10.57ZM112.225 8.974C112.766 8.974 113.212 8.80133 113.562 8.456C113.912 8.11067 114.087 7.40133 114.087 6.328C114.087 5.25933 113.912 4.55467 113.562 4.214C113.212 3.87333 112.766 3.703 112.225 3.703C111.679 3.703 111.231 3.87333 110.881 4.214C110.531 4.55467 110.356 5.25933 110.356 6.328C110.356 7.40133 110.531 8.11067 110.881 8.456C111.231 8.80133 111.679 8.974 112.225 8.974ZM123.529 10.5L122.99 9.177V2.205H125.335V10.5H123.529ZM119.861 2.198V6.594C119.861 7.51333 119.969 8.13633 120.183 8.463C120.403 8.78967 120.746 8.953 121.212 8.953C121.698 8.953 122.115 8.764 122.465 8.386C122.82 8.00333 122.997 7.49233 122.997 6.853L124.145 7.336C124.145 8.06867 123.812 8.792 123.144 9.506C122.482 10.2153 121.548 10.57 120.344 10.57C119.262 10.57 118.52 10.22 118.118 9.52C117.717 8.82 117.516 7.882 117.516 6.706V2.198H119.861ZM126.733 10.5V2.205H128.553L129.085 3.605V10.5H126.733ZM132.144 10.5V6.104C132.144 5.18467 132.032 4.56167 131.808 4.235C131.584 3.90833 131.239 3.745 130.772 3.745C130.282 3.745 129.864 3.94567 129.519 4.347C129.178 4.74367 129.008 5.25933 129.008 5.894L127.867 5.362C127.867 4.62933 128.217 3.90833 128.917 3.199C129.617 2.485 130.532 2.128 131.661 2.128C132.73 2.128 133.469 2.492 133.88 3.22C134.291 3.94333 134.496 4.893 134.496 6.069V10.5H132.144ZM139.858 10.605C139.121 10.605 138.495 10.451 137.982 10.143C137.473 9.83033 137.219 9.268 137.219 8.456V3.822H135.322V2.205H137.219V0.307999H139.578V2.205H142.126V3.822H139.578V7.938C139.578 8.39067 139.671 8.687 139.858 8.827C140.049 8.96233 140.318 9.03 140.663 9.03C141.008 9.03 141.347 8.97167 141.678 8.855V10.409C141.099 10.5397 140.493 10.605 139.858 10.605Z" fill="#828DA9"/>
</g>
<defs>
<filter id="filter0_d_1677_31547" x="0.140137" y="0.308105" width="145.986" height="18.2969" filterUnits="userSpaceOnUse" color-interpolation-filters="sRGB">
<feFlood flood-opacity="0" result="BackgroundImageFix"/>
<feColorMatrix in="SourceAlpha" type="matrix" values="0 0 0 0 0 0 0 0 0 0 0 0 0 0 0 0 0 0 127 0" result="hardAlpha"/>
<feOffset dy="4"/>
<feGaussianBlur stdDeviation="2"/>
<feComposite in2="hardAlpha" operator="out"/>
<feColorMatrix type="matrix" values="0 0 0 0 0 0 0 0 0 0 0 0 0 0 0 0 0 0 0.25 0"/>
<feBlend mode="normal" in2="BackgroundImageFix" result="effect1_dropShadow_1677_31547"/>
<feBlend mode="normal" in="SourceGraphic" in2="effect1_dropShadow_1677_31547" result="shape"/>
</filter>
</defs>
</svg>
